<?xml version="1.0" encoding="UTF-8" standalone="no"?>
<svg
   xmlns:dc="http://purl.org/dc/elements/1.1/"
   xmlns:cc="http://creativecommons.org/ns#"
   xmlns:rdf="http://www.w3.org/1999/02/22-rdf-syntax-ns#"
   xmlns:svg="http://www.w3.org/2000/svg"
   xmlns="http://www.w3.org/2000/svg"
   xmlns:sodipodi="http://sodipodi.sourceforge.net/DTD/sodipodi-0.dtd"
   xmlns:inkscape="http://www.inkscape.org/namespaces/inkscape"
   version="1.1"
   id="Layer_1"
   x="0px"
   y="0px"
   width="141.38901"
   height="116.71735"
   viewBox="0 0 141.38901 116.71735"
   enable-background="new 0 0 300 300"
   xml:space="preserve"
   sodipodi:docname="owl-hover.svg"
   inkscape:version="1.0.2 (e86c870879, 2021-01-15)"><metadata
   id="metadata147"><rdf:RDF><cc:Work
       rdf:about=""><dc:format>image/svg+xml</dc:format><dc:type
         rdf:resource="http://purl.org/dc/dcmitype/StillImage" /><dc:title></dc:title></cc:Work></rdf:RDF></metadata><defs
   id="defs145" /><sodipodi:namedview
   pagecolor="#ffffff"
   bordercolor="#666666"
   borderopacity="1"
   objecttolerance="10"
   gridtolerance="10"
   guidetolerance="10"
   inkscape:pageopacity="0"
   inkscape:pageshadow="2"
   inkscape:window-width="1568"
   inkscape:window-height="1099"
   id="namedview143"
   showgrid="false"
   inkscape:zoom="3.36"
   inkscape:cx="70.703"
   inkscape:cy="57.368356"
   inkscape:window-x="2418"
   inkscape:window-y="262"
   inkscape:window-maximized="0"
   inkscape:current-layer="Layer_1" />
<g
   id="g140"
   transform="translate(-79.297,-92.631644)">
	<path
   fill="#34130f"
   d="m 168.973,182.706 h -37.962 c 0,0 -0.58,8.385 3.919,16.78 4.499,8.395 5.868,-4.015 5.868,-4.015 0,0 0.677,2.92 4.217,9.308 1.611,2.906 3.395,4.494 5.153,4.57 1.726,-0.076 3.477,-1.664 5.058,-4.57 3.476,-6.388 4.14,-9.308 4.14,-9.308 0,0 1.344,12.41 5.76,4.015 4.416,-8.395 3.847,-16.78 3.847,-16.78 z"
   id="path2" />
	<path
   fill="#c8b5ac"
   d="m 186.273,147.816 c -3.35,-9.365 0.426,-14.743 0.426,-14.743 h -73.188 c 0,0 3.761,5.373 0.425,14.743 -5.577,15.668 2.986,39.408 36.062,39.408 h 0.213 c 33.076,0.001 41.014,-25.57 36.062,-39.408 z"
   id="path4" />
	<g
   id="g14">
		<g
   id="g8">
			<path
   fill="#34130f"
   d="m 119.292,92.997 c -0.663,-0.291 -1.452,-0.548 -2.083,-0.192 -0.626,0.354 -0.819,1.206 -0.633,1.901 0.187,0.694 0.665,1.268 1.129,1.817 0.544,0.643 1.087,1.285 1.631,1.928 -2.046,-0.992 -4.146,-1.871 -6.289,-2.632 -1,-0.355 -2.553,-0.361 -2.647,0.695 -0.037,0.415 0.217,0.795 0.474,1.123 0.803,1.022 1.762,1.921 2.833,2.658 -2.312,-1.002 -4.976,-1.166 -7.393,-0.454 -0.281,0.083 -0.574,0.187 -0.761,0.413 -0.519,0.629 0.145,1.539 0.804,2.019 3.304,2.408 7.512,3.195 11.59,3.484 6.547,0.463 13.173,-0.195 19.5,-1.939 -3.59,-1.263 -12.025,-8.135 -18.155,-10.821 z"
   id="path6" />
		</g>
		<g
   id="g12">
			<path
   fill="#34130f"
   d="m 180.689,92.997 c 0.664,-0.291 1.452,-0.548 2.083,-0.192 0.626,0.354 0.819,1.206 0.632,1.901 -0.186,0.694 -0.664,1.268 -1.129,1.817 -0.543,0.643 -1.087,1.285 -1.631,1.928 2.046,-0.992 4.146,-1.871 6.289,-2.632 0.998,-0.355 2.553,-0.361 2.646,0.695 0.037,0.415 -0.217,0.795 -0.474,1.123 -0.804,1.022 -1.763,1.921 -2.833,2.658 2.312,-1.002 4.977,-1.166 7.393,-0.454 0.281,0.083 0.574,0.187 0.762,0.413 0.52,0.629 -0.145,1.539 -0.804,2.019 -3.304,2.408 -7.512,3.195 -11.591,3.484 -6.547,0.463 -13.172,-0.195 -19.5,-1.939 3.593,-1.263 12.029,-8.135 18.157,-10.821 z"
   id="path10" />
		</g>
	</g>
	<path
   fill="#632811"
   d="m 193.645,151.266 c -0.68,-12.056 -1.92,-41.814 -1.92,-41.814 0,0 -18.678,-10.16 -41.74,-10.185 -23.062,0.025 -41.74,10.185 -41.74,10.185 0,0 -1.158,28.072 -1.91,41.814 -0.671,12.263 2.687,42.64 43.523,42.64 h 0.264 c 40.835,-0.001 44.214,-30.379 43.523,-42.64 z"
   id="path16" />
	<path
   fill="#c8b5ac"
   d="m 190.506,161.827 c -0.877,-7.178 -4.563,-14.046 -10.247,-19.098 h -60.535 c -5.684,5.052 -9.37,11.92 -10.248,19.098 -0.223,1.821 0.106,4.206 2.057,4.678 2.552,0.617 6.56,-2.228 6.56,-2.228 0,0 -3.375,6.193 -1.736,9.551 0.923,1.891 3.825,2.342 6.056,1.922 2.23,-0.422 4.164,-1.639 6.028,-2.828 -0.579,1.281 -1.165,2.586 -1.303,3.965 -0.137,1.379 0.238,2.869 1.339,3.827 1.38,1.201 3.548,1.297 5.407,0.892 2.826,-0.616 5.273,-2.174 7.645,-3.699 -1.108,3.064 2.473,10.516 8.295,10.516 5.823,0 9.739,-7.451 8.631,-10.516 2.372,1.525 4.819,3.083 7.646,3.699 1.858,0.405 4.026,0.31 5.406,-0.892 1.102,-0.958 1.477,-2.448 1.339,-3.827 -0.138,-1.379 -0.724,-2.684 -1.302,-3.965 1.863,1.189 3.797,2.406 6.027,2.828 2.23,0.42 5.133,-0.031 6.056,-1.922 1.64,-3.357 -1.736,-9.551 -1.736,-9.551 0,0 4.007,2.845 6.56,2.228 1.949,-0.472 2.278,-2.857 2.055,-4.678 z"
   id="path18" />
	<g
   id="g24">
		<polygon
   fill="#e2dad6"
   points="149.984,175.324 149.999,175.324 149.991,175.323 "
   id="polygon20" />
		<path
   fill="#e2dad6"
   d="m 192.449,144.566 c -0.49,-4.096 -1.968,-7.643 -4.369,-10.998 h -76.178 c -2.401,3.355 -3.879,6.902 -4.369,10.998 -0.175,1.467 0.189,3.055 1.383,3.924 1.99,1.447 6.748,-2.499 6.748,-2.499 0,0 -2.719,6.217 -0.559,9.229 0.909,1.268 2.848,1.38 4.255,0.708 1.407,-0.672 2.42,-1.94 3.383,-3.167 -0.351,1.748 -0.704,3.525 -0.554,5.302 0.15,1.776 0.875,3.585 2.306,4.649 1.521,1.13 3.631,1.242 5.43,0.648 1.799,-0.594 3.329,-1.812 4.662,-3.159 -0.776,3.176 -1.328,7.444 1.52,9.051 2.847,1.606 6.199,-0.564 8.515,-2.872 0,0 -0.843,8.936 5.37,8.942 6.214,-0.007 5.37,-8.942 5.37,-8.942 2.316,2.308 5.667,4.479 8.515,2.872 2.848,-1.607 2.296,-5.875 1.521,-9.051 1.332,1.348 2.861,2.565 4.66,3.159 1.8,0.594 3.91,0.481 5.432,-0.648 1.431,-1.064 2.154,-2.873 2.305,-4.649 0.151,-1.776 -0.203,-3.554 -0.554,-5.302 0.963,1.227 1.976,2.495 3.384,3.167 1.406,0.672 3.346,0.56 4.254,-0.708 2.16,-3.012 -0.559,-9.229 -0.559,-9.229 0,0 4.758,3.946 6.747,2.499 1.193,-0.868 1.557,-2.457 1.382,-3.924 z"
   id="path22" />
	</g>
	<g
   id="g82">
		<g
   id="g52">
			<g
   id="g50">
				<g
   id="g28">
					<path
   fill="#c97029"
   d="m 121.442,186.071 c -1.101,2.202 -1.06,4.938 0.107,7.104 0.527,0.982 1.538,1.94 2.615,1.652 0.551,-0.148 0.969,-0.596 1.296,-1.064 1.469,-2.106 1.595,-5.069 0.312,-7.294 -0.544,-0.942 -1.44,-1.809 -2.528,-1.829 -1.088,-0.021 -1.441,0.576 -1.802,1.431"
   id="path26" />
				</g>
				<g
   id="g32">
					<path
   fill="#c97029"
   d="m 125.776,186.199 c -1.265,2.399 -1.217,5.381 0.124,7.743 0.606,1.069 1.768,2.113 3.005,1.799 0.633,-0.16 1.113,-0.648 1.489,-1.159 1.688,-2.296 1.833,-5.524 0.357,-7.948 -0.625,-1.027 -1.654,-1.971 -2.905,-1.993 -1.249,-0.024 -1.655,0.626 -2.07,1.558"
   id="path30" />
				</g>
				<g
   id="g36">
					<path
   fill="#c97029"
   d="m 130.978,186.071 c -1.101,2.202 -1.06,4.938 0.107,7.104 0.528,0.982 1.538,1.94 2.615,1.652 0.552,-0.148 0.97,-0.596 1.296,-1.064 1.469,-2.106 1.596,-5.069 0.312,-7.294 -0.544,-0.942 -1.439,-1.809 -2.528,-1.829 -1.089,-0.021 -1.441,0.576 -1.802,1.431"
   id="path34" />
				</g>
				<g
   id="g40">
					<path
   fill="#a75025"
   d="m 126.3,191.83 c -0.327,0.469 -0.745,0.916 -1.296,1.064 -1.077,0.287 -2.088,-0.67 -2.615,-1.652 -0.965,-1.793 -1.147,-3.969 -0.563,-5.916 -0.144,0.213 -0.265,0.463 -0.383,0.745 -1.101,2.202 -1.06,4.938 0.107,7.104 0.527,0.982 1.538,1.94 2.615,1.652 0.551,-0.148 0.969,-0.596 1.296,-1.064 0.448,-0.643 0.755,-1.367 0.951,-2.123 -0.04,0.062 -0.07,0.13 -0.112,0.19 z"
   id="path38" />
				</g>
				<g
   id="g44">
					<path
   fill="#a75025"
   d="m 131.234,192.648 c -0.376,0.51 -0.856,0.998 -1.489,1.158 -1.237,0.314 -2.398,-0.729 -3.005,-1.799 -1.104,-1.945 -1.316,-4.307 -0.656,-6.421 -0.109,0.185 -0.208,0.39 -0.308,0.612 -1.265,2.399 -1.217,5.381 0.124,7.743 0.606,1.069 1.768,2.113 3.005,1.799 0.633,-0.16 1.113,-0.648 1.489,-1.159 0.524,-0.713 0.881,-1.521 1.105,-2.361 -0.088,0.142 -0.165,0.292 -0.265,0.428 z"
   id="path42" />
				</g>
				<g
   id="g48">
					<path
   fill="#a75025"
   d="m 135.835,191.83 c -0.326,0.469 -0.744,0.916 -1.296,1.064 -1.077,0.287 -2.087,-0.67 -2.615,-1.652 -0.965,-1.792 -1.147,-3.969 -0.564,-5.914 -0.144,0.212 -0.264,0.461 -0.383,0.743 -1.101,2.202 -1.06,4.938 0.107,7.104 0.528,0.982 1.538,1.94 2.615,1.652 0.552,-0.148 0.97,-0.596 1.296,-1.064 0.448,-0.643 0.755,-1.368 0.951,-2.124 -0.038,0.062 -0.068,0.131 -0.111,0.191 z"
   id="path46" />
				</g>
			</g>
		</g>
		<g
   id="g80">
			<g
   id="g78">
				<g
   id="g56">
					<path
   fill="#c97029"
   d="m 178.559,186.071 c 1.075,2.202 1.035,4.938 -0.105,7.104 -0.516,0.982 -1.502,1.94 -2.555,1.652 -0.539,-0.148 -0.947,-0.596 -1.267,-1.064 -1.435,-2.106 -1.558,-5.069 -0.304,-7.294 0.531,-0.942 1.406,-1.809 2.47,-1.829 1.063,-0.021 1.408,0.576 1.761,1.431"
   id="path54" />
				</g>
				<g
   id="g60">
					<path
   fill="#c97029"
   d="m 174.324,186.199 c 1.235,2.399 1.188,5.381 -0.121,7.743 -0.593,1.069 -1.728,2.113 -2.937,1.799 -0.618,-0.16 -1.087,-0.648 -1.455,-1.159 -1.648,-2.296 -1.79,-5.524 -0.349,-7.948 0.61,-1.027 1.615,-1.971 2.838,-1.993 1.222,-0.024 1.618,0.626 2.024,1.558"
   id="path58" />
				</g>
				<g
   id="g64">
					<path
   fill="#c97029"
   d="m 169.242,186.071 c 1.075,2.202 1.035,4.938 -0.105,7.104 -0.516,0.982 -1.502,1.94 -2.555,1.652 -0.539,-0.148 -0.947,-0.596 -1.266,-1.064 -1.436,-2.106 -1.56,-5.069 -0.305,-7.294 0.531,-0.942 1.406,-1.809 2.471,-1.829 1.063,-0.021 1.407,0.576 1.76,1.431"
   id="path62" />
				</g>
				<g
   id="g68">
					<path
   fill="#a75025"
   d="m 173.813,191.83 c 0.318,0.469 0.728,0.916 1.266,1.064 1.053,0.287 2.039,-0.67 2.555,-1.652 0.943,-1.793 1.121,-3.969 0.551,-5.916 0.141,0.213 0.259,0.463 0.375,0.745 1.075,2.202 1.035,4.938 -0.105,7.104 -0.516,0.982 -1.502,1.94 -2.555,1.652 -0.539,-0.148 -0.947,-0.596 -1.267,-1.064 -0.437,-0.643 -0.737,-1.367 -0.929,-2.123 0.038,0.062 0.067,0.13 0.109,0.19 z"
   id="path66" />
				</g>
				<g
   id="g72">
					<path
   fill="#a75025"
   d="m 168.992,192.648 c 0.367,0.51 0.836,0.998 1.455,1.158 1.208,0.314 2.343,-0.729 2.936,-1.799 1.078,-1.945 1.286,-4.307 0.641,-6.421 0.107,0.185 0.203,0.39 0.301,0.612 1.235,2.399 1.188,5.381 -0.121,7.743 -0.593,1.069 -1.728,2.113 -2.937,1.799 -0.618,-0.16 -1.087,-0.648 -1.455,-1.159 -0.512,-0.713 -0.86,-1.521 -1.08,-2.361 0.086,0.142 0.162,0.292 0.26,0.428 z"
   id="path70" />
				</g>
				<g
   id="g76">
					<path
   fill="#a75025"
   d="m 164.496,191.83 c 0.318,0.469 0.727,0.916 1.266,1.064 1.053,0.287 2.039,-0.67 2.555,-1.652 0.943,-1.792 1.121,-3.969 0.552,-5.914 0.14,0.212 0.258,0.461 0.374,0.743 1.075,2.202 1.035,4.938 -0.105,7.104 -0.516,0.982 -1.502,1.94 -2.555,1.652 -0.539,-0.148 -0.947,-0.596 -1.266,-1.064 -0.438,-0.643 -0.738,-1.368 -0.93,-2.124 0.039,0.062 0.068,0.131 0.109,0.191 z"
   id="path74" />
				</g>
			</g>
		</g>
	</g>
	<g
   id="g92">
		<g
   id="g86">
			<path
   fill="#34130f"
   d="m 113.065,134.575 c -10.78,-5.003 -33.768,0.96 -33.768,3.533 0,2.573 11.969,3.072 11.969,3.072 0,0 -4.572,2.153 -9.362,6.092 -0.446,0.367 -0.92,0.823 -0.914,1.401 0.012,1.071 1.479,1.359 2.546,1.265 2.759,-0.244 5.493,-0.763 8.149,-1.548 -2.468,2.161 -4.668,4.625 -6.537,7.323 -1.051,1.518 -1.942,3.741 -0.628,5.038 1.055,1.041 2.806,0.69 4.2,0.187 9.965,-3.596 20.353,-16.55 24.345,-26.363"
   id="path84" />
		</g>
		<g
   id="g90">
			<path
   fill="#34130f"
   d="m 186.918,134.575 c 10.779,-5.003 33.768,0.96 33.768,3.533 0,2.573 -11.969,3.072 -11.969,3.072 0,0 4.572,2.153 9.361,6.092 0.446,0.367 0.92,0.823 0.914,1.401 -0.012,1.071 -1.479,1.359 -2.547,1.265 -2.758,-0.244 -5.492,-0.763 -8.148,-1.548 2.469,2.161 4.669,4.625 6.537,7.323 1.051,1.518 1.942,3.741 0.629,5.038 -1.055,1.041 -2.807,0.69 -4.2,0.187 -9.965,-3.596 -20.354,-16.55 -24.345,-26.363"
   id="path88" />
		</g>
	</g>
	<path
   fill="#c8b5ac"
   d="m 161.875,106.298 c -9.395,3.635 -11.884,19.976 -11.884,19.976 0,0 -2.49,-16.341 -11.884,-19.976 -15.066,-5.829 -33.941,7.061 -27.117,27.799 15.272,3.496 30.118,11.839 39,21.873 8.883,-10.033 23.729,-18.377 39.001,-21.873 6.825,-20.738 -12.05,-33.627 -27.116,-27.799 z"
   id="path94" />
	<g
   id="g124">
		<g
   id="g108">
			<g
   id="g106">
				<path
   fill="#37140f"
   d="m 155.688,122.511 c 0,-8.03 7.443,-14.541 15.473,-14.541 8.03,0 15.262,6.51 15.262,14.541 0,6.833 -8.506,15.554 -16.516,14.986 -7.459,-0.529 -14.219,-6.956 -14.219,-14.986 z"
   id="path96" />
				<circle
   fill="#ffffff"
   cx="171.056"
   cy="122.511"
   r="13.06"
   id="circle98" />
				<circle
   fill="#010101"
   cx="171.104"
   cy="120.306"
   r="10.438"
   id="circle100" />
				<circle
   fill="#ffffff"
   cx="172.52699"
   cy="115.243"
   r="2.777"
   id="circle102" />
				<circle
   fill="#ffffff"
   cx="176.692"
   cy="118.917"
   r="1.388"
   id="circle104" />
			</g>
		</g>
		<g
   id="g122">
			<g
   id="g120">
				<path
   fill="#37140f"
   d="m 113.56,122.511 c 0,-8.03 7.442,-14.541 15.471,-14.541 8.03,0 15.263,6.51 15.263,14.541 0,6.833 -8.507,15.554 -16.516,14.986 -7.458,-0.529 -14.218,-6.956 -14.218,-14.986 z"
   id="path110" />
				<circle
   fill="#ffffff"
   cx="128.927"
   cy="122.511"
   r="13.06"
   id="circle112" />
				<circle
   fill="#010101"
   cx="128.976"
   cy="120.306"
   r="10.437"
   id="circle114" />
				<circle
   fill="#ffffff"
   cx="130.399"
   cy="115.243"
   r="2.777"
   id="circle116" />
				<circle
   fill="#ffffff"
   cx="134.564"
   cy="118.917"
   r="1.388"
   id="circle118" />
			</g>
		</g>
	</g>
	<g
   id="g128">
		<path
   fill="#34130f"
   d="m 155.419,103.723 c -0.011,0.007 -0.022,0.014 -0.034,0.021 -1.124,0.704 -2.006,1.725 -2.871,2.73 0.385,-1.56 0.773,-3.176 0.494,-4.758 -0.28,-1.583 -1.414,-3.132 -3.004,-3.365 h -0.024 c -1.59,0.233 -2.725,1.782 -3.004,3.365 -0.279,1.583 0.108,3.198 0.494,4.758 -0.865,-1.006 -1.748,-2.027 -2.872,-2.73 -0.011,-0.007 -0.022,-0.014 -0.034,-0.021 -1.9,-1.171 -4.273,0.578 -3.899,2.778 0.417,2.451 1.816,4.851 3.177,7.013 1.318,2.096 2.636,4.191 3.955,6.287 h 4.392 c 1.318,-2.095 2.636,-4.191 3.954,-6.287 1.36,-2.162 2.761,-4.562 3.177,-7.013 0.372,-2.201 -2.001,-3.949 -3.901,-2.778 z"
   id="path126" />
	</g>
	<g
   id="g138">
		<g
   id="g132">
			<path
   fill="#a54324"
   d="m 146.863,124.958 c 0,0 0.698,3.991 3.477,3.991 2.779,0 2.779,-4.135 2.779,-4.135 z"
   id="path130" />
		</g>
		<g
   id="g136">
			<path
   fill="#c97029"
   d="m 150.098,116.888 c -1.856,-0.014 -3.967,5.94 -4.134,8.695 l 8.051,-0.185 c 0.094,-0.417 -2.06,-8.496 -3.917,-8.51 z"
   id="path134" />
		</g>
	</g>
</g>
</svg>
