<?xml version="1.0" encoding="utf-8"?>
<!-- Generator: Adobe Illustrator 16.0.0, SVG Export Plug-In . SVG Version: 6.00 Build 0)  -->
<!DOCTYPE svg PUBLIC "-//W3C//DTD SVG 1.1//EN" "http://www.w3.org/Graphics/SVG/1.1/DTD/svg11.dtd">
<svg version="1.1" id="Layer_1" xmlns="http://www.w3.org/2000/svg" xmlns:xlink="http://www.w3.org/1999/xlink" x="0px" y="0px"
	 width="300px" height="300px" viewBox="0 0 300 300" enable-background="new 0 0 300 300" xml:space="preserve">
<g>
	<g>
		<path fill="#34130F" d="M181.805,196.588h-37.961c0,0-0.58,8.385,3.919,16.779c4.5,8.396,5.869-4.014,5.869-4.014
			s0.677,2.92,4.217,9.307c1.61,2.908,3.395,4.496,5.152,4.57c1.727-0.074,3.478-1.662,5.059-4.57
			c3.475-6.387,4.139-9.307,4.139-9.307s1.345,12.41,5.761,4.014C182.374,204.973,181.805,196.588,181.805,196.588z"/>
		<path fill="#C8B5AC" d="M199.106,161.698c-3.351-9.366,0.426-14.744,0.426-14.744h-73.188c0,0,3.761,5.373,0.426,14.744
			c-5.577,15.667,2.986,39.409,36.062,39.409h0.214C196.12,201.107,204.058,175.536,199.106,161.698z"/>
		<g>
			<g>
				<path fill="#34130F" d="M93.888,168.881c-0.291,0.663-0.548,1.451-0.192,2.082c0.354,0.627,1.207,0.82,1.901,0.633
					c0.694-0.187,1.268-0.664,1.816-1.129c0.643-0.544,1.286-1.088,1.928-1.631c-0.992,2.045-1.871,4.146-2.632,6.288
					c-0.355,0.999-0.361,2.554,0.695,2.647c0.415,0.037,0.795-0.217,1.123-0.475c1.022-0.803,1.922-1.762,2.659-2.833
					c-1.002,2.312-1.166,4.977-0.454,7.394c0.083,0.281,0.187,0.574,0.413,0.761c0.629,0.52,1.539-0.144,2.019-0.804
					c2.408-3.304,3.195-7.512,3.484-11.59c0.463-6.547-0.196-13.173-1.939-19.5C103.446,154.316,96.574,162.752,93.888,168.881z"/>
			</g>
			<g>
				<path fill="#34130F" d="M93.888,107.483c-0.291-0.663-0.548-1.452-0.192-2.083c0.354-0.626,1.207-0.819,1.901-0.633
					c0.694,0.187,1.268,0.665,1.816,1.129c0.643,0.544,1.286,1.087,1.928,1.631c-0.992-2.046-1.871-4.146-2.632-6.289
					c-0.355-1-0.361-2.553,0.695-2.647c0.415-0.037,0.795,0.217,1.123,0.474c1.022,0.803,1.922,1.762,2.659,2.833
					c-1.002-2.312-1.166-4.976-0.454-7.393c0.083-0.281,0.187-0.574,0.413-0.761c0.629-0.519,1.539,0.145,2.019,0.804
					c2.408,3.304,3.195,7.512,3.484,11.59c0.463,6.547-0.196,13.173-1.939,19.5C103.446,122.048,96.574,113.613,93.888,107.483z"/>
			</g>
		</g>
		<path fill="#632811" d="M151.191,182.352c-13.743-0.752-41.815-1.91-41.815-1.91s-10.159-18.678-10.185-41.74
			c0.026-23.062,10.185-41.74,10.185-41.74s29.758-1.24,41.815-1.92c0,0,55.286-0.898,55.286,70.107
			c0,12.279-2.688,42.639-43.523,42.639h-0.264c-40.836,0-44.195-30.377-43.524-42.639"/>
		<path fill="#C8B5AC" d="M203.339,175.709c0.061-14.472,0.068-39.316-14.104-53.856l-56.678,34.758
			c-5.684,5.052-9.37,11.921-10.248,19.099c-0.223,1.821,0.106,4.205,2.057,4.678c2.553,0.617,6.56-2.229,6.56-2.229
			s-3.375,6.193-1.736,9.551c0.923,1.892,3.825,2.344,6.056,1.922s4.164-1.639,6.028-2.827c-0.579,1.28-1.165,2.586-1.302,3.965
			s0.238,2.868,1.339,3.827c1.38,1.201,3.548,1.297,5.407,0.891c2.826-0.615,5.273-2.173,7.645-3.698
			c-1.108,3.063,2.473,10.516,8.296,10.516c5.822,0,9.739-7.452,8.631-10.516c2.371,1.525,4.819,3.083,7.645,3.698
			c1.859,0.406,4.027,0.311,5.407-0.891c1.101-0.959,1.477-2.448,1.339-3.827s-0.724-2.685-1.303-3.965
			c1.864,1.188,3.798,2.405,6.028,2.827s5.132-0.03,6.056-1.922c1.639-3.357-1.736-9.551-1.736-9.551s4.007,2.846,6.56,2.229
			C203.232,179.914,203.331,177.544,203.339,175.709z"/>
		<g>
			<polygon fill="#E2DAD6" points="184.162,176.516 184.156,176.52 184.151,176.525 			"/>
			<path fill="#E2DAD6" d="M193.508,123.854c-10.945-22.556-33.298-28.686-60.03-25.125l-5.78,75.199
				c0.674,4.07,2.137,7.623,4.688,10.866c0.913,1.161,2.293,2.026,3.753,1.796c2.431-0.383,3.004-6.537,3.004-6.537
				s2.446,6.249,6.07,6.91c1.215,0.223,2.415-0.447,3.079-1.488c1.095-1.718,0.875-3.729,0.644-5.641
				c0.988,1.484,1.995,2.99,3.357,4.141c1.362,1.15,3.153,1.917,4.917,1.657c1.875-0.276,3.447-1.688,4.299-3.382
				c0.853-1.691,1.073-3.635,1.063-5.529c1.696,2.795,4.325,6.203,7.475,5.325s3.984-4.782,3.99-8.052c0,0,5.722,6.914,10.12,2.525
				c4.388-4.398-2.525-10.119-2.525-10.119c3.269-0.006,7.173-0.842,8.051-3.99c0.878-3.149-2.53-5.779-5.325-7.476
				c1.896,0.011,3.838-0.21,5.53-1.062c1.692-0.853,3.104-2.424,3.381-4.299c0.26-1.764-0.507-3.555-1.657-4.917
				c-1.149-1.363-2.655-2.369-4.14-3.357c1.911,0.23,3.922,0.45,5.64-0.645c1.041-0.663,1.711-1.864,1.489-3.079
				c-0.662-3.624-6.911-6.069-6.911-6.069s2.521,0.705,4.676-1.217C194.158,128.692,194.556,126.015,193.508,123.854z"/>
		</g>
		<g>
			<g>
				<g>
					<g>
						<path fill="#C97029" d="M134.275,199.953c-1.101,2.201-1.059,4.938,0.107,7.104c0.527,0.982,1.538,1.941,2.616,1.652
							c0.551-0.148,0.968-0.596,1.296-1.064c1.468-2.105,1.594-5.068,0.311-7.293c-0.543-0.943-1.44-1.809-2.528-1.83
							S134.636,199.098,134.275,199.953"/>
					</g>
					<g>
						<path fill="#C97029" d="M138.609,200.08c-1.264,2.4-1.217,5.381,0.124,7.744c0.607,1.068,1.768,2.113,3.005,1.799
							c0.633-0.16,1.113-0.648,1.49-1.16c1.688-2.295,1.833-5.523,0.357-7.947c-0.625-1.027-1.654-1.971-2.905-1.994
							C139.429,198.498,139.024,199.148,138.609,200.08"/>
					</g>
					<g>
						<path fill="#C97029" d="M143.811,199.953c-1.101,2.201-1.06,4.938,0.107,7.104c0.528,0.982,1.538,1.941,2.615,1.652
							c0.552-0.148,0.97-0.596,1.296-1.064c1.469-2.105,1.596-5.068,0.312-7.293c-0.544-0.943-1.44-1.809-2.529-1.83
							C144.524,198.5,144.171,199.098,143.811,199.953"/>
					</g>
					<g>
						<path fill="#A75025" d="M139.133,205.711c-0.328,0.469-0.745,0.916-1.296,1.064c-1.078,0.288-2.088-0.67-2.616-1.652
							c-0.965-1.792-1.147-3.969-0.563-5.915c-0.144,0.213-0.264,0.463-0.383,0.745c-1.101,2.201-1.059,4.938,0.107,7.104
							c0.527,0.982,1.538,1.941,2.616,1.652c0.551-0.148,0.968-0.596,1.296-1.064c0.447-0.641,0.754-1.367,0.951-2.123
							C139.205,205.584,139.175,205.65,139.133,205.711z"/>
					</g>
					<g>
						<path fill="#A75025" d="M144.067,206.529c-0.376,0.511-0.856,0.999-1.489,1.159c-1.237,0.314-2.398-0.729-3.005-1.799
							c-1.104-1.945-1.316-4.307-0.656-6.421c-0.109,0.185-0.208,0.39-0.308,0.611c-1.264,2.4-1.217,5.381,0.124,7.744
							c0.607,1.068,1.768,2.113,3.005,1.799c0.633-0.16,1.113-0.648,1.49-1.16c0.524-0.713,0.881-1.521,1.105-2.361
							C144.244,206.244,144.167,206.393,144.067,206.529z"/>
					</g>
					<g>
						<path fill="#A75025" d="M148.668,205.711c-0.326,0.469-0.744,0.916-1.296,1.064c-1.077,0.288-2.086-0.67-2.615-1.652
							c-0.965-1.791-1.147-3.968-0.564-5.914c-0.143,0.213-0.264,0.463-0.382,0.744c-1.101,2.201-1.06,4.938,0.107,7.104
							c0.528,0.982,1.538,1.941,2.615,1.652c0.552-0.148,0.97-0.596,1.296-1.064c0.448-0.642,0.755-1.367,0.952-2.123
							C148.74,205.583,148.71,205.65,148.668,205.711z"/>
					</g>
				</g>
			</g>
			<g>
				<g>
					<g>
						<path fill="#C97029" d="M191.391,199.953c1.075,2.201,1.035,4.938-0.104,7.104c-0.516,0.982-1.503,1.941-2.556,1.652
							c-0.538-0.148-0.946-0.596-1.266-1.064c-1.436-2.105-1.559-5.068-0.305-7.293c0.531-0.943,1.407-1.809,2.471-1.83
							C190.693,198.5,191.039,199.098,191.391,199.953"/>
					</g>
					<g>
						<path fill="#C97029" d="M187.156,200.08c1.235,2.4,1.189,5.381-0.121,7.744c-0.593,1.068-1.727,2.113-2.936,1.799
							c-0.618-0.16-1.088-0.648-1.455-1.16c-1.649-2.295-1.791-5.523-0.35-7.947c0.611-1.027,1.616-1.971,2.839-1.994
							C186.355,198.498,186.751,199.148,187.156,200.08"/>
					</g>
					<g>
						<path fill="#C97029" d="M182.075,199.953c1.075,2.201,1.035,4.938-0.105,7.104c-0.516,0.982-1.503,1.941-2.555,1.652
							c-0.539-0.148-0.948-0.596-1.267-1.064c-1.435-2.105-1.559-5.068-0.305-7.293c0.532-0.943,1.407-1.809,2.471-1.83
							C181.377,198.5,181.722,199.098,182.075,199.953"/>
					</g>
					<g>
						<path fill="#A75025" d="M186.645,205.711c0.319,0.469,0.728,0.916,1.266,1.064c1.053,0.288,2.04-0.67,2.556-1.652
							c0.942-1.792,1.121-3.969,0.551-5.915c0.141,0.213,0.259,0.463,0.374,0.745c1.075,2.201,1.035,4.938-0.104,7.104
							c-0.516,0.982-1.503,1.941-2.556,1.652c-0.538-0.148-0.946-0.596-1.266-1.064c-0.438-0.641-0.737-1.367-0.93-2.123
							C186.574,205.584,186.604,205.65,186.645,205.711z"/>
					</g>
					<g>
						<path fill="#A75025" d="M181.824,206.529c0.367,0.511,0.837,0.999,1.455,1.159c1.209,0.314,2.344-0.729,2.936-1.799
							c1.079-1.945,1.287-4.307,0.642-6.421c0.106,0.185,0.203,0.39,0.3,0.611c1.235,2.4,1.189,5.381-0.121,7.744
							c-0.593,1.068-1.727,2.113-2.936,1.799c-0.618-0.16-1.088-0.648-1.455-1.16c-0.513-0.713-0.861-1.521-1.08-2.361
							C181.651,206.244,181.727,206.393,181.824,206.529z"/>
					</g>
					<g>
						<path fill="#A75025" d="M177.328,205.711c0.319,0.469,0.728,0.916,1.267,1.064c1.052,0.288,2.039-0.67,2.555-1.652
							c0.942-1.791,1.121-3.968,0.552-5.914c0.14,0.213,0.258,0.463,0.374,0.744c1.075,2.201,1.035,4.938-0.105,7.104
							c-0.516,0.982-1.503,1.941-2.555,1.652c-0.539-0.148-0.948-0.596-1.267-1.064c-0.438-0.642-0.737-1.367-0.93-2.123
							C177.258,205.583,177.287,205.65,177.328,205.711z"/>
					</g>
				</g>
			</g>
		</g>
		<g>
			<g>
				<path fill="#34130F" d="M134.458,175.361c-11.16,4.086-23.198,24.557-21.379,26.376s10.635-6.29,10.635-6.29
					s-1.71,4.754-2.312,10.927c-0.056,0.575-0.069,1.233,0.344,1.638c0.766,0.748,2.007-0.086,2.695-0.906
					c1.778-2.123,3.345-4.424,4.667-6.856c-0.217,3.272-0.03,6.572,0.556,9.8c0.33,1.816,1.272,4.02,3.118,4.007
					c1.482-0.01,2.472-1.496,3.102-2.837C140.389,201.629,138.575,185.123,134.458,175.361"/>
			</g>
			<g>
				<path fill="#34130F" d="M133.872,100.313c4.085-11.16,24.557-23.198,26.376-21.379c1.818,1.819-6.291,10.635-6.291,10.635
					s4.755-1.711,10.928-2.312c0.575-0.056,1.232-0.069,1.637,0.345c0.749,0.766-0.085,2.007-0.906,2.695
					c-2.122,1.778-4.423,3.344-6.855,4.667c3.272-0.217,6.571-0.03,9.799,0.555c1.816,0.33,4.02,1.272,4.008,3.119
					c-0.01,1.482-1.496,2.472-2.838,3.102C160.139,106.243,143.634,104.429,133.872,100.313"/>
			</g>
		</g>
		<path fill="#C8B5AC" d="M107.189,126.298c3.635,9.395,19.976,11.884,19.976,11.884s-16.341,2.49-19.976,11.884
			c-5.829,15.066,7.061,33.942,27.799,27.117c3.496-15.272,11.839-30.118,21.872-39c-10.033-8.883-18.376-23.729-21.872-39
			C114.25,92.357,101.361,111.232,107.189,126.298z"/>
		<g>
			<g>
				<g>
					<path fill="#37140F" d="M123.402,132.485c-8.03,0-14.54-7.443-14.54-15.472c0-8.03,6.51-15.263,14.54-15.263
						c6.833,0,15.554,8.507,14.986,16.516C137.859,125.725,131.432,132.485,123.402,132.485z"/>
					<circle fill="#FFFFFF" cx="123.402" cy="117.118" r="13.06"/>
					<circle fill="#010101" cx="121.197" cy="117.07" r="10.437"/>
					<circle fill="#FFFFFF" cx="116.134" cy="115.647" r="2.777"/>
					<circle fill="#FFFFFF" cx="119.808" cy="111.481" r="1.388"/>
				</g>
			</g>
			<g>
				<g>
					<path fill="#37140F" d="M123.402,174.613c-8.03,0-14.54-7.442-14.54-15.472c0-8.03,6.51-15.263,14.54-15.263
						c6.833,0,15.554,8.507,14.986,16.516C137.859,167.853,131.432,174.613,123.402,174.613z"/>
					<circle fill="#FFFFFF" cx="123.402" cy="159.246" r="13.06"/>
					<circle fill="#010101" cx="121.197" cy="159.198" r="10.437"/>
					<circle fill="#FFFFFF" cx="116.134" cy="157.775" r="2.777"/>
					<circle fill="#FFFFFF" cx="119.808" cy="153.609" r="1.389"/>
				</g>
			</g>
		</g>
		<g>
			<path fill="#34130F" d="M104.614,132.754c0.007,0.011,0.014,0.022,0.021,0.034c0.703,1.124,1.725,2.007,2.73,2.872
				c-1.56-0.385-3.176-0.773-4.758-0.494s-3.132,1.414-3.365,3.004v0.024c0.233,1.59,1.782,2.725,3.365,3.004
				s3.198-0.108,4.758-0.494c-1.006,0.865-2.027,1.747-2.73,2.872c-0.007,0.011-0.014,0.022-0.021,0.034
				c-1.171,1.9,0.578,4.273,2.778,3.899c2.451-0.417,4.851-1.816,7.013-3.177c2.096-1.318,4.191-2.636,6.287-3.955v-4.392
				c-2.096-1.318-4.191-2.637-6.287-3.955c-2.162-1.36-4.562-2.76-7.013-3.176C105.191,128.481,103.443,130.854,104.614,132.754z"/>
		</g>
		<g>
			<g>
				<path fill="#A54324" d="M125.849,141.31c0,0,3.992-0.698,3.992-3.477s-4.135-2.779-4.135-2.779L125.849,141.31z"/>
			</g>
			<g>
				<path fill="#C97029" d="M117.779,138.075c-0.014,1.856,5.94,3.967,8.695,4.134l-0.185-8.051
					C125.872,134.063,117.793,136.219,117.779,138.075z"/>
			</g>
		</g>
	</g>
</g>
</svg>
