<?xml version="1.0" encoding="UTF-8" standalone="no"?>
<svg
   xmlns:dc="http://purl.org/dc/elements/1.1/"
   xmlns:cc="http://creativecommons.org/ns#"
   xmlns:rdf="http://www.w3.org/1999/02/22-rdf-syntax-ns#"
   xmlns:svg="http://www.w3.org/2000/svg"
   xmlns="http://www.w3.org/2000/svg"
   xmlns:sodipodi="http://sodipodi.sourceforge.net/DTD/sodipodi-0.dtd"
   xmlns:inkscape="http://www.inkscape.org/namespaces/inkscape"
   version="1.1"
   id="Layer_1"
   x="0px"
   y="0px"
   width="97.126381"
   height="108.21772"
   viewBox="0 0 97.126381 108.21772"
   enable-background="new 0 0 300 300"
   xml:space="preserve"
   sodipodi:docname="owl-read-no-tail.svg"
   inkscape:version="1.0.2 (e86c870879, 2021-01-15)"><metadata
   id="metadata175"><rdf:RDF><cc:Work
       rdf:about=""><dc:format>image/svg+xml</dc:format><dc:type
         rdf:resource="http://purl.org/dc/dcmitype/StillImage" /><dc:title></dc:title></cc:Work></rdf:RDF></metadata><defs
   id="defs173" /><sodipodi:namedview
   pagecolor="#ffffff"
   bordercolor="#666666"
   borderopacity="1"
   objecttolerance="10"
   gridtolerance="10"
   guidetolerance="10"
   inkscape:pageopacity="0"
   inkscape:pageshadow="2"
   inkscape:window-width="1626"
   inkscape:window-height="948"
   id="namedview171"
   showgrid="false"
   inkscape:zoom="3.36"
   inkscape:cx="47.92744"
   inkscape:cy="61.531606"
   inkscape:window-x="2476"
   inkscape:window-y="298"
   inkscape:window-maximized="0"
   inkscape:current-layer="g168" />
<g
   id="g168"
   transform="translate(-102.07256,-88.468394)">
	
	<path
   fill="#c8b5ac"
   d="m 189.82,144.064 c -3.675,-10.271 0.466,-16.169 0.466,-16.169 H 110.02 c 0,0 4.125,5.893 0.466,16.169 -6.116,17.184 3.275,43.22 39.549,43.22 h 0.234 c 36.276,0 44.98,-28.043 39.551,-43.22 z"
   id="path4" />
	<path
   fill="#632811"
   d="m 197.903,147.848 c -0.745,-13.223 -2.105,-45.858 -2.105,-45.858 0,0 -20.484,-11.143 -45.777,-11.17 -25.292,0.027 -45.777,11.17 -45.777,11.17 0,0 -1.27,30.787 -2.094,45.858 -0.736,13.448 2.947,46.763 47.732,46.763 h 0.289 c 44.786,-10e-4 48.491,-33.316 47.732,-46.763 z"
   id="path6" />
	<path
   fill="#c8b5ac"
   d="m 194.462,159.431 c -0.963,-7.872 -5.005,-15.405 -11.239,-20.945 h -66.389 c -6.234,5.54 -10.275,13.073 -11.238,20.945 -0.245,1.998 0.116,4.612 2.256,5.13 2.799,0.677 7.194,-2.443 7.194,-2.443 0,0 -3.703,6.792 -1.905,10.475 1.013,2.074 4.195,2.569 6.642,2.107 2.446,-0.463 4.566,-1.797 6.611,-3.101 -0.635,1.404 -1.278,2.836 -1.429,4.349 -0.151,1.512 0.261,3.146 1.468,4.196 1.514,1.317 3.891,1.422 5.93,0.978 3.099,-0.676 5.784,-2.384 8.384,-4.057 -1.216,3.36 2.712,11.533 9.098,11.533 6.385,0 10.681,-8.173 9.465,-11.533 2.602,1.673 5.285,3.381 8.385,4.057 2.038,0.444 4.416,0.34 5.93,-0.978 1.207,-1.051 1.619,-2.685 1.468,-4.196 -0.15,-1.513 -0.793,-2.944 -1.428,-4.349 2.044,1.304 4.164,2.638 6.61,3.101 2.446,0.462 5.629,-0.033 6.642,-2.107 1.798,-3.683 -1.904,-10.475 -1.904,-10.475 0,0 4.395,3.12 7.194,2.443 2.138,-0.518 2.499,-3.132 2.255,-5.13 z"
   id="path8" />
	<g
   id="g14">
		<polygon
   fill="#e2dad6"
   points="150.028,174.231 150.021,174.232 150.036,174.232 "
   id="polygon10" />
		<path
   fill="#e2dad6"
   d="m 196.592,140.5 c -0.536,-4.492 -2.157,-8.382 -4.79,-12.062 h -83.546 c -2.633,3.68 -4.254,7.569 -4.791,12.062 -0.192,1.609 0.207,3.351 1.517,4.304 2.183,1.588 7.4,-2.739 7.4,-2.739 0,0 -2.982,6.817 -0.613,10.121 0.997,1.39 3.123,1.513 4.666,0.775 1.543,-0.736 2.655,-2.127 3.71,-3.473 -0.385,1.918 -0.772,3.866 -0.607,5.814 0.165,1.948 0.959,3.933 2.529,5.099 1.668,1.239 3.982,1.363 5.955,0.712 1.974,-0.652 3.651,-1.987 5.112,-3.465 -0.852,3.482 -1.456,8.165 1.667,9.926 3.123,1.762 6.798,-0.619 9.338,-3.149 0,0 -0.925,9.799 5.889,9.807 6.814,-0.008 5.89,-9.807 5.89,-9.807 2.54,2.53 6.215,4.911 9.338,3.149 3.123,-1.761 2.519,-6.443 1.667,-9.926 1.461,1.478 3.139,2.813 5.112,3.465 1.974,0.651 4.287,0.527 5.955,-0.712 1.57,-1.166 2.364,-3.15 2.528,-5.099 0.165,-1.948 -0.222,-3.896 -0.607,-5.814 1.057,1.346 2.168,2.736 3.711,3.473 1.543,0.737 3.669,0.614 4.666,-0.775 2.369,-3.304 -0.613,-10.121 -0.613,-10.121 0,0 5.218,4.327 7.4,2.739 1.31,-0.953 1.709,-2.695 1.517,-4.304 z"
   id="path12" />
	</g>
	<g
   id="g72">
		<g
   id="g42">
			<g
   id="g40">
				<g
   id="g18">
					<path
   fill="#c97029"
   d="m 118.719,186.02 c -1.207,2.414 -1.162,5.414 0.118,7.791 0.579,1.077 1.687,2.128 2.868,1.813 0.604,-0.163 1.063,-0.653 1.421,-1.168 1.611,-2.31 1.749,-5.56 0.342,-7.999 -0.597,-1.034 -1.58,-1.983 -2.773,-2.006 -1.194,-0.024 -1.581,0.63 -1.976,1.569"
   id="path16" />
				</g>
				<g
   id="g22">
					<path
   fill="#c97029"
   d="m 123.472,186.159 c -1.387,2.632 -1.334,5.901 0.136,8.492 0.665,1.173 1.938,2.317 3.295,1.973 0.694,-0.176 1.221,-0.711 1.633,-1.271 1.851,-2.518 2.01,-6.059 0.392,-8.717 -0.686,-1.127 -1.814,-2.161 -3.187,-2.186 -1.369,-0.026 -1.814,0.687 -2.269,1.709"
   id="path20" />
				</g>
				<g
   id="g26">
					<path
   fill="#c97029"
   d="m 129.176,186.02 c -1.207,2.414 -1.162,5.414 0.118,7.791 0.579,1.077 1.687,2.128 2.868,1.813 0.605,-0.163 1.063,-0.653 1.421,-1.168 1.611,-2.31 1.75,-5.56 0.342,-7.999 -0.597,-1.034 -1.579,-1.983 -2.773,-2.006 -1.193,-0.024 -1.58,0.63 -1.976,1.569"
   id="path24" />
				</g>
				<g
   id="g30">
					<path
   fill="#a75025"
   d="m 124.046,192.334 c -0.359,0.515 -0.817,1.005 -1.421,1.168 -1.182,0.315 -2.29,-0.735 -2.869,-1.813 -1.058,-1.965 -1.258,-4.353 -0.618,-6.487 -0.157,0.233 -0.29,0.508 -0.42,0.817 -1.207,2.414 -1.162,5.414 0.118,7.791 0.579,1.077 1.687,2.128 2.868,1.813 0.604,-0.163 1.063,-0.653 1.421,-1.168 0.491,-0.704 0.828,-1.499 1.043,-2.328 -0.043,0.067 -0.075,0.142 -0.122,0.207 z"
   id="path28" />
				</g>
				<g
   id="g34">
					<path
   fill="#a75025"
   d="m 129.457,193.231 c -0.412,0.561 -0.939,1.096 -1.633,1.271 -1.357,0.345 -2.631,-0.8 -3.296,-1.973 -1.211,-2.134 -1.444,-4.724 -0.719,-7.042 -0.12,0.202 -0.229,0.427 -0.337,0.671 -1.387,2.632 -1.334,5.901 0.136,8.492 0.665,1.173 1.938,2.317 3.295,1.973 0.694,-0.176 1.221,-0.711 1.633,-1.271 0.575,-0.782 0.966,-1.668 1.212,-2.59 -0.097,0.157 -0.181,0.32 -0.291,0.469 z"
   id="path32" />
				</g>
				<g
   id="g38">
					<path
   fill="#a75025"
   d="m 134.504,192.334 c -0.358,0.515 -0.816,1.005 -1.421,1.168 -1.181,0.315 -2.289,-0.735 -2.868,-1.813 -1.058,-1.965 -1.258,-4.352 -0.619,-6.486 -0.157,0.233 -0.289,0.507 -0.419,0.816 -1.207,2.414 -1.163,5.414 0.118,7.791 0.579,1.077 1.687,2.128 2.868,1.813 0.605,-0.163 1.063,-0.653 1.421,-1.168 0.491,-0.704 0.828,-1.5 1.043,-2.329 -0.044,0.067 -0.077,0.142 -0.123,0.208 z"
   id="path36" />
				</g>
			</g>
		</g>
		<g
   id="g70">
			<g
   id="g68">
				<g
   id="g46">
					<path
   fill="#c97029"
   d="m 181.358,186.02 c 1.179,2.414 1.135,5.414 -0.115,7.791 -0.565,1.077 -1.648,2.128 -2.803,1.813 -0.59,-0.163 -1.038,-0.653 -1.389,-1.168 -1.573,-2.31 -1.708,-5.56 -0.333,-7.999 0.582,-1.034 1.543,-1.983 2.709,-2.006 1.166,-0.024 1.545,0.63 1.931,1.569"
   id="path44" />
				</g>
				<g
   id="g50">
					<path
   fill="#c97029"
   d="m 176.714,186.159 c 1.355,2.632 1.304,5.901 -0.133,8.492 -0.649,1.173 -1.894,2.317 -3.22,1.973 -0.678,-0.176 -1.192,-0.711 -1.596,-1.271 -1.809,-2.518 -1.964,-6.059 -0.383,-8.717 0.67,-1.127 1.772,-2.161 3.113,-2.186 1.34,-0.026 1.775,0.687 2.219,1.709"
   id="path48" />
				</g>
				<g
   id="g54">
					<path
   fill="#c97029"
   d="m 171.141,186.02 c 1.18,2.414 1.136,5.414 -0.115,7.791 -0.565,1.077 -1.647,2.128 -2.802,1.813 -0.591,-0.163 -1.039,-0.653 -1.389,-1.168 -1.573,-2.31 -1.71,-5.56 -0.334,-7.999 0.583,-1.034 1.543,-1.983 2.71,-2.006 1.165,-0.024 1.543,0.63 1.93,1.569"
   id="path52" />
				</g>
				<g
   id="g58">
					<path
   fill="#a75025"
   d="m 176.152,192.334 c 0.351,0.515 0.799,1.005 1.389,1.168 1.154,0.315 2.237,-0.735 2.803,-1.813 1.034,-1.965 1.229,-4.353 0.604,-6.487 0.154,0.233 0.283,0.508 0.411,0.817 1.179,2.414 1.135,5.414 -0.115,7.791 -0.565,1.077 -1.648,2.128 -2.803,1.813 -0.59,-0.163 -1.038,-0.653 -1.389,-1.168 -0.479,-0.704 -0.809,-1.499 -1.019,-2.328 0.043,0.067 0.074,0.142 0.119,0.207 z"
   id="path56" />
				</g>
				<g
   id="g62">
					<path
   fill="#a75025"
   d="m 170.866,193.231 c 0.403,0.561 0.918,1.096 1.596,1.271 1.326,0.345 2.57,-0.8 3.22,-1.973 1.184,-2.134 1.411,-4.724 0.703,-7.042 0.117,0.202 0.224,0.427 0.329,0.671 1.355,2.632 1.304,5.901 -0.133,8.492 -0.649,1.173 -1.894,2.317 -3.22,1.973 -0.678,-0.176 -1.192,-0.711 -1.596,-1.271 -0.562,-0.782 -0.944,-1.668 -1.185,-2.59 0.097,0.157 0.179,0.32 0.286,0.469 z"
   id="path60" />
				</g>
				<g
   id="g66">
					<path
   fill="#a75025"
   d="m 165.936,192.334 c 0.35,0.515 0.798,1.005 1.389,1.168 1.154,0.315 2.236,-0.735 2.802,-1.813 1.034,-1.965 1.229,-4.352 0.604,-6.486 0.154,0.233 0.283,0.507 0.41,0.816 1.18,2.414 1.136,5.414 -0.115,7.791 -0.565,1.077 -1.647,2.128 -2.802,1.813 -0.591,-0.163 -1.039,-0.653 -1.389,-1.168 -0.479,-0.704 -0.809,-1.5 -1.02,-2.329 0.043,0.067 0.076,0.142 0.121,0.208 z"
   id="path64" />
				</g>
			</g>
		</g>
	</g>
	<path
   fill="#c8b5ac"
   d="m 163.062,98.531 c -10.303,3.986 -13.033,21.908 -13.033,21.908 0,0 -2.73,-17.922 -13.033,-21.908 -16.523,-6.393 -37.224,7.744 -29.739,30.487 16.749,3.834 33.03,12.984 42.772,23.987 9.741,-11.003 26.023,-20.153 42.772,-23.987 7.484,-22.743 -13.216,-36.879 -29.739,-30.487 z"
   id="path74" />
	<g
   id="g86">
		<g
   id="g84">
			<g
   id="g82">
				<g
   id="g80">
					<path
   fill="#c8b5ac"
   d="m 112.604,112.521 c 0,7.91 6.412,14.322 14.323,14.322 7.911,0 14.323,-6.412 14.323,-14.322"
   id="path76" />
					<path
   fill="#20140f"
   d="m 112.604,112.521 c 0.411,3.752 2.125,7.171 4.745,9.578 2.616,2.402 6.08,3.771 9.578,3.745 3.498,0.023 6.961,-1.346 9.576,-3.748 2.619,-2.406 4.333,-5.823 4.747,-9.575 0.438,3.76 -0.931,7.793 -3.643,10.679 -1.334,1.465 -3.013,2.613 -4.836,3.428 -1.836,0.793 -3.841,1.196 -5.844,1.215 -2.002,-0.021 -4.008,-0.42 -5.843,-1.218 -1.824,-0.813 -3.5,-1.963 -4.835,-3.427 -2.71,-2.886 -4.08,-6.918 -3.645,-10.677 z"
   id="path78" />
				</g>
			</g>
		</g>
	</g>
	<g
   id="g98">
		<g
   id="g96">
			<g
   id="g94">
				<g
   id="g92">
					<path
   fill="#c8b5ac"
   d="m 159.815,112.521 c 0,7.91 6.412,14.322 14.323,14.322 7.91,0 14.322,-6.412 14.322,-14.322"
   id="path88" />
					<path
   fill="#20140f"
   d="m 159.815,112.521 c 0.411,3.752 2.125,7.171 4.745,9.578 2.615,2.402 6.08,3.771 9.578,3.745 3.497,0.023 6.961,-1.346 9.576,-3.748 2.619,-2.406 4.333,-5.823 4.746,-9.575 0.438,3.76 -0.931,7.793 -3.643,10.679 -1.335,1.465 -3.013,2.613 -4.836,3.428 -1.837,0.793 -3.842,1.196 -5.844,1.215 -2.002,-0.021 -4.008,-0.42 -5.843,-1.218 -1.824,-0.813 -3.5,-1.963 -4.835,-3.427 -2.709,-2.886 -4.079,-6.918 -3.644,-10.677 z"
   id="path90" />
				</g>
			</g>
		</g>
	</g>
	<g
   id="g102">
		<path
   fill="#34130f"
   d="m 155.981,95.707 c -0.013,0.008 -0.025,0.015 -0.037,0.022 -1.233,0.771 -2.201,1.892 -3.149,2.994 0.423,-1.71 0.848,-3.482 0.541,-5.218 -0.307,-1.736 -1.551,-3.436 -3.294,-3.69 h -0.026 c -1.744,0.255 -2.988,1.955 -3.294,3.69 -0.306,1.735 0.119,3.508 0.541,5.218 -0.948,-1.103 -1.916,-2.223 -3.149,-2.994 -0.012,-0.008 -0.025,-0.015 -0.037,-0.022 -2.084,-1.284 -4.687,0.634 -4.276,3.047 0.457,2.688 1.992,5.319 3.484,7.691 1.445,2.298 2.891,4.597 4.337,6.895 h 4.816 c 1.445,-2.298 2.892,-4.597 4.337,-6.895 1.492,-2.372 3.027,-5.003 3.484,-7.691 0.409,-2.413 -2.194,-4.331 -4.278,-3.047 z"
   id="path100" />
	</g>
	<g
   id="g112">
		<g
   id="g106">
			<path
   fill="#a54324"
   d="m 146.598,118.996 c 0,0 0.766,4.377 3.813,4.377 3.048,0 3.048,-4.534 3.048,-4.534 z"
   id="path104" />
		</g>
		<g
   id="g110">
			<path
   fill="#c97029"
   d="m 150.146,110.146 c -2.036,-0.016 -4.35,6.515 -4.534,9.536 l 8.83,-0.202 c 0.103,-0.459 -2.26,-9.32 -4.296,-9.334 z"
   id="path108" />
		</g>
	</g>
	<g
   id="g118">
		<g
   id="g116">
			<path
   fill="#34130f"
   d="m 113.411,88.473 c -0.793,-0.025 -1.702,0.033 -2.199,0.652 -0.493,0.615 -0.343,1.563 0.13,2.193 0.473,0.632 1.193,1.021 1.89,1.391 0.815,0.433 1.631,0.866 2.447,1.299 -2.487,-0.177 -4.984,-0.217 -7.476,-0.119 -1.162,0.045 -2.747,0.672 -2.412,1.786 0.131,0.438 0.544,0.722 0.94,0.95 1.234,0.714 2.577,1.239 3.967,1.553 -2.762,-0.079 -5.542,0.84 -7.713,2.549 -0.252,0.199 -0.509,0.425 -0.606,0.73 -0.273,0.853 0.773,1.508 1.64,1.729 4.345,1.106 8.951,0.194 13.221,-1.172 6.856,-2.194 13.334,-5.564 19.067,-9.917 -4.173,0.177 -15.56,-3.385 -22.896,-3.624 z"
   id="path114" />
		</g>
	</g>
	<g
   id="g124">
		<g
   id="g122">
			<path
   fill="#34130f"
   d="m 188.121,88.473 c 0.794,-0.025 1.702,0.033 2.199,0.652 0.493,0.615 0.343,1.563 -0.13,2.193 -0.473,0.632 -1.193,1.021 -1.89,1.391 -0.815,0.433 -1.631,0.866 -2.446,1.299 2.487,-0.177 4.984,-0.217 7.476,-0.119 1.162,0.045 2.747,0.672 2.412,1.786 -0.131,0.438 -0.544,0.722 -0.939,0.95 -1.234,0.714 -2.577,1.239 -3.968,1.553 2.762,-0.079 5.542,0.84 7.714,2.549 0.252,0.199 0.508,0.425 0.606,0.73 0.272,0.853 -0.773,1.508 -1.641,1.729 -4.345,1.106 -8.95,0.194 -13.221,-1.172 -6.856,-2.194 -13.335,-5.564 -19.067,-9.917 4.172,0.177 15.56,-3.385 22.895,-3.624 z"
   id="path120" />
		</g>
	</g>
	<g
   id="g166">
		<g
   id="g156">
			<path
   fill="#e2dcee"
   d="m 150.057,136.753 c -1.907,-6.83 -19.094,-10.049 -29.896,-8.415 l -3.204,3.78 4.895,34.503 25.044,3.144 z"
   id="path126" />
			<path
   fill="#e2dcee"
   d="m 150.23,136.753 c 3.229,-7.283 21.457,-8.521 30.625,-7.283 l 2.228,2.648 -4.858,34.503 -24.858,3.144 z"
   id="path128" />
			<path
   fill="#3562a1"
   d="m 155.227,135.301 v 41.379 c -2.885,1.722 -6.054,1.919 -9.618,0 v -41.379 c 3.026,2.127 6.25,1.919 9.618,0 z"
   id="path130" />
			<polygon
   fill="#2173b5"
   points="145.612,176.683 145.612,135.301 116.297,129.47 114.904,130.45 117.844,173.196 "
   id="polygon132" />
			<polygon
   fill="#76a9d9"
   points="116.297,129.47 114.904,130.45 145.612,136.781 145.612,135.301 "
   id="polygon134" />
			<polygon
   fill="#2173b5"
   points="155.227,176.683 155.227,135.301 184.542,129.47 185.936,130.45 182.995,173.196 "
   id="polygon136" />
			<polygon
   fill="#76a9d9"
   points="184.542,129.47 185.936,130.45 155.227,136.781 155.227,135.301 "
   id="polygon138" />
			<path
   fill="#2173b5"
   d="m 145.612,135.301 v 1.48 c 3.026,2.128 6.248,1.914 9.613,0 v -1.48 c -3.185,2.092 -6.391,1.904 -9.613,0 z"
   id="path140" />
			<g
   id="g144">
				<path
   fill="#c97029"
   d="m 155.227,164.177 v 6.877 c -1.459,0.384 -2.973,0.569 -4.541,0.569 -1.623,0 -3.301,-0.197 -5.078,-0.603 v -6.789 l 0.833,0.22 c 2.961,0.768 5.505,0.79 7.776,0.055 z"
   id="path142" />
			</g>
			<g
   id="g148">
				<path
   fill="#a75025"
   d="m 155.227,162.313 v 6.876 c -1.459,0.384 -2.973,0.582 -4.541,0.582 -1.623,0 -3.301,-0.209 -5.078,-0.614 v -6.789 l 0.833,0.22 c 2.961,0.768 5.505,0.789 7.776,0.055 z"
   id="path146" />
			</g>
			<polygon
   fill="#76a9d9"
   points="159.16,141.533 159.16,147.018 181.643,143.727 182.213,136.781 "
   id="polygon150" />
			<polygon
   fill="#76a9d9"
   points="159.16,148.57 159.16,152.044 174.971,149.759 174.971,147.018 "
   id="polygon152" />
			<polygon
   fill="#76a9d9"
   points="166.657,152.044 166.657,154.512 181.46,153.006 181.46,150.216 "
   id="polygon154" />
		</g>
		<g
   id="g160">
			<path
   fill="#34130f"
   d="m 120.064,140.977 c -4.571,1.219 -9.291,4.375 -13.6,8.446 -9.305,8.791 -1.273,24.229 11.251,21.582 6.331,-1.338 11.067,-3.26 11.067,-4.482 0,-2.821 -13.126,-3.37 -13.126,-3.37 0,0 5.014,-2.36 10.267,-6.681 0.489,-0.402 1.01,-0.903 1.002,-1.537 -0.013,-1.174 -1.623,-1.49 -2.792,-1.387 -3.025,0.267 -6.024,0.836 -8.937,1.697 2.707,-2.37 5.12,-5.073 7.168,-8.03 1.271,-1.835 2.329,-4.61 0.169,-5.929 -0.729,-0.446 -1.64,-0.531 -2.469,-0.309 z"
   id="path158" />
		</g>
		<g
   id="g164">
			<path
   fill="#34130f"
   d="m 181.604,141.486 c -1.813,-0.654 -4.177,-1.073 -5.165,1.009 -0.492,1.039 -0.341,2.285 0.275,3.257 2.242,3.532 4.994,6.74 8.142,9.496 -2.913,-0.861 -5.911,-1.431 -8.937,-1.698 -1.17,-0.103 -2.779,0.214 -2.793,1.388 -0.007,0.634 0.514,1.135 1.003,1.537 5.253,4.32 10.267,6.681 10.267,6.681 0,0 -13.126,0.549 -13.126,3.369 0,1.224 4.74,3.146 11.074,4.484 12.367,2.612 20.612,-12.634 11.474,-21.366 -3.867,-3.695 -8.074,-6.663 -12.214,-8.157 z"
   id="path162" />
		</g>
	</g>
</g>
</svg>
