<?xml version="1.0" encoding="utf-8"?>
<!-- Generator: Adobe Illustrator 16.0.0, SVG Export Plug-In . SVG Version: 6.00 Build 0)  -->
<!DOCTYPE svg PUBLIC "-//W3C//DTD SVG 1.1//EN" "http://www.w3.org/Graphics/SVG/1.1/DTD/svg11.dtd">
<svg version="1.1" id="Layer_1" xmlns="http://www.w3.org/2000/svg" xmlns:xlink="http://www.w3.org/1999/xlink" x="0px" y="0px"
	 width="300px" height="300px" viewBox="0 0 300 300" enable-background="new 0 0 300 300" xml:space="preserve">
<g>
	<g>
		<g>
			<path fill="#C97029" d="M116.862,183.127c-5.511,0.631-9.187,5.925-8.028,11.311c0.811,3.766,6.72,2.715,5.904-1.074
				c-0.509-2.364,0.819-4.06,3.198-4.332C121.772,188.593,120.691,182.689,116.862,183.127L116.862,183.127z"/>
		</g>
		<path fill="#A75025" d="M114.738,193.363c-0.509-2.364,0.819-4.06,3.198-4.332c0,0-6.561-1.694-8.106,7.087
			C111.728,197.672,115.392,196.401,114.738,193.363z"/>
	</g>
	<g>
		<g>
			<path fill="#E2DCEE" d="M147.566,194.352c0,0-40.444-5.164-47.875-6.486c0.393,3.93-3.771,17.028-8.872,21.334
				c0,0,29.447,11.126,41.375,5.784C144.122,209.643,147.057,198.148,147.566,194.352z"/>
		</g>
		<path fill="#F4F2F9" d="M99.691,187.865c10.778,5.151,18.744,10.608,22.09,16.569c9.728-1.357,18.125-5.068,25.785-10.083
			L99.691,187.865z"/>
		<g>
			<path fill="#E44F5C" d="M110.548,190.096c-1.221-0.158-2.339-0.307-3.353-0.445l0.932,2.145c1.01,0.135,2.108,0.277,3.273,0.428
				L110.548,190.096z"/>
			<path fill="#E44F5C" d="M101.629,211.833l-1.024-2.558c-1.359-0.536-2.489-1.006-3.341-1.369l1.048,2.615
				C99.271,210.916,100.387,211.361,101.629,211.833z"/>
			<path fill="#3562A1" d="M99.46,202.389c0.5-1.093,0.987-2.229,1.444-3.363l-1.083-2.705c-0.426,1.141-0.898,2.322-1.396,3.486
				L99.46,202.389z"/>
			<path fill="#E44F5C" d="M98.584,204.232l-1.007-2.514c-0.515,1.118-1.037,2.182-1.544,3.116l0.943,2.355
				C97.495,206.339,98.038,205.335,98.584,204.232z"/>
			<path fill="#3562A1" d="M103.785,191.186c0.722,0.109,1.597,0.236,2.604,0.375l-0.935-2.15c-1.076-0.154-1.941-0.287-2.538-0.392
				L103.785,191.186z"/>
			<path fill="#3562A1" d="M146.167,197.967c0.246-0.871,0.448-1.692,0.603-2.432l0.225-1.074l-1.089-0.124
				c-0.039-0.005-0.494-0.057-1.25-0.144L146.167,197.967z"/>
			<path fill="#E44F5C" d="M142.995,201.047l1.034,2.581c0.562-1.166,1.032-2.314,1.422-3.416l-1.168-2.916
				C143.96,198.459,143.535,199.731,142.995,201.047z"/>
			<path fill="#3562A1" d="M116.247,214.252c-1.193-0.268-2.39-0.568-3.579-0.896l0.927,2.311c0.42,0.106,0.841,0.212,1.262,0.311
				c0.667-0.11,1.336-0.21,2.005-0.312L116.247,214.252z"/>
			<path fill="#E44F5C" d="M101.7,196.979c0.503-1.35,0.938-2.637,1.276-3.779l-1.29-3.221c-0.12,0.969-0.528,2.467-1.107,4.201
				L101.7,196.979z"/>
			<path fill="#3562A1" d="M95.073,206.471c-0.238,0.373-0.471,0.719-0.689,1l-0.776,0.996l1.148,0.526
				c0.142,0.065,0.711,0.324,1.613,0.712L95.073,206.471z"/>
			<path fill="#E44F5C" d="M142.962,193.998c-0.836-0.098-1.815-0.211-2.928-0.34l0.846,2.111c1.157,0.135,2.15,0.25,2.928,0.339
				L142.962,193.998z"/>
			<path fill="#3562A1" d="M142.142,202.949c-0.421,0.857-0.894,1.72-1.431,2.574c0.671-0.358,1.376-0.652,2.093-0.923
				L142.142,202.949z"/>
			<path fill="#E44F5C" d="M138.34,193.46c-5.887-0.687-14.232-1.672-21.449-2.564l0.851,2.122
				c7.422,0.914,15.804,1.899,21.445,2.556L138.34,193.46z"/>
			<path fill="#E44F5C" d="M110.845,212.835c-1.089-0.323-2.156-0.659-3.193-1.003l0.973,2.428c1.034,0.322,2.092,0.636,3.164,0.932
				L110.845,212.835z"/>
			<path fill="#3562A1" d="M115.191,190.684c-1.013-0.126-1.998-0.25-2.94-0.37l0.852,2.126c0.949,0.119,1.932,0.242,2.939,0.367
				L115.191,190.684z"/>
			<path fill="#3562A1" d="M105.782,211.197c-1.155-0.402-2.25-0.802-3.268-1.187l1.013,2.527c1.026,0.373,2.115,0.751,3.242,1.124
				L105.782,211.197z"/>
			<path fill="#3562A1" d="M120.547,215.051c-0.821-0.116-1.658-0.262-2.502-0.424l0.351,0.807c0.726-0.106,1.452-0.211,2.178-0.316
				L120.547,215.051z"/>
		</g>
		<path fill="#A294B9" d="M90.819,209.199c0,0,25.005,7.517,31.164,5.037c6.159-2.479,3.613-9.414,3.613-9.414
			s16.179,6.295,21.97-10.471c0,0,0.699,10.456-11.876,18.738C123.114,221.373,103.751,213.486,90.819,209.199z"/>
	</g>
	<g>
		<path fill="#34130F" d="M186.331,144.299c7.655-9.089,31.01-13.4,32.097-11.069c1.087,2.332-9.549,7.843-9.549,7.843
			s5.054,0.019,11.06,1.565c0.56,0.144,1.183,0.357,1.421,0.884c0.441,0.975-0.767,1.857-1.773,2.222
			c-2.603,0.945-5.301,1.63-8.039,2.041c3.149,0.915,6.186,2.219,9.019,3.874c1.594,0.932,3.342,2.57,2.699,4.301
			c-0.517,1.39-2.251,1.812-3.728,1.945C208.985,158.855,194.097,151.506,186.331,144.299"/>
	</g>
	<g>
		<path fill="#34130F" d="M126.269,161.404c-3.978,9.413-10.609,17.688-18.931,23.62c-1.107,0.79-2.303,1.562-3.656,1.705
			c-1.353,0.145-2.889-0.542-3.271-1.849c-0.486-1.662-0.351-5.006-0.351-5.006s-10.135,4.303-15.589,5.172
			c-4.863,0.775-6.926-1.086-7.533-2.389s-0.708-4.08,3.012-7.307c4.172-3.619,13.982-8.617,13.982-8.617s-2.648-2.046-3.609-3.486
			c-0.755-1.131-0.293-2.75,0.687-3.693c0.98-0.944,2.34-1.364,3.656-1.705c9.894-2.561,20.495-2.322,30.263,0.681"/>
	</g>
	<path fill="#C8B5AC" d="M186.255,153.92c0.055-9.947,5.442-13.709,5.442-13.709l-68.774-25.032c0,0,1.697,6.335-4.643,14
		c-10.599,12.815-10.672,38.054,20.409,49.366l0.2,0.072C169.971,189.93,186.175,168.616,186.255,153.92z"/>
	<g>
		<path fill="#34130F" d="M160.94,80.406c-0.66-0.63-1.483-1.275-2.384-1.125c-0.894,0.149-1.49,1.075-1.568,1.979
			c-0.078,0.903,0.24,1.788,0.554,2.638c0.367,0.996,0.734,1.991,1.102,2.986c-1.996-2.056-4.104-4.003-6.313-5.828
			c-1.03-0.852-2.868-1.528-3.435-0.318c-0.223,0.476-0.086,1.035,0.077,1.534c0.511,1.557,1.259,3.036,2.21,4.37
			c-2.306-2.183-5.392-3.525-8.561-3.724c-0.368-0.023-0.761-0.026-1.079,0.161c-0.886,0.521-0.492,1.884,0.081,2.737
			c2.875,4.276,7.52,7.022,12.225,9.122c7.555,3.372,15.685,5.447,23.931,6.109C174.068,98.003,167.041,86.229,160.94,80.406z"/>
	</g>
	<g>
		<path fill="#34130F" d="M211.837,109.565c0.723-0.046,1.552-0.019,2.022,0.532c0.467,0.547,0.357,1.414-0.056,2.003
			s-1.059,0.964-1.683,1.321c-0.73,0.417-1.462,0.835-2.192,1.253c2.262-0.232,4.536-0.34,6.81-0.323
			c1.061,0.008,2.522,0.534,2.25,1.559c-0.107,0.402-0.476,0.673-0.83,0.893c-1.104,0.686-2.313,1.204-3.571,1.529
			c2.516-0.151,5.075,0.606,7.103,2.102c0.236,0.174,0.477,0.372,0.574,0.648c0.272,0.769-0.661,1.396-1.445,1.622
			c-3.929,1.133-8.152,0.434-12.083-0.69c-6.312-1.804-12.312-4.689-17.661-8.492C194.882,113.566,205.158,109.993,211.837,109.565z
			"/>
	</g>
	<path fill="#632811" d="M192.002,159.682c3.484-11.562,12.497-39.949,12.497-39.949s-14.077-15.936-35.739-23.847
		c-21.68-7.864-42.707-4.705-42.707-4.705s-10.689,25.983-16.096,38.64c-4.825,11.293-12.059,40.986,26.315,54.953l0.247,0.09
		C174.894,198.83,188.458,171.44,192.002,159.682z"/>
	<g>
		<path fill="#34130F" d="M132.691,125.71c-0.032-17.621-22.451-44.775-25.907-43.164c-3.457,1.612,3.371,18.009,3.371,18.009
			s-5.758-4.795-14.053-8.763c-0.773-0.37-1.684-0.721-2.456-0.35c-1.432,0.687-0.899,2.84-0.104,4.214
			c2.056,3.554,4.467,6.903,7.187,9.98c-4.45-1.962-9.143-3.375-13.936-4.196c-2.699-0.462-6.246-0.266-7.165,2.313
			c-0.738,2.07,0.83,4.203,2.38,5.761C93.086,120.652,117.003,126.495,132.691,125.71"/>
	</g>
	<g>
		<g>
			<g>
				<path fill="#C97029" d="M143.208,200.527c0.566-3.154,0.106-6.484-2.172-8.883c-2.319-2.444-5.589-3.137-8.806-3.491
					c-0.045-0.124,0.22-0.309,0.932-0.989c1-0.955,2.134-1.67,3.357-2.301c3.428-1.768,0.905-7.212-2.535-5.438
					c-3.385,1.746-8.303,4.984-8.002,9.377c0.105,1.537,0.945,2.709,2.036,3.67c0.171,0.232,0.361,0.455,0.585,0.653
					c1.693,1.491,1.616,3.748,0.69,5.614c-0.721,1.453,0.391,3.334,1.793,3.845c0.731,0.267,1.419,0.222,2.025-0.022
					c1.089,1.363,3.497,1.957,5.052,0.25c0.045-0.048,0.082-0.1,0.125-0.148C139.904,203.682,142.752,203.066,143.208,200.527z"/>
				<path fill="#A75025" d="M132.444,194.039c-2.523-4.03-6.104-4.447-6.381-4.814c0.22,1.326,0.971,2.381,1.955,3.248
					c0.171,0.232,0.361,0.455,0.585,0.653c1.693,1.491,1.616,3.748,0.69,5.614c-0.721,1.453,0.391,3.334,1.793,3.845
					C131.244,202.643,134.708,197.656,132.444,194.039z"/>
				<path fill="#A75025" d="M135.721,203.84c4.08-6.981-0.883-10.475-0.883-10.475c3.078,4.632-1.726,9.197-1.726,9.197
					C133.706,203.307,134.694,203.803,135.721,203.84z"/>
				<path fill="#A75025" d="M141.344,202.861c2.378-7.461-2.505-8.986-2.505-8.986c3.272,4.229,0.148,8.044-0.539,8.795
					C139.151,203.201,140.341,203.277,141.344,202.861z"/>
			</g>
			<g>
				<path fill="#C97029" d="M128.551,185.069c-5.511,0.631-9.187,5.925-8.027,11.31c0.81,3.766,6.719,2.717,5.904-1.074
					c-0.509-2.363,0.818-4.059,3.197-4.331C133.462,190.535,132.38,184.632,128.551,185.069L128.551,185.069z"/>
			</g>
			<path fill="#A75025" d="M126.428,195.305c-0.509-2.363,0.818-4.059,3.197-4.331c0,0-6.561-1.694-8.106,7.087
				C123.417,199.613,127.081,198.344,126.428,195.305z"/>
		</g>
		<g>
			<path fill="#632811" d="M143.981,177.444l-3.932-3.349c-1.481,0.516-8.295,2.813-9.698,3.514c-0.95,0.475-1.96,1.082-2.284,2.094
				c-0.136,0.426-0.115,0.939,0.192,1.263c0.179,0.188,0.43,0.288,0.678,0.364c1.034,0.316,2.172,0.287,3.188-0.084
				c-0.795,0.77-1.418,1.715-1.813,2.748c-0.223,0.584-0.269,1.422,0.312,1.652c0.227,0.09,0.483,0.046,0.721-0.01
				c0.979-0.232,1.913-0.656,2.731-1.242c-0.61,1.148,0.122,2.7,1.318,3.211c1.196,0.51,2.638,0.126,3.647-0.693
				s1.652-2.008,2.129-3.218C141.512,182.83,143.786,178.354,143.981,177.444z"/>
		</g>
	</g>
	<g>
		<g>
			<g>
				<path fill="#C97029" d="M131.52,198.585c0.566-3.153,0.105-6.483-2.172-8.884c-2.319-2.443-5.589-3.137-8.807-3.49
					c-0.044-0.123,0.22-0.309,0.933-0.989c1-0.955,2.134-1.669,3.357-2.3c3.428-1.768,0.905-7.213-2.536-5.438
					c-3.384,1.745-8.302,4.983-8.002,9.376c0.105,1.538,0.946,2.71,2.037,3.671c0.171,0.232,0.36,0.455,0.585,0.652
					c1.693,1.492,1.615,3.748,0.69,5.614c-0.721,1.454,0.391,3.335,1.793,3.845c0.731,0.268,1.418,0.222,2.025-0.022
					c1.089,1.363,3.496,1.958,5.052,0.251c0.044-0.049,0.082-0.1,0.125-0.148C128.215,201.739,131.063,201.125,131.52,198.585z"/>
				<path fill="#A75025" d="M120.755,192.097c-2.522-4.03-6.104-4.446-6.38-4.813c0.22,1.325,0.971,2.381,1.955,3.248
					c0.171,0.232,0.36,0.455,0.585,0.652c1.693,1.492,1.615,3.748,0.69,5.614c-0.721,1.454,0.391,3.335,1.793,3.845
					C119.556,200.701,123.02,195.714,120.755,192.097z"/>
				<path fill="#A75025" d="M124.032,201.898c4.079-6.982-0.884-10.476-0.884-10.476c3.079,4.632-1.725,9.197-1.725,9.197
					C122.018,201.363,123.006,201.861,124.032,201.898z"/>
				<path fill="#A75025" d="M129.655,200.92c2.377-7.462-2.505-8.987-2.505-8.987c3.271,4.229,0.148,8.044-0.54,8.796
					C127.463,201.26,128.652,201.334,129.655,200.92z"/>
			</g>
		</g>
		<g>
			<path fill="#632811" d="M132.293,175.502l-3.932-3.348c-1.481,0.515-8.295,2.813-9.698,3.513c-0.95,0.474-1.96,1.083-2.284,2.095
				c-0.137,0.426-0.115,0.938,0.192,1.262c0.179,0.188,0.429,0.289,0.677,0.365c1.035,0.316,2.172,0.285,3.188-0.084
				c-0.795,0.77-1.419,1.715-1.813,2.748c-0.222,0.583-0.268,1.422,0.313,1.651c0.227,0.09,0.482,0.046,0.72-0.011
				c0.979-0.23,1.913-0.655,2.731-1.241c-0.609,1.149,0.122,2.7,1.318,3.21c1.197,0.512,2.638,0.127,3.648-0.691
				c1.01-0.82,1.652-2.008,2.129-3.219C129.823,180.889,132.097,176.41,132.293,175.502z"/>
		</g>
	</g>
	<path fill="#C8B5AC" d="M190.687,168.122c2.863-10.095,2.084-20.988-1.333-28.944l-40.839-14.864
		c-7.731,3.898-15.33,11.742-19.626,21.316c-1.111,2.399-1.993,5.749-0.98,6.744c1.301,1.272,5.031-1.825,5.043-1.783
		c-0.06-0.097-4.873,7.71-4.668,12.747c0.054,2.809,1.811,3.85,3.3,3.597c1.498-0.263,3.004-1.647,4.505-2.937
		c-0.723,1.625-1.413,3.313-1.78,5.183c-0.369,1.864-0.358,3.979,0.231,5.426c0.74,1.831,2.132,2.187,3.351,1.852
		c1.857-0.53,3.579-2.339,5.326-4.002c-1.429,3.91-0.388,12.351,5.049,14.329s12.784-3.408,14.202-7.322
		c0.27,2.397,0.426,4.889,1.508,6.49c0.719,1.039,2.013,1.662,3.758,0.734c1.381-0.729,2.749-2.342,3.664-4.008
		c0.921-1.668,1.477-3.404,1.968-5.115c0.321,1.953,0.584,3.982,1.563,5.146c0.979,1.151,2.993,1.482,4.84-0.635
		c3.395-3.727,4.726-12.801,4.617-12.766c0.036-0.023,0.902,4.747,2.717,4.607C188.518,173.809,189.996,170.675,190.687,168.122z"/>
	<path fill="#E2DAD6" d="M196.701,152.115c1.145-6.287,0.939-12.106-0.303-17.641l-48.732-17.737
		c-4.51,3.442-8.408,7.768-11.571,13.32c-1.134,1.981-1.929,4.306-1.722,5.773c0.328,2.394,5.663-2.1,5.688-2.018
		c-0.074-0.108-5.59,8.008-5.468,12.841c-0.006,2.006,1.165,2.491,2.314,1.786c1.156-0.715,2.349-2.323,3.549-3.831
		c-1.083,2.355-2.083,4.81-2.657,7.38c-0.582,2.57-0.674,5.32-0.047,7.061c0.663,1.871,1.982,2.299,3.25,1.711
		c1.273-0.602,2.538-2.099,3.783-3.738c-1.516,4.219-2.558,10.309-0.822,12.854c1.69,2.521,3.897-0.185,5.682-2.935
		c-0.448,1.137-1.963,10.425,2.691,12.118c4.69,1.707,9.915-6.383,10.279-7.424c-0.404,3.26-0.459,6.772,2.463,5.925
		c2.965-0.833,6.082-6.168,7.632-10.374c-0.1,2.057-0.094,4.016,0.496,5.295c0.594,1.266,1.879,1.786,3.59,0.779
		c1.598-0.931,3.296-3.096,4.502-5.439c1.212-2.338,2.023-4.861,2.708-7.361c-0.05,1.928-0.17,3.924,0.257,5.216
		c0.427,1.278,1.636,1.659,2.921,0.12c3.199-3.625,4.191-13.387,4.064-13.353c0.071-0.046,1.27,6.825,3.061,5.202
		C195.41,156.654,196.295,154.361,196.701,152.115z"/>
	<path fill="#C8B5AC" d="M191.007,111.949c-6.742,0.885-12.333,14.967-12.333,14.967s6.335-21.385-6.712-27.243
		c-13.048-5.858-30.976,7.271-24.505,28.018c7.709,7.491,14.921,18.259,16.41,30.799c9.581-9.492,21.896-15.33,32.424-15.514
		C202.542,125.8,201.604,111.087,191.007,111.949z"/>
	<g>
		<path fill="#37140F" d="M200.993,132.904c-3.173,8.614-10.03,13.426-14.653,11.083c-4.623-2.344-6.562-10.572-3.814-18.118
			c2.337-6.421,10.66-13.241,15.477-11.373C202.474,116.272,204.166,124.29,200.993,132.904z"/>
		<path fill="#FFFFFF" d="M183.911,126.397c-2.495,6.85-1.137,14.071,3.034,16.13c4.172,2.059,9.84-2.486,12.661-10.151
			s1.463-14.887-3.034-16.13S186.407,119.547,183.911,126.397z"/>
		<path fill="#010101" d="M184.686,129.105c-2.02,5.538-0.952,11.354,2.386,12.988s7.85-1.952,10.078-8.011
			c2.228-6.059,1.159-11.874-2.386-12.988C191.218,119.98,186.705,123.567,184.686,129.105z"/>
		<path fill="#FFFFFF" d="M186.58,135.594c-0.554,1.515-0.277,3.082,0.618,3.5c0.895,0.417,2.081-0.502,2.65-2.054
			c0.568-1.552,0.292-3.119-0.618-3.5C188.321,133.159,187.135,134.079,186.58,135.594z"/>
		<path fill="#FFFFFF" d="M186.257,131.285c-0.273,0.748-0.127,1.51,0.327,1.703c0.454,0.192,1.047-0.267,1.324-1.024
			c0.276-0.757,0.13-1.52-0.328-1.703C187.123,130.078,186.529,130.537,186.257,131.285z"/>
	</g>
	<g>
		<path fill="#37140F" d="M174.454,121.77c-3.184,8.61-11.497,12.892-17.682,9.98s-9.528-11.652-6.782-19.198
			c2.337-6.421,12.325-12.635,18.71-10.196C174.631,104.663,177.638,113.16,174.454,121.77z"/>
		<path fill="#FFFFFF" d="M151.827,113.244c-2.497,6.85-0.002,14.485,5.573,17.055c5.574,2.569,12.387-1.559,15.217-9.221
			c2.83-7.662,0.336-15.297-5.572-17.054C161.136,102.266,154.323,106.394,151.827,113.244z"/>
		<path fill="#010101" d="M153.103,116.135c-2.021,5.538-0.045,11.683,4.414,13.726s9.886-1.211,12.12-7.268
			c2.234-6.056,0.258-12.202-4.414-13.726C160.551,107.343,155.124,110.597,153.103,116.135z"/>
		<path fill="#FFFFFF" d="M156.212,123.065c-0.556,1.515-0.037,3.169,1.156,3.696s2.623-0.305,3.192-1.856
			c0.57-1.552,0.053-3.207-1.156-3.696C158.195,120.719,156.767,121.55,156.212,123.065z"/>
		<path fill="#FFFFFF" d="M155.348,118.56c-0.273,0.749-0.006,1.555,0.598,1.801s1.318-0.168,1.596-0.925s0.01-1.563-0.598-1.801
			S155.621,117.812,155.348,118.56z"/>
	</g>
	<g>
		<path fill="#34130F" d="M191.543,108.92c-0.011,0.003-0.021,0.007-0.032,0.011c-1.055,0.364-2.044,1.091-3.015,1.808
			c0.813-1.364,1.646-2.78,1.985-4.341s0.047-3.316-1.026-3.954l-0.017-0.007c-1.232-0.201-2.584,0.957-3.328,2.37
			c-0.743,1.413-1.015,3.034-1.27,4.601c-0.282-1.173-0.573-2.365-1.146-3.323c-0.006-0.009-0.012-0.019-0.018-0.028
			c-0.977-1.602-3.294-0.584-3.776,1.582c-0.536,2.414-0.343,5.038-0.097,7.428c0.239,2.317,0.478,4.634,0.716,6.95l3.182,1.158
			c1.673-1.621,3.345-3.243,5.017-4.864c1.725-1.673,3.56-3.559,4.7-5.752C194.441,110.59,193.32,108.321,191.543,108.92z"/>
	</g>
	<g>
		<g>
			<path fill="#A54324" d="M177.408,126.374c0,0-0.71,3.989,1.901,4.939c2.611,0.951,4.025-2.935,4.025-2.935L177.408,126.374z"/>
		</g>
		<g>
			<path fill="#C97029" d="M183.983,120.179c-1.74-0.648-5.234,2.015-6.858,6.757l9.253,3.171
				C186.378,130.108,185.724,120.827,183.983,120.179z"/>
		</g>
	</g>
</g>
</svg>
