<?xml version="1.0" encoding="utf-8"?>
<!-- Generator: Adobe Illustrator 16.0.0, SVG Export Plug-In . SVG Version: 6.00 Build 0)  -->
<!DOCTYPE svg PUBLIC "-//W3C//DTD SVG 1.1//EN" "http://www.w3.org/Graphics/SVG/1.1/DTD/svg11.dtd">
<svg version="1.1" id="Layer_1" xmlns="http://www.w3.org/2000/svg" xmlns:xlink="http://www.w3.org/1999/xlink" x="0px" y="0px"
	 width="300px" height="300px" viewBox="0 0 300 300" enable-background="new 0 0 300 300" xml:space="preserve">
<g>
	<path fill="#34130F" d="M170.845,182.328h-41.632c0,0-0.636,9.196,4.298,18.403s6.436-4.403,6.436-4.403s0.742,3.203,4.625,10.208
		c1.767,3.188,3.723,4.93,5.651,5.013c1.894-0.083,3.813-1.824,5.548-5.013c3.811-7.005,4.539-10.208,4.539-10.208
		s1.474,13.61,6.317,4.403S170.845,182.328,170.845,182.328z"/>
	<path fill="#C8B5AC" d="M189.82,144.064c-3.675-10.271,0.466-16.169,0.466-16.169h-80.266c0,0,4.125,5.893,0.466,16.169
		c-6.116,17.184,3.275,43.22,39.549,43.22h0.234C186.545,187.284,195.249,159.241,189.82,144.064z"/>
	<path fill="#632811" d="M197.903,147.848c-0.745-13.223-2.105-45.858-2.105-45.858s-20.484-11.143-45.777-11.17
		c-25.292,0.027-45.777,11.17-45.777,11.17s-1.27,30.787-2.094,45.858c-0.736,13.448,2.947,46.763,47.732,46.763h0.289
		C194.957,194.61,198.662,161.295,197.903,147.848z"/>
	<path fill="#C8B5AC" d="M194.462,159.431c-0.963-7.872-5.005-15.405-11.239-20.945h-66.389
		c-6.234,5.54-10.275,13.073-11.238,20.945c-0.245,1.998,0.116,4.612,2.256,5.13c2.799,0.677,7.194-2.443,7.194-2.443
		s-3.703,6.792-1.905,10.475c1.013,2.074,4.195,2.569,6.642,2.107c2.446-0.463,4.566-1.797,6.611-3.101
		c-0.635,1.404-1.278,2.836-1.429,4.349c-0.151,1.512,0.261,3.146,1.468,4.196c1.514,1.317,3.891,1.422,5.93,0.978
		c3.099-0.676,5.784-2.384,8.384-4.057c-1.216,3.36,2.712,11.533,9.098,11.533c6.385,0,10.681-8.173,9.465-11.533
		c2.602,1.673,5.285,3.381,8.385,4.057c2.038,0.444,4.416,0.34,5.93-0.978c1.207-1.051,1.619-2.685,1.468-4.196
		c-0.15-1.513-0.793-2.944-1.428-4.349c2.044,1.304,4.164,2.638,6.61,3.101c2.446,0.462,5.629-0.033,6.642-2.107
		c1.798-3.683-1.904-10.475-1.904-10.475s4.395,3.12,7.194,2.443C194.345,164.043,194.706,161.429,194.462,159.431z"/>
	<g>
		<polygon fill="#E2DAD6" points="150.036,174.232 150.028,174.231 150.021,174.232 		"/>
		<path fill="#E2DAD6" d="M196.592,140.5c-0.536-4.492-2.157-8.382-4.79-12.062h-83.546c-2.633,3.68-4.254,7.569-4.791,12.062
			c-0.192,1.609,0.207,3.351,1.517,4.304c2.183,1.588,7.4-2.739,7.4-2.739s-2.982,6.817-0.613,10.121
			c0.997,1.39,3.123,1.513,4.666,0.775c1.543-0.736,2.655-2.127,3.71-3.473c-0.385,1.918-0.772,3.866-0.607,5.814
			s0.959,3.933,2.529,5.099c1.668,1.239,3.982,1.363,5.955,0.712c1.974-0.652,3.651-1.987,5.112-3.465
			c-0.852,3.482-1.456,8.165,1.667,9.926c3.123,1.762,6.798-0.619,9.338-3.149c0,0-0.925,9.799,5.889,9.807
			c6.814-0.008,5.89-9.807,5.89-9.807c2.54,2.53,6.215,4.911,9.338,3.149c3.123-1.761,2.519-6.443,1.667-9.926
			c1.461,1.478,3.139,2.813,5.112,3.465c1.974,0.651,4.287,0.527,5.955-0.712c1.57-1.166,2.364-3.15,2.528-5.099
			c0.165-1.948-0.222-3.896-0.607-5.814c1.057,1.346,2.168,2.736,3.711,3.473c1.543,0.737,3.669,0.614,4.666-0.775
			c2.369-3.304-0.613-10.121-0.613-10.121s5.218,4.327,7.4,2.739C196.385,143.851,196.784,142.109,196.592,140.5z"/>
	</g>
	<g>
		<g>
			<g>
				<g>
					<path fill="#C97029" d="M118.719,186.02c-1.207,2.414-1.162,5.414,0.118,7.791c0.579,1.077,1.687,2.128,2.868,1.813
						c0.604-0.163,1.063-0.653,1.421-1.168c1.611-2.31,1.749-5.56,0.342-7.999c-0.597-1.034-1.58-1.983-2.773-2.006
						C119.501,184.427,119.114,185.081,118.719,186.02"/>
				</g>
				<g>
					<path fill="#C97029" d="M123.472,186.159c-1.387,2.632-1.334,5.901,0.136,8.492c0.665,1.173,1.938,2.317,3.295,1.973
						c0.694-0.176,1.221-0.711,1.633-1.271c1.851-2.518,2.01-6.059,0.392-8.717c-0.686-1.127-1.814-2.161-3.187-2.186
						C124.372,184.424,123.927,185.137,123.472,186.159"/>
				</g>
				<g>
					<path fill="#C97029" d="M129.176,186.02c-1.207,2.414-1.162,5.414,0.118,7.791c0.579,1.077,1.687,2.128,2.868,1.813
						c0.605-0.163,1.063-0.653,1.421-1.168c1.611-2.31,1.75-5.56,0.342-7.999c-0.597-1.034-1.579-1.983-2.773-2.006
						C129.959,184.427,129.572,185.081,129.176,186.02"/>
				</g>
				<g>
					<path fill="#A75025" d="M124.046,192.334c-0.359,0.515-0.817,1.005-1.421,1.168c-1.182,0.315-2.29-0.735-2.869-1.813
						c-1.058-1.965-1.258-4.353-0.618-6.487c-0.157,0.233-0.29,0.508-0.42,0.817c-1.207,2.414-1.162,5.414,0.118,7.791
						c0.579,1.077,1.687,2.128,2.868,1.813c0.604-0.163,1.063-0.653,1.421-1.168c0.491-0.704,0.828-1.499,1.043-2.328
						C124.125,192.194,124.093,192.269,124.046,192.334z"/>
				</g>
				<g>
					<path fill="#A75025" d="M129.457,193.231c-0.412,0.561-0.939,1.096-1.633,1.271c-1.357,0.345-2.631-0.8-3.296-1.973
						c-1.211-2.134-1.444-4.724-0.719-7.042c-0.12,0.202-0.229,0.427-0.337,0.671c-1.387,2.632-1.334,5.901,0.136,8.492
						c0.665,1.173,1.938,2.317,3.295,1.973c0.694-0.176,1.221-0.711,1.633-1.271c0.575-0.782,0.966-1.668,1.212-2.59
						C129.651,192.919,129.567,193.082,129.457,193.231z"/>
				</g>
				<g>
					<path fill="#A75025" d="M134.504,192.334c-0.358,0.515-0.816,1.005-1.421,1.168c-1.181,0.315-2.289-0.735-2.868-1.813
						c-1.058-1.965-1.258-4.352-0.619-6.486c-0.157,0.233-0.289,0.507-0.419,0.816c-1.207,2.414-1.163,5.414,0.118,7.791
						c0.579,1.077,1.687,2.128,2.868,1.813c0.605-0.163,1.063-0.653,1.421-1.168c0.491-0.704,0.828-1.5,1.043-2.329
						C134.583,192.193,134.55,192.268,134.504,192.334z"/>
				</g>
			</g>
		</g>
		<g>
			<g>
				<g>
					<path fill="#C97029" d="M181.358,186.02c1.179,2.414,1.135,5.414-0.115,7.791c-0.565,1.077-1.648,2.128-2.803,1.813
						c-0.59-0.163-1.038-0.653-1.389-1.168c-1.573-2.31-1.708-5.56-0.333-7.999c0.582-1.034,1.543-1.983,2.709-2.006
						C180.593,184.427,180.972,185.081,181.358,186.02"/>
				</g>
				<g>
					<path fill="#C97029" d="M176.714,186.159c1.355,2.632,1.304,5.901-0.133,8.492c-0.649,1.173-1.894,2.317-3.22,1.973
						c-0.678-0.176-1.192-0.711-1.596-1.271c-1.809-2.518-1.964-6.059-0.383-8.717c0.67-1.127,1.772-2.161,3.113-2.186
						C175.835,184.424,176.27,185.137,176.714,186.159"/>
				</g>
				<g>
					<path fill="#C97029" d="M171.141,186.02c1.18,2.414,1.136,5.414-0.115,7.791c-0.565,1.077-1.647,2.128-2.802,1.813
						c-0.591-0.163-1.039-0.653-1.389-1.168c-1.573-2.31-1.71-5.56-0.334-7.999c0.583-1.034,1.543-1.983,2.71-2.006
						C170.376,184.427,170.754,185.081,171.141,186.02"/>
				</g>
				<g>
					<path fill="#A75025" d="M176.152,192.334c0.351,0.515,0.799,1.005,1.389,1.168c1.154,0.315,2.237-0.735,2.803-1.813
						c1.034-1.965,1.229-4.353,0.604-6.487c0.154,0.233,0.283,0.508,0.411,0.817c1.179,2.414,1.135,5.414-0.115,7.791
						c-0.565,1.077-1.648,2.128-2.803,1.813c-0.59-0.163-1.038-0.653-1.389-1.168c-0.479-0.704-0.809-1.499-1.019-2.328
						C176.076,192.194,176.107,192.269,176.152,192.334z"/>
				</g>
				<g>
					<path fill="#A75025" d="M170.866,193.231c0.403,0.561,0.918,1.096,1.596,1.271c1.326,0.345,2.57-0.8,3.22-1.973
						c1.184-2.134,1.411-4.724,0.703-7.042c0.117,0.202,0.224,0.427,0.329,0.671c1.355,2.632,1.304,5.901-0.133,8.492
						c-0.649,1.173-1.894,2.317-3.22,1.973c-0.678-0.176-1.192-0.711-1.596-1.271c-0.562-0.782-0.944-1.668-1.185-2.59
						C170.677,192.919,170.759,193.082,170.866,193.231z"/>
				</g>
				<g>
					<path fill="#A75025" d="M165.936,192.334c0.35,0.515,0.798,1.005,1.389,1.168c1.154,0.315,2.236-0.735,2.802-1.813
						c1.034-1.965,1.229-4.352,0.604-6.486c0.154,0.233,0.283,0.507,0.41,0.816c1.18,2.414,1.136,5.414-0.115,7.791
						c-0.565,1.077-1.647,2.128-2.802,1.813c-0.591-0.163-1.039-0.653-1.389-1.168c-0.479-0.704-0.809-1.5-1.02-2.329
						C165.858,192.193,165.891,192.268,165.936,192.334z"/>
				</g>
			</g>
		</g>
	</g>
	<path fill="#C8B5AC" d="M163.062,98.531c-10.303,3.986-13.033,21.908-13.033,21.908s-2.73-17.922-13.033-21.908
		c-16.523-6.393-37.224,7.744-29.739,30.487c16.749,3.834,33.03,12.984,42.772,23.987c9.741-11.003,26.023-20.153,42.772-23.987
		C200.285,106.275,179.585,92.139,163.062,98.531z"/>
	<g>
		<g>
			<g>
				<g>
					<path fill="#C8B5AC" d="M112.604,112.521c0,7.91,6.412,14.322,14.323,14.322s14.323-6.412,14.323-14.322"/>
					<path fill="#20140F" d="M112.604,112.521c0.411,3.752,2.125,7.171,4.745,9.578c2.616,2.402,6.08,3.771,9.578,3.745
						c3.498,0.023,6.961-1.346,9.576-3.748c2.619-2.406,4.333-5.823,4.747-9.575c0.438,3.76-0.931,7.793-3.643,10.679
						c-1.334,1.465-3.013,2.613-4.836,3.428c-1.836,0.793-3.841,1.196-5.844,1.215c-2.002-0.021-4.008-0.42-5.843-1.218
						c-1.824-0.813-3.5-1.963-4.835-3.427C113.539,120.312,112.169,116.28,112.604,112.521z"/>
				</g>
			</g>
		</g>
	</g>
	<g>
		<g>
			<g>
				<g>
					<path fill="#C8B5AC" d="M159.815,112.521c0,7.91,6.412,14.322,14.323,14.322c7.91,0,14.322-6.412,14.322-14.322"/>
					<path fill="#20140F" d="M159.815,112.521c0.411,3.752,2.125,7.171,4.745,9.578c2.615,2.402,6.08,3.771,9.578,3.745
						c3.497,0.023,6.961-1.346,9.576-3.748c2.619-2.406,4.333-5.823,4.746-9.575c0.438,3.76-0.931,7.793-3.643,10.679
						c-1.335,1.465-3.013,2.613-4.836,3.428c-1.837,0.793-3.842,1.196-5.844,1.215c-2.002-0.021-4.008-0.42-5.843-1.218
						c-1.824-0.813-3.5-1.963-4.835-3.427C160.75,120.312,159.38,116.28,159.815,112.521z"/>
				</g>
			</g>
		</g>
	</g>
	<g>
		<path fill="#34130F" d="M155.981,95.707c-0.013,0.008-0.025,0.015-0.037,0.022c-1.233,0.771-2.201,1.892-3.149,2.994
			c0.423-1.71,0.848-3.482,0.541-5.218s-1.551-3.436-3.294-3.69h-0.026c-1.744,0.255-2.988,1.955-3.294,3.69
			s0.119,3.508,0.541,5.218c-0.948-1.103-1.916-2.223-3.149-2.994c-0.012-0.008-0.025-0.015-0.037-0.022
			c-2.084-1.284-4.687,0.634-4.276,3.047c0.457,2.688,1.992,5.319,3.484,7.691c1.445,2.298,2.891,4.597,4.337,6.895h4.816
			c1.445-2.298,2.892-4.597,4.337-6.895c1.492-2.372,3.027-5.003,3.484-7.691C160.668,96.341,158.065,94.423,155.981,95.707z"/>
	</g>
	<g>
		<g>
			<path fill="#A54324" d="M146.598,118.996c0,0,0.766,4.377,3.813,4.377c3.048,0,3.048-4.534,3.048-4.534L146.598,118.996z"/>
		</g>
		<g>
			<path fill="#C97029" d="M150.146,110.146c-2.036-0.016-4.35,6.515-4.534,9.536l8.83-0.202
				C154.545,119.021,152.182,110.16,150.146,110.146z"/>
		</g>
	</g>
	<g>
		<g>
			<path fill="#34130F" d="M113.411,88.473c-0.793-0.025-1.702,0.033-2.199,0.652c-0.493,0.615-0.343,1.563,0.13,2.193
				c0.473,0.632,1.193,1.021,1.89,1.391c0.815,0.433,1.631,0.866,2.447,1.299c-2.487-0.177-4.984-0.217-7.476-0.119
				c-1.162,0.045-2.747,0.672-2.412,1.786c0.131,0.438,0.544,0.722,0.94,0.95c1.234,0.714,2.577,1.239,3.967,1.553
				c-2.762-0.079-5.542,0.84-7.713,2.549c-0.252,0.199-0.509,0.425-0.606,0.73c-0.273,0.853,0.773,1.508,1.64,1.729
				c4.345,1.106,8.951,0.194,13.221-1.172c6.856-2.194,13.334-5.564,19.067-9.917C132.134,92.274,120.747,88.712,113.411,88.473z"/>
		</g>
	</g>
	<g>
		<g>
			<path fill="#34130F" d="M188.121,88.473c0.794-0.025,1.702,0.033,2.199,0.652c0.493,0.615,0.343,1.563-0.13,2.193
				c-0.473,0.632-1.193,1.021-1.89,1.391c-0.815,0.433-1.631,0.866-2.446,1.299c2.487-0.177,4.984-0.217,7.476-0.119
				c1.162,0.045,2.747,0.672,2.412,1.786c-0.131,0.438-0.544,0.722-0.939,0.95c-1.234,0.714-2.577,1.239-3.968,1.553
				c2.762-0.079,5.542,0.84,7.714,2.549c0.252,0.199,0.508,0.425,0.606,0.73c0.272,0.853-0.773,1.508-1.641,1.729
				c-4.345,1.106-8.95,0.194-13.221-1.172c-6.856-2.194-13.335-5.564-19.067-9.917C169.398,92.274,180.786,88.712,188.121,88.473z"
				/>
		</g>
	</g>
	<g>
		<g>
			<path fill="#E2DCEE" d="M150.057,136.753c-1.907-6.83-19.094-10.049-29.896-8.415l-3.204,3.78l4.895,34.503l25.044,3.144
				L150.057,136.753z"/>
			<path fill="#E2DCEE" d="M150.23,136.753c3.229-7.283,21.457-8.521,30.625-7.283l2.228,2.648l-4.858,34.503l-24.858,3.144
				L150.23,136.753z"/>
			<path fill="#3562A1" d="M155.227,135.301v41.379c-2.885,1.722-6.054,1.919-9.618,0v-41.379
				C148.635,137.428,151.859,137.22,155.227,135.301z"/>
			<polygon fill="#2173B5" points="145.612,135.301 116.297,129.47 114.904,130.45 117.844,173.196 145.612,176.683 			"/>
			<polygon fill="#76A9D9" points="116.297,129.47 114.904,130.45 145.612,136.781 145.612,135.301 			"/>
			<polygon fill="#2173B5" points="155.227,135.301 184.542,129.47 185.936,130.45 182.995,173.196 155.227,176.683 			"/>
			<polygon fill="#76A9D9" points="184.542,129.47 185.936,130.45 155.227,136.781 155.227,135.301 			"/>
			<path fill="#2173B5" d="M145.612,135.301v1.48c3.026,2.128,6.248,1.914,9.613,0v-1.48
				C152.04,137.393,148.834,137.205,145.612,135.301z"/>
			<g>
				<path fill="#C97029" d="M155.227,164.177v6.877c-1.459,0.384-2.973,0.569-4.541,0.569c-1.623,0-3.301-0.197-5.078-0.603v-6.789
					l0.833,0.22c2.961,0.768,5.505,0.79,7.776,0.055L155.227,164.177z"/>
			</g>
			<g>
				<path fill="#A75025" d="M155.227,162.313v6.876c-1.459,0.384-2.973,0.582-4.541,0.582c-1.623,0-3.301-0.209-5.078-0.614v-6.789
					l0.833,0.22c2.961,0.768,5.505,0.789,7.776,0.055L155.227,162.313z"/>
			</g>
			<polygon fill="#76A9D9" points="159.16,141.533 159.16,147.018 181.643,143.727 182.213,136.781 			"/>
			<polygon fill="#76A9D9" points="159.16,148.57 159.16,152.044 174.971,149.759 174.971,147.018 			"/>
			<polygon fill="#76A9D9" points="166.657,152.044 166.657,154.512 181.46,153.006 181.46,150.216 			"/>
		</g>
		<g>
			<path fill="#34130F" d="M120.064,140.977c-4.571,1.219-9.291,4.375-13.6,8.446c-9.305,8.791-1.273,24.229,11.251,21.582
				c6.331-1.338,11.067-3.26,11.067-4.482c0-2.821-13.126-3.37-13.126-3.37s5.014-2.36,10.267-6.681
				c0.489-0.402,1.01-0.903,1.002-1.537c-0.013-1.174-1.623-1.49-2.792-1.387c-3.025,0.267-6.024,0.836-8.937,1.697
				c2.707-2.37,5.12-5.073,7.168-8.03c1.271-1.835,2.329-4.61,0.169-5.929C121.804,140.84,120.893,140.755,120.064,140.977z"/>
		</g>
		<g>
			<path fill="#34130F" d="M181.604,141.486c-1.813-0.654-4.177-1.073-5.165,1.009c-0.492,1.039-0.341,2.285,0.275,3.257
				c2.242,3.532,4.994,6.74,8.142,9.496c-2.913-0.861-5.911-1.431-8.937-1.698c-1.17-0.103-2.779,0.214-2.793,1.388
				c-0.007,0.634,0.514,1.135,1.003,1.537c5.253,4.32,10.267,6.681,10.267,6.681s-13.126,0.549-13.126,3.369
				c0,1.224,4.74,3.146,11.074,4.484c12.367,2.612,20.612-12.634,11.474-21.366C189.951,145.948,185.744,142.98,181.604,141.486z"/>
		</g>
	</g>
</g>
</svg>
