<?xml version="1.0" encoding="utf-8"?>
<!-- Generator: Adobe Illustrator 16.0.0, SVG Export Plug-In . SVG Version: 6.00 Build 0)  -->
<!DOCTYPE svg PUBLIC "-//W3C//DTD SVG 1.1//EN" "http://www.w3.org/Graphics/SVG/1.1/DTD/svg11.dtd">
<svg version="1.1" id="Layer_1" xmlns="http://www.w3.org/2000/svg" xmlns:xlink="http://www.w3.org/1999/xlink" x="0px" y="0px"
	 width="300px" height="300px" viewBox="0 0 300 300" enable-background="new 0 0 300 300" xml:space="preserve">
<g>
	<g>
		<g>
			<path fill="#34130F" d="M116.928,135.893c-4.085-11.16-24.557-23.198-26.375-21.379c-1.819,1.818,6.291,10.635,6.291,10.635
				s-4.755-1.71-10.927-2.312c-0.575-0.056-1.233-0.068-1.637,0.345c-0.749,0.766,0.085,2.007,0.906,2.694
				c2.123,1.778,4.423,3.345,6.856,4.668c-3.273-0.218-6.572-0.03-9.799,0.556c-1.817,0.329-4.02,1.271-4.007,3.118
				c0.01,1.482,1.496,2.472,2.837,3.102C90.661,141.822,107.166,140.009,116.928,135.893"/>
		</g>
		<g>
			<path fill="#34130F" d="M183.055,135.893c4.085-11.16,24.557-23.198,26.375-21.379c1.819,1.818-6.29,10.635-6.29,10.635
				s4.755-1.71,10.927-2.312c0.576-0.056,1.234-0.068,1.638,0.345c0.749,0.766-0.085,2.007-0.905,2.694
				c-2.123,1.778-4.424,3.345-6.857,4.668c3.273-0.218,6.572-0.03,9.8,0.556c1.816,0.329,4.02,1.271,4.007,3.118
				c-0.01,1.482-1.496,2.472-2.837,3.102C209.322,141.822,192.816,140.009,183.055,135.893"/>
		</g>
	</g>
	<path fill="#34130F" d="M168.973,181.88h-37.962c0,0-0.58,8.385,3.919,16.78s5.868-4.014,5.868-4.014s0.677,2.919,4.217,9.307
		c1.611,2.907,3.395,4.495,5.153,4.57c1.726-0.075,3.477-1.663,5.058-4.57c3.476-6.388,4.14-9.307,4.14-9.307
		s1.344,12.409,5.76,4.014S168.973,181.88,168.973,181.88z"/>
	<path fill="#C8B5AC" d="M186.273,146.991c-3.35-9.365,0.426-14.743,0.426-14.743h-73.188c0,0,3.761,5.372,0.425,14.743
		c-5.577,15.667,2.986,39.408,36.062,39.408h0.213C183.287,186.399,191.225,160.829,186.273,146.991z"/>
	<g>
		<g>
			<g>
				<path fill="#34130F" d="M175.777,87.763c0.553-0.468,1.236-0.939,1.941-0.777c0.701,0.161,1.13,0.923,1.148,1.642
					c0.02,0.719-0.275,1.404-0.564,2.063c-0.338,0.771-0.676,1.542-1.015,2.313c1.679-1.533,3.441-2.975,5.278-4.314
					c0.856-0.626,2.344-1.074,2.735-0.088c0.153,0.387,0.019,0.823-0.134,1.211c-0.479,1.209-1.143,2.344-1.959,3.355
					c1.931-1.619,4.438-2.535,6.957-2.542c0.293-0.001,0.604,0.016,0.848,0.18c0.678,0.454,0.301,1.516-0.194,2.163
					c-2.481,3.25-6.29,5.204-10.117,6.643c-6.144,2.311-12.683,3.566-19.245,3.698C164.541,101.074,170.668,92.084,175.777,87.763z"
					/>
			</g>
		</g>
		<g>
			<g>
				<path fill="#34130F" d="M124.205,87.763c-0.553-0.468-1.235-0.939-1.941-0.777c-0.701,0.161-1.129,0.923-1.148,1.642
					c-0.019,0.719,0.275,1.404,0.564,2.063c0.338,0.771,0.676,1.542,1.015,2.313c-1.679-1.533-3.441-2.975-5.278-4.314
					c-0.856-0.626-2.344-1.074-2.735-0.088c-0.153,0.387-0.019,0.823,0.134,1.211c0.479,1.209,1.141,2.344,1.958,3.355
					c-1.931-1.619-4.438-2.535-6.958-2.542c-0.293-0.001-0.604,0.016-0.848,0.18c-0.677,0.454-0.3,1.516,0.195,2.163
					c2.481,3.25,6.291,5.204,10.117,6.643c6.144,2.311,12.683,3.566,19.245,3.698C135.441,101.074,129.314,92.084,124.205,87.763z"
					/>
			</g>
		</g>
	</g>
	<path fill="#632811" d="M193.645,150.44c-0.68-12.057-1.92-41.815-1.92-41.815s-18.678-10.159-41.74-10.185
		c-23.062,0.025-41.74,10.185-41.74,10.185s-1.158,28.072-1.91,41.815c-0.671,12.263,2.687,42.64,43.523,42.64h0.264
		C190.957,193.08,194.336,162.701,193.645,150.44z"/>
	<path fill="#C8B5AC" d="M190.506,161.002c-0.877-7.178-4.563-14.047-10.247-19.099h-60.535c-5.684,5.052-9.37,11.921-10.248,19.099
		c-0.223,1.821,0.106,4.205,2.057,4.678c2.552,0.617,6.56-2.229,6.56-2.229s-3.375,6.193-1.736,9.551
		c0.923,1.892,3.825,2.343,6.056,1.922c2.23-0.422,4.164-1.639,6.028-2.827c-0.579,1.281-1.165,2.586-1.303,3.965
		c-0.137,1.379,0.238,2.868,1.339,3.827c1.38,1.2,3.548,1.296,5.407,0.891c2.826-0.616,5.273-2.173,7.645-3.698
		c-1.108,3.063,2.473,10.516,8.295,10.516c5.823,0,9.739-7.452,8.631-10.516c2.372,1.525,4.819,3.082,7.646,3.698
		c1.858,0.405,4.026,0.31,5.406-0.891c1.102-0.959,1.477-2.448,1.339-3.827s-0.724-2.684-1.302-3.965
		c1.863,1.188,3.797,2.405,6.027,2.827c2.23,0.421,5.133-0.03,6.056-1.922c1.64-3.357-1.736-9.551-1.736-9.551
		s4.007,2.846,6.56,2.229C190.4,165.207,190.729,162.823,190.506,161.002z"/>
	<g>
		<polygon fill="#E2DAD6" points="149.999,174.498 149.991,174.497 149.984,174.498 		"/>
		<path fill="#E2DAD6" d="M192.449,143.741c-0.49-4.097-1.968-7.644-4.369-10.999h-76.178c-2.401,3.355-3.879,6.902-4.369,10.999
			c-0.175,1.467,0.189,3.055,1.383,3.924c1.99,1.447,6.748-2.498,6.748-2.498s-2.719,6.217-0.559,9.229
			c0.909,1.267,2.848,1.379,4.255,0.707c1.407-0.672,2.42-1.939,3.383-3.166c-0.351,1.748-0.704,3.524-0.554,5.302
			c0.15,1.776,0.875,3.585,2.306,4.648c1.521,1.131,3.631,1.243,5.43,0.649c1.799-0.595,3.329-1.813,4.662-3.16
			c-0.776,3.176-1.328,7.445,1.52,9.052c2.847,1.605,6.199-0.564,8.515-2.872c0,0-0.843,8.935,5.37,8.941
			c6.214-0.007,5.37-8.941,5.37-8.941c2.316,2.308,5.667,4.478,8.515,2.872c2.848-1.606,2.296-5.876,1.521-9.052
			c1.332,1.348,2.861,2.565,4.66,3.16c1.8,0.594,3.91,0.481,5.432-0.649c1.431-1.063,2.154-2.872,2.305-4.648
			c0.15-1.777-0.203-3.554-0.554-5.302c0.963,1.227,1.976,2.494,3.384,3.166c1.406,0.672,3.346,0.56,4.254-0.707
			c2.16-3.012-0.559-9.229-0.559-9.229s4.758,3.945,6.747,2.498C192.26,146.796,192.624,145.208,192.449,143.741z"/>
	</g>
	<path fill="#C8B5AC" d="M161.875,105.473c-9.395,3.635-11.884,19.976-11.884,19.976s-2.49-16.341-11.884-19.976
		c-15.066-5.829-33.941,7.062-27.117,27.799c15.272,3.496,30.118,11.84,39,21.873c8.883-10.033,23.729-18.377,39.001-21.873
		C195.816,112.534,176.941,99.644,161.875,105.473z"/>
	<g>
		<g>
			<g>
				<path fill="#37140F" d="M144.294,122.157c0,8.03-7.443,14.54-15.472,14.54c-8.03,0-15.263-6.51-15.263-14.54
					c0-6.833,8.507-15.554,16.516-14.985C137.534,107.701,144.294,114.127,144.294,122.157z"/>
				<circle fill="#FFFFFF" cx="128.927" cy="122.157" r="13.06"/>
				<circle fill="#010101" cx="128.879" cy="124.362" r="10.437"/>
				<circle fill="#FFFFFF" cx="127.456" cy="129.426" r="2.777"/>
				<circle fill="#FFFFFF" cx="123.29" cy="125.751" r="1.388"/>
			</g>
		</g>
		<g>
			<g>
				<path fill="#37140F" d="M186.422,122.157c0,8.03-7.441,14.54-15.471,14.54c-8.03,0-15.264-6.51-15.264-14.54
					c0-6.833,8.508-15.554,16.517-14.985C179.662,107.701,186.422,114.127,186.422,122.157z"/>
				<circle fill="#FFFFFF" cx="171.056" cy="122.157" r="13.06"/>
				<circle fill="#010101" cx="171.007" cy="124.362" r="10.437"/>
				<circle fill="#FFFFFF" cx="169.584" cy="129.426" r="2.777"/>
				<circle fill="#FFFFFF" cx="165.418" cy="125.751" r="1.389"/>
			</g>
		</g>
	</g>
	<g>
		<path fill="#34130F" d="M155.419,102.897c-0.011,0.007-0.022,0.014-0.034,0.021c-1.124,0.703-2.006,1.725-2.871,2.73
			c0.385-1.561,0.773-3.176,0.494-4.758c-0.28-1.583-1.414-3.133-3.004-3.365h-0.024c-1.59,0.232-2.725,1.782-3.004,3.365
			c-0.279,1.582,0.108,3.197,0.494,4.758c-0.865-1.006-1.748-2.027-2.872-2.73c-0.011-0.007-0.022-0.014-0.034-0.021
			c-1.9-1.171-4.273,0.577-3.899,2.778c0.417,2.451,1.816,4.851,3.177,7.013c1.318,2.096,2.636,4.191,3.955,6.287h4.392
			c1.318-2.096,2.636-4.191,3.954-6.287c1.36-2.162,2.761-4.562,3.177-7.013C159.692,103.475,157.319,101.727,155.419,102.897z"/>
	</g>
	<g>
		<path fill="#010101" d="M153.068,132.765h-6.155c-0.975-3.777-0.71-7.873,0-12.083h6.155
			C154.199,124.998,154.469,129.095,153.068,132.765z"/>
		<g>
			<path fill="#762646" d="M152.621,132.853c0,0-0.293-3.356-2.63-3.356s-2.63,3.478-2.63,3.478
				C149.116,133.964,150.869,133.923,152.621,132.853z"/>
		</g>
		<g>
			<path fill="#A54324" d="M145.964,132.869c0,0,0.449,5.139,4.027,5.139c3.577,0,4.026-5.323,4.026-5.323
				C151.332,131.168,148.647,131.23,145.964,132.869z"/>
		</g>
		<g>
			<path fill="#C97029" d="M150.111,115.539c-2.08-0.016-4.444,6.655-4.631,9.742c3.007-1.466,6.015-1.535,9.021-0.207
				C154.605,124.606,152.191,115.555,150.111,115.539z"/>
		</g>
	</g>
	<g>
		<g>
			<g>
				<g>
					<path fill="#C97029" d="M195.678,194.171c-2.619-1.847-5.832-2.836-8.969-1.786c-3.195,1.069-5.205,3.74-6.885,6.506
						c-0.131-0.012-0.188-0.329-0.504-1.263c-0.443-1.31-0.61-2.64-0.665-4.015c-0.153-3.854-6.154-3.868-6,0
						c0.151,3.805,1.009,9.63,5.116,11.215c1.438,0.555,2.855,0.287,4.188-0.295c0.283-0.057,0.564-0.135,0.839-0.254
						c2.067-0.904,4.079,0.119,5.38,1.747c1.013,1.268,3.188,1.055,4.242,0c0.551-0.551,0.8-1.192,0.836-1.846
						c1.695-0.41,3.252-2.342,2.361-4.473c-0.025-0.061-0.055-0.116-0.082-0.176C197.14,198.498,197.787,195.657,195.678,194.171z"
						/>
					<path fill="#A75025" d="M185.248,201.185c-4.719,0.583-6.609,3.653-7.059,3.748c1.293,0.361,2.566,0.126,3.77-0.399
						c0.283-0.057,0.564-0.135,0.839-0.254c2.067-0.904,4.079,0.119,5.38,1.747c1.013,1.268,3.188,1.055,4.242,0
						C192.539,205.908,189.482,200.661,185.248,201.185z"/>
					<path fill="#A75025" d="M195.516,202.357c-4.604-6.648-9.867-3.627-9.867-3.627c5.5-0.832,7.607,5.45,7.607,5.45
						C194.18,203.957,195.049,203.271,195.516,202.357z"/>
					<path fill="#A75025" d="M197.006,196.847c-5.758-5.308-9.204-1.527-9.204-1.527c5.216-1.178,7.354,3.266,7.743,4.206
						C196.387,198.978,196.958,197.932,197.006,196.847z"/>
				</g>
			</g>
			<g>
				<path fill="#632811" d="M175.084,183.715l-4.695,2.148c-0.16,1.56-0.957,8.706-0.915,10.273
					c0.028,1.063,0.152,2.234,0.933,2.955c0.328,0.304,0.802,0.502,1.226,0.359c0.245-0.082,0.442-0.267,0.616-0.459
					c0.725-0.805,1.178-1.848,1.271-2.926c0.361,1.046,0.955,2.011,1.725,2.806c0.435,0.447,1.176,0.844,1.629,0.415
					c0.177-0.168,0.245-0.418,0.295-0.657c0.204-0.985,0.214-2.011,0.029-3c0.783,1.038,2.498,1.03,3.467,0.161
					c0.968-0.868,1.229-2.336,0.914-3.599c-0.316-1.262-1.122-2.346-2.018-3.289C178.922,188.229,175.825,184.276,175.084,183.715z"
					/>
			</g>
			<g>
				<g>
					<path fill="#C97029" d="M175.475,200.922c-1.758,5.262,1.486,10.829,6.856,12.056c3.755,0.857,5.302-4.942,1.522-5.805
						c-2.357-0.538-3.334-2.458-2.574-4.729C182.502,198.781,176.695,197.267,175.475,200.922L175.475,200.922z"/>
				</g>
				<path fill="#A75025" d="M183.854,207.173c-2.357-0.538-3.334-2.458-2.574-4.729c0,0-4.309,5.229,2.996,10.342
					C186.485,211.722,186.883,207.864,183.854,207.173z"/>
			</g>
		</g>
		<g>
			<g>
				<g>
					<path fill="#C97029" d="M104.305,194.171c2.619-1.847,5.832-2.836,8.969-1.786c3.195,1.069,5.205,3.74,6.885,6.506
						c0.131-0.012,0.187-0.329,0.503-1.263c0.443-1.31,0.611-2.64,0.666-4.015c0.153-3.854,6.154-3.868,6,0
						c-0.151,3.805-1.008,9.63-5.116,11.215c-1.438,0.555-2.855,0.287-4.188-0.295c-0.283-0.057-0.565-0.135-0.839-0.254
						c-2.067-0.904-4.08,0.119-5.38,1.747c-1.013,1.268-3.188,1.055-4.243,0c-0.55-0.551-0.799-1.192-0.835-1.846
						c-1.696-0.41-3.252-2.342-2.362-4.473c0.025-0.061,0.056-0.116,0.082-0.176C102.842,198.498,102.195,195.657,104.305,194.171z"
						/>
					<path fill="#A75025" d="M114.734,201.185c4.719,0.583,6.61,3.653,7.06,3.748c-1.294,0.361-2.567,0.126-3.77-0.399
						c-0.283-0.057-0.565-0.135-0.839-0.254c-2.067-0.904-4.08,0.119-5.38,1.747c-1.013,1.268-3.188,1.055-4.243,0
						C107.444,205.908,110.5,200.661,114.734,201.185z"/>
					<path fill="#A75025" d="M104.466,202.357c4.604-6.648,9.868-3.627,9.868-3.627c-5.5-0.832-7.607,5.45-7.607,5.45
						C105.802,203.957,104.934,203.271,104.466,202.357z"/>
					<path fill="#A75025" d="M102.977,196.847c5.758-5.308,9.204-1.527,9.204-1.527c-5.216-1.178-7.354,3.266-7.743,4.206
						C103.595,198.978,103.024,197.932,102.977,196.847z"/>
				</g>
			</g>
			<g>
				<path fill="#632811" d="M124.898,183.715l4.696,2.148c0.16,1.56,0.956,8.706,0.915,10.273c-0.028,1.063-0.152,2.234-0.933,2.955
					c-0.328,0.304-0.802,0.502-1.226,0.359c-0.246-0.082-0.443-0.267-0.616-0.459c-0.724-0.805-1.177-1.848-1.271-2.926
					c-0.361,1.046-0.955,2.011-1.725,2.806c-0.435,0.447-1.175,0.844-1.628,0.415c-0.177-0.168-0.246-0.418-0.295-0.657
					c-0.204-0.985-0.214-2.011-0.029-3c-0.784,1.038-2.499,1.03-3.467,0.161c-0.968-0.868-1.229-2.336-0.914-3.599
					c0.316-1.262,1.121-2.346,2.017-3.289C121.061,188.229,124.157,184.276,124.898,183.715z"/>
			</g>
			<g>
				<g>
					<path fill="#C97029" d="M124.508,200.922c1.758,5.262-1.487,10.829-6.857,12.056c-3.755,0.857-5.301-4.942-1.522-5.805
						c2.357-0.538,3.333-2.458,2.574-4.729C117.48,198.781,123.287,197.267,124.508,200.922L124.508,200.922z"/>
				</g>
				<path fill="#A75025" d="M116.129,207.173c2.357-0.538,3.333-2.458,2.574-4.729c0,0,4.309,5.229-2.997,10.342
					C113.497,211.722,113.1,207.864,116.129,207.173z"/>
			</g>
		</g>
	</g>
</g>
</svg>
