<?xml version="1.0" encoding="utf-8"?>
<!-- Generator: Adobe Illustrator 16.0.0, SVG Export Plug-In . SVG Version: 6.00 Build 0)  -->
<!DOCTYPE svg PUBLIC "-//W3C//DTD SVG 1.1//EN" "http://www.w3.org/Graphics/SVG/1.1/DTD/svg11.dtd">
<svg version="1.1" id="Layer_1" xmlns="http://www.w3.org/2000/svg" xmlns:xlink="http://www.w3.org/1999/xlink" x="0px" y="0px"
	 width="300px" height="300px" viewBox="0 0 300 300" enable-background="new 0 0 300 300" xml:space="preserve">
<g>
	<path fill="#34130F" d="M142.532,192.82l-29.835-11.313c0,0-3.428,7.668-2.869,16.858c0.56,9.191,6.035-2.005,6.035-2.005
		s-0.503,2.932,0.015,9.959c0.235,3.198,1.074,5.215,2.43,5.81c1.383,0.443,3.322-0.52,5.596-2.767
		c4.995-4.937,6.553-7.469,6.553-7.469s-3.344,12.004,3.104,5.47S142.532,192.82,142.532,192.82z"/>
	<path fill="#C8B5AC" d="M184.099,154.924c-3.351-9.365,0.426-14.743,0.426-14.743h-73.188c0,0,3.761,5.373,0.426,14.743
		c-5.577,15.668,2.986,39.409,36.062,39.409h0.214C181.112,194.333,189.05,168.762,184.099,154.924z"/>
	<g>
		<path fill="#34130F" d="M113.624,92.339c-0.836-0.366-1.83-0.69-2.625-0.242c-0.789,0.446-1.032,1.521-0.798,2.396
			c0.236,0.875,0.838,1.598,1.424,2.289c0.686,0.811,1.37,1.62,2.056,2.43c-2.578-1.249-5.226-2.357-7.926-3.317
			c-1.259-0.447-3.218-0.455-3.336,0.877c-0.047,0.522,0.272,1.002,0.598,1.415c1.012,1.288,2.221,2.422,3.57,3.35
			c-2.913-1.263-6.271-1.469-9.317-0.571c-0.354,0.104-0.725,0.235-0.959,0.521c-0.655,0.793,0.182,1.938,1.012,2.544
			c4.165,3.035,9.468,4.027,14.607,4.391c8.252,0.584,16.602-0.246,24.577-2.444C131.979,104.385,121.349,95.725,113.624,92.339z"/>
	</g>
	<g>
		<path fill="#34130F" d="M176.927,88.146c0.663-0.291,1.452-0.548,2.083-0.191c0.626,0.354,0.819,1.206,0.633,1.9
			c-0.188,0.694-0.665,1.268-1.13,1.817c-0.544,0.643-1.087,1.285-1.631,1.928c2.046-0.992,4.146-1.871,6.288-2.633
			c1-0.354,2.554-0.36,2.647,0.695c0.037,0.415-0.217,0.796-0.474,1.123c-0.804,1.022-1.763,1.922-2.833,2.658
			c2.312-1.002,4.976-1.165,7.393-0.454c0.281,0.083,0.575,0.188,0.762,0.413c0.519,0.629-0.145,1.539-0.804,2.019
			c-3.305,2.408-7.512,3.195-11.591,3.484c-6.547,0.464-13.173-0.195-19.5-1.939C162.362,97.705,170.798,90.833,176.927,88.146z"/>
	</g>
	<path fill="#632811" d="M104.159,158.374c-0.671,12.262,2.687,42.639,43.523,42.639h0.264c40.836,0,43.523-27.819,43.523-42.639
		c0-44.515-15.341-59.869-15.341-59.869s-20.672-4.979-42.954,0.966c-22.27,5.993-37.683,20.641-37.683,20.641
		s6.147,27.416,8.979,40.885"/>
	<path fill="#C8B5AC" d="M193.12,166.755c-0.762-10.466-5.22-20.436-11.151-26.743h-43.461c-5.932,6.308-10.39,16.277-11.151,26.743
		c-0.224,2.635,0.093,6.085,1.386,6.673c1.657,0.751,4.104-3.436,4.129-3.4c-0.09-0.071-1.942,8.911-0.027,13.575
		c1.012,2.62,3.019,2.998,4.331,2.251c1.318-0.759,2.259-2.576,3.229-4.301c-0.124,1.774-0.195,3.598,0.1,5.479
		c0.29,1.879,1.023,3.862,2.072,5.02c1.322,1.468,2.752,1.325,3.782,0.594c1.564-1.134,2.563-3.422,3.637-5.582
		c-0.006,4.163,3.859,11.738,9.646,11.738c5.785,0,10.847-7.575,10.841-11.738c1.073,2.16,2.072,4.448,3.637,5.582
		c1.03,0.731,2.46,0.874,3.782-0.594c1.049-1.157,1.782-3.141,2.072-5.02c0.295-1.882,0.224-3.705,0.1-5.479
		c0.971,1.725,1.911,3.542,3.229,4.301c1.313,0.747,3.319,0.369,4.331-2.251c1.915-4.664,0.063-13.646-0.027-13.575
		c0.025-0.035,2.472,4.151,4.129,3.4C193.027,172.84,193.344,169.39,193.12,166.755z"/>
	<path fill="#E2DAD6" d="M193.297,149.656c-1.073-6.3-6.261-21.016-9.32-25.792l-57.827,16.315c0,0,2.313,14.183,3.009,15.491
		c1.127,2.137,4.604-3.911,4.655-3.843c-0.107-0.076-2.514,9.438-0.747,13.938c0.681,1.887,1.947,1.942,2.785,0.887
		c0.843-1.068,1.413-2.986,2.025-4.813c-0.212,2.583-0.313,5.232,0.026,7.843c0.333,2.615,1.188,5.23,2.371,6.651
		c1.263,1.531,2.649,1.482,3.64,0.496c0.991-1,1.667-2.84,2.276-4.807c0.019,4.483,1.123,10.562,3.624,12.359
		c2.449,1.791,3.599-1.506,4.335-4.7c-0.032,1.221,1.721,10.467,6.673,10.467c4.992,0,7.135-9.39,7.121-10.492
		c0.735,3.202,1.885,6.521,4.341,4.726c2.501-1.798,3.605-7.876,3.624-12.359c0.608,1.967,1.285,3.807,2.276,4.807
		c0.99,0.986,2.377,1.035,3.64-0.496c1.184-1.421,2.038-4.036,2.371-6.651c0.339-2.61,0.238-5.26,0.025-7.843
		c0.613,1.827,1.184,3.745,2.025,4.813c0.839,1.056,2.105,1,2.786-0.887c1.767-4.5-0.64-14.014-0.747-13.938
		c0.052-0.068,3.528,5.979,4.655,3.843C193.637,154.362,193.685,151.906,193.297,149.656z"/>
	<path fill="#C8B5AC" d="M157.685,102.306c-5.936,4.593-1.796,19.334-1.796,19.334s-8.375-21.15-25.002-18.466
		c-16.626,2.685-25.095,23.723-4.737,37.006c12.559,1.716,26.861,6.398,36.818,15.817c2.846-13.271,11.668-24.671,21.749-30.859
		C178.693,97.509,167.373,95.521,157.685,102.306z"/>
	<g>
		<path fill="#37140F" d="M159.283,116.667c-2.796-8.31,0.616-15.682,6.743-16.367s13.658,4.584,16.14,11.846
			c2.112,6.179-1.357,15.879-7.35,17.033C169.227,130.218,162.08,124.977,159.283,116.667z"/>
		<path fill="#FFFFFF" d="M180.448,112.485c-2.25-6.594-8.525-11.402-14.016-10.741s-7.922,7.19-5.431,14.584
			c2.49,7.393,8.765,12.202,14.015,10.74C180.267,125.607,182.698,119.078,180.448,112.485z"/>
		<path fill="#010101" d="M177.836,110.824c-1.816-5.332-6.845-9.218-11.229-8.68c-4.385,0.538-6.342,5.712-4.371,11.555
			s6.998,9.729,11.229,8.68C177.696,121.329,179.653,116.156,177.836,110.824z"/>
		<path fill="#FFFFFF" d="M171.539,106.865c-0.496-1.459-1.84-2.512-3.001-2.352s-1.692,1.502-1.186,2.997
			c0.506,1.496,1.85,2.549,3,2.353C171.504,109.667,172.034,108.325,171.539,106.865z"/>
		<path fill="#FFFFFF" d="M174.807,109.996c-0.245-0.721-0.91-1.227-1.486-1.13s-0.842,0.766-0.594,1.496
			c0.248,0.729,0.913,1.235,1.486,1.13C174.786,111.386,175.052,110.716,174.807,109.996z"/>
	</g>
	<g>
		<path fill="#37140F" d="M118.629,125.461c-2.758-8.879,2.396-17.154,10.367-18.316c7.973-1.162,17.148,4.079,19.608,11.836
			c2.093,6.6-3.372,17.419-11.218,19.084C130.07,139.576,121.388,134.34,118.629,125.461z"/>
		<path fill="#FFFFFF" d="M146.354,119.467c-2.229-7.043-9.832-11.866-16.981-10.773c-7.148,1.093-10.951,8.382-8.493,16.281
			c2.457,7.899,10.06,12.724,16.98,10.773C144.781,133.799,148.584,126.51,146.354,119.467z"/>
		<path fill="#010101" d="M143.154,117.83c-1.799-5.695-7.888-9.596-13.598-8.712c-5.709,0.884-8.762,6.662-6.816,12.904
			c1.945,6.243,8.033,10.144,13.598,8.713C141.902,129.304,144.954,123.526,143.154,117.83z"/>
		<path fill="#FFFFFF" d="M135.437,113.937c-0.491-1.559-2.116-2.617-3.631-2.364c-1.515,0.254-2.336,1.754-1.835,3.352
			c0.5,1.598,2.126,2.656,3.63,2.364S135.927,115.495,135.437,113.937z"/>
		<path fill="#FFFFFF" d="M139.332,117.132c-0.243-0.771-1.05-1.277-1.803-1.133c-0.752,0.145-1.163,0.894-0.918,1.673
			s1.052,1.286,1.802,1.133C139.163,118.65,139.574,117.901,139.332,117.132z"/>
	</g>
	<g>
		<path fill="#34130F" d="M156.148,99.518c-0.008,0.009-0.016,0.019-0.023,0.027c-0.775,0.903-1.241,2.066-1.695,3.21
			c-0.138-1.584-0.291-3.222-1.022-4.694c-0.73-1.473-2.206-2.743-3.679-2.65l-0.021,0.005c-1.33,0.542-1.855,2.265-1.617,3.85
			c0.238,1.584,1.075,3.067,1.893,4.497c-1.07-0.799-2.161-1.609-3.367-2.064c-0.013-0.004-0.024-0.009-0.037-0.013
			c-2.033-0.752-3.59,1.41-2.586,3.462c1.118,2.284,3.087,4.322,4.948,6.14c1.805,1.762,3.608,3.522,5.412,5.283l3.872-0.876
			c0.52-2.287,1.04-4.575,1.561-6.862c0.536-2.36,1.035-4.957,0.651-7.408C160.093,99.223,157.465,98.008,156.148,99.518z"/>
	</g>
	<g>
		<g>
			<path fill="#A54324" d="M154.293,121.923c0,0,2.021,3.674,5.197,2.955s1.91-4.713,1.91-4.713L154.293,121.923z"/>
		</g>
		<g>
			<path fill="#C97029" d="M156.463,113.076c-2.127,0.467-3.707,4.653-2.063,9.469l11.124-2.709
				C165.524,119.836,158.59,112.609,156.463,113.076z"/>
		</g>
	</g>
	<g>
		<g>
			<g>
				<g>
					<path fill="#C97029" d="M139.941,196.986c-1.101,2.202-1.06,4.938,0.107,7.104c0.527,0.982,1.538,1.94,2.615,1.652
						c0.551-0.148,0.969-0.596,1.296-1.064c1.469-2.106,1.595-5.069,0.312-7.294c-0.544-0.942-1.44-1.809-2.528-1.829
						C140.655,195.534,140.302,196.131,139.941,196.986"/>
				</g>
				<g>
					<path fill="#C97029" d="M144.275,197.114c-1.265,2.399-1.217,5.381,0.124,7.743c0.606,1.069,1.768,2.113,3.005,1.799
						c0.633-0.16,1.113-0.648,1.489-1.159c1.688-2.296,1.833-5.524,0.357-7.948c-0.625-1.027-1.654-1.971-2.905-1.993
						C145.096,195.532,144.69,196.182,144.275,197.114"/>
				</g>
				<g>
					<path fill="#C97029" d="M149.477,196.986c-1.101,2.202-1.06,4.938,0.107,7.104c0.528,0.982,1.538,1.94,2.615,1.652
						c0.552-0.148,0.97-0.596,1.296-1.064c1.469-2.106,1.596-5.069,0.312-7.294c-0.544-0.942-1.439-1.809-2.528-1.829
						C150.19,195.534,149.838,196.131,149.477,196.986"/>
				</g>
				<g>
					<path fill="#A75025" d="M144.8,202.744c-0.327,0.469-0.745,0.916-1.296,1.064c-1.077,0.288-2.088-0.67-2.615-1.652
						c-0.965-1.792-1.147-3.969-0.563-5.915c-0.145,0.213-0.265,0.463-0.384,0.745c-1.101,2.202-1.06,4.938,0.107,7.104
						c0.527,0.982,1.538,1.94,2.615,1.652c0.551-0.148,0.969-0.596,1.296-1.064c0.448-0.643,0.755-1.368,0.951-2.123
						C144.871,202.617,144.842,202.685,144.8,202.744z"/>
				</g>
				<g>
					<path fill="#A75025" d="M149.733,203.563c-0.376,0.511-0.856,0.999-1.489,1.159c-1.237,0.314-2.398-0.729-3.005-1.799
						c-1.104-1.945-1.316-4.307-0.656-6.421c-0.109,0.185-0.208,0.39-0.308,0.612c-1.265,2.399-1.217,5.381,0.124,7.743
						c0.606,1.069,1.768,2.113,3.005,1.799c0.633-0.16,1.113-0.648,1.489-1.159c0.524-0.714,0.882-1.521,1.105-2.362
						C149.91,203.277,149.834,203.427,149.733,203.563z"/>
				</g>
				<g>
					<path fill="#A75025" d="M154.335,202.744c-0.326,0.469-0.744,0.916-1.296,1.064c-1.077,0.288-2.087-0.67-2.615-1.652
						c-0.965-1.791-1.147-3.968-0.564-5.914c-0.144,0.213-0.264,0.462-0.383,0.744c-1.101,2.202-1.06,4.938,0.107,7.104
						c0.528,0.982,1.538,1.94,2.615,1.652c0.552-0.148,0.97-0.596,1.296-1.064c0.448-0.643,0.755-1.368,0.951-2.124
						C154.407,202.616,154.377,202.684,154.335,202.744z"/>
				</g>
			</g>
		</g>
		<g>
			<g>
				<g>
					<path fill="#C97029" d="M173.239,196.986c1.075,2.202,1.035,4.938-0.104,7.104c-0.516,0.982-1.503,1.94-2.556,1.652
						c-0.538-0.148-0.946-0.596-1.266-1.064c-1.436-2.106-1.559-5.069-0.305-7.294c0.531-0.942,1.407-1.809,2.47-1.829
						C172.542,195.534,172.887,196.131,173.239,196.986"/>
				</g>
				<g>
					<path fill="#C97029" d="M169.005,197.114c1.235,2.399,1.188,5.381-0.121,7.743c-0.593,1.069-1.728,2.113-2.936,1.799
						c-0.619-0.16-1.088-0.648-1.456-1.159c-1.648-2.296-1.79-5.524-0.349-7.948c0.61-1.027,1.616-1.971,2.839-1.993
						C168.203,195.532,168.6,196.182,169.005,197.114"/>
				</g>
				<g>
					<path fill="#C97029" d="M163.923,196.986c1.075,2.202,1.035,4.938-0.104,7.104c-0.517,0.982-1.503,1.94-2.556,1.652
						c-0.539-0.148-0.947-0.596-1.266-1.064c-1.436-2.106-1.56-5.069-0.305-7.294c0.531-0.942,1.406-1.809,2.471-1.829
						C163.226,195.534,163.57,196.131,163.923,196.986"/>
				</g>
				<g>
					<path fill="#A75025" d="M168.493,202.744c0.319,0.469,0.728,0.916,1.266,1.064c1.053,0.288,2.04-0.67,2.556-1.652
						c0.942-1.792,1.121-3.969,0.551-5.915c0.141,0.213,0.258,0.463,0.374,0.745c1.075,2.202,1.035,4.938-0.104,7.104
						c-0.516,0.982-1.503,1.94-2.556,1.652c-0.538-0.148-0.946-0.596-1.266-1.064c-0.438-0.643-0.738-1.368-0.93-2.123
						C168.423,202.617,168.452,202.685,168.493,202.744z"/>
				</g>
				<g>
					<path fill="#A75025" d="M163.673,203.563c0.367,0.511,0.837,0.999,1.455,1.159c1.209,0.314,2.343-0.729,2.936-1.799
						c1.079-1.945,1.286-4.307,0.641-6.421c0.107,0.185,0.204,0.39,0.301,0.612c1.235,2.399,1.188,5.381-0.121,7.743
						c-0.593,1.069-1.728,2.113-2.936,1.799c-0.619-0.16-1.088-0.648-1.456-1.159c-0.512-0.714-0.86-1.521-1.08-2.362
						C163.5,203.277,163.574,203.427,163.673,203.563z"/>
				</g>
				<g>
					<path fill="#A75025" d="M159.177,202.744c0.318,0.469,0.728,0.916,1.267,1.064c1.052,0.288,2.038-0.67,2.555-1.652
						c0.942-1.791,1.121-3.968,0.551-5.914c0.141,0.213,0.258,0.462,0.374,0.744c1.075,2.202,1.035,4.938-0.104,7.104
						c-0.517,0.982-1.503,1.94-2.556,1.652c-0.539-0.148-0.947-0.596-1.266-1.064c-0.438-0.643-0.737-1.368-0.93-2.124
						C159.106,202.616,159.136,202.684,159.177,202.744z"/>
				</g>
			</g>
		</g>
	</g>
	<g>
		<path fill="#34130F" d="M125.539,140.012c-5.464,11.773,1.05,36.882,3.859,36.882c2.809,0,3.355-13.072,3.355-13.072
			s2.351,4.993,6.653,10.225c0.401,0.487,0.899,1.006,1.531,0.998c1.169-0.013,1.483-1.615,1.381-2.78
			c-0.266-3.014-0.833-6-1.69-8.9c2.36,2.695,5.053,5.1,7.997,7.14c1.658,1.148,4.087,2.121,5.504,0.687
			c1.137-1.152,0.754-3.064,0.204-4.588C150.405,155.718,136.258,144.371,125.539,140.012"/>
	</g>
	<g>
		<path fill="#34130F" d="M187.384,140.543c-4.265-0.47-8.519-0.324-12.476,0.528c-0.924,0.199-1.764,0.76-2.213,1.592
			c-1.179,2.185,1.084,4.057,3.073,5.019c3.226,1.56,6.643,2.721,10.15,3.448c-2.947,0.682-5.826,1.657-8.579,2.908
			c-1.065,0.484-2.306,1.547-1.741,2.571c0.305,0.553,1.001,0.732,1.622,0.842c6.672,1.17,12.176,0.76,12.176,0.76
			s-11.11,6.909-9.729,9.354c0.659,1.165,5.939-0.441,12.105-3.584C202.769,158.377,199.65,141.896,187.384,140.543z"/>
	</g>
	<path fill="#C8B5AC" d="M124.488,138.322c0,0,5.193-5.849,14.715-8.183c9.521-2.335,15.09,2.488,15.09,2.488
		S141.756,144.396,124.488,138.322z"/>
	<path fill="#C8B5AC" d="M163.609,129.718c0,0,3.594-5.358,10.183-7.498c6.59-2.139,10.444,2.28,10.444,2.28
		S175.56,135.282,163.609,129.718z"/>
</g>
</svg>
