<?xml version="1.0" encoding="utf-8"?>
<!-- Generator: Adobe Illustrator 16.0.0, SVG Export Plug-In . SVG Version: 6.00 Build 0)  -->
<!DOCTYPE svg PUBLIC "-//W3C//DTD SVG 1.1//EN" "http://www.w3.org/Graphics/SVG/1.1/DTD/svg11.dtd">
<svg version="1.1" id="Layer_1" xmlns="http://www.w3.org/2000/svg" xmlns:xlink="http://www.w3.org/1999/xlink" x="0px" y="0px"
	 width="300px" height="300px" viewBox="0 0 300 300" enable-background="new 0 0 300 300" xml:space="preserve">
<g>
	<path fill="#34130F" d="M168.973,182.706h-37.962c0,0-0.58,8.385,3.919,16.78s5.868-4.015,5.868-4.015s0.677,2.92,4.217,9.308
		c1.611,2.906,3.395,4.494,5.153,4.57c1.726-0.076,3.477-1.664,5.058-4.57c3.476-6.388,4.14-9.308,4.14-9.308
		s1.344,12.41,5.76,4.015S168.973,182.706,168.973,182.706z"/>
	<path fill="#C8B5AC" d="M186.273,147.816c-3.35-9.365,0.426-14.743,0.426-14.743h-73.188c0,0,3.761,5.373,0.425,14.743
		c-5.577,15.668,2.986,39.408,36.062,39.408h0.213C183.287,187.225,191.225,161.654,186.273,147.816z"/>
	<g>
		<g>
			<path fill="#34130F" d="M119.292,92.997c-0.663-0.291-1.452-0.548-2.083-0.192c-0.626,0.354-0.819,1.206-0.633,1.901
				c0.187,0.694,0.665,1.268,1.129,1.817c0.544,0.643,1.087,1.285,1.631,1.928c-2.046-0.992-4.146-1.871-6.289-2.632
				c-1-0.355-2.553-0.361-2.647,0.695c-0.037,0.415,0.217,0.795,0.474,1.123c0.803,1.022,1.762,1.921,2.833,2.658
				c-2.312-1.002-4.976-1.166-7.393-0.454c-0.281,0.083-0.574,0.187-0.761,0.413c-0.519,0.629,0.145,1.539,0.804,2.019
				c3.304,2.408,7.512,3.195,11.59,3.484c6.547,0.463,13.173-0.195,19.5-1.939C133.857,102.555,125.422,95.683,119.292,92.997z"/>
		</g>
		<g>
			<path fill="#34130F" d="M180.689,92.997c0.664-0.291,1.452-0.548,2.083-0.192c0.626,0.354,0.819,1.206,0.632,1.901
				c-0.186,0.694-0.664,1.268-1.129,1.817c-0.543,0.643-1.087,1.285-1.631,1.928c2.046-0.992,4.146-1.871,6.289-2.632
				c0.998-0.355,2.553-0.361,2.646,0.695c0.037,0.415-0.217,0.795-0.474,1.123c-0.804,1.022-1.763,1.921-2.833,2.658
				c2.312-1.002,4.977-1.166,7.393-0.454c0.281,0.083,0.574,0.187,0.762,0.413c0.52,0.629-0.145,1.539-0.804,2.019
				c-3.304,2.408-7.512,3.195-11.591,3.484c-6.547,0.463-13.172-0.195-19.5-1.939C166.125,102.555,174.561,95.683,180.689,92.997z"
				/>
		</g>
	</g>
	<path fill="#632811" d="M193.645,151.266c-0.68-12.056-1.92-41.814-1.92-41.814s-18.678-10.16-41.74-10.185
		c-23.062,0.025-41.74,10.185-41.74,10.185s-1.158,28.072-1.91,41.814c-0.671,12.263,2.687,42.64,43.523,42.64h0.264
		C190.957,193.905,194.336,163.527,193.645,151.266z"/>
	<path fill="#C8B5AC" d="M190.506,161.827c-0.877-7.178-4.563-14.046-10.247-19.098h-60.535c-5.684,5.052-9.37,11.92-10.248,19.098
		c-0.223,1.821,0.106,4.206,2.057,4.678c2.552,0.617,6.56-2.228,6.56-2.228s-3.375,6.193-1.736,9.551
		c0.923,1.891,3.825,2.342,6.056,1.922c2.23-0.422,4.164-1.639,6.028-2.828c-0.579,1.281-1.165,2.586-1.303,3.965
		c-0.137,1.379,0.238,2.869,1.339,3.827c1.38,1.201,3.548,1.297,5.407,0.892c2.826-0.616,5.273-2.174,7.645-3.699
		c-1.108,3.064,2.473,10.516,8.295,10.516c5.823,0,9.739-7.451,8.631-10.516c2.372,1.525,4.819,3.083,7.646,3.699
		c1.858,0.405,4.026,0.31,5.406-0.892c1.102-0.958,1.477-2.448,1.339-3.827s-0.724-2.684-1.302-3.965
		c1.863,1.189,3.797,2.406,6.027,2.828c2.23,0.42,5.133-0.031,6.056-1.922c1.64-3.357-1.736-9.551-1.736-9.551
		s4.007,2.845,6.56,2.228C190.4,166.033,190.729,163.648,190.506,161.827z"/>
	<g>
		<polygon fill="#E2DAD6" points="149.999,175.324 149.991,175.323 149.984,175.324 		"/>
		<path fill="#E2DAD6" d="M192.449,144.566c-0.49-4.096-1.968-7.643-4.369-10.998h-76.178c-2.401,3.355-3.879,6.902-4.369,10.998
			c-0.175,1.467,0.189,3.055,1.383,3.924c1.99,1.447,6.748-2.499,6.748-2.499s-2.719,6.217-0.559,9.229
			c0.909,1.268,2.848,1.38,4.255,0.708c1.407-0.672,2.42-1.94,3.383-3.167c-0.351,1.748-0.704,3.525-0.554,5.302
			c0.15,1.776,0.875,3.585,2.306,4.649c1.521,1.13,3.631,1.242,5.43,0.648s3.329-1.812,4.662-3.159
			c-0.776,3.176-1.328,7.444,1.52,9.051c2.847,1.606,6.199-0.564,8.515-2.872c0,0-0.843,8.936,5.37,8.942
			c6.214-0.007,5.37-8.942,5.37-8.942c2.316,2.308,5.667,4.479,8.515,2.872s2.296-5.875,1.521-9.051
			c1.332,1.348,2.861,2.565,4.66,3.159c1.8,0.594,3.91,0.481,5.432-0.648c1.431-1.064,2.154-2.873,2.305-4.649
			s-0.203-3.554-0.554-5.302c0.963,1.227,1.976,2.495,3.384,3.167c1.406,0.672,3.346,0.56,4.254-0.708
			c2.16-3.012-0.559-9.229-0.559-9.229s4.758,3.946,6.747,2.499C192.26,147.622,192.624,146.033,192.449,144.566z"/>
	</g>
	<g>
		<g>
			<g>
				<g>
					<path fill="#C97029" d="M121.442,186.071c-1.101,2.202-1.06,4.938,0.107,7.104c0.527,0.982,1.538,1.94,2.615,1.652
						c0.551-0.148,0.969-0.596,1.296-1.064c1.469-2.106,1.595-5.069,0.312-7.294c-0.544-0.942-1.44-1.809-2.528-1.829
						C122.156,184.619,121.803,185.216,121.442,186.071"/>
				</g>
				<g>
					<path fill="#C97029" d="M125.776,186.199c-1.265,2.399-1.217,5.381,0.124,7.743c0.606,1.069,1.768,2.113,3.005,1.799
						c0.633-0.16,1.113-0.648,1.489-1.159c1.688-2.296,1.833-5.524,0.357-7.948c-0.625-1.027-1.654-1.971-2.905-1.993
						C126.597,184.617,126.191,185.267,125.776,186.199"/>
				</g>
				<g>
					<path fill="#C97029" d="M130.978,186.071c-1.101,2.202-1.06,4.938,0.107,7.104c0.528,0.982,1.538,1.94,2.615,1.652
						c0.552-0.148,0.97-0.596,1.296-1.064c1.469-2.106,1.596-5.069,0.312-7.294c-0.544-0.942-1.439-1.809-2.528-1.829
						C131.691,184.619,131.339,185.216,130.978,186.071"/>
				</g>
				<g>
					<path fill="#A75025" d="M126.3,191.83c-0.327,0.469-0.745,0.916-1.296,1.064c-1.077,0.287-2.088-0.67-2.615-1.652
						c-0.965-1.793-1.147-3.969-0.563-5.916c-0.144,0.213-0.265,0.463-0.383,0.745c-1.101,2.202-1.06,4.938,0.107,7.104
						c0.527,0.982,1.538,1.94,2.615,1.652c0.551-0.148,0.969-0.596,1.296-1.064c0.448-0.643,0.755-1.367,0.951-2.123
						C126.372,191.702,126.342,191.77,126.3,191.83z"/>
				</g>
				<g>
					<path fill="#A75025" d="M131.234,192.648c-0.376,0.51-0.856,0.998-1.489,1.158c-1.237,0.314-2.398-0.729-3.005-1.799
						c-1.104-1.945-1.316-4.307-0.656-6.421c-0.109,0.185-0.208,0.39-0.308,0.612c-1.265,2.399-1.217,5.381,0.124,7.743
						c0.606,1.069,1.768,2.113,3.005,1.799c0.633-0.16,1.113-0.648,1.489-1.159c0.524-0.713,0.881-1.521,1.105-2.361
						C131.411,192.362,131.334,192.512,131.234,192.648z"/>
				</g>
				<g>
					<path fill="#A75025" d="M135.835,191.83c-0.326,0.469-0.744,0.916-1.296,1.064c-1.077,0.287-2.087-0.67-2.615-1.652
						c-0.965-1.792-1.147-3.969-0.564-5.914c-0.144,0.212-0.264,0.461-0.383,0.743c-1.101,2.202-1.06,4.938,0.107,7.104
						c0.528,0.982,1.538,1.94,2.615,1.652c0.552-0.148,0.97-0.596,1.296-1.064c0.448-0.643,0.755-1.368,0.951-2.124
						C135.908,191.701,135.878,191.77,135.835,191.83z"/>
				</g>
			</g>
		</g>
		<g>
			<g>
				<g>
					<path fill="#C97029" d="M178.559,186.071c1.075,2.202,1.035,4.938-0.105,7.104c-0.516,0.982-1.502,1.94-2.555,1.652
						c-0.539-0.148-0.947-0.596-1.267-1.064c-1.435-2.106-1.558-5.069-0.304-7.294c0.531-0.942,1.406-1.809,2.47-1.829
						C177.861,184.619,178.206,185.216,178.559,186.071"/>
				</g>
				<g>
					<path fill="#C97029" d="M174.324,186.199c1.235,2.399,1.188,5.381-0.121,7.743c-0.593,1.069-1.728,2.113-2.937,1.799
						c-0.618-0.16-1.087-0.648-1.455-1.159c-1.648-2.296-1.79-5.524-0.349-7.948c0.61-1.027,1.615-1.971,2.838-1.993
						C173.522,184.617,173.918,185.267,174.324,186.199"/>
				</g>
				<g>
					<path fill="#C97029" d="M169.242,186.071c1.075,2.202,1.035,4.938-0.105,7.104c-0.516,0.982-1.502,1.94-2.555,1.652
						c-0.539-0.148-0.947-0.596-1.266-1.064c-1.436-2.106-1.56-5.069-0.305-7.294c0.531-0.942,1.406-1.809,2.471-1.829
						C168.545,184.619,168.889,185.216,169.242,186.071"/>
				</g>
				<g>
					<path fill="#A75025" d="M173.813,191.83c0.318,0.469,0.728,0.916,1.266,1.064c1.053,0.287,2.039-0.67,2.555-1.652
						c0.943-1.793,1.121-3.969,0.551-5.916c0.141,0.213,0.259,0.463,0.375,0.745c1.075,2.202,1.035,4.938-0.105,7.104
						c-0.516,0.982-1.502,1.94-2.555,1.652c-0.539-0.148-0.947-0.596-1.267-1.064c-0.437-0.643-0.737-1.367-0.929-2.123
						C173.742,191.702,173.771,191.77,173.813,191.83z"/>
				</g>
				<g>
					<path fill="#A75025" d="M168.992,192.648c0.367,0.51,0.836,0.998,1.455,1.158c1.208,0.314,2.343-0.729,2.936-1.799
						c1.078-1.945,1.286-4.307,0.641-6.421c0.107,0.185,0.203,0.39,0.301,0.612c1.235,2.399,1.188,5.381-0.121,7.743
						c-0.593,1.069-1.728,2.113-2.937,1.799c-0.618-0.16-1.087-0.648-1.455-1.159c-0.512-0.713-0.86-1.521-1.08-2.361
						C168.818,192.362,168.894,192.512,168.992,192.648z"/>
				</g>
				<g>
					<path fill="#A75025" d="M164.496,191.83c0.318,0.469,0.727,0.916,1.266,1.064c1.053,0.287,2.039-0.67,2.555-1.652
						c0.943-1.792,1.121-3.969,0.552-5.914c0.14,0.212,0.258,0.461,0.374,0.743c1.075,2.202,1.035,4.938-0.105,7.104
						c-0.516,0.982-1.502,1.94-2.555,1.652c-0.539-0.148-0.947-0.596-1.266-1.064c-0.438-0.643-0.738-1.368-0.93-2.124
						C164.426,191.701,164.455,191.77,164.496,191.83z"/>
				</g>
			</g>
		</g>
	</g>
	<g>
		<g>
			<path fill="#34130F" d="M113.065,134.575c-10.78-5.003-33.768,0.96-33.768,3.533s11.969,3.072,11.969,3.072
				s-4.572,2.153-9.362,6.092c-0.446,0.367-0.92,0.823-0.914,1.401c0.012,1.071,1.479,1.359,2.546,1.265
				c2.759-0.244,5.493-0.763,8.149-1.548c-2.468,2.161-4.668,4.625-6.537,7.323c-1.051,1.518-1.942,3.741-0.628,5.038
				c1.055,1.041,2.806,0.69,4.2,0.187C98.685,157.342,109.073,144.388,113.065,134.575"/>
		</g>
		<g>
			<path fill="#34130F" d="M186.918,134.575c10.779-5.003,33.768,0.96,33.768,3.533s-11.969,3.072-11.969,3.072
				s4.572,2.153,9.361,6.092c0.446,0.367,0.92,0.823,0.914,1.401c-0.012,1.071-1.479,1.359-2.547,1.265
				c-2.758-0.244-5.492-0.763-8.148-1.548c2.469,2.161,4.669,4.625,6.537,7.323c1.051,1.518,1.942,3.741,0.629,5.038
				c-1.055,1.041-2.807,0.69-4.2,0.187C201.298,157.342,190.909,144.388,186.918,134.575"/>
		</g>
	</g>
	<path fill="#C8B5AC" d="M161.875,106.298c-9.395,3.635-11.884,19.976-11.884,19.976s-2.49-16.341-11.884-19.976
		c-15.066-5.829-33.941,7.061-27.117,27.799c15.272,3.496,30.118,11.839,39,21.873c8.883-10.033,23.729-18.377,39.001-21.873
		C195.816,113.359,176.941,100.47,161.875,106.298z"/>
	<g>
		<g>
			<g>
				<path fill="#37140F" d="M155.688,122.511c0-8.03,7.443-14.541,15.473-14.541s15.262,6.51,15.262,14.541
					c0,6.833-8.506,15.554-16.516,14.986C162.448,136.968,155.688,130.541,155.688,122.511z"/>
				<circle fill="#FFFFFF" cx="171.056" cy="122.511" r="13.06"/>
				<circle fill="#010101" cx="171.104" cy="120.306" r="10.438"/>
				<circle fill="#FFFFFF" cx="172.527" cy="115.243" r="2.777"/>
				<circle fill="#FFFFFF" cx="176.692" cy="118.917" r="1.388"/>
			</g>
		</g>
		<g>
			<g>
				<path fill="#37140F" d="M113.56,122.511c0-8.03,7.442-14.541,15.471-14.541c8.03,0,15.263,6.51,15.263,14.541
					c0,6.833-8.507,15.554-16.516,14.986C120.32,136.968,113.56,130.541,113.56,122.511z"/>
				<circle fill="#FFFFFF" cx="128.927" cy="122.511" r="13.06"/>
				<circle fill="#010101" cx="128.976" cy="120.306" r="10.437"/>
				<circle fill="#FFFFFF" cx="130.399" cy="115.243" r="2.777"/>
				<circle fill="#FFFFFF" cx="134.564" cy="118.917" r="1.388"/>
			</g>
		</g>
	</g>
	<g>
		<path fill="#34130F" d="M155.419,103.723c-0.011,0.007-0.022,0.014-0.034,0.021c-1.124,0.704-2.006,1.725-2.871,2.73
			c0.385-1.56,0.773-3.176,0.494-4.758c-0.28-1.583-1.414-3.132-3.004-3.365h-0.024c-1.59,0.233-2.725,1.782-3.004,3.365
			s0.108,3.198,0.494,4.758c-0.865-1.006-1.748-2.027-2.872-2.73c-0.011-0.007-0.022-0.014-0.034-0.021
			c-1.9-1.171-4.273,0.578-3.899,2.778c0.417,2.451,1.816,4.851,3.177,7.013c1.318,2.096,2.636,4.191,3.955,6.287h4.392
			c1.318-2.095,2.636-4.191,3.954-6.287c1.36-2.162,2.761-4.562,3.177-7.013C159.692,104.3,157.319,102.552,155.419,103.723z"/>
	</g>
	<g>
		<g>
			<path fill="#A54324" d="M146.863,124.958c0,0,0.698,3.991,3.477,3.991s2.779-4.135,2.779-4.135L146.863,124.958z"/>
		</g>
		<g>
			<path fill="#C97029" d="M150.098,116.888c-1.856-0.014-3.967,5.94-4.134,8.695l8.051-0.185
				C154.109,124.981,151.955,116.902,150.098,116.888z"/>
		</g>
	</g>
</g>
</svg>
