<?xml version="1.0" encoding="utf-8"?>
<!-- Generator: Adobe Illustrator 16.0.0, SVG Export Plug-In . SVG Version: 6.00 Build 0)  -->
<!DOCTYPE svg PUBLIC "-//W3C//DTD SVG 1.1//EN" "http://www.w3.org/Graphics/SVG/1.1/DTD/svg11.dtd">
<svg version="1.1" id="Layer_1" xmlns="http://www.w3.org/2000/svg" xmlns:xlink="http://www.w3.org/1999/xlink" x="0px" y="0px"
	 width="300px" height="300px" viewBox="0 0 300 300" enable-background="new 0 0 300 300" xml:space="preserve">
<g>
	<path fill="#34130F" d="M138.582,192.345l-29.835-11.312c0,0-3.428,7.667-2.869,16.858c0.559,9.19,6.035-2.006,6.035-2.006
		s-0.503,2.933,0.014,9.96c0.235,3.198,1.074,5.215,2.43,5.809c1.383,0.444,3.322-0.519,5.595-2.766
		c4.996-4.938,6.553-7.47,6.553-7.47s-3.343,12.005,3.104,5.471S138.582,192.345,138.582,192.345z"/>
	<g>
		<path fill="#34130F" d="M184.275,139.881c11.16,4.085,23.197,24.557,21.379,26.375s-10.635-6.29-10.635-6.29
			s1.711,4.755,2.312,10.927c0.056,0.575,0.069,1.233-0.345,1.638c-0.766,0.748-2.007-0.086-2.695-0.906
			c-1.777-2.123-3.344-4.424-4.666-6.856c0.217,3.272,0.029,6.572-0.557,9.8c-0.329,1.816-1.271,4.02-3.118,4.007
			c-1.481-0.01-2.472-1.496-3.102-2.838C178.346,166.148,180.159,149.643,184.275,139.881"/>
	</g>
	<path fill="#C8B5AC" d="M178.869,146.896c-3.351-9.365,0.426-14.743,0.426-14.743h-73.188c0,0,3.761,5.373,0.425,14.743
		c-5.577,15.668,2.986,39.409,36.062,39.409h0.213C175.883,186.305,183.82,160.733,178.869,146.896z"/>
	<g>
		<path fill="#34130F" d="M151.206,86.75c0.761-0.333,1.665-0.629,2.389-0.22c0.718,0.406,0.94,1.384,0.726,2.18
			c-0.214,0.797-0.762,1.455-1.295,2.084c-0.623,0.737-1.248,1.474-1.871,2.211c2.347-1.138,4.756-2.146,7.213-3.019
			c1.146-0.408,2.929-0.414,3.037,0.797c0.041,0.476-0.249,0.912-0.545,1.288c-0.921,1.173-2.021,2.205-3.249,3.049
			c2.651-1.149,5.708-1.337,8.479-0.521c0.323,0.095,0.659,0.214,0.873,0.474c0.596,0.722-0.165,1.765-0.921,2.315
			c-3.79,2.762-8.616,3.665-13.294,3.996c-7.51,0.532-15.109-0.224-22.368-2.225C134.501,97.713,144.176,89.831,151.206,86.75z"/>
	</g>
	<g>
		<path fill="#34130F" d="M106.068,96.131c-0.663-0.291-1.452-0.548-2.083-0.192c-0.626,0.354-0.819,1.207-0.633,1.901
			c0.187,0.695,0.665,1.268,1.129,1.817c0.543,0.643,1.087,1.285,1.631,1.928c-2.046-0.991-4.146-1.871-6.289-2.632
			c-1-0.355-2.553-0.361-2.647,0.695c-0.037,0.415,0.217,0.795,0.474,1.123c0.803,1.022,1.762,1.922,2.833,2.658
			c-2.312-1.002-4.976-1.166-7.393-0.454c-0.281,0.083-0.575,0.187-0.761,0.413c-0.519,0.629,0.145,1.538,0.803,2.019
			c3.305,2.408,7.512,3.195,11.591,3.484c6.547,0.463,13.173-0.196,19.5-1.94C120.633,105.689,112.198,98.818,106.068,96.131z"/>
	</g>
	<path fill="#632811" d="M186.24,150.345c-0.68-12.057-1.92-41.815-1.92-41.815s-18.679-10.16-41.741-10.185
		c-23.062,0.025-41.741,10.185-41.741,10.185s-1.158,28.072-1.91,41.815c-0.671,12.262,2.687,42.639,43.523,42.639h0.264
		C183.553,192.984,186.932,162.606,186.24,150.345z"/>
	<g>
		<g>
			<g>
				<path fill="#C97029" d="M166.578,205.415c-0.547-3.157-2.119-6.129-5.079-7.604c-3.016-1.503-6.325-1.036-9.47-0.268
					c-0.084-0.102,0.102-0.365,0.538-1.249c0.612-1.239,1.435-2.298,2.368-3.31c2.616-2.833-1.616-7.087-4.243-4.242
					c-2.583,2.797-6.097,7.522-4.312,11.547c0.625,1.41,1.815,2.223,3.169,2.753c0.24,0.16,0.495,0.305,0.773,0.413
					c2.101,0.823,2.8,2.97,2.569,5.04c-0.181,1.612,1.508,3,3,3c0.778,0,1.408-0.277,1.896-0.714
					c1.489,0.908,3.955,0.644,4.833-1.493c0.024-0.061,0.042-0.121,0.065-0.182C164.552,209.51,167.018,207.958,166.578,205.415z"/>
				<path fill="#A75025" d="M154.244,203c-3.75-2.924-7.257-2.091-7.643-2.342c0.66,1.171,1.726,1.905,2.948,2.384
					c0.24,0.16,0.495,0.305,0.773,0.413c2.101,0.823,2.8,2.97,2.569,5.04c-0.181,1.612,1.508,3,3,3
					C156.059,211.495,157.608,205.624,154.244,203z"/>
				<path fill="#A75025" d="M160.676,211.09c1.445-7.956-4.414-9.542-4.414-9.542c4.478,3.3,1.525,9.233,1.525,9.233
					C158.6,211.276,159.697,211.406,160.676,211.09z"/>
				<path fill="#A75025" d="M165.625,208.247c-0.318-7.825-5.429-7.589-5.429-7.589c4.521,2.855,2.892,7.509,2.501,8.449
					C163.681,209.315,164.824,208.979,165.625,208.247z"/>
			</g>
			<g>
				<path fill="#C97029" d="M147.518,195.903c-4.963,2.477-6.606,8.709-3.676,13.373c2.049,3.262,7.243,0.254,5.181-3.028
					c-1.287-2.048-0.619-4.095,1.523-5.164C154.002,199.359,150.966,194.182,147.518,195.903L147.518,195.903z"/>
			</g>
			<path fill="#A75025" d="M149.023,206.248c-1.287-2.048-0.619-4.095,1.523-5.164c0,0-6.745,0.651-5.194,9.432
				C147.667,211.326,150.676,208.88,149.023,206.248z"/>
		</g>
		<g>
			<path fill="#632811" d="M159.41,183.461l-4.84-1.803c-1.217,0.991-6.833,5.48-7.912,6.618c-0.731,0.771-1.472,1.688-1.43,2.749
				c0.018,0.447,0.212,0.922,0.613,1.121c0.232,0.115,0.502,0.124,0.761,0.11c1.081-0.057,2.139-0.474,2.967-1.169
				c-0.484,0.995-0.747,2.097-0.764,3.203c-0.01,0.624,0.234,1.428,0.858,1.444c0.244,0.007,0.469-0.121,0.673-0.255
				c0.841-0.553,1.574-1.271,2.142-2.102c-0.18,1.288,1.038,2.496,2.337,2.566s2.522-0.783,3.19-1.898
				c0.67-1.116,0.866-2.452,0.9-3.752C158.932,189.365,159.537,184.381,159.41,183.461z"/>
		</g>
	</g>
	<g>
		<g>
			<g>
				<path fill="#C97029" d="M154.93,207.588c-0.547-3.157-2.118-6.129-5.079-7.604c-3.015-1.503-6.325-1.036-9.469-0.268
					c-0.084-0.102,0.101-0.366,0.537-1.249c0.613-1.239,1.435-2.298,2.369-3.31c2.616-2.833-1.617-7.087-4.243-4.242
					c-2.583,2.797-6.097,7.522-4.313,11.547c0.625,1.409,1.816,2.224,3.169,2.753c0.24,0.16,0.495,0.305,0.773,0.413
					c2.101,0.823,2.8,2.97,2.568,5.04c-0.18,1.612,1.508,3,3,3c0.779,0,1.409-0.277,1.896-0.714c1.49,0.908,3.956,0.644,4.833-1.493
					c0.025-0.061,0.043-0.121,0.066-0.182C152.904,211.683,155.37,210.131,154.93,207.588z"/>
				<path fill="#A75025" d="M142.596,205.173c-3.75-2.924-7.257-2.091-7.642-2.342c0.66,1.171,1.726,1.905,2.948,2.384
					c0.24,0.16,0.495,0.305,0.773,0.413c2.101,0.823,2.8,2.97,2.568,5.04c-0.18,1.612,1.508,3,3,3
					C144.411,213.668,145.96,207.797,142.596,205.173z"/>
				<path fill="#A75025" d="M149.027,213.263c1.446-7.956-4.413-9.542-4.413-9.542c4.478,3.3,1.525,9.233,1.525,9.233
					C146.951,213.449,148.05,213.579,149.027,213.263z"/>
				<path fill="#A75025" d="M153.977,210.42c-0.318-7.825-5.428-7.589-5.428-7.589c4.522,2.855,2.891,7.509,2.501,8.45
					C152.033,211.489,153.176,211.152,153.977,210.42z"/>
			</g>
		</g>
		<g>
			<path fill="#632811" d="M147.762,185.633l-4.84-1.801c-1.216,0.99-6.833,5.479-7.912,6.617c-0.731,0.771-1.472,1.688-1.43,2.749
				c0.018,0.447,0.212,0.922,0.613,1.121c0.232,0.115,0.502,0.124,0.761,0.11c1.08-0.057,2.139-0.474,2.967-1.169
				c-0.484,0.995-0.747,2.097-0.764,3.203c-0.01,0.624,0.234,1.428,0.857,1.444c0.244,0.007,0.47-0.121,0.674-0.255
				c0.841-0.553,1.573-1.271,2.142-2.102c-0.18,1.288,1.039,2.496,2.337,2.566s2.521-0.783,3.19-1.898
				c0.669-1.116,0.866-2.452,0.9-3.752C147.283,191.539,147.888,186.554,147.762,185.633z"/>
		</g>
		<g>
			<g>
				<path fill="#C97029" d="M135.87,198.076c-4.963,2.477-6.606,8.709-3.676,13.373c2.049,3.262,7.243,0.254,5.181-3.028
					c-1.286-2.048-0.619-4.095,1.524-5.164C142.354,201.532,139.318,196.354,135.87,198.076L135.87,198.076z"/>
			</g>
			<path fill="#A75025" d="M137.375,208.421c-1.287-2.048-0.619-4.095,1.523-5.164c0,0-6.744,0.651-5.194,9.432
				C136.019,213.499,139.028,211.053,137.375,208.421z"/>
		</g>
	</g>
	<path fill="#C8B5AC" d="M119.465,153.637c7.638,14.03-2.23,24.573,2.562,28.62c4.792,4.048,10.006-3.682,10.006-3.682
		s-3.775,8.219,1.545,9.227s10.465-6.136,10.465-6.136s-1.618,9.643,1.798,10.48s6.222-10.026,6.222-10.026s0.293,9.132,4.149,8.856
		s6.578-7.145,6.578-7.145s0.884,3.623,5.398,3.926c4.515,0.302,5.081-10.461,5.081-10.461s-0.414,5.905,4.041,4.369
		s9.837-23.346-2.625-38.073C162.223,128.865,119.465,153.637,119.465,153.637z"/>
	<path fill="#E2DAD6" d="M102.298,133.18c0,0,17.167,12.485,20.437,31.372c2.42,13.981,8.238,2.999,7.436-3.174
		c0,0,2.074,13.37,6.159,13.087c4.085-0.283,2.949-9.347,2.949-9.347s2.834,11.155,7.485,10.872c4.651-0.283,5.3-10.306,5.3-10.306
		s4.213,16.37,7.611,15.974c3.399-0.396,3.966-16.823,3.966-16.823s3.398,11.612,6.231,11.046
		c2.832-0.566,1.982-13.312,1.982-13.312s2.701,4.248,5.457,1.133c2.756-3.116-2.625-15.861-2.625-15.861s2.569,4.532,5.533,1.982
		c2.963-2.549-12.731-17.671-12.731-17.671L102.298,133.18z"/>
	<path fill="#C8B5AC" d="M117.875,105.831c6.033,3.138,6.47,18.283,6.47,18.283s1.4-21.824,15.625-23.305
		c23.669-2.464,26.218,8.226,27.517,31.343c0,0-17.386,10.21-23.075,21.484c-5.756-12.196-32.285-16.684-42.114-20.457
		C98.858,111.75,108.212,101.397,117.875,105.831z"/>
	<g>
		<path fill="#37140F" d="M103.308,122.025c0.028,7.336,3.863,12.824,7.976,12.328s7.817-6.146,7.817-12.563
			c0-5.461-4.386-12.858-8.515-12.771C106.742,109.13,103.28,114.689,103.308,122.025z"/>
		<path fill="#FFFFFF" d="M117.915,121.808c0.002,5.827-2.992,10.878-6.688,11.285c-3.695,0.406-6.71-4.557-6.733-11.084
			c-0.024-6.528,2.97-11.58,6.688-11.285C114.898,111.019,117.913,115.981,117.915,121.808z"/>
		<path fill="#010101" d="M116.593,123.63c0.003,4.711-2.388,8.787-5.342,9.102s-5.362-3.611-5.378-8.771
			c-0.017-5.159,2.375-9.234,5.342-9.102C114.182,114.992,116.59,118.918,116.593,123.63z"/>
		<path fill="#FFFFFF" d="M113.396,127.985c0.002,1.289-0.634,2.39-1.42,2.459c-0.786,0.069-1.426-0.946-1.429-2.267
			c-0.003-1.321,0.633-2.422,1.42-2.459C112.755,125.681,113.395,126.696,113.396,127.985z"/>
		<path fill="#FFFFFF" d="M114.818,124.837c0,0.637-0.318,1.169-0.711,1.189s-0.713-0.486-0.714-1.131s0.317-1.177,0.711-1.189
			C114.497,123.695,114.817,124.201,114.818,124.837z"/>
	</g>
	<g>
		<path fill="#37140F" d="M130.071,120.721c0.047,9.18,6.395,16.046,13.202,15.425c6.808-0.621,12.939-7.69,12.939-15.72
			c0-6.833-7.26-16.088-14.095-15.98C135.755,104.585,130.024,111.541,130.071,120.721z"/>
		<path fill="#FFFFFF" d="M154.25,120.448c0.002,7.291-4.953,13.612-11.07,14.12s-11.107-5.701-11.146-13.87
			c-0.039-8.167,4.917-14.489,11.07-14.12S154.246,113.158,154.25,120.448z"/>
		<path fill="#010101" d="M152.063,122.728c0.005,5.895-3.954,10.994-8.843,11.389c-4.889,0.395-8.875-4.519-8.903-10.975
			c-0.028-6.455,3.931-11.555,8.842-11.389C148.07,111.919,152.057,116.833,152.063,122.728z"/>
		<path fill="#FFFFFF" d="M146.771,128.177c0.003,1.613-1.049,2.991-2.351,3.078c-1.302,0.086-2.361-1.184-2.365-2.836
			c-0.005-1.653,1.047-3.031,2.351-3.077C145.708,125.294,146.767,126.564,146.771,128.177z"/>
		<path fill="#FFFFFF" d="M149.123,124.239c0.001,0.797-0.526,1.463-1.177,1.488c-0.651,0.025-1.181-0.608-1.183-1.415
			c-0.002-0.807,0.525-1.473,1.177-1.488C148.592,122.809,149.122,123.443,149.123,124.239z"/>
	</g>
	<g>
		<path fill="#34130F" d="M118.408,102.802c0.008,0.007,0.017,0.014,0.026,0.021c0.867,0.704,1.547,1.725,2.214,2.73
			c-0.297-1.56-0.596-3.176-0.381-4.758c0.216-1.583,1.09-3.132,2.316-3.364h0.019c1.226,0.232,2.101,1.782,2.316,3.364
			c0.216,1.583-0.083,3.198-0.38,4.758c0.667-1.006,1.347-2.027,2.214-2.73c0.009-0.007,0.018-0.014,0.026-0.021
			c1.465-1.171,3.295,0.578,3.007,2.778c-0.321,2.451-1.4,4.851-2.45,7.014c-1.016,2.095-2.033,4.191-3.049,6.286H120.9
			c-1.017-2.095-2.033-4.191-3.05-6.286c-1.049-2.163-2.128-4.563-2.449-7.014C115.112,103.379,116.942,101.631,118.408,102.802z"/>
	</g>
	<g>
		<g>
			<path fill="#A54324" d="M125.721,124.038c0,0-0.698,3.991-3.477,3.991c-2.779,0-2.779-4.135-2.779-4.135L125.721,124.038z"/>
		</g>
		<g>
			<path fill="#C97029" d="M121.66,115.967c1.856-0.014,4.23,3.684,4.134,8.695l-9.78-0.185
				C116.014,124.478,119.804,115.981,121.66,115.967z"/>
		</g>
	</g>
	<g>
		<path fill="#34130F" d="M112.217,142.531c-9.396,7.276-14.659,30.434-12.375,31.617c2.285,1.182,8.228-9.22,8.228-9.22
			s-0.188,5.05,1.11,11.113c0.121,0.565,0.309,1.196,0.825,1.456c0.957,0.481,1.887-0.689,2.293-1.681
			c1.051-2.562,1.845-5.229,2.368-7.948c0.786,3.185,1.964,6.271,3.501,9.169c0.865,1.632,2.431,3.444,4.187,2.873
			c1.409-0.458,1.902-2.175,2.095-3.645C125.833,165.763,119.1,150.584,112.217,142.531"/>
	</g>
</g>
</svg>
