<?xml version="1.0" encoding="UTF-8" standalone="no"?>
<svg
   xmlns:dc="http://purl.org/dc/elements/1.1/"
   xmlns:cc="http://creativecommons.org/ns#"
   xmlns:rdf="http://www.w3.org/1999/02/22-rdf-syntax-ns#"
   xmlns:svg="http://www.w3.org/2000/svg"
   xmlns="http://www.w3.org/2000/svg"
   version="1.1"
   id="Layer_1"
   x="0px"
   y="0px"
   width="113.69433"
   height="127.33701"
   viewBox="0 0 113.69433 127.33701"
   enable-background="new 0 0 300 300"
   xml:space="preserve"><metadata
   id="metadata125"><rdf:RDF><cc:Work
       rdf:about=""><dc:format>image/svg+xml</dc:format><dc:type
         rdf:resource="http://purl.org/dc/dcmitype/StillImage" /><dc:title></dc:title></cc:Work></rdf:RDF></metadata><defs
   id="defs123" />
<g
   id="g118"
   transform="translate(-92.142982,-86.330986)">
	<path
   fill="#34130f"
   d="m 138.582,192.345 -29.835,-11.312 c 0,0 -3.428,7.667 -2.869,16.858 0.559,9.19 6.035,-2.006 6.035,-2.006 0,0 -0.503,2.933 0.014,9.96 0.235,3.198 1.074,5.215 2.43,5.809 1.383,0.444 3.322,-0.519 5.595,-2.766 4.996,-4.938 6.553,-7.47 6.553,-7.47 0,0 -3.343,12.005 3.104,5.471 6.447,-6.534 8.973,-14.544 8.973,-14.544 z"
   id="path2" />
	<g
   id="g6">
		<path
   fill="#34130f"
   d="m 184.275,139.881 c 11.16,4.085 23.197,24.557 21.379,26.375 -1.818,1.818 -10.635,-6.29 -10.635,-6.29 0,0 1.711,4.755 2.312,10.927 0.056,0.575 0.069,1.233 -0.345,1.638 -0.766,0.748 -2.007,-0.086 -2.695,-0.906 -1.777,-2.123 -3.344,-4.424 -4.666,-6.856 0.217,3.272 0.029,6.572 -0.557,9.8 -0.329,1.816 -1.271,4.02 -3.118,4.007 -1.481,-0.01 -2.472,-1.496 -3.102,-2.838 -4.502,-9.59 -2.689,-26.095 1.427,-35.857"
   id="path4" />
	</g>
	<path
   fill="#c8b5ac"
   d="m 178.869,146.896 c -3.351,-9.365 0.426,-14.743 0.426,-14.743 h -73.188 c 0,0 3.761,5.373 0.425,14.743 -5.577,15.668 2.986,39.409 36.062,39.409 h 0.213 c 33.076,0 41.013,-25.572 36.062,-39.409 z"
   id="path8" />
	<g
   id="g12">
		<path
   fill="#34130f"
   d="m 151.206,86.75 c 0.761,-0.333 1.665,-0.629 2.389,-0.22 0.718,0.406 0.94,1.384 0.726,2.18 -0.214,0.797 -0.762,1.455 -1.295,2.084 -0.623,0.737 -1.248,1.474 -1.871,2.211 2.347,-1.138 4.756,-2.146 7.213,-3.019 1.146,-0.408 2.929,-0.414 3.037,0.797 0.041,0.476 -0.249,0.912 -0.545,1.288 -0.921,1.173 -2.021,2.205 -3.249,3.049 2.651,-1.149 5.708,-1.337 8.479,-0.521 0.323,0.095 0.659,0.214 0.873,0.474 0.596,0.722 -0.165,1.765 -0.921,2.315 -3.79,2.762 -8.616,3.665 -13.294,3.996 -7.51,0.532 -15.109,-0.224 -22.368,-2.225 4.121,-1.446 13.796,-9.328 20.826,-12.409 z"
   id="path10" />
	</g>
	<g
   id="g16">
		<path
   fill="#34130f"
   d="m 106.068,96.131 c -0.663,-0.291 -1.452,-0.548 -2.083,-0.192 -0.626,0.354 -0.819,1.207 -0.633,1.901 0.187,0.695 0.665,1.268 1.129,1.817 0.543,0.643 1.087,1.285 1.631,1.928 -2.046,-0.991 -4.146,-1.871 -6.289,-2.632 -1,-0.355 -2.553,-0.361 -2.647,0.695 -0.037,0.415 0.217,0.795 0.474,1.123 0.803,1.022 1.762,1.922 2.833,2.658 -2.312,-1.002 -4.976,-1.166 -7.393,-0.454 -0.281,0.083 -0.575,0.187 -0.761,0.413 -0.519,0.629 0.145,1.538 0.803,2.019 3.305,2.408 7.512,3.195 11.591,3.484 6.547,0.463 13.173,-0.196 19.5,-1.94 -3.59,-1.262 -12.025,-8.133 -18.155,-10.82 z"
   id="path14" />
	</g>
	<path
   fill="#632811"
   d="m 186.24,150.345 c -0.68,-12.057 -1.92,-41.815 -1.92,-41.815 0,0 -18.679,-10.16 -41.741,-10.185 -23.062,0.025 -41.741,10.185 -41.741,10.185 0,0 -1.158,28.072 -1.91,41.815 -0.671,12.262 2.687,42.639 43.523,42.639 h 0.264 c 40.838,0 44.217,-30.378 43.525,-42.639 z"
   id="path18" />
	<g
   id="g42">
		<g
   id="g36">
			<g
   id="g28">
				<path
   fill="#c97029"
   d="m 166.578,205.415 c -0.547,-3.157 -2.119,-6.129 -5.079,-7.604 -3.016,-1.503 -6.325,-1.036 -9.47,-0.268 -0.084,-0.102 0.102,-0.365 0.538,-1.249 0.612,-1.239 1.435,-2.298 2.368,-3.31 2.616,-2.833 -1.616,-7.087 -4.243,-4.242 -2.583,2.797 -6.097,7.522 -4.312,11.547 0.625,1.41 1.815,2.223 3.169,2.753 0.24,0.16 0.495,0.305 0.773,0.413 2.101,0.823 2.8,2.97 2.569,5.04 -0.181,1.612 1.508,3 3,3 0.778,0 1.408,-0.277 1.896,-0.714 1.489,0.908 3.955,0.644 4.833,-1.493 0.024,-0.061 0.042,-0.121 0.065,-0.182 1.867,0.404 4.333,-1.148 3.893,-3.691 z"
   id="path20" />
				<path
   fill="#a75025"
   d="m 154.244,203 c -3.75,-2.924 -7.257,-2.091 -7.643,-2.342 0.66,1.171 1.726,1.905 2.948,2.384 0.24,0.16 0.495,0.305 0.773,0.413 2.101,0.823 2.8,2.97 2.569,5.04 -0.181,1.612 1.508,3 3,3 0.168,0 1.717,-5.871 -1.647,-8.495 z"
   id="path22" />
				<path
   fill="#a75025"
   d="m 160.676,211.09 c 1.445,-7.956 -4.414,-9.542 -4.414,-9.542 4.478,3.3 1.525,9.233 1.525,9.233 0.813,0.495 1.91,0.625 2.889,0.309 z"
   id="path24" />
				<path
   fill="#a75025"
   d="m 165.625,208.247 c -0.318,-7.825 -5.429,-7.589 -5.429,-7.589 4.521,2.855 2.892,7.509 2.501,8.449 0.984,0.208 2.127,-0.128 2.928,-0.86 z"
   id="path26" />
			</g>
			<g
   id="g32">
				<path
   fill="#c97029"
   d="m 147.518,195.903 c -4.963,2.477 -6.606,8.709 -3.676,13.373 2.049,3.262 7.243,0.254 5.181,-3.028 -1.287,-2.048 -0.619,-4.095 1.523,-5.164 3.456,-1.725 0.42,-6.902 -3.028,-5.181 z"
   id="path30" />
			</g>
			<path
   fill="#a75025"
   d="m 149.023,206.248 c -1.287,-2.048 -0.619,-4.095 1.523,-5.164 0,0 -6.745,0.651 -5.194,9.432 2.315,0.81 5.324,-1.636 3.671,-4.268 z"
   id="path34" />
		</g>
		<g
   id="g40">
			<path
   fill="#632811"
   d="m 159.41,183.461 -4.84,-1.803 c -1.217,0.991 -6.833,5.48 -7.912,6.618 -0.731,0.771 -1.472,1.688 -1.43,2.749 0.018,0.447 0.212,0.922 0.613,1.121 0.232,0.115 0.502,0.124 0.761,0.11 1.081,-0.057 2.139,-0.474 2.967,-1.169 -0.484,0.995 -0.747,2.097 -0.764,3.203 -0.01,0.624 0.234,1.428 0.858,1.444 0.244,0.007 0.469,-0.121 0.673,-0.255 0.841,-0.553 1.574,-1.271 2.142,-2.102 -0.18,1.288 1.038,2.496 2.337,2.566 1.299,0.07 2.522,-0.783 3.19,-1.898 0.67,-1.116 0.866,-2.452 0.9,-3.752 0.027,-0.928 0.632,-5.912 0.505,-6.832 z"
   id="path38" />
		</g>
	</g>
	<g
   id="g68">
		<g
   id="g54">
			<g
   id="g52">
				<path
   fill="#c97029"
   d="m 154.93,207.588 c -0.547,-3.157 -2.118,-6.129 -5.079,-7.604 -3.015,-1.503 -6.325,-1.036 -9.469,-0.268 -0.084,-0.102 0.101,-0.366 0.537,-1.249 0.613,-1.239 1.435,-2.298 2.369,-3.31 2.616,-2.833 -1.617,-7.087 -4.243,-4.242 -2.583,2.797 -6.097,7.522 -4.313,11.547 0.625,1.409 1.816,2.224 3.169,2.753 0.24,0.16 0.495,0.305 0.773,0.413 2.101,0.823 2.8,2.97 2.568,5.04 -0.18,1.612 1.508,3 3,3 0.779,0 1.409,-0.277 1.896,-0.714 1.49,0.908 3.956,0.644 4.833,-1.493 0.025,-0.061 0.043,-0.121 0.066,-0.182 1.867,0.404 4.333,-1.148 3.893,-3.691 z"
   id="path44" />
				<path
   fill="#a75025"
   d="m 142.596,205.173 c -3.75,-2.924 -7.257,-2.091 -7.642,-2.342 0.66,1.171 1.726,1.905 2.948,2.384 0.24,0.16 0.495,0.305 0.773,0.413 2.101,0.823 2.8,2.97 2.568,5.04 -0.18,1.612 1.508,3 3,3 0.168,0 1.717,-5.871 -1.647,-8.495 z"
   id="path46" />
				<path
   fill="#a75025"
   d="m 149.027,213.263 c 1.446,-7.956 -4.413,-9.542 -4.413,-9.542 4.478,3.3 1.525,9.233 1.525,9.233 0.812,0.495 1.911,0.625 2.888,0.309 z"
   id="path48" />
				<path
   fill="#a75025"
   d="m 153.977,210.42 c -0.318,-7.825 -5.428,-7.589 -5.428,-7.589 4.522,2.855 2.891,7.509 2.501,8.45 0.983,0.208 2.126,-0.129 2.927,-0.861 z"
   id="path50" />
			</g>
		</g>
		<g
   id="g58">
			<path
   fill="#632811"
   d="m 147.762,185.633 -4.84,-1.801 c -1.216,0.99 -6.833,5.479 -7.912,6.617 -0.731,0.771 -1.472,1.688 -1.43,2.749 0.018,0.447 0.212,0.922 0.613,1.121 0.232,0.115 0.502,0.124 0.761,0.11 1.08,-0.057 2.139,-0.474 2.967,-1.169 -0.484,0.995 -0.747,2.097 -0.764,3.203 -0.01,0.624 0.234,1.428 0.857,1.444 0.244,0.007 0.47,-0.121 0.674,-0.255 0.841,-0.553 1.573,-1.271 2.142,-2.102 -0.18,1.288 1.039,2.496 2.337,2.566 1.298,0.07 2.521,-0.783 3.19,-1.898 0.669,-1.116 0.866,-2.452 0.9,-3.752 0.026,-0.927 0.631,-5.912 0.505,-6.833 z"
   id="path56" />
		</g>
		<g
   id="g66">
			<g
   id="g62">
				<path
   fill="#c97029"
   d="m 135.87,198.076 c -4.963,2.477 -5.31707,5.65391 -2.38707,10.31791 2.049,-0.14328 3.47959,-1.11379 3.47959,-0.56023 -1.286,-2.048 -0.20652,-3.50768 1.93648,-4.57668 3.455,-1.725 0.419,-6.903 -3.029,-5.181 z"
   id="path60" />
			</g>
			<path
   fill="#a75025"
   d="m 136.96252,207.8337 c -0.8627,-1.92517 -0.20652,-3.5077 1.93548,-4.5767 0,0 -6.96507,-3.64409 -5.41507,5.13691 2.11175,-0.39074 1.76647,-0.28642 2.31306,-0.3662 0.4216,-0.0615 -0.25266,0.18949 1.16653,-0.19403 z"
   id="path64" />
		</g>
	</g>
	<path
   fill="#c8b5ac"
   d="m 119.465,153.637 c 7.638,14.03 -2.23,24.573 2.562,28.62 4.792,4.048 10.006,-3.682 10.006,-3.682 0,0 -3.775,8.219 1.545,9.227 5.32,1.008 10.465,-6.136 10.465,-6.136 0,0 -1.618,9.643 1.798,10.48 3.416,0.837 6.222,-10.026 6.222,-10.026 0,0 0.293,9.132 4.149,8.856 3.856,-0.276 6.578,-7.145 6.578,-7.145 0,0 0.884,3.623 5.398,3.926 4.515,0.302 5.081,-10.461 5.081,-10.461 0,0 -0.414,5.905 4.041,4.369 4.455,-1.536 9.837,-23.346 -2.625,-38.073 -12.462,-14.727 -55.22,10.045 -55.22,10.045 z"
   id="path70" />
	<path
   fill="#e2dad6"
   d="m 102.298,133.18 c 0,0 17.167,12.485 20.437,31.372 2.42,13.981 8.238,2.999 7.436,-3.174 0,0 2.074,13.37 6.159,13.087 4.085,-0.283 2.949,-9.347 2.949,-9.347 0,0 2.834,11.155 7.485,10.872 4.651,-0.283 5.3,-10.306 5.3,-10.306 0,0 4.213,16.37 7.611,15.974 3.399,-0.396 3.966,-16.823 3.966,-16.823 0,0 3.398,11.612 6.231,11.046 2.832,-0.566 1.982,-13.312 1.982,-13.312 0,0 2.701,4.248 5.457,1.133 2.756,-3.116 -2.625,-15.861 -2.625,-15.861 0,0 2.569,4.532 5.533,1.982 2.963,-2.549 -12.731,-17.671 -12.731,-17.671 z"
   id="path72" />
	<path
   fill="#c8b5ac"
   d="m 117.875,105.831 c 6.033,3.138 6.47,18.283 6.47,18.283 0,0 1.4,-21.824 15.625,-23.305 23.669,-2.464 26.218,8.226 27.517,31.343 0,0 -17.386,10.21 -23.075,21.484 -5.756,-12.196 -32.285,-16.684 -42.114,-20.457 -3.44,-21.429 5.914,-31.782 15.577,-27.348 z"
   id="path74" />
	<g
   id="g86">
		<path
   fill="#37140f"
   d="m 103.308,122.025 c 0.028,7.336 3.863,12.824 7.976,12.328 4.113,-0.496 7.817,-6.146 7.817,-12.563 0,-5.461 -4.386,-12.858 -8.515,-12.771 -3.844,0.111 -7.306,5.67 -7.278,13.006 z"
   id="path76" />
		<path
   fill="#ffffff"
   d="m 117.915,121.808 c 0.002,5.827 -2.992,10.878 -6.688,11.285 -3.695,0.406 -6.71,-4.557 -6.733,-11.084 -0.024,-6.528 2.97,-11.58 6.688,-11.285 3.716,0.295 6.731,5.257 6.733,11.084 z"
   id="path78" />
		<path
   fill="#010101"
   d="m 116.593,123.63 c 0.003,4.711 -2.388,8.787 -5.342,9.102 -2.954,0.315 -5.362,-3.611 -5.378,-8.771 -0.017,-5.159 2.375,-9.234 5.342,-9.102 2.967,0.133 5.375,4.059 5.378,8.771 z"
   id="path80" />
		<path
   fill="#ffffff"
   d="m 113.396,127.985 c 0.002,1.289 -0.634,2.39 -1.42,2.459 -0.786,0.069 -1.426,-0.946 -1.429,-2.267 -0.003,-1.321 0.633,-2.422 1.42,-2.459 0.788,-0.037 1.428,0.978 1.429,2.267 z"
   id="path82" />
		<path
   fill="#ffffff"
   d="m 114.818,124.837 c 0,0.637 -0.318,1.169 -0.711,1.189 -0.393,0.02 -0.713,-0.486 -0.714,-1.131 -0.001,-0.645 0.317,-1.177 0.711,-1.189 0.393,-0.011 0.713,0.495 0.714,1.131 z"
   id="path84" />
	</g>
	<g
   id="g98">
		<path
   fill="#37140f"
   d="m 130.071,120.721 c 0.047,9.18 6.395,16.046 13.202,15.425 6.808,-0.621 12.939,-7.69 12.939,-15.72 0,-6.833 -7.26,-16.088 -14.095,-15.98 -6.362,0.139 -12.093,7.095 -12.046,16.275 z"
   id="path88" />
		<path
   fill="#ffffff"
   d="m 154.25,120.448 c 0.002,7.291 -4.953,13.612 -11.07,14.12 -6.117,0.508 -11.107,-5.701 -11.146,-13.87 -0.039,-8.167 4.917,-14.489 11.07,-14.12 6.153,0.369 11.142,6.58 11.146,13.87 z"
   id="path90" />
		<path
   fill="#010101"
   d="m 152.063,122.728 c 0.005,5.895 -3.954,10.994 -8.843,11.389 -4.889,0.395 -8.875,-4.519 -8.903,-10.975 -0.028,-6.455 3.931,-11.555 8.842,-11.389 4.911,0.166 8.898,5.08 8.904,10.975 z"
   id="path92" />
		<path
   fill="#ffffff"
   d="m 146.771,128.177 c 0.003,1.613 -1.049,2.991 -2.351,3.078 -1.302,0.086 -2.361,-1.184 -2.365,-2.836 -0.005,-1.653 1.047,-3.031 2.351,-3.077 1.302,-0.048 2.361,1.222 2.365,2.835 z"
   id="path94" />
		<path
   fill="#ffffff"
   d="m 149.123,124.239 c 0.001,0.797 -0.526,1.463 -1.177,1.488 -0.651,0.025 -1.181,-0.608 -1.183,-1.415 -0.002,-0.807 0.525,-1.473 1.177,-1.488 0.652,-0.015 1.182,0.619 1.183,1.415 z"
   id="path96" />
	</g>
	<g
   id="g102">
		<path
   fill="#34130f"
   d="m 118.408,102.802 c 0.008,0.007 0.017,0.014 0.026,0.021 0.867,0.704 1.547,1.725 2.214,2.73 -0.297,-1.56 -0.596,-3.176 -0.381,-4.758 0.216,-1.583 1.09,-3.132 2.316,-3.364 h 0.019 c 1.226,0.232 2.101,1.782 2.316,3.364 0.216,1.583 -0.083,3.198 -0.38,4.758 0.667,-1.006 1.347,-2.027 2.214,-2.73 0.009,-0.007 0.018,-0.014 0.026,-0.021 1.465,-1.171 3.295,0.578 3.007,2.778 -0.321,2.451 -1.4,4.851 -2.45,7.014 -1.016,2.095 -2.033,4.191 -3.049,6.286 H 120.9 c -1.017,-2.095 -2.033,-4.191 -3.05,-6.286 -1.049,-2.163 -2.128,-4.563 -2.449,-7.014 -0.289,-2.201 1.541,-3.949 3.007,-2.778 z"
   id="path100" />
	</g>
	<g
   id="g112">
		<g
   id="g106">
			<path
   fill="#a54324"
   d="m 125.721,124.038 c 0,0 -0.698,3.991 -3.477,3.991 -2.779,0 -2.779,-4.135 -2.779,-4.135 z"
   id="path104" />
		</g>
		<g
   id="g110">
			<path
   fill="#c97029"
   d="m 121.66,115.967 c 1.856,-0.014 4.23,3.684 4.134,8.695 l -9.78,-0.185 c 0,10e-4 3.79,-8.496 5.646,-8.51 z"
   id="path108" />
		</g>
	</g>
	<g
   id="g116">
		<path
   fill="#34130f"
   d="m 112.217,142.531 c -9.396,7.276 -14.659,30.434 -12.375,31.617 2.285,1.182 8.228,-9.22 8.228,-9.22 0,0 -0.188,5.05 1.11,11.113 0.121,0.565 0.309,1.196 0.825,1.456 0.957,0.481 1.887,-0.689 2.293,-1.681 1.051,-2.562 1.845,-5.229 2.368,-7.948 0.786,3.185 1.964,6.271 3.501,9.169 0.865,1.632 2.431,3.444 4.187,2.873 1.409,-0.458 1.902,-2.175 2.095,-3.645 1.384,-10.502 -5.349,-25.681 -12.232,-33.734"
   id="path114" />
	</g>
</g>
</svg>
