<?xml version="1.0" encoding="utf-8"?>
<!-- Generator: Adobe Illustrator 16.0.0, SVG Export Plug-In . SVG Version: 6.00 Build 0)  -->
<!DOCTYPE svg PUBLIC "-//W3C//DTD SVG 1.1//EN" "http://www.w3.org/Graphics/SVG/1.1/DTD/svg11.dtd">
<svg version="1.1" id="Layer_1" xmlns="http://www.w3.org/2000/svg" xmlns:xlink="http://www.w3.org/1999/xlink" x="0px" y="0px"
	 width="300px" height="300px" viewBox="0 0 300 300" enable-background="new 0 0 300 300" xml:space="preserve">
<g>
	<g>
		<path fill="#34130F" d="M168.641,87.947c-0.759-0.4-1.669-0.776-2.452-0.434c-0.778,0.34-1.092,1.294-0.939,2.107
			c0.153,0.813,0.663,1.517,1.159,2.192c0.582,0.79,1.164,1.581,1.745,2.371c-2.329-1.344-4.734-2.565-7.2-3.655
			c-1.15-0.509-2.994-0.676-3.21,0.522c-0.085,0.47,0.178,0.931,0.451,1.332c0.852,1.251,1.899,2.377,3.098,3.33
			c-2.644-1.383-5.789-1.844-8.728-1.28c-0.342,0.065-0.699,0.155-0.943,0.394c-0.679,0.666,0.019,1.773,0.753,2.39
			c3.682,3.092,8.597,4.425,13.407,5.174c7.722,1.204,15.648,1.132,23.329-0.209C184.974,100.368,175.646,91.647,168.641,87.947z"/>
	</g>
	<g>
		<path fill="#34130F" d="M215.584,98.71c0.688-0.291,1.508-0.548,2.162-0.192c0.65,0.354,0.851,1.207,0.657,1.901
			c-0.194,0.694-0.69,1.268-1.173,1.817c-0.564,0.643-1.129,1.285-1.693,1.928c2.124-0.992,4.305-1.871,6.529-2.632
			c1.038-0.355,2.651-0.361,2.749,0.695c0.038,0.415-0.225,0.795-0.492,1.123c-0.834,1.022-1.83,1.921-2.941,2.658
			c2.399-1.002,5.167-1.166,7.676-0.454c0.292,0.083,0.597,0.187,0.791,0.413c0.539,0.629-0.15,1.539-0.835,2.019
			c-3.431,2.408-7.8,3.195-12.034,3.484c-6.799,0.463-13.678-0.195-20.248-1.939C200.461,108.269,209.22,101.396,215.584,98.71z"/>
	</g>
	<g>
		<path fill="#34130F" d="M119.358,162.712c-9.469,3.843-20.009,5.004-30.088,3.315c-1.342-0.225-2.732-0.524-3.791-1.379
			s-1.659-2.428-1.006-3.62c0.832-1.519,3.292-3.788,3.292-3.788s-10.209-4.124-14.681-7.366c-3.986-2.891-4.129-5.666-3.637-7.016
			c0.491-1.351,2.384-3.385,7.296-3.037c5.509,0.391,15.98,3.794,15.98,3.794s-0.426-3.32-0.087-5.018
			c0.266-1.334,1.737-2.152,3.098-2.126c1.359,0.025,2.618,0.689,3.791,1.38c8.806,5.185,16.134,12.85,20.917,21.88"/>
	</g>
	<g>
		<g>
			<g>
				<path fill="#C97029" d="M105.13,212.039c2.63-1.83,4.659-4.51,4.745-7.817c0.088-3.368-1.734-6.17-3.759-8.695
					c0.057-0.118,0.374-0.063,1.359-0.04c1.382,0.031,2.688,0.328,4,0.748c3.674,1.173,5.739-4.46,2.052-5.639
					c-3.627-1.159-9.395-2.347-12.288,0.972c-1.013,1.162-1.247,2.585-1.155,4.036c-0.044,0.285-0.066,0.577-0.048,0.875
					c0.142,2.252-1.508,3.793-3.481,4.458c-1.538,0.519-2.082,2.635-1.451,3.986c0.329,0.706,0.847,1.159,1.448,1.416
					c-0.194,1.734,1.088,3.857,3.395,3.75c0.065-0.003,0.129-0.013,0.193-0.018C100.563,211.933,103.011,213.513,105.13,212.039z"/>
				<path fill="#A75025" d="M102.105,199.84c1.066-4.634-1.172-7.461-1.107-7.916c-0.782,1.093-0.997,2.37-0.914,3.68
					c-0.044,0.285-0.066,0.577-0.048,0.875c0.142,2.252-1.508,3.793-3.481,4.458c-1.538,0.519-2.082,2.635-1.451,3.986
					C95.174,205.075,101.149,203.998,102.105,199.84z"/>
				<path fill="#A75025" d="M97.492,209.088c7.821-2.053,6.783-8.033,6.783-8.033c-1.099,5.453-7.724,5.284-7.724,5.284
					C96.445,207.285,96.793,208.335,97.492,209.088z"/>
				<path fill="#A75025" d="M102.16,212.372c6.957-3.596,4.583-8.127,4.583-8.127c-0.677,5.305-5.583,5.794-6.6,5.838
					C100.37,211.062,101.158,211.956,102.16,212.372z"/>
			</g>
			<g>
				<path fill="#C97029" d="M105.695,190.745c-4.343-3.451-10.685-2.308-13.674,2.32c-2.09,3.235,2.831,6.671,4.935,3.415
					c1.312-2.031,3.449-2.291,5.324-0.802C105.303,198.081,108.713,193.143,105.695,190.745L105.695,190.745z"/>
			</g>
			<path fill="#A75025" d="M96.956,196.48c1.312-2.031,3.449-2.291,5.324-0.802c0,0-3.441-5.837-10.743-0.721
				C91.78,197.398,95.27,199.091,96.956,196.48z"/>
		</g>
		<g>
			<path fill="#632811" d="M121.998,196.264l-0.412-5.147c-1.412-0.684-7.854-3.876-9.342-4.374
				c-1.008-0.336-2.151-0.62-3.096-0.134c-0.397,0.204-0.746,0.582-0.757,1.028c-0.007,0.26,0.1,0.508,0.221,0.736
				c0.508,0.956,1.333,1.738,2.313,2.195c-1.105-0.018-2.216,0.21-3.225,0.662c-0.57,0.255-1.195,0.815-0.947,1.388
				c0.097,0.224,0.309,0.374,0.517,0.502c0.855,0.529,1.816,0.89,2.809,1.054c-1.243,0.381-1.822,1.995-1.338,3.202
				c0.485,1.207,1.775,1.955,3.069,2.09s2.588-0.251,3.781-0.77C116.443,198.326,121.217,196.768,121.998,196.264z"/>
		</g>
	</g>
	<path fill="#C8B5AC" d="M151.564,199.998c9.365-3.351,14.743,0.426,14.743,0.426v-73.188c0,0-5.372,3.761-14.743,0.425
		c-15.668-5.577-39.408,2.987-39.408,36.062v0.214C112.156,197.012,137.727,204.948,151.564,199.998z"/>
	<path fill="#632811" d="M130.911,152.083c0.752-13.743,1.909-41.815,1.909-41.815s18.679-10.16,41.741-10.185
		c23.062,0.025,41.74,10.185,41.74,10.185s1.24,29.758,1.92,41.815c0,0,0.897,55.286-70.106,55.286
		c-12.281,0-42.64-2.688-42.64-43.523v-0.264c0-40.836,30.377-44.195,42.64-43.524"/>
	<g>
		<g>
			<path fill="#34130F" d="M137.349,128.616c-4.085-11.16-24.557-23.198-26.375-21.379c-1.819,1.818,6.29,10.635,6.29,10.635
				s-4.755-1.711-10.927-2.312c-0.575-0.056-1.233-0.069-1.638,0.345c-0.748,0.766,0.085,2.007,0.906,2.694
				c2.123,1.779,4.423,3.345,6.856,4.667c-3.273-0.217-6.572-0.03-9.8,0.556c-1.816,0.33-4.02,1.272-4.007,3.119
				c0.01,1.482,1.495,2.472,2.837,3.102C111.082,134.546,127.587,132.732,137.349,128.616"/>
		</g>
	</g>
	<g>
		<g>
			<path fill="#C97029" d="M93.191,176.345c-4.343-3.451-10.685-2.307-13.674,2.32c-2.09,3.235,2.831,6.672,4.935,3.416
				c1.312-2.031,3.449-2.292,5.323-0.802C92.799,183.682,96.209,178.742,93.191,176.345L93.191,176.345z"/>
		</g>
		<path fill="#A75025" d="M84.452,182.081c1.312-2.031,3.449-2.292,5.323-0.802c0,0-3.44-5.838-10.742-0.722
			C79.276,182.998,82.766,184.691,84.452,182.081z"/>
	</g>
	<g>
		<g>
			<g>
				<path fill="#C97029" d="M93.616,190.079c2.63-1.829,4.659-4.51,4.746-7.816c0.087-3.368-1.734-6.171-3.759-8.695
					c0.056-0.119,0.373-0.063,1.358-0.041c1.383,0.031,2.688,0.329,4,0.748c3.674,1.174,5.74-4.46,2.053-5.639
					c-3.628-1.159-9.395-2.346-12.289,0.973c-1.013,1.161-1.247,2.585-1.155,4.035c-0.043,0.285-0.066,0.577-0.048,0.875
					c0.143,2.253-1.508,3.793-3.481,4.458c-1.538,0.519-2.082,2.635-1.451,3.987c0.329,0.705,0.847,1.159,1.448,1.415
					c-0.194,1.734,1.089,3.857,3.396,3.75c0.065-0.003,0.128-0.013,0.192-0.017C89.049,189.974,91.498,191.553,93.616,190.079z"/>
				<path fill="#A75025" d="M90.593,177.88c1.065-4.634-1.173-7.461-1.108-7.916c-0.781,1.094-0.996,2.37-0.914,3.68
					c-0.043,0.285-0.066,0.577-0.048,0.875c0.143,2.253-1.508,3.793-3.481,4.458c-1.538,0.519-2.082,2.635-1.451,3.987
					C83.66,183.115,89.636,182.038,90.593,177.88z"/>
				<path fill="#A75025" d="M85.979,187.128c7.822-2.053,6.783-8.032,6.783-8.032c-1.099,5.452-7.724,5.283-7.724,5.283
					C84.933,185.325,85.279,186.375,85.979,187.128z"/>
				<path fill="#A75025" d="M90.646,190.412c6.958-3.596,4.584-8.127,4.584-8.127c-0.677,5.305-5.583,5.794-6.601,5.838
					C88.856,189.102,89.645,189.996,90.646,190.412z"/>
			</g>
		</g>
		<g>
			<path fill="#632811" d="M110.484,174.305l-0.412-5.148c-1.411-0.684-7.854-3.876-9.342-4.373
				c-1.007-0.337-2.151-0.621-3.096-0.135c-0.397,0.205-0.746,0.582-0.757,1.029c-0.007,0.259,0.1,0.507,0.221,0.736
				c0.509,0.955,1.334,1.738,2.314,2.195c-1.106-0.019-2.216,0.209-3.226,0.661c-0.569,0.255-1.195,0.815-0.947,1.388
				c0.097,0.225,0.309,0.374,0.517,0.503c0.856,0.528,1.816,0.889,2.81,1.053c-1.244,0.381-1.823,1.996-1.338,3.203
				c0.484,1.206,1.775,1.954,3.068,2.089c1.294,0.135,2.589-0.251,3.781-0.77C104.931,176.366,109.704,174.808,110.484,174.305z"/>
		</g>
	</g>
	<path fill="#C8B5AC" d="M216.725,164.57c-0.663-7.605-3.445-14.883-7.736-20.235h-45.697c-4.291,5.353-7.073,12.63-7.735,20.235
		c-0.169,1.93,0.08,4.456,1.553,4.956c1.927,0.653,4.951-2.36,4.951-2.36s-2.548,6.563-1.311,10.119
		c0.697,2.004,2.888,2.482,4.571,2.036s3.144-1.736,4.551-2.996c-0.438,1.357-0.879,2.74-0.983,4.201
		c-0.104,1.462,0.18,3.04,1.011,4.055c1.042,1.272,2.678,1.374,4.081,0.944c2.134-0.652,3.981-2.303,5.771-3.919
		c-0.837,3.246,1.866,11.142,6.262,11.142s7.353-7.896,6.516-11.142c1.79,1.616,3.638,3.267,5.771,3.919
		c1.403,0.43,3.039,0.328,4.081-0.944c0.831-1.015,1.115-2.593,1.011-4.055c-0.104-1.461-0.546-2.844-0.983-4.201
		c1.407,1.26,2.867,2.55,4.551,2.996s3.875-0.032,4.571-2.036c1.237-3.557-1.311-10.119-1.311-10.119s3.024,3.014,4.952,2.36
		C216.644,169.026,216.893,166.5,216.725,164.57z"/>
	<g>
		<polygon fill="#E2DAD6" points="186.146,178.87 186.14,178.869 186.135,178.87 		"/>
		<path fill="#E2DAD6" d="M218.19,146.282c-0.369-4.34-1.485-8.098-3.298-11.653h-57.506c-1.813,3.555-2.929,7.313-3.298,11.653
			c-0.133,1.554,0.143,3.237,1.044,4.158c1.503,1.533,5.094-2.647,5.094-2.647s-2.053,6.586-0.422,9.778
			c0.686,1.343,2.149,1.462,3.212,0.75c1.062-0.712,1.827-2.056,2.554-3.355c-0.265,1.854-0.531,3.735-0.418,5.617
			c0.113,1.883,0.66,3.8,1.74,4.926c1.148,1.198,2.741,1.317,4.1,0.688c1.358-0.629,2.513-1.919,3.519-3.347
			c-0.586,3.364-1.002,7.888,1.147,9.59c2.149,1.701,4.68-0.599,6.428-3.043c0,0-0.637,9.466,4.054,9.474
			c4.69-0.008,4.054-9.474,4.054-9.474c1.748,2.444,4.278,4.744,6.428,3.043c2.149-1.702,1.733-6.226,1.147-9.59
			c1.006,1.428,2.161,2.718,3.519,3.347c1.358,0.63,2.951,0.511,4.1-0.688c1.08-1.126,1.627-3.043,1.74-4.926
			c0.113-1.882-0.153-3.764-0.418-5.617c0.727,1.3,1.492,2.644,2.554,3.355c1.063,0.712,2.526,0.593,3.212-0.75
			c1.631-3.191-0.422-9.778-0.422-9.778s3.592,4.18,5.094,2.647C218.048,149.519,218.323,147.836,218.19,146.282z"/>
	</g>
	<path fill="#C8B5AC" d="M202.18,109.425c-6.903,3.635-7.468,17.527-7.468,17.527s-2.02-20.448-14.48-21.557
		c-12.464-1.109-28.106,9.747-23.092,30.484c11.224,3.496,22.134,11.839,28.661,21.872c6.528-10.033,17.438-18.376,28.661-21.872
		C219.478,115.142,213.252,103.596,202.18,109.425z"/>
	<g>
		<path fill="#37140F" d="M214.735,125.87c-0.029,7.336-4.011,12.824-8.28,12.328c-4.271-0.496-8.117-6.146-8.117-12.563
			c0-5.461,4.555-12.858,8.842-12.771C211.17,112.975,214.766,118.534,214.735,125.87z"/>
		<path fill="#FFFFFF" d="M199.569,125.652c-0.002,5.827,3.106,10.879,6.943,11.285s6.968-4.557,6.992-11.084
			s-3.085-11.58-6.944-11.284S199.571,119.826,199.569,125.652z"/>
		<path fill="#010101" d="M200.941,127.475c-0.003,4.711,2.48,8.787,5.547,9.102s5.566-3.611,5.585-8.771
			c0.018-5.159-2.466-9.234-5.547-9.102S200.944,122.764,200.941,127.475z"/>
		<path fill="#FFFFFF" d="M204.261,131.83c-0.002,1.289,0.658,2.391,1.475,2.459c0.816,0.069,1.48-0.946,1.483-2.267
			s-0.657-2.422-1.475-2.459S204.263,130.541,204.261,131.83z"/>
		<path fill="#FFFFFF" d="M202.785,128.683c-0.001,0.637,0.33,1.169,0.738,1.189c0.409,0.02,0.741-0.486,0.742-1.131
			c0.001-0.645-0.33-1.177-0.739-1.189C203.118,127.54,202.786,128.046,202.785,128.683z"/>
	</g>
	<g>
		<path fill="#37140F" d="M186.947,124.565c-0.049,9.18-6.64,16.046-13.708,15.426c-7.068-0.621-13.436-7.69-13.436-15.72
			c0-6.833,7.539-16.089,14.635-15.98C181.045,108.43,186.996,115.386,186.947,124.565z"/>
		<path fill="#FFFFFF" d="M161.842,124.293c-0.004,7.291,5.143,13.612,11.494,14.12c6.352,0.508,11.533-5.701,11.573-13.869
			c0.041-8.168-5.105-14.489-11.494-14.12C167.026,110.793,161.845,117.002,161.842,124.293z"/>
		<path fill="#010101" d="M164.113,126.573c-0.006,5.895,4.105,10.994,9.182,11.389s9.215-4.519,9.244-10.974
			c0.029-6.456-4.081-11.555-9.182-11.389C168.258,115.765,164.119,120.678,164.113,126.573z"/>
		<path fill="#FFFFFF" d="M169.607,132.022c-0.003,1.613,1.09,2.991,2.441,3.078s2.451-1.184,2.456-2.836s-1.088-3.03-2.441-3.077
			C170.711,129.139,169.611,130.409,169.607,132.022z"/>
		<path fill="#FFFFFF" d="M167.165,128.084c-0.001,0.797,0.546,1.463,1.223,1.488c0.677,0.025,1.227-0.608,1.228-1.415
			c0.002-0.807-0.545-1.473-1.223-1.488C167.716,126.654,167.166,127.288,167.165,128.084z"/>
	</g>
	<g>
		<path fill="#34130F" d="M199.058,106.646c-0.009,0.007-0.018,0.014-0.027,0.021c-0.899,0.704-1.606,1.725-2.299,2.73
			c0.309-1.56,0.619-3.176,0.396-4.758c-0.224-1.582-1.133-3.132-2.405-3.364h-0.02c-1.273,0.232-2.182,1.782-2.405,3.364
			c-0.224,1.583,0.087,3.198,0.396,4.758c-0.692-1.005-1.399-2.027-2.3-2.73c-0.009-0.007-0.018-0.014-0.026-0.021
			c-1.521-1.17-3.422,0.578-3.122,2.778c0.333,2.452,1.454,4.851,2.543,7.014c1.056,2.095,2.111,4.191,3.167,6.287h3.516
			c1.056-2.096,2.111-4.191,3.167-6.287c1.089-2.163,2.209-4.562,2.543-7.014C202.479,107.225,200.579,105.476,199.058,106.646z"/>
	</g>
	<g>
		<g>
			<path fill="#A54324" d="M191.464,127.882c0,0,0.726,3.991,3.61,3.991s2.885-4.135,2.885-4.135L191.464,127.882z"/>
		</g>
		<g>
			<path fill="#C97029" d="M195.681,119.812c-1.928-0.014-4.393,3.684-4.292,8.695l10.154-0.185
				C201.543,128.323,197.608,119.826,195.681,119.812z"/>
		</g>
	</g>
</g>
</svg>
