<?xml version="1.0" encoding="UTF-8" standalone="no"?>
<svg
   xmlns:dc="http://purl.org/dc/elements/1.1/"
   xmlns:cc="http://creativecommons.org/ns#"
   xmlns:rdf="http://www.w3.org/1999/02/22-rdf-syntax-ns#"
   xmlns:svg="http://www.w3.org/2000/svg"
   xmlns="http://www.w3.org/2000/svg"
   height="245.93655"
   viewBox="0 0 26.000004 27.86"
   width="229.51727"
   version="1.1"
   id="svg27">
  <metadata
     id="metadata33">
    <rdf:RDF>
      <cc:Work
         rdf:about="">
        <dc:format>image/svg+xml</dc:format>
        <dc:type
           rdf:resource="http://purl.org/dc/dcmitype/StillImage" />
        <dc:title></dc:title>
      </cc:Work>
    </rdf:RDF>
  </metadata>
  <defs
     id="defs31" />
  <g
     id="Page-1"
     fill="none"
     fill-rule="evenodd"
     transform="translate(-15.999998,-0.07)">
    <g
       id="006---AR-Phone-Projection"
       fill-rule="nonzero">
      <path
         id="path9"
         d="m 42,7.3 v 13.4 c 5e-4,0.183227 -0.09926,0.352051 -0.26,0.44 L 30,27.46 29.24,27.87 c -0.15,0.08 -0.33,0.08 -0.48,0 L 28,27.46 16.26,21.14 C 16.09926,21.052051 15.9995,20.883227 16,20.7 V 7.3 c -5e-4,-0.183227 0.09926,-0.3520514 0.26,-0.44 l 0.79,-0.43 11.71,-6.3 c 0.15,-0.08 0.33,-0.08 0.48,0 l 11.71,6.3 0.79,0.43 C 41.90074,6.947949 42.0005,7.116773 42,7.3 Z"
         fill="#ff5364" />
      <g
         fill="#df4d60"
         id="g19">
        <path
           id="path11"
           d="M 32.526,10.969 29,12.865 l -3.526,-1.9 c -0.486563,-0.261783 -1.093217,-0.07956 -1.355,0.407 -0.261783,0.486563 -0.07956,1.093217 0.407,1.355 L 28,14.6 V 17 c 0,0.552285 0.447715,1 1,1 0.552285,0 1,-0.447715 1,-1 v -2.4 l 3.474,-1.867 c 0.486563,-0.261783 0.668783,-0.868437 0.407,-1.355 -0.261783,-0.486563 -0.868437,-0.668783 -1.355,-0.407 z" />
        <path
           id="path13"
           d="M 20.88,9.62 C 20.756666,9.8547102 20.544423,10.03021 20.290723,10.107259 20.037024,10.184308 19.763029,10.156482 19.53,10.03 L 16,8.13 V 7.3 c -5e-4,-0.183227 0.09926,-0.3520514 0.26,-0.44 l 0.79,-0.43 3.42,1.84 c 0.484928,0.260462 0.66818,0.8638534 0.41,1.35 z" />
        <path
           id="path15"
           d="m 42,7.3 v 0.84 l -3.53,1.89 C 37.990426,10.24528 37.426048,10.0525 37.178397,9.5888108 36.930746,9.125124 37.084382,8.548857 37.53,8.27 l 3.42,-1.84 0.79,0.43 C 41.90074,6.947949 42.0005,7.116773 42,7.3 Z" />
        <path
           id="path17"
           d="m 30,23 v 4.46 l -0.76,0.41 c -0.15,0.08 -0.33,0.08 -0.48,0 L 28,27.46 V 23 c 0,-0.552285 0.447715,-1 1,-1 0.552285,0 1,0.447715 1,1 z" />
      </g>
    </g>
  </g>
</svg>
