<svg id="Capa_1" enable-background="new 0 0 512 512" height="512" viewBox="0 0 512 512" width="512" xmlns="http://www.w3.org/2000/svg"><g><g><path d="m16.735 289.882h5.133l9.29-9.29 9.29-34.133-9.29-42.556h-14.423c-9.243 0-16.735 7.492-16.735 16.735v43.219c0 9.242 3.39 26.025 16.735 26.025z" fill="#454d58"/><path d="m0 263.857v18.581c0 9.242 7.492 16.734 16.735 16.734h14.423v-18.581h-14.423c-9.243 0-16.735-7.492-16.735-16.734z" fill="#3c434c"/><path d="m51.827 315.336h34.341l-8.618-137.755h-25.723c-11.415 0-20.669 9.254-20.669 20.669v87.128c0 11.415 9.254 29.958 20.669 29.958z" fill="#dad8db"/><path d="m51.827 306.046c-11.415 0-20.669-9.254-20.669-20.669v18.581c0 11.415 9.254 20.669 20.669 20.669h14.319l10.009-9.27-8.568-9.311z" fill="#c8c5c9"/><path d="m495.265 289.882h-5.133l-9.29-9.29-9.29-34.133 9.29-42.556h14.423c9.242 0 16.735 7.492 16.735 16.735v43.219c0 9.242-3.39 26.025-16.735 26.025z" fill="#454d58"/><path d="m512 263.857v18.581c0 9.242-7.492 16.734-16.735 16.734h-14.423v-18.581h14.423c9.243 0 16.735-7.492 16.735-16.734z" fill="#3c434c"/><path d="m460.173 315.336h-34.341l8.618-137.755h25.723c11.415 0 20.669 9.254 20.669 20.669v87.128c0 11.415-9.254 29.958-20.669 29.958z" fill="#dad8db"/><path d="m460.173 306.046c11.415 0 20.669-9.254 20.669-20.669v18.581c0 11.415-9.254 20.669-20.669 20.669h-14.319l-10.009-9.27 8.568-9.311z" fill="#c8c5c9"/><path d="m66.598 318.796c0 17.565 19.326 40.989 38.562 40.989h59.518c52.347 0 59.992-59.919 91.322-59.919s38.975 59.919 91.322 59.919h59.518c19.236 0 38.561-23.132 38.561-40.989l-10.946-141.142c-1.52-19.6-17.868-34.729-37.527-34.729h-281.857c-19.659 0-36.007 15.129-37.527 34.729z" fill="#bed8fb"/><path d="m445.402 318.796c-3.518 17.936-19.326 31.699-38.561 31.699h-59.518c-52.347 0-59.992-50.629-91.322-50.629s-38.975 50.629-91.322 50.629h-59.519c-19.236 0-35.043-13.763-38.562-31.699l-.616 7.946c-1.771 22.831 16.278 42.334 39.178 42.334h59.518c52.347 0 59.992-50.629 91.322-50.629s38.975 50.629 91.322 50.629h59.518c22.9 0 40.948-19.503 39.178-42.334z" fill="#a3caf7"/></g><g><path d="m290.852 191.49c4.284 0 7.757-3.473 7.757-7.757 0-4.285-3.473-7.757-7.757-7.757h-69.705c-4.284 0-7.757 3.473-7.757 7.757 0 4.285 3.473 7.757 7.757 7.757z" fill="#454d58"/></g></g></svg>