<?xml version="1.0" encoding="UTF-8" standalone="no"?>
<svg
   xmlns:dc="http://purl.org/dc/elements/1.1/"
   xmlns:cc="http://creativecommons.org/ns#"
   xmlns:rdf="http://www.w3.org/1999/02/22-rdf-syntax-ns#"
   xmlns:svg="http://www.w3.org/2000/svg"
   xmlns="http://www.w3.org/2000/svg"
   height="353.21359"
   viewBox="0 0 58.001099 40.012477"
   width="512.0097"
   version="1.1"
   id="svg27">
  <metadata
     id="metadata33">
    <rdf:RDF>
      <cc:Work
         rdf:about="">
        <dc:format>image/svg+xml</dc:format>
        <dc:type
           rdf:resource="http://purl.org/dc/dcmitype/StillImage" />
        <dc:title></dc:title>
      </cc:Work>
    </rdf:RDF>
  </metadata>
  <defs
     id="defs31" />
  <g
     id="Page-1"
     fill="none"
     fill-rule="evenodd"
     transform="translate(0,-17.987523)">
    <g
       id="006---AR-Phone-Projection"
       fill-rule="nonzero">
      <path
         id="Shape"
         d="m 0,52 v 4 c 0,1.104569 0.8954305,2 2,2 h 54 c 1.104569,0 2,-0.895431 2,-2 v -4 z"
         fill="#2980ba" />
      <path
         id="path3"
         d="m 58,52 c -0.01568,0.546424 -0.247909,1.064208 -0.645538,1.43933 C 56.956833,53.814451 56.42641,54.016147 55.88,54 H 2.12 C 1.3744973,54.03994 0.66913672,53.660086 0.29217544,53.015672 -0.08478584,52.371258 -0.07018928,51.570252 0.33,50.94 L 7.64,39.88 C 8.44784,38.693379 9.7945437,37.988141 11.23,38 H 16 l 5,7 h 16 l 5,-7 h 4.77 c 1.435456,-0.01186 2.78216,0.693379 3.59,1.88 C 58.27,51.85 58,51.2 58,52 Z"
         fill="#b0d3f0" />
      <path
         id="path5"
         d="m 58,52 c -0.01568,0.546424 -0.247909,1.064208 -0.645538,1.43933 C 56.956833,53.814451 56.42641,54.016147 55.88,54 H 17.16 c 2.131316,-3.445342 4.848948,-6.491256 8.03,-9 H 37 l 5,-7 h 4.77 c 1.435456,-0.01186 2.78216,0.693379 3.59,1.88 C 58.27,51.85 58,51.2 58,52 Z"
         fill="#90bae1" />
      <path
         id="path7"
         d="M 37,46 H 21 c -0.337577,-4.5e-5 -0.652346,-0.170403 -0.837,-0.453 l -17,-26 C 2.9611329,19.247937 2.9360266,18.863319 3.097303,18.540552 3.2585794,18.217784 3.581226,18.006927 3.9415868,17.988791 4.3019476,17.970656 4.6441334,18.148055 4.837,18.453 L 21.541,44 h 14.918 l 16.7,-25.547 c 0.192867,-0.304945 0.535052,-0.482344 0.895413,-0.464209 0.360361,0.01814 0.683008,0.228993 0.844284,0.551761 0.161277,0.322767 0.13617,0.707385 -0.0657,1.006448 l -17,26 C 37.649123,45.828412 37.336157,45.998609 37,46 Z"
         fill="#f9eab0" />
      <g
         fill="#df4d60"
         id="g19" />
      <path
         id="path21"
         d="m 58,52 c -0.01568,0.546424 -0.247909,1.064208 -0.645538,1.43933 C 56.956833,53.814451 56.42641,54.016147 55.88,54 H 52 L 50.11,49.69 H 50 L 47.08,49.2 c -0.731201,-0.121245 -1.335393,-0.636925 -1.57,-1.34 l -1.07,-3.21 c -0.320186,-0.946067 0.106669,-1.983323 1,-2.43 l 1.06,-0.53 h 0.11 L 45,38 h 1.77 c 1.435456,-0.01186 2.78216,0.693379 3.59,1.88 C 58.27,51.85 58,51.2 58,52 Z"
         fill="#3b97d3" />
      <path
         id="path23"
         d="M 14,37.999853 7,54 H 2.12 C 1.3744973,54.03994 0.66913672,53.660086 0.29217544,53.015672 -0.08478584,52.371258 -0.07018928,51.570252 0.33,50.94 L 7.64,39.88 C 8.44784,38.693379 9.7945437,37.988141 11.23,38 Z"
         fill="#3b97d3" />
    </g>
  </g>
</svg>
