<?xml version="1.0" encoding="utf-8"?>
<!-- Generator: Adobe Illustrator 16.0.0, SVG Export Plug-In . SVG Version: 6.00 Build 0)  -->
<!DOCTYPE svg PUBLIC "-//W3C//DTD SVG 1.1//EN" "http://www.w3.org/Graphics/SVG/1.1/DTD/svg11.dtd">
<svg version="1.1" id="Layer_1" xmlns="http://www.w3.org/2000/svg" xmlns:xlink="http://www.w3.org/1999/xlink" x="0px" y="0px"
	 width="400px" height="400px" viewBox="0 0 400 400" enable-background="new 0 0 400 400" xml:space="preserve">
<path fill="#FFFFFF" d="M141.768,364.218c45.96-18.275,66.465-51.214,75.522-74.829c0-0.045,0.003-0.09,0.003-0.136
	c0-22.805-18.486-41.292-41.291-41.292s-41.291,18.487-41.291,41.292c0,0.979,0.048,1.944,0.118,2.905
	c2.163-0.758,4.439-1.365,6.811-1.796c8.568-1.554,16.799-0.526,23.325,2.402c-6.056-1.319-12.802-1.483-19.734-0.227
	c-10.409,1.888-19.306,6.618-25.38,12.785c-4.916,6.262-7.855,14.15-7.855,22.729C111.995,345.985,124.804,360.909,141.768,364.218z
	"/>
<path fill="#F1F3FA" d="M141.768,364.218c1.32,0.257,2.662,0.453,4.028,0.565c0.384,0.041,0.773,0.066,1.163,0.088
	c0.006,0.001,0.011,0.001,0.017,0.001c0.433,0.024,0.863,0.059,1.303,0.059h106.96c1.369,0.272,2.782,0.418,4.231,0.418
	c11.892,0,21.53-9.64,21.53-21.53c0-11.89-9.639-21.529-21.53-21.529c-0.11,0-0.217,0.015-0.326,0.017
	c0.006-0.204,0.03-0.402,0.03-0.607c0-11.404-9.243-20.647-20.646-20.647c-4.323,0-8.333,1.333-11.649,3.605
	c-1.648-5.038-5.172-9.227-9.758-11.723c0.104-1.17,0.164-2.351,0.169-3.545C208.232,313.004,187.728,345.942,141.768,364.218z"/>
</svg>
