<?xml version="1.0" encoding="UTF-8" standalone="no"?>
<svg
   xmlns:dc="http://purl.org/dc/elements/1.1/"
   xmlns:cc="http://creativecommons.org/ns#"
   xmlns:rdf="http://www.w3.org/1999/02/22-rdf-syntax-ns#"
   xmlns:svg="http://www.w3.org/2000/svg"
   xmlns="http://www.w3.org/2000/svg"
   xmlns:sodipodi="http://sodipodi.sourceforge.net/DTD/sodipodi-0.dtd"
   xmlns:inkscape="http://www.inkscape.org/namespaces/inkscape"
   version="1.1"
   id="Layer_1"
   x="0px"
   y="0px"
   width="169.004"
   height="117.388"
   viewBox="0 0 169.00399 117.388"
   enable-background="new 0 0 400 400"
   xml:space="preserve"
   sodipodi:docname="Cloud-1.svg"
   inkscape:version="1.0.2 (e86c870879, 2021-01-15)"><metadata
   id="metadata11"><rdf:RDF><cc:Work
       rdf:about=""><dc:format>image/svg+xml</dc:format><dc:type
         rdf:resource="http://purl.org/dc/dcmitype/StillImage" /><dc:title></dc:title></cc:Work></rdf:RDF></metadata><defs
   id="defs9" /><sodipodi:namedview
   pagecolor="#ffffff"
   bordercolor="#666666"
   borderopacity="1"
   objecttolerance="10"
   gridtolerance="10"
   guidetolerance="10"
   inkscape:pageopacity="0"
   inkscape:pageshadow="2"
   inkscape:window-width="1434"
   inkscape:window-height="1178"
   id="namedview7"
   showgrid="false"
   fit-margin-top="0"
   fit-margin-left="0"
   fit-margin-right="0"
   fit-margin-bottom="0"
   inkscape:zoom="1.7819091"
   inkscape:cx="-41.868196"
   inkscape:cy="111.96657"
   inkscape:window-x="2329"
   inkscape:window-y="209"
   inkscape:window-maximized="0"
   inkscape:current-layer="Layer_1" />
<path
   fill="#ffffff"
   d="m 29.772,116.257 c 45.96,-18.275 66.465,-51.214 75.522,-74.829 0,-0.045 0.003,-0.09 0.003,-0.136 C 105.297,18.487 86.811,0 64.006,0 41.201,0 22.715,18.487 22.715,41.292 c 0,0.979 0.048,1.944 0.118,2.905 2.163,-0.758 4.439,-1.365 6.811,-1.796 8.568,-1.554 16.799,-0.526 23.325,2.402 C 46.913,43.484 40.167,43.32 33.235,44.576 22.826,46.464 13.929,51.194 7.8550001,57.361 2.9390001,63.623 5.8548522e-8,71.511 5.8548522e-8,80.09 -9.9994145e-4,98.024 12.808,112.948 29.772,116.257 Z"
   id="path2" />
<path
   fill="#f1f3fa"
   d="m 29.772,116.257 c 1.32,0.257 2.662,0.453 4.028,0.565 0.384,0.041 0.773,0.066 1.163,0.088 0.006,0.001 0.011,0.001 0.017,0.001 0.433,0.024 0.863,0.059 1.303,0.059 h 106.96 c 1.369,0.272 2.782,0.418 4.231,0.418 11.892,0 21.53,-9.64 21.53,-21.53 0,-11.89 -9.639,-21.529 -21.53,-21.529 -0.11,0 -0.217,0.015 -0.326,0.017 0.006,-0.204 0.03,-0.402 0.03,-0.607 0,-11.404 -9.243,-20.647 -20.646,-20.647 -4.323,0 -8.333,1.333 -11.649,3.605 -1.648,-5.038 -5.172,-9.227 -9.758,-11.723 0.104,-1.17 0.164,-2.351 0.169,-3.545 -9.058,23.614 -29.562,56.552 -75.522,74.828 z"
   id="path4" />
</svg>
