<?xml version="1.0" encoding="UTF-8" standalone="no"?>
<svg
   xmlns:dc="http://purl.org/dc/elements/1.1/"
   xmlns:cc="http://creativecommons.org/ns#"
   xmlns:rdf="http://www.w3.org/1999/02/22-rdf-syntax-ns#"
   xmlns:svg="http://www.w3.org/2000/svg"
   xmlns="http://www.w3.org/2000/svg"
   xmlns:sodipodi="http://sodipodi.sourceforge.net/DTD/sodipodi-0.dtd"
   xmlns:inkscape="http://www.inkscape.org/namespaces/inkscape"
   version="1.1"
   id="Layer_1"
   x="0px"
   y="0px"
   width="171.507"
   height="108.592"
   viewBox="0 0 171.507 108.592"
   enable-background="new 0 0 400 400"
   xml:space="preserve"
   sodipodi:docname="Cloud-2.svg"
   inkscape:version="1.0.2 (e86c870879, 2021-01-15)"><metadata
   id="metadata11"><rdf:RDF><cc:Work
       rdf:about=""><dc:format>image/svg+xml</dc:format><dc:type
         rdf:resource="http://purl.org/dc/dcmitype/StillImage" /><dc:title></dc:title></cc:Work></rdf:RDF></metadata><defs
   id="defs9" /><sodipodi:namedview
   pagecolor="#ffffff"
   bordercolor="#666666"
   borderopacity="1"
   objecttolerance="10"
   gridtolerance="10"
   guidetolerance="10"
   inkscape:pageopacity="0"
   inkscape:pageshadow="2"
   inkscape:window-width="1411"
   inkscape:window-height="959"
   id="namedview7"
   showgrid="false"
   fit-margin-top="0"
   fit-margin-left="0"
   fit-margin-right="0"
   fit-margin-bottom="0"
   inkscape:zoom="1.7819091"
   inkscape:cx="45.332237"
   inkscape:cy="55.927964"
   inkscape:window-x="2878"
   inkscape:window-y="260"
   inkscape:window-maximized="0"
   inkscape:current-layer="Layer_1" />
<path
   fill="#ffffff"
   d="m 31.453,103.586 c 4.574,0 8.915,-0.983 12.835,-2.74 0.269,0.225 0.557,0.427 0.835,0.64 C 115.492,75.714 126.373,14.587 127.765,3.712 122.925,1.337 117.484,0 111.73,0 96.714,0 83.846,9.09 78.258,22.056 c 0.957,0.773 1.851,1.618 2.659,2.54 -0.948,-0.668 -1.948,-1.269 -2.988,-1.806 -0.003,0.007 -0.007,0.014 -0.01,0.021 -0.172,-0.101 -0.353,-0.189 -0.528,-0.286 -2.648,-1.292 -5.559,-2.155 -8.662,-2.46 -10.018,-0.984 -19.251,3.971 -24.231,12.002 0.716,-2.18 1.777,-4.187 3.096,-5.982 -3.213,-1.765 -6.897,-2.776 -10.821,-2.776 -11.711,0 -21.332,8.935 -22.426,20.359 3.337,-1.191 6.82,-1.666 10.211,-1.407 C 20.635,42.878 16.76,44.304 13.186,46.55 5.21,52.255 0,61.58 0,72.134 c 0,17.37 14.082,31.452 31.453,31.452 z"
   id="path2" />
<path
   fill="#f1f3fa"
   d="m 45.123,101.485 c 4.026,3.073 9.041,4.916 14.497,4.916 5.44,0 10.454,-1.815 14.475,-4.874 4.336,4.363 10.342,7.065 16.979,7.065 6.586,0 12.549,-2.659 16.878,-6.965 5.036,3.03 10.931,4.775 17.235,4.775 14.238,0 26.393,-8.89 31.236,-21.419 8.836,-3.522 15.084,-12.149 15.084,-22.241 0,-13.042 -10.429,-23.641 -23.4,-23.93 0.05,-0.779 0.084,-1.563 0.084,-2.354 0,-14.382 -8.33,-26.814 -20.426,-32.749 -1.392,10.877 -12.273,72.004 -82.642,97.776 z"
   id="path4" />
</svg>
