<?xml version="1.0" encoding="utf-8"?>
<!-- Generator: Adobe Illustrator 16.0.0, SVG Export Plug-In . SVG Version: 6.00 Build 0)  -->
<!DOCTYPE svg PUBLIC "-//W3C//DTD SVG 1.1//EN" "http://www.w3.org/Graphics/SVG/1.1/DTD/svg11.dtd">
<svg version="1.1" id="Layer_1" xmlns="http://www.w3.org/2000/svg" xmlns:xlink="http://www.w3.org/1999/xlink" x="0px" y="0px"
	 width="400px" height="400px" viewBox="0 0 400 400" enable-background="new 0 0 400 400" xml:space="preserve">
<path fill="#FFFFFF" d="M145.85,248.973c4.574,0,8.915-0.983,12.835-2.74c0.269,0.225,0.557,0.427,0.835,0.64
	c70.369-25.772,81.25-86.899,82.642-97.774c-4.84-2.375-10.281-3.712-16.035-3.712c-15.016,0-27.884,9.09-33.472,22.056
	c0.957,0.773,1.851,1.618,2.659,2.54c-0.948-0.668-1.948-1.269-2.988-1.806c-0.003,0.007-0.007,0.014-0.01,0.021
	c-0.172-0.101-0.353-0.189-0.528-0.286c-2.648-1.292-5.559-2.155-8.662-2.46c-10.018-0.984-19.251,3.971-24.231,12.002
	c0.716-2.18,1.777-4.187,3.096-5.982c-3.213-1.765-6.897-2.776-10.821-2.776c-11.711,0-21.332,8.935-22.426,20.359
	c3.337-1.191,6.82-1.666,10.211-1.407c-3.923,0.617-7.798,2.043-11.372,4.289c-7.976,5.705-13.186,15.03-13.186,25.584
	C114.397,234.891,128.479,248.973,145.85,248.973z"/>
<path fill="#F1F3FA" d="M159.52,246.872c4.026,3.073,9.041,4.916,14.497,4.916c5.44,0,10.454-1.815,14.475-4.874
	c4.336,4.363,10.342,7.065,16.979,7.065c6.586,0,12.549-2.659,16.878-6.965c5.036,3.03,10.931,4.775,17.235,4.775
	c14.238,0,26.393-8.89,31.236-21.419c8.836-3.522,15.084-12.149,15.084-22.241c0-13.042-10.429-23.641-23.4-23.93
	c0.05-0.779,0.084-1.563,0.084-2.354c0-14.382-8.33-26.814-20.426-32.749C240.77,159.973,229.889,221.1,159.52,246.872z"/>
</svg>
