<?xml version="1.0" encoding="utf-8"?>
<!-- Generator: Adobe Illustrator 16.0.0, SVG Export Plug-In . SVG Version: 6.00 Build 0)  -->
<!DOCTYPE svg PUBLIC "-//W3C//DTD SVG 1.1//EN" "http://www.w3.org/Graphics/SVG/1.1/DTD/svg11.dtd">
<svg version="1.1" id="Layer_1" xmlns="http://www.w3.org/2000/svg" xmlns:xlink="http://www.w3.org/1999/xlink" x="0px" y="0px"
	 width="400px" height="400px" viewBox="0 0 400 400" enable-background="new 0 0 400 400" xml:space="preserve">
<g>
	<path fill="#674428" d="M180.433,209.008c0,0,17.04,1.004,61.045,4.197c23.964,1.739,19.388,1.816,31.136,2.003
		c0.662,0.013,12.971-2.96,13.733-2.935c2.388,0.087,0.085,0.426,0.085,0.426c-6.206,0.868-10.184,4.336-12.295,4.496
		c1.824,1.351,3.749,2.614,5.836,3.701c10.198,5.374,15.746,3.149,29.844,7.299c12.71,3.75,19.222,0.541,16.935,2.111
		c-0.17,0.116-0.388,0.1-0.601,0.151c-1.424,0.373-2.986,0.748-4.711,1.124c2.175,0.712,2.237,0.551,5.013,1.823
		c0.687,0.313,1.361,0.613,1.999,0.862c0.012,0.015,0.024,0.015,0.037,0.025c1.45,0.6,2.774,1.089,3.999,1.462
		c0.313,0.102,0.625,0.2,0.925,0.274c9.035,2.589,11.985-0.349,12.21-0.223c0.25,0.137-1.438,3.36-9.873,2.049
		c-0.088-0.013-0.188-0.025-0.275-0.037c-0.174-0.025-0.337-0.063-0.513-0.087c-0.649-0.126-1.324-0.264-2.048-0.425l-0.014-0.015
		c-0.449-0.099-0.919-0.25-1.412-0.349c-6.746-1.345-6.277-2.544-11.224-3.688c-3.143-0.729-36.849-6.823-45.914-10.047
		c-9.732-3.46-16.21-2.705-27.782-3.73c-3.224-0.276-6.323-0.563-9.323-0.851c2.699,1.725,16.588,5.748,20.951,9.129
		c7.412,5.744-5.018-2.903-27.313-9.704c-13.909-1.25-25.457-2.075-35.554-1.073c-19.896,1.986-114.891,31.455-150.496,29.992
		v-24.057c0,0,23.746-1.712,55.526,1.398c13.873,1.364,29.439-3.545,48.429-5.424c15.744-1.559,23.174-7.018,28.301-9.704
		c2.581-1.353,2.946-3.001,3.345-4.181c1.104-3.271,2.552-9.345,2.552-9.345C183.558,195.659,183.271,199.326,180.433,209.008z"/>
	<g>
		<path fill="#F15A34" d="M172.547,186.317c0,0,6.036,0.542,5.935,2.544C178.38,190.85,172.547,186.317,172.547,186.317z"/>
		<path fill="#F47D2D" d="M171.379,185.922c0,0,4.299-1.979,5.476-0.695C178.024,186.501,171.379,185.922,171.379,185.922z"/>
		<path fill="#F15A34" d="M171.308,185.965c0,0,4.24,2.105,3.979,3.83C175.024,191.504,171.308,185.965,171.308,185.965z"/>
		<path fill="#F15A34" d="M169.354,185.807c0,0,4.139,2.294,3.803,4.004C172.821,191.508,169.354,185.807,169.354,185.807z"/>
		<path fill="#F15A34" d="M167.698,186.028c0,0,4.078,2.402,3.698,4.102C171.015,191.818,167.698,186.028,167.698,186.028z"/>
		<path fill="#F15A34" d="M165.203,186.789c0,0,4.358,1.846,4.202,3.581C169.249,192.094,165.203,186.789,165.203,186.789z"/>
		<path fill="#F15A34" d="M162.905,187.671c0,0,4.614,1.043,4.771,2.78C167.826,192.172,162.905,187.671,162.905,187.671z"/>
		<path fill="#F47D2D" d="M169.394,185.712c0,0,3.577-3.102,5.066-2.197C175.938,184.415,169.394,185.712,169.394,185.712z"/>
		<path fill="#F47D2D" d="M167.683,186.001c0,0,2.063-4.258,3.792-4.012C173.188,182.231,167.683,186.001,167.683,186.001z"/>
		<path fill="#F47D2D" d="M162.903,187.818c0,0,0.457-4.71,2.163-5.079C166.759,182.374,162.903,187.818,162.903,187.818z"/>
		<path fill="#F47D2D" d="M165.203,186.789c0,0,1.422-5,3.336-5.063C170.44,181.664,165.203,186.789,165.203,186.789z"/>
		<path fill="#674428" d="M159.23,190.462c0,0,7.278-6.995,13.104-4.225c0,0-5.669-2.166-12.886,4.602L159.23,190.462z"/>
	</g>
	<g>
		<path fill="#F15A34" d="M145.14,182.168c0,0-3.726-6.538-1.612-7.854C145.629,173.006,145.14,182.168,145.14,182.168z"/>
		<path fill="#F47D2D" d="M145.565,183.639c0,0-5.066-2.979-4.59-5.093C141.447,176.45,145.565,183.639,145.565,183.639z"/>
		<path fill="#F15A34" d="M145.656,183.681c0,0-0.854-5.816,1.087-6.769C148.674,175.964,145.656,183.681,145.656,183.681z"/>
		<path fill="#F15A34" d="M146.883,185.788c0,0-0.596-5.851,1.39-6.717C150.241,178.21,146.883,185.788,146.883,185.788z"/>
		<path fill="#F15A34" d="M148.281,187.319c0,0-0.439-5.864,1.565-6.679C151.838,179.834,148.281,187.319,148.281,187.319z"/>
		<path fill="#F15A34" d="M150.825,189.325c0,0-1.206-5.753,0.675-6.822C153.368,181.441,150.825,189.325,150.825,189.325z"/>
		<path fill="#F15A34" d="M153.356,191.045c0,0-2.21-5.448-0.548-6.834C154.458,182.833,153.356,191.045,153.356,191.045z"/>
		<path fill="#F47D2D" d="M146.755,185.816c0,0-5.695-1.45-5.828-3.611C140.796,180.057,146.755,185.816,146.755,185.816z"/>
		<path fill="#F47D2D" d="M148.262,187.356c0,0-5.806,0.911-6.778-1.024C140.518,184.41,148.262,187.356,148.262,187.356z"/>
		<path fill="#F47D2D" d="M153.504,190.945c0,0-5.129,2.869-6.713,1.392C145.22,190.87,153.504,190.945,153.504,190.945z"/>
		<path fill="#F47D2D" d="M150.825,189.325c0,0-6.108,2.094-7.527,0.186C141.886,187.616,150.825,189.325,150.825,189.325z"/>
		<path fill="#674428" d="M158.806,192.817c0,0-12.295-2.466-13.596-10.375c0,0,1.807,7.318,13.825,9.884L158.806,192.817z"/>
	</g>
	<g>
		<path fill="#F15A34" d="M156.504,178.097c0,0,1.479-6.073,3.505-5.663C162.021,172.843,156.504,178.097,156.504,178.097z"/>
		<path fill="#F47D2D" d="M155.923,179.229c0,0-1.361-4.689,0.131-5.693C157.534,172.538,155.923,179.229,155.923,179.229z"/>
		<path fill="#F15A34" d="M155.953,179.306c0,0,2.799-4.001,4.517-3.47C162.175,176.365,155.953,179.306,155.953,179.306z"/>
		<path fill="#F15A34" d="M155.494,181.277c0,0,2.975-3.873,4.666-3.265C161.841,178.615,155.494,181.277,155.494,181.277z"/>
		<path fill="#F15A34" d="M155.465,182.996c0,0,3.077-3.789,4.753-3.139C161.88,180.504,155.465,182.996,155.465,182.996z"/>
		<path fill="#F15A34" d="M155.857,185.661c0,0,2.553-4.161,4.297-3.736C161.89,182.349,155.857,185.661,155.857,185.661z"/>
		<path fill="#F15A34" d="M156.405,188.141c0,0,1.771-4.549,3.566-4.44C161.752,183.81,156.405,188.141,156.405,188.141z"/>
		<path fill="#F47D2D" d="M155.4,181.221c0,0-2.613-4.124-1.46-5.505C155.084,174.347,155.4,181.221,155.4,181.221z"/>
		<path fill="#F47D2D" d="M155.433,183.011c0,0-4.025-2.76-3.511-4.483C152.436,176.815,155.433,183.011,155.433,183.011z"/>
		<path fill="#F47D2D" d="M156.553,188.166c0,0-4.734-1.191-4.85-2.987C151.593,183.396,156.553,188.166,156.553,188.166z"/>
		<path fill="#F47D2D" d="M155.857,185.661c0,0-4.881-2.219-4.651-4.181C151.434,179.533,155.857,185.661,155.857,185.661z"/>
		<path fill="#674428" d="M158.686,192.318c0,0-6.018-8.499-2.295-14.016c0,0-3.082,5.449,2.714,13.852L158.686,192.318z"/>
	</g>
	<g>
		<path fill="#F15A34" d="M221.159,172.448c0,0,6.036,0.542,5.934,2.543C226.992,176.98,221.159,172.448,221.159,172.448z"/>
		<path fill="#F47D2D" d="M219.99,172.053c0,0,4.3-1.979,5.477-0.695C226.636,172.631,219.99,172.053,219.99,172.053z"/>
		<path fill="#F15A34" d="M219.919,172.095c0,0,4.24,2.105,3.979,3.83C223.637,177.634,219.919,172.095,219.919,172.095z"/>
		<path fill="#F15A34" d="M217.967,171.937c0,0,4.138,2.294,3.802,4.004C221.434,177.638,217.967,171.937,217.967,171.937z"/>
		<path fill="#F15A34" d="M216.311,172.158c0,0,4.078,2.402,3.697,4.102C219.626,177.948,216.311,172.158,216.311,172.158z"/>
		<path fill="#F15A34" d="M213.815,172.919c0,0,4.357,1.847,4.202,3.582C217.86,178.224,213.815,172.919,213.815,172.919z"/>
		<path fill="#F15A34" d="M211.518,173.801c0,0,4.614,1.043,4.771,2.78C216.438,178.302,211.518,173.801,211.518,173.801z"/>
		<path fill="#F47D2D" d="M218.005,171.842c0,0,3.578-3.102,5.066-2.197C224.55,170.545,218.005,171.842,218.005,171.842z"/>
		<path fill="#F47D2D" d="M216.295,172.131c0,0,2.063-4.258,3.792-4.012C221.8,168.361,216.295,172.131,216.295,172.131z"/>
		<path fill="#F47D2D" d="M211.515,173.948c0,0,0.457-4.71,2.163-5.079C215.371,168.503,211.515,173.948,211.515,173.948z"/>
		<path fill="#F47D2D" d="M213.815,172.919c0,0,1.421-5,3.336-5.063C219.052,167.794,213.815,172.919,213.815,172.919z"/>
		<path fill="#674428" d="M207.842,176.592c0,0,7.279-6.996,13.104-4.225c0,0-5.669-2.166-12.886,4.603L207.842,176.592z"/>
	</g>
	<g>
		<path fill="#F15A34" d="M255.278,186.128c0,0,6.036,0.542,5.934,2.543C261.111,190.66,255.278,186.128,255.278,186.128z"/>
		<path fill="#F47D2D" d="M254.109,185.733c0,0,4.299-1.979,5.477-0.695C260.755,186.312,254.109,185.733,254.109,185.733z"/>
		<path fill="#F15A34" d="M254.038,185.775c0,0,4.24,2.105,3.979,3.83C257.756,191.314,254.038,185.775,254.038,185.775z"/>
		<path fill="#F15A34" d="M252.086,185.617c0,0,4.138,2.294,3.802,4.004C255.553,191.318,252.086,185.617,252.086,185.617z"/>
		<path fill="#F15A34" d="M250.43,185.838c0,0,4.078,2.402,3.697,4.102C253.745,191.628,250.43,185.838,250.43,185.838z"/>
		<path fill="#F15A34" d="M247.935,186.599c0,0,4.357,1.846,4.202,3.581C251.979,191.904,247.935,186.599,247.935,186.599z"/>
		<path fill="#F15A34" d="M245.637,187.481c0,0,4.614,1.043,4.771,2.78C250.558,191.982,245.637,187.481,245.637,187.481z"/>
		<path fill="#F47D2D" d="M252.124,185.522c0,0,3.578-3.102,5.066-2.197C258.669,184.225,252.124,185.522,252.124,185.522z"/>
		<path fill="#F47D2D" d="M250.414,185.811c0,0,2.063-4.258,3.791-4.012C255.919,182.041,250.414,185.811,250.414,185.811z"/>
		<path fill="#F47D2D" d="M245.634,187.628c0,0,0.457-4.71,2.163-5.079C249.489,182.184,245.634,187.628,245.634,187.628z"/>
		<path fill="#F47D2D" d="M247.935,186.599c0,0,1.421-5,3.336-5.063C253.171,181.474,247.935,186.599,247.935,186.599z"/>
		<path fill="#674428" d="M241.961,190.272c0,0,7.279-6.995,13.104-4.225c0,0-5.669-2.166-12.886,4.602L241.961,190.272z"/>
	</g>
	<g>
		<path fill="#F15A34" d="M268.136,200.711c0,0,7.25,0.542,7.128,2.543C275.142,205.244,268.136,200.711,268.136,200.711z"/>
		<path fill="#F47D2D" d="M266.732,200.316c0,0,5.163-1.979,6.577-0.695C274.715,200.895,266.732,200.316,266.732,200.316z"/>
		<path fill="#F15A34" d="M266.646,200.358c0,0,5.094,2.105,4.78,3.83C271.112,205.897,266.646,200.358,266.646,200.358z"/>
		<path fill="#F15A34" d="M264.302,200.201c0,0,4.97,2.293,4.566,4.004C268.465,205.901,264.302,200.201,264.302,200.201z"/>
		<path fill="#F15A34" d="M262.312,200.421c0,0,4.898,2.403,4.441,4.102C266.295,206.212,262.312,200.421,262.312,200.421z"/>
		<path fill="#F15A34" d="M259.315,201.183c0,0,5.233,1.847,5.047,3.581C264.173,206.487,259.315,201.183,259.315,201.183z"/>
		<path fill="#F15A34" d="M256.555,202.064c0,0,5.542,1.043,5.731,2.779C262.465,206.566,256.555,202.064,256.555,202.064z"/>
		<path fill="#F47D2D" d="M264.348,200.106c0,0,4.297-3.102,6.086-2.197C272.208,198.809,264.348,200.106,264.348,200.106z"/>
		<path fill="#F47D2D" d="M262.293,200.395c0,0,2.478-4.258,4.554-4.012C268.905,196.625,262.293,200.395,262.293,200.395z"/>
		<path fill="#F47D2D" d="M256.552,202.212c0,0,0.549-4.71,2.599-5.079C261.184,196.767,256.552,202.212,256.552,202.212z"/>
		<path fill="#F47D2D" d="M259.315,201.183c0,0,1.707-5,4.006-5.063C265.604,196.058,259.315,201.183,259.315,201.183z"/>
		<path fill="#674428" d="M252.141,204.855c0,0,8.742-6.995,15.738-4.225c0,0-6.808-2.166-15.478,4.603L252.141,204.855z"/>
	</g>
	<g>
		<path fill="#F15A34" d="M231.649,197.498c0,0,6.436-3.382,7.393-1.62C239.992,197.628,231.649,197.498,231.649,197.498z"/>
		<path fill="#F47D2D" d="M230.25,197.907c0,0,3.33-4.416,5.21-4.075C237.326,194.167,230.25,197.907,230.25,197.907z"/>
		<path fill="#F15A34" d="M230.2,197.987c0,0,5.436-0.913,6.083,0.716C236.922,200.318,230.2,197.987,230.2,197.987z"/>
		<path fill="#F15A34" d="M228.128,199.097c0,0,5.43-0.689,5.994,0.975C234.68,201.725,228.128,199.097,228.128,199.097z"/>
		<path fill="#F15A34" d="M226.557,200.338c0,0,5.428-0.558,5.941,1.125C233.003,203.139,226.557,200.338,226.557,200.338z"/>
		<path fill="#F15A34" d="M224.42,202.572c0,0,5.416-1.208,6.177,0.361C231.351,204.496,224.42,202.572,224.42,202.572z"/>
		<path fill="#F15A34" d="M222.546,204.782c0,0,5.253-2.052,6.332-0.68C229.942,205.467,222.546,204.782,222.546,204.782z"/>
		<path fill="#F47D2D" d="M228.116,198.992c0,0,2.001-4.908,3.997-5.088C234.095,193.727,228.116,198.992,228.116,198.992z"/>
		<path fill="#F47D2D" d="M226.526,200.326c0,0-0.154-4.924,1.736-5.816C230.137,193.625,226.526,200.326,226.526,200.326z"/>
		<path fill="#F47D2D" d="M222.622,204.909c0,0-2.031-4.286-0.488-5.684C223.663,197.838,222.622,204.909,222.622,204.909z"/>
		<path fill="#F47D2D" d="M224.42,202.572c0,0-1.203-5.146,0.713-6.418C227.037,194.892,224.42,202.572,224.42,202.572z"/>
		<path fill="#674428" d="M220.281,209.488c0,0,3.707-10.564,11.108-11.923c0,0-6.922,1.771-10.688,12.104L220.281,209.488z"/>
	</g>
	<g>
		<path fill="#F15A34" d="M242.78,171.258c0,0,2.82-5.363,4.629-4.5C249.206,167.615,242.78,171.258,242.78,171.258z"/>
		<path fill="#F47D2D" d="M241.967,172.186c0,0-0.176-4.729,1.462-5.322C245.055,166.273,241.967,172.186,241.967,172.186z"/>
		<path fill="#F15A34" d="M241.978,172.269c0,0,3.573-3.106,5.065-2.202C248.521,170.964,241.978,172.269,241.978,172.269z"/>
		<path fill="#F15A34" d="M241.081,174.009c0,0,3.709-2.938,5.158-1.971C247.678,173,241.081,174.009,241.081,174.009z"/>
		<path fill="#F15A34" d="M240.649,175.624c0,0,3.785-2.842,5.208-1.837C247.269,174.788,240.649,175.624,240.649,175.624z"/>
		<path fill="#F15A34" d="M240.393,178.22c0,0,3.38-3.313,4.921-2.503C246.845,176.524,240.393,178.22,240.393,178.22z"/>
		<path fill="#F15A34" d="M240.323,180.681c0,0,2.736-3.859,4.4-3.337C246.371,177.867,240.323,180.681,240.323,180.681z"/>
		<path fill="#F47D2D" d="M241.009,173.938c0,0-1.488-4.495-0.081-5.521C242.326,167.398,241.009,173.938,241.009,173.938z"/>
		<path fill="#F47D2D" d="M240.618,175.628c0,0-3.138-3.541-2.246-5.043C239.254,169.097,240.618,175.628,240.618,175.628z"/>
		<path fill="#F47D2D" d="M240.46,180.738c0,0-4.174-2.232-3.858-3.948C236.914,175.087,240.46,180.738,240.46,180.738z"/>
		<path fill="#F47D2D" d="M240.393,178.22c0,0-4.07-3.233-3.393-5.025C237.674,171.415,240.393,178.22,240.393,178.22z"/>
		<path fill="#674428" d="M241.487,185.146c0,0-3.66-9.409,1.136-13.721c0,0-4.178,4.401-0.703,13.666L241.487,185.146z"/>
	</g>
	<g>
		<path fill="#F15A34" d="M308.311,220.838c0,0,5.177,3.151,4.202,4.901C311.544,227.479,308.311,220.838,308.311,220.838z"/>
		<path fill="#F47D2D" d="M307.438,219.968c0,0,4.731,0.121,5.22,1.793C313.145,223.421,307.438,219.968,307.438,219.968z"/>
		<path fill="#F15A34" d="M307.354,219.975c0,0,2.875,3.761,1.88,5.192C308.245,226.585,307.354,219.975,307.354,219.975z"/>
		<path fill="#F15A34" d="M305.671,218.971c0,0,2.702,3.885,1.645,5.271C306.266,225.616,305.671,218.971,305.671,218.971z"/>
		<path fill="#F15A34" d="M304.088,218.438c0,0,2.6,3.956,1.507,5.313C304.508,225.098,304.088,218.438,304.088,218.438z"/>
		<path fill="#F15A34" d="M301.514,218.02c0,0,3.096,3.581,2.189,5.068C302.802,224.564,301.514,218.02,301.514,218.02z"/>
		<path fill="#F15A34" d="M299.062,217.796c0,0,3.681,2.973,3.055,4.601C301.491,224.008,299.062,217.796,299.062,217.796z"/>
		<path fill="#F47D2D" d="M305.748,218.902c0,0,4.579-1.203,5.516,0.266C312.193,220.628,305.748,218.902,305.748,218.902z"/>
		<path fill="#F47D2D" d="M304.086,218.406c0,0,3.73-2.909,5.174-1.926C310.689,217.453,304.086,218.406,304.086,218.406z"/>
		<path fill="#F47D2D" d="M298.995,217.928c0,0,2.489-4.025,4.183-3.603C304.858,214.744,298.995,217.928,298.995,217.928z"/>
		<path fill="#F47D2D" d="M301.514,218.02c0,0,3.482-3.86,5.229-3.071C308.475,215.732,301.514,218.02,301.514,218.02z"/>
		<path fill="#674428" d="M294.532,218.678c0,0,9.619-3.063,13.623,1.994c0,0-4.131-4.447-13.595-1.559L294.532,218.678z"/>
	</g>
	<g>
		<path fill="#F15A34" d="M319.763,247.029c0,0,5.507,2.53,6.414,0.744C327.077,245.997,319.763,247.029,319.763,247.029z"/>
		<path fill="#F47D2D" d="M318.553,246.792c0,0,2.746,3.853,4.405,3.325C324.606,249.593,318.553,246.792,318.553,246.792z"/>
		<path fill="#F15A34" d="M318.513,246.72c0,0,4.726,0.28,5.355-1.346C324.491,243.761,318.513,246.72,318.513,246.72z"/>
		<path fill="#F15A34" d="M316.74,245.884c0,0,4.729,0.068,5.289-1.582C322.582,242.662,316.74,245.884,316.74,245.884z"/>
		<path fill="#F15A34" d="M315.412,244.869c0,0,4.732-0.056,5.247-1.721C321.169,241.494,315.412,244.869,315.412,244.869z"/>
		<path fill="#F15A34" d="M313.626,242.969c0,0,4.699,0.565,5.427-1.017C319.772,240.378,313.626,242.969,313.626,242.969z"/>
		<path fill="#F15A34" d="M312.07,241.061c0,0,4.522,1.391,5.521-0.039C318.578,239.603,312.07,241.061,312.07,241.061z"/>
		<path fill="#F47D2D" d="M316.726,245.985c0,0,1.563,4.47,3.304,4.425C321.759,250.364,316.726,245.985,316.726,245.985z"/>
		<path fill="#F47D2D" d="M315.386,244.886c0,0-0.327,4.72,1.294,5.367C318.287,250.893,315.386,244.886,315.386,244.886z"/>
		<path fill="#F47D2D" d="M312.142,240.933c0,0-1.945,4.313-0.648,5.481C312.78,247.573,312.142,240.933,312.142,240.933z"/>
		<path fill="#F47D2D" d="M313.626,242.969c0,0-1.253,5.046,0.376,6.053C315.622,250.02,313.626,242.969,313.626,242.969z"/>
		<path fill="#674428" d="M310.269,236.812c0,0,2.839,9.689,9.27,10.181c0,0-5.996-0.939-8.892-10.399L310.269,236.812z"/>
	</g>
	<g>
		<path fill="#F15A34" d="M337.941,226.764c0,0,5.479-2.591,4.692-4.435C341.854,220.497,337.941,226.764,337.941,226.764z"/>
		<path fill="#F47D2D" d="M336.98,227.537c0,0,4.718,0.374,5.38-1.236C343.019,224.701,336.98,227.537,336.98,227.537z"/>
		<path fill="#F15A34" d="M336.9,227.521c0,0,3.252-3.438,2.412-4.966C338.478,221.04,336.9,227.521,336.9,227.521z"/>
		<path fill="#F15A34" d="M335.121,228.343c0,0,3.094-3.579,2.188-5.069C336.408,221.795,335.121,228.343,335.121,228.343z"/>
		<path fill="#F15A34" d="M333.49,228.707c0,0,3-3.661,2.056-5.125C334.606,222.128,333.49,228.707,333.49,228.707z"/>
		<path fill="#F15A34" d="M330.886,228.854c0,0,3.453-3.237,2.71-4.811C332.853,222.479,330.886,228.854,330.886,228.854z"/>
		<path fill="#F15A34" d="M328.425,228.818c0,0,3.972-2.57,3.519-4.255C331.491,222.896,328.425,228.818,328.425,228.818z"/>
		<path fill="#F47D2D" d="M335.189,228.419c0,0,4.428,1.678,5.513,0.314C341.779,227.379,335.189,228.419,335.189,228.419z"/>
		<path fill="#F47D2D" d="M333.484,228.736c0,0,3.404,3.285,4.943,2.46C339.951,230.377,333.484,228.736,333.484,228.736z"/>
		<path fill="#F47D2D" d="M328.371,228.68c0,0,2.054,4.264,3.781,4.022C333.869,232.461,328.371,228.68,328.371,228.68z"/>
		<path fill="#F47D2D" d="M330.886,228.854c0,0,3.059,4.203,4.877,3.604C337.568,231.858,330.886,228.854,330.886,228.854z"/>
		<path fill="#674428" d="M337.742,226.935c-0.18,0.191-0.369,0.36-0.57,0.508c-0.032,0.042-0.074,0.074-0.117,0.095
			c-0.422,0.328-0.876,0.592-1.351,0.803c-0.106,0.054-0.212,0.096-0.328,0.138c-0.443,0.18-0.897,0.306-1.362,0.401
			c-0.105,0.021-0.212,0.042-0.317,0.063c-0.749,0.137-1.521,0.179-2.281,0.158c-0.115,0.011-0.232,0-0.349-0.011
			c-0.865-0.031-1.722-0.138-2.514-0.285c-0.021,0-0.053-0.01-0.084-0.01c0-0.012-0.011-0.012-0.021-0.012c0,0-0.011,0-0.021,0
			c-0.771-0.147-1.499-0.338-2.122-0.517c-0.17-0.053-0.339-0.106-0.496-0.159c0.115-0.053,0.231-0.116,0.349-0.169
			c0.052-0.021,0.104-0.053,0.157-0.073c0.159,0.053,0.316,0.095,0.476,0.137c0.645,0.19,1.258,0.327,1.838,0.434
			c0.095,0.021,0.19,0.042,0.274,0.053c0.729,0.127,1.405,0.189,2.038,0.211c0.032,0.011,0.074,0.011,0.106,0.011
			c0.908,0.032,1.731-0.021,2.461-0.138c0.042,0,0.073,0,0.105-0.011c0.57-0.095,1.088-0.211,1.542-0.359
			c0.042-0.01,0.084-0.021,0.116-0.03c0.676-0.223,1.226-0.466,1.627-0.688h0.01c0.021-0.01,0.043-0.021,0.053-0.032
			C337.394,227.21,337.657,227.009,337.742,226.935z"/>
	</g>
	<g>
		<path fill="#F15A34" d="M288.212,192.585c0,0,4.555-3.998,5.935-2.544C295.517,191.485,288.212,192.585,288.212,192.585z"/>
		<path fill="#F47D2D" d="M287.12,193.159c0,0,1.53-4.479,3.272-4.445C292.121,188.746,287.12,193.159,287.12,193.159z"/>
		<path fill="#F15A34" d="M287.103,193.24c0,0,4.447-1.619,5.516-0.241C293.677,194.367,287.103,193.24,287.103,193.24z"/>
		<path fill="#F15A34" d="M285.642,194.546c0,0,4.514-1.416,5.521,0.006C292.16,195.966,285.642,194.546,285.642,194.546z"/>
		<path fill="#F15A34" d="M284.659,195.897c0,0,4.552-1.297,5.52,0.151C291.141,197.488,284.659,195.897,284.659,195.897z"/>
		<path fill="#F15A34" d="M283.49,198.229c0,0,4.343-1.883,5.491-0.574C290.121,198.957,283.49,198.229,283.49,198.229z"/>
		<path fill="#F15A34" d="M282.544,200.502c0,0,3.938-2.623,5.303-1.539C289.197,200.041,282.544,200.502,282.544,200.502z"/>
		<path fill="#F47D2D" d="M285.6,194.453c0,0,0.221-4.729,1.902-5.184C289.171,188.818,285.6,194.453,285.6,194.453z"/>
		<path fill="#F47D2D" d="M284.629,195.891c0,0-1.661-4.43-0.292-5.513C285.693,189.305,284.629,195.891,284.629,195.891z"/>
		<path fill="#F47D2D" d="M282.649,200.605c0,0-3.096-3.579-2.187-5.067C281.364,194.059,282.649,200.605,282.649,200.605z"/>
		<path fill="#F47D2D" d="M283.49,198.229c0,0-2.643-4.478-1.368-5.908C283.39,190.902,283.49,198.229,283.49,198.229z"/>
		<path fill="#674428" d="M282.032,205.089c0,0-0.048-10.095,5.975-12.404c0,0-5.478,2.613-5.551,12.507L282.032,205.089z"/>
	</g>
	<g>
		<path fill="#F15A34" d="M275.988,239.773c0,0,4.004,4.549,2.553,5.931C277.099,247.076,275.988,239.773,275.988,239.773z"/>
		<path fill="#F47D2D" d="M275.414,238.683c0,0,4.48,1.524,4.449,3.266C279.834,243.677,275.414,238.683,275.414,238.683z"/>
		<path fill="#F15A34" d="M275.334,238.664c0,0,1.623,4.445,0.247,5.516C274.215,245.24,275.334,238.664,275.334,238.664z"/>
		<path fill="#F15A34" d="M274.024,237.205c0,0,1.423,4.512,0.001,5.521C272.613,243.727,274.024,237.205,274.024,237.205z"/>
		<path fill="#F15A34" d="M272.673,236.224c0,0,1.304,4.551-0.144,5.521C271.09,242.707,272.673,236.224,272.673,236.224z"/>
		<path fill="#F15A34" d="M270.339,235.058c0,0,1.889,4.341,0.581,5.491C269.62,241.69,270.339,235.058,270.339,235.058z"/>
		<path fill="#F15A34" d="M268.065,234.115c0,0,2.628,3.934,1.546,5.302C268.535,240.768,268.065,234.115,268.065,234.115z"/>
		<path fill="#F47D2D" d="M274.118,237.162c0,0,4.729,0.217,5.187,1.896C279.759,240.727,274.118,237.162,274.118,237.162z"/>
		<path fill="#F47D2D" d="M272.68,236.194c0,0,4.428-1.667,5.513-0.299C279.267,237.251,272.68,236.194,272.68,236.194z"/>
		<path fill="#F47D2D" d="M267.962,234.221c0,0,3.576-3.101,5.065-2.193C274.508,232.927,267.962,234.221,267.962,234.221z"/>
		<path fill="#F47D2D" d="M270.339,235.058c0,0,4.474-2.646,5.906-1.374C277.666,234.948,270.339,235.058,270.339,235.058z"/>
		<path fill="#674428" d="M263.479,233.609c0,0,10.095-0.062,12.411,5.958c0,0-2.62-5.475-12.514-5.535L263.479,233.609z"/>
	</g>
	<g>
		<path fill="#F15A34" d="M251.572,242.744c0,0,1.271,5.925,3.244,5.582C256.779,247.984,251.572,242.744,251.572,242.744z"/>
		<path fill="#F47D2D" d="M251.038,241.633c0,0-1.444,4.507-0.026,5.52C252.419,248.157,251.038,241.633,251.038,241.633z"/>
		<path fill="#F15A34" d="M251.072,241.556c0,0,2.604,3.953,4.283,3.484C257.021,244.574,251.072,241.556,251.072,241.556z"/>
		<path fill="#F15A34" d="M250.68,239.638c0,0,2.777,3.828,4.435,3.288C256.757,242.385,250.68,239.638,250.68,239.638z"/>
		<path fill="#F15A34" d="M250.696,237.967c0,0,2.879,3.756,4.52,3.173C256.847,240.556,250.696,237.967,250.696,237.967z"/>
		<path fill="#F15A34" d="M251.149,235.398c0,0,2.362,4.101,4.064,3.735C256.906,238.769,251.149,235.398,251.149,235.398z"/>
		<path fill="#F15A34" d="M251.746,233.01c0,0,1.596,4.453,3.338,4.397C256.81,237.348,251.746,233.01,251.746,233.01z"/>
		<path fill="#F47D2D" d="M250.589,239.688c0,0-2.644,3.928-1.565,5.295C250.094,246.34,250.589,239.688,250.589,239.688z"/>
		<path fill="#F47D2D" d="M250.668,237.954c0,0-3.976,2.564-3.523,4.25C247.594,243.875,250.668,237.954,250.668,237.954z"/>
		<path fill="#F47D2D" d="M251.893,232.989c0,0-4.62,1.024-4.778,2.762C246.955,237.476,251.893,232.989,251.893,232.989z"/>
		<path fill="#F47D2D" d="M251.149,235.398c0,0-4.791,2.016-4.622,3.926C246.697,241.218,251.149,235.398,251.149,235.398z"/>
		<path fill="#674428" d="M254.071,229.022c0,0-6.061,8.073-2.604,13.52c0,0-2.838-5.365,3.006-13.349L254.071,229.022z"/>
	</g>
	<g>
		<path fill="#F15A34" d="M292.304,202.388c0,0,2.82-5.364,4.629-4.5C298.729,198.744,292.304,202.388,292.304,202.388z"/>
		<path fill="#F47D2D" d="M291.49,203.314c0,0-0.176-4.729,1.463-5.322C294.578,197.402,291.49,203.314,291.49,203.314z"/>
		<path fill="#F15A34" d="M291.501,203.397c0,0,3.573-3.106,5.065-2.202C298.044,202.094,291.501,203.397,291.501,203.397z"/>
		<path fill="#F15A34" d="M290.605,205.139c0,0,3.709-2.939,5.158-1.972C297.201,204.129,290.605,205.139,290.605,205.139z"/>
		<path fill="#F15A34" d="M290.173,206.752c0,0,3.785-2.841,5.208-1.836C296.793,205.917,290.173,206.752,290.173,206.752z"/>
		<path fill="#F15A34" d="M289.916,209.349c0,0,3.38-3.313,4.921-2.503C296.369,207.652,289.916,209.349,289.916,209.349z"/>
		<path fill="#F15A34" d="M289.847,211.81c0,0,2.736-3.859,4.4-3.337C295.895,208.996,289.847,211.81,289.847,211.81z"/>
		<path fill="#F47D2D" d="M290.533,205.067c0,0-1.488-4.495-0.082-5.521C291.85,198.527,290.533,205.067,290.533,205.067z"/>
		<path fill="#F47D2D" d="M290.142,206.757c0,0-3.138-3.541-2.246-5.043C288.777,200.226,290.142,206.757,290.142,206.757z"/>
		<path fill="#F47D2D" d="M289.983,211.867c0,0-4.174-2.232-3.857-3.948C286.438,206.217,289.983,211.867,289.983,211.867z"/>
		<path fill="#F47D2D" d="M289.916,209.349c0,0-4.07-3.233-3.393-5.025C287.197,202.545,289.916,209.349,289.916,209.349z"/>
		<path fill="#674428" d="M291.012,216.275c0,0-3.661-9.409,1.136-13.722c0,0-4.179,4.401-0.704,13.665L291.012,216.275z"/>
	</g>
	<g>
		<path fill="#F15A34" d="M180.771,158.325c0,0-3.726-6.538-1.611-7.854C181.261,149.163,180.771,158.325,180.771,158.325z"/>
		<path fill="#F47D2D" d="M181.198,159.796c0,0-5.066-2.979-4.59-5.093C177.079,152.607,181.198,159.796,181.198,159.796z"/>
		<path fill="#F15A34" d="M181.289,159.838c0,0-0.855-5.816,1.087-6.77C184.306,152.121,181.289,159.838,181.289,159.838z"/>
		<path fill="#F15A34" d="M182.515,161.944c0,0-0.596-5.85,1.39-6.716C185.873,154.368,182.515,161.944,182.515,161.944z"/>
		<path fill="#F15A34" d="M183.914,163.476c0,0-0.439-5.864,1.564-6.678C187.47,155.991,183.914,163.476,183.914,163.476z"/>
		<path fill="#F15A34" d="M186.457,165.482c0,0-1.206-5.753,0.675-6.822C189.001,157.598,186.457,165.482,186.457,165.482z"/>
		<path fill="#F15A34" d="M188.988,167.202c0,0-2.209-5.448-0.548-6.834C190.09,158.989,188.988,167.202,188.988,167.202z"/>
		<path fill="#F47D2D" d="M182.387,161.974c0,0-5.695-1.45-5.828-3.611C176.429,156.214,182.387,161.974,182.387,161.974z"/>
		<path fill="#F47D2D" d="M183.895,163.513c0,0-5.807,0.911-6.779-1.024C176.15,160.567,183.895,163.513,183.895,163.513z"/>
		<path fill="#F47D2D" d="M189.136,167.102c0,0-5.128,2.87-6.713,1.393C180.853,167.027,189.136,167.102,189.136,167.102z"/>
		<path fill="#F47D2D" d="M186.457,165.482c0,0-6.108,2.094-7.527,0.186C177.518,163.773,186.457,165.482,186.457,165.482z"/>
		<path fill="#674428" d="M194.438,168.974c0,0-12.295-2.466-13.596-10.374c0,0,1.808,7.318,13.826,9.884L194.438,168.974z"/>
	</g>
	<g>
		<path fill="#F15A34" d="M193.276,184.609c0,0,6.525-3.747,7.848-1.638C202.439,185.068,193.276,184.609,193.276,184.609z"/>
		<path fill="#F47D2D" d="M191.807,185.04c0,0,2.962-5.076,5.077-4.606C198.982,180.898,191.807,185.04,191.807,185.04z"/>
		<path fill="#F15A34" d="M191.764,185.131c0,0,5.813-0.875,6.773,1.064C199.491,188.123,191.764,185.131,191.764,185.131z"/>
		<path fill="#F15A34" d="M189.662,186.364c0,0,5.848-0.615,6.722,1.368C197.25,189.698,189.662,186.364,189.662,186.364z"/>
		<path fill="#F15A34" d="M188.136,187.768c0,0,5.861-0.458,6.684,1.543C195.632,191.299,188.136,187.768,188.136,187.768z"/>
		<path fill="#F15A34" d="M186.138,190.318c0,0,5.749-1.225,6.824,0.652C194.03,192.835,186.138,190.318,186.138,190.318z"/>
		<path fill="#F15A34" d="M184.427,192.855c0,0,5.44-2.227,6.832-0.57C192.642,193.93,184.427,192.855,184.427,192.855z"/>
		<path fill="#F47D2D" d="M189.633,186.236c0,0,1.432-5.7,3.592-5.84C195.373,180.259,189.633,186.236,189.633,186.236z"/>
		<path fill="#F47D2D" d="M188.099,187.748c0,0-0.931-5.803,1.001-6.782C191.019,179.995,188.099,187.748,188.099,187.748z"/>
		<path fill="#F47D2D" d="M184.526,193.002c0,0-2.886-5.119-1.414-6.708C184.574,184.718,184.526,193.002,184.526,193.002z"/>
		<path fill="#F47D2D" d="M186.138,190.318c0,0-2.114-6.102-0.211-7.527C187.816,181.373,186.138,190.318,186.138,190.318z"/>
		<path fill="#674428" d="M182.672,198.31c0,0,2.426-12.303,10.33-13.629c0,0-7.616,2.35-10.144,14.376L182.672,198.31z"/>
	</g>
	<g>
		<path fill="#F15A34" d="M210.934,152.599c0,0,4.968-3.792,6.285-2.199C218.526,151.982,210.934,152.599,210.934,152.599z"/>
		<path fill="#F47D2D" d="M209.77,153.112c0,0,1.891-4.501,3.682-4.344C215.23,148.924,209.77,153.112,209.77,153.112z"/>
		<path fill="#F15A34" d="M209.745,153.193c0,0,4.692-1.352,5.693,0.141C216.432,154.817,209.745,153.193,209.745,153.193z"/>
		<path fill="#F15A34" d="M208.148,154.437c0,0,4.749-1.142,5.682,0.395C214.758,156.357,208.148,154.437,208.148,154.437z"/>
		<path fill="#F15A34" d="M207.045,155.755c0,0,4.775-1.012,5.669,0.548C213.6,157.851,207.045,155.755,207.045,155.755z"/>
		<path fill="#F15A34" d="M205.675,158.074c0,0,4.602-1.631,5.69-0.204C212.447,159.291,205.675,158.074,205.675,158.074z"/>
		<path fill="#F15A34" d="M204.54,160.347c0,0,4.238-2.423,5.566-1.21C211.422,160.341,204.54,160.347,204.54,160.347z"/>
		<path fill="#F47D2D" d="M208.11,154.333c0,0,0.562-4.85,2.326-5.198C212.188,148.79,208.11,154.333,208.11,154.333z"/>
		<path fill="#F47D2D" d="M207.011,155.746c0,0-1.396-4.678,0.089-5.693C208.575,149.043,207.011,155.746,207.011,155.746z"/>
		<path fill="#F47D2D" d="M204.641,160.458c0,0-2.933-3.903-1.894-5.372C203.782,153.63,204.641,160.458,204.641,160.458z"/>
		<path fill="#F47D2D" d="M205.675,158.074c0,0-2.4-4.794-0.989-6.176C206.088,150.526,205.675,158.074,205.675,158.074z"/>
		<path fill="#674428" d="M203.688,165.028c0,0,0.665-10.392,7.028-12.341c0,0-5.822,2.299-6.6,12.477L203.688,165.028z"/>
	</g>
	<g>
		<path fill="#F15A34" d="M185.078,175.137c0,0,4.115-4.703,5.724-3.404C192.397,173.024,185.078,175.137,185.078,175.137z"/>
		<path fill="#F47D2D" d="M184.04,175.872c0,0,0.959-4.788,2.744-4.99C188.56,170.682,184.04,175.872,184.04,175.872z"/>
		<path fill="#F15A34" d="M184.031,175.956c0,0,4.33-2.258,5.608-0.993C190.908,176.219,184.031,175.956,184.031,175.956z"/>
		<path fill="#F15A34" d="M182.714,177.492c0,0,4.428-2.062,5.646-0.742C189.573,178.061,182.714,177.492,182.714,177.492z"/>
		<path fill="#F15A34" d="M181.895,179.002c0,0,4.479-1.94,5.664-0.589C188.734,179.754,181.895,179.002,181.895,179.002z"/>
		<path fill="#F15A34" d="M181.013,181.547c0,0,4.186-2.511,5.536-1.329C187.892,181.395,181.013,181.547,181.013,181.547z"/>
		<path fill="#F15A34" d="M180.353,184.001c0,0,3.672-3.216,5.214-2.292C187.096,182.628,180.353,184.001,180.353,184.001z"/>
		<path fill="#F47D2D" d="M182.656,177.398c0,0-0.413-4.865,1.246-5.557C185.551,171.154,182.656,177.398,182.656,177.398z"/>
		<path fill="#F47D2D" d="M181.859,179c0,0-2.297-4.307-1.045-5.598C182.062,172.121,181.859,179,181.859,179z"/>
		<path fill="#F47D2D" d="M180.473,184.091c0,0-3.65-3.243-2.924-4.889C178.274,177.569,180.473,184.091,180.473,184.091z"/>
		<path fill="#F47D2D" d="M181.013,181.547c0,0-3.305-4.22-2.196-5.856C179.917,174.069,181.013,181.547,181.013,181.547z"/>
		<path fill="#674428" d="M180.44,189.04c0,0-1.406-10.597,4.441-13.772c0,0-5.462,3.642-4.202,13.772H180.44z"/>
	</g>
	<path fill="#674428" d="M146.75,220.181c0,0,19.936-12.622,20.728-20.9c0,0,0.075-1.624-1.451,2.202
		c-0.625,1.566-2.955,4.35-6.375,7.333c-4.938,4.308-12.147,9.034-19.781,11.126c-12.923,3.541,0,0.239,0,0.239H146.75z"/>
	<path fill="#674428" d="M163.055,206.318c0,0,0.99-10.232,0-12.807c0,0,0.066,4.336-0.396,8.968
		c-0.463,4.631-1.914,5.353-1.914,5.353L163.055,206.318z"/>
	<path fill="#674428" d="M163.253,197.876c0,0-4.621-2.815-5.017-10.323c0,0-0.451-1.313-0.133,2.097
		c0.528,5.644,5.149,8.966,5.149,8.966V197.876z"/>
	<path fill="#674428" d="M189.409,196.411c-0.085,0.169-0.168,0.338-0.264,0.496c-0.168,0.317-0.349,0.613-0.539,0.898
		c-0.591,0.887-1.277,1.627-1.985,2.25c-0.231,0.21-0.465,0.412-0.697,0.591c-2.145,1.669-4.267,2.303-4.467,2.355l0.253-0.687
		c0,0,1.626-0.317,3.591-1.774c0.159-0.106,0.317-0.233,0.476-0.359c0.961-0.792,1.976-1.848,2.895-3.275
		c0.168-0.253,0.337-0.518,0.485-0.792c0.307-0.528,0.591-1.099,0.855-1.711C190.012,194.404,190.898,193.327,189.409,196.411z"/>
	<path fill="#674428" d="M189.156,196.115c0.011,0.274,0.011,0.539-0.011,0.792c-0.168,0.317-0.349,0.613-0.539,0.898
		c0.032-0.286,0.053-0.592,0.064-0.898c0.073-1.436-0.064-3.084-0.57-4.942c0,0,0.021-1.384,0.78,1.954
		C189.05,194.668,189.146,195.408,189.156,196.115z"/>
	<path fill="#674428" d="M188.564,199.96c-0.708,0.274-1.426,0.486-2.123,0.601c-0.179,0.032-0.349,0.064-0.518,0.085
		c-0.095,0.01-0.189,0.021-0.274,0.032c-0.116-0.042-0.231-0.084-0.349-0.137c0.159-0.106,0.317-0.233,0.476-0.359
		c0.274-0.032,0.561-0.074,0.845-0.127c1.161-0.201,2.408-0.56,3.76-1.162C190.381,198.893,191.755,198.703,188.564,199.96z"/>
	<path fill="#674428" d="M180.361,189.333c-0.041,0.185-0.085,0.368-0.11,0.552c-0.071,0.351-0.118,0.694-0.153,1.036
		c-0.43,4.62,2.052,8.308,2.232,8.553l0.24-0.692c0,0-2.58-3.099-1.952-8.596c0.031-0.302,0.067-0.614,0.127-0.92
		c0.098-0.603,0.239-1.225,0.424-1.866C181.169,187.399,181.166,186.005,180.361,189.333z"/>
	<path fill="#674428" d="M180.745,189.266c-0.183,0.205-0.35,0.409-0.494,0.62c-0.071,0.351-0.118,0.694-0.153,1.036
		c0.156-0.241,0.335-0.491,0.521-0.735c0.854-1.156,2.005-2.344,3.575-3.459c0,0,0.862-1.083-1.843,1.015
		C181.744,188.213,181.202,188.725,180.745,189.266z"/>
	<path fill="#674428" d="M158.879,191.515c-0.058,0.269-0.101,0.529-0.121,0.783c0.112,0.34,0.241,0.662,0.381,0.976
		c0.017-0.288,0.047-0.593,0.087-0.897c0.167-1.428,0.576-3.03,1.384-4.778c0,0,0.21-1.369-1.095,1.796
		C159.223,190.105,159.007,190.819,158.879,191.515z"/>
	<path fill="#674428" d="M273.287,216.73c0,0,8.81-5.297,10.288-7.625c0,0-3.444,2.635-7.44,5.021
		c-3.995,2.387-5.439,1.65-5.439,1.65L273.287,216.73z"/>
	<path fill="#674428" d="M280.188,211.863c0,0-0.49-5.389,5.306-10.178c0,0,0.786-1.144-1.764,1.144
		c-4.22,3.784-4.137,9.475-4.137,9.475L280.188,211.863z"/>
	<path fill="#674428" d="M282.693,204.562c-0.25,0.114-0.485,0.234-0.701,0.368c-0.207,0.295-0.389,0.59-0.558,0.887
		c0.241-0.157,0.506-0.314,0.772-0.463c1.247-0.717,2.777-1.342,4.663-1.733c0,0,1.225-0.646-2.095,0.189
		C284.03,203.998,283.328,204.249,282.693,204.562z"/>
	<path fill="#674428" d="M277.301,221.164c0,0,10.148,1.633,12.779,0.806c0,0-4.331-0.207-8.924-0.959
		c-4.593-0.753-5.223-2.246-5.223-2.246L277.301,221.164z"/>
	<path fill="#674428" d="M285.713,221.893c0,0,3.101-4.434,10.618-4.357c0,0,1.339-0.368-2.085-0.264
		c-5.666,0.172-9.271,4.574-9.271,4.574L285.713,221.893z"/>
	<path fill="#674428" d="M292.336,217.928c-0.264-0.074-0.521-0.134-0.772-0.171c-0.348,0.092-0.677,0.2-0.999,0.319
		c0.287,0.035,0.59,0.085,0.891,0.143c1.414,0.258,2.987,0.767,4.682,1.683c0,0,1.352,0.296-1.725-1.206
		C293.722,218.359,293.023,218.099,292.336,217.928z"/>
	<path fill="#674428" d="M289.969,217.176c-0.179,0.207-1.267,1.853-1.408,2.064c-0.063,0.354,0.819-0.742,0.789-0.399
		c0.154-0.244,0.328-0.497,0.509-0.745c0.834-1.17,1.965-2.377,3.514-3.521c0,0,0.843-1.097-1.824,1.048
		C290.949,216.104,290.416,216.625,289.969,217.176z"/>
	<path fill="#674428" d="M303.961,230.026c0,0,6.652,7.835,9.19,8.918c0,0-3.158-2.973-6.161-6.529
		c-3.001-3.557-2.508-5.101-2.508-5.101L303.961,230.026z"/>
	<path fill="#674428" d="M309.882,236.048c0,0,5.237-1.355,10.901,3.588c0,0,1.257,0.59-1.412-1.556
		c-4.419-3.551-10.021-2.548-10.021-2.548L309.882,236.048z"/>
	<path fill="#674428" d="M317.493,237.337c-0.154-0.227-0.31-0.438-0.477-0.631c-0.324-0.157-0.645-0.289-0.967-0.406
		c0.195,0.212,0.392,0.447,0.584,0.687c0.907,1.114,1.771,2.523,2.465,4.322c0,0,0.835,1.102-0.527-2.038
		C318.266,238.566,317.904,237.915,317.493,237.337z"/>
	<path fill="#674428" d="M307.043,232.977c-0.096-0.256-0.196-0.499-0.313-0.725c-0.278-0.229-0.559-0.433-0.844-0.623
		c0.14,0.252,0.275,0.526,0.405,0.805c0.619,1.298,1.127,2.872,1.375,4.782c0,0,0.551,1.269-0.03-2.104
		C307.504,234.354,307.308,233.637,307.043,232.977z"/>
	<path fill="#674428" d="M316.182,235.227c-0.271,0.042-2.167,0.586-2.411,0.654c-0.279,0.229,1.104-0.031,0.859,0.211
		c0.275-0.087,0.571-0.165,0.869-0.235c1.396-0.349,3.039-0.53,4.96-0.395c0,0,1.353-0.284-2.067-0.388
		C317.623,235.052,316.879,235.102,316.182,235.227z"/>
	<path fill="#674428" d="M328.172,227.337c-0.496,0.211-0.949,0.433-1.383,0.665c-0.169,0.085-0.327,0.18-0.485,0.265
		c-0.919,0.528-1.701,1.099-2.366,1.68c-0.232,0.2-0.465,0.41-0.666,0.612c0.106-0.328-1.014,0.528-0.866,0.2
		c0.191-0.169,1.627-1.521,1.849-1.68c0.465-0.359,0.993-0.686,1.554-0.972c0.115-0.053,0.231-0.116,0.349-0.169
		c0.052-0.021,0.104-0.053,0.157-0.073C329.197,226.503,328.172,227.337,328.172,227.337z"/>
	<g>
		<path fill="#F15A34" d="M351.934,227.856c0,0,3.974-4.576,2.513-5.947C352.994,220.546,351.934,227.856,351.934,227.856z"/>
		<path fill="#F47D2D" d="M351.365,228.951c0,0,4.471-1.556,4.428-3.297C355.752,223.926,351.365,228.951,351.365,228.951z"/>
		<path fill="#F15A34" d="M351.285,228.969c0,0,1.595-4.456,0.21-5.518C350.121,222.401,351.285,228.969,351.285,228.969z"/>
		<path fill="#F15A34" d="M349.987,230.438c0,0,1.392-4.521-0.037-5.521C348.531,223.925,349.987,230.438,349.987,230.438z"/>
		<path fill="#F15A34" d="M348.641,231.427c0,0,1.273-4.558-0.18-5.52C347.016,224.955,348.641,231.427,348.641,231.427z"/>
		<path fill="#F15A34" d="M346.315,232.609c0,0,1.858-4.354,0.545-5.495C345.551,225.981,346.315,232.609,346.315,232.609z"/>
		<path fill="#F15A34" d="M344.048,233.566c0,0,2.602-3.951,1.51-5.311C344.473,226.911,344.048,233.566,344.048,233.566z"/>
		<path fill="#F47D2D" d="M350.08,230.48c0,0,4.729-0.248,5.174-1.932C355.694,226.876,350.08,230.48,350.08,230.48z"/>
		<path fill="#F47D2D" d="M348.647,231.456c0,0,4.438,1.638,5.516,0.264C355.229,230.356,348.647,231.456,348.647,231.456z"/>
		<path fill="#F47D2D" d="M343.943,233.461c0,0,3.596,3.078,5.079,2.16C350.498,234.711,343.943,233.461,343.943,233.461z"/>
		<path fill="#F47D2D" d="M346.315,232.609c0,0,4.491,2.615,5.914,1.335C353.642,232.671,346.315,232.609,346.315,232.609z"/>
		<path fill="#674428" d="M351.82,228.094c-0.088,0.247-0.194,0.478-0.318,0.694c-0.012,0.052-0.039,0.097-0.068,0.133
			c-0.255,0.471-0.564,0.896-0.914,1.279c-0.076,0.093-0.155,0.173-0.244,0.258c-0.335,0.342-0.699,0.642-1.086,0.915
			c-0.089,0.063-0.177,0.124-0.266,0.187c-0.631,0.427-1.32,0.775-2.024,1.062c-0.102,0.057-0.213,0.096-0.324,0.131
			c-0.805,0.319-1.631,0.566-2.416,0.75c-0.018,0.009-0.052,0.013-0.081,0.025c-0.004-0.011-0.015-0.006-0.023-0.002
			c0,0-0.011,0.004-0.02,0.008c-0.765,0.176-1.509,0.295-2.151,0.382c-0.176,0.021-0.353,0.039-0.519,0.054
			c0.085-0.095,0.166-0.2,0.252-0.295c0.039-0.039,0.074-0.091,0.114-0.13c0.167-0.017,0.328-0.042,0.491-0.066
			c0.666-0.084,1.282-0.206,1.856-0.343c0.095-0.021,0.191-0.037,0.272-0.062c0.719-0.177,1.362-0.392,1.95-0.627
			c0.034-0.004,0.072-0.021,0.103-0.033c0.844-0.336,1.577-0.718,2.198-1.116c0.038-0.016,0.066-0.028,0.092-0.054
			c0.483-0.315,0.91-0.629,1.267-0.948c0.034-0.025,0.068-0.052,0.095-0.074c0.529-0.476,0.935-0.92,1.212-1.284l0.01-0.004
			c0.015-0.018,0.03-0.037,0.035-0.051C351.612,228.486,351.772,228.196,351.82,228.094z"/>
	</g>
	<path fill="#674428" d="M343.221,232.313c-0.37,0.392-0.696,0.777-0.998,1.165c-0.122,0.146-0.228,0.295-0.339,0.438
		c-0.629,0.854-1.115,1.689-1.491,2.49c-0.132,0.276-0.259,0.563-0.361,0.827c-0.035-0.343-0.716,0.891-0.713,0.532
		c0.107-0.231,0.878-2.047,1.016-2.282c0.281-0.516,0.634-1.027,1.031-1.514c0.085-0.095,0.166-0.2,0.252-0.295
		c0.039-0.039,0.074-0.091,0.114-0.13C343.823,231.137,343.221,232.313,343.221,232.313z"/>
	<path fill="#674428" d="M210.654,214.002c0,0,32.118-4.588,37.778-14.522c0,0,1.01-1.992-3.063,1.943
		c-1.666,1.611-6.157,3.788-12.128,5.601c-8.622,2.618-20.163,3.529-31.042,3.211c-16.297-0.475-0.748,1.101-0.748,1.101
		L210.654,214.002z"/>
	<path fill="#674428" d="M238.917,205.811c0,0,7.012-12.271,7.222-16.057c0,0-2.362,5.474-5.554,11.02
		c-3.188,5.548-5.417,5.635-5.417,5.635L238.917,205.811z"/>
	<path fill="#674428" d="M243.926,195.336c0,0-4.207-6.135-0.47-15.774c0,0,0.175-1.9-1.348,2.555
		c-2.521,7.375,1.4,14.147,1.4,14.147L243.926,195.336z"/>
	<path fill="#674428" d="M246.401,180.959c-0.665,0.581-1.267,1.162-1.795,1.742c-0.201,0.201-0.38,0.401-0.549,0.603
		c-0.835,0.961-1.521,1.933-2.081,2.862c-0.222,0.359-0.433,0.729-0.612,1.078c0-0.465,0.021-0.951,0.074-1.437
		c0.168-0.307,0.369-0.613,0.591-0.919c0.307-0.434,0.645-0.867,1.024-1.289c0.232-0.274,0.497-0.538,0.771-0.802
		c0.063-0.074,0.127-0.138,0.2-0.201C247.438,179.365,246.401,180.959,246.401,180.959z"/>
	<path fill="#674428" d="M240.314,185.749c0.111,0.494,0.237,0.948,0.377,1.356c0.046,0.153,0.093,0.292,0.146,0.425
		c0.24,0.653,0.517,1.216,0.801,1.695c0.109,0.189,0.224,0.373,0.337,0.533c-0.2-0.068-0.405-0.15-0.604-0.254
		c-0.097-0.147-0.187-0.316-0.272-0.496c-0.123-0.252-0.24-0.522-0.342-0.817c-0.07-0.182-0.129-0.383-0.186-0.591
		c-0.019-0.049-0.033-0.098-0.046-0.152C239.843,184.882,240.314,185.749,240.314,185.749z"/>
	<path fill="#674428" d="M251,203.089c-0.883-0.011-1.719,0.02-2.499,0.099c-0.284,0.016-0.552,0.045-0.813,0.082
		c-1.262,0.158-2.422,0.424-3.459,0.741c-0.404,0.12-0.81,0.254-1.176,0.394c0.311-0.346,0.649-0.693,1.015-1.02
		c0.329-0.116,0.684-0.211,1.054-0.289c0.518-0.119,1.058-0.215,1.622-0.275c0.356-0.049,0.73-0.07,1.109-0.083
		c0.098-0.014,0.188-0.018,0.284-0.017C252.836,202.594,251,203.089,251,203.089z"/>
	<path fill="#674428" d="M253.891,206.358c-0.752-0.463-1.485-0.864-2.195-1.197c-0.252-0.132-0.496-0.245-0.739-0.346
		c-1.165-0.512-2.296-0.879-3.35-1.139c-0.408-0.104-0.825-0.197-1.211-0.265c0.443-0.139,0.914-0.263,1.395-0.355
		c0.342,0.069,0.694,0.17,1.052,0.292c0.506,0.164,1.02,0.358,1.534,0.595c0.332,0.143,0.663,0.316,0.995,0.5
		c0.09,0.038,0.17,0.08,0.252,0.131C255.722,206.875,253.891,206.358,253.891,206.358z"/>
	<path fill="#674428" d="M248.493,182.628c-1.648,0.095-3.116,0.337-4.436,0.676c-0.35,0.095-0.687,0.19-1.004,0.296
		c0.232-0.274,0.497-0.538,0.771-0.802c0.254-0.042,0.518-0.074,0.781-0.096c0.307-0.031,0.623-0.063,0.95-0.095
		C250.236,182.142,248.493,182.628,248.493,182.628z"/>
	<path fill="#674428" d="M188.04,210.446c0,0,22.033-23.816,20.162-35.095c0,0-0.473-2.182-1.151,3.439
		c-0.277,2.301-2.39,6.824-5.88,11.995c-5.041,7.469-13.425,15.454-22.066,22.068c-12.949,9.908,0.113,1.326,0.113,1.326
		L188.04,210.446z"/>
	<path fill="#674428" d="M204.81,186.265c0,0-2.296-13.945-4.521-17.016c0,0,1.619,5.738,2.64,12.055
		c1.023,6.316-0.651,7.79-0.651,7.79L204.81,186.265z"/>
	<path fill="#674428" d="M202.092,174.977c0,0-7.135-2.107-10.313-11.945c0,0-1.062-1.585,0.566,2.833
		c2.694,7.314,10.007,10.097,10.007,10.097L202.092,174.977z"/>
	<path fill="#674428" d="M194.947,162.258c-0.15,0.871-0.252,1.7-0.295,2.483c-0.029,0.283-0.043,0.552-0.047,0.814
		c-0.041,1.273,0.039,2.459,0.19,3.534c0.055,0.419,0.123,0.839,0.204,1.223c-0.293-0.361-0.583-0.752-0.849-1.162
		c-0.063-0.344-0.1-0.709-0.12-1.086c-0.036-0.529-0.047-1.079-0.018-1.645c0.007-0.36,0.046-0.731,0.092-1.11
		c0.002-0.097,0.013-0.187,0.028-0.282C194.745,160.368,194.947,162.258,194.947,162.258z"/>
	<path fill="#674428" d="M193.243,169.814c0.397,0.313,0.782,0.586,1.148,0.815c0.131,0.09,0.255,0.168,0.38,0.238
		c0.599,0.355,1.168,0.618,1.689,0.81c0.204,0.079,0.409,0.148,0.599,0.201c-0.198,0.074-0.409,0.139-0.629,0.184
		c-0.169-0.054-0.344-0.128-0.524-0.213c-0.255-0.118-0.516-0.254-0.78-0.418c-0.17-0.098-0.342-0.216-0.518-0.342
		c-0.045-0.027-0.087-0.055-0.131-0.09C192.329,169.439,193.243,169.814,193.243,169.814z"/>
	<path fill="#674428" d="M212.47,176.533c-0.691,0.548-1.32,1.099-1.877,1.652c-0.21,0.191-0.4,0.383-0.578,0.576
		c-0.88,0.919-1.612,1.856-2.217,2.757c-0.238,0.348-0.469,0.708-0.664,1.047c0.021-0.464,0.065-0.948,0.145-1.432
		c0.182-0.298,0.397-0.594,0.634-0.889c0.327-0.418,0.687-0.833,1.085-1.237c0.247-0.263,0.524-0.514,0.81-0.763
		c0.067-0.072,0.136-0.132,0.21-0.192C213.583,174.991,212.47,176.533,212.47,176.533z"/>
	<path fill="#674428" d="M216.776,177.247c-0.876,0.115-1.697,0.266-2.46,0.456c-0.278,0.056-0.539,0.123-0.791,0.197
		c-1.228,0.338-2.336,0.767-3.318,1.229c-0.383,0.176-0.764,0.367-1.106,0.558c0.257-0.387,0.545-0.78,0.858-1.155
		c0.31-0.161,0.646-0.305,1-0.437c0.496-0.191,1.018-0.365,1.565-0.505c0.348-0.099,0.714-0.173,1.089-0.24
		c0.093-0.027,0.183-0.045,0.277-0.058C218.522,176.494,216.776,177.247,216.776,177.247z"/>
	<path fill="#674428" d="M197.623,162.234c-1.22,1.113-2.207,2.227-3.018,3.321c-0.211,0.294-0.412,0.581-0.592,0.863
		c0.007-0.36,0.046-0.731,0.092-1.11c0.171-0.193,0.355-0.384,0.547-0.567c0.219-0.216,0.443-0.441,0.678-0.672
		C198.669,160.758,197.623,162.234,197.623,162.234z"/>
	<path fill="#674428" d="M202.267,176.883c0,0,4.052-6.238,0.073-15.78c0,0-0.225-1.895,1.41,2.521
		c2.706,7.309-1.042,14.177-1.042,14.177L202.267,176.883z"/>
	<path fill="#674428" d="M199.43,162.574c0.68,0.564,1.296,1.128,1.838,1.696c0.206,0.196,0.391,0.392,0.564,0.589
		c0.859,0.939,1.568,1.894,2.152,2.809c0.231,0.354,0.452,0.718,0.64,1.063c-0.012-0.465-0.045-0.95-0.11-1.435
		c-0.176-0.303-0.385-0.604-0.614-0.904c-0.317-0.426-0.666-0.85-1.056-1.261c-0.24-0.27-0.512-0.526-0.792-0.784
		c-0.064-0.072-0.13-0.134-0.204-0.196C198.354,161.006,199.43,162.574,199.43,162.574z"/>
	<path fill="#674428" d="M205.636,167.209c-0.098,0.496-0.213,0.953-0.344,1.366c-0.041,0.153-0.084,0.294-0.134,0.428
		c-0.224,0.658-0.485,1.229-0.758,1.713c-0.104,0.193-0.214,0.379-0.324,0.542c0.199-0.072,0.402-0.16,0.599-0.269
		c0.093-0.149,0.177-0.32,0.259-0.502c0.117-0.254,0.227-0.528,0.321-0.825c0.065-0.185,0.119-0.387,0.171-0.596
		c0.018-0.049,0.03-0.099,0.041-0.153C206.087,166.329,205.636,167.209,205.636,167.209z"/>
	<path fill="#674428" d="M253.448,225.567c0,0,0.489,7.424,9.387,12.686c0,0,1.313,1.385-2.639-1.174
		c-6.543-4.236-7.65-11.982-7.65-11.982L253.448,225.567z"/>
	<path fill="#674428" d="M264.286,235.334c-0.882-0.045-1.714-0.13-2.488-0.26c-0.282-0.033-0.548-0.078-0.805-0.132
		c-1.25-0.239-2.39-0.58-3.404-0.964c-0.396-0.144-0.792-0.305-1.148-0.468c0.288,0.365,0.604,0.734,0.947,1.083
		c0.321,0.139,0.669,0.254,1.032,0.356c0.509,0.151,1.043,0.283,1.602,0.38c0.354,0.07,0.725,0.115,1.103,0.152
		c0.096,0.021,0.185,0.031,0.282,0.035C266.086,235.947,264.286,235.334,264.286,235.334z"/>
	<path fill="#674428" d="M256.54,235.334c-0.218-0.455-0.4-0.891-0.543-1.297c-0.059-0.148-0.107-0.289-0.148-0.426
		c-0.215-0.662-0.346-1.274-0.419-1.825c-0.031-0.217-0.055-0.431-0.064-0.629c-0.116,0.177-0.226,0.369-0.317,0.573
		c0.016,0.176,0.049,0.363,0.093,0.559c0.06,0.274,0.135,0.56,0.236,0.854c0.058,0.186,0.137,0.382,0.22,0.577
		c0.017,0.052,0.035,0.1,0.059,0.148C256.706,236.308,256.54,235.334,256.54,235.334z"/>
	<path fill="#674428" d="M264.897,232.729c-1.354,0.945-2.657,1.663-3.904,2.214c-0.333,0.141-0.656,0.274-0.972,0.388
		c0.354,0.07,0.725,0.115,1.103,0.152c0.226-0.123,0.453-0.262,0.674-0.408c0.26-0.165,0.528-0.334,0.806-0.512
		C266.567,232.033,264.897,232.729,264.897,232.729z"/>
	<path fill="#674428" d="M258.39,224.781c-0.169,0.115-0.358,0.232-0.56,0.369c-0.063,0.042-0.138,0.085-0.2,0.127
		c-0.275,0.18-0.55,0.349-0.804,0.518c-0.222,0.138-0.802,0.644-1.024,0.771c-0.38-0.042-0.4-0.454-0.749-0.518
		c0.306-0.115,0.633-0.253,0.972-0.391c0.411-0.18,0.823-0.38,1.245-0.602c0.233-0.117,0.466-0.243,0.697-0.381
		c0.635-0.358,1.289-0.771,1.955-1.235C259.922,223.439,261.357,222.848,258.39,224.781z"/>
	<path fill="#674428" d="M259.013,225.298c-0.326-0.042-0.645-0.073-0.95-0.115c-0.073-0.012-0.158-0.022-0.232-0.032
		c-0.189-0.021-0.369-0.042-0.549-0.085l-0.012-0.01c0.233-0.117,0.466-0.243,0.697-0.381c0.138,0.053,0.274,0.085,0.423,0.106
		c1.089,0.274,2.261,0.464,3.56,0.569C261.949,225.351,263.682,225.879,259.013,225.298z"/>
	<path fill="#674428" d="M179.805,193.555c0.077,0.263,0.5,1.19,0.603,1.424c0.26,0.246,0.189-0.21,0.461,0
		c-0.122-0.261-0.239-0.544-0.35-0.831c-0.53-1.336-0.93-2.941-1.048-4.863c0,0-0.464-1.304-0.112,2.101
		C179.439,192.15,179.587,192.881,179.805,193.555z"/>
</g>
</svg>
