<?xml version="1.0" encoding="utf-8"?>
<!-- Generator: Adobe Illustrator 16.0.0, SVG Export Plug-In . SVG Version: 6.00 Build 0)  -->
<!DOCTYPE svg PUBLIC "-//W3C//DTD SVG 1.1//EN" "http://www.w3.org/Graphics/SVG/1.1/DTD/svg11.dtd">
<svg version="1.1" id="Layer_1" xmlns="http://www.w3.org/2000/svg" xmlns:xlink="http://www.w3.org/1999/xlink" x="0px" y="0px"
	 width="400px" height="400px" viewBox="0 0 400 400" enable-background="new 0 0 400 400" xml:space="preserve">
<g>
	<path fill="#674428" d="M336.702,242.484c-0.089-0.013-0.188-0.024-0.275-0.038c-0.175-0.024-0.337-0.062-0.513-0.086
		c-0.649-0.126-1.324-0.264-2.049-0.426l-0.014-0.013c-0.449-0.101-0.924-0.225-1.412-0.35c-12.146-3.274-10.747-4.586-16.371-4.412
		c-2.512,0.088-4.586-0.475-6.148-1.149c-1.313,0.063-2.649,0.112-3.998,0.137c-14.512,0.288-23.322-3.698-30.619-8.311
		c-8.736-5.511-15.298-11.909-26.87-12.935c-3.224-0.275-6.323-0.563-9.323-0.85c2.699,1.725,6.023,4.337,9.948,8.336
		c11.21,11.423,16.847,8.86,17.046,9.11c0.213,0.238-3.438,3.387-13.609-4.012c-10.173-7.386-8.387-8.123-13.709-9.96
		c-2.888-1-4.838-2.65-6.037-4.049c-13.91-1.25-25.457-2.075-35.555-1.076c-19.896,1.988-33.414,13.135-43.625,12.148
		c-28.707-2.788-71.265,19.309-106.87,17.847v-24.059c0,0,23.745-1.712,55.526,1.4c13.873,1.362,29.682-8.985,48.428-5.425
		c14.922,2.825,23.807-9.96,27.807-13.947c4.524-4.524,11.022-8.11,13.647-13.521c6.037-12.436,4.725-11.998,7.761-14.635
		c3.274-2.85,8.036-5.774,13.297-6.611c0.4-1.175,1.4-2.837,3.787-4.737c4.6-3.674,2.725-6.424,2.824-6.486
		c0.113-0.063,2.075,1.874-0.612,5.523c-2.675,3.662-3.224,2.799-3.611,4.924c-0.025,0.175-0.075,0.313-0.125,0.45
		c5.411-0.7,11.348-0.987,17.559-1.212c0,0,1.425,0.725-1.774,1.25c-7.262,1.188-23.096,3.087-25.07,5.399
		c3.175-0.188,7.349-0.888,12.385,1.424c3.051,1.412,14.223,2.575,6.799,2.424c-11.947-0.237-12.109-2.487-17.508-0.85
		c-13.897,4.212-11.861,24.156-22.519,30.688c0,0,26.592-5.28,42.427-1.318c10.785,2.688,23.645-0.112,29.568,3.662
		c4.374,2.773,8.249,5.023,13.436,9.473c6.111,2.861,2.686,0.438,14.434,0.625c0.663,0.012,1.375,0.037,2.137,0.063
		c2.388,0.088,1.663,6.398,14.16,8.061c0.438,0.063,9.322,1.899,0.412,0.938c-17.421-1.874-12.572-9.461-19.633-6.024
		c-2.587,1.25-5.037,1.788-7.148,1.95c1.824,1.35,3.749,2.612,5.836,3.699c10.197,5.374,15.746,3.149,29.844,7.299
		c12.71,3.749,27.345-2.125,27.345-2.125l2.574-1.225c0.612-0.138-1.124,2.337-12.985,5.461c-0.199,0.051-0.387,0.101-0.6,0.15
		c-1.424,0.375-2.986,0.75-4.711,1.125c2.174,0.712,2.236,0.549,5.012,1.824c0.687,0.313,1.361,0.612,1.998,0.862
		c0.014,0.014,0.025,0.014,0.038,0.024c1.45,0.601,2.774,1.089,3.999,1.463c0.313,0.1,0.625,0.2,0.926,0.275
		c9.035,2.587,11.984-0.351,12.21-0.225C346.825,240.572,345.138,243.797,336.702,242.484z"/>
	<path fill="#674428" d="M298.07,212.002c-0.416-0.053-3.977,0.395-5.676,1.301c-7.395,3.945-12.982,3.707-12.982,3.707l6.785,0.928
		c0,0,4.01-2.813,5.52-2.708c1.511,0.104,2.604-1.51,3.125-1.979S298.07,212.002,298.07,212.002z"/>
	<path fill="#674428" d="M316.495,244.448c-0.187-0.376-2.522-3.099-4.216-4.016c-7.369-3.993-10.254-8.785-10.254-8.785v3.421
		c0,0,8.395,4.216,9.141,5.534c0.746,1.317,2.5,0.468,2.773,1.758C314.084,243.046,316.495,244.448,316.495,244.448z"/>
	<path fill="#674428" d="M327.104,234.061c0,0,0.188,0.325,0.6,0.875c-0.199,0.051-0.387,0.101-0.6,0.15V234.061z"/>
	<path fill="#674428" d="M341.25,246.596c-0.049-0.037-0.099-0.087-0.162-0.124c-0.112-0.101-0.236-0.2-0.374-0.301
		c-0.126-0.112-0.275-0.225-0.425-0.337l-0.238-0.188c-0.512-0.375-1.024-0.712-1.3-0.787c-0.687-0.176-2.637-0.2-3.374-1.525
		c-0.176-0.324-0.736-0.824-1.512-1.399l-0.014-0.013c-1.249-0.937-3.011-2.1-4.411-3c1.45,0.601,2.774,1.089,3.999,1.463
		c0.313,0.1,0.625,0.2,0.926,0.275l1.624,1.412l0.438,0.374L341.25,246.596z"/>
	<path fill="#674428" d="M333.439,240.385c0.963,0.7,2.051,1.412,3.263,2.1c0.212,0.125,0.425,0.237,0.649,0.362
		c1.675,0.899,3.962,3.55,4.188,3.986c0.024,0.013,0.024,0.026,0.024,0.026L333.439,240.385z"/>
	<path fill="#674428" d="M187.937,193.724c0,0,3.958-10.31-1.25-17.184c-5.208-6.874-1.875-9.79-1.875-9.79
		s-2.813,0.625-1.979,4.687c0.833,4.062,2.952,6.769,3.194,8.436c0.242,1.667,3.888,10.369-4.809,17.995L187.937,193.724z"/>
	<path fill="#674428" d="M219.154,173.702c0,0,2.109,2.5,6.014,4.218c0,0-4.295-3.046-3.904-4.218H219.154z"/>
	<path fill="#674428" d="M224.055,165.953c0,0,4.92,2.234,11.968,2.025c0,0-8.572-1.496-8.821-3.521L224.055,165.953z"/>
	<path fill="#674428" d="M105.037,230.019c0,0,0.781,4.068,22.964,4.999c0,0,20.153,9.945-0.885,2.864
		c-15.292-5.148-37.909,0.209-37.493-4.375C90.04,228.925,105.037,230.019,105.037,230.019z"/>
	<path fill="#9FBC3B" d="M182.913,167.145c0,0-11.129,0.119-6.956-11.208C175.958,155.937,183.866,158.599,182.913,167.145z"/>
	<path fill="#9FBC3B" d="M184.638,165.45c0,0-5.579-7.138,3.809-10.038C188.447,155.412,190.635,161.842,184.638,165.45z"/>
	<path fill="#9FBC3B" d="M218.869,155.412c0,0-11.129,0.119-6.955-11.208C211.914,144.204,219.824,146.866,218.869,155.412z"/>
	<path fill="#9FBC3B" d="M220.595,153.717c0,0-5.579-7.138,3.81-10.038C224.404,143.679,226.592,150.11,220.595,153.717z"/>
	<path fill="#9FBC3B" d="M218.286,158.346c0,0-4.921,5.626-8.726-1.533C209.561,156.813,214.434,154.045,218.286,158.346z"/>
	<path fill="#9FBC3B" d="M224.971,178.276c0,0,2.865,4.826-3.132,5.868C221.839,184.144,221.001,180.02,224.971,178.276z"/>
	<path fill="#9FBC3B" d="M225.168,177.212c0,0,4.763-5.763,8.766,1.288C233.934,178.5,229.141,181.404,225.168,177.212z"/>
	<path fill="#9FBC3B" d="M235.598,167.572c0,0-2.86-6.908,5.243-7.142C240.841,160.431,241.161,166.027,235.598,167.572z"/>
	<path fill="#9FBC3B" d="M236.25,168.103c0,0,6.246-5.283,9.189,3.086C245.439,171.188,239.715,173.387,236.25,168.103z"/>
	<path fill="#9FBC3B" d="M297.348,211.729c0,0-2.859-6.907,5.244-7.141C302.592,204.589,302.912,210.185,297.348,211.729z"/>
	<path fill="#9FBC3B" d="M298.001,212.26c0,0,6.246-5.282,9.19,3.086C307.191,215.346,301.466,217.545,298.001,212.26z"/>
	<path fill="#9FBC3B" d="M305.68,225.581c0,0-2.859-6.907,5.244-7.141C310.924,218.44,311.244,224.036,305.68,225.581z"/>
	<path fill="#9FBC3B" d="M306.332,226.111c0,0,6.246-5.283,9.19,3.086C315.522,229.197,309.797,231.396,306.332,226.111z"/>
	<path fill="#9FBC3B" d="M273.755,204.129c0,0-6.94,2.779-7.08-5.326C266.675,198.803,272.273,198.547,273.755,204.129z"/>
	<path fill="#9FBC3B" d="M273.755,204.2c0,0,4.834-5.704,8.749,1.396C282.504,205.596,277.675,208.44,273.755,204.2z"/>
	<path fill="#9FBC3B" d="M274.225,203.175c0,0-5.209-6.307,3.193-9.154C277.418,194.021,279.55,199.771,274.225,203.175z"/>
	<path fill="#9FBC3B" d="M260.607,234.592c0,0,7.382,1.18,3.339,8.205C263.946,242.797,259.01,240.143,260.607,234.592z"/>
	<path fill="#9FBC3B" d="M259.813,234.871c0,0,1.231,8.086-7.44,6.214C252.373,241.085,253.496,235.056,259.813,234.871z"/>
	<path fill="#9FBC3B" d="M339.527,229.991c0,0-2.86-6.907,5.244-7.142C344.771,222.85,345.092,228.445,339.527,229.991z"/>
	<path fill="#9FBC3B" d="M340.18,230.521c0,0,6.246-5.283,9.189,3.086C349.369,233.607,343.645,235.807,340.18,230.521z"/>
	<path fill="#9FBC3B" d="M346.918,240.574c0,0,0.047-4.811,4.904-2.906C351.822,237.668,350.602,241.063,346.918,240.574z"/>
	<path fill="#9FBC3B" d="M341.906,246.513c0,0,2.766-3.937,5.688,0.387C347.594,246.899,344.665,249.004,341.906,246.513z"/>
	<path fill="#9FBC3B" d="M346.918,241.118c0,0,7.902-2.113,6.995,6.712C353.913,247.83,347.797,247.376,346.918,241.118z"/>
	<path fill="#9FBC3B" d="M314.555,243.457c0,0,3.75,3.014-0.75,5.65C313.805,249.107,311.893,246.05,314.555,243.457z"/>
	<path fill="#9FBC3B" d="M314.129,243.121c0,0-3.23,7.516-9.602,1.341C304.527,244.462,308.669,239.939,314.129,243.121z"/>
	<path fill="#9FBC3B" d="M341.755,247.06c0,0,5.444,5.123-1.85,8.664C339.905,255.724,337.315,250.752,341.755,247.06z"/>
	<path fill="#9FBC3B" d="M340.942,246.844c0,0-3.527,7.382-9.647,0.958C331.295,247.802,335.613,243.446,340.942,246.844z"/>
	<path fill="#674428" d="M258.416,231.008c1.563,1.481,1.433,4.061,1.668,3.697c0.233-0.364-0.392-3.203,0-3.203
		C260.474,231.502,258.416,231.008,258.416,231.008z"/>
	<path fill="#9FBC3B" d="M137.078,240.086c0,0,2.867-6.904,8.758-1.335C145.836,238.751,142.103,242.932,137.078,240.086z"/>
	<path fill="#9FBC3B" d="M134.947,232.065c0,0-2.606-4.334,2.792-5.303C137.739,226.763,138.515,230.474,134.947,232.065z"/>
	<path fill="#9FBC3B" d="M135.497,232.788c0,0,2.155-4.575,5.96-0.626C141.457,232.162,138.802,234.871,135.497,232.788z"/>
	<path fill="#9FBC3B" d="M137.163,240.922c0,0,8.152,0.688,4.31,8.684C141.473,249.605,135.871,247.107,137.163,240.922z"/>
	<path fill="#674428" d="M127.229,236.835c6.161-2.286,8.387-3.959,7.534-3.952c-0.855,0.008-6.822,2.413-6.933,2.038
		C127.72,234.546,127.229,236.835,127.229,236.835z"/>
	<path fill="#674428" d="M245.439,204.529c0,0,10.27-2.631,18.549-0.678c8.28,1.953,9.217,0.678,9.217,0.678s0.965-0.041,0.34,0.408
		c-0.626,0.45-1.406,2.533-8.28,0.814c-6.874-1.718-8.488-1.875-9.426-0.677c-0.937,1.198-1.665,1.927-1.665,1.927L245.439,204.529z
		"/>
</g>
</svg>
