<?xml version="1.0" encoding="UTF-8" standalone="no"?>
<svg
   xmlns:dc="http://purl.org/dc/elements/1.1/"
   xmlns:cc="http://creativecommons.org/ns#"
   xmlns:rdf="http://www.w3.org/1999/02/22-rdf-syntax-ns#"
   xmlns:svg="http://www.w3.org/2000/svg"
   xmlns="http://www.w3.org/2000/svg"
   version="1.1"
   id="Layer_1"
   x="0px"
   y="0px"
   width="310.9603"
   height="101.64635"
   viewBox="0 0 310.9603 101.64635"
   enable-background="new 0 0 400 400"
   xml:space="preserve"><metadata
   id="metadata629"><rdf:RDF><cc:Work
       rdf:about=""><dc:format>image/svg+xml</dc:format><dc:type
         rdf:resource="http://purl.org/dc/dcmitype/StillImage" /><dc:title></dc:title></cc:Work></rdf:RDF></metadata><defs
   id="defs627" />
<g
   id="g622"
   transform="translate(-44.833,-148.76399)">
	<path
   fill="#674428"
   d="m 180.433,209.008 c 0,0 17.04,1.004 61.045,4.197 23.964,1.739 19.388,1.816 31.136,2.003 0.662,0.013 12.971,-2.96 13.733,-2.935 2.388,0.087 0.085,0.426 0.085,0.426 -6.206,0.868 -10.184,4.336 -12.295,4.496 1.824,1.351 3.749,2.614 5.836,3.701 10.198,5.374 15.746,3.149 29.844,7.299 12.71,3.75 19.222,0.541 16.935,2.111 -0.17,0.116 -0.388,0.1 -0.601,0.151 -1.424,0.373 -2.986,0.748 -4.711,1.124 2.175,0.712 2.237,0.551 5.013,1.823 0.687,0.313 1.361,0.613 1.999,0.862 0.012,0.015 0.024,0.015 0.037,0.025 1.45,0.6 2.774,1.089 3.999,1.462 0.313,0.102 0.625,0.2 0.925,0.274 9.035,2.589 11.985,-0.349 12.21,-0.223 0.25,0.137 -1.438,3.36 -9.873,2.049 -0.088,-0.013 -0.188,-0.025 -0.275,-0.037 -0.174,-0.025 -0.337,-0.063 -0.513,-0.087 -0.649,-0.126 -1.324,-0.264 -2.048,-0.425 l -0.014,-0.015 c -0.449,-0.099 -0.919,-0.25 -1.412,-0.349 -6.746,-1.345 -6.277,-2.544 -11.224,-3.688 -3.143,-0.729 -36.849,-6.823 -45.914,-10.047 -9.732,-3.46 -16.21,-2.705 -27.782,-3.73 -3.224,-0.276 -6.323,-0.563 -9.323,-0.851 2.699,1.725 16.588,5.748 20.951,9.129 7.412,5.744 -5.018,-2.903 -27.313,-9.704 -13.909,-1.25 -25.457,-2.075 -35.554,-1.073 -19.896,1.986 -114.891,31.455 -150.496,29.992 v -24.057 c 0,0 23.746,-1.712 55.526,1.398 13.873,1.364 29.439,-3.545 48.429,-5.424 15.744,-1.559 23.174,-7.018 28.301,-9.704 2.581,-1.353 2.946,-3.001 3.345,-4.181 1.104,-3.271 2.552,-9.345 2.552,-9.345 0.572,0.004 0.285,3.671 -2.553,13.353 z"
   id="path2" />
	<g
   id="g28">
		<path
   fill="#f15a34"
   d="m 172.547,186.317 c 0,0 6.036,0.542 5.935,2.544 -0.102,1.989 -5.935,-2.544 -5.935,-2.544 z"
   id="path4" />
		<path
   fill="#f47d2d"
   d="m 171.379,185.922 c 0,0 4.299,-1.979 5.476,-0.695 1.169,1.274 -5.476,0.695 -5.476,0.695 z"
   id="path6" />
		<path
   fill="#f15a34"
   d="m 171.308,185.965 c 0,0 4.24,2.105 3.979,3.83 -0.263,1.709 -3.979,-3.83 -3.979,-3.83 z"
   id="path8" />
		<path
   fill="#f15a34"
   d="m 169.354,185.807 c 0,0 4.139,2.294 3.803,4.004 -0.336,1.697 -3.803,-4.004 -3.803,-4.004 z"
   id="path10" />
		<path
   fill="#f15a34"
   d="m 167.698,186.028 c 0,0 4.078,2.402 3.698,4.102 -0.381,1.688 -3.698,-4.102 -3.698,-4.102 z"
   id="path12" />
		<path
   fill="#f15a34"
   d="m 165.203,186.789 c 0,0 4.358,1.846 4.202,3.581 -0.156,1.724 -4.202,-3.581 -4.202,-3.581 z"
   id="path14" />
		<path
   fill="#f15a34"
   d="m 162.905,187.671 c 0,0 4.614,1.043 4.771,2.78 0.15,1.721 -4.771,-2.78 -4.771,-2.78 z"
   id="path16" />
		<path
   fill="#f47d2d"
   d="m 169.394,185.712 c 0,0 3.577,-3.102 5.066,-2.197 1.478,0.9 -5.066,2.197 -5.066,2.197 z"
   id="path18" />
		<path
   fill="#f47d2d"
   d="m 167.683,186.001 c 0,0 2.063,-4.258 3.792,-4.012 1.713,0.242 -3.792,4.012 -3.792,4.012 z"
   id="path20" />
		<path
   fill="#f47d2d"
   d="m 162.903,187.818 c 0,0 0.457,-4.71 2.163,-5.079 1.693,-0.365 -2.163,5.079 -2.163,5.079 z"
   id="path22" />
		<path
   fill="#f47d2d"
   d="m 165.203,186.789 c 0,0 1.422,-5 3.336,-5.063 1.901,-0.062 -3.336,5.063 -3.336,5.063 z"
   id="path24" />
		<path
   fill="#674428"
   d="m 159.23,190.462 c 0,0 7.278,-6.995 13.104,-4.225 0,0 -5.669,-2.166 -12.886,4.602 z"
   id="path26" />
	</g>
	<g
   id="g54">
		<path
   fill="#f15a34"
   d="m 145.14,182.168 c 0,0 -3.726,-6.538 -1.612,-7.854 2.101,-1.308 1.612,7.854 1.612,7.854 z"
   id="path30" />
		<path
   fill="#f47d2d"
   d="m 145.565,183.639 c 0,0 -5.066,-2.979 -4.59,-5.093 0.472,-2.096 4.59,5.093 4.59,5.093 z"
   id="path32" />
		<path
   fill="#f15a34"
   d="m 145.656,183.681 c 0,0 -0.854,-5.816 1.087,-6.769 1.931,-0.948 -1.087,6.769 -1.087,6.769 z"
   id="path34" />
		<path
   fill="#f15a34"
   d="m 146.883,185.788 c 0,0 -0.596,-5.851 1.39,-6.717 1.968,-0.861 -1.39,6.717 -1.39,6.717 z"
   id="path36" />
		<path
   fill="#f15a34"
   d="m 148.281,187.319 c 0,0 -0.439,-5.864 1.565,-6.679 1.992,-0.806 -1.565,6.679 -1.565,6.679 z"
   id="path38" />
		<path
   fill="#f15a34"
   d="m 150.825,189.325 c 0,0 -1.206,-5.753 0.675,-6.822 1.868,-1.062 -0.675,6.822 -0.675,6.822 z"
   id="path40" />
		<path
   fill="#f15a34"
   d="m 153.356,191.045 c 0,0 -2.21,-5.448 -0.548,-6.834 1.65,-1.378 0.548,6.834 0.548,6.834 z"
   id="path42" />
		<path
   fill="#f47d2d"
   d="m 146.755,185.816 c 0,0 -5.695,-1.45 -5.828,-3.611 -0.131,-2.148 5.828,3.611 5.828,3.611 z"
   id="path44" />
		<path
   fill="#f47d2d"
   d="m 148.262,187.356 c 0,0 -5.806,0.911 -6.778,-1.024 -0.966,-1.922 6.778,1.024 6.778,1.024 z"
   id="path46" />
		<path
   fill="#f47d2d"
   d="m 153.504,190.945 c 0,0 -5.129,2.869 -6.713,1.392 -1.571,-1.467 6.713,-1.392 6.713,-1.392 z"
   id="path48" />
		<path
   fill="#f47d2d"
   d="m 150.825,189.325 c 0,0 -6.108,2.094 -7.527,0.186 -1.412,-1.895 7.527,-0.186 7.527,-0.186 z"
   id="path50" />
		<path
   fill="#674428"
   d="m 158.806,192.817 c 0,0 -12.295,-2.466 -13.596,-10.375 0,0 1.807,7.318 13.825,9.884 z"
   id="path52" />
	</g>
	<g
   id="g80">
		<path
   fill="#f15a34"
   d="m 156.504,178.097 c 0,0 1.479,-6.073 3.505,-5.663 2.012,0.409 -3.505,5.663 -3.505,5.663 z"
   id="path56" />
		<path
   fill="#f47d2d"
   d="m 155.923,179.229 c 0,0 -1.361,-4.689 0.131,-5.693 1.48,-0.998 -0.131,5.693 -0.131,5.693 z"
   id="path58" />
		<path
   fill="#f15a34"
   d="m 155.953,179.306 c 0,0 2.799,-4.001 4.517,-3.47 1.705,0.529 -4.517,3.47 -4.517,3.47 z"
   id="path60" />
		<path
   fill="#f15a34"
   d="m 155.494,181.277 c 0,0 2.975,-3.873 4.666,-3.265 1.681,0.603 -4.666,3.265 -4.666,3.265 z"
   id="path62" />
		<path
   fill="#f15a34"
   d="m 155.465,182.996 c 0,0 3.077,-3.789 4.753,-3.139 1.662,0.647 -4.753,3.139 -4.753,3.139 z"
   id="path64" />
		<path
   fill="#f15a34"
   d="m 155.857,185.661 c 0,0 2.553,-4.161 4.297,-3.736 1.736,0.424 -4.297,3.736 -4.297,3.736 z"
   id="path66" />
		<path
   fill="#f15a34"
   d="m 156.405,188.141 c 0,0 1.771,-4.549 3.566,-4.44 1.781,0.109 -3.566,4.44 -3.566,4.44 z"
   id="path68" />
		<path
   fill="#f47d2d"
   d="m 155.4,181.221 c 0,0 -2.613,-4.124 -1.46,-5.505 1.144,-1.369 1.46,5.505 1.46,5.505 z"
   id="path70" />
		<path
   fill="#f47d2d"
   d="m 155.433,183.011 c 0,0 -4.025,-2.76 -3.511,-4.483 0.514,-1.713 3.511,4.483 3.511,4.483 z"
   id="path72" />
		<path
   fill="#f47d2d"
   d="m 156.553,188.166 c 0,0 -4.734,-1.191 -4.85,-2.987 -0.11,-1.783 4.85,2.987 4.85,2.987 z"
   id="path74" />
		<path
   fill="#f47d2d"
   d="m 155.857,185.661 c 0,0 -4.881,-2.219 -4.651,-4.181 0.228,-1.947 4.651,4.181 4.651,4.181 z"
   id="path76" />
		<path
   fill="#674428"
   d="m 158.686,192.318 c 0,0 -6.018,-8.499 -2.295,-14.016 0,0 -3.082,5.449 2.714,13.852 z"
   id="path78" />
	</g>
	<g
   id="g106">
		<path
   fill="#f15a34"
   d="m 221.159,172.448 c 0,0 6.036,0.542 5.934,2.543 -0.101,1.989 -5.934,-2.543 -5.934,-2.543 z"
   id="path82" />
		<path
   fill="#f47d2d"
   d="m 219.99,172.053 c 0,0 4.3,-1.979 5.477,-0.695 1.169,1.273 -5.477,0.695 -5.477,0.695 z"
   id="path84" />
		<path
   fill="#f15a34"
   d="m 219.919,172.095 c 0,0 4.24,2.105 3.979,3.83 -0.261,1.709 -3.979,-3.83 -3.979,-3.83 z"
   id="path86" />
		<path
   fill="#f15a34"
   d="m 217.967,171.937 c 0,0 4.138,2.294 3.802,4.004 -0.335,1.697 -3.802,-4.004 -3.802,-4.004 z"
   id="path88" />
		<path
   fill="#f15a34"
   d="m 216.311,172.158 c 0,0 4.078,2.402 3.697,4.102 -0.382,1.688 -3.697,-4.102 -3.697,-4.102 z"
   id="path90" />
		<path
   fill="#f15a34"
   d="m 213.815,172.919 c 0,0 4.357,1.847 4.202,3.582 -0.157,1.723 -4.202,-3.582 -4.202,-3.582 z"
   id="path92" />
		<path
   fill="#f15a34"
   d="m 211.518,173.801 c 0,0 4.614,1.043 4.771,2.78 0.149,1.721 -4.771,-2.78 -4.771,-2.78 z"
   id="path94" />
		<path
   fill="#f47d2d"
   d="m 218.005,171.842 c 0,0 3.578,-3.102 5.066,-2.197 1.479,0.9 -5.066,2.197 -5.066,2.197 z"
   id="path96" />
		<path
   fill="#f47d2d"
   d="m 216.295,172.131 c 0,0 2.063,-4.258 3.792,-4.012 1.713,0.242 -3.792,4.012 -3.792,4.012 z"
   id="path98" />
		<path
   fill="#f47d2d"
   d="m 211.515,173.948 c 0,0 0.457,-4.71 2.163,-5.079 1.693,-0.366 -2.163,5.079 -2.163,5.079 z"
   id="path100" />
		<path
   fill="#f47d2d"
   d="m 213.815,172.919 c 0,0 1.421,-5 3.336,-5.063 1.901,-0.062 -3.336,5.063 -3.336,5.063 z"
   id="path102" />
		<path
   fill="#674428"
   d="m 207.842,176.592 c 0,0 7.279,-6.996 13.104,-4.225 0,0 -5.669,-2.166 -12.886,4.603 z"
   id="path104" />
	</g>
	<g
   id="g132">
		<path
   fill="#f15a34"
   d="m 255.278,186.128 c 0,0 6.036,0.542 5.934,2.543 -0.101,1.989 -5.934,-2.543 -5.934,-2.543 z"
   id="path108" />
		<path
   fill="#f47d2d"
   d="m 254.109,185.733 c 0,0 4.299,-1.979 5.477,-0.695 1.169,1.274 -5.477,0.695 -5.477,0.695 z"
   id="path110" />
		<path
   fill="#f15a34"
   d="m 254.038,185.775 c 0,0 4.24,2.105 3.979,3.83 -0.261,1.709 -3.979,-3.83 -3.979,-3.83 z"
   id="path112" />
		<path
   fill="#f15a34"
   d="m 252.086,185.617 c 0,0 4.138,2.294 3.802,4.004 -0.335,1.697 -3.802,-4.004 -3.802,-4.004 z"
   id="path114" />
		<path
   fill="#f15a34"
   d="m 250.43,185.838 c 0,0 4.078,2.402 3.697,4.102 -0.382,1.688 -3.697,-4.102 -3.697,-4.102 z"
   id="path116" />
		<path
   fill="#f15a34"
   d="m 247.935,186.599 c 0,0 4.357,1.846 4.202,3.581 -0.158,1.724 -4.202,-3.581 -4.202,-3.581 z"
   id="path118" />
		<path
   fill="#f15a34"
   d="m 245.637,187.481 c 0,0 4.614,1.043 4.771,2.78 0.15,1.721 -4.771,-2.78 -4.771,-2.78 z"
   id="path120" />
		<path
   fill="#f47d2d"
   d="m 252.124,185.522 c 0,0 3.578,-3.102 5.066,-2.197 1.479,0.9 -5.066,2.197 -5.066,2.197 z"
   id="path122" />
		<path
   fill="#f47d2d"
   d="m 250.414,185.811 c 0,0 2.063,-4.258 3.791,-4.012 1.714,0.242 -3.791,4.012 -3.791,4.012 z"
   id="path124" />
		<path
   fill="#f47d2d"
   d="m 245.634,187.628 c 0,0 0.457,-4.71 2.163,-5.079 1.692,-0.365 -2.163,5.079 -2.163,5.079 z"
   id="path126" />
		<path
   fill="#f47d2d"
   d="m 247.935,186.599 c 0,0 1.421,-5 3.336,-5.063 1.9,-0.062 -3.336,5.063 -3.336,5.063 z"
   id="path128" />
		<path
   fill="#674428"
   d="m 241.961,190.272 c 0,0 7.279,-6.995 13.104,-4.225 0,0 -5.669,-2.166 -12.886,4.602 z"
   id="path130" />
	</g>
	<g
   id="g158">
		<path
   fill="#f15a34"
   d="m 268.136,200.711 c 0,0 7.25,0.542 7.128,2.543 -0.122,1.99 -7.128,-2.543 -7.128,-2.543 z"
   id="path134" />
		<path
   fill="#f47d2d"
   d="m 266.732,200.316 c 0,0 5.163,-1.979 6.577,-0.695 1.406,1.274 -6.577,0.695 -6.577,0.695 z"
   id="path136" />
		<path
   fill="#f15a34"
   d="m 266.646,200.358 c 0,0 5.094,2.105 4.78,3.83 -0.314,1.709 -4.78,-3.83 -4.78,-3.83 z"
   id="path138" />
		<path
   fill="#f15a34"
   d="m 264.302,200.201 c 0,0 4.97,2.293 4.566,4.004 -0.403,1.696 -4.566,-4.004 -4.566,-4.004 z"
   id="path140" />
		<path
   fill="#f15a34"
   d="m 262.312,200.421 c 0,0 4.898,2.403 4.441,4.102 -0.458,1.689 -4.441,-4.102 -4.441,-4.102 z"
   id="path142" />
		<path
   fill="#f15a34"
   d="m 259.315,201.183 c 0,0 5.233,1.847 5.047,3.581 -0.189,1.723 -5.047,-3.581 -5.047,-3.581 z"
   id="path144" />
		<path
   fill="#f15a34"
   d="m 256.555,202.064 c 0,0 5.542,1.043 5.731,2.779 0.179,1.723 -5.731,-2.779 -5.731,-2.779 z"
   id="path146" />
		<path
   fill="#f47d2d"
   d="m 264.348,200.106 c 0,0 4.297,-3.102 6.086,-2.197 1.774,0.9 -6.086,2.197 -6.086,2.197 z"
   id="path148" />
		<path
   fill="#f47d2d"
   d="m 262.293,200.395 c 0,0 2.478,-4.258 4.554,-4.012 2.058,0.242 -4.554,4.012 -4.554,4.012 z"
   id="path150" />
		<path
   fill="#f47d2d"
   d="m 256.552,202.212 c 0,0 0.549,-4.71 2.599,-5.079 2.033,-0.366 -2.599,5.079 -2.599,5.079 z"
   id="path152" />
		<path
   fill="#f47d2d"
   d="m 259.315,201.183 c 0,0 1.707,-5 4.006,-5.063 2.283,-0.062 -4.006,5.063 -4.006,5.063 z"
   id="path154" />
		<path
   fill="#674428"
   d="m 252.141,204.855 c 0,0 8.742,-6.995 15.738,-4.225 0,0 -6.808,-2.166 -15.478,4.603 z"
   id="path156" />
	</g>
	<g
   id="g184">
		<path
   fill="#f15a34"
   d="m 231.649,197.498 c 0,0 6.436,-3.382 7.393,-1.62 0.95,1.75 -7.393,1.62 -7.393,1.62 z"
   id="path160" />
		<path
   fill="#f47d2d"
   d="m 230.25,197.907 c 0,0 3.33,-4.416 5.21,-4.075 1.866,0.335 -5.21,4.075 -5.21,4.075 z"
   id="path162" />
		<path
   fill="#f15a34"
   d="m 230.2,197.987 c 0,0 5.436,-0.913 6.083,0.716 0.639,1.615 -6.083,-0.716 -6.083,-0.716 z"
   id="path164" />
		<path
   fill="#f15a34"
   d="m 228.128,199.097 c 0,0 5.43,-0.689 5.994,0.975 0.558,1.653 -5.994,-0.975 -5.994,-0.975 z"
   id="path166" />
		<path
   fill="#f15a34"
   d="m 226.557,200.338 c 0,0 5.428,-0.558 5.941,1.125 0.505,1.676 -5.941,-1.125 -5.941,-1.125 z"
   id="path168" />
		<path
   fill="#f15a34"
   d="m 224.42,202.572 c 0,0 5.416,-1.208 6.177,0.361 0.754,1.563 -6.177,-0.361 -6.177,-0.361 z"
   id="path170" />
		<path
   fill="#f15a34"
   d="m 222.546,204.782 c 0,0 5.253,-2.052 6.332,-0.68 1.064,1.365 -6.332,0.68 -6.332,0.68 z"
   id="path172" />
		<path
   fill="#f47d2d"
   d="m 228.116,198.992 c 0,0 2.001,-4.908 3.997,-5.088 1.982,-0.177 -3.997,5.088 -3.997,5.088 z"
   id="path174" />
		<path
   fill="#f47d2d"
   d="m 226.526,200.326 c 0,0 -0.154,-4.924 1.736,-5.816 1.875,-0.885 -1.736,5.816 -1.736,5.816 z"
   id="path176" />
		<path
   fill="#f47d2d"
   d="m 222.622,204.909 c 0,0 -2.031,-4.286 -0.488,-5.684 1.529,-1.387 0.488,5.684 0.488,5.684 z"
   id="path178" />
		<path
   fill="#f47d2d"
   d="m 224.42,202.572 c 0,0 -1.203,-5.146 0.713,-6.418 1.904,-1.262 -0.713,6.418 -0.713,6.418 z"
   id="path180" />
		<path
   fill="#674428"
   d="m 220.281,209.488 c 0,0 3.707,-10.564 11.108,-11.923 0,0 -6.922,1.771 -10.688,12.104 z"
   id="path182" />
	</g>
	<g
   id="g210">
		<path
   fill="#f15a34"
   d="m 242.78,171.258 c 0,0 2.82,-5.363 4.629,-4.5 1.797,0.857 -4.629,4.5 -4.629,4.5 z"
   id="path186" />
		<path
   fill="#f47d2d"
   d="m 241.967,172.186 c 0,0 -0.176,-4.729 1.462,-5.322 1.626,-0.591 -1.462,5.322 -1.462,5.322 z"
   id="path188" />
		<path
   fill="#f15a34"
   d="m 241.978,172.269 c 0,0 3.573,-3.106 5.065,-2.202 1.478,0.897 -5.065,2.202 -5.065,2.202 z"
   id="path190" />
		<path
   fill="#f15a34"
   d="m 241.081,174.009 c 0,0 3.709,-2.938 5.158,-1.971 1.439,0.962 -5.158,1.971 -5.158,1.971 z"
   id="path192" />
		<path
   fill="#f15a34"
   d="m 240.649,175.624 c 0,0 3.785,-2.842 5.208,-1.837 1.412,1.001 -5.208,1.837 -5.208,1.837 z"
   id="path194" />
		<path
   fill="#f15a34"
   d="m 240.393,178.22 c 0,0 3.38,-3.313 4.921,-2.503 1.531,0.807 -4.921,2.503 -4.921,2.503 z"
   id="path196" />
		<path
   fill="#f15a34"
   d="m 240.323,180.681 c 0,0 2.736,-3.859 4.4,-3.337 1.648,0.523 -4.4,3.337 -4.4,3.337 z"
   id="path198" />
		<path
   fill="#f47d2d"
   d="m 241.009,173.938 c 0,0 -1.488,-4.495 -0.081,-5.521 1.398,-1.019 0.081,5.521 0.081,5.521 z"
   id="path200" />
		<path
   fill="#f47d2d"
   d="m 240.618,175.628 c 0,0 -3.138,-3.541 -2.246,-5.043 0.882,-1.488 2.246,5.043 2.246,5.043 z"
   id="path202" />
		<path
   fill="#f47d2d"
   d="m 240.46,180.738 c 0,0 -4.174,-2.232 -3.858,-3.948 0.312,-1.703 3.858,3.948 3.858,3.948 z"
   id="path204" />
		<path
   fill="#f47d2d"
   d="m 240.393,178.22 c 0,0 -4.07,-3.233 -3.393,-5.025 0.674,-1.78 3.393,5.025 3.393,5.025 z"
   id="path206" />
		<path
   fill="#674428"
   d="m 241.487,185.146 c 0,0 -3.66,-9.409 1.136,-13.721 0,0 -4.178,4.401 -0.703,13.666 z"
   id="path208" />
	</g>
	<g
   id="g236">
		<path
   fill="#f15a34"
   d="m 308.311,220.838 c 0,0 5.177,3.151 4.202,4.901 -0.969,1.74 -4.202,-4.901 -4.202,-4.901 z"
   id="path212" />
		<path
   fill="#f47d2d"
   d="m 307.438,219.968 c 0,0 4.731,0.121 5.22,1.793 0.487,1.66 -5.22,-1.793 -5.22,-1.793 z"
   id="path214" />
		<path
   fill="#f15a34"
   d="m 307.354,219.975 c 0,0 2.875,3.761 1.88,5.192 -0.989,1.418 -1.88,-5.192 -1.88,-5.192 z"
   id="path216" />
		<path
   fill="#f15a34"
   d="m 305.671,218.971 c 0,0 2.702,3.885 1.645,5.271 -1.05,1.374 -1.645,-5.271 -1.645,-5.271 z"
   id="path218" />
		<path
   fill="#f15a34"
   d="m 304.088,218.438 c 0,0 2.6,3.956 1.507,5.313 -1.087,1.347 -1.507,-5.313 -1.507,-5.313 z"
   id="path220" />
		<path
   fill="#f15a34"
   d="m 301.514,218.02 c 0,0 3.096,3.581 2.189,5.068 -0.901,1.476 -2.189,-5.068 -2.189,-5.068 z"
   id="path222" />
		<path
   fill="#f15a34"
   d="m 299.062,217.796 c 0,0 3.681,2.973 3.055,4.601 -0.626,1.611 -3.055,-4.601 -3.055,-4.601 z"
   id="path224" />
		<path
   fill="#f47d2d"
   d="m 305.748,218.902 c 0,0 4.579,-1.203 5.516,0.266 0.929,1.46 -5.516,-0.266 -5.516,-0.266 z"
   id="path226" />
		<path
   fill="#f47d2d"
   d="m 304.086,218.406 c 0,0 3.73,-2.909 5.174,-1.926 1.429,0.973 -5.174,1.926 -5.174,1.926 z"
   id="path228" />
		<path
   fill="#f47d2d"
   d="m 298.995,217.928 c 0,0 2.489,-4.025 4.183,-3.603 1.68,0.419 -4.183,3.603 -4.183,3.603 z"
   id="path230" />
		<path
   fill="#f47d2d"
   d="m 301.514,218.02 c 0,0 3.482,-3.86 5.229,-3.071 1.732,0.783 -5.229,3.071 -5.229,3.071 z"
   id="path232" />
		<path
   fill="#674428"
   d="m 294.532,218.678 c 0,0 9.619,-3.063 13.623,1.994 0,0 -4.131,-4.447 -13.595,-1.559 z"
   id="path234" />
	</g>
	<g
   id="g262">
		<path
   fill="#f15a34"
   d="m 319.763,247.029 c 0,0 5.507,2.53 6.414,0.744 0.9,-1.776 -6.414,-0.744 -6.414,-0.744 z"
   id="path238" />
		<path
   fill="#f47d2d"
   d="m 318.553,246.792 c 0,0 2.746,3.853 4.405,3.325 1.648,-0.524 -4.405,-3.325 -4.405,-3.325 z"
   id="path240" />
		<path
   fill="#f15a34"
   d="m 318.513,246.72 c 0,0 4.726,0.28 5.355,-1.346 0.623,-1.613 -5.355,1.346 -5.355,1.346 z"
   id="path242" />
		<path
   fill="#f15a34"
   d="m 316.74,245.884 c 0,0 4.729,0.068 5.289,-1.582 0.553,-1.64 -5.289,1.582 -5.289,1.582 z"
   id="path244" />
		<path
   fill="#f15a34"
   d="m 315.412,244.869 c 0,0 4.732,-0.056 5.247,-1.721 0.51,-1.654 -5.247,1.721 -5.247,1.721 z"
   id="path246" />
		<path
   fill="#f15a34"
   d="m 313.626,242.969 c 0,0 4.699,0.565 5.427,-1.017 0.719,-1.574 -5.427,1.017 -5.427,1.017 z"
   id="path248" />
		<path
   fill="#f15a34"
   d="m 312.07,241.061 c 0,0 4.522,1.391 5.521,-0.039 0.987,-1.419 -5.521,0.039 -5.521,0.039 z"
   id="path250" />
		<path
   fill="#f47d2d"
   d="m 316.726,245.985 c 0,0 1.563,4.47 3.304,4.425 1.729,-0.046 -3.304,-4.425 -3.304,-4.425 z"
   id="path252" />
		<path
   fill="#f47d2d"
   d="m 315.386,244.886 c 0,0 -0.327,4.72 1.294,5.367 1.607,0.64 -1.294,-5.367 -1.294,-5.367 z"
   id="path254" />
		<path
   fill="#f47d2d"
   d="m 312.142,240.933 c 0,0 -1.945,4.313 -0.648,5.481 1.286,1.159 0.648,-5.481 0.648,-5.481 z"
   id="path256" />
		<path
   fill="#f47d2d"
   d="m 313.626,242.969 c 0,0 -1.253,5.046 0.376,6.053 1.62,0.998 -0.376,-6.053 -0.376,-6.053 z"
   id="path258" />
		<path
   fill="#674428"
   d="m 310.269,236.812 c 0,0 2.839,9.689 9.27,10.181 0,0 -5.996,-0.939 -8.892,-10.399 z"
   id="path260" />
	</g>
	<g
   id="g288">
		<path
   fill="#f15a34"
   d="m 337.941,226.764 c 0,0 5.479,-2.591 4.692,-4.435 -0.779,-1.832 -4.692,4.435 -4.692,4.435 z"
   id="path264" />
		<path
   fill="#f47d2d"
   d="m 336.98,227.537 c 0,0 4.718,0.374 5.38,-1.236 0.659,-1.6 -5.38,1.236 -5.38,1.236 z"
   id="path266" />
		<path
   fill="#f15a34"
   d="m 336.9,227.521 c 0,0 3.252,-3.438 2.412,-4.966 -0.834,-1.515 -2.412,4.966 -2.412,4.966 z"
   id="path268" />
		<path
   fill="#f15a34"
   d="m 335.121,228.343 c 0,0 3.094,-3.579 2.188,-5.069 -0.901,-1.479 -2.188,5.069 -2.188,5.069 z"
   id="path270" />
		<path
   fill="#f15a34"
   d="m 333.49,228.707 c 0,0 3,-3.661 2.056,-5.125 -0.94,-1.454 -2.056,5.125 -2.056,5.125 z"
   id="path272" />
		<path
   fill="#f15a34"
   d="m 330.886,228.854 c 0,0 3.453,-3.237 2.71,-4.811 -0.743,-1.564 -2.71,4.811 -2.71,4.811 z"
   id="path274" />
		<path
   fill="#f15a34"
   d="m 328.425,228.818 c 0,0 3.972,-2.57 3.519,-4.255 -0.453,-1.667 -3.519,4.255 -3.519,4.255 z"
   id="path276" />
		<path
   fill="#f47d2d"
   d="m 335.189,228.419 c 0,0 4.428,1.678 5.513,0.314 1.077,-1.354 -5.513,-0.314 -5.513,-0.314 z"
   id="path278" />
		<path
   fill="#f47d2d"
   d="m 333.484,228.736 c 0,0 3.404,3.285 4.943,2.46 1.524,-0.819 -4.943,-2.46 -4.943,-2.46 z"
   id="path280" />
		<path
   fill="#f47d2d"
   d="m 328.371,228.68 c 0,0 2.054,4.264 3.781,4.022 1.717,-0.241 -3.781,-4.022 -3.781,-4.022 z"
   id="path282" />
		<path
   fill="#f47d2d"
   d="m 330.886,228.854 c 0,0 3.059,4.203 4.877,3.604 1.805,-0.6 -4.877,-3.604 -4.877,-3.604 z"
   id="path284" />
		<path
   fill="#674428"
   d="m 337.742,226.935 c -0.18,0.191 -0.369,0.36 -0.57,0.508 -0.032,0.042 -0.074,0.074 -0.117,0.095 -0.422,0.328 -0.876,0.592 -1.351,0.803 -0.106,0.054 -0.212,0.096 -0.328,0.138 -0.443,0.18 -0.897,0.306 -1.362,0.401 -0.105,0.021 -0.212,0.042 -0.317,0.063 -0.749,0.137 -1.521,0.179 -2.281,0.158 -0.115,0.011 -0.232,0 -0.349,-0.011 -0.865,-0.031 -1.722,-0.138 -2.514,-0.285 -0.021,0 -0.053,-0.01 -0.084,-0.01 0,-0.012 -0.011,-0.012 -0.021,-0.012 0,0 -0.011,0 -0.021,0 -0.771,-0.147 -1.499,-0.338 -2.122,-0.517 -0.17,-0.053 -0.339,-0.106 -0.496,-0.159 0.115,-0.053 0.231,-0.116 0.349,-0.169 0.052,-0.021 0.104,-0.053 0.157,-0.073 0.159,0.053 0.316,0.095 0.476,0.137 0.645,0.19 1.258,0.327 1.838,0.434 0.095,0.021 0.19,0.042 0.274,0.053 0.729,0.127 1.405,0.189 2.038,0.211 0.032,0.011 0.074,0.011 0.106,0.011 0.908,0.032 1.731,-0.021 2.461,-0.138 0.042,0 0.073,0 0.105,-0.011 0.57,-0.095 1.088,-0.211 1.542,-0.359 0.042,-0.01 0.084,-0.021 0.116,-0.03 0.676,-0.223 1.226,-0.466 1.627,-0.688 h 0.01 c 0.021,-0.01 0.043,-0.021 0.053,-0.032 0.433,-0.243 0.696,-0.444 0.781,-0.518 z"
   id="path286" />
	</g>
	<g
   id="g314">
		<path
   fill="#f15a34"
   d="m 288.212,192.585 c 0,0 4.555,-3.998 5.935,-2.544 1.37,1.444 -5.935,2.544 -5.935,2.544 z"
   id="path290" />
		<path
   fill="#f47d2d"
   d="m 287.12,193.159 c 0,0 1.53,-4.479 3.272,-4.445 1.729,0.032 -3.272,4.445 -3.272,4.445 z"
   id="path292" />
		<path
   fill="#f15a34"
   d="m 287.103,193.24 c 0,0 4.447,-1.619 5.516,-0.241 1.058,1.368 -5.516,0.241 -5.516,0.241 z"
   id="path294" />
		<path
   fill="#f15a34"
   d="m 285.642,194.546 c 0,0 4.514,-1.416 5.521,0.006 0.997,1.414 -5.521,-0.006 -5.521,-0.006 z"
   id="path296" />
		<path
   fill="#f15a34"
   d="m 284.659,195.897 c 0,0 4.552,-1.297 5.52,0.151 0.962,1.44 -5.52,-0.151 -5.52,-0.151 z"
   id="path298" />
		<path
   fill="#f15a34"
   d="m 283.49,198.229 c 0,0 4.343,-1.883 5.491,-0.574 1.14,1.302 -5.491,0.574 -5.491,0.574 z"
   id="path300" />
		<path
   fill="#f15a34"
   d="m 282.544,200.502 c 0,0 3.938,-2.623 5.303,-1.539 1.35,1.078 -5.303,1.539 -5.303,1.539 z"
   id="path302" />
		<path
   fill="#f47d2d"
   d="m 285.6,194.453 c 0,0 0.221,-4.729 1.902,-5.184 1.669,-0.451 -1.902,5.184 -1.902,5.184 z"
   id="path304" />
		<path
   fill="#f47d2d"
   d="m 284.629,195.891 c 0,0 -1.661,-4.43 -0.292,-5.513 1.356,-1.073 0.292,5.513 0.292,5.513 z"
   id="path306" />
		<path
   fill="#f47d2d"
   d="m 282.649,200.605 c 0,0 -3.096,-3.579 -2.187,-5.067 0.902,-1.479 2.187,5.067 2.187,5.067 z"
   id="path308" />
		<path
   fill="#f47d2d"
   d="m 283.49,198.229 c 0,0 -2.643,-4.478 -1.368,-5.908 1.268,-1.419 1.368,5.908 1.368,5.908 z"
   id="path310" />
		<path
   fill="#674428"
   d="m 282.032,205.089 c 0,0 -0.048,-10.095 5.975,-12.404 0,0 -5.478,2.613 -5.551,12.507 z"
   id="path312" />
	</g>
	<g
   id="g340">
		<path
   fill="#f15a34"
   d="m 275.988,239.773 c 0,0 4.004,4.549 2.553,5.931 -1.442,1.372 -2.553,-5.931 -2.553,-5.931 z"
   id="path316" />
		<path
   fill="#f47d2d"
   d="m 275.414,238.683 c 0,0 4.48,1.524 4.449,3.266 -0.029,1.728 -4.449,-3.266 -4.449,-3.266 z"
   id="path318" />
		<path
   fill="#f15a34"
   d="m 275.334,238.664 c 0,0 1.623,4.445 0.247,5.516 -1.366,1.06 -0.247,-5.516 -0.247,-5.516 z"
   id="path320" />
		<path
   fill="#f15a34"
   d="m 274.024,237.205 c 0,0 1.423,4.512 10e-4,5.521 -1.412,1.001 -10e-4,-5.521 -10e-4,-5.521 z"
   id="path322" />
		<path
   fill="#f15a34"
   d="m 272.673,236.224 c 0,0 1.304,4.551 -0.144,5.521 -1.439,0.962 0.144,-5.521 0.144,-5.521 z"
   id="path324" />
		<path
   fill="#f15a34"
   d="m 270.339,235.058 c 0,0 1.889,4.341 0.581,5.491 -1.3,1.141 -0.581,-5.491 -0.581,-5.491 z"
   id="path326" />
		<path
   fill="#f15a34"
   d="m 268.065,234.115 c 0,0 2.628,3.934 1.546,5.302 -1.076,1.351 -1.546,-5.302 -1.546,-5.302 z"
   id="path328" />
		<path
   fill="#f47d2d"
   d="m 274.118,237.162 c 0,0 4.729,0.217 5.187,1.896 0.454,1.669 -5.187,-1.896 -5.187,-1.896 z"
   id="path330" />
		<path
   fill="#f47d2d"
   d="m 272.68,236.194 c 0,0 4.428,-1.667 5.513,-0.299 1.074,1.356 -5.513,0.299 -5.513,0.299 z"
   id="path332" />
		<path
   fill="#f47d2d"
   d="m 267.962,234.221 c 0,0 3.576,-3.101 5.065,-2.193 1.481,0.899 -5.065,2.193 -5.065,2.193 z"
   id="path334" />
		<path
   fill="#f47d2d"
   d="m 270.339,235.058 c 0,0 4.474,-2.646 5.906,-1.374 1.421,1.264 -5.906,1.374 -5.906,1.374 z"
   id="path336" />
		<path
   fill="#674428"
   d="m 263.479,233.609 c 0,0 10.095,-0.062 12.411,5.958 0,0 -2.62,-5.475 -12.514,-5.535 z"
   id="path338" />
	</g>
	<g
   id="g366">
		<path
   fill="#f15a34"
   d="m 251.572,242.744 c 0,0 1.271,5.925 3.244,5.582 1.963,-0.342 -3.244,-5.582 -3.244,-5.582 z"
   id="path342" />
		<path
   fill="#f47d2d"
   d="m 251.038,241.633 c 0,0 -1.444,4.507 -0.026,5.52 1.407,1.004 0.026,-5.52 0.026,-5.52 z"
   id="path344" />
		<path
   fill="#f15a34"
   d="m 251.072,241.556 c 0,0 2.604,3.953 4.283,3.484 1.666,-0.466 -4.283,-3.484 -4.283,-3.484 z"
   id="path346" />
		<path
   fill="#f15a34"
   d="m 250.68,239.638 c 0,0 2.777,3.828 4.435,3.288 1.642,-0.541 -4.435,-3.288 -4.435,-3.288 z"
   id="path348" />
		<path
   fill="#f15a34"
   d="m 250.696,237.967 c 0,0 2.879,3.756 4.52,3.173 1.631,-0.584 -4.52,-3.173 -4.52,-3.173 z"
   id="path350" />
		<path
   fill="#f15a34"
   d="m 251.149,235.398 c 0,0 2.362,4.101 4.064,3.735 1.693,-0.364 -4.064,-3.735 -4.064,-3.735 z"
   id="path352" />
		<path
   fill="#f15a34"
   d="m 251.746,233.01 c 0,0 1.596,4.453 3.338,4.397 1.726,-0.059 -3.338,-4.397 -3.338,-4.397 z"
   id="path354" />
		<path
   fill="#f47d2d"
   d="m 250.589,239.688 c 0,0 -2.644,3.928 -1.565,5.295 1.07,1.357 1.565,-5.295 1.565,-5.295 z"
   id="path356" />
		<path
   fill="#f47d2d"
   d="m 250.668,237.954 c 0,0 -3.976,2.564 -3.523,4.25 0.449,1.671 3.523,-4.25 3.523,-4.25 z"
   id="path358" />
		<path
   fill="#f47d2d"
   d="m 251.893,232.989 c 0,0 -4.62,1.024 -4.778,2.762 -0.16,1.725 4.778,-2.762 4.778,-2.762 z"
   id="path360" />
		<path
   fill="#f47d2d"
   d="m 251.149,235.398 c 0,0 -4.791,2.016 -4.622,3.926 0.17,1.894 4.622,-3.926 4.622,-3.926 z"
   id="path362" />
		<path
   fill="#674428"
   d="m 254.071,229.022 c 0,0 -6.061,8.073 -2.604,13.52 0,0 -2.838,-5.365 3.006,-13.349 z"
   id="path364" />
	</g>
	<g
   id="g392">
		<path
   fill="#f15a34"
   d="m 292.304,202.388 c 0,0 2.82,-5.364 4.629,-4.5 1.796,0.856 -4.629,4.5 -4.629,4.5 z"
   id="path368" />
		<path
   fill="#f47d2d"
   d="m 291.49,203.314 c 0,0 -0.176,-4.729 1.463,-5.322 1.625,-0.59 -1.463,5.322 -1.463,5.322 z"
   id="path370" />
		<path
   fill="#f15a34"
   d="m 291.501,203.397 c 0,0 3.573,-3.106 5.065,-2.202 1.478,0.899 -5.065,2.202 -5.065,2.202 z"
   id="path372" />
		<path
   fill="#f15a34"
   d="m 290.605,205.139 c 0,0 3.709,-2.939 5.158,-1.972 1.438,0.962 -5.158,1.972 -5.158,1.972 z"
   id="path374" />
		<path
   fill="#f15a34"
   d="m 290.173,206.752 c 0,0 3.785,-2.841 5.208,-1.836 1.412,1.001 -5.208,1.836 -5.208,1.836 z"
   id="path376" />
		<path
   fill="#f15a34"
   d="m 289.916,209.349 c 0,0 3.38,-3.313 4.921,-2.503 1.532,0.806 -4.921,2.503 -4.921,2.503 z"
   id="path378" />
		<path
   fill="#f15a34"
   d="m 289.847,211.81 c 0,0 2.736,-3.859 4.4,-3.337 1.648,0.523 -4.4,3.337 -4.4,3.337 z"
   id="path380" />
		<path
   fill="#f47d2d"
   d="m 290.533,205.067 c 0,0 -1.488,-4.495 -0.082,-5.521 1.399,-1.019 0.082,5.521 0.082,5.521 z"
   id="path382" />
		<path
   fill="#f47d2d"
   d="m 290.142,206.757 c 0,0 -3.138,-3.541 -2.246,-5.043 0.881,-1.488 2.246,5.043 2.246,5.043 z"
   id="path384" />
		<path
   fill="#f47d2d"
   d="m 289.983,211.867 c 0,0 -4.174,-2.232 -3.857,-3.948 0.312,-1.702 3.857,3.948 3.857,3.948 z"
   id="path386" />
		<path
   fill="#f47d2d"
   d="m 289.916,209.349 c 0,0 -4.07,-3.233 -3.393,-5.025 0.674,-1.779 3.393,5.025 3.393,5.025 z"
   id="path388" />
		<path
   fill="#674428"
   d="m 291.012,216.275 c 0,0 -3.661,-9.409 1.136,-13.722 0,0 -4.179,4.401 -0.704,13.665 z"
   id="path390" />
	</g>
	<g
   id="g418">
		<path
   fill="#f15a34"
   d="m 180.771,158.325 c 0,0 -3.726,-6.538 -1.611,-7.854 2.101,-1.308 1.611,7.854 1.611,7.854 z"
   id="path394" />
		<path
   fill="#f47d2d"
   d="m 181.198,159.796 c 0,0 -5.066,-2.979 -4.59,-5.093 0.471,-2.096 4.59,5.093 4.59,5.093 z"
   id="path396" />
		<path
   fill="#f15a34"
   d="m 181.289,159.838 c 0,0 -0.855,-5.816 1.087,-6.77 1.93,-0.947 -1.087,6.77 -1.087,6.77 z"
   id="path398" />
		<path
   fill="#f15a34"
   d="m 182.515,161.944 c 0,0 -0.596,-5.85 1.39,-6.716 1.968,-0.86 -1.39,6.716 -1.39,6.716 z"
   id="path400" />
		<path
   fill="#f15a34"
   d="m 183.914,163.476 c 0,0 -0.439,-5.864 1.564,-6.678 1.992,-0.807 -1.564,6.678 -1.564,6.678 z"
   id="path402" />
		<path
   fill="#f15a34"
   d="m 186.457,165.482 c 0,0 -1.206,-5.753 0.675,-6.822 1.869,-1.062 -0.675,6.822 -0.675,6.822 z"
   id="path404" />
		<path
   fill="#f15a34"
   d="m 188.988,167.202 c 0,0 -2.209,-5.448 -0.548,-6.834 1.65,-1.379 0.548,6.834 0.548,6.834 z"
   id="path406" />
		<path
   fill="#f47d2d"
   d="m 182.387,161.974 c 0,0 -5.695,-1.45 -5.828,-3.611 -0.13,-2.149 5.828,3.611 5.828,3.611 z"
   id="path408" />
		<path
   fill="#f47d2d"
   d="m 183.895,163.513 c 0,0 -5.807,0.911 -6.779,-1.024 -0.966,-1.922 6.779,1.024 6.779,1.024 z"
   id="path410" />
		<path
   fill="#f47d2d"
   d="m 189.136,167.102 c 0,0 -5.128,2.87 -6.713,1.393 -1.57,-1.468 6.713,-1.393 6.713,-1.393 z"
   id="path412" />
		<path
   fill="#f47d2d"
   d="m 186.457,165.482 c 0,0 -6.108,2.094 -7.527,0.186 -1.412,-1.895 7.527,-0.186 7.527,-0.186 z"
   id="path414" />
		<path
   fill="#674428"
   d="m 194.438,168.974 c 0,0 -12.295,-2.466 -13.596,-10.374 0,0 1.808,7.318 13.826,9.884 z"
   id="path416" />
	</g>
	<g
   id="g444">
		<path
   fill="#f15a34"
   d="m 193.276,184.609 c 0,0 6.525,-3.747 7.848,-1.638 1.315,2.097 -7.848,1.638 -7.848,1.638 z"
   id="path420" />
		<path
   fill="#f47d2d"
   d="m 191.807,185.04 c 0,0 2.962,-5.076 5.077,-4.606 2.098,0.464 -5.077,4.606 -5.077,4.606 z"
   id="path422" />
		<path
   fill="#f15a34"
   d="m 191.764,185.131 c 0,0 5.813,-0.875 6.773,1.064 0.954,1.928 -6.773,-1.064 -6.773,-1.064 z"
   id="path424" />
		<path
   fill="#f15a34"
   d="m 189.662,186.364 c 0,0 5.848,-0.615 6.722,1.368 0.866,1.966 -6.722,-1.368 -6.722,-1.368 z"
   id="path426" />
		<path
   fill="#f15a34"
   d="m 188.136,187.768 c 0,0 5.861,-0.458 6.684,1.543 0.812,1.988 -6.684,-1.543 -6.684,-1.543 z"
   id="path428" />
		<path
   fill="#f15a34"
   d="m 186.138,190.318 c 0,0 5.749,-1.225 6.824,0.652 1.068,1.865 -6.824,-0.652 -6.824,-0.652 z"
   id="path430" />
		<path
   fill="#f15a34"
   d="m 184.427,192.855 c 0,0 5.44,-2.227 6.832,-0.57 1.383,1.645 -6.832,0.57 -6.832,0.57 z"
   id="path432" />
		<path
   fill="#f47d2d"
   d="m 189.633,186.236 c 0,0 1.432,-5.7 3.592,-5.84 2.148,-0.137 -3.592,5.84 -3.592,5.84 z"
   id="path434" />
		<path
   fill="#f47d2d"
   d="m 188.099,187.748 c 0,0 -0.931,-5.803 1.001,-6.782 1.919,-0.971 -1.001,6.782 -1.001,6.782 z"
   id="path436" />
		<path
   fill="#f47d2d"
   d="m 184.526,193.002 c 0,0 -2.886,-5.119 -1.414,-6.708 1.462,-1.576 1.414,6.708 1.414,6.708 z"
   id="path438" />
		<path
   fill="#f47d2d"
   d="m 186.138,190.318 c 0,0 -2.114,-6.102 -0.211,-7.527 1.889,-1.418 0.211,7.527 0.211,7.527 z"
   id="path440" />
		<path
   fill="#674428"
   d="m 182.672,198.31 c 0,0 2.426,-12.303 10.33,-13.629 0,0 -7.616,2.35 -10.144,14.376 z"
   id="path442" />
	</g>
	<g
   id="g470">
		<path
   fill="#f15a34"
   d="m 210.934,152.599 c 0,0 4.968,-3.792 6.285,-2.199 1.307,1.582 -6.285,2.199 -6.285,2.199 z"
   id="path446" />
		<path
   fill="#f47d2d"
   d="m 209.77,153.112 c 0,0 1.891,-4.501 3.682,-4.344 1.778,0.156 -3.682,4.344 -3.682,4.344 z"
   id="path448" />
		<path
   fill="#f15a34"
   d="m 209.745,153.193 c 0,0 4.692,-1.352 5.693,0.141 0.994,1.483 -5.693,-0.141 -5.693,-0.141 z"
   id="path450" />
		<path
   fill="#f15a34"
   d="m 208.148,154.437 c 0,0 4.749,-1.142 5.682,0.395 0.928,1.525 -5.682,-0.395 -5.682,-0.395 z"
   id="path452" />
		<path
   fill="#f15a34"
   d="m 207.045,155.755 c 0,0 4.775,-1.012 5.669,0.548 0.886,1.548 -5.669,-0.548 -5.669,-0.548 z"
   id="path454" />
		<path
   fill="#f15a34"
   d="m 205.675,158.074 c 0,0 4.602,-1.631 5.69,-0.204 1.082,1.421 -5.69,0.204 -5.69,0.204 z"
   id="path456" />
		<path
   fill="#f15a34"
   d="m 204.54,160.347 c 0,0 4.238,-2.423 5.566,-1.21 1.316,1.204 -5.566,1.21 -5.566,1.21 z"
   id="path458" />
		<path
   fill="#f47d2d"
   d="m 208.11,154.333 c 0,0 0.562,-4.85 2.326,-5.198 1.752,-0.345 -2.326,5.198 -2.326,5.198 z"
   id="path460" />
		<path
   fill="#f47d2d"
   d="m 207.011,155.746 c 0,0 -1.396,-4.678 0.089,-5.693 1.475,-1.01 -0.089,5.693 -0.089,5.693 z"
   id="path462" />
		<path
   fill="#f47d2d"
   d="m 204.641,160.458 c 0,0 -2.933,-3.903 -1.894,-5.372 1.035,-1.456 1.894,5.372 1.894,5.372 z"
   id="path464" />
		<path
   fill="#f47d2d"
   d="m 205.675,158.074 c 0,0 -2.4,-4.794 -0.989,-6.176 1.402,-1.372 0.989,6.176 0.989,6.176 z"
   id="path466" />
		<path
   fill="#674428"
   d="m 203.688,165.028 c 0,0 0.665,-10.392 7.028,-12.341 0,0 -5.822,2.299 -6.6,12.477 z"
   id="path468" />
	</g>
	<g
   id="g496">
		<path
   fill="#f15a34"
   d="m 185.078,175.137 c 0,0 4.115,-4.703 5.724,-3.404 1.595,1.291 -5.724,3.404 -5.724,3.404 z"
   id="path472" />
		<path
   fill="#f47d2d"
   d="m 184.04,175.872 c 0,0 0.959,-4.788 2.744,-4.99 1.776,-0.2 -2.744,4.99 -2.744,4.99 z"
   id="path474" />
		<path
   fill="#f15a34"
   d="m 184.031,175.956 c 0,0 4.33,-2.258 5.608,-0.993 1.269,1.256 -5.608,0.993 -5.608,0.993 z"
   id="path476" />
		<path
   fill="#f15a34"
   d="m 182.714,177.492 c 0,0 4.428,-2.062 5.646,-0.742 1.213,1.311 -5.646,0.742 -5.646,0.742 z"
   id="path478" />
		<path
   fill="#f15a34"
   d="m 181.895,179.002 c 0,0 4.479,-1.94 5.664,-0.589 1.175,1.341 -5.664,0.589 -5.664,0.589 z"
   id="path480" />
		<path
   fill="#f15a34"
   d="m 181.013,181.547 c 0,0 4.186,-2.511 5.536,-1.329 1.343,1.177 -5.536,1.329 -5.536,1.329 z"
   id="path482" />
		<path
   fill="#f15a34"
   d="m 180.353,184.001 c 0,0 3.672,-3.216 5.214,-2.292 1.529,0.919 -5.214,2.292 -5.214,2.292 z"
   id="path484" />
		<path
   fill="#f47d2d"
   d="m 182.656,177.398 c 0,0 -0.413,-4.865 1.246,-5.557 1.649,-0.687 -1.246,5.557 -1.246,5.557 z"
   id="path486" />
		<path
   fill="#f47d2d"
   d="m 181.859,179 c 0,0 -2.297,-4.307 -1.045,-5.598 1.248,-1.281 1.045,5.598 1.045,5.598 z"
   id="path488" />
		<path
   fill="#f47d2d"
   d="m 180.473,184.091 c 0,0 -3.65,-3.243 -2.924,-4.889 0.725,-1.633 2.924,4.889 2.924,4.889 z"
   id="path490" />
		<path
   fill="#f47d2d"
   d="m 181.013,181.547 c 0,0 -3.305,-4.22 -2.196,-5.856 1.1,-1.622 2.196,5.856 2.196,5.856 z"
   id="path492" />
		<path
   fill="#674428"
   d="m 180.44,189.04 c 0,0 -1.406,-10.597 4.441,-13.772 0,0 -5.462,3.642 -4.202,13.772 z"
   id="path494" />
	</g>
	<path
   fill="#674428"
   d="m 146.75,220.181 c 0,0 19.936,-12.622 20.728,-20.9 0,0 0.075,-1.624 -1.451,2.202 -0.625,1.566 -2.955,4.35 -6.375,7.333 -4.938,4.308 -12.147,9.034 -19.781,11.126 -12.923,3.541 0,0.239 0,0.239 z"
   id="path498" />
	<path
   fill="#674428"
   d="m 163.055,206.318 c 0,0 0.99,-10.232 0,-12.807 0,0 0.066,4.336 -0.396,8.968 -0.463,4.631 -1.914,5.353 -1.914,5.353 z"
   id="path500" />
	<path
   fill="#674428"
   d="m 163.253,197.876 c 0,0 -4.621,-2.815 -5.017,-10.323 0,0 -0.451,-1.313 -0.133,2.097 0.528,5.644 5.149,8.966 5.149,8.966 v -0.74 z"
   id="path502" />
	<path
   fill="#674428"
   d="m 189.409,196.411 c -0.085,0.169 -0.168,0.338 -0.264,0.496 -0.168,0.317 -0.349,0.613 -0.539,0.898 -0.591,0.887 -1.277,1.627 -1.985,2.25 -0.231,0.21 -0.465,0.412 -0.697,0.591 -2.145,1.669 -4.267,2.303 -4.467,2.355 l 0.253,-0.687 c 0,0 1.626,-0.317 3.591,-1.774 0.159,-0.106 0.317,-0.233 0.476,-0.359 0.961,-0.792 1.976,-1.848 2.895,-3.275 0.168,-0.253 0.337,-0.518 0.485,-0.792 0.307,-0.528 0.591,-1.099 0.855,-1.711 0,0.001 0.886,-1.076 -0.603,2.008 z"
   id="path504" />
	<path
   fill="#674428"
   d="m 189.156,196.115 c 0.011,0.274 0.011,0.539 -0.011,0.792 -0.168,0.317 -0.349,0.613 -0.539,0.898 0.032,-0.286 0.053,-0.592 0.064,-0.898 0.073,-1.436 -0.064,-3.084 -0.57,-4.942 0,0 0.021,-1.384 0.78,1.954 0.17,0.749 0.266,1.489 0.276,2.196 z"
   id="path506" />
	<path
   fill="#674428"
   d="m 188.564,199.96 c -0.708,0.274 -1.426,0.486 -2.123,0.601 -0.179,0.032 -0.349,0.064 -0.518,0.085 -0.095,0.01 -0.189,0.021 -0.274,0.032 -0.116,-0.042 -0.231,-0.084 -0.349,-0.137 0.159,-0.106 0.317,-0.233 0.476,-0.359 0.274,-0.032 0.561,-0.074 0.845,-0.127 1.161,-0.201 2.408,-0.56 3.76,-1.162 0,0 1.374,-0.19 -1.817,1.067 z"
   id="path508" />
	<path
   fill="#674428"
   d="m 180.361,189.333 c -0.041,0.185 -0.085,0.368 -0.11,0.552 -0.071,0.351 -0.118,0.694 -0.153,1.036 -0.43,4.62 2.052,8.308 2.232,8.553 l 0.24,-0.692 c 0,0 -2.58,-3.099 -1.952,-8.596 0.031,-0.302 0.067,-0.614 0.127,-0.92 0.098,-0.603 0.239,-1.225 0.424,-1.866 0,-0.001 -0.003,-1.395 -0.808,1.933 z"
   id="path510" />
	<path
   fill="#674428"
   d="m 180.745,189.266 c -0.183,0.205 -0.35,0.409 -0.494,0.62 -0.071,0.351 -0.118,0.694 -0.153,1.036 0.156,-0.241 0.335,-0.491 0.521,-0.735 0.854,-1.156 2.005,-2.344 3.575,-3.459 0,0 0.862,-1.083 -1.843,1.015 -0.607,0.47 -1.149,0.982 -1.606,1.523 z"
   id="path512" />
	<path
   fill="#674428"
   d="m 158.879,191.515 c -0.058,0.269 -0.101,0.529 -0.121,0.783 0.112,0.34 0.241,0.662 0.381,0.976 0.017,-0.288 0.047,-0.593 0.087,-0.897 0.167,-1.428 0.576,-3.03 1.384,-4.778 0,0 0.21,-1.369 -1.095,1.796 -0.292,0.71 -0.508,1.424 -0.636,2.12 z"
   id="path514" />
	<path
   fill="#674428"
   d="m 273.287,216.73 c 0,0 8.81,-5.297 10.288,-7.625 0,0 -3.444,2.635 -7.44,5.021 -3.995,2.387 -5.439,1.65 -5.439,1.65 z"
   id="path516" />
	<path
   fill="#674428"
   d="m 280.188,211.863 c 0,0 -0.49,-5.389 5.306,-10.178 0,0 0.786,-1.144 -1.764,1.144 -4.22,3.784 -4.137,9.475 -4.137,9.475 z"
   id="path518" />
	<path
   fill="#674428"
   d="m 282.693,204.562 c -0.25,0.114 -0.485,0.234 -0.701,0.368 -0.207,0.295 -0.389,0.59 -0.558,0.887 0.241,-0.157 0.506,-0.314 0.772,-0.463 1.247,-0.717 2.777,-1.342 4.663,-1.733 0,0 1.225,-0.646 -2.095,0.189 -0.744,0.188 -1.446,0.439 -2.081,0.752 z"
   id="path520" />
	<path
   fill="#674428"
   d="m 277.301,221.164 c 0,0 10.148,1.633 12.779,0.806 0,0 -4.331,-0.207 -8.924,-0.959 -4.593,-0.753 -5.223,-2.246 -5.223,-2.246 z"
   id="path522" />
	<path
   fill="#674428"
   d="m 285.713,221.893 c 0,0 3.101,-4.434 10.618,-4.357 0,0 1.339,-0.368 -2.085,-0.264 -5.666,0.172 -9.271,4.574 -9.271,4.574 z"
   id="path524" />
	<path
   fill="#674428"
   d="m 292.336,217.928 c -0.264,-0.074 -0.521,-0.134 -0.772,-0.171 -0.348,0.092 -0.677,0.2 -0.999,0.319 0.287,0.035 0.59,0.085 0.891,0.143 1.414,0.258 2.987,0.767 4.682,1.683 0,0 1.352,0.296 -1.725,-1.206 -0.691,-0.337 -1.39,-0.597 -2.077,-0.768 z"
   id="path526" />
	<path
   fill="#674428"
   d="m 289.969,217.176 c -0.179,0.207 -1.267,1.853 -1.408,2.064 -0.063,0.354 0.819,-0.742 0.789,-0.399 0.154,-0.244 0.328,-0.497 0.509,-0.745 0.834,-1.17 1.965,-2.377 3.514,-3.521 0,0 0.843,-1.097 -1.824,1.048 -0.6,0.481 -1.133,1.002 -1.58,1.553 z"
   id="path528" />
	<path
   fill="#674428"
   d="m 303.961,230.026 c 0,0 6.652,7.835 9.19,8.918 0,0 -3.158,-2.973 -6.161,-6.529 -3.001,-3.557 -2.508,-5.101 -2.508,-5.101 z"
   id="path530" />
	<path
   fill="#674428"
   d="m 309.882,236.048 c 0,0 5.237,-1.355 10.901,3.588 0,0 1.257,0.59 -1.412,-1.556 -4.419,-3.551 -10.021,-2.548 -10.021,-2.548 z"
   id="path532" />
	<path
   fill="#674428"
   d="m 317.493,237.337 c -0.154,-0.227 -0.31,-0.438 -0.477,-0.631 -0.324,-0.157 -0.645,-0.289 -0.967,-0.406 0.195,0.212 0.392,0.447 0.584,0.687 0.907,1.114 1.771,2.523 2.465,4.322 0,0 0.835,1.102 -0.527,-2.038 -0.305,-0.705 -0.667,-1.356 -1.078,-1.934 z"
   id="path534" />
	<path
   fill="#674428"
   d="m 307.043,232.977 c -0.096,-0.256 -0.196,-0.499 -0.313,-0.725 -0.278,-0.229 -0.559,-0.433 -0.844,-0.623 0.14,0.252 0.275,0.526 0.405,0.805 0.619,1.298 1.127,2.872 1.375,4.782 0,0 0.551,1.269 -0.03,-2.104 -0.132,-0.758 -0.328,-1.475 -0.593,-2.135 z"
   id="path536" />
	<path
   fill="#674428"
   d="m 316.182,235.227 c -0.271,0.042 -2.167,0.586 -2.411,0.654 -0.279,0.229 1.104,-0.031 0.859,0.211 0.275,-0.087 0.571,-0.165 0.869,-0.235 1.396,-0.349 3.039,-0.53 4.96,-0.395 0,0 1.353,-0.284 -2.067,-0.388 -0.769,-0.022 -1.513,0.028 -2.21,0.153 z"
   id="path538" />
	<path
   fill="#674428"
   d="m 328.172,227.337 c -0.496,0.211 -0.949,0.433 -1.383,0.665 -0.169,0.085 -0.327,0.18 -0.485,0.265 -0.919,0.528 -1.701,1.099 -2.366,1.68 -0.232,0.2 -0.465,0.41 -0.666,0.612 0.106,-0.328 -1.014,0.528 -0.866,0.2 0.191,-0.169 1.627,-1.521 1.849,-1.68 0.465,-0.359 0.993,-0.686 1.554,-0.972 0.115,-0.053 0.231,-0.116 0.349,-0.169 0.052,-0.021 0.104,-0.053 0.157,-0.073 2.882,-1.362 1.857,-0.528 1.857,-0.528 z"
   id="path540" />
	<g
   id="g566">
		<path
   fill="#f15a34"
   d="m 351.934,227.856 c 0,0 3.974,-4.576 2.513,-5.947 -1.453,-1.363 -2.513,5.947 -2.513,5.947 z"
   id="path542" />
		<path
   fill="#f47d2d"
   d="m 351.365,228.951 c 0,0 4.471,-1.556 4.428,-3.297 -0.041,-1.728 -4.428,3.297 -4.428,3.297 z"
   id="path544" />
		<path
   fill="#f15a34"
   d="m 351.285,228.969 c 0,0 1.595,-4.456 0.21,-5.518 -1.374,-1.05 -0.21,5.518 -0.21,5.518 z"
   id="path546" />
		<path
   fill="#f15a34"
   d="m 349.987,230.438 c 0,0 1.392,-4.521 -0.037,-5.521 -1.419,-0.992 0.037,5.521 0.037,5.521 z"
   id="path548" />
		<path
   fill="#f15a34"
   d="m 348.641,231.427 c 0,0 1.273,-4.558 -0.18,-5.52 -1.445,-0.952 0.18,5.52 0.18,5.52 z"
   id="path550" />
		<path
   fill="#f15a34"
   d="m 346.315,232.609 c 0,0 1.858,-4.354 0.545,-5.495 -1.309,-1.133 -0.545,5.495 -0.545,5.495 z"
   id="path552" />
		<path
   fill="#f15a34"
   d="m 344.048,233.566 c 0,0 2.602,-3.951 1.51,-5.311 -1.085,-1.344 -1.51,5.311 -1.51,5.311 z"
   id="path554" />
		<path
   fill="#f47d2d"
   d="m 350.08,230.48 c 0,0 4.729,-0.248 5.174,-1.932 0.44,-1.672 -5.174,1.932 -5.174,1.932 z"
   id="path556" />
		<path
   fill="#f47d2d"
   d="m 348.647,231.456 c 0,0 4.438,1.638 5.516,0.264 1.066,-1.364 -5.516,-0.264 -5.516,-0.264 z"
   id="path558" />
		<path
   fill="#f47d2d"
   d="m 343.943,233.461 c 0,0 3.596,3.078 5.079,2.16 1.476,-0.91 -5.079,-2.16 -5.079,-2.16 z"
   id="path560" />
		<path
   fill="#f47d2d"
   d="m 346.315,232.609 c 0,0 4.491,2.615 5.914,1.335 1.413,-1.273 -5.914,-1.335 -5.914,-1.335 z"
   id="path562" />
		<path
   fill="#674428"
   d="m 351.82,228.094 c -0.088,0.247 -0.194,0.478 -0.318,0.694 -0.012,0.052 -0.039,0.097 -0.068,0.133 -0.255,0.471 -0.564,0.896 -0.914,1.279 -0.076,0.093 -0.155,0.173 -0.244,0.258 -0.335,0.342 -0.699,0.642 -1.086,0.915 -0.089,0.063 -0.177,0.124 -0.266,0.187 -0.631,0.427 -1.32,0.775 -2.024,1.062 -0.102,0.057 -0.213,0.096 -0.324,0.131 -0.805,0.319 -1.631,0.566 -2.416,0.75 -0.018,0.009 -0.052,0.013 -0.081,0.025 -0.004,-0.011 -0.015,-0.006 -0.023,-0.002 0,0 -0.011,0.004 -0.02,0.008 -0.765,0.176 -1.509,0.295 -2.151,0.382 -0.176,0.021 -0.353,0.039 -0.519,0.054 0.085,-0.095 0.166,-0.2 0.252,-0.295 0.039,-0.039 0.074,-0.091 0.114,-0.13 0.167,-0.017 0.328,-0.042 0.491,-0.066 0.666,-0.084 1.282,-0.206 1.856,-0.343 0.095,-0.021 0.191,-0.037 0.272,-0.062 0.719,-0.177 1.362,-0.392 1.95,-0.627 0.034,-0.004 0.072,-0.021 0.103,-0.033 0.844,-0.336 1.577,-0.718 2.198,-1.116 0.038,-0.016 0.066,-0.028 0.092,-0.054 0.483,-0.315 0.91,-0.629 1.267,-0.948 0.034,-0.025 0.068,-0.052 0.095,-0.074 0.529,-0.476 0.935,-0.92 1.212,-1.284 l 0.01,-0.004 c 0.015,-0.018 0.03,-0.037 0.035,-0.051 0.299,-0.397 0.459,-0.687 0.507,-0.789 z"
   id="path564" />
	</g>
	<path
   fill="#674428"
   d="m 343.221,232.313 c -0.37,0.392 -0.696,0.777 -0.998,1.165 -0.122,0.146 -0.228,0.295 -0.339,0.438 -0.629,0.854 -1.115,1.689 -1.491,2.49 -0.132,0.276 -0.259,0.563 -0.361,0.827 -0.035,-0.343 -0.716,0.891 -0.713,0.532 0.107,-0.231 0.878,-2.047 1.016,-2.282 0.281,-0.516 0.634,-1.027 1.031,-1.514 0.085,-0.095 0.166,-0.2 0.252,-0.295 0.039,-0.039 0.074,-0.091 0.114,-0.13 2.091,-2.407 1.489,-1.231 1.489,-1.231 z"
   id="path568" />
	<path
   fill="#674428"
   d="m 210.654,214.002 c 0,0 32.118,-4.588 37.778,-14.522 0,0 1.01,-1.992 -3.063,1.943 -1.666,1.611 -6.157,3.788 -12.128,5.601 -8.622,2.618 -20.163,3.529 -31.042,3.211 -16.297,-0.475 -0.748,1.101 -0.748,1.101 z"
   id="path570" />
	<path
   fill="#674428"
   d="m 238.917,205.811 c 0,0 7.012,-12.271 7.222,-16.057 0,0 -2.362,5.474 -5.554,11.02 -3.188,5.548 -5.417,5.635 -5.417,5.635 z"
   id="path572" />
	<path
   fill="#674428"
   d="m 243.926,195.336 c 0,0 -4.207,-6.135 -0.47,-15.774 0,0 0.175,-1.9 -1.348,2.555 -2.521,7.375 1.4,14.147 1.4,14.147 z"
   id="path574" />
	<path
   fill="#674428"
   d="m 246.401,180.959 c -0.665,0.581 -1.267,1.162 -1.795,1.742 -0.201,0.201 -0.38,0.401 -0.549,0.603 -0.835,0.961 -1.521,1.933 -2.081,2.862 -0.222,0.359 -0.433,0.729 -0.612,1.078 0,-0.465 0.021,-0.951 0.074,-1.437 0.168,-0.307 0.369,-0.613 0.591,-0.919 0.307,-0.434 0.645,-0.867 1.024,-1.289 0.232,-0.274 0.497,-0.538 0.771,-0.802 0.063,-0.074 0.127,-0.138 0.2,-0.201 3.414,-3.231 2.377,-1.637 2.377,-1.637 z"
   id="path576" />
	<path
   fill="#674428"
   d="m 240.314,185.749 c 0.111,0.494 0.237,0.948 0.377,1.356 0.046,0.153 0.093,0.292 0.146,0.425 0.24,0.653 0.517,1.216 0.801,1.695 0.109,0.189 0.224,0.373 0.337,0.533 -0.2,-0.068 -0.405,-0.15 -0.604,-0.254 -0.097,-0.147 -0.187,-0.316 -0.272,-0.496 -0.123,-0.252 -0.24,-0.522 -0.342,-0.817 -0.07,-0.182 -0.129,-0.383 -0.186,-0.591 -0.019,-0.049 -0.033,-0.098 -0.046,-0.152 -0.682,-2.566 -0.211,-1.699 -0.211,-1.699 z"
   id="path578" />
	<path
   fill="#674428"
   d="m 251,203.089 c -0.883,-0.011 -1.719,0.02 -2.499,0.099 -0.284,0.016 -0.552,0.045 -0.813,0.082 -1.262,0.158 -2.422,0.424 -3.459,0.741 -0.404,0.12 -0.81,0.254 -1.176,0.394 0.311,-0.346 0.649,-0.693 1.015,-1.02 0.329,-0.116 0.684,-0.211 1.054,-0.289 0.518,-0.119 1.058,-0.215 1.622,-0.275 0.356,-0.049 0.73,-0.07 1.109,-0.083 0.098,-0.014 0.188,-0.018 0.284,-0.017 4.699,-0.127 2.863,0.368 2.863,0.368 z"
   id="path580" />
	<path
   fill="#674428"
   d="m 253.891,206.358 c -0.752,-0.463 -1.485,-0.864 -2.195,-1.197 -0.252,-0.132 -0.496,-0.245 -0.739,-0.346 -1.165,-0.512 -2.296,-0.879 -3.35,-1.139 -0.408,-0.104 -0.825,-0.197 -1.211,-0.265 0.443,-0.139 0.914,-0.263 1.395,-0.355 0.342,0.069 0.694,0.17 1.052,0.292 0.506,0.164 1.02,0.358 1.534,0.595 0.332,0.143 0.663,0.316 0.995,0.5 0.09,0.038 0.17,0.08 0.252,0.131 4.098,2.301 2.267,1.784 2.267,1.784 z"
   id="path582" />
	<path
   fill="#674428"
   d="m 248.493,182.628 c -1.648,0.095 -3.116,0.337 -4.436,0.676 -0.35,0.095 -0.687,0.19 -1.004,0.296 0.232,-0.274 0.497,-0.538 0.771,-0.802 0.254,-0.042 0.518,-0.074 0.781,-0.096 0.307,-0.031 0.623,-0.063 0.95,-0.095 4.681,-0.465 2.938,0.021 2.938,0.021 z"
   id="path584" />
	<path
   fill="#674428"
   d="m 188.04,210.446 c 0,0 22.033,-23.816 20.162,-35.095 0,0 -0.473,-2.182 -1.151,3.439 -0.277,2.301 -2.39,6.824 -5.88,11.995 -5.041,7.469 -13.425,15.454 -22.066,22.068 -12.949,9.908 0.113,1.326 0.113,1.326 z"
   id="path586" />
	<path
   fill="#674428"
   d="m 204.81,186.265 c 0,0 -2.296,-13.945 -4.521,-17.016 0,0 1.619,5.738 2.64,12.055 1.023,6.316 -0.651,7.79 -0.651,7.79 z"
   id="path588" />
	<path
   fill="#674428"
   d="m 202.092,174.977 c 0,0 -7.135,-2.107 -10.313,-11.945 0,0 -1.062,-1.585 0.566,2.833 2.694,7.314 10.007,10.097 10.007,10.097 z"
   id="path590" />
	<path
   fill="#674428"
   d="m 194.947,162.258 c -0.15,0.871 -0.252,1.7 -0.295,2.483 -0.029,0.283 -0.043,0.552 -0.047,0.814 -0.041,1.273 0.039,2.459 0.19,3.534 0.055,0.419 0.123,0.839 0.204,1.223 -0.293,-0.361 -0.583,-0.752 -0.849,-1.162 -0.063,-0.344 -0.1,-0.709 -0.12,-1.086 -0.036,-0.529 -0.047,-1.079 -0.018,-1.645 0.007,-0.36 0.046,-0.731 0.092,-1.11 0.002,-0.097 0.013,-0.187 0.028,-0.282 0.613,-4.659 0.815,-2.769 0.815,-2.769 z"
   id="path592" />
	<path
   fill="#674428"
   d="m 193.243,169.814 c 0.397,0.313 0.782,0.586 1.148,0.815 0.131,0.09 0.255,0.168 0.38,0.238 0.599,0.355 1.168,0.618 1.689,0.81 0.204,0.079 0.409,0.148 0.599,0.201 -0.198,0.074 -0.409,0.139 -0.629,0.184 -0.169,-0.054 -0.344,-0.128 -0.524,-0.213 -0.255,-0.118 -0.516,-0.254 -0.78,-0.418 -0.17,-0.098 -0.342,-0.216 -0.518,-0.342 -0.045,-0.027 -0.087,-0.055 -0.131,-0.09 -2.148,-1.56 -1.234,-1.185 -1.234,-1.185 z"
   id="path594" />
	<path
   fill="#674428"
   d="m 212.47,176.533 c -0.691,0.548 -1.32,1.099 -1.877,1.652 -0.21,0.191 -0.4,0.383 -0.578,0.576 -0.88,0.919 -1.612,1.856 -2.217,2.757 -0.238,0.348 -0.469,0.708 -0.664,1.047 0.021,-0.464 0.065,-0.948 0.145,-1.432 0.182,-0.298 0.397,-0.594 0.634,-0.889 0.327,-0.418 0.687,-0.833 1.085,-1.237 0.247,-0.263 0.524,-0.514 0.81,-0.763 0.067,-0.072 0.136,-0.132 0.21,-0.192 3.565,-3.061 2.452,-1.519 2.452,-1.519 z"
   id="path596" />
	<path
   fill="#674428"
   d="m 216.776,177.247 c -0.876,0.115 -1.697,0.266 -2.46,0.456 -0.278,0.056 -0.539,0.123 -0.791,0.197 -1.228,0.338 -2.336,0.767 -3.318,1.229 -0.383,0.176 -0.764,0.367 -1.106,0.558 0.257,-0.387 0.545,-0.78 0.858,-1.155 0.31,-0.161 0.646,-0.305 1,-0.437 0.496,-0.191 1.018,-0.365 1.565,-0.505 0.348,-0.099 0.714,-0.173 1.089,-0.24 0.093,-0.027 0.183,-0.045 0.277,-0.058 4.632,-0.798 2.886,-0.045 2.886,-0.045 z"
   id="path598" />
	<path
   fill="#674428"
   d="m 197.623,162.234 c -1.22,1.113 -2.207,2.227 -3.018,3.321 -0.211,0.294 -0.412,0.581 -0.592,0.863 0.007,-0.36 0.046,-0.731 0.092,-1.11 0.171,-0.193 0.355,-0.384 0.547,-0.567 0.219,-0.216 0.443,-0.441 0.678,-0.672 3.339,-3.311 2.293,-1.835 2.293,-1.835 z"
   id="path600" />
	<path
   fill="#674428"
   d="m 202.267,176.883 c 0,0 4.052,-6.238 0.073,-15.78 0,0 -0.225,-1.895 1.41,2.521 2.706,7.309 -1.042,14.177 -1.042,14.177 z"
   id="path602" />
	<path
   fill="#674428"
   d="m 199.43,162.574 c 0.68,0.564 1.296,1.128 1.838,1.696 0.206,0.196 0.391,0.392 0.564,0.589 0.859,0.939 1.568,1.894 2.152,2.809 0.231,0.354 0.452,0.718 0.64,1.063 -0.012,-0.465 -0.045,-0.95 -0.11,-1.435 -0.176,-0.303 -0.385,-0.604 -0.614,-0.904 -0.317,-0.426 -0.666,-0.85 -1.056,-1.261 -0.24,-0.27 -0.512,-0.526 -0.792,-0.784 -0.064,-0.072 -0.13,-0.134 -0.204,-0.196 -3.494,-3.145 -2.418,-1.577 -2.418,-1.577 z"
   id="path604" />
	<path
   fill="#674428"
   d="m 205.636,167.209 c -0.098,0.496 -0.213,0.953 -0.344,1.366 -0.041,0.153 -0.084,0.294 -0.134,0.428 -0.224,0.658 -0.485,1.229 -0.758,1.713 -0.104,0.193 -0.214,0.379 -0.324,0.542 0.199,-0.072 0.402,-0.16 0.599,-0.269 0.093,-0.149 0.177,-0.32 0.259,-0.502 0.117,-0.254 0.227,-0.528 0.321,-0.825 0.065,-0.185 0.119,-0.387 0.171,-0.596 0.018,-0.049 0.03,-0.099 0.041,-0.153 0.62,-2.584 0.169,-1.704 0.169,-1.704 z"
   id="path606" />
	<path
   fill="#674428"
   d="m 253.448,225.567 c 0,0 0.489,7.424 9.387,12.686 0,0 1.313,1.385 -2.639,-1.174 -6.543,-4.236 -7.65,-11.982 -7.65,-11.982 z"
   id="path608" />
	<path
   fill="#674428"
   d="m 264.286,235.334 c -0.882,-0.045 -1.714,-0.13 -2.488,-0.26 -0.282,-0.033 -0.548,-0.078 -0.805,-0.132 -1.25,-0.239 -2.39,-0.58 -3.404,-0.964 -0.396,-0.144 -0.792,-0.305 -1.148,-0.468 0.288,0.365 0.604,0.734 0.947,1.083 0.321,0.139 0.669,0.254 1.032,0.356 0.509,0.151 1.043,0.283 1.602,0.38 0.354,0.07 0.725,0.115 1.103,0.152 0.096,0.021 0.185,0.031 0.282,0.035 4.679,0.431 2.879,-0.182 2.879,-0.182 z"
   id="path610" />
	<path
   fill="#674428"
   d="m 256.54,235.334 c -0.218,-0.455 -0.4,-0.891 -0.543,-1.297 -0.059,-0.148 -0.107,-0.289 -0.148,-0.426 -0.215,-0.662 -0.346,-1.274 -0.419,-1.825 -0.031,-0.217 -0.055,-0.431 -0.064,-0.629 -0.116,0.177 -0.226,0.369 -0.317,0.573 0.016,0.176 0.049,0.363 0.093,0.559 0.06,0.274 0.135,0.56 0.236,0.854 0.058,0.186 0.137,0.382 0.22,0.577 0.017,0.052 0.035,0.1 0.059,0.148 1.049,2.44 0.883,1.466 0.883,1.466 z"
   id="path612" />
	<path
   fill="#674428"
   d="m 264.897,232.729 c -1.354,0.945 -2.657,1.663 -3.904,2.214 -0.333,0.141 -0.656,0.274 -0.972,0.388 0.354,0.07 0.725,0.115 1.103,0.152 0.226,-0.123 0.453,-0.262 0.674,-0.408 0.26,-0.165 0.528,-0.334 0.806,-0.512 3.963,-2.53 2.293,-1.834 2.293,-1.834 z"
   id="path614" />
	<path
   fill="#674428"
   d="m 258.39,224.781 c -0.169,0.115 -0.358,0.232 -0.56,0.369 -0.063,0.042 -0.138,0.085 -0.2,0.127 -0.275,0.18 -0.55,0.349 -0.804,0.518 -0.222,0.138 -0.802,0.644 -1.024,0.771 -0.38,-0.042 -0.4,-0.454 -0.749,-0.518 0.306,-0.115 0.633,-0.253 0.972,-0.391 0.411,-0.18 0.823,-0.38 1.245,-0.602 0.233,-0.117 0.466,-0.243 0.697,-0.381 0.635,-0.358 1.289,-0.771 1.955,-1.235 0,0 1.435,-0.591 -1.532,1.342 z"
   id="path616" />
	<path
   fill="#674428"
   d="m 259.013,225.298 c -0.326,-0.042 -0.645,-0.073 -0.95,-0.115 -0.073,-0.012 -0.158,-0.022 -0.232,-0.032 -0.189,-0.021 -0.369,-0.042 -0.549,-0.085 l -0.012,-0.01 c 0.233,-0.117 0.466,-0.243 0.697,-0.381 0.138,0.053 0.274,0.085 0.423,0.106 1.089,0.274 2.261,0.464 3.56,0.569 -10e-4,0.001 1.732,0.529 -2.937,-0.052 z"
   id="path618" />
	<path
   fill="#674428"
   d="m 179.805,193.555 c 0.077,0.263 0.5,1.19 0.603,1.424 0.26,0.246 0.189,-0.21 0.461,0 -0.122,-0.261 -0.239,-0.544 -0.35,-0.831 -0.53,-1.336 -0.93,-2.941 -1.048,-4.863 0,0 -0.464,-1.304 -0.112,2.101 0.08,0.764 0.228,1.495 0.446,2.169 z"
   id="path620" />
</g>
</svg>
