<?xml version="1.0" encoding="UTF-8" standalone="no"?>
<svg
   xmlns:dc="http://purl.org/dc/elements/1.1/"
   xmlns:cc="http://creativecommons.org/ns#"
   xmlns:rdf="http://www.w3.org/1999/02/22-rdf-syntax-ns#"
   xmlns:svg="http://www.w3.org/2000/svg"
   xmlns="http://www.w3.org/2000/svg"
   version="1.1"
   id="Layer_1"
   x="0px"
   y="0px"
   width="307.2865"
   height="112.045"
   viewBox="0 0 307.2865 112.045"
   enable-background="new 0 0 400 400"
   xml:space="preserve"><metadata
   id="metadata97"><rdf:RDF><cc:Work
       rdf:about=""><dc:format>image/svg+xml</dc:format><dc:type
         rdf:resource="http://purl.org/dc/dcmitype/StillImage" /><dc:title></dc:title></cc:Work></rdf:RDF></metadata><defs
   id="defs95" />
<g
   id="g90"
   transform="translate(-46.699,-143.679)">
	<path
   fill="#674428"
   d="m 336.702,242.484 c -0.089,-0.013 -0.188,-0.024 -0.275,-0.038 -0.175,-0.024 -0.337,-0.062 -0.513,-0.086 -0.649,-0.126 -1.324,-0.264 -2.049,-0.426 l -0.014,-0.013 c -0.449,-0.101 -0.924,-0.225 -1.412,-0.35 -12.146,-3.274 -10.747,-4.586 -16.371,-4.412 -2.512,0.088 -4.586,-0.475 -6.148,-1.149 -1.313,0.063 -2.649,0.112 -3.998,0.137 -14.512,0.288 -23.322,-3.698 -30.619,-8.311 -8.736,-5.511 -15.298,-11.909 -26.87,-12.935 -3.224,-0.275 -6.323,-0.563 -9.323,-0.85 2.699,1.725 6.023,4.337 9.948,8.336 11.21,11.423 16.847,8.86 17.046,9.11 0.213,0.238 -3.438,3.387 -13.609,-4.012 -10.173,-7.386 -8.387,-8.123 -13.709,-9.96 -2.888,-1 -4.838,-2.65 -6.037,-4.049 -13.91,-1.25 -25.457,-2.075 -35.555,-1.076 -19.896,1.988 -33.414,13.135 -43.625,12.148 -28.707,-2.788 -71.265,19.309 -106.87,17.847 v -24.059 c 0,0 23.745,-1.712 55.526,1.4 13.873,1.362 29.682,-8.985 48.428,-5.425 14.922,2.825 23.807,-9.96 27.807,-13.947 4.524,-4.524 11.022,-8.11 13.647,-13.521 6.037,-12.436 4.725,-11.998 7.761,-14.635 3.274,-2.85 8.036,-5.774 13.297,-6.611 0.4,-1.175 1.4,-2.837 3.787,-4.737 4.6,-3.674 2.725,-6.424 2.824,-6.486 0.113,-0.063 2.075,1.874 -0.612,5.523 -2.675,3.662 -3.224,2.799 -3.611,4.924 -0.025,0.175 -0.075,0.313 -0.125,0.45 5.411,-0.7 11.348,-0.987 17.559,-1.212 0,0 1.425,0.725 -1.774,1.25 -7.262,1.188 -23.096,3.087 -25.07,5.399 3.175,-0.188 7.349,-0.888 12.385,1.424 3.051,1.412 14.223,2.575 6.799,2.424 -11.947,-0.237 -12.109,-2.487 -17.508,-0.85 -13.897,4.212 -11.861,24.156 -22.519,30.688 0,0 26.592,-5.28 42.427,-1.318 10.785,2.688 23.645,-0.112 29.568,3.662 4.374,2.773 8.249,5.023 13.436,9.473 6.111,2.861 2.686,0.438 14.434,0.625 0.663,0.012 1.375,0.037 2.137,0.063 2.388,0.088 1.663,6.398 14.16,8.061 0.438,0.063 9.322,1.899 0.412,0.938 -17.421,-1.874 -12.572,-9.461 -19.633,-6.024 -2.587,1.25 -5.037,1.788 -7.148,1.95 1.824,1.35 3.749,2.612 5.836,3.699 10.197,5.374 15.746,3.149 29.844,7.299 12.71,3.749 27.345,-2.125 27.345,-2.125 l 2.574,-1.225 c 0.612,-0.138 -1.124,2.337 -12.985,5.461 -0.199,0.051 -0.387,0.101 -0.6,0.15 -1.424,0.375 -2.986,0.75 -4.711,1.125 2.174,0.712 2.236,0.549 5.012,1.824 0.687,0.313 1.361,0.612 1.998,0.862 0.014,0.014 0.025,0.014 0.038,0.024 1.45,0.601 2.774,1.089 3.999,1.463 0.313,0.1 0.625,0.2 0.926,0.275 9.035,2.587 11.984,-0.351 12.21,-0.225 0.246,0.141 -1.441,3.366 -9.877,2.053 z"
   id="path2" />
	<path
   fill="#674428"
   d="m 298.07,212.002 c -0.416,-0.053 -3.977,0.395 -5.676,1.301 -7.395,3.945 -12.982,3.707 -12.982,3.707 l 6.785,0.928 c 0,0 4.01,-2.813 5.52,-2.708 1.511,0.104 2.604,-1.51 3.125,-1.979 0.521,-0.469 3.228,-1.249 3.228,-1.249 z"
   id="path4" />
	<path
   fill="#674428"
   d="m 316.495,244.448 c -0.187,-0.376 -2.522,-3.099 -4.216,-4.016 -7.369,-3.993 -10.254,-8.785 -10.254,-8.785 v 3.421 c 0,0 8.395,4.216 9.141,5.534 0.746,1.317 2.5,0.468 2.773,1.758 0.145,0.686 2.556,2.088 2.556,2.088 z"
   id="path6" />
	<path
   fill="#674428"
   d="m 327.104,234.061 c 0,0 0.188,0.325 0.6,0.875 -0.199,0.051 -0.387,0.101 -0.6,0.15 z"
   id="path8" />
	<path
   fill="#674428"
   d="m 341.25,246.596 c -0.049,-0.037 -0.099,-0.087 -0.162,-0.124 -0.112,-0.101 -0.236,-0.2 -0.374,-0.301 -0.126,-0.112 -0.275,-0.225 -0.425,-0.337 l -0.238,-0.188 c -0.512,-0.375 -1.024,-0.712 -1.3,-0.787 -0.687,-0.176 -2.637,-0.2 -3.374,-1.525 -0.176,-0.324 -0.736,-0.824 -1.512,-1.399 l -0.014,-0.013 c -1.249,-0.937 -3.011,-2.1 -4.411,-3 1.45,0.601 2.774,1.089 3.999,1.463 0.313,0.1 0.625,0.2 0.926,0.275 l 1.624,1.412 0.438,0.374 z"
   id="path10" />
	<path
   fill="#674428"
   d="m 333.439,240.385 c 0.963,0.7 2.051,1.412 3.263,2.1 0.212,0.125 0.425,0.237 0.649,0.362 1.675,0.899 3.962,3.55 4.188,3.986 0.024,0.013 0.024,0.026 0.024,0.026 z"
   id="path12" />
	<path
   fill="#674428"
   d="m 187.937,193.724 c 0,0 3.958,-10.31 -1.25,-17.184 -5.208,-6.874 -1.875,-9.79 -1.875,-9.79 0,0 -2.813,0.625 -1.979,4.687 0.833,4.062 2.952,6.769 3.194,8.436 0.242,1.667 3.888,10.369 -4.809,17.995 z"
   id="path14" />
	<path
   fill="#674428"
   d="m 219.154,173.702 c 0,0 2.109,2.5 6.014,4.218 0,0 -4.295,-3.046 -3.904,-4.218 z"
   id="path16" />
	<path
   fill="#674428"
   d="m 224.055,165.953 c 0,0 4.92,2.234 11.968,2.025 0,0 -8.572,-1.496 -8.821,-3.521 z"
   id="path18" />
	<path
   fill="#674428"
   d="m 105.037,230.019 c 0,0 0.781,4.068 22.964,4.999 0,0 20.153,9.945 -0.885,2.864 -15.292,-5.148 -37.909,0.209 -37.493,-4.375 0.417,-4.582 15.414,-3.488 15.414,-3.488 z"
   id="path20" />
	<path
   fill="#9fbc3b"
   d="m 182.913,167.145 c 0,0 -11.129,0.119 -6.956,-11.208 0.001,0 7.909,2.662 6.956,11.208 z"
   id="path22" />
	<path
   fill="#9fbc3b"
   d="m 184.638,165.45 c 0,0 -5.579,-7.138 3.809,-10.038 0,0 2.188,6.43 -3.809,10.038 z"
   id="path24" />
	<path
   fill="#9fbc3b"
   d="m 218.869,155.412 c 0,0 -11.129,0.119 -6.955,-11.208 0,0 7.91,2.662 6.955,11.208 z"
   id="path26" />
	<path
   fill="#9fbc3b"
   d="m 220.595,153.717 c 0,0 -5.579,-7.138 3.81,-10.038 -0.001,0 2.187,6.431 -3.81,10.038 z"
   id="path28" />
	<path
   fill="#9fbc3b"
   d="m 218.286,158.346 c 0,0 -4.921,5.626 -8.726,-1.533 0.001,0 4.874,-2.768 8.726,1.533 z"
   id="path30" />
	<path
   fill="#9fbc3b"
   d="m 224.971,178.276 c 0,0 2.865,4.826 -3.132,5.868 0,0 -0.838,-4.124 3.132,-5.868 z"
   id="path32" />
	<path
   fill="#9fbc3b"
   d="m 225.168,177.212 c 0,0 4.763,-5.763 8.766,1.288 0,0 -4.793,2.904 -8.766,-1.288 z"
   id="path34" />
	<path
   fill="#9fbc3b"
   d="m 235.598,167.572 c 0,0 -2.86,-6.908 5.243,-7.142 0,0.001 0.32,5.597 -5.243,7.142 z"
   id="path36" />
	<path
   fill="#9fbc3b"
   d="m 236.25,168.103 c 0,0 6.246,-5.283 9.189,3.086 0,-0.001 -5.724,2.198 -9.189,-3.086 z"
   id="path38" />
	<path
   fill="#9fbc3b"
   d="m 297.348,211.729 c 0,0 -2.859,-6.907 5.244,-7.141 0,0.001 0.32,5.597 -5.244,7.141 z"
   id="path40" />
	<path
   fill="#9fbc3b"
   d="m 298.001,212.26 c 0,0 6.246,-5.282 9.19,3.086 0,0 -5.725,2.199 -9.19,-3.086 z"
   id="path42" />
	<path
   fill="#9fbc3b"
   d="m 305.68,225.581 c 0,0 -2.859,-6.907 5.244,-7.141 0,0 0.32,5.596 -5.244,7.141 z"
   id="path44" />
	<path
   fill="#9fbc3b"
   d="m 306.332,226.111 c 0,0 6.246,-5.283 9.19,3.086 0,0 -5.725,2.199 -9.19,-3.086 z"
   id="path46" />
	<path
   fill="#9fbc3b"
   d="m 273.755,204.129 c 0,0 -6.94,2.779 -7.08,-5.326 0,0 5.598,-0.256 7.08,5.326 z"
   id="path48" />
	<path
   fill="#9fbc3b"
   d="m 273.755,204.2 c 0,0 4.834,-5.704 8.749,1.396 0,0 -4.829,2.844 -8.749,-1.396 z"
   id="path50" />
	<path
   fill="#9fbc3b"
   d="m 274.225,203.175 c 0,0 -5.209,-6.307 3.193,-9.154 0,0 2.132,5.75 -3.193,9.154 z"
   id="path52" />
	<path
   fill="#9fbc3b"
   d="m 260.607,234.592 c 0,0 7.382,1.18 3.339,8.205 0,0 -4.936,-2.654 -3.339,-8.205 z"
   id="path54" />
	<path
   fill="#9fbc3b"
   d="m 259.813,234.871 c 0,0 1.231,8.086 -7.44,6.214 0,0 1.123,-6.029 7.44,-6.214 z"
   id="path56" />
	<path
   fill="#9fbc3b"
   d="m 339.527,229.991 c 0,0 -2.86,-6.907 5.244,-7.142 0,0.001 0.321,5.596 -5.244,7.142 z"
   id="path58" />
	<path
   fill="#9fbc3b"
   d="m 340.18,230.521 c 0,0 6.246,-5.283 9.189,3.086 0,0 -5.724,2.2 -9.189,-3.086 z"
   id="path60" />
	<path
   fill="#9fbc3b"
   d="m 346.918,240.574 c 0,0 0.047,-4.811 4.904,-2.906 0,0 -1.22,3.395 -4.904,2.906 z"
   id="path62" />
	<path
   fill="#9fbc3b"
   d="m 341.906,246.513 c 0,0 2.766,-3.937 5.688,0.387 0,-0.001 -2.929,2.104 -5.688,-0.387 z"
   id="path64" />
	<path
   fill="#9fbc3b"
   d="m 346.918,241.118 c 0,0 7.902,-2.113 6.995,6.712 0,0 -6.116,-0.454 -6.995,-6.712 z"
   id="path66" />
	<path
   fill="#9fbc3b"
   d="m 314.555,243.457 c 0,0 3.75,3.014 -0.75,5.65 0,0 -1.912,-3.057 0.75,-5.65 z"
   id="path68" />
	<path
   fill="#9fbc3b"
   d="m 314.129,243.121 c 0,0 -3.23,7.516 -9.602,1.341 0,0 4.142,-4.523 9.602,-1.341 z"
   id="path70" />
	<path
   fill="#9fbc3b"
   d="m 341.755,247.06 c 0,0 5.444,5.123 -1.85,8.664 0,0 -2.59,-4.972 1.85,-8.664 z"
   id="path72" />
	<path
   fill="#9fbc3b"
   d="m 340.942,246.844 c 0,0 -3.527,7.382 -9.647,0.958 0,0 4.318,-4.356 9.647,-0.958 z"
   id="path74" />
	<path
   fill="#674428"
   d="m 258.416,231.008 c 1.563,1.481 1.433,4.061 1.668,3.697 0.233,-0.364 -0.392,-3.203 0,-3.203 0.39,0 -1.668,-0.494 -1.668,-0.494 z"
   id="path76" />
	<path
   fill="#9fbc3b"
   d="m 137.078,240.086 c 0,0 2.867,-6.904 8.758,-1.335 0,0 -3.733,4.181 -8.758,1.335 z"
   id="path78" />
	<path
   fill="#9fbc3b"
   d="m 134.947,232.065 c 0,0 -2.606,-4.334 2.792,-5.303 0,0.001 0.776,3.712 -2.792,5.303 z"
   id="path80" />
	<path
   fill="#9fbc3b"
   d="m 135.497,232.788 c 0,0 2.155,-4.575 5.96,-0.626 0,0 -2.655,2.709 -5.96,0.626 z"
   id="path82" />
	<path
   fill="#9fbc3b"
   d="m 137.163,240.922 c 0,0 8.152,0.688 4.31,8.684 0,-0.001 -5.602,-2.499 -4.31,-8.684 z"
   id="path84" />
	<path
   fill="#674428"
   d="m 127.229,236.835 c 6.161,-2.286 8.387,-3.959 7.534,-3.952 -0.855,0.008 -6.822,2.413 -6.933,2.038 -0.11,-0.375 -0.601,1.914 -0.601,1.914 z"
   id="path86" />
	<path
   fill="#674428"
   d="m 245.439,204.529 c 0,0 10.27,-2.631 18.549,-0.678 8.28,1.953 9.217,0.678 9.217,0.678 0,0 0.965,-0.041 0.34,0.408 -0.626,0.45 -1.406,2.533 -8.28,0.814 -6.874,-1.718 -8.488,-1.875 -9.426,-0.677 -0.937,1.198 -1.665,1.927 -1.665,1.927 z"
   id="path88" />
</g>
</svg>
