<?xml version="1.0" encoding="utf-8"?>
<!-- Generator: Adobe Illustrator 19.2.1, SVG Export Plug-In . SVG Version: 6.00 Build 0)  -->
<svg version="1.1" id="layer" xmlns="http://www.w3.org/2000/svg" xmlns:xlink="http://www.w3.org/1999/xlink" x="0px" y="0px"
	 viewBox="0 0 652 652" style="enable-background:new 0 0 652 652;" xml:space="preserve">
<style type="text/css">
	.st0{fill:#231F20;}
	.st1{fill:#003D2C;}
	.st2{fill:#FFC938;}
</style>
<path class="st0" d="M174.9,225.9H20.1l0,1.3c0,0.6,0.2,57.5,0,73.3c0.3,22.5,5.3,42.4,15.8,62.8c10.8,17.9,28.9,42.6,61.1,51.9
	l0.4,0.1l0.4-0.1c15.5-4.4,38.7-14.6,61.3-51.9c10.5-20.3,15.5-40.2,15.8-62.7c-0.2-16,0-72.8,0-73.3"/>
<path class="st1" d="M97.6,318L39,363.2H39l0,0.1c16.7,27.2,34.7,42.4,58.4,49.2h0c30.9-9,48.2-32.4,58.6-49.2l0-0.1L97.6,318"/>
<path class="st1" d="M168.8,329.7l0-0.1c2.2-9.3,3.3-18.9,3.4-29c-0.2-15.5,0-69.6,0-71.9v-0.1H22.8v0.1c0,9.5,0.2,57.4,0,71.9
	c0.1,10.2,1.2,19.7,3.4,29l0,0.1l71.4-54.2L168.8,329.7"/>
<path class="st2" d="M168.1,332.6L168.1,332.6l-70.6-53.7L27,332.5l0,0.1h0l0.1,0.3c1.1,4.3,2.5,8.6,4,12.8c2.4,6.3,5,12,6.8,15
	l0,0.1l59.7-46.2l59.6,46.2h0.1l0-0.1c0.3-0.4,0.6-1,0.9-1.6C162.6,350.2,165.8,341.5,168.1,332.6"/>
<path class="st0" d="M118.1,243.4l-3.8,0l-3.3-3.6l-0.4,0.1c-1.3,0.4-2.3,0.3-3.7-0.3c-1.6-0.9-2.9-1.3-4.5-1.3
	c-1.6,0-3.5,0.8-4.7,2c-1.2-1.2-3.1-2-4.7-2c-1.7,0-2.9,0.3-4.5,1.2c-1.6,0.7-2.5,0.7-3.8,0.3l-0.4-0.1l-3.3,3.6l-3.8,0l0,28.2
	l17.3,0.1c0.6,0.7,1.8,1.2,3.3,1.2c1.5,0,2.7-0.5,3.3-1.2l17.3-0.1"/>
<path class="st2" d="M89.3,261.4c0.9-0.5,2.1-1.1,3.7-1.1c1.7,0,3.1,0.7,4,1.3v-19.8c-0.9-1.1-2.7-2-4.1-2c-1.5,0-2.5,0.3-3.9,1.1
	c-1.7,0.7-2.8,0.8-4.1,0.5v19.9c0.7,0.6,1.2,0.8,2.6,0.8C88,262.1,88.6,261.7,89.3,261.4"/>
<path class="st2" d="M83.7,263c0.8,0.6,2,0.9,3.4,0.8c0.7,0,1.3-0.3,2-0.5c1-0.4,2.1-0.8,3.7-0.9c2,0,3.1,0.7,3.6,1.2l0.1-0.2
	l0.5-0.8v-0.1c-0.7-0.5-2.2-1.5-4-1.5c-1.4,0-2.4,0.6-3.3,1c-0.7,0.4-1.4,0.7-2.2,0.7c-1.5,0-2.2-0.3-3-0.8"/>
<path class="st2" d="M105.8,261.4c0.7,0.4,1.3,0.6,1.9,0.6c1.4,0,1.9-0.2,2.6-0.8v-19.9c-1.3,0.3-2.4,0.2-4-0.5
	c-1.5-0.9-2.5-1.3-4-1.3c-1.4,0-3.2,1-4.1,2.1v19.8c0.8-0.6,2.3-1.3,4-1.3C103.8,260.3,104.9,260.9,105.8,261.4"/>
<polyline class="st2" points="79,244.2 79,268.2 95.1,268.2 94.9,267.8 94.9,267.2 94.9,267 94.6,267 80.6,267 80.6,244.2 "/>
<polyline class="st2" points="81.9,244.2 81.9,264.3 82.2,263.9 82.2,243.9 "/>
<path class="st2" d="M100.1,270.4L100.1,270.4l16.7-0.1V269l-17.4,0c-0.5,0.4-1.1,0.7-1.8,0.7c-0.7,0-1.3-0.3-1.8-0.7H78.4v1.3
	l16.6,0.1l0.1,0.1c0.3,0.6,1.3,1.1,2.5,1.1C98.8,271.5,99.8,271,100.1,270.4"/>
<polyline class="st2" points="100,268.2 116.1,268.2 116.1,244.2 114.5,244.2 114.5,267 100.5,267 100.2,266.9 100.2,267.2 
	100.1,267.9 100,268.2 "/>
<path class="st2" d="M81.9,265.7l12.7,0l0.6-0.3c-0.5-0.3-1.6-0.9-3.4-0.8c-1.5,0-2.5,0.3-3.3,0.5c-0.7,0.2-1.3,0.4-2.1,0.4
	c-1.8,0-3.1-0.3-3.8-0.8L81.9,265.7"/>
<path class="st2" d="M98.1,262.6l0.5,0.8l0.1,0.2c0.5-0.5,1.7-1.3,3.6-1.2c1.6,0,2.7,0.5,3.7,0.9c0.7,0.3,1.3,0.5,2,0.5
	c1.4,0.1,2.5-0.2,3.4-0.8l-0.7-1c-0.8,0.6-1.5,0.9-3,0.9c-0.8,0-1.5-0.4-2.2-0.8c-0.9-0.5-1.9-1-3.3-1
	C100.3,261,98.8,262,98.1,262.6"/>
<path class="st2" d="M97.6,264L97.6,264c-0.5,0.9-1.1,2-1.9,2.5l-0.2,0.7c0,1,0.9,1.9,2,1.9c1.1,0,2-0.8,2-1.9l-0.2-0.8
	C98.6,265.8,98,264.9,97.6,264L97.6,264"/>
<polyline class="st2" points="83.4,262 84,261.3 84,241.8 83.4,242.4 "/>
<path class="st2" d="M86.4,265.1c0.7,0,1.3-0.2,2-0.3c0.9-0.2,1.9-0.5,3.4-0.5c2,0,3.2,0.6,3.7,0.9l0.7-1.1
	c-0.4-0.4-1.5-1.2-3.4-1.2c-1.5,0-2.6,0.5-3.6,0.8c-0.7,0.3-1.4,0.5-2.1,0.6c-1.5,0.1-2.7-0.3-3.6-0.9l-0.7,1
	C83.5,264.8,84.7,265.1,86.4,265.1"/>
<polyline class="st2" points="82.6,263.3 83,262.6 83,242.9 82.6,243.4 "/>
<path class="st2" d="M108.7,265.4c-0.7,0-1.3-0.2-2.1-0.4c-0.9-0.2-1.8-0.5-3.3-0.5c-1.8,0-2.9,0.5-3.4,0.8l0.6,0.3l12.7,0v0l-0.7-1
	C111.8,265.2,110.5,265.4,108.7,265.4"/>
<polyline class="st2" points="112.9,263.9 113.2,264.3 113.2,244.2 112.9,243.9 "/>
<polyline class="st2" points="112.1,262.6 112.5,263.3 112.5,243.4 112.1,242.9 "/>
<path class="st2" d="M108,264.2c-0.7,0-1.4-0.3-2.1-0.6c-1-0.4-2-0.8-3.5-0.8c-1.9,0-3,0.8-3.4,1.2l0.7,1.1c0.5-0.4,1.7-1,3.7-0.9
	c1.5,0,2.5,0.3,3.4,0.5c0.7,0.2,1.3,0.3,2,0.3c1.7,0,2.9-0.2,3.6-0.7l-0.7-1C110.7,264,109.5,264.3,108,264.2"/>
<polyline class="st2" points="111.1,261.3 111.7,262 111.7,242.4 111.1,241.8 "/>
<path class="st0" d="M66.7,240.8c-1.6,0-3,1-3.6,2.4l-0.4,0c-0.6,0-1.2,0.1-1.7,0.3l-1.2,0.7l-0.1,0.1c-0.8,0.8-1.3,1.9-1.3,3.1
	c0,0.7,0.2,1.3,0.4,1.9c0.5,0.9,1.2,1.7,2.2,2.1c0,2.6-0.6,4.3-1.3,4.5c-0.7,0.2-1.6-0.6-2.7-2.3l-0.8-1.3l-0.8,1.3
	c-1.1,1.5-2.3,2.2-3,2c-0.5-0.2-0.9-1.1-0.9-2.4l0-1.4l0,0l0.1-0.7v0l0,0l0,0l1.1-0.1l0.2-0.1l1.1-0.5c0.9-0.6,1.4-1.3,1.6-2.1
	c0.3-0.8,0.2-1.6,0.2-2c-0.1-0.9-0.7-2.1-1.7-2.7c-0.3-0.1-0.8-0.3-1.4-0.4l0,0l0,0c0.2-0.9,0.1-1.9-0.3-2.7c-0.4-0.8-1-1.3-1.9-1.7
	c-0.5-0.2-1-0.3-1.7-0.3c-0.7,0-1.3,0.1-1.7,0.3c-0.9,0.4-1.5,0.9-1.9,1.7c-0.4,0.8-0.5,1.8-0.3,2.7l0,0l0,0
	c-0.6,0.1-1.1,0.3-1.4,0.4c-1,0.6-1.6,1.8-1.7,2.7c0,0.3-0.1,1.1,0.2,2c0.2,0.7,0.7,1.5,1.6,2.1l1.2,0.5l0.1,0l1,0h0l0,0v0l0,0.3
	l0,0.3l0.1,1.5c-0.1,1.3-0.4,2.2-0.9,2.4c-0.6,0.2-1.8-0.5-3-2l-0.8-1.3l-0.8,1.3c-1.1,1.7-2.1,2.5-2.7,2.3
	c-0.8-0.2-1.4-1.9-1.3-4.5c1-0.4,1.7-1.1,2.2-2.1c0.3-0.6,0.4-1.2,0.4-1.9c0-1.2-0.5-2.3-1.3-3.1l-0.1-0.1l-1.2-0.7
	c-0.5-0.2-1.1-0.3-1.7-0.3l-0.4,0c-0.6-1.4-2-2.4-3.6-2.4c-2.1,0-3.9,1.7-3.9,3.8c0,1.7,1.2,3.5,2.7,4l3.1,17.2l0.2,1.4v0
	c0.3,0.4,2.9,3.1,15.6,3.1h0c12.8,0,15.4-2.8,15.7-3.1l0,0v0l0,0h0l0.2-1.3c1.1-5.9,2.2-11.4,3.2-17.3c1.6-0.6,2.7-2.4,2.7-4
	C70.6,242.4,68.4,240.8,66.7,240.8"/>
<path class="st2" d="M62.6,266.8c-1.3-0.7-4.8-2.1-13.8-2.1s-12.6,1.4-13.9,2.1c1.3,0.7,4.8,2.1,13.8,2.1
	C57.7,269,61.3,267.6,62.6,266.8"/>
<path class="st2" d="M66.2,250l0.3-1.3l0.2-1.3c1.3-0.1,2.6-1.5,2.6-2.8c0-1.4-1.1-2.5-2.5-2.5c-1,0-1.9,0.6-2.3,1.4l-0.2,1l0,0.3
	c-0.4-0.2-0.9-0.4-1.4-0.4h-0.1l-1.3,0.3l-1.1,1c-0.3,0.5-0.5,1-0.5,1.6c0,1,0.5,1.8,1.2,2.3c0.4,0.3,0.9,0.5,1.4,0.5l0,1.3l0,1.1
	c-0.2,3.2-1.4,4.1-2.3,4.4l-0.6,0.1c-0.9,0-1.9-0.5-3.3-2.5c-1,1.3-2.4,2.1-3.5,2.1l-0.7-0.1c-1.1-0.4-1.8-1.7-1.8-3.6
	c0-0.5,0-0.9,0-1.4h0l0-0.2l0.1-0.9l0-0.3l0.1-1l0.2,0.1l0.8,0.3l0.7,0.1l0.1,0c0.3,0,0.8-0.1,1.3-0.4l0.9-0.9
	c0.3-0.5,0.4-1.1,0.3-1.8c0,0-0.3-1.2-1.3-1.7l-1.3-0.2c-0.5,0-1,0.1-1.5,0.2l0.8-1.3c0.1-0.3,0.3-0.8,0.3-1.4l-0.2-1l-0.2-0.3
	l-1-0.7c-0.3-0.1-0.7-0.2-1.2-0.2c-0.5,0-0.9,0.1-1.2,0.2l-1,0.7l-0.2,0.3l-0.2,1c0,0.6,0.2,1,0.3,1.4l0.8,1.3
	c-0.5-0.1-1-0.2-1.5-0.2l-1.3,0.2c-1,0.5-1.3,1.7-1.3,1.7c-0.1,0.7,0,1.3,0.3,1.8l0.9,0.9c0.5,0.3,1,0.4,1.3,0.4h0.1l0.6,0l0.8-0.3
	l0.2-0.1l0.1,1l0,0.3l0.1,1.1c0,0.5,0,1.1,0,1.5c-0.1,1.9-0.7,3.2-1.8,3.6l-0.7,0.1c-1.1,0-2.4-0.8-3.5-2.1c-1.4,2-2.5,2.5-3.4,2.5
	l-0.6-0.1c-0.9-0.2-2-1.2-2.3-4.4l0-1.1l0-1.3c0.5-0.1,1-0.3,1.4-0.5c0.7-0.5,1.2-1.4,1.2-2.3c0-0.6-0.2-1.2-0.5-1.6l-1.1-1
	l-1.3-0.3h-0.1c-0.5,0-1,0.2-1.4,0.4l0-0.3l-0.2-1c-0.4-0.8-1.3-1.4-2.3-1.4c-1.4,0-2.5,1.1-2.5,2.5c0,1.3,1.3,2.7,2.6,2.8l0.2,1.3
	l0.3,1.3l2.9,15.4l0,0.1l0,0.1c1.8-0.9,5.7-2.2,14.4-2.2h0c8.8,0,12.7,1.3,14.4,2.2l0-0.1l0,0v0l1-5.2"/>
<path class="st0" d="M164.1,240.8c-1.6,0-3,1-3.6,2.4l-0.4,0c-0.6,0-1.2,0.1-1.7,0.3l-1.2,0.7l-0.1,0.1c-0.8,0.8-1.3,1.9-1.3,3.1
	c0,0.7,0.2,1.3,0.4,1.9c0.4,0.9,1.2,1.7,2.2,2.1c0,2.6-0.6,4.3-1.3,4.5c-0.7,0.2-1.6-0.6-2.7-2.3l-0.8-1.3l-0.8,1.3
	c-1.1,1.5-2.3,2.2-3,2c-0.5-0.2-0.9-1.1-0.9-2.4l0-1.4l0,0l0.1-0.7v0l0,0l0,0l1.1-0.1l0.2-0.1l1.1-0.5c0.9-0.6,1.4-1.3,1.6-2.1
	c0.3-0.8,0.2-1.6,0.2-2c-0.1-0.9-0.7-2.1-1.7-2.7c-0.3-0.1-0.8-0.3-1.4-0.4l0,0l0,0c0.2-0.9,0.1-1.9-0.3-2.7c-0.4-0.8-1-1.3-1.9-1.7
	c-0.5-0.2-1-0.3-1.7-0.3c-0.7,0-1.3,0.1-1.7,0.3c-0.9,0.4-1.5,0.9-1.9,1.7c-0.4,0.8-0.6,1.8-0.3,2.7l0,0l0,0
	c-0.6,0.1-1.1,0.3-1.4,0.4c-1,0.6-1.6,1.8-1.7,2.7c0,0.3-0.1,1.1,0.2,2c0.2,0.7,0.7,1.5,1.6,2.1l1.2,0.5l0.1,0l1,0h0l0,0v0l0,0.3
	l0,0.3l0.1,1.5c-0.1,1.3-0.4,2.2-0.9,2.4c-0.6,0.2-1.8-0.5-3-2l-0.8-1.3l-0.8,1.3c-1.1,1.7-2.1,2.5-2.7,2.3
	c-0.8-0.2-1.4-1.9-1.3-4.5c1-0.4,1.7-1.1,2.2-2.1c0.3-0.6,0.4-1.2,0.4-1.9c0-1.2-0.5-2.3-1.3-3.1l-0.1-0.1l-1.2-0.7
	c-0.5-0.2-1.1-0.3-1.7-0.3l-0.4,0c-0.6-1.4-2-2.4-3.6-2.4c-2.1,0-3.9,1.7-3.9,3.8c0,1.7,1.2,3.5,2.7,4l3.1,17.2l0.2,1.4v0
	c0.3,0.4,2.9,3.1,15.6,3.1h0c12.8,0,15.4-2.8,15.7-3.1l0,0v0l0,0h0l0.2-1.3c1.1-5.9,2.2-11.4,3.2-17.3c1.6-0.6,2.7-2.4,2.7-4
	C168,242.4,165.8,240.8,164.1,240.8"/>
<path class="st2" d="M159.9,266.8c-1.3-0.7-4.8-2.1-13.8-2.1c-9,0-12.6,1.4-13.9,2.1c1.3,0.7,4.8,2.1,13.8,2.1
	C155.1,269,158.7,267.6,159.9,266.8"/>
<path class="st2" d="M163.5,250l0.3-1.3l0.2-1.3c1.3-0.1,2.6-1.5,2.6-2.8c0-1.4-1.1-2.5-2.5-2.5c-1,0-1.9,0.6-2.3,1.4l-0.2,1l0,0.3
	l-1.4-0.4h-0.1l-1.3,0.3l-1.1,1c-0.3,0.5-0.5,1-0.5,1.6c0,1,0.5,1.8,1.2,2.3c0.4,0.3,0.9,0.5,1.4,0.5l0,1.3l0,1.1
	c-0.2,3.2-1.4,4.1-2.3,4.4l-0.6,0.1c-0.9,0-1.9-0.5-3.4-2.5c-1,1.3-2.4,2.1-3.5,2.1l-0.7-0.1c-1.1-0.4-1.7-1.7-1.8-3.6
	c0-0.5,0-0.9,0-1.4h0l0-0.2l0.1-0.9l0-0.3l0.1-1l0.1,0.1l0.8,0.3l0.7,0.1l0.1,0c0.3,0,0.8-0.1,1.3-0.4l0.9-0.9
	c0.3-0.5,0.4-1.1,0.3-1.8c0,0-0.3-1.2-1.3-1.7l-1.3-0.2c-0.5,0-1,0.1-1.5,0.2l0.8-1.3c0.1-0.3,0.3-0.8,0.3-1.4l-0.2-1l-0.2-0.3
	l-1.1-0.7c-0.3-0.1-0.7-0.2-1.2-0.2c-0.5,0-0.9,0.1-1.2,0.2l-1,0.7l-0.2,0.3l-0.2,1c0,0.6,0.2,1,0.3,1.4l0.8,1.3
	c-0.5-0.1-1-0.2-1.5-0.2l-1.3,0.2c-1,0.5-1.3,1.7-1.3,1.7c-0.1,0.7,0,1.3,0.3,1.8l0.9,0.9c0.5,0.3,1,0.4,1.3,0.4h0.1l0.6,0l0.9-0.3
	l0.2-0.1l0.1,1l0,0.3l0.1,1.1c0,0.5,0,1.1,0,1.5c-0.1,1.9-0.7,3.2-1.8,3.6l-0.7,0.1c-1.1,0-2.4-0.8-3.5-2.1c-1.4,2-2.5,2.5-3.3,2.5
	l-0.6-0.1c-0.9-0.2-2.1-1.2-2.3-4.4l0-1.1l0-1.3c0.5-0.1,1-0.3,1.4-0.5c0.7-0.5,1.2-1.4,1.2-2.3c0-0.6-0.2-1.2-0.5-1.6l-1.1-1
	l-1.3-0.3h-0.1c-0.5,0-1,0.2-1.4,0.4l0-0.3l-0.2-1c-0.4-0.8-1.3-1.4-2.3-1.4c-1.4,0-2.5,1.1-2.5,2.5c0,1.3,1.3,2.7,2.6,2.8l0.2,1.3
	l0.3,1.3l2.9,15.4l0,0.1l0,0.1c1.8-0.9,5.7-2.2,14.4-2.2h0c8.8,0,12.7,1.3,14.4,2.2l0-0.1l0,0v0l1-5.2"/>
<path class="st0" d="M115,356.9c0.8-1.9,0.4-2.4,0.4-2.4l1.8-5.3l-2.4,3.7l-0.7-0.3c0,0,1.5-1.3,0.9-2.1c0,0-0.3-0.7-2.1-0.5
	c0,0,0.2-1.9-0.3-2.5l0.4-7.6l-1.8,6.4c0,0-0.5-0.6-1-0.6l0.7-0.9c0,0,0.8-1.5-0.7-1.7c0,0-0.7-0.1-1.3,0.1c0,0,0.2-1.9-0.5-2.5
	l0-7.5l-1.7,7.4c0,0-0.5,0.1-1,2.3c0,0-1-0.8-2.3-0.2l-0.7-6.8l-0.9,7.5c0,0-0.5,0.4-0.6,1.1l-0.5-0.1l0.7-1.3c0,0,0.2-1.2-0.8-1.3
	c0,0-0.6-0.2-1.5,0.2c0,0-0.1-2.1-0.7-2.4l-0.8-7.5l-0.9,7.5c0,0-0.8,0.3-0.7,2.3c0,0-1.8-0.4-2.2,0.2c0,0-0.5,1.2,0.6,2.3l-0.9,0.3
	l-0.3-0.3l-0.8-7.5l-0.9,7.5c0,0-0.4,0.2-0.5,0.9c0,0-0.4-0.4-1.1-0.3c0,0,0.5-0.8,0.5-1.5c0,0,0.3-1.8-2.4-0.7c0,0-0.2-1.8-1-2.3
	l-1.6-7.4l-0.1,7.7c0,0-0.7,0.2-0.4,2.5c0,0-1.1-0.6-2.2,0.2l-1.3-4.5l0.4,7.5c0,0-0.6,0.5-0.3,2.5c0,0-4.2-0.7-1.2,2.6
	c0,0-2.5,0.7-0.1,2.5l-0.6,0.3l-3.5-4.4l2.1,5.1c0,0-0.3,0.7,0.6,2.3c0,0-3.6,0.7,0,2.8c0.1-0.1-2.1,1.3,0.8,2.4
	c0,0-1.4,1.4,0.9,2.3c0,0-1,1.6,1.4,2.3c0,0-1.3,1.1,1.3,2.5c-0.6,0.3-0.9,0.9-0.3,2.2l1.4,2.2c0,0-2,2.4-0.1,3.7l0,0.5
	c0.2,2-4.6,11.4-5.6,13.1c-0.7,1.1-0.3,3.6,0.7,4.4c0.8,0.5,2.1,0.9,3.1,0.9c0.4,0.9,1,1.7,1.9,2.1c0.8,0.3,1.7,0.4,2.2,0.4l1.1-0.1
	c0.6,0.8,1.6,1.6,2.5,1.7l1.3,0.2c0.4,0,1.5-0.1,2.3-0.5c0.8,0.7,2.4,1.3,3.5,1.3l0.2-0.1c1.2-0.1,2.2-0.8,2.7-1.4
	c0.4,0.3,1.5,0.9,2.6,0.9h0.1c1-0.1,2.3-0.7,3-1.4c0.7,0.2,1.7,0.3,2.5,0c0.8-0.3,1.8-0.9,2.3-1.7c1,0,1.9-0.2,2.5-0.7
	c0.8-0.5,1.7-1.6,1.6-2.6l-0.1-0.3c-0.4-0.7-5.6-13.3-6.7-16.6c0.6-0.5,1.7-1.4,1.7-2.6l0.3-0.7c0,0,1.4-2.1,0.8-3.3l0.1-0.1
	c1.8-0.7,1.4-1.6,1.4-1.6l-0.3-0.4c2.5-1.4,0.9-2.2,0.9-2.2c2.3-0.8,1.2-2.4,1.2-2.4c2.3-1.4,0.6-2.4,0.6-2.4
	c2.8-1.3,0.8-2.5,0.8-2.5C118.6,357.3,115,356.9,115,356.9"/>
<path class="st2" d="M85.6,378.6c-0.3,3.3-5.7,13.4-5.8,13.5c-0.5,0.8,0,2.2,0.4,2.6c0.4,0.3,1.3,0.6,1.9,0.6l0.4-0.1
	c0.5-1.2,4.5-12.8,4.7-13.8l0.8-0.5l0.5,0.9c0,0.1-4.1,12.6-5,14.2c0.1,0.4,0.4,1.1,1.2,1.5c0.4,0.2,1,0.3,1.6,0.3
	c0.5,0,0.8-0.1,1-0.1c0.5-1,2.1-9.7,2.6-12.6c0.3-1.4,0.4-2.2,0.5-2.4l0.8-0.5l0.5,0.8c0,0.2-0.2,1-0.4,2.1l0,0.2
	c-1.7,9.3-2.3,11.9-2.7,12.8c0.3,0.4,1,1.1,1.7,1.3l1,0.1c0.9,0,1.6-0.2,1.8-0.4c0.3-1.7,1.2-14,1.2-15.1l0.7-0.7l0.7,0.7
	c0,0.8-0.8,12.8-1.2,15.4c0.4,0.4,1.7,0.9,2.6,0.9h0.1c0.7-0.1,1.5-0.7,2-1.2c-0.1-2.1-1-13.1-1.1-13.9l0.6-0.8l0.5,0.2l0.3,0.4
	c0,0.1,1.1,10.9,1.1,14c0.4,0.3,1.2,0.7,2,0.7c0.9,0,1.9-0.6,2.2-1c-0.1-1-1.3-6.4-1.7-7.9l0.5-0.8l0.5,0.1l0.3,0.4
	c0,0.1,1.5,6,1.8,8h1.6c0.8-0.3,1.4-0.8,1.6-1.3c-0.1-0.5-1.4-4.4-5.6-15.6l-0.1-0.2l0-0.5l0.4-0.3l0.9,0.4l0.1,0.2
	c3.3,8.7,5.1,13.8,5.6,15.5h0c0.6,0,1.2-0.1,1.6-0.4c0.5-0.3,0.9-1,1-1.3c-0.6-1.4-5.3-12.6-6.7-16.4c-1.9,0.5-5.3,0.5-5.3,0.5
	c0,1.3,1.6,4.5,1.6,4.5c-4.3,0.2-7.6-4.5-7.6-4.5c-4.2-0.1-8-0.6-9.3-0.8L85.6,378.6"/>
<path class="st2" d="M101.7,372.8c0,0,0.7,1-0.4,5c0,0,3.7-0.2,4.3-0.3l0.7-0.3l1.4-1.1c0,0,0.2-0.3,0.3-0.8l0.4-1.1
	c0,0,0.6-0.8,0.8-1.7c0,0,0.3-0.7-0.9-0.5c0,0-1.2,0.2-1.9,0.4C106.6,372.2,105.9,372.8,101.7,372.8"/>
<path class="st2" d="M98.2,376.3l-1.3-3.8c0,0-0.5-1.5-2.1-1.1c0,0-1.6,0.5-0.3,2c0,0,0.6,0.7,0.7,1.9c0,0,0,3.9,5.3,6.7
	c0,0-1.1-2.7-0.4-5c0,0,1.7-4.8-1.6-5.8c0,0-1.1-0.4-0.6,0.5c0,0,0.3,0.4,0.3,1.9"/>
<path class="st2" d="M92.6,372.3c0,0-6-0.9-7.2-1.1l-1-0.2c0,0-0.5-0.2-0.2,0.4l0.3,0.5l1,1.7c0,0,0.5,0.8-0.2,1.7
	c0,0-1.8,1.7,1.8,2c0,0,6.3,0.7,7.4,0.7c0,0-0.6-1.6-0.6-2.5c0-0.2-0.1-0.8-0.7-1.4C93.2,373.9,92.6,373.1,92.6,372.3"/>
<path class="st2" d="M91.2,368.9l-0.2-0.3l-0.3,0.1l-2,1.6h0c0.7,0.1,1.5,0.2,2.3,0.4h0C91.2,370.2,91.4,369.4,91.2,368.9"/>
<path class="st2" d="M87.9,359.2l0.1-0.1l-1.2,0.5h0h0l0.3,1.3l0,0.1l0.3-0.2C87.2,359.9,87.7,359.4,87.9,359.2"/>
<path class="st2" d="M108.5,349.9l0.1,0.8l1.6,2.8l-2.1-0.9l-0.7-0.1l0.2,0.6l2.2,2.7l-2.3-0.8l0-0.1l0,0.1l-0.5,0.6l0,0.1h0
	c0.5,0.1,0.8,0.3,0.9,0.7c0.2,0.7-0.6,1.5-0.8,1.7l0,0.1h0c0.2,0.1,0.8,0.4,0.7,1.3h0h0.1l0-0.1h0.1l0.6-0.1h0.2h0
	c-0.1-0.2-0.3-1.3,0.2-1.8c0.3-0.3,0.7-0.4,1.3-0.2h0c0-0.3-0.2-1.8,0.5-2.2c0.3-0.2,0.8-0.1,1.3,0.2h0l1.2-0.8h0l0.9-0.7h0l0-0.1
	c-0.7-0.7-3.5,0.2-3.6,0.3h-0.1l3.1-2.5l0.4-0.6l-0.7-0.1l-1.2,0.5l-0.1-3.1l-0.2-0.3l-0.4,0.1h0l-1,2.7v0.1l-1.2-0.7L108.5,349.9"
	/>
<polyline class="st2" points="96.1,351.6 96.1,351.6 96.6,351.7 96.6,351.8 96.6,351.7 96.7,350.9 96.7,350.8 96.7,350.9 
	96.1,351.6 "/>
<path class="st2" d="M95.1,346.5L95.1,346.5c0.6,0,1,0.2,1.2,0.5c0.4,0.7-0.4,1.9-0.6,2.1l0,0.1h0.2l0.1,0.1
	c0.6,0.1,0.8,0.5,0.9,0.5l0,0.1l0.6-5.1l0.7,6.3l0,0.1l0-0.1l0.7-0.4h0h0c-0.6-0.8-0.8-1.3-0.7-1.7c0.2-0.5,1-0.7,1.2-0.7h0l0-0.1
	c-0.8-0.8-0.7-1.8-0.6-2.1h0l-1.1,0.2l1.3-1.4c1.5-1.3,1.5-1.8,1.4-1.9h-0.2c-0.7,0-1.7,0.8-1.7,0.8h0l-0.3-1.1
	c0-0.8-0.2-1.6-0.2-1.7l-0.4-0.4l-0.3,0.4l-0.2,1.4c-0.1,0.6-0.3,1.3-0.4,1.4h0c-1.4-1-1.8-0.8-1.9-0.8l0.6,1.1l1.6,2.1h0
	c-0.6-0.2-1.8-0.6-1.8-0.6c-0.8-0.2-1-0.1-1.1,0.1L95.1,346.5"/>
<path class="st2" d="M86.8,347.1L86.8,347.1L86.8,347.1c0,0-1.8-0.7-2.8-0.8l0-0.1l0,0.1c0.2,0.2,0.7,1.1,0.8,2h0
	c0.2-0.1,1.5-0.7,2.1-0.2c0.4,0.3,0.3,1.1-0.1,2.2l0,0.1h0.1l1.2,0.4l0.2,0.9l0,0.1h0l0.4-0.2l0-0.1h0c-0.2-0.2-0.8-1-0.6-1.6
	c0.1-0.4,0.5-0.7,1.2-0.8h0l-0.3-0.4h0l-1.6,0.2l1.2-1h0l0-0.1l0.1-1c0.2-0.3,0.7-0.4,1.4-0.3h0l0-0.1l0.2-0.4c0-0.1-0.2-0.1-0.7,0
	c-0.1,0-1.6,0.5-2.4,1.1l0,0.1l2.1-3l0.2-0.8h0c-0.1,0-0.6-0.2-1.8,1h0c0-0.1-0.5-1-0.7-1.9l-0.3-1.1h0l-0.3-0.1h0l-0.2,0.2l0,0.1
	c0,0.1-0.1,0.9-0.1,1.7l-0.2,1.3h0c0,0-0.9-0.6-1.8-0.6h0l-0.1,0.1l0,0.2C83.9,344.3,85,345.9,86.8,347.1"/>
<path class="st2" d="M83.1,354.6L83.1,354.6c-0.3,0-1.2,0-2.1,0.3h0h0l1,0.5h0c0.5-0.4,1-0.4,1.3-0.3c0.7,0.4,0.7,1.9,0.6,2.1l0,0.1
	h0c0.6-0.2,1-0.2,1.3,0.1c0.5,0.5,0.4,1.5,0.3,1.8h0h0.3l1.5-1.4h0l0-0.1l0-0.6l0.7-0.5h0l0-0.1l-0.5-0.5h0l-2.7,0.8l2.4-2h0h0
	c0-0.1-0.1-0.5,0.6-0.9h0l0-0.1L88,354c-0.1-0.1-0.4-0.2-1.3,0.1l-2.4,0.7l2.1-1.9h0l0.1-0.2l0.7-1.1h0c0-0.1-0.2-0.2-1,0.2l-2,1
	l1.5-2.4l0.5-1.3h0l0-0.1c0,0-0.3-0.1-1.1,0.5l-0.7,0.7h0c0-0.1-0.5-0.9-0.6-1.4l-0.6-1.6h0l-0.5,0.1h0c0,0.2-0.1,1.1,0,2l-0.1,1.3
	h0l-2-0.5h0v0.1c0,0.1,0,0.6,1.5,1.5l1.7,1.2l-2.1-0.2h0l-1.1,0.2l0.2,0.4"/>
<path class="st2" d="M115.6,358.2L115.6,358.2L115.6,358.2l-0.1-0.1h0l0-0.1l0,0.1l-1.8-0.1h0l0.8-3l0-0.3l-0.3,0.1
	c-0.6,0.5-1.9,2.5-1.9,2.5h0l-0.6-0.9l-0.5-0.4h-0.1l-0.1,1l0.4,2.7l-1.3-1.4l-0.7-0.2l0,0.7l1,2.7l-1.6-1.1l-0.8-0.1l0.2,1.4
	l1.4,2.5l-2.1-1.5l-0.6-0.2l-0.1,0.1l0.2,1.1l1,2.7l-1.9-1.5h-0.4l-0.1,1l1.6,2.7l-2.1-1.4l-0.6-0.2l0.1,0.9l1.6,2.5l-2.3-1.4h-0.3
	l-0.2,0.3c-0.2,0.8,0.3,1.7,0.4,2h0.1c1-0.1,1.3-0.2,1.4-0.2c2.4-0.8,3.6-0.7,4.2-0.4h0c1.1-0.3,1.3-0.5,1.3-0.7l-0.6-0.4
	c-1.4-0.4-2.3-0.7-2.4-0.7l0-0.1h0c1-0.1,3.3-0.6,3.3-0.6l0.5-0.4l-0.6-0.4l-3.2-0.5l4-0.8c0.6-0.2,0.9-0.4,0.9-0.7l-0.5-0.5
	l-2.3-0.8l3.1-0.5l0.6-0.4l-0.4-0.4l-2.5-0.9l3.3-0.8l0.5-0.4l-0.6-0.3l-2.3-0.4l2.7-1.1C115.5,358.5,115.6,358.3,115.6,358.2"/>
<polyline class="st2" points="100.4,370.4 100.4,370.4 100.4,370.4 100.9,371 101,371 101.4,370.3 100.4,370.4 "/>
<path class="st2" d="M101.3,368.1l-0.6-0.1l-3.2,0.4l0.1-0.1c1.9-0.9,3.5-2.1,3.5-2.2l0.2-0.5l-0.4-0.1h-0.1l-4.1,1l3.1-1.9
	c1.7-0.9,1.6-1.6,1.6-1.6l-0.1-0.2l-0.9-0.1l-2.8,0.4l3.3-2h0l0.3-0.5l-0.5-0.2h0l-3.3,0.2l2.1-1.3c1.2-0.8,1.4-1.1,1.5-1.3l0-0.1
	l-3.5,0.8l0,0.1l0-0.1l2.1-2.1c0.8-0.8,0.9-1.2,0.9-1.4l0-0.1h-0.2c-0.5,0-1.6,0.7-1.7,0.8h0l-0.5-2.5c-0.1-0.5-0.2-0.8-0.4-0.9
	h-0.1l-0.5,2l-0.4,1.4h0c-1.2-1-1.8-0.8-1.9-0.8h0v0.1l0.4,0.8l2.3,2.7l-2.3-0.9c-0.8-0.2-0.9,0.1-0.9,0.1l0.4,0.6l2.6,2.1h0
	c-2.8-0.6-3.2-0.2-3.2-0.2l0.4,0.9l3.3,1.8h0h0l0.4,0.2l-3.5-0.5c-0.7-0.2-0.8-0.1-0.8,0.1l0,0.1h0L94,364l2.8,2.2l-2-0.5l-0.6-0.1
	h-0.1l-0.7,0.2l0.5,0.9l3.3,2.1l-3.4-0.6l-0.4-0.1l-0.2,0.1l0.4,0.6l2.8,1.6h0c0.8-1.3,2.5-0.5,2.5-0.5h0c1.1-0.5,1.9-1.2,1.9-1.2
	L101.3,368.1"/>
<polyline class="st2" points="93.7,370.2 93.4,370.3 93.4,370.5 93.5,370.5 93.9,370.2 93.9,370.2 93.7,370.2 "/>
<path class="st2" d="M90,366.7l-0.6,0.3l-2.1,1.6l1.6-3l-0.2-0.9h-0.4l-2.3,2.8l1.4-3.9l0.1-1.1h0l-0.1-0.1l-0.5,0.2l-1.9,1.5
	l1.2-2.3l0.1-1.4l-0.9,0.2l-1.5,1.2l0.9-2.7l-0.1-0.8l-0.6,0.3l-1.4,1.6l0.4-3l-0.2-1h0l-0.5,0.5l-0.5,0.9h0c0,0-1.4-1.9-2.1-2.3
	h-0.3v0.3l1,2.8h0l-1.9,0.3h0v0.1c0,0.1,0.2,0.3,1,0.6l3.2,1.1l-2.6,0.4l-0.6,0.4c0,0.1,0.1,0.2,0.6,0.3l3.5,0.4l-2.6,1.3l-0.4,0.4
	l0.7,0.4l4,0.3l-3.1,0.9l-0.6,0.5c0,0.2,0.4,0.4,1.1,0.7l3,0.4l-2,0.8l-0.7,0.4l0.6,0.4h0c0.8,0.1,2.7,0.3,3.6,0.4h0h0
	c0,0.1-0.3,0.1-2,0.7h-0.1l0.1,0.1h0.2c0.6,0.2,1.7,0.4,3.3,0.7h0l1.5-2.7L90,366.7"/>
<path class="st2" d="M92.4,362.9l0.8-0.9h0h0c-0.1-0.2-0.7-1.1-0.5-1.8c0.1-0.3,0.4-0.6,0.9-0.7h0l0-0.1l-0.6-1l0-0.1l-1.4,0.3
	l1.3-0.9h0c0-0.1,0.3-0.7,1.2-0.8l0-0.1h0c-0.2-0.2-0.8-1-0.6-1.9h0h-0.7l1.1-0.7l0.2-0.2h0h0l0.2-0.2l1.2-0.6v-0.1l0.6-0.7
	l-0.7-0.2l-3.1,0.3l0-0.1l3-2l0.3-0.6c0-0.1-0.2-0.2-0.7-0.1l-1.2,0.4l-1.3,0.6l2.4-2.8l0.4-0.8c-0.1-0.1-0.3-0.2-0.8,0.1l-1,0.7h0
	c0-0.1-0.3-0.8-0.5-2.1l-0.2-1l0-0.1h-0.5l0,0.1c0,0.2-0.2,1-0.3,1.8l-0.4,1.3h0c0-0.1-1-0.8-1.7-0.8h-0.2v0.1
	c0,0.1-0.1,0.6,1.4,1.9l1.4,1.6l-2.5-0.8l-1,0.1c0,0.1,0,0.3,0.6,0.8l2.1,1.6l-2.2-0.2l-0.8,0.4c-0.1,0.2,0.2,0.5,0.7,0.9l3.5,1.8
	l-3.6-0.5l-0.9,0.2l0.5,0.8l1.1,0.8l1.4,1.1l0,0.1l-2.1-0.3h0l-0.9,0.3c-0.1,0.2,0.1,0.5,0.7,0.9l3.1,1.8l-3.2-0.4h-0.1l-0.6,0.2
	l0.5,0.5l3,1.7l-3.4-0.3h0l0,0.1c0.1,0.5,0,1.1,0,1.3l0,0.1h0l0.9,0.2c0.5,0.5,0.5,1.5,0.4,1.7l0,0.1h0.1l0.8,0.3l0.2,1.5h0h0l1,0.5
	c0.6,0.8,0.3,2.2,0.2,2.7l0,0.1l0.4,0.1h0l0-1.1l0.5-0.5h0h0c-0.1-0.2-0.7-0.9-0.5-1.5l0.6-0.7h0h0c-0.1-0.2-0.7-1.1-0.5-1.7
	l0.7-0.7h0l0-0.1C93,364.5,92.2,363.7,92.4,362.9"/>
<path class="st2" d="M105.7,345.5L105.7,345.5l0.8,0.4c0.2,0.5,0,1.1-0.6,2.1l0,0.1h0c0.2,0.1,1,0.2,1.2,0.7c0.2,0.4-0.1,1-0.7,1.7
	l0,0.1h0c0.2,0.1,0.7,0.2,1.3,0.7l0.1,0.1l0-0.1c-0.2-0.5-0.5-1.4,0.1-2.3h0c1.1-0.2,1.7,0.2,1.9,0.4h0l0.1-0.5h0
	c-0.9-0.3-1.5-0.2-1.8-0.1h0h0l0.6-0.5l1.4-1l0.2-0.5l-0.5-0.1l-2.7,0.5l2.7-2.5l0.3-0.7c0-0.1-0.2-0.1-0.7,0c0,0-0.5,0.2-1.1,0.6h0
	l-0.3-3l-0.3-0.3l-0.4,0.3l-0.9,2.8h0c0-0.1-0.6-0.7-1.4-0.9h-0.4l0.1,0.4C104.5,344,105,345,105.7,345.5"/>
<path class="st2" d="M107.3,361.4l0-0.1h0l-4.5,0.6l3.1-1.9c0.7-0.5,0.8-0.8,0.7-0.9l-0.7-0.2l-3,0.5l3.1-1.9
	c0.6-0.4,0.6-0.7,0.6-0.8l-0.7-0.1l-4,0.8l3.7-2.2c0.7-0.6,1-1,0.9-1.3l-0.8-0.2l-2.4,0.4l2.6-1.9l0.4-0.6l-0.6-0.2h0l-3,0.2
	l2.7-1.8c0.5-0.4,0.7-0.7,0.7-0.8H105l-2.3,0.9l2.3-2.7c0.5-0.5,0.7-0.9,0.6-1l-0.2-0.1l-1.1,0.3l-0.7,0.5l-0.7-3l-0.3-0.3h0
	l-0.3,0.3l-0.6,2.8l-1.1-0.5c-0.5-0.2-0.7-0.2-0.8-0.1l0.3,0.8l2.1,2.6l-1.5-0.6c-0.9-0.3-1.4-0.4-1.5-0.2l0.3,0.7l2.4,2.1h0
	c-1.9-0.4-2.9-0.4-3-0.1l0.8,0.9l3,1.6l-3.9-0.5h0l0.1,0.8l0-0.1c1.2-0.3,1.9-0.2,2.2,0.2c0.2,0.3,0.2,0.7-0.1,1.3l0.9,0.5l-1.1-0.1
	l-0.3,0.5h0h0c0.6,0.1,1,0.3,1.1,0.6h0h0l0.1,0.2l-0.2,0.9l-0.1,0.2l0.9,0.6l-1.1-0.2l-0.2,0.2l0,0.1h0c0.6,0.1,1,0.4,1.1,0.8
	c0.2,0.7-0.4,1.5-0.5,1.6h0h0l0.8,0.9c0.1,0.8-0.7,1.6-0.9,1.8h0l0,0.1l0.8,0.6c0.2,0.7-0.5,1.6-0.7,1.7h0h0l0.7,0.7
	c0.2,0.6-0.5,1.4-0.7,1.6l0,0.1h0l0.6,0.5c0.2,0.5-0.1,1.3-0.3,1.5l0,0.1h0l1-0.1h0l0-0.1c-0.2-0.4-0.6-2-0.1-2.8l0.9-0.5h0l0-0.1
	c0-0.2-0.3-1,0.1-1.5l0.9-0.4h0h0c0-0.2-0.2-1.3,0.3-1.9l0.7-0.3h0.2h0c-0.1-0.2-0.3-1.2,0.1-1.9
	C106.4,361.6,106.8,361.4,107.3,361.4L107.3,361.4"/>
<path class="st0" d="M227.3,230.5v1.9H221v43.9c0,10.7,6,14.1,11.6,14.1c8.3,0,14.2-5.6,14.2-14.7v-43.3h-7.9v-1.9h15.6v1.9h-5.3
	v43.4c0,10.1-6.7,16.5-17,16.5c-14.2,0-20.7-5.9-20.7-18v-41.9h-5.2v-1.9"/>
<path class="st0" d="M254.7,246.6H267v5.9h0.2c2.1-3.8,6.2-7.3,12.3-7.3c6.9,0,11.8,3.3,11.8,12.8v31h4.7v1.9h-18V289h5.1V257
	c0-6.5-2-8.7-6.1-8.7c-4.8,0-9.3,4.2-9.3,13.3V289h5.1v1.9h-18V289h4.7v-40.5h-4.7"/>
<path class="st0" d="M305.8,231.7c2.8,0,5,2,5,5s-2.2,5-5,5s-5-2-5-5S303,231.7,305.8,231.7 M310,289h4.2v1.9h-16.6V289h4.2v-40.5
	h-4.2v-1.9H310V289z"/>
<polyline class="st0" points="311.3,246.6 330.4,246.6 330.4,248.5 323.5,248.5 335.1,281.1 335.3,281.1 347,248.5 340,248.5 
	340,246.6 353.1,246.6 353.1,248.5 349.5,248.5 334,291.3 330.4,291.3 314.9,248.5 311.3,248.5 "/>
<path class="st0" d="M376.6,262.6v-3.4c0-8.7-2.9-12.1-7.4-12.1c-5.4,0-8.7,5.4-9.4,15.5 M359.7,264.6c-0.1,0.9-0.1,1.8-0.1,2.6
	c0,16.9,4.2,22.7,10.9,22.7c7.4,0,12.8-4.7,13.7-15.6h1.9c-0.4,12.1-7.5,18-16.5,18c-11.1,0-19.1-9.6-19.1-23.6
	c0-14,8.5-23.6,18.8-23.6c10,0,16.4,7,16.4,19.4H359.7z"/>
<path class="st0" d="M392.7,248.5H388v-1.9h12.8v6.5h0.2c1.8-5.1,5-7.9,10.6-7.9c2.2,0,4.7,1,6,1.6v17.1h-1.9l-3.1-9
	c-1.6-4.6-2.5-6.6-4.6-6.6c-3.6,0-7.1,6.5-7.1,14.3V289h5.8v1.9H388V289h4.7"/>
<path class="st0" d="M421.6,273.1c3.1,14.7,4.9,17.3,12.8,17.3c6.8,0,11.9-3.5,11.9-9.9c0-8.5-27.1-6.6-27.1-21.4
	c0-8.7,7.1-14,17.2-14c4.7,0,9.3,1.3,12.6,3.1v14.1h-2.4c-3.8-12.9-4.7-15.2-10.9-15.2c-5.5,0-10.8,3-10.8,7.9
	c0,11,27.1,7.3,27.1,22.5c0,8.9-7.7,14.9-18.2,14.9c-4.6,0-10.1-1.3-14.5-3.8v-15.4"/>
<path class="st0" d="M462.7,231.7c2.8,0,5,2,5,5s-2.2,5-5,5c-2.8,0-5-2-5-5S459.9,231.7,462.7,231.7 M466.8,289h4.2v1.9h-16.6V289
	h4.2v-40.5h-4.2v-1.9h12.4V289z"/>
<path class="st0" d="M471.5,246.6h5.5v-10.5h8.2v10.5h10.2v1.9h-10.2v36c0,3.3,1.4,4.7,4.7,4.7c3.8,0,6-2.3,6-8.7v-7h1.9v6.5
	c0,9.3-3.9,12.4-11,12.4c-6.3,0-9.8-3.3-9.8-10.5v-33.4h-5.5"/>
<path class="st0" d="M493.5,246.6h18.7v1.9h-6.6l12.8,30.5l10.5-30.5h-7.6v-1.9h14v1.9h-3.9l-16,46c-3.3,9.7-6,11.6-11,11.6
	c-3.2,0-5.4-0.8-6.7-2.1v-13.6h1.9l2.4,8.5c1.2,4.5,2.6,5.3,4,5.3c3.5,0,6.3-6,8.4-13.5l-17.6-42.2h-3.3"/>
<path class="st0" d="M304.3,343h7.8c15.7,0,23.3-7.6,23.3-20.7c0-9.2-4.6-19-19.1-19h-12 M282.2,391.4v-2.9h7.9v-85.2h-7.9v-2.9
	h38.4c22.1,0,29.9,10.5,29.9,22c0,12.8-10,21.6-29,22.8l31.4,43.4h6.5v2.9h-21l-33.5-46.3h-0.5v43.4h10v2.9H282.2z"/>
<path class="st0" d="M392.2,348.8v-5.1c0-13.1-4.3-18.3-11.2-18.3c-8.2,0-13.1,8.1-14.1,23.4 M366.7,351.7c-0.1,1.3-0.1,2.6-0.1,3.9
	c0,25.4,6.3,34.2,16.3,34.2c11.2,0,19.2-7.1,20.6-23.4h2.9c-0.7,18.1-11.3,27.1-24.8,27.1c-16.7,0-28.7-14.5-28.7-35.5
	c0-21,12.8-35.5,28.3-35.5c15,0,24.7,10.5,24.7,29.2H366.7z"/>
<path class="st0" d="M439.9,364c6.9,0,10.6-3.9,10.6-19.3c0-15.4-3.7-19.3-10.6-19.3c-6.9,0-10.5,3.9-10.5,19.3
	C429.4,360.1,432,364,439.9,364 M438.1,413.5c13.7,0,22.7-6.9,22.7-13.7c0-5-2.2-7.6-12.1-7.9l-24.8-0.5c-3.2,1.9-4.7,5.8-4.7,9.6
	C419.1,406.9,426.2,413.5,438.1,413.5 M466.6,328.3h-10v0.2c4.7,3.3,7.1,10.1,7.1,16.2c0,12.5-9.8,22.2-23.5,22.2
	c-12.4,0-14.5-4.7-16.4-4.7c-4,0-9.2,3.9-9.2,8.4c0,20.1,53.3-4.5,53.3,24.6c0,10.7-11.3,21.1-28.7,21.1c-19.8,0-28.5-8.6-28.5-15.7
	c0-4.9,4.9-8.6,8.4-9.8v-0.2c-7.9-1.9-11.6-7.9-11.6-14.8c0-9.6,6.3-14.6,13.7-16.6c-2.8-3.1-5-8.6-5-15.2
	c0-12.6,10.3-21.6,23.7-21.6c3.4,0,7.9,0.8,10.4,2.1h16.2V328.3z"/>
<path class="st0" d="M483.6,302.2c4.2,0,7.5,3,7.5,7.5c0,4.5-3.3,7.5-7.5,7.5c-4.2,0-7.5-3.1-7.5-7.5
	C476.1,305.3,479.4,302.2,483.6,302.2 M489.8,388.5h6.3v2.9h-25.1v-2.9h6.3v-61h-6.3v-2.9h18.7V388.5z"/>
<path class="st0" d="M499.4,324.6h18.5v9h0.3c3.2-5.6,9.4-11,18.6-11c10.4,0,17.8,5,17.8,19.3v46.7h7.1v2.9h-27.2v-2.9h7.6v-48.3
	c0-9.7-3-13.1-9.2-13.1c-7.3,0-14,6.3-14,20v41.3h7.6v2.9h-27.2v-2.9h7.1v-61h-7.1"/>
<path class="st0" d="M602.2,354.3c-14.9,7-27.1,2-27.1,20.9c0,9.9,3.7,13.6,10.7,13.6c9.9-0.3,16.5-10,16.5-24.5 M569.8,348.5v-21.3
	c6.9-2.7,13.2-4.7,20.2-4.7c16.5,0,23.9,8.7,23.9,16.8v49.2h6.3v2.9h-17.9v-11.6h-0.3c-3.2,8.2-10.7,13.7-20,13.7
	c-11.9,0-20-6.8-20-18.3c0-23,27.1-16.3,40.3-24.3v-13.8c0-8.3-4.5-11.7-11.5-11.7c-9.2,0-11.7,4.7-18.1,23.1H569.8z"/>
<path class="st0" d="M240.3,359c4.9,0,7.5-3.6,7.5-16.3c0-12.8-2.6-16.3-7.5-16.3c-4.9,0-7.5,3.6-7.5,16.3
	C232.8,355.4,235.4,359,240.3,359 M240.3,324.9c8.2,0,14.4,7.2,14.4,17.8c0,10.5-6.2,17.8-14.4,17.8c-8.2,0-14.4-7.3-14.4-17.8
	C225.9,332.1,232.1,324.9,240.3,324.9"/>
<path class="st0" d="M256,325.9h3.2v-3.6c0-6.1,3.2-9.6,10.4-9.6c2,0,4,0.3,5.8,0.9v8.7h-1.5c-2.4-7.5-3.3-8.1-5.4-8.1
	c-1.6,0-3.2,1-3.2,4.3v7.4h7.9v1.5h-7.9v30.5h4.7v1.5H256v-1.5h3.2v-30.5H256"/>
</svg>
