<?xml version="1.0" encoding="UTF-8" standalone="no"?>
<svg
   xmlns:dc="http://purl.org/dc/elements/1.1/"
   xmlns:cc="http://creativecommons.org/ns#"
   xmlns:rdf="http://www.w3.org/1999/02/22-rdf-syntax-ns#"
   xmlns:svg="http://www.w3.org/2000/svg"
   xmlns="http://www.w3.org/2000/svg"
   version="1.1"
   id="Layer_1"
   x="0px"
   y="0px"
   width="166.64769"
   height="316.76892"
   viewBox="0 0 166.64769 316.76892"
   enable-background="new 0 0 400 400"
   xml:space="preserve"><metadata
   id="metadata249"><rdf:RDF><cc:Work
       rdf:about=""><dc:format>image/svg+xml</dc:format><dc:type
         rdf:resource="http://purl.org/dc/dcmitype/StillImage" /><dc:title></dc:title></cc:Work></rdf:RDF></metadata><defs
   id="defs247" />
<g
   id="g242"
   transform="translate(-137.76936,-70.065266)">
	<g
   id="g240">
		<path
   fill-rule="evenodd"
   clip-rule="evenodd"
   fill="#010202"
   d="m 303.925,236.155 c 0.007,0.797 0.052,1.479 -0.554,2.259 -2.018,2.6 -3.853,5.065 -0.634,8.444 1.848,1.938 1.719,5.135 0.679,7.648 -2.209,5.336 -2.31,10.421 -0.237,15.904 1.959,5.184 -0.707,7.035 -5.064,9.951 -7.3,4.884 -14.189,5.374 -22.208,2.85 -2.599,-0.818 -5.94,0.305 -8.847,0.964 -9.471,2.146 -18.852,1.616 -28.091,-0.962 -5.178,-1.445 -7.725,2.313 -6.872,6.792 1.549,8.137 3.507,16.353 3.643,24.563 0.165,9.907 -1.054,19.887 -3.059,29.669 -0.918,4.482 -1.187,9.136 -1.418,13.56 -0.273,5.228 4.792,8.271 9.089,10.881 1.114,0.677 2.6,0.77 3.664,1.497 2.783,1.902 4.058,4.731 3.955,8.058 -0.109,3.55 -3.334,2.836 -5.29,3.247 -7.146,1.505 -14.218,2.968 -21.321,-1.121 -2.919,-1.68 -7.039,0.229 -10.486,-1.889 -2.146,-1.318 -3.267,-2.441 -3.042,-4.958 0.163,-1.823 0.396,-3.597 0.762,-5.403 3.439,-16.993 3.313,-34.334 3.37,-51.483 0.033,-9.805 -5.399,-19.193 -8.648,-30.043 -1.465,12.709 -2.279,24.229 -4.253,35.548 -1.694,9.716 -4.145,19.353 -7.884,28.585 -1.533,3.782 -2.968,8.278 -2.861,11.765 0.157,5.119 5.199,8.654 10.274,10.321 3.257,1.07 4.952,3.101 6.028,6.022 1.187,3.221 0.547,5.404 -3.252,6.108 -7.808,1.448 -15.412,3.737 -23.304,-0.66 -2.628,-1.465 -6.685,0.333 -9.986,-1.514 -2.107,-1.179 -3.588,-2.222 -3.208,-4.858 0.189,-1.312 -0.009,-2.688 0.253,-3.978 3.353,-16.524 5.298,-33.32 9.843,-49.619 2.805,-10.058 -0.223,-20.165 -0.348,-30.254 -0.097,-7.821 -1.051,-15.713 -4.749,-22.556 -6.788,-12.561 -3.432,-26.313 -5.622,-39.387 -1.777,-10.61 -2.919,-21.279 -6.507,-31.524 -3.854,-11.007 -0.411,-17.293 10.742,-20.619 3.852,-1.148 7.978,-1.457 10.756,-5.361 1.017,-1.429 4.121,-1.372 6.857,-2.162 -5.607,-2.136 -9.185,-5.979 -12.062,-10.539 -0.886,-1.404 -1.763,-1.916 -3.614,-1.691 -11.362,1.378 -21.435,-8.754 -20.53,-20.303 0.263,-3.354 -2.698,-5.104 -4.38,-7.467 -5.293,-7.438 -10.745,-14.827 -5.798,-24.677 0.212,-0.423 0.247,-0.971 0.245,-1.459 -0.076,-17.69 11.734,-25.782 25.742,-32.403 10.084,-4.767 20.715,-4.441 30.91,-2.511 11.029,2.088 20.536,7.98 23.974,19.81 1.167,4.018 1.192,8.332 3.285,12.197 0.784,1.447 1.413,2.532 3.081,2.743 -1.96,2.338 -2.179,2.335 -5.25,-0.042 -0.332,-0.367 -0.624,-0.769 -0.898,-1.18 -0.267,-0.402 -0.489,-0.834 -0.68,-1.278 -0.729,-2.925 -2.895,-5.358 -2.973,-8.515 0.636,-2.258 0.15,-4.342 -1.008,-6.321 -5.401,-8.412 -13.395,-12.692 -22.977,-14.447 -4.146,-0.064 -8.29,-0.174 -12.336,0.957 -3.507,0.167 -6.535,2.506 -10.126,2.262 -0.812,-0.67 -1.204,-1.74 -2.857,-0.905 -2.133,1.077 -4.294,2.134 -6.433,3.226 -4.814,2.407 -9.243,5.299 -12.419,9.778 -1.745,2.373 -3.144,4.938 -4.228,7.676 -0.783,1.898 -1.495,3.811 -1.447,5.912 -0.164,2.089 1.002,4.243 -0.296,6.274 -2.304,8.004 -0.075,14.811 5.468,20.741 0.991,1.098 1.658,2.435 2.625,3.552 1.123,1.298 3.486,1.751 3.896,0.861 3.096,-6.711 5.504,-0.432 8.163,0.241 -1.636,1.225 0.213,4.199 -2.462,4.913 -0.997,0.239 -1.977,0.023 -2.969,-0.047 -3.923,-0.275 -5.422,1.614 -4.388,5.449 1.87,6.93 10.049,12.424 17.218,11.272 2.84,-0.456 4.774,-0.048 6.143,2.689 4.125,8.247 11.372,11.185 20.079,11.44 3.653,0.107 7.311,0.062 10.966,0.023 17.678,-0.185 22.711,-8.164 23.792,-23.568 0.536,-7.655 -1.835,-15.114 -3.646,-22.54 -0.509,-2.75 0.251,-4.284 3.39,-3.51 1.112,6.323 2.179,12.656 3.347,18.97 2.126,11.504 -1.98,24.188 -10.365,30.84 4.271,0 8.155,0.254 11.997,-0.044 15.854,-1.23 31.479,1.829 47.235,2.311 3.863,0.117 3.845,3.026 3.446,5.3 -0.791,4.514 0.852,5.92 5.134,5.475 3.624,-0.377 6.911,-0.544 4.973,5.145 -0.798,2.341 -0.72,5.369 3.554,6.27 3.216,0.679 2.489,9.783 -1.043,11.344 -3.84,1.695 -0.695,4.541 -1.635,6.67 -0.812,1.839 0.223,2.36 2.129,2.718 3.039,0.57 1.816,3.433 2.113,5.377 0.339,2.221 -1.717,5.25 2.236,6.218 0.022,0.006 -0.31,1.459 -0.476,2.236 -0.727,2.088 -0.7,4.18 -0.015,6.272 z"
   id="path2" />
		<path
   fill-rule="evenodd"
   clip-rule="evenodd"
   fill="#292522"
   d="m 222.178,104.967 c 1.295,1.593 2.627,3.033 4.771,1.173 2.467,0.534 6.903,-0.5 3.401,4.656 -0.454,0.669 1.15,2.587 1.519,4 0.55,2.111 1.915,4.391 -0.572,6.259 -1.197,0.593 -3.308,0.459 -2.259,2.839 -3.592,3.635 -8.629,4.382 -12.991,6.474 -1.407,0.674 -3.348,0.466 -3.808,2.547 -0.327,0.354 -0.722,0.574 -1.197,0.652 -4.057,-0.783 -5.109,-4.291 -6.712,-7.33 -0.698,-1.323 -0.814,-3.82 -3.106,-2.893 -1.793,0.727 -0.716,2.57 -0.341,3.96 1.628,6.024 0.674,8.512 -4.651,11.398 -4.073,2.208 -8.22,4.281 -12.696,5.604 -6.688,1.977 -8.976,1.132 -12.734,-4.836 -0.623,-0.989 -1.261,-1.941 -2.241,-2.615 -1.223,-1.128 -3.147,-1.799 -2.673,-4.044 7.581,-8.128 17.415,-11.733 27.977,-13.774 3.342,-0.646 6.449,-2.04 9.033,-3.927 5.963,-4.355 12.682,-7.094 19.28,-10.143 z"
   id="path4" />
		<path
   fill-rule="evenodd"
   clip-rule="evenodd"
   fill="#e2e2e2"
   d="m 303.925,236.155 c -1.482,-2.095 -0.932,-4.185 0.018,-6.273 -0.006,2.091 -0.012,4.182 -0.018,6.273 z"
   id="path6" />
		<path
   fill-rule="evenodd"
   clip-rule="evenodd"
   fill="#001a32"
   d="m 192.99,194.986 c 11.134,-0.275 9.725,0.548 10.79,9.219 2.025,16.476 1.266,33.116 0.818,49.816 -4.753,-12.134 -11.106,-23.55 -14.679,-36.159 -1.893,-6.679 -4.503,-13.154 -6.752,-19.734 -0.396,-1.157 -0.747,-2.518 -2.271,-1.758 -1.222,0.609 -0.284,1.775 0.012,2.632 6.114,17.704 11.51,35.685 19.546,52.655 1.296,2.735 1.013,5.81 2.855,8.371 1.474,2.047 3.562,4.902 1.656,7.146 -2.366,2.789 -5.779,4.563 -9.934,3.931 -1.346,-0.205 -2.445,0.203 -3.271,-1.523 -11.168,-23.346 -22.515,-46.607 -31.968,-70.729 -0.958,-2.444 -0.854,-4.901 -0.754,-7.372 0.152,-3.778 2.313,-6.248 5.821,-7.238 2.553,-0.72 5.102,-1.212 7.409,-2.688 1.947,-1.247 3.377,-0.342 4.383,1.648 0.952,1.883 1.467,4.128 4.196,5.449 -0.817,-2.827 -3.157,-4.667 -2.856,-7.411 0.134,-1.223 0.311,-2.413 1.601,-2.821 1.166,-0.37 1.704,0.625 2.331,1.424 3.086,3.932 6.419,7.656 10.634,10.397 2.391,1.555 1.963,3.025 0.457,4.773 l -0.24,0.157 z"
   id="path8" />
		<path
   fill-rule="evenodd"
   clip-rule="evenodd"
   fill="#fecb98"
   d="m 211.846,133.137 c 0.018,-1.258 -1.944,-1.313 -1.643,-2.971 6.922,-0.036 12.415,-4.495 18.835,-6.272 2.582,10.967 5.854,21.705 2.261,33.307 -2.824,9.119 -8.843,13.611 -17.58,14.48 -7.916,0.787 -15.951,1.04 -23.902,-0.565 -7.339,-1.482 -12.244,-5.904 -14.831,-12.621 -0.78,-2.026 -1.22,-1.681 -2.594,-1.267 -8.318,2.504 -19.141,-4.118 -20.808,-12.69 -1.052,-5.408 2.283,-7.377 9.072,-5.354 0.664,0.137 1.336,0.24 1.962,0.519 1.417,0.724 2.752,2.086 4.496,1.05 1.359,-0.807 0.337,-2.059 0.282,-3.124 0.046,-1.003 0.237,-1.89 1.528,-1.872 2.869,-0.113 2.833,2.563 3.463,4.114 1.765,4.347 4.963,5.13 8.843,3.97 5.057,-1.513 9.993,-3.448 14.575,-6.116 5.354,-3.117 6.033,-4.956 3.512,-10.839 -1.173,-2.737 -1.38,-4.581 1.814,-5.777 3.491,-1.307 3.119,1.719 3.962,3.384 1.686,3.33 2.613,7.256 6.833,8.56 0.75,0.561 1.873,0.48 2.411,1.408 1,1.423 2.041,2.834 1.174,4.721 -1.576,3.091 -4.895,2.655 -7.474,3.708 -1.444,0.801 -2.364,2.492 -4.193,2.562 -0.373,-0.487 0.466,-0.404 -0.154,-0.208 -0.334,0.106 -0.225,0.354 0.188,0.16 1.42,0.209 2.157,-1.155 3.366,-1.354 1.685,-0.411 3.52,-0.04 5.098,-0.994 5.017,-4.514 5.07,-4.766 1.847,-8.776 -0.566,-0.824 -1.553,-0.781 -2.343,-1.143 z"
   id="path10" />
		<path
   fill-rule="evenodd"
   clip-rule="evenodd"
   fill="#171e2c"
   d="m 200.852,284.584 c -2.354,22.004 -3.631,44.177 -11.986,65.112 -1.655,4.147 -1.882,8.847 -3.707,13.129 -0.97,2.277 -1.914,3.287 -4.209,3.153 -3.206,-0.187 -6.215,-1.258 -8.958,-2.75 -2.558,-1.392 -2.483,-3.812 -1.82,-6.534 3.042,-12.493 6.452,-24.942 8.54,-37.604 1.024,-6.213 -0.051,-12.932 -1.066,-19.278 -1.195,-7.472 0.597,-15.387 -3.342,-22.475 -0.65,-1.169 -0.028,-2.229 1.769,-1.824 6.02,1.356 12.129,1.621 18.287,1.572 2.876,-0.022 6.596,4.498 6.492,7.499 z"
   id="path12" />
		<path
   fill-rule="evenodd"
   clip-rule="evenodd"
   fill="#171d2c"
   d="m 205.979,286.454 c 3.667,0.999 6.723,1.633 9.632,2.675 3.716,1.331 7.233,1.073 10.503,-0.928 2.251,-1.379 3.611,-0.947 3.779,1.54 0.681,10.048 4.032,19.836 3.082,30.023 -1.222,13.105 -2.204,26.247 -5.035,39.147 -0.07,0.322 -0.045,0.79 -0.248,0.94 -3.139,2.314 -6.67,1.137 -9.979,0.783 -2.373,-0.253 -5.026,-1.035 -4.721,-4.572 0.903,-10.454 0.108,-20.999 1.844,-31.421 1.059,-6.361 -0.48,-12.435 -2.604,-18.447 -2.204,-6.236 -4.015,-12.611 -6.253,-19.74 z"
   id="path14" />
		<path
   fill-rule="evenodd"
   clip-rule="evenodd"
   fill="#fecb98"
   d="m 222.178,104.967 c -0.261,0.572 -0.387,1.512 -0.802,1.665 -8.97,3.312 -16.364,9.779 -25.131,13.123 -5.355,2.043 -11.393,2.689 -16.799,5.13 -4.017,1.813 -8.52,2.835 -10.729,7.361 -0.425,0.87 -1.678,0.929 -2.71,0.745 -3.013,-1.259 -3.326,-3.981 -3.276,-6.639 0.09,-4.85 -0.396,-9.555 -2.169,-14.106 -1.301,-3.341 -0.445,-5.83 3.096,-7.101 1.439,-0.606 2.843,-1.282 4.044,-2.313 2.301,-2.361 5.098,-3.332 8.385,-3.161 2.273,0.117 4.561,0.041 6.727,-0.819 3.138,-0.714 6.036,-2.057 8.892,-3.488 0.73,-0.369 1.451,-0.762 2.099,-1.266 0.285,-0.26 0.583,-0.51 0.867,-0.768 0.615,-0.497 -0.231,-1.065 0.074,-1.589 0.226,-0.431 0.512,-0.794 0.856,-1.13 3.459,-2.456 7.274,-3.827 11.53,-3.887 6.394,-0.092 9.261,2.153 10.774,8.431 0.563,3.103 3.181,5.458 3.183,8.765 -0.999,0.678 -1.903,0.084 -2.749,-0.302 -5.516,-2.516 -9.84,-0.693 -13.46,3.885 4.698,-4.553 10.211,-5.179 16.173,-3.648 0.375,0.371 0.75,0.741 1.125,1.112 z"
   id="path16" />
		<path
   fill-rule="evenodd"
   clip-rule="evenodd"
   fill="#643522"
   d="m 142.111,102.962 c -0.07,-2.227 0.565,-4.249 1.763,-6.108 0.452,0.283 0.661,0.718 0.515,1.207 -0.174,0.582 -0.036,0.606 -0.028,0.115 0.062,-3.548 3.202,-5.817 3.734,-9.152 3.195,-4.76 7.694,-7.847 12.884,-10.05 1.052,1.473 3.39,-2.324 4.117,1.017 0.093,0.428 0.522,-0.488 0.8,-0.759 1.207,-1.174 2.017,-3.045 4.258,-2.275 3.294,-0.925 6.588,-1.85 9.882,-2.773 4.62,-0.272 9.228,-0.718 13.844,-1.032 9.058,0.926 15.527,6.506 21.913,12.217 1.055,0.943 1.255,2.277 1.298,3.627 0.092,0.796 -0.287,1.455 -1.031,0.994 -8.365,-5.183 -15.722,-2.306 -22.839,2.735 -0.677,0.479 -1.444,0.804 -2.173,1.183 -2.139,0.911 -4.123,2.221 -6.403,2.779 -1.285,0.315 -2.944,0.578 -3.46,-0.989 -0.483,-1.466 1.229,-1.688 2.148,-2.254 0.849,-0.522 1.949,-0.464 2.774,-1.087 0.195,-0.229 0.121,-0.006 -0.36,0.113 -2.147,0.529 -4.658,2.786 -6.422,0.505 -1.646,-2.128 0.679,-4.306 1.788,-6.271 1.239,-2.195 2.979,-3.974 4.156,-4.769 -3.252,2.743 -6.85,6.625 -9.497,11.312 -2.176,3.853 -5.303,6.878 -8.678,9.576 -4.663,3.728 -11.141,1.797 -12.881,-3.597 -0.019,0.667 -0.195,-0.259 -0.17,-0.07 0.904,6.81 -3.704,6.207 -7.948,5.847 -0.702,-0.06 -0.633,-1.377 -0.864,-2.146 -0.116,-0.386 -0.423,0.567 -0.78,0.82 -1.155,0.813 -1.808,0.329 -2.34,-0.715 z"
   id="path18" />
		<path
   fill-rule="evenodd"
   clip-rule="evenodd"
   fill="#f8f8f8"
   d="m 193.153,186.883 c 5.152,2.145 10.454,3.095 16.035,2.172 0.826,-0.137 2.695,-0.854 2.462,0.24 -0.898,4.216 3.317,6.549 3.3,10.446 -0.015,3.279 0.248,6.098 -4.379,5.322 -0.45,-0.075 -1.074,0.037 -1.411,0.313 -0.884,0.723 -0.334,1.586 0.222,2.086 3.23,2.908 -3.986,8.403 2.311,10.171 4.362,1.225 2.372,4.098 2.182,6.282 -0.146,1.669 -0.989,2.595 1.342,3.659 2.145,0.98 2.733,3.572 0.587,5.536 -1.478,1.353 0.1,1.915 0.367,2.824 1.382,1.712 1.161,3.412 -0.036,5.104 0.16,1.373 -1.704,2.297 -0.458,4.075 3.136,4.473 0.38,9.317 0.411,13.999 0.009,1.39 -1.381,1.145 -2.276,1.313 -2.102,0.394 -4.218,0.714 -6.476,1.088 -0.823,-1.715 -0.37,-3.692 -0.36,-5.592 0.095,-17.595 -0.226,-35.169 -1.939,-52.701 -0.464,-4.748 -1.012,-8.93 -6.722,-10.539 -2.357,-0.665 -4.223,-3.07 -6.312,-4.684 -0.205,-0.976 0.043,-1.489 1.15,-1.114 z"
   id="path20" />
		<path
   fill-rule="evenodd"
   clip-rule="evenodd"
   fill="#001a32"
   d="m 166.104,222.998 c 3.883,4.434 5.286,9.949 7.79,14.903 4.784,9.466 9.289,19.074 13.865,28.645 0.542,1.134 1.76,2.363 0.769,3.649 -0.914,1.187 -2.126,-0.207 -3.229,-0.146 -0.66,0.037 -1.327,-0.017 -1.99,-0.048 -3.813,-0.184 -7.476,-0.916 -11.069,-2.321 -5.169,-2.022 -2.933,-6.514 -3.375,-9.922 -1.493,-11.518 -1.251,-23.179 -2.761,-34.76 z"
   id="path22" />
		<path
   fill-rule="evenodd"
   clip-rule="evenodd"
   fill="#0091a6"
   d="m 269.92,174.177 c 3.791,0.292 7.579,0.671 11.376,0.843 2.211,0.1 3.878,0.322 3.802,3.213 -0.07,2.651 -0.064,4.927 -3.568,5.345 -8.713,1.038 -17.405,2.255 -26.106,3.392 -3.774,0.492 -7.604,0.723 -11.314,1.513 -3.59,0.764 -5.911,0.732 -4.996,-3.972 0.212,-1.09 -0.18,-2.296 -0.293,-3.449 -0.733,-0.702 -1.605,-1.371 -0.601,-2.494 1.541,-0.97 3.257,-1.196 5.027,-1.187 6.136,0.969 12.105,-0.904 18.177,-1.132 1.628,-0.061 3.235,-0.647 4.875,-0.079 0.147,0.052 0.342,0.222 0.421,0.176 0.399,-0.231 0.393,-0.521 0.026,-0.821 0.589,-1.593 2.237,-0.618 3.174,-1.348 z"
   id="path24" />
		<path
   fill-rule="evenodd"
   clip-rule="evenodd"
   fill="#b3003e"
   d="m 255.646,283.673 c -0.077,-0.823 -0.249,-1.228 -0.115,-1.436 1.589,-2.465 -1.623,-6.101 1.141,-7.674 2.274,-1.295 5.469,-0.996 8.263,-1.354 9.691,-1.239 19.384,-2.478 29.081,-3.674 5.857,-0.723 8.142,0.624 7.781,4.505 -0.22,2.368 -1.064,3.751 -3.911,4.092 -13.979,1.675 -27.924,3.635 -42.24,5.541 z"
   id="path26" />
		<path
   fill-rule="evenodd"
   clip-rule="evenodd"
   fill="#720d00"
   d="m 256.307,261.712 c 0.271,-1.502 0.838,-2.597 0.552,-3.38 -2.162,-5.904 1.425,-6.673 5.909,-7.074 11.384,-1.018 22.749,-2.238 34.132,-3.258 2.276,-0.204 4.915,-0.415 5.007,3.169 0.081,3.188 -1.16,4.649 -4.596,5.062 -13.478,1.616 -26.916,3.568 -41.004,5.481 z"
   id="path28" />
		<path
   fill-rule="evenodd"
   clip-rule="evenodd"
   fill="#0052be"
   d="m 249.99,212.546 c 9.228,0.172 18.283,-2.012 27.469,-2.957 4.625,-0.477 9.226,-1.223 13.856,-1.613 1.967,-0.166 4.644,-0.88 4.629,2.703 -0.012,2.748 0.132,5.045 -3.879,5.496 -13.034,1.464 -26.028,3.31 -39.015,5.174 -2.371,0.34 -3.415,0.156 -3.107,-2.554 0.236,-2.077 0.047,-4.202 0.047,-6.249 z"
   id="path30" />
		<path
   fill-rule="evenodd"
   clip-rule="evenodd"
   fill="#00b0bc"
   d="m 256.021,268.619 c -1.706,-3.688 -0.556,-4.899 2.707,-5.352 10.676,-1.479 21.466,-2.061 32.066,-4.15 1.911,-0.376 3.97,0.048 5.958,-0.004 2.371,-0.063 3.335,1.119 3.175,3.362 -0.136,1.899 0.436,4.262 -2.462,4.646 -13.487,1.788 -26.96,3.719 -40.481,5.2 -4.369,0.479 0.321,-3.21 -0.963,-3.702 z"
   id="path32" />
		<path
   fill-rule="evenodd"
   clip-rule="evenodd"
   fill="#caa200"
   d="m 254.803,227.044 c -2,-4.18 0.849,-3.964 3.433,-4.295 12.177,-1.561 24.331,-3.301 36.52,-4.76 2.061,-0.246 5.262,-1.655 5.495,2.701 0.195,3.633 -0.919,5.188 -4.917,5.609 -12.04,1.269 -24.016,3.138 -36.029,4.672 -2.871,0.367 -7.363,2.157 -4.502,-3.927 z"
   id="path34" />
		<path
   fill-rule="evenodd"
   clip-rule="evenodd"
   fill="#653522"
   d="m 147.931,131.081 c -6.974,-4.618 -5.938,-12.52 -7.752,-19.223 -0.24,-0.887 0.678,-2.137 1.792,-2.714 3.563,0.214 4.136,2.72 4.283,5.599 0.465,-0.72 -0.19,-1.399 -0.021,-2.093 0.509,-2.09 0.78,-4.872 3.536,-4.591 2.338,0.238 2.445,2.797 2.439,4.854 -0.001,0.497 0.055,0.998 0.065,1.567 0.303,-1.993 1.014,-4.279 3.032,-4.315 2.493,-0.045 2.119,2.9 3.04,4.518 -0.098,0.659 0.803,-0.081 0.15,0.054 -0.252,-1.54 -0.687,-3.212 1.94,-2.651 2.613,3.688 3.658,7.821 2.92,12.229 -0.509,3.039 1.017,5.878 0.444,8.853 -1.618,2.55 -3.069,0.925 -4.347,-0.303 -1.519,-1.459 -2.588,-2.374 -4.938,-0.802 -1.913,1.28 -4.405,-0.32 -6.583,-0.982 z"
   id="path36" />
		<path
   fill-rule="evenodd"
   clip-rule="evenodd"
   fill="#513153"
   d="m 255.083,204.014 c -0.036,-1.454 0.676,-1.983 2.121,-2.044 10.763,-0.447 21.183,-3.134 31.738,-4.938 2.611,-0.446 5.179,-0.384 7.824,-0.193 2.603,0.187 3.514,1.162 3.399,3.645 -0.106,2.291 -0.228,4.174 -3.272,4.542 -13.113,1.586 -26.204,3.35 -39.307,5.021 -0.981,0.125 -2.409,1.058 -2.549,-1.028 0.616,-1.664 -0.724,-3.344 0.046,-5.005 z"
   id="path38" />
		<path
   fill-rule="evenodd"
   clip-rule="evenodd"
   fill="#441605"
   d="m 159.949,112.059 c -1.611,0.961 -0.548,2.809 -1.367,4.117 -1.882,-1.348 -1.883,-3.71 -2.994,-5.453 -1.993,1.271 -2.394,3.408 -3.102,5.791 -0.428,-1.12 -0.604,-1.925 -1.014,-2.585 -1.025,-1.655 0.414,-5.156 -1.819,-5.082 -2.5,0.084 -2.168,3.495 -2.672,5.632 -0.111,0.471 -0.128,0.964 -0.259,2.007 -1.705,-2.743 -1.686,-6.126 -4.753,-7.342 1.778,-2.021 -0.821,-4.142 0.14,-6.182 3.393,1.513 1.98,-3.452 4.43,-3.238 1.26,1.528 -1.295,3.055 -0.119,4.533 7.145,1.475 6.531,-4.302 7.684,-9.829 0.836,3.08 1.208,4.721 1.733,6.312 0.516,1.563 0.596,4.447 3.182,1.371 0.178,-0.212 0.618,-0.469 0.782,-0.389 9.386,4.584 10.942,-4.665 14.506,-8.939 4.359,-5.229 7.837,-11.032 14.842,-13.331 -4.283,3.559 -7.754,7.665 -9.731,13.2 3.776,0.789 6.498,-1.579 10.357,-2.576 -2.325,3.174 -5.446,3.806 -8.861,5.526 4.208,0.808 6.4,-1.71 9.094,-2.557 0.336,0.279 0.521,0.637 0.556,1.07 -0.111,0.868 -0.783,1.294 -1.391,1.752 -0.213,0.229 -0.488,0.381 -0.797,0.448 0.532,-0.098 0.853,-0.522 1.292,-0.776 1.064,-0.635 2.041,-1.626 3.421,-0.723 0.291,0.425 0.242,0.787 -0.194,1.078 -2.747,1.806 -5.655,3.241 -8.909,3.883 -4.093,-0.506 -8.038,1.134 -12.188,0.739 -1.697,-0.161 -2.943,1.88 -3.821,3.52 -0.788,0.946 -1.776,1.558 -2.989,1.794 -5.242,-0.808 -4.07,3.576 -5.039,6.229 z"
   id="path40" />
		<path
   fill-rule="evenodd"
   clip-rule="evenodd"
   fill="#e4e4e4"
   d="m 248.691,219.564 c -0.581,2.396 -2.032,2.289 -4.131,1.89 -10.103,-1.922 -20.226,-3.761 -30.39,-5.315 -2.847,-0.436 -3.635,-1.409 -3.158,-4.103 0.279,-1.577 0.051,-3.244 0.051,-5.07 11.716,1.733 23.032,3.356 34.33,5.102 4.805,0.742 3.083,4.583 3.29,7.47 z"
   id="path42" />
		<path
   fill-rule="evenodd"
   clip-rule="evenodd"
   fill="#e4e4e4"
   d="m 237.711,181.044 c 0.105,1.153 0.24,2.306 0.309,3.461 0.21,3.551 -0.896,5.051 -4.923,4.228 -9.396,-1.922 -18.83,-3.902 -28.349,-4.871 -6.026,-0.613 -4.632,-4.458 -4.333,-7.532 0.357,-3.685 3.341,-0.559 5.001,-1.214 0.429,-0.168 0.981,-0.02 1.478,-0.017 9.359,-0.478 18.403,1.749 27.527,3.259 1.47,0.243 2.868,0.967 3.29,2.686 z"
   id="path44" />
		<path
   fill-rule="evenodd"
   clip-rule="evenodd"
   fill="#e3e3e3"
   d="m 217.331,277.201 c -0.19,-0.269 -0.543,-0.535 -0.547,-0.806 -0.094,-7.357 -0.073,-7.457 7.145,-6.395 8.888,1.31 17.731,2.93 26.628,4.167 4.301,0.599 4.107,3.373 3.951,6.486 -0.223,4.43 -3.136,2.763 -5.351,2.377 -10.16,-1.768 -20.306,-3.616 -30.457,-5.437 -0.451,-0.147 -0.971,-0.06 -1.369,-0.392 z"
   id="path46" />
		<path
   fill-rule="evenodd"
   clip-rule="evenodd"
   fill="#9d164f"
   d="m 259.284,190.187 c -0.396,1.091 -1.283,2.269 -1.108,3.26 1.165,6.613 -1.987,6.635 -7.251,5.756 -10.959,-1.83 -22.033,-2.986 -33.075,-4.286 -3.208,-0.378 -4.213,-2.015 -4.002,-5.018 0.298,-4.236 3.375,-2.015 4.77,-1.706 12.118,2.686 24.236,3.632 36.487,1.079 1.297,0.742 3.043,-0.566 4.179,0.915 z"
   id="path48" />
		<path
   fill-rule="evenodd"
   clip-rule="evenodd"
   fill="#e4e4e4"
   d="m 218.747,251.562 c -1.368,-4.234 0.38,-4.429 3.802,-3.84 9.635,1.656 19.317,3.078 29.019,4.285 4.65,0.579 3.712,3.761 3.752,6.61 0.054,3.828 -2.336,2.98 -4.731,2.54 -9.29,-1.706 -18.596,-3.334 -27.908,-4.911 -2.877,-0.486 -6.395,-0.211 -3.934,-4.684 z"
   id="path50" />
		<path
   fill-rule="evenodd"
   clip-rule="evenodd"
   fill="#fcca97"
   d="m 220.107,286.821 c 0.818,0.125 1.637,0.25 2.455,0.376 -8.08,2.533 -21.547,-3.929 -24.395,-11.488 -0.944,-2.507 0.665,-2.73 2.132,-3.341 3.231,-1.345 8.035,-2.844 7.98,-5.913 -0.092,-5.211 3.156,-3.837 5.551,-4.367 2.778,-0.616 3.131,0.834 2.205,3.076 -1.913,4.631 -0.012,9.347 -0.286,14.016 3.578,3.014 8.485,3.292 12.24,5.942 -2.474,1.781 -5.258,0.519 -7.884,0.803 -1.586,-0.421 -3.3,-0.457 -4.46,-1.46 -0.82,-0.342 -0.415,0.836 -0.373,0.17 1.638,0.673 3.542,0.754 4.835,2.186 z"
   id="path52" />
		<path
   fill-rule="evenodd"
   clip-rule="evenodd"
   fill="#e4e4e4"
   d="m 254.14,208.038 c -0.396,1.945 -1.273,2.653 -3.489,2.243 -10.469,-1.939 -20.98,-3.645 -31.47,-5.477 -4.232,-0.739 -1.603,-3.988 -1.964,-6.026 -0.56,-3.146 2.021,-1.854 3.313,-1.693 10.075,1.251 20.125,2.698 30.204,3.916 2.042,0.247 2.943,1.204 3.382,2.979 0.918,1.347 1.011,2.7 0.024,4.058 z"
   id="path54" />
		<path
   fill-rule="evenodd"
   clip-rule="evenodd"
   fill="#e2e2e2"
   d="m 218.034,262.589 c -1.365,-4.671 1.138,-4.271 4.401,-3.716 9.19,1.561 18.404,3.037 27.654,4.17 4.945,0.605 4.097,3.921 3.958,6.977 -0.191,4.241 -3.141,2.317 -5.102,1.984 -9.186,-1.563 -18.328,-3.387 -27.53,-4.835 -3.032,-0.477 -4.835,-1.167 -3.381,-4.58 z"
   id="path56" />
		<path
   fill-rule="evenodd"
   clip-rule="evenodd"
   fill="#e3e3e3"
   d="m 292.132,186.075 c 1.301,0.521 4.312,-1.44 3.473,2.146 -0.519,2.217 2.34,5.678 -2.673,6.428 -10.017,1.498 -19.979,3.369 -29.935,5.248 -2.443,0.462 -3.428,-0.442 -3.67,-2.617 -0.261,-2.328 -0.25,-4.627 1.665,-6.408 0.621,-0.47 1.285,-0.852 2.053,-1.031 1.297,-0.191 2.547,-0.586 3.817,-0.908 8.394,-1.227 16.742,-2.84 25.27,-2.858 z"
   id="path58" />
		<path
   fill-rule="evenodd"
   clip-rule="evenodd"
   fill="#e3e3e3"
   d="m 218.082,235.047 c 10.482,1.791 20.942,3.728 31.458,5.291 3.47,0.516 4.424,2.269 4.334,5.302 -0.093,3.143 -0.797,4.82 -4.768,3.9 -9.382,-2.174 -18.896,-3.77 -28.337,-5.696 -1.565,-0.319 -3.999,0.101 -3.665,-2.835 -0.022,-2.044 -0.533,-4.169 0.978,-5.962 z"
   id="path60" />
		<path
   fill-rule="evenodd"
   clip-rule="evenodd"
   fill="#e2e2e2"
   d="m 301.719,232.153 c 1.193,3.907 -0.26,4.778 -3.437,5.085 -9.426,0.909 -18.812,2.235 -28.219,3.341 -1.629,0.191 -4.048,1.378 -4.091,-1.72 -0.034,-2.553 -1.518,-6.396 2.606,-6.91 10.551,-1.314 21.157,-2.199 31.757,-3.08 3.625,-0.301 0.936,2.673 1.384,3.284 z"
   id="path62" />
		<path
   fill-rule="evenodd"
   clip-rule="evenodd"
   fill="#00b1bd"
   d="m 255.182,245.153 c -1.292,-3.942 0.142,-4.738 3.782,-3.589 8.78,2.771 17.428,-0.391 26.135,-0.874 3.306,-0.183 6.579,-0.914 9.886,-1.172 1.652,-0.129 4.258,-1.93 4.515,1.656 0.197,2.749 -1.104,4.087 -4.055,4.345 -7.441,0.649 -14.854,1.618 -22.28,2.441 -4.457,0.494 -8.98,0.641 -13.358,1.521 -4.08,0.823 -6.191,0.396 -4.625,-4.328 z"
   id="path64" />
		<path
   fill-rule="evenodd"
   clip-rule="evenodd"
   fill="#e4e4e4"
   d="m 253.095,227.245 c 0.198,3.309 -0.467,4.871 -4.508,4.03 -10.074,-2.095 -20.236,-3.84 -30.427,-5.269 -4.058,-0.569 -2.329,-2.913 -2.498,-4.947 -0.277,-3.349 1.842,-2.323 3.503,-2.038 8.511,1.459 17.01,2.982 25.523,4.426 1.622,0.274 3.361,0.655 4.919,0.345 3.23,-0.646 3.78,0.919 3.488,3.453 z"
   id="path66" />
		<path
   fill-rule="evenodd"
   clip-rule="evenodd"
   fill="#423c38"
   d="m 239.09,370.933 c 0.606,0.072 1.214,0.146 1.821,0.218 1.269,1.544 0.373,2.828 -0.605,3.968 -3.77,4.391 -14.478,4.127 -18.142,-0.411 -0.541,-0.671 -0.735,-1.442 -0.275,-2.795 -2.604,2.431 -5.066,2.761 -7.373,0.451 -2.037,-2.038 -1.383,-4.219 0.04,-6.313 0.739,-1.089 1.268,-2.347 2.44,-3.095 3.602,-0.146 7.281,0.724 10.789,-0.429 2.211,-0.726 3.169,0.771 4.021,1.98 1.66,2.357 3.844,4.003 6.18,5.538 0.333,0.339 0.705,0.63 1.104,0.888 z"
   id="path68" />
		<path
   fill-rule="evenodd"
   clip-rule="evenodd"
   fill="#413c38"
   d="m 175.002,366.975 c 3.712,-0.063 7.324,2.072 11.17,0.229 1.285,-0.616 2.288,0.939 3.261,1.82 2.051,1.857 3.583,4.393 6.538,5.092 0.372,0.264 0.717,0.558 1.039,0.879 0.312,0.036 0.624,0.07 0.936,0.103 1.143,1.313 0.489,2.521 -0.344,3.584 -3.647,4.657 -14.958,4.548 -18.561,-0.129 -0.541,-0.702 -0.276,-1.611 -0.666,-2.283 -2.359,2.302 -4.788,2.243 -6.961,-0.066 -2.19,-2.327 -1.015,-4.604 0.618,-6.704 0.811,-1.045 1.55,-2.191 2.97,-2.525 z"
   id="path70" />
		<path
   fill-rule="evenodd"
   clip-rule="evenodd"
   fill="#00b700"
   d="m 264.6,240.714 c -13.771,-2.602 -27.094,-5.144 -40.431,-7.61 -1.813,-0.336 -3.469,-0.805 -3.134,-2.975 0.45,-2.916 2.761,-1.148 3.935,-0.974 7.54,1.125 15.106,2.247 22.521,3.98 4.584,1.071 8.909,0.245 13.307,-0.296 2.829,-0.349 5.134,-0.982 3.593,3.313 -0.409,1.137 0.088,2.599 0.209,4.562 z"
   id="path72" />
		<path
   fill-rule="evenodd"
   clip-rule="evenodd"
   fill="#00b6cc"
   d="m 243.032,178.019 c -1.521,0.841 -3.141,1.15 -4.863,0.912 -9.184,-0.428 -18.077,-2.687 -27.159,-4.162 3.572,-2.291 7.6,-0.433 11.226,-1.595 15.916,-0.686 31.822,-0.896 47.685,1.003 -1.004,0.537 -2.009,1.074 -3.013,1.61 -7.9,1.371 -15.793,2.824 -23.876,2.232 z"
   id="path74" />
		<path
   fill-rule="evenodd"
   clip-rule="evenodd"
   fill="#2e2824"
   d="m 175.002,366.975 c -0.652,1.146 -1.138,2.439 -1.993,3.406 -1.537,1.74 -2.958,3.337 -0.62,5.437 1.997,1.793 3.871,1.447 5.665,-0.358 0.453,-0.456 0.996,-0.822 2.139,-1.751 -2.318,6.127 2.317,5.994 5.254,6.883 5.293,1.603 10.821,-1.014 12.5,-5.495 3.014,0.214 4.053,2.104 4.103,4.834 -6.167,3.262 -12.67,4.237 -19.489,2.721 -1.111,-0.247 -2.142,-0.865 -3.335,-0.822 -1.227,-0.261 -2.325,-0.668 -3.734,-0.249 -1.53,0.454 -0.573,-0.883 -0.573,-1.487 -1.771,-2.273 -6.29,0.09 -6.922,-4.104 0.056,-2.31 0.111,-4.559 0.759,-6.87 1.145,-4.089 3.057,-4.649 6.246,-2.145 z"
   id="path76" />
		<path
   fill-rule="evenodd"
   clip-rule="evenodd"
   fill="#f8c695"
   d="m 209.366,186.436 c -5.652,2.926 -17.162,0.2 -20.316,-4.973 -1.404,-2.304 0.756,-4.857 1.551,-6.835 0.917,-2.28 4.168,-0.427 6.366,-0.326 2.299,0.106 2.589,2.288 2.069,3.768 -2.604,7.399 2.693,7.233 7.25,7.87 0.961,0.134 1.916,0.307 3.08,0.496 z"
   id="path78" />
		<path
   fill-rule="evenodd"
   clip-rule="evenodd"
   fill="#2e2824"
   d="m 216.996,362.956 c 0.056,1.364 -0.079,2.66 -1.154,3.681 -1.607,1.524 -2.609,3.138 -0.558,5.07 1.952,1.838 3.833,1.643 5.692,-0.173 0.563,-0.549 1.056,-1.296 2.265,-1.103 -2.691,4.756 1.607,5.146 4.124,6.099 5.451,2.063 11.796,-0.654 13.547,-5.381 3.333,0.622 4.261,3.2 4.895,6.019 -7.813,1.405 -15.578,4.645 -23.538,0.635 -1.271,-0.246 -2.454,-0.668 -3.362,-1.652 -2.194,-2.31 -6.546,-0.576 -8.001,-4.271 0.148,-2.406 0.066,-4.807 1.014,-7.146 1.086,-2.683 2.496,-3.709 5.076,-1.778 z"
   id="path80" />
		<path
   fill-rule="evenodd"
   clip-rule="evenodd"
   fill="#1a100a"
   d="m 159.949,112.059 c 0.343,-3.158 -1.856,-8.373 5.04,-6.229 -4.318,1.081 -4.607,3.875 -2.932,7.284 1.871,3.807 2.559,7.74 1.926,11.928 -0.442,2.924 0.853,5.426 2.024,7.949 0.312,1.62 2.046,1.737 2.919,2.764 -1.012,0.512 -0.882,1.35 -0.632,2.221 -2.232,0.386 -4.101,1.865 -6.377,2.118 -0.42,-0.304 -0.84,-0.607 -1.26,-0.911 1.772,-0.813 -0.774,-4.071 2.336,-4.127 -0.574,-0.363 -0.572,-0.725 0.005,-1.083 -0.842,-7.329 1.494,-15.101 -3.049,-21.914 z"
   id="path82" />
		<path
   fill-rule="evenodd"
   clip-rule="evenodd"
   fill="#112a2e"
   d="m 222.235,173.174 c -3.317,1.344 -6.926,0.146 -10.583,1.255 8.959,1.929 17.92,2.17 26.517,4.502 0.217,0.71 0.434,1.42 0.65,2.13 -0.369,-0.005 -0.738,-0.011 -1.108,-0.017 -6.188,-3.141 -13.137,-2.507 -19.673,-3.931 -3.687,-0.804 -7.429,-1.352 -11.145,-2.015 4.688,-4.039 10.199,-1.515 15.342,-1.924 z"
   id="path84" />
		<path
   fill-rule="evenodd"
   clip-rule="evenodd"
   fill="#ececec"
   d="m 195.722,275.309 c -7.981,0.182 -15.94,0.251 -22.995,-4.331 7.717,1.172 15.682,1.079 22.995,4.331 z"
   id="path86" />
		<path
   fill-rule="evenodd"
   clip-rule="evenodd"
   fill="#705443"
   d="m 179.225,381.828 c 2.042,-1.888 3.981,0.205 5.951,0.301 5.802,0.282 11.279,-1.272 16.873,-2.199 1.01,0.829 1.089,1.923 -0.188,2.18 -7.548,1.523 -15.173,5.624 -22.636,-0.282 z"
   id="path88" />
		<path
   fill-rule="evenodd"
   clip-rule="evenodd"
   fill="#461906"
   d="m 162.998,133.973 c -10e-4,0.361 -0.003,0.722 -0.005,1.082 -2.59,0.479 -4.029,-1.692 -5.888,-3.063 -0.7,1.863 1.408,2.003 1.039,3.273 -8.121,1.627 -5.851,2.813 -10.212,-4.185 1.603,-0.502 3.184,-0.703 4.622,0.445 2.386,1.906 1.89,-5.175 5.016,-1.546 1.443,1.677 2.727,3.892 5.428,3.994 z"
   id="path90" />
		<path
   fill-rule="evenodd"
   clip-rule="evenodd"
   fill="#785a47"
   d="m 222.269,377.803 c 7.915,2.343 15.67,-1.275 23.539,-0.635 -5.566,4.531 -17.286,4.848 -23.539,0.635 z"
   id="path92" />
		<path
   fill-rule="evenodd"
   clip-rule="evenodd"
   fill="#22150e"
   d="m 190.106,94.536 c -0.032,-0.497 -0.064,-0.994 -0.097,-1.491 5.875,-2.816 11.354,-6.448 18.412,-6.252 3.224,0.09 5.656,2.03 8.668,2.201 1.924,1.836 2.344,3.87 0.816,6.162 -5.833,-8.66 -11.745,-9.444 -22.88,-3.033 -1.11,1.882 -2.899,2.384 -4.919,2.413 z"
   id="path94" />
		<path
   fill-rule="evenodd"
   clip-rule="evenodd"
   fill="#98305c"
   d="m 259.284,190.187 c -1.384,-0.348 -2.977,0.255 -4.18,-0.915 10.14,-2.117 20.418,-3.221 30.716,-4.172 0.164,2.086 -1.732,1.945 -2.731,2.041 -7.413,0.711 -14.655,2.676 -22.119,2.951 -0.562,0.031 -1.124,0.062 -1.686,0.095 z"
   id="path96" />
		<path
   fill-rule="evenodd"
   clip-rule="evenodd"
   fill="#28161d"
   d="m 260.97,190.092 c 5.984,-1.881 12.267,-1.999 18.391,-3.057 2.267,-0.392 4.539,-0.501 6.461,-1.936 2.104,0.325 4.207,0.65 6.311,0.976 -8.691,2.042 -17.559,2.967 -26.385,4.154 -0.762,0.404 -1.679,0.08 -2.433,0.519 -0.774,0.041 -1.549,0.082 -2.322,0.123 0.002,-0.261 -0.005,-0.52 -0.023,-0.779 z"
   id="path98" />
		<path
   fill-rule="evenodd"
   clip-rule="evenodd"
   fill="#846254"
   d="m 170.154,76.956 c -2.455,2.137 -4.91,4.274 -7.638,6.649 -0.506,-1.97 1.685,-2.652 1.834,-4.2 -2.975,1.262 -2.975,1.262 -3.372,-0.431 2.432,-1.781 5.181,-2.927 8.023,-3.818 2.212,-0.693 1.562,0.687 1.153,1.8 z"
   id="path100" />
		<path
   fill-rule="evenodd"
   clip-rule="evenodd"
   fill="#553e31"
   d="m 210.905,371.88 c 2.383,1.956 6.434,0.785 8.002,4.269 -2.344,-0.438 -4.272,2.706 -7.029,0.432 -1.914,-1.581 -2.558,-2.725 -0.973,-4.701 z"
   id="path102" />
		<path
   fill-rule="evenodd"
   clip-rule="evenodd"
   fill="#ddae7f"
   d="m 218.979,279.764 c 4.463,0.813 8.925,1.628 13.482,2.459 -0.955,2.646 -2.942,1.437 -4.382,1.814 -3.384,0.275 -6.426,-0.749 -9.254,-2.5 -1.001,-0.62 -1.553,-1.327 0.154,-1.773 z"
   id="path104" />
		<path
   fill-rule="evenodd"
   clip-rule="evenodd"
   fill="#553f31"
   d="m 167.996,375.987 c 2.291,1.901 5.313,1.967 7.89,3.147 0.088,0.041 0.172,0.304 0.164,0.309 -0.371,0.227 -0.751,0.436 -1.132,0.647 -2.281,1.819 -4.574,1.852 -6.816,-0.03 -1.529,-1.282 -1.615,-2.674 -0.106,-4.073 z"
   id="path106" />
		<path
   fill-rule="evenodd"
   clip-rule="evenodd"
   fill="#4f280e"
   d="m 218.979,279.764 c 1.74,4.176 6.222,2.518 9.1,4.273 -0.029,0.361 -0.06,0.723 -0.089,1.085 -4.64,-0.829 -9.598,-1 -12.24,-5.942 1.167,-0.307 2.312,-0.489 3.229,0.584 z"
   id="path108" />
		<path
   fill-rule="evenodd"
   clip-rule="evenodd"
   fill="#b7b7b7"
   d="m 193.153,186.883 c -0.384,0.372 -0.768,0.743 -1.152,1.115 -3.292,-2.2 -5.959,-4.989 -7.768,-8.673 2.868,2.672 5.621,5.454 8.92,7.558 z"
   id="path110" />
		<path
   fill-rule="evenodd"
   clip-rule="evenodd"
   fill="#785445"
   d="m 193.88,73.15 c -4.419,1.729 -9.419,0.247 -13.8,2.497 -0.547,0.28 -0.186,-0.933 -0.044,-1.466 4.521,-1.608 9.179,-1.367 13.844,-1.031 z"
   id="path112" />
		<path
   fill-rule="evenodd"
   clip-rule="evenodd"
   fill="#7f5c4e"
   d="m 148.095,89.023 c 0.466,3.673 -2.7,5.899 -3.597,9.03 -0.208,-0.4 -0.415,-0.8 -0.624,-1.2 0.696,-2.994 2.345,-5.472 4.221,-7.83 z"
   id="path114" />
		<path
   fill-rule="evenodd"
   clip-rule="evenodd"
   fill="#4f260b"
   d="m 220.107,286.821 c -2.796,-0.71 -5.565,-1.483 -7.887,-3.47 2.855,0.094 5.457,1.031 7.885,2.573 0.038,0.3 0.038,0.598 0.002,0.897 z"
   id="path116" />
		<path
   fill-rule="evenodd"
   clip-rule="evenodd"
   fill="#383738"
   d="m 218.082,235.047 c -1.054,1.868 0.587,4.178 -0.978,5.962 l -0.484,0.047 -0.486,-0.017 c 0.012,-1.701 0.023,-3.402 0.036,-5.104 0.638,-0.296 1.275,-0.592 1.912,-0.888 z"
   id="path118" />
		<path
   fill-rule="evenodd"
   clip-rule="evenodd"
   fill="#251d26"
   d="m 254.14,208.038 c -0.008,-1.353 -0.016,-2.705 -0.024,-4.058 0.322,0.017 0.645,0.028 0.967,0.033 1.395,1.681 1.322,3.349 -0.044,5.004 -0.301,-0.326 -0.6,-0.652 -0.899,-0.979 z"
   id="path120" />
		<path
   fill-rule="evenodd"
   clip-rule="evenodd"
   fill="#fecb98"
   d="m 288.9,282.244 c -0.344,0.947 -0.989,0.928 -1.605,0.876 -0.649,-0.054 -1.4,-0.326 -0.954,-1.077 0.236,-0.396 1.134,-0.51 1.739,-0.528 0.284,-0.009 0.586,0.507 0.82,0.729 z"
   id="path122" />
		<path
   fill-rule="evenodd"
   clip-rule="evenodd"
   fill="#9f6e3e"
   d="m 292.522,281.963 c -0.345,0.172 -0.836,0.546 -1.371,0.624 -0.22,0.031 -0.773,-0.589 -0.756,-0.888 0.048,-0.783 0.759,-0.859 1.383,-0.827 0.446,0.024 0.921,0.14 0.744,1.091 z"
   id="path124" />
		<path
   fill-rule="evenodd"
   clip-rule="evenodd"
   fill="#d0a67c"
   d="m 284.588,282.353 c -1.005,0.526 -1.338,0.843 -1.668,0.839 -0.431,-0.005 -1.013,-0.138 -1.256,-0.438 -0.523,-0.646 0.331,-0.641 0.546,-0.657 0.545,-0.04 1.103,0.099 2.378,0.256 z"
   id="path126" />
		<path
   fill-rule="evenodd"
   clip-rule="evenodd"
   fill="#fcca97"
   d="m 217.331,277.201 c 0.552,-0.192 1.059,-0.228 1.373,0.395 -0.558,0.206 -1.071,0.274 -1.373,-0.395 z"
   id="path128" />
		<path
   fill-rule="evenodd"
   clip-rule="evenodd"
   fill="#2e2824"
   d="m 239.09,370.933 c -0.368,-0.296 -0.736,-0.592 -1.104,-0.888 0.368,0.297 0.736,0.592 1.104,0.888 z"
   id="path130" />
		<polygon
   fill-rule="evenodd"
   clip-rule="evenodd"
   fill="#0052be"
   points="248.684,219.536 248.691,219.564 248.53,219.52 "
   id="polygon132" />
		<path
   fill-rule="evenodd"
   clip-rule="evenodd"
   fill="#2e2824"
   d="m 197.01,374.994 c -0.346,-0.293 -0.693,-0.587 -1.039,-0.88 0.346,0.294 0.693,0.587 1.039,0.88 z"
   id="path134" />
		<path
   fill-rule="evenodd"
   clip-rule="evenodd"
   fill="#fbc996"
   d="m 197.125,129.053 c 2.118,2.799 0.46,4.609 -1.762,6.044 -4.722,3.05 -9.878,5.36 -15.355,6.376 -5.455,1.012 -5.587,-4.341 -6.767,-7.438 -1.676,-4.4 2.773,-4.457 5.21,-6.043 0.776,2.619 -3.049,5.806 1.5,7.307 1.171,-0.478 2.438,-0.373 3.646,-0.619 1.627,-0.365 3.033,-1.238 4.507,-1.957 0.374,-0.198 0.764,-0.354 1.163,-0.492 1.017,-0.313 2.032,-0.628 3.015,-1.041 1.64,-0.662 3.237,-1.411 4.843,-2.137 z"
   id="path136" />
		<path
   fill-rule="evenodd"
   clip-rule="evenodd"
   fill="#f8c695"
   d="m 223.097,113.877 c -1.313,-1.048 -2.628,-2.095 -4.211,-3.356 1.593,-0.622 2.869,-1.12 4.146,-1.619 3.687,3.189 4.985,7.326 4.784,12.058 -4.048,1.837 -8.117,3.627 -12.131,5.533 -1.456,0.691 -2.91,0.56 -4.385,0.431 -1.189,-0.104 -1.93,-1.249 -1.808,-2.043 0.173,-1.124 1.692,-0.43 2.485,-0.938 1.347,-2.448 3.996,-3.022 6.155,-4.301 0.392,-0.215 0.803,-0.396 1.214,-0.566 2.347,-0.942 3.793,-2.532 3.751,-5.199 z"
   id="path138" />
		<path
   fill-rule="evenodd"
   clip-rule="evenodd"
   fill="#73a6d8"
   d="m 181.193,128.781 c 0.36,-0.834 0.904,-1.473 1.823,-1.713 0.875,0.157 1.441,0.772 2.023,1.34 0.223,0.237 0.608,0.563 0.815,0.429 0.611,-0.394 0.063,-0.812 -0.135,-1.215 -0.368,-0.493 -0.638,-1.015 -0.667,-1.631 1.025,-1.273 2.464,-0.937 3.806,-0.976 2.7,1.306 3.084,3.589 2.634,6.227 -0.273,1.388 -1.805,1.008 -2.515,1.787 l 0.063,-0.039 c -0.874,0.679 -1.985,0.536 -2.964,0.859 -3.358,-0.022 -4.608,-2.076 -4.883,-5.068 z"
   id="path140" />
		<path
   fill-rule="evenodd"
   clip-rule="evenodd"
   fill="#7aa8d5"
   d="m 211.033,115.031 c 1.08,-1.094 2.367,-1.754 3.917,-1.861 3.225,1.354 3.771,3.721 2.56,6.756 -0.936,1.082 -2.138,1.685 -3.527,1.949 -3.021,0.297 -4.791,-0.944 -5.017,-4.082 -0.028,-1.456 0.802,-2.271 2.065,-2.761 0.489,0.528 1.064,0.969 1.524,1.475 0.15,0.092 0.233,0.155 0.233,0.155 0.069,-0.06 0.04,-0.187 -0.087,-0.382 -0.108,-0.167 -0.217,-0.251 -0.343,-0.26 -0.51,-0.259 -0.942,-0.591 -1.325,-0.989 z"
   id="path142" />
		<path
   fill-rule="evenodd"
   clip-rule="evenodd"
   fill="#f8f8f8"
   d="m 216.977,119.899 c 0.284,-2.531 -0.036,-4.882 -2.025,-6.729 2.646,-0.514 5.113,-0.329 7.076,1.819 1.774,3.408 -1.004,3.992 -3.1,5 l 0.092,-0.061 c -0.691,0.645 -1.373,0.672 -2.043,-0.029 z"
   id="path144" />
		<path
   fill-rule="evenodd"
   clip-rule="evenodd"
   fill="#eef0f1"
   d="m 190.821,131.255 c -0.269,-2.201 -0.444,-4.432 -1.962,-6.24 3.14,-0.273 6.306,-0.594 6.751,3.854 -0.321,1.969 -1.641,2.625 -3.456,2.632 -0.469,0.054 -0.912,-0.035 -1.333,-0.246 z"
   id="path146" />
		<path
   fill-rule="evenodd"
   clip-rule="evenodd"
   fill="#100d0b"
   d="m 227.816,120.959 c -1.595,-4.019 -3.189,-8.038 -4.784,-12.058 1.084,-1.471 2.049,-0.113 3.061,0.13 0.461,0.612 0.358,1.483 0.936,2.043 l -0.091,-0.12 c 0.897,2.566 2.472,4.946 2.163,7.845 -0.1,0.915 -0.24,1.807 -1.285,2.16 z"
   id="path148" />
		<path
   fill-rule="evenodd"
   clip-rule="evenodd"
   fill="#f8f9fa"
   d="m 181.193,128.781 c 1.417,1.677 1.951,4.329 4.84,4.378 0.138,1.67 -1.545,1.481 -2.294,2.247 -1.491,0.234 -2.851,0.091 -3.777,-1.307 -0.599,-2.006 -0.047,-3.746 1.231,-5.318 z"
   id="path150" />
		<path
   fill-rule="evenodd"
   clip-rule="evenodd"
   fill="#f4f4f6"
   d="m 208.966,117.793 c 1.289,1.626 2.298,3.657 4.899,3.379 0.459,1.792 -1.114,1.287 -1.896,1.678 -3.327,0.503 -4.543,-0.872 -3.663,-4.114 0.251,-0.188 0.418,-0.431 0.502,-0.732 z"
   id="path152" />
		<path
   fill-rule="evenodd"
   clip-rule="evenodd"
   fill="#5f4f3e"
   d="m 218.928,119.989 c 1.306,-1.497 3.945,-2.168 3.1,-5 0.356,-0.37 0.713,-0.741 1.069,-1.112 0.965,4.328 0.332,5.255 -4.169,6.112 z"
   id="path154" />
		<path
   fill-rule="evenodd"
   clip-rule="evenodd"
   fill="#5c4e40"
   d="m 211.969,122.85 c 0.632,-0.561 1.265,-1.121 1.896,-1.68 1.038,-0.422 2.075,-0.847 3.112,-1.271 0.68,0.01 1.361,0.02 2.042,0.029 -2.347,1.338 -4.693,2.676 -7.041,4.014 -0.002,-0.364 -0.006,-0.728 -0.009,-1.092 z"
   id="path156" />
		<path
   fill-rule="evenodd"
   clip-rule="evenodd"
   fill="#c3c3c3"
   d="m 229.101,118.799 c -0.48,-2.681 -2.373,-4.973 -2.163,-7.845 1.559,2.384 4.035,4.515 2.163,7.845 z"
   id="path158" />
		<path
   fill-rule="evenodd"
   clip-rule="evenodd"
   fill="#c1ccd7"
   d="m 185.053,125.991 c 0.357,0.352 0.714,0.704 1.071,1.056 0.624,1.938 -0.063,2.626 -2.012,2.113 -0.365,-0.697 -0.73,-1.396 -1.095,-2.092 0.678,-0.359 1.357,-0.717 2.036,-1.077 z"
   id="path160" />
		<path
   fill-rule="evenodd"
   clip-rule="evenodd"
   fill="#362c22"
   d="m 192.036,131.14 c 1.511,-0.254 2.481,-1.359 3.574,-2.271 0.505,0.061 1.01,0.122 1.515,0.183 -1.275,1.739 -2.725,3.185 -5.121,3.028 -0.284,-0.219 -0.374,-0.432 -0.27,-0.637 0.102,-0.203 0.203,-0.303 0.302,-0.303 z"
   id="path162" />
		<path
   fill-rule="evenodd"
   clip-rule="evenodd"
   fill="#3d342c"
   d="m 179.962,134.1 c 1.18,1.043 2.624,0.818 4.018,0.841 0.298,0.206 0.391,0.402 0.279,0.589 -0.108,0.181 -0.215,0.271 -0.322,0.271 -1.383,0.266 -2.808,0.865 -3.985,-0.503 0.003,-0.399 0.007,-0.799 0.01,-1.198 z"
   id="path164" />
		<path
   fill-rule="evenodd"
   clip-rule="evenodd"
   fill="#cecece"
   d="m 227.028,111.074 c -1.354,-0.204 -0.919,-1.227 -0.936,-2.043 1.192,0.279 0.948,1.214 0.936,2.043 z"
   id="path166" />
		<path
   fill-rule="evenodd"
   clip-rule="evenodd"
   fill="#bd9772"
   d="m 194.042,123.838 c -0.131,-0.176 -0.262,-0.351 -0.392,-0.525 0.282,-0.056 0.563,-0.146 0.845,-0.146 0.107,0 0.213,0.212 0.32,0.327 -0.257,0.114 -0.515,0.23 -0.773,0.344 z"
   id="path168" />
		<path
   fill-rule="evenodd"
   clip-rule="evenodd"
   fill="#7aa8d5"
   d="m 208.808,118.003 c -0.168,0.247 -0.336,0.494 -0.503,0.736 0.169,-0.248 0.336,-0.492 0.503,-0.736 z"
   id="path170" />
		<path
   fill-rule="evenodd"
   clip-rule="evenodd"
   fill="#010202"
   d="m 192.99,194.986 c -0.435,0.882 -0.885,1.754 -2.077,1.68 -0.106,-0.007 -0.31,-0.285 -0.28,-0.365 0.417,-1.104 1.385,-1.228 2.38,-1.288 0.001,0.001 -0.023,-0.027 -0.023,-0.027 z"
   id="path172" />
		<path
   fill-rule="evenodd"
   clip-rule="evenodd"
   fill="#26221e"
   d="m 196.561,154.896 c 10.401,-2.33 20.104,-5.102 28.367,-12.577 -2.19,15.827 -13.864,20.877 -28.367,12.577 z"
   id="path174" />
		<path
   fill-rule="evenodd"
   clip-rule="evenodd"
   fill="#dd8e6b"
   d="m 165.134,154.875 c -5.563,-2.061 -10.307,-4.782 -11.242,-11.52 -0.446,-3.215 0.227,-4.107 3.234,-2.662 1.436,1.629 1.59,3.544 1.242,5.57 0.617,-3.788 1.278,-3.966 4.345,-2.023 2.648,1.678 2.327,5.518 5.357,6.763 l -0.049,-0.063 c 1.648,3.226 -0.852,3.411 -2.887,3.935 z"
   id="path176" />
		<path
   fill-rule="evenodd"
   clip-rule="evenodd"
   fill="#471d0b"
   d="m 161.917,140.094 c 1.604,-2.278 3.392,-3.998 6.377,-2.119 1.224,1.394 1.731,2.685 -0.205,3.983 -2.875,1.929 -4.508,0.05 -6.172,-1.864 z"
   id="path178" />
		<path
   fill-rule="evenodd"
   clip-rule="evenodd"
   fill="#99523d"
   d="m 168.071,151.003 c -2.001,-0.036 -2.657,-1.346 -3.332,-3.019 -0.878,-2.176 -2.57,-3.742 -5.373,-4.447 -0.228,1.586 -0.442,3.08 -0.657,4.573 0.379,-2.717 -2.418,-4.745 -1.583,-7.417 5.735,1.221 8.431,5.67 10.945,10.31 z"
   id="path180" />
		<path
   fill-rule="evenodd"
   clip-rule="evenodd"
   fill="#d08262"
   d="m 213.091,144.132 c -1.893,1.737 -4.118,0.521 -6.187,0.694 -0.93,-0.978 0.122,-1.876 0.111,-2.817 2.297,-1.817 6.015,-0.11 7.818,-3.151 1.961,2.597 -1.737,3.325 -1.742,5.274 z"
   id="path182" />
		<path
   fill-rule="evenodd"
   clip-rule="evenodd"
   fill="#9b533e"
   d="m 213.091,144.132 c -1.395,-2.411 2.694,-3.01 1.743,-5.274 0.636,-1.813 -0.928,-3.231 -0.884,-4.938 l -0.055,0.048 c 5.761,3.196 5.701,3.963 -0.804,10.164 z"
   id="path184" />
		<path
   fill-rule="evenodd"
   clip-rule="evenodd"
   fill="#da8463"
   d="m 220.984,157.987 c -1.699,2.699 -4.304,3.451 -8.669,3.89 3.566,-2.175 5.936,-3.446 8.7,-3.858 z"
   id="path186" />
		<path
   fill-rule="evenodd"
   clip-rule="evenodd"
   fill="#9b543e"
   d="m 207.016,142.009 c 1.352,0.995 -0.44,1.864 -0.111,2.817 -1.316,0.831 -2.588,2.229 -4.121,0.326 l 0.371,-0.309 c 2.232,0.344 2.654,-1.78 3.861,-2.834 z"
   id="path188" />
		<path
   fill-rule="evenodd"
   clip-rule="evenodd"
   fill="#ab684e"
   d="m 165.134,154.875 c 1.333,-1.04 3.483,-1.48 2.888,-3.936 1.606,3.548 1.402,3.828 -2.888,3.936 z"
   id="path190" />
		<path
   fill-rule="evenodd"
   clip-rule="evenodd"
   fill="#9d5842"
   d="m 202.783,145.152 c -0.784,-0.477 -0.852,-1.213 -0.657,-1.994 0.05,-0.199 0.328,-0.341 0.501,-0.509 0.176,0.731 0.351,1.464 0.526,2.194 0.001,0.001 -0.37,0.309 -0.37,0.309 z"
   id="path192" />
		<path
   fill-rule="evenodd"
   clip-rule="evenodd"
   fill="#292522"
   d="m 213.95,133.92 c -0.672,-0.292 -1.345,-0.583 -2.02,-0.872 -0.003,0.002 -0.079,0.084 -0.082,0.086 0.762,0.08 1.713,-0.301 2.048,0.835 0,-0.001 0.054,-0.049 0.054,-0.049 z"
   id="path194" />
		<path
   fill-rule="evenodd"
   clip-rule="evenodd"
   fill="#da8463"
   d="m 221.016,158.019 c 0.133,-0.154 0.266,-0.308 0.398,-0.462 -0.021,0.092 -0.01,0.221 -0.067,0.268 -0.099,0.081 -0.239,0.112 -0.362,0.163 z"
   id="path196" />
		<path
   fill-rule="evenodd"
   clip-rule="evenodd"
   fill="#633925"
   d="m 173.994,125.643 c 0.125,-8.686 9.06,-15.072 15.871,-12.499 0.816,0.309 1.608,0.812 1.568,1.67 -0.068,1.426 -1.397,1.109 -2.273,1.2 -6.273,0.656 -11.999,2.246 -15.166,9.629 z"
   id="path198" />
		<path
   fill-rule="evenodd"
   clip-rule="evenodd"
   fill="#683d28"
   d="m 221.053,103.855 c -0.501,0.355 -1.161,1.126 -1.479,1.004 -5.881,-2.252 -10.184,0.602 -14.308,4.225 -0.642,0.563 -1.269,1.816 -2.402,0.793 -0.967,-0.874 -0.301,-1.806 0.171,-2.676 2.793,-5.157 9.744,-7.308 14.97,-4.652 1.002,0.509 2.055,0.919 3.085,1.373 -0.001,-10e-4 -0.037,-0.067 -0.037,-0.067 z"
   id="path200" />
		<path
   fill-rule="evenodd"
   clip-rule="evenodd"
   fill="#0d0906"
   d="m 167.979,104.036 c -1.079,-1.27 0.298,-1.73 0.86,-2.343 1.851,-2.017 12.829,-3.354 15.148,-1.916 -2.635,1.035 -5.416,1.474 -8.199,1.406 -3.05,-0.074 -5.639,0.716 -7.809,2.853 z"
   id="path202" />
		<path
   fill-rule="evenodd"
   clip-rule="evenodd"
   fill="#dcb084"
   d="m 190.106,94.536 c 1.64,-0.804 3.28,-1.608 4.92,-2.413 -0.003,0.277 -0.014,0.554 -0.032,0.83 0.229,0.241 0.306,0.483 0.232,0.727 -0.074,0.244 -0.149,0.366 -0.225,0.366 l 0.042,-0.042 c -0.616,0.447 -1.29,0.753 -2.057,0.823 -1.29,0.438 -2.58,0.877 -3.869,1.315 l -0.223,-0.252 c 0.405,-0.451 0.809,-0.903 1.212,-1.354 z"
   id="path204" />
		<path
   fill-rule="evenodd"
   clip-rule="evenodd"
   fill="#7b624a"
   d="m 192.987,94.827 c 0.387,-1.022 1.182,-1.024 2.057,-0.823 -0.227,1.186 -1.159,1.569 -2.147,1.891 0.03,-0.356 0.06,-0.712 0.09,-1.068 z"
   id="path206" />
		<path
   fill-rule="evenodd"
   clip-rule="evenodd"
   fill="#7b624a"
   d="m 195.001,94.046 c -0.002,-0.364 -0.005,-0.729 -0.007,-1.093 0.834,0.359 0.934,0.723 0.007,1.093 z"
   id="path208" />
		<path
   fill-rule="evenodd"
   clip-rule="evenodd"
   fill="#4a1a07"
   d="m 166.958,88.975 c -0.31,0.114 -0.874,0.359 -0.893,0.323 -0.893,-1.725 3.202,-9.228 4.436,-8.413 2.837,1.871 4.297,-0.591 6.198,-1.315 3.36,-1.28 6.515,-3.183 10.819,-2.234 -3.823,1.54 -7.713,1.879 -10.509,4.603 -2.541,2.338 -5.136,4.606 -8.089,6.428 -0.396,0.246 -0.82,0.433 -1.268,0.564 -0.231,0.016 -0.463,0.03 -0.694,0.044 z"
   id="path210" />
		<path
   fill-rule="evenodd"
   clip-rule="evenodd"
   fill="#856052"
   d="m 167.906,87.958 c 2.87,-2.256 5.456,-4.94 9.104,-6.021 -1.24,6.022 -6.835,8.413 -10.32,13.172 -0.859,-2.562 1.961,-4.197 0.269,-6.134 0,-10e-4 0.021,-0.006 0.021,-0.006 0.359,-0.289 0.666,-0.629 0.926,-1.011 z"
   id="path212" />
		<path
   fill-rule="evenodd"
   clip-rule="evenodd"
   fill="#7f5a4c"
   d="m 199.022,85.773 c 1.313,-6.83 5.592,-2.44 8.838,-2.347 -2.873,0.827 -6.131,0.209 -8.838,2.347 z"
   id="path214" />
		<path
   fill-rule="evenodd"
   clip-rule="evenodd"
   fill="#015761"
   d="m 243.032,178.019 c 7.959,-0.743 15.917,-1.486 23.875,-2.23 0.985,0.447 2.337,-0.401 3.136,0.862 -7.021,0.778 -13.986,1.669 -20.978,2.249 -1.97,0.163 -4.283,1.1 -6.033,-0.881 z"
   id="path216" />
		<path
   fill-rule="evenodd"
   clip-rule="evenodd"
   fill="#9c7e5e"
   d="m 186.993,96.943 c -0.295,0.283 -0.589,0.567 -0.884,0.851 -0.138,-0.167 -0.276,-0.334 -0.415,-0.5 0.454,-0.096 0.908,-0.191 1.362,-0.287 z"
   id="path218" />
		<path
   fill-rule="evenodd"
   clip-rule="evenodd"
   fill="#d9ae82"
   d="m 187.057,97.007 c 0.238,-0.992 1.034,-1.062 1.839,-1.115 0,-10e-4 0.219,0.247 0.221,0.249 -0.395,1.097 -1.319,0.79 -2.123,0.803 z"
   id="path220" />
		<path
   fill-rule="evenodd"
   clip-rule="evenodd"
   fill="#98305c"
   d="m 263.314,190.748 c 0.672,-0.842 1.544,-0.743 2.438,-0.52 -0.725,0.6 -1.545,0.734 -2.438,0.52 z"
   id="path222" />
		<path
   fill-rule="evenodd"
   clip-rule="evenodd"
   fill="#6a5c4f"
   d="m 183.937,135.801 c -0.039,-0.29 -0.024,-0.576 0.043,-0.86 0.685,-0.595 1.369,-1.189 2.054,-1.782 1.002,-0.055 2.004,-0.111 3.006,-0.168 -1.321,1.627 -3.337,1.99 -5.103,2.81 z"
   id="path224" />
		<path
   fill-rule="evenodd"
   clip-rule="evenodd"
   fill="#6a5c4f"
   d="m 192.036,131.14 c -0.03,0.313 -0.041,0.626 -0.032,0.94 -0.766,1.092 -1.873,1.095 -3.027,0.949 -0.164,-1.405 1.523,-0.884 1.847,-1.776 0.402,-0.037 0.807,-0.075 1.212,-0.113 z"
   id="path226" />
		<path
   fill-rule="evenodd"
   clip-rule="evenodd"
   fill="#0c1015"
   d="m 184.111,129.16 c 1.247,-0.154 2.003,-0.776 2.012,-2.112 2.49,0.071 2.718,1.739 1.569,3.141 -1.418,1.727 -2.749,0.637 -3.581,-1.029 z"
   id="path228" />
		<path
   fill-rule="evenodd"
   clip-rule="evenodd"
   fill="#0e1317"
   d="m 213.143,115.174 c 1.763,0.797 2.988,2.053 1.051,3.575 -1.232,0.968 -2.543,0.317 -2.283,-1.666 0.11,-0.83 0.433,-1.523 1.232,-1.909 z"
   id="path230" />
		<path
   fill-rule="evenodd"
   clip-rule="evenodd"
   fill="#f1f3f5"
   d="m 213.143,115.174 c -0.115,0.826 -0.007,1.797 -1.231,1.909 -0.767,-0.48 -0.978,-1.199 -0.88,-2.051 l 0.002,-10e-4 c 0.702,0.048 1.405,0.096 2.109,0.143 z"
   id="path232" />
		<path
   fill-rule="evenodd"
   clip-rule="evenodd"
   fill="#e6e6e6"
   d="m 202.817,156.12 c -0.163,-0.034 -0.341,-0.036 -0.487,-0.105 -0.7,-0.334 -0.444,-0.752 0.062,-0.871 6.964,-1.631 13.446,-4.444 19.723,-8.274 -1.273,7.289 -6.063,10.4 -15.112,10.128 1.53,-3.03 5.261,-1.494 7.2,-3.465 0.663,-0.367 -0.394,-0.994 0.063,-0.509 0.146,0.155 0.082,0.32 -0.21,0.449 -3.581,1.586 -7.156,3.197 -11.239,2.647 z"
   id="path234" />
		<path
   fill-rule="evenodd"
   clip-rule="evenodd"
   fill="#bbbbbb"
   d="m 202.817,156.12 c 4.073,-0.968 8.146,-1.936 12.804,-3.042 -2.724,2.659 -6.23,2.042 -8.619,3.919 -1.49,0.161 -2.926,0.065 -4.185,-0.877 z"
   id="path236" />
		<path
   fill-rule="evenodd"
   clip-rule="evenodd"
   fill="#643522"
   d="m 167.906,87.958 c -0.309,0.338 -0.617,0.675 -0.926,1.012 0.308,-0.337 0.617,-0.674 0.926,-1.012 z"
   id="path238" />
	</g>
</g>
</svg>
