<?xml version="1.0" encoding="utf-8"?>
<!-- Generator: Adobe Illustrator 16.0.0, SVG Export Plug-In . SVG Version: 6.00 Build 0)  -->
<!DOCTYPE svg PUBLIC "-//W3C//DTD SVG 1.1//EN" "http://www.w3.org/Graphics/SVG/1.1/DTD/svg11.dtd">
<svg version="1.1" id="Layer_1" xmlns="http://www.w3.org/2000/svg" xmlns:xlink="http://www.w3.org/1999/xlink" x="0px" y="0px"
	 width="400px" height="400px" viewBox="0 0 400 400" enable-background="new 0 0 400 400" xml:space="preserve">
<g>
	<g>
		<path fill-rule="evenodd" clip-rule="evenodd" d="M107.858,358.127c-3.786-1.034-3.78-2.439-0.624-4.564
			c7.188-4.838,15.632-4.94,23.685-6.587c8.021-1.64,16.724-0.873,23.662-6.764c-0.144-1.553-1.756-2.115-2.908-2.868
			c-14.06-9.183-21.267-22.504-23.667-38.782c-0.34-2.305-0.791-4.593-1.103-6.9c-0.716-5.296-1.032-9.812-7.782-12.431
			c-5.828-2.262-8.912-9.289-11.944-14.948c-5.537-10.334-7.586-21.58-6.271-33.32c0.436-3.891,1.684-7.509,4.662-10.21
			c1.28-1.16,1.492-2.433,1.439-3.977c-0.23-6.638-0.165-13.248-1.695-19.837c-0.964-4.153-0.382-8.596,0.138-12.926
			c0.682-5.678,2.227-11.125,2.062-17.074c-0.297-10.697,6.396-17.716,15.247-22.823c1.351-0.779,2.789-1.05,3.514-3.004
			c6.658-17.957,20.671-27.98,37.988-33.868c24.233-8.239,48.84-8.209,73.546-2.075c1.276,0.316,2.508,0.835,3.734,1.324
			c0.438,0.175,0.801,0.541,1.43,0.983c-2.285,2.029-5.119,1.011-7.936,1.987c13.772,4.317,26.118,10.504,36.507,20.138
			c4.637,4.299,10.379,8.412,11.992,14.401c2.63,9.769,9.44,18.585,8.999,28.679c-0.371,8.498,0.561,17.147-1.477,25.676
			c-1.455,6.09-1.535,12.511-2.173,18.789c-0.06,0.589,0.078,1.477,0.472,1.793c8.873,7.146,7.275,16.888,6.344,26.296
			c-1.208,12.191-6.882,22.446-14.796,31.557c-1.071,1.233-2.362,2.891-3.754,3.12c-5.458,0.899-5.627,4.806-6.283,9.048
			c-1.091,7.054-2.491,14.092-4.304,20.994c-2.675,10.193-8.863,18.111-17.178,24.449c-2.368,1.805-4.682,3.683-7.173,5.647
			c5.705,5.229,12.562,6.228,19.594,7.012c6.734,0.752,13.449,1.774,20.118,2.979c3.802,0.687,7.056,2.774,10.015,5.394
			c-0.85,1.586-2.163,2.399-3.88,2.634c-2.715,1.206-4.719-0.998-7.07-1.517c-7.492-1.655-15.129-2.28-22.697-3.391
			c-2.687-0.395-3.751,0.553-3.272,3.269c0.826,4.688-0.837,9.247-0.795,13.903c0.015,1.593-0.749,2.87-2.161,3.698l-0.048,0.023
			c-3.935,0.895-3.146-2.122-2.927-3.963c0.435-3.638,0.509-7.264,0.614-10.91c0.168-5.787-2.58-9.284-8.354-11.214
			c-1.701,12.731-4.737,24.666-16.189,32.239c-1.553,1.258-3.277,0.751-4.979,0.483c-0.302-2.083,1.521-2.765,2.608-3.917
			c5.441-5.76,10.069-11.98,11.407-20.065c0.264-1.598,0.891-3.22-0.331-5.355c-6.189,20.564-22.573,23.468-39.969,22.531
			c-14.119-0.76-26.42-6.07-30.535-22.635c-1.289,2.165-0.674,3.695-0.4,5.172c1.495,8.058,6.398,14.118,11.702,19.947
			c2.301,2.53,2.284,2.546,1.365,4.926c-0.696-0.155-1.391-0.311-2.087-0.466c-3.519-0.475-5.126-3.364-7.18-5.688
			c-6.005-6.794-9.531-14.635-10.076-23.754c-0.074-1.24,0.454-2.904-1.161-3.467c-1.386-0.482-2.445,0.726-3.541,1.413
			c-2.083,1.308-3.198,3.21-3.643,5.646c-0.897,4.913-1.49,9.813-0.555,14.791c0.335,1.784,0.734,3.625-0.784,5.147
			c-1.104,0.036-2.243,0.184-3.004-0.911c-2.324-3.104-1.192-6.704-1.381-10.096c-0.157-2.802-0.15-5.628,0.102-8.43
			c0.202-2.248-0.365-3.588-2.946-3.17c-8.801,1.424-17.761,2.078-26.214,5.197C111.654,358.209,109.88,359.004,107.858,358.127z"/>
		<path fill-rule="evenodd" clip-rule="evenodd" fill="#F8F8F8" d="M176.027,381.293c2.012-2.202-0.867-2.555-1.542-3.273
			c-5.963-6.355-11.43-12.955-13.1-21.847c-0.304-1.616-0.309-3.291-0.414-4.94c-0.103-1.615,1.091-1.816,2.274-2.031
			c1.112-0.201,1.843-0.125,1.948,1.348c0.921,12.966,10.08,18.012,20.888,20.844c10.555,2.767,21.157,2.172,31.269-2.267
			c7.887-3.461,13.774-8.741,14.396-18.055c0.095-1.423,0.325-2.143,1.967-1.945c1.838,0.222,2.531,0.978,2.436,2.916
			c-0.351,7.174-2.702,13.588-6.998,19.296c-2.611,3.471-5.699,6.505-8.972,9.352c-3.294,3.02-7.832-0.094-11.257,2.284
			c-7.282-0.796-14.564-0.796-21.847-0.001C183.636,380.814,179.51,383.169,176.027,381.293z"/>
		<path fill-rule="evenodd" clip-rule="evenodd" fill="#001A33" d="M107.858,358.127c10.653-4.835,22.178-5.689,33.511-7.534
			c3.304-0.538,3.35-0.163,3.06,3.04c-0.611,6.748-0.34,13.576-0.432,20.372C131.106,370.634,119.258,364.891,107.858,358.127z"/>
		<path fill-rule="evenodd" clip-rule="evenodd" fill="#001A33" d="M147,374.916c-0.822-6.729-1.59-13.424-0.059-20.199
			c0.795-3.521,5.864-8.971,9.264-9.208c2.764-0.192,1.771,2.02,1.719,3.152c-0.575,12.46,5.902,21.694,13.689,30.344
			c0.649,0.721,1.545,1.22,2.327,1.822C164.795,379.61,155.745,377.959,147,374.916z"/>
		<path fill-rule="evenodd" clip-rule="evenodd" fill="#001A33" d="M252.063,374.03c0.827-6.329,2.673-12.579,1.14-19.074
			c-0.577-2.444-0.244-4.309,3.201-3.715c7.792,1.343,15.591,2.748,23.445,3.586c3.213,0.343,5.286,2.688,8.21,3.24
			C276.837,365.142,264.854,370.499,252.063,374.03z"/>
		<path fill-rule="evenodd" clip-rule="evenodd" fill="#001A33" d="M225.159,380.206c1.42-3.329,4.696-5.065,6.739-7.893
			c5.663-7.837,7.255-16.907,8.246-26.195c11.989,4.012,11.492,6.993,10.402,22.65c-0.14,2.01-1.827,4.289,1.468,5.284
			C243.296,377.124,234.356,379.228,225.159,380.206z"/>
		<path fill-rule="evenodd" clip-rule="evenodd" fill="#EAD6C1" d="M187.076,382.973c7.283-1.613,14.565-1.61,21.848,0.001
			C201.641,382.973,194.358,382.973,187.076,382.973z"/>
		<path fill-rule="evenodd" clip-rule="evenodd" fill="#FECB98" d="M209.017,252.02c5.028,4.514,11.329,5.481,17.64,5.76
			c10.146,0.447,20.306,0.608,30.454-0.519c5.246-0.583,9.953-2.04,14.544-7.008c-1.827,13.042-3.413,24.703-5.115,36.347
			c-0.649,4.44-1.713,8.82-2.332,13.264c-2.032,14.585-9.451,25.651-21.515,33.883c-6.181,4.218-12.073,8.866-18.664,12.464
			c-17.36,9.479-34.727,9.179-51.746-0.634c-6.606-3.81-12.667-8.568-18.963-12.915c-10.799-7.457-17.274-17.56-19.794-30.549
			c-3.267-16.837-4.907-33.886-7.545-51.047c4.573,5.037,10.48,6.027,16.572,6.408c11.313,0.707,22.631,1.178,33.917-0.396
			c10.209-1.424,13.182-4.605,13.767-14.685c0.135-2.327,0.217-4.66,0.234-6.991c0.046-6.178,0.878-7.074,7.064-7.422
			c8.106-0.455,9.409,0.783,9.361,8.906c-0.008,1.333-0.033,2.666-0.051,3.998c-0.616,5.32,0.049,10.809,2.134,17.594
			c0.217,0.631,0.369-0.624-0.056-0.11C208.115,259.345,208.189,254.309,209.017,252.02z"/>
		<path fill-rule="evenodd" clip-rule="evenodd" fill="#FECB98" d="M270.752,219.594c-13.487-4.354-27.16-2.728-40.701-1.981
			c-7.172,0.396-14.78-0.031-21.105,4.666c-0.843,0.626-1.561,0.079-2.306-0.193c-5.203-1.902-10.4-1.965-15.605,0.003
			c-0.734,0.277-1.458,0.982-2.305,0.374c-6.502-4.674-14.229-4.165-21.588-4.903c-10.118-1.014-20.298-0.861-30.446-0.309
			c-3.946,0.215-7.9,0.923-11.235,4.197c-0.775-6.88-0.384-12.924,2.331-18.886c2.798-6.146,3.083-12.878,3.206-19.552
			c0.095-5.171,0.38-10.307,1.97-15.293c0.734-2.303,2.071-3.167,4.477-2.637c8.124,1.793,15.853,0.161,23.217-3.231
			c2.278-1.05,3.768-0.693,5.879,0.358c17.501,8.72,35.75,10.737,54.69,5.558c0.432-0.118,0.779-0.546,2.272-1.637
			c-9.994,1.809-18.696,2.436-27.498,1.264c5.401-2.027,11.177-2.028,16.781-2.88c11.747-1.783,23.517-2.494,35.211,0.451
			c2.41,0.606,4.843,1.236,7.136,2.174c6.116,2.502,10.517,5.645,10.262,13.757c-0.264,8.37,0.844,16.909,4.322,24.894
			C271.618,210.155,271,214.909,270.752,219.594z"/>
		<path fill-rule="evenodd" clip-rule="evenodd" fill="#653522" d="M214.857,106.181c1.258-0.09,2.585-0.561,3.964,0.979
			c-1.806,0.83-3.468,1.594-5.712,2.626c4.453,2.079,9.233,0.675,12.989,3.129c-2.983,2.411-6.746,0.924-9.406,1.976
			c9.33,0.298,18.601,2.931,27.286,7.694c-1.498-0.999-3.203-1.624-4.734-2.562c-0.674-0.412-1.593-0.842-1.118-1.854
			c0.42-0.894,1.366-0.898,2.167-0.628c4.394,1.481,8.772,3.006,12.764,5.435l-0.059-0.037c0.522,0.675,1.466,0.514,2.064,1.037
			L255,123.935c0.918,0.838,2.037,1.374,3.066,2.047l-0.068-0.053c0.32,0.378,0.668,0.405,1.043,0.082
			c0.316,0.271,0.633,0.543,0.949,0.814c0.181,0.36,0.468,0.499,0.862,0.417c3.448,2.02,6.442,4.604,9.241,7.43
			c1.239,1.252,1.116,1.259,1.221,4.368c0.027,0.809,1.034,1.608,1.645,2.369c6.412,7.986,11.395,16.842,13.8,26.752
			c2.197,9.053,0.424,18.389-0.44,27.501c-0.383,4.041-1.161,8.136-1.397,12.254c-2.086-1.222-3.572-1.743-4.503,1.536
			c-0.709,2.499-1.785,4.945-2.496,7.488c-0.498,1.782-1.126,4.024-3.147,4.009c-2.519-0.021-0.454-2.859-1.657-3.96
			c1.314-9.28-4.17-17.326-4.772-26.287c-0.288-4.273-0.521-8.5-0.228-12.889c2.379,0.418,2.143,3.23,4.965,3.734
			c-1.928-6.874-6.254-11.251-11.898-14.254c-13.834-7.362-28.8-7.08-43.824-5.845c-4.786,0.394-9.549,1.074-14.321,1.624
			c-5.173,0.917-10.232,0.269-15.178-1.285c-1.677-0.527-4.126-1.173-3.61-3.368c0.468-1.992,2.79-1.046,4.36-0.993
			c7.955,0.269,15.93,0.896,23.724-1.272c-8.604,2.351-17.058,0.801-25.336-1.556c-3.932-1.12-4.247-3.53-1.098-6.752
			c7.729-7.908,17.157-12.952,25.227-15.265c-7.084,1.186-16.789,2.741-25.355,8.035c-6.078,3.755-11.462,8.553-17.928,11.737
			c-6.879,3.388-13.678,6.928-21.628,6.969c-3.213,0.017-6.062-0.384-6.574-4.426c-0.146-1.152-0.562-2.101-2.137-2.279
			c-5.296-0.599-5.347-0.777-3.833-6.689c0.387-0.886,0.858-1.732,1.282-2.6c0.176-0.434,0.378-0.856,0.577-1.279
			c2.596-6.125,6.688-11.24,11.007-16.127c-1.921,1.525-2.88,3.973-4.93,5.454c-1.313,0.129-2.645,0.443-3.885-0.327
			c4.619-7.706,12.084-11.882,19.739-15.757c5.58-2.824,11.359-5.179,17.594-6.19c1.094,0.926,2.671-0.168,4.008,1.135
			c-1.665,3.966-6.641,2.76-8.477,5.204c10.266-5.322,21.853-7.809,33.897-8.405C207.955,106.864,211.456,107.176,214.857,106.181z"
			/>
		<path fill-rule="evenodd" clip-rule="evenodd" fill="#461704" d="M137.722,131.05c1.104-0.112,2.192-1.812,3.313-0.03
			c-0.636,4.452-4.49,7.542-5.083,12.012l0.055-0.089c-0.504,0.498-0.506,1.222-0.809,1.811c-0.62,2.384-1.767,4.705-0.886,7.271
			c5.539-2.178,5.671-2.199,6.652,3.597c0.406,2.398,1.854,2.312,3.561,2.415c8.363,0.506,15.424-3.28,22.604-6.735
			c8.403-4.044,14.949-10.974,23.566-14.775c7.899-3.486,16.192-4.573,24.587-5.464c1.016-0.108,2.339-0.513,3.448,1.448
			c-9.76,0.605-17.477,5.514-25.201,10.44c-2.553,1.628-4.565,3.837-6.833,5.771c-3.42,2.916-1.902,4.524,1.384,5.081
			c7.953,1.349,15.892,3.486,24.079,1.393c1.219-0.312,2.587-0.044,5.365-0.044c-11.505,5.104-22.136,4.042-34.042,3.254
			c6.922,3.521,13.114,4.598,19.555,4.67c-11.133,2.395-22.166,2.457-32.969-1.614c-3.154-1.188-5.005-2.855-1.314-5.772
			c0.856-0.677,1.884-1.399,1.956-3.595c-11.844,9.375-24.343,14.404-38.989,8.759c1.04,5.067-2.706,9.259-2.807,14.166
			c-1.013,0.625-2.304-2.64-3.147,0.243c-2.508,3.297-1.322,8.352-5.237,10.963c-3.261-2.551-1.072-5.724-1.008-8.653
			c0.285-4.969,2.253-9.323,5.003-13.389c-1.094,1.627-1.094,1.627-3.414,3.049c-0.813-0.614-0.522-1.512-0.604-2.252
			c0.25-0.221,0.185-0.456,0.002-0.331c-0.549,0.373,0.074-0.303,0.037,0.363c-0.037,0.665-0.031-0.28-0.098,0.427
			c-0.167,2,0.174,4.028-0.75,5.878c-0.452,0.903-1.083,1.76-2.229,1.596c-1.21-0.174-1.447-1.301-1.535-2.246
			c-0.34-3.647,1.329-6.702,3.05-9.725l-0.045,0.074c0.52-5.603,4.156-9.272,7.962-12.838c0.8,0.722,1.6,1.443,2.665,2.404
			C130.843,143.238,132.292,136.281,137.722,131.05z"/>
		<path fill-rule="evenodd" clip-rule="evenodd" fill="#633421" d="M120.852,176.777c0.574,3.055-2.486,6.143,0.083,9.18
			c2.689-3.503,2.437-8.027,4.126-11.878c0.445-1.088,1.146-2.604,2.209-2.215c0.823,0.301,1.117,2.048,1.646,3.152
			c-0.199,10.448-0.359,20.882-4.899,30.661c-1.89,4.07-0.784,8.528-1.143,12.802c-0.147,1.749,0.994,4.321-2.337,4.454
			c-2.974,0.118-2.889-2.417-3.241-4.157c-0.516-2.546-0.728-5.115-2.475-7.355c-1.711,1.518-0.161,3.754-2.42,5.725
			c-0.546-6.29-0.192-12.02-1.447-17.55c-2.864-12.618,0.523-24.263,5.623-35.624c0.534-1.189,1.019-2.491,2.41-3.032
			c-0.591,3.729-3.174,7.211-1.347,11.715c2.248-2.718,0.928-6.47,3.368-8.648l-0.012-0.01c0.001,0.998,0.003,1.997,0.005,2.996
			C122.573,170.278,119.312,173.491,120.852,176.777z"/>
		<path fill-rule="evenodd" clip-rule="evenodd" fill="#FDCB98" d="M201.025,369.246c-11.427-0.076-19.512-1.399-26.215-7.182
			c-2.569-2.217-4.497-4.853-5.285-8.235c-0.267-1.144-0.81-2.449,0.023-3.331c1.085-1.147,2.192,0.186,3.051,0.687
			c10.383,6.061,21.648,6.675,33.276,5.941c6.853-0.433,12.842-3.011,18.82-5.943c0.743-0.365,1.655-1.616,2.543-0.477
			c0.41,0.526,0.325,1.586,0.197,2.36c-0.958,5.77-4.817,9.313-9.616,11.944C211.688,368.372,204.977,369.326,201.025,369.246z"/>
		<path fill-rule="evenodd" clip-rule="evenodd" fill="#060504" d="M209.895,248.012c-1.51-1.494-0.7-3.382-0.863-5.104
			c1.071-3.86,0.21-7.801,0.48-11.695c0.134-1.927-0.384-3.976,1.096-5.641c4.981-5.055,11.692-4.281,17.823-4.943
			c9.763-1.054,19.611-0.633,29.428-0.623c2.532,0.002,4.926,0.741,7.362,1.244c1.253,0.694,2.614,1.351,1.198,3.083
			c-4.267,0.929-8.4-1.537-12.679-0.825c0,0.458-0.065,0.662,0.009,0.771c6.102,8.97,6.47,11.206-3.219,20.29
			c-10.896,10.215-28.076,8.859-38.182-4.158c-0.142-0.336-0.44-0.442-0.428-0.404c0.354,1.074,0.555,2.189,0.894,3.267
			c0.267,1.103,0.34,2.213,0.066,3.33C212.587,248.552,210.944,247.652,209.895,248.012z"/>
		<path fill-rule="evenodd" clip-rule="evenodd" fill="#DC8D6A" d="M274.62,267.841c1.321-9.943,0.302-20.146,3.303-29.902
			c1.064-1.373,2.16-1.47,2.993,0.138c0.969,1.867,1.889,3.782,2.053,5.939c0.224,2.252-0.239,4.457-0.482,6.675
			c-0.209,0.629,0.172-0.134-0.063,0.49c-0.114,0.303-0.271,0.582-0.449,0.848c0.229-0.163,0.235-0.479,0.451-0.655
			c0.317-3.531,1.444-7.082-0.279-10.563c-0.321-1.43-1.052-2.707-1.466-4.097c-1.14-3.822,0.084-5.691,4.678-7.172
			c3.52,2.086,3.942,5.662,3.85,9.112c-0.26,9.681-3.559,18.492-8.658,26.612C279.322,267.219,277.754,269.681,274.62,267.841z"/>
		<path fill-rule="evenodd" clip-rule="evenodd" fill="#DC8D6A" d="M117.918,238.051c4.335,4.015,2.728,9.391,3.291,14.278
			c0.523,4.549,1.134,9.087,1.706,13.631c-3.307,2.15-4.833-1.161-7.075-2.296c-5.563-7.933-8.217-16.797-8.095-26.436
			c0.04-3.133,0.887-6.194,3.479-8.397c2.648,0.69,4.056,2.605,4.959,5.02c0.098,5.354-3.72,10.055-2.166,15.119
			c0.041-1.557-0.311-3.668,0.09-5.648C114.556,241.104,114.386,238.15,117.918,238.051z"/>
		<path fill-rule="evenodd" clip-rule="evenodd" fill="#FAC896" d="M274.62,267.841c1.286,0.368,2.214-0.302,3.107-1.072
			c4.645-4.005,12.803-25.45,9.355-33.092c-0.607-1.347-0.878-2.833-2.254-3.685c-0.219-0.551,0.087-1.72-1.229-0.905
			c-0.783,0.483-1.697,0.734-2.483-0.121c0.903-2.146-2.227-5.588,1.989-6.621c3.24-0.795,6.915,2.18,7.765,6.893
			c2.305,12.778-0.135,24.839-7.125,35.705c-2.757,4.284-5.065,9.355-10.756,11.875C272.933,273.339,272.861,270.442,274.62,267.841
			z"/>
		<path fill-rule="evenodd" clip-rule="evenodd" fill="#FBC997" d="M111.224,228.831c-5.106,12.442-0.306,23.36,5.261,34.16
			c1.821,2.133,4.154,3.598,6.525,5.014c1.479,2.702,1.098,5.683,1.612,8.627c-2.112-0.069-3.484-0.949-4.619-2.213
			c-10.229-11.395-15.287-24.729-14.892-40.063c0.073-2.84,0.715-5.622,2.04-8.161c1.33-2.549,3.585-4.502,6.383-3.785
			c2.895,0.741,1.073,3.633,1.315,5.583c-0.368,0.3-0.767,0.364-1.2,0.153c-0.257,0.059-0.444-0.029-0.563-0.265
			c-0.443-0.266-0.833-0.623-1.339-0.781c-0.544,0.186-1.089,0.372-1.634,0.558c0.168,0.574,0.426,1.065,1.092,1.178
			L111.224,228.831z"/>
		<path fill-rule="evenodd" clip-rule="evenodd" fill="#323131" d="M211.009,226.006c-1.423,3.824-0.926,7.814-1.071,11.757
			c-0.064,1.734,0.726,3.672-0.906,5.146c0-3.665-0.206-7.344,0.06-10.987c0.244-3.365-1.295-4.911-4.322-5.527
			c-3.632-0.738-7.304-0.721-10.916-0.148c-4.021,0.637-6.713,2.489-5.957,7.348c0.405,2.603,0.082,5.318,0.084,7.982
			c0.008,8.64-1.802,11.487-10.425,12.953c-14.008,2.381-28.12,1.957-42.087-0.651c-4.087-0.764-7.567-2.846-7.518-7.904
			c1.424-0.442,2.079,0.674,2.855,1.459c3.67,3.712,7.96,5.067,13.045,3.503c2.337-0.059,4.987-1.142,6.376,1.913
			c-0.759,0.877-1.824,0.521-2.765,0.724c7.127-1.266,14.257-1.495,21-0.084c-0.272,0.039-0.907-0.059-1.52-0.369
			c0.737-3.526,3.507-1.988,5.559-2.249c1.433-0.053,2.686,1.531,4.233,0.453c0.466-0.729,1.135-0.965,1.956-0.828
			c0.649,0.396,1.334,0.874,1.21-0.539c0.856-1.15,2.157-1.486,3.404-1.928c0.807-0.327,1.59-0.813,1.744-1.664
			c1.104-6.101,0.955-12.255,0.148-18.348c-0.349-2.634-2.969-3.161-5.244-3.961c-3.281-1.153-7.105,0.372-10.04-2.185
			c-0.399-1.744,1.346-1.081,1.932-1.722c5.544,0.511,11.258,0.356,15.829,4.449c0.516,0.462,1.576,0.316,2.383,0.453
			c4.2-1.03,8.455-1.684,12.776-1.895c2.438,0.287,4.49,2.14,7.095,1.748C210.539,225.024,210.89,225.401,211.009,226.006z"/>
		<path fill-rule="evenodd" clip-rule="evenodd" fill="#8C6A5D" d="M253.057,122.977c-4.618-1.696-9.237-3.393-13.855-5.089
			c-0.119,0.218-0.237,0.437-0.356,0.655c2.894,1.832,5.786,3.665,8.679,5.497c-11.486-4.732-23.21-8.102-35.77-8.31
			c0.025-0.41,0.05-0.82,0.074-1.23c2.271-0.395,4.53-0.903,6.817-1.152c2.471-0.271,4.967-0.298,7.453-0.432
			C235.826,114.283,244.971,117.211,253.057,122.977z"/>
		<path fill-rule="evenodd" clip-rule="evenodd" fill="#333332" d="M209.895,248.012c-0.28-2.346,2.074,0.108,2.322-1.274
			c5.329,2.293,10.722,4.279,16.662,4.25c1.098-0.006,2.368,0.427,2.261,2.05c-0.503,0.413-1.146,0.356-1.741,0.477
			c0.338,0.19,0.698,0.012,0.994-0.051c6.994-1.487,13.96-1.042,20.92,0.19c0.014,0.05,0.04,0.002,0.08-0.098
			c-0.851-0.285-1.878,0.151-2.606-0.647c1.003-2.778,3.292-2.031,5.332-1.973c2.971,1.133,5.795,0.541,8.553-0.768
			c4.023-1.623,4.023-1.623,5.385-0.12c-0.673,0.656-1.346,1.313-2.02,1.969c-0.34,0.306-0.688,0.603-1.042,0.892
			c-11.957,3.459-24.148,3.593-36.407,2.466c-3.778-0.347-7.666-0.126-11.289-1.487
			C214.236,252.736,210.815,251.913,209.895,248.012z"/>
		<path fill-rule="evenodd" clip-rule="evenodd" fill="#8D6D60" d="M214.857,106.181c-4.746,3.353-10.346,1.548-15.502,2.355
			c-11.203,1.757-22.017,4.489-32.759,8.622c1.763-1.144,3.468-2.394,5.306-3.402c2.022-1.109,4.167-1.997,6.318-3.009
			c-0.678-1.399-2.654-0.125-3.166-1.645C188.15,105.79,201.46,105.386,214.857,106.181z"/>
		<path fill-rule="evenodd" clip-rule="evenodd" fill="#414141" d="M211.009,226.006c-0.36-0.366-0.722-0.733-1.082-1.101
			c3.987-4.836,9.903-4.199,15.101-4.76c9.859-1.064,19.801-1.459,29.75-1.205c4.506,0.115,8.861,0.837,13.155,2.11
			c0.091,1.776-0.97,1.479-2.053,1.14c-12.97-2.432-26.011-1.25-39.016-0.567C221.353,221.912,215.499,221.7,211.009,226.006z"/>
		<path fill-rule="evenodd" clip-rule="evenodd" fill="#461705" d="M273.117,216.989c0.498,1.122,0.996,2.243,1.603,3.608
			c3.289-3.665,2.857-8.565,5.03-12.412c0.862-1.528,0.795-4.217,2.647-4.396c2.468-0.237,0.798,3.218,2.524,4.127
			c0.302,2.663-0.1,5.233-0.85,7.798c-0.346,1.186-0.531,2.489-2.105,1.927c-1.186-0.424-0.839-1.592-0.486-2.548
			c0.401-1.088,0.825-2.171-0.036-3.51c-2.439,1.982-1.96,5.042-2.979,7.46c-0.685,1.622-0.042,4.296-3.216,3.971
			c-3.239-0.332-1.971-2.811-2.233-4.549C272.943,217.99,273.077,217.482,273.117,216.989z"/>
		<path fill-rule="evenodd" clip-rule="evenodd" fill="#161311" d="M142.977,252.146c-5.72,1.792-10.06,0.01-15.027-6.173
			c-1.833-2.179-0.646-4.731-0.883-7.107c0.955-2.547,0.39-5.189,0.416-7.78c0.087-8.698,1.263-9.998,10.16-10.702
			c0.838,0.322,1.384,0.911,1.616,1.78c-0.202,1.153-1.072,1.754-2.063,1.858c-4.974,0.521-6.159,3.612-5.857,8.029
			c0.203,2.973-0.004,5.972,0.05,8.957c0.103,5.697,1.212,7.101,6.763,8.854C139.858,250.401,141.8,250.477,142.977,252.146z"/>
		<path fill-rule="evenodd" clip-rule="evenodd" fill="#3B3B3B" d="M138.09,221.127c-8.605,0.141-10.811,3.563-10.243,10.168
			c0.213,2.471,0.902,5.207-0.781,7.573c-0.008-4.152,0.101-8.307-0.063-12.451c-0.125-3.155,1.234-5.327,4.144-5.946
			c10.605-2.258,21.298-2.154,31.997-0.604c-1.507,1.826-3.866,1.451-5.774,2.253C150.913,222.386,144.416,223.407,138.09,221.127z"
			/>
		<path fill-rule="evenodd" clip-rule="evenodd" fill="#282726" d="M265.88,222.19c0.801-0.17,1.666-0.225,2.053-1.14
			c1.641,0.646,2.113,1.957,2.105,3.591c-0.032,6.989-0.027,13.979-0.076,20.97c-0.012,1.715-0.582,3.254-1.906,4.437
			c-2.007-1.212-3.287,1.431-5.152,0.973c-0.413,0.36-0.787,0.323-1.123-0.108c0.556-2.645,3.248-3.094,4.807-4.707
			c1.892-2.499,0.857-5.391,1.078-8.099c0.303-3.737-0.491-7.532,0.574-11.238c0.184-0.637,0.178-1.017,0.049-0.363
			c-0.006,0.031-0.308,0.004-0.497,0.006c-1.234-0.397-2.207-0.964-1.783-2.508C267.113,223.317,266.145,222.779,265.88,222.19z"/>
		<path fill-rule="evenodd" clip-rule="evenodd" fill="#7C3326" d="M281.116,228.966c2.03,0.087,3.143-2.99,5.552-1.64
			c0.052,1.374-1.469,1.62-1.838,2.666c-6.094,2.758-2.556,7.074-1.772,10.945c0.242,1.19,1.429,2.692-0.991,3.004
			c-1.335-2.032,0.195-6.043-4.144-6.003C279.024,234.961,277.925,231.199,281.116,228.966z"/>
		<path fill-rule="evenodd" clip-rule="evenodd" fill="#643624" d="M126.901,148.176c0.595,2.357-1.724,2.824-2.657,4.2
			c-1.894,2.794-3.55,5.749-5.305,8.638c-0.117-2.938-1.753-1.289-2.947-0.976c-1.322-2.805,1.563-3.844,2.449-5.71
			c0.761-1.604,2.645-2.31,3.539-3.869C123.346,149.105,124.842,148.033,126.901,148.176z"/>
		<path fill-rule="evenodd" clip-rule="evenodd" fill="#894030" d="M117.918,238.051c-4.683,3.38-2.25,8.622-3.391,13.657
			c-3.396-6.816-0.419-12.293,1.655-17.857C116.761,235.251,117.34,236.65,117.918,238.051z"/>
		<path fill-rule="evenodd" clip-rule="evenodd" fill="#431604" d="M122.996,239.755c-3.164-1.902-3.923-4.124-3.979-6.679
			c-0.029-1.314-0.084-2.777,1.806-2.9c1.817-0.119,2.166,1.103,2.171,2.559C123.001,234.856,122.996,236.979,122.996,239.755z"/>
		<path fill-rule="evenodd" clip-rule="evenodd" fill="#763024" d="M209.017,252.02c0,2.313,0,4.625,0,7.082
			c-3.025-4.07-3.785-10.726-2.172-18.218C207.096,244.688,207.268,248.508,209.017,252.02z"/>
		<path fill-rule="evenodd" clip-rule="evenodd" fill="#401504" d="M273.083,238.521c0-2.523-0.069-4.673,0.026-6.814
			c0.055-1.235,1.021-1.639,2.121-1.552c1.367,0.107,1.578,0.968,1.16,2.101C275.641,234.292,276.668,237.109,273.083,238.521z"/>
		<path fill-rule="evenodd" clip-rule="evenodd" fill="#78594D" d="M121.98,150.459c-1.138,3.729-5.146,5.664-5.988,9.578
			c-0.798,0.922-1.252,2.258-3.09,2.403C114.336,157.052,117.499,153.269,121.98,150.459z"/>
		<path fill-rule="evenodd" clip-rule="evenodd" fill="#3C3C3C" d="M124.17,226.602c-2.093,1.882-4.304,1.569-7.4,0.552
			C119.609,225.24,121.914,226.021,124.17,226.602z"/>
		<path fill-rule="evenodd" clip-rule="evenodd" fill="#535353" d="M202.831,223.157c-4.237,0.777-8.391,2.122-12.776,1.895
			C194.072,222.793,198.404,222.655,202.831,223.157z"/>
		<path fill-rule="evenodd" clip-rule="evenodd" fill="#5A5A5A" d="M158.079,220.838c1.474-1.441,3.416-0.438,5.064-0.971
			c2.901,0.094,5.801,0.188,8.7,0.282c-0.639,0.33-1.277,0.66-1.915,0.99C165.93,222.942,161.969,223.314,158.079,220.838z"/>
		<path fill-rule="evenodd" clip-rule="evenodd" fill="#3B3B3B" d="M273.455,227.139c1.634-1.702,3.304-1.252,5.997-0.703
			C276.929,228.543,275.177,227.843,273.455,227.139z"/>
		<path fill-rule="evenodd" clip-rule="evenodd" fill="#9B553F" d="M123.01,268.005c-3.402-0.073-4.963-2.542-6.523-5.014
			c2.455,0.31,3.481,3.721,6.429,2.969C122.946,266.642,122.978,267.323,123.01,268.005z"/>
		<path fill-rule="evenodd" clip-rule="evenodd" fill="#8C6A5D" d="M258.066,125.981c-1.436-0.063-2.536-0.627-3.066-2.047
			C256.408,124.038,257.497,124.62,258.066,125.981z"/>
		<path fill-rule="evenodd" clip-rule="evenodd" fill="#8C6A5D" d="M255.063,123.977c-0.88,0.035-1.686-0.077-2.064-1.037
			C253.917,122.825,254.718,122.946,255.063,123.977z"/>
		<path fill-rule="evenodd" clip-rule="evenodd" fill="#DC8D6A" d="M113.649,228.146c0.4-0.052,0.8-0.103,1.201-0.154
			c-0.145,0.366-0.29,0.732-0.435,1.099C114.159,228.776,113.904,228.461,113.649,228.146z"/>
		<path fill-rule="evenodd" clip-rule="evenodd" fill="#DC8D6A" d="M111.747,227.101c0.671-0.125,1.118,0.133,1.338,0.781
			C112.64,227.621,112.193,227.361,111.747,227.101z"/>
		<path fill-rule="evenodd" clip-rule="evenodd" fill="#282726" d="M264.994,252.908c0.348-0.298,0.694-0.595,1.042-0.892
			C265.689,252.313,265.342,252.61,264.994,252.908z"/>
		<path fill-rule="evenodd" clip-rule="evenodd" fill="#8C6A5D" d="M259.041,126.011c-0.414,0.822-0.748,0.621-1.043-0.082
			C258.346,125.956,258.693,125.983,259.041,126.011z"/>
		<path fill-rule="evenodd" clip-rule="evenodd" fill="#DC8D6A" d="M111.205,228.836c-0.722-0.06-1.07-0.466-1.092-1.176
			C110.747,227.801,111.16,228.147,111.205,228.836z"/>
		<path fill-rule="evenodd" clip-rule="evenodd" fill="#8C6A5D" d="M260.853,127.242c-0.613,0.537-0.706-0.005-0.862-0.416
			C260.282,126.954,260.57,127.094,260.853,127.242z"/>
		<path fill-rule="evenodd" clip-rule="evenodd" fill="#020202" d="M198.26,330.262c-10.677,0.341-18.975-3.965-24.131-13.958
			c-2.969-5.756-6.201-11.379-9.383-17.022c-0.704-1.248-0.912-3.091-2.632-3.389c-1.516-0.264-2.932-0.595-1.991-2.353
			c0.854-1.596,2.387-2.803,4.514-1.973c20.999,8.19,42.347,6.393,63.769,2.207c0.945-0.185,2.057-0.566,2.663-1.241
			c2.166-2.408,4.089-1.117,5.424,0.576c1.866,2.366-0.911,2.287-2.008,3.214c-0.82,0.692-1.146,1.97-1.69,2.988
			c-2.978,5.568-6.051,11.088-8.912,16.715C218.589,326.433,209.908,330.692,198.26,330.262z"/>
		<path fill-rule="evenodd" clip-rule="evenodd" fill="#7C3225" d="M185.856,281.789c-6.392,0.511-7.976-1.623-5.703-7.685
			c0.909-0.198,1.412-0.005,1.016,1.054c-0.111,1.602-0.811,3.403,1.116,4.427c1.866,0.991,3.126-0.369,4.368-1.416
			c1.772-1.494,3.513-1.696,5.341-0.159c0.545,0.385-0.152-0.08,0.394,0.303c6.215,4.353,6.215,4.353,12.54-0.367
			c1.676-1.466,3.229-1.196,4.91,0.121c1.367,1.072,2.819,2.84,4.78,1.295c1.815-1.429,0.815-3.303,0.31-5.053
			c-0.256-0.886-1.247-1.686-0.337-2.943c2.253,2.438,3.83,5.065,2.488,8.359c-1.095,2.685-3.571,2.58-5.984,2.165
			c-3.492-2.58-5.747,0.261-8.278,1.889c-2.88,2.047-5.789,2.252-8.736,0.14C191.604,282.186,189.344,279.614,185.856,281.789z"/>
		<path fill-rule="evenodd" clip-rule="evenodd" fill="#CC6A4F" d="M209.29,334.369c-6.854,3.425-13.723,3.405-20.564,0
			C195.581,334.369,202.436,334.369,209.29,334.369z"/>
		<path fill-rule="evenodd" clip-rule="evenodd" fill="#D17B5D" d="M204.928,277.945c-6.023,7.626-6.984,7.631-12.934,0.064
			C196.312,279.397,200.624,279.515,204.928,277.945z"/>
		<path fill-rule="evenodd" clip-rule="evenodd" fill="#CA8E6B" d="M185.856,281.789c3.846-3.667,3.846-3.667,8.225,2.13
			C191.374,283.075,188.382,283.33,185.856,281.789z"/>
		<path fill-rule="evenodd" clip-rule="evenodd" fill="#C98D6A" d="M202.816,283.778c4.023-5.86,4.188-5.897,8.278-1.889
			C208.335,282.52,205.576,283.148,202.816,283.778z"/>
		<path fill-rule="evenodd" clip-rule="evenodd" fill="#A56249" d="M181.169,275.158c-0.338-0.351-0.677-0.702-1.016-1.054
			c0.175-1.055,0.698-1.842,1.728-2.235l0.349,0.349C182.172,273.305,182.146,274.403,181.169,275.158z"/>
		<path fill-rule="evenodd" clip-rule="evenodd" fill="#A56249" d="M181.881,271.869c0.188-0.197,0.514-0.586,0.544-0.564
			c0.587,0.423,0.155,0.662-0.197,0.91C182.23,272.218,181.881,271.869,181.881,271.869z"/>
		<path fill-rule="evenodd" clip-rule="evenodd" fill="#5B311F" d="M257.685,212.678c-0.318-0.034-0.736,0.05-0.913-0.118
			c-10.953-10.406-23.532-10.007-36.737-5.592c-1.255,0.42-2.555,0.913-3.848,0.957c-1.316,0.045-3.005,1.905-3.922-0.164
			c-0.692-1.563-0.069-3.701,1.194-4.582c8.3-5.782,17.711-7.604,27.515-5.98c8.337,1.382,13.501,7.23,17.031,14.602
			C258.098,211.995,257.802,212.376,257.685,212.678z"/>
		<path fill-rule="evenodd" clip-rule="evenodd" fill="#5B311F" d="M139.124,213.165c0.909-7.276,10.497-15.488,17.441-16.186
			c8.512-0.855,16.586,0.423,24.189,4.384c1.019,0.531,2.195,1.12,2.792,2.019c0.888,1.334,1.882,3.065,0.896,4.618
			c-0.927,1.458-2.488,0.212-3.667-0.039c-4.876-1.034-9.694-2.341-14.567-3.394c-7.541-1.629-14.544-0.45-20.824,4.264
			C143.457,210.278,141.421,211.581,139.124,213.165z"/>
		<path fill-rule="evenodd" clip-rule="evenodd" fill="#E49973" d="M240.271,214.734c-6.098,0.533-10.854-0.225-15.546,0.593
			C229.218,212.213,233.946,212.394,240.271,214.734z"/>
		<path fill-rule="evenodd" clip-rule="evenodd" fill="#E59A74" d="M172.16,215.166c-4.706-0.739-9.452,0.207-14.929-0.456
			C162.904,212.11,167.614,212.619,172.16,215.166z"/>
		<path fill-rule="evenodd" clip-rule="evenodd" fill="#471805" d="M159.127,138.083c-1.257-2.224,1.018-2.367,1.967-3.083
			c6.192-4.665,12.647-8.89,18.181-14.508c4.926-5.003,11.691-7.178,18.747-8.126c-5.54,3.001-11.245,5.725-16.268,11.792
			c18.087-3.604,34.733-3.164,50.315,5.378c-6.037-1.307-11.922-3.492-18.238-3.438c-6.845,0.915-13.782,0.526-20.625,1.679
			c-10.152,1.709-19.916,4.633-29.403,8.57c-0.888,0.368-1.749,0.997-2.815,0.646c-0.32,0.26-0.641,0.52-0.962,0.779
			C159.823,138.16,159.52,138.251,159.127,138.083z"/>
		<path fill-rule="evenodd" clip-rule="evenodd" fill="#906F62" d="M160.986,136.994c16.463-9.221,34.203-12.247,52.845-10.896
			c-4.198,1.717-8.724,1.152-13.071,1.859c-7.016,1.142-13.895,2.543-21.229,7.137c6.485-1.137,11.213-3.847,16.583-3.693
			c-12.713,4.04-23.706,11.735-36.006,16.601c-2.301,0.91-4.526,2.119-7.123,1.977l0.04,0.046
			c6.838-5.049,13.677-10.099,20.832-15.382C168.962,134.108,165.542,138.459,160.986,136.994z"/>
		<path fill-rule="evenodd" clip-rule="evenodd" fill="#8E6C5F" d="M256.041,154.006c-9.375-2.063-18.762-3.381-28.263-0.093
			c3.92-3.363,8.452-4.582,13.238-5.109c0.661-1.813-3.019-0.825-1.894-2.936C245.608,146.821,251.895,148.19,256.041,154.006z"/>
		<path fill-rule="evenodd" clip-rule="evenodd" fill="#4A1A07" d="M256.041,154.006c-5.11-3.813-10.997-6.011-16.919-8.137
			c4.96-1.452,9.289,0.71,13.611,2.524c6.094,2.558,10.497,7.074,13.78,12.798c-3.438-2.087-5.75-5.738-9.729-7.035l-0.453,0.098
			l-0.354-0.3L256.041,154.006z"/>
		<path fill-rule="evenodd" clip-rule="evenodd" fill="#4A1A07" d="M202.832,146.719c8.352,1.455,16.62,3.281,25.108,3.761
			C218.866,153.988,210.78,150.7,202.832,146.719z"/>
		<path fill-rule="evenodd" clip-rule="evenodd" fill="#886557" d="M135.951,143.031c0.039-4.704,2.757-8.274,5.083-12.012
			c2.259-2.987,4.785-5.695,8.154-7.612C143.975,129.447,139.821,136.145,135.951,143.031z"/>
		<path fill-rule="evenodd" clip-rule="evenodd" fill="#896557" d="M266.235,141.418c-5.858-3.246-11.946-5.702-18.115-7.996
			C255.396,133.251,261.163,136.665,266.235,141.418z"/>
		<path fill-rule="evenodd" clip-rule="evenodd" fill="#856051" d="M172.391,118.169c-5.814,3.938-10.91,6.767-15.589,11.15
			C158.755,124.875,164.788,120.522,172.391,118.169z"/>
		<path fill-rule="evenodd" clip-rule="evenodd" fill="#886557" d="M135.198,144.753c-0.04-0.742,0.008-1.444,0.809-1.811
			C135.737,143.546,135.467,144.149,135.198,144.753z"/>
		<path fill-rule="evenodd" clip-rule="evenodd" fill="#906F62" d="M152.985,149.978c-0.353,0.254-0.705,0.509-1.057,0.763
			c-0.25-1.182,0.722-0.491,1.097-0.717L152.985,149.978z"/>
		<path fill-rule="evenodd" clip-rule="evenodd" fill="#906F62" d="M159.127,138.083c0.316-0.053,0.615-0.155,0.897-0.309
			C159.845,138.224,159.786,139.021,159.127,138.083z"/>
		<path fill-rule="evenodd" clip-rule="evenodd" fill="#8E6C5F" d="M255.979,153.954c0.266,0.083,0.535,0.15,0.808,0.201
			C256.344,154.775,256.179,154.296,255.979,153.954z"/>
		<path fill-rule="evenodd" clip-rule="evenodd" fill="#856153" d="M120.852,176.777c-2.022-3.293-0.424-6.531,0.147-9.785
			c2.143-0.811,2.235-3.691,4.913-4.553C124.235,167.41,121.164,171.646,120.852,176.777z"/>
		<path fill-rule="evenodd" clip-rule="evenodd" fill="#805B4D" d="M125.061,174.079c0.434,4.67-2.577,8.712-2.453,13.344
			c0.014,0.521-0.792,1.187-1.359,0.428c-0.34-0.455-0.224-1.251-0.313-1.894C122.127,181.934,122.778,177.724,125.061,174.079z"/>
		<path fill-rule="evenodd" clip-rule="evenodd" fill="#633421" d="M121.006,164.006c0.063-0.987,0.226-1.928,1.282-2.363
			c0.074-0.03,0.354,0.175,0.358,0.278c0.048,1.155-0.785,1.633-1.652,2.075L121.006,164.006z"/>
		<path fill-rule="evenodd" clip-rule="evenodd" fill="#FDCA98" d="M266.008,224.003c0.586,0.763,1.171,1.525,1.757,2.287
			c1.051,6.93,1.705,13.843-0.819,20.631c-1.691,1.334-3.382,2.669-5.072,4.003c-2.154,1.088-4.308,2.18-6.826,1.213
			c-2.138-0.11-4.28-0.263-6.312,0.653c-5.836,1.18-11.674,1.097-17.514,0.041c-3.711-0.523-7.425-1.022-11.131-1.578
			c-3.2-0.479-5.808-2.038-7.874-4.516c-0.137-1.241-0.272-2.481-0.408-3.722c-0.368-1.373-0.579-2.74,0.167-4.067
			c5.74,5.634,11.632,10.788,20.416,10.982c10.872,0.241,18.139-5.293,23.771-13.866c1.729-2.633-0.074-4.744-0.86-6.998
			c-0.896-2.569-3.144-4.183-5.143-6.741C255.863,221.872,260.978,222.421,266.008,224.003z"/>
		<path fill-rule="evenodd" clip-rule="evenodd" fill="#FDFDFD" d="M240.605,222.791c6.531,1.013,11.082,5.267,11.925,11.171
			c0.754,5.286-4.417,8.54-8.783,10.965c-8.404,4.668-19.905,2.75-26.831-3.873c-2.495-2.386-3.133-4.548-1.728-7.838
			c2.938-6.883,6.97-10.057,13.78-10.102c0.201,2.185-1.873,2.963-2.799,4.45c-2.541,4.085-2.048,8.361,1.465,11.12
			c3.492,2.742,7.881,2.491,10.796-0.616c2.994-3.193,3.003-7.721,0.036-11.24c-0.934-1.108-2.396-1.854-2.505-3.641
			C237.417,222.018,239.022,222.509,240.605,222.791z"/>
		<path fill-rule="evenodd" clip-rule="evenodd" fill="#72A8DD" d="M240.605,222.791c-1.134,0.133-2.268,0.266-3.779,0.443
			c2.373,2.406,5.177,4.188,5.379,7.856c0.275,4.992-2.07,8.93-6.637,10.45c-3.886,1.295-8.589-0.45-10.839-4.021
			c-2.53-4.016-2.123-8.242,1.242-11.854c0.889-0.953,1.991-1.706,2.996-2.551C232.846,222.947,236.68,221.202,240.605,222.791z"/>
		<path fill-rule="evenodd" clip-rule="evenodd" fill="#DBAF84" d="M211.739,233.157c0.428-6.312,0.428-6.312,4.246-8.369
			C214.373,227.966,213.057,230.562,211.739,233.157z"/>
		<path fill-rule="evenodd" clip-rule="evenodd" fill="#333332" d="M211.976,238.948c-0.056,1.355-0.111,2.712-0.167,4.067
			c-1.185-1.274-1.146-2.718-0.566-4.225c0.031-0.08,0.261-0.147,0.37-0.118C211.748,238.709,211.856,238.852,211.976,238.948z"/>
		<path fill-rule="evenodd" clip-rule="evenodd" fill="#9A523E" d="M282.066,243.941c1.242-0.7,0.799-1.956,0.991-3.004
			c1.779,3.887,1.345,7.559-1.075,11.036l0.044,0.045C282.04,249.326,282.053,246.634,282.066,243.941z"/>
		<path fill-rule="evenodd" clip-rule="evenodd" fill="#9A523E" d="M281.982,251.974c-0.074,0.138-0.148,0.274-0.223,0.412
			c0.089-0.122,0.178-0.245,0.267-0.367L281.982,251.974z"/>
		<path fill-rule="evenodd" clip-rule="evenodd" fill="#FDCA98" d="M142.977,252.146c-2.442-0.478-4.958-0.727-7.31-1.485
			c-3.641-1.175-5.818-3.555-5.716-7.752c0.093-3.822-0.311-7.653-0.335-11.481c-0.045-7.062,0.453-7.574,7.309-8.585
			c0.802-0.118,1.575-0.438,2.361-0.665c0.301-0.427,0.7-0.692,1.233-0.645c2.108,0.188,5.028-1.024,6.144,0.612
			c1.405,2.062-1.416,3.645-2.562,5.328c-3.205,4.711-3.135,7.388,0.478,11.655c10.069,11.895,24.492,12.731,35.9,2.122
			c1.535-1.427,3.247-4.221,5.191-3.024c1.937,1.19,0.822,4.255,0.397,6.49c-0.355,1.871-0.219,4.184-3.005,4.462
			c-1.057,0.578-2.113,1.156-3.17,1.734c-0.207,0.453-0.492,0.532-0.867,0.181c-0.872-0.147-1.644,0.021-2.252,0.709
			c-0.797,1.102-1.768,0.698-2.736,0.316c-2.457-0.05-4.906-0.035-7.288,0.7c-5.501,1.083-11.003,1.072-16.506,0.007
			C147.882,251.959,145.439,251.945,142.977,252.146z"/>
		<path fill-rule="evenodd" clip-rule="evenodd" fill="#060504" d="M183.063,249.179c3.23-2.784,2.389-6.617,2.831-10.135
			c-1.969-0.56-2.382,1.037-3.214,1.918c-11.656,12.354-28.029,12.009-39.057-0.841c-4.459-5.195-4.537-8.581-0.242-14.011
			c0.911-1.151,1.99-2.17,3.625-3.933c-3.029,0-5.375,0-7.721,0c-0.399-0.351-0.799-0.701-1.197-1.052
			c6.664-0.095,13.327-0.19,19.99-0.287c3.95,0.1,7.9,0.199,11.85,0.301c3.501,1.771,7.441,0.653,11.122,1.785
			c3.893,1.197,5.997,3.228,5.983,7.324c-0.015,4.638,0.154,9.283-0.088,13.908C186.823,246.475,187.051,249.608,183.063,249.179z"
			/>
		<path fill-rule="evenodd" clip-rule="evenodd" fill="#161311" d="M150.245,252.826c5.501-0.002,11.003-0.005,16.506-0.007
			c1.747,0.172,3.493,0.344,5.239,0.516c-0.011,0.154-0.021,0.308-0.032,0.462c-8.973,0-17.946,0-26.919,0
			c-0.01-0.16-0.021-0.32-0.031-0.48C146.753,253.153,148.499,252.99,150.245,252.826z"/>
		<path fill-rule="evenodd" clip-rule="evenodd" fill="#0B0A09" d="M174.038,252.119c0.912-0.105,1.824-0.211,2.736-0.316
			C176.08,253.786,175.069,253.042,174.038,252.119z"/>
		<path fill-rule="evenodd" clip-rule="evenodd" fill="#0B0A09" d="M179.027,251.094c0.27-0.15,0.559-0.211,0.867-0.181
			c0.171,0.226,0.342,0.45,0.512,0.676C179.722,252.05,179.32,251.724,179.027,251.094z"/>
		<path fill-rule="evenodd" clip-rule="evenodd" fill="#0E0C0A" d="M231.222,252.831c5.838-0.014,11.675-0.027,17.513-0.041
			c1.409,0.207,2.817,0.415,4.227,0.622c-0.015,0.14-0.028,0.278-0.043,0.418c-8.949,0-17.898,0-26.848,0
			c-0.012-0.146-0.024-0.291-0.036-0.437C227.764,253.206,229.492,253.019,231.222,252.831z"/>
		<path fill-rule="evenodd" clip-rule="evenodd" fill="#0E0C0A" d="M255.047,252.137c2.275-0.404,4.551-0.809,6.826-1.212
			c0.345,0.031,0.688,0.063,1.032,0.096C260.432,252.43,257.993,254.067,255.047,252.137z"/>
		<path fill-rule="evenodd" clip-rule="evenodd" fill="#040303" d="M266.945,246.921c0.969-6.85,1.31-13.724,0.819-20.63
			c0.134-0.095,0.268-0.188,0.401-0.282c1.3,7.058,1.647,14.099-0.402,21.087C267.758,247.116,267.229,246.982,266.945,246.921z"/>
		<path fill-rule="evenodd" clip-rule="evenodd" fill="#5D0505" d="M181.069,319.995c-4.688-4.896-7.836-10.699-10.056-17.051
			c1.02-0.813,2.175-0.666,3.315-0.414c16.754,3.701,33.43,3.293,50.042-0.9c1.123-0.283,2.277-0.492,3.359,0.203
			c-3.3,6.347-5.643,13.274-11.096,18.317c-6.866,3.764-14.427,3.427-21.759,2.949C190.257,322.798,185.077,323.565,181.069,319.995
			z"/>
		<path fill-rule="evenodd" clip-rule="evenodd" fill="#E5E4E4" d="M227.729,301.833c-18.802,5.657-37.704,6.213-56.716,1.111
			c-1.208-1.93-3.195-3.397-3.594-6.374c20.862,4.918,41.601,4.92,62.278,0.059C230.341,299.196,228.006,300.075,227.729,301.833z"
			/>
		<path fill-rule="evenodd" clip-rule="evenodd" fill="#F6F6F6" d="M181.069,319.995c11.843,2.756,23.7,2.436,35.565,0.155
			c-3.771,8.151-23.002,8.781-30.851,4.384c-1.001-0.562-1.983-1.159-2.973-1.74c-0.222-0.183-0.402-0.398-0.54-0.65
			c0.01-0.292-0.131-0.435-0.424-0.428c-0.319-0.133-0.5-0.37-0.543-0.713C181.225,320.667,181.147,320.331,181.069,319.995z"/>
		<path fill-rule="evenodd" clip-rule="evenodd" fill="#5D0505" d="M181.303,321.003c0.661-0.125,0.688,0.233,0.546,0.716
			C181.665,321.479,181.484,321.24,181.303,321.003z"/>
		<path fill-rule="evenodd" clip-rule="evenodd" fill="#5D0505" d="M182.27,322.144c0.182,0.219,0.363,0.438,0.542,0.653
			C182.63,322.577,182.45,322.36,182.27,322.144z"/>
		<path fill-rule="evenodd" clip-rule="evenodd" fill="#030406" d="M234.02,227.899c3.435,0.791,3.783,3.277,3.01,6.027
			c-0.658,2.339-2.597,3.465-4.938,2.963c-3.611-0.774-4.393-3.452-3.858-6.746c1.129-0.717,2.461-0.207,3.63-0.621
			c0.502-0.229,0.938-0.553,1.305-0.97C233.4,228.27,233.688,228.055,234.02,227.899z"/>
		<path fill-rule="evenodd" clip-rule="evenodd" fill="#F7F7F8" d="M233.222,229.75c-1.507,2.122-3.25,1.261-4.991,0.395
			c-0.365-1.951-0.159-3.763,1.938-4.547c2.076-0.776,2.871,1.014,3.851,2.303c-0.132,0.44-0.263,0.882-0.394,1.323
			C233.491,229.399,233.356,229.574,233.222,229.75z"/>
		<path fill-rule="evenodd" clip-rule="evenodd" fill="#FDFDFD" d="M167.917,223.075c6.956-1.217,12.965,5.653,14.809,13.385
			c0.284,1.191-0.474,1.85-1.04,2.629c-7.702,10.605-25.933,11.188-34.551,1.107c-3.953-4.624-4.038-6.852-0.225-11.672
			c2.427-3.066,5.379-5.385,9.477-5.758c1.134-0.353,2.645-0.704,3.299,0.121c1.131,1.426-0.659,2.256-1.361,3.237
			c-3.383,4.736-3.472,8.155-0.233,11.616c3.191,3.409,7.141,3.823,10.628,1.115c3.815-2.964,4.579-6.954,2.33-10.943
			C170.1,226.225,167.862,225.388,167.917,223.075z"/>
		<path fill-rule="evenodd" clip-rule="evenodd" fill="#72A9DF" d="M167.917,223.075c5.712,4.672,7.165,8.384,4.833,13.104
			c-1.734,3.509-4.601,5.703-8.649,5.773c-3.845,0.065-6.659-1.95-8.548-5.136c-2.107-3.552-1.308-7.053,0.83-10.298
			c0.777-1.18,1.898-2.133,2.902-3.232c-0.991-0.176-1.951-0.347-2.904-0.519C160.275,221.234,164.079,222.81,167.917,223.075z"/>
		<path fill-rule="evenodd" clip-rule="evenodd" fill="#D1A77D" d="M180.743,224.602c5.996,1.526,5.003,5.622,4.662,9.42
			C183.979,231.139,182.551,228.256,180.743,224.602z"/>
		<polygon fill-rule="evenodd" clip-rule="evenodd" fill="#72A8DD" points="233.222,229.75 233.229,229.32 233.627,229.22 
			233.651,229.637 		"/>
		<path fill-rule="evenodd" clip-rule="evenodd" fill="#06090B" d="M165.091,227.908c3.337,0.673,4.137,2.913,3.296,5.822
			c-0.665,2.303-2.461,3.524-4.88,3.223c-2.625-0.328-3.936-2.112-4.262-4.658c-0.138-1.075,0.648-1.359,1.466-1.583
			C162.105,229.676,163.558,228.729,165.091,227.908z"/>
		<path fill-rule="evenodd" clip-rule="evenodd" fill="#F1F4F8" d="M165.091,227.908c-0.292,2.752-1.832,3.56-4.377,2.805
			c-0.999-1.501-2.481-3.054-0.278-4.646C162.82,224.344,164.007,226.1,165.091,227.908z"/>
	</g>
</g>
</svg>
