<?xml version="1.0" encoding="utf-8"?>
<!-- Generator: Adobe Illustrator 16.0.0, SVG Export Plug-In . SVG Version: 6.00 Build 0)  -->
<!DOCTYPE svg PUBLIC "-//W3C//DTD SVG 1.1//EN" "http://www.w3.org/Graphics/SVG/1.1/DTD/svg11.dtd">
<svg version="1.1" id="Layer_1" xmlns="http://www.w3.org/2000/svg" xmlns:xlink="http://www.w3.org/1999/xlink" x="0px" y="0px"
	 width="398px" height="398px" viewBox="0 0 398 398" enable-background="new 0 0 398 398" xml:space="preserve">
<path fill="#130F0D" d="M264.74,62.25c6.46,1.96,12.75,4.35,18.189,8.44c-1.01,0.21-2.01,0.43-3.02,0.65
	c6.38,4.74,11.811,10.25,15.27,17.5c2.67,4.67,1.271,8.79,2,14.17c0.461,3.73-0.68,6.77-1.92,10.17
	c-1.26,5.31-4.529,9.66-5.96,14.94c0.101,2.14,1.63,4.59,1.3,6.9c-0.689,5.08-3.22,10.17-6.43,14.13c-3.41,3.45-6.87,6.7-11.93,7.17
	c-2.631,4.5-4.29,9.05-7.91,12.82l-1.33-1.22c5.27-8.12,8.87-16.96,13.04-25.65c-3.19,0.57-6.21,0.79-9.38-0.08
	c-7.04-1.85-13.74-3.15-19.46-7.9c-0.39,0.84-0.78,1.69-1.181,2.54c-0.039-5.18,2.181-9.56,2.961-14.53
	c-2.051-0.83-5.431-2.56-7.41-0.88c-1.561,3.18-1.711,9.48-6.041,10.05c-4.659,0.72-9.959-1.32-14.42-2.57
	c-4.59-1.3-8.68-2.97-12.359-6.07c-1.189,5.97-1.811,12.09-2.62,18.13c-0.59,5.47-0.51,10.66,1.81,15.75l-1.319,1.62
	c-3.64-5.33-3.39-11.06-2.79-17.2c-0.01-1.65,0.83-4.13-0.54-5.37c-5.23-5.23-6.21-13.71-5.33-20.73c0.6-2.77,1.41-5.45,2.79-7.94
	c1.18-1.23,2.74-2.26,3.67-3.69c1.2-2.91,1.53-6.26,1.93-9.34c0.68-3.98,2.49-7.31,4.101-10.94c1.36-3.58,2.06-6.94,5.53-9.15
	c3.029-2.1,6.97-2.03,9.16-4.85c2.789-3.15,6.029-5.55,10.02-6.96C244.4,58.74,255.391,59.62,264.74,62.25z"/>
<path fill="#653522" d="M253.359,62.7c-2.17,0.55-4.27,1.29-6.319,2.17c4.56,0.25,9.069-0.02,13.61,0.69
	c1.979,0.33,3.59,0.24,5.539-0.18c1.9,0.47,3.711,1.16,5.5,1.94c-0.859,0.5-1.709,1-2.569,1.5c0.649,0.34,1.29,0.66,1.94,0.98
	c-1.391,0.09-2.771,0.19-4.16,0.32c4.74,2.42,9.25,4.87,13.76,7.69c0.51-0.54,1.02-1.07,1.54-1.61c2.95,2.26,5.46,5.04,7.489,8.15
	c1.86,2.74,2.261,6.47,3.221,9.66c1.21,4.6,2.811,9.52,1.29,14.25c-1.271,4.17-2.81,8.34-4.62,12.31c-1.189,3.65-4.7,4.62-7.46,7.51
	c0.83-6.21,0.39-12.65,1.96-18.7c1.01-0.01,2.029-0.02,3.05-0.04c-0.851-4.04-2.47-7.14-5.819-9.65
	c-8.75-6.95-19.09-6.96-29.531-9.43c-0.219-0.74-0.439-1.48-0.659-2.22c4.33,1.06,8.46,2.2,12.979,1.89
	c-2.22-1.23-4.52-1.39-6.92-2.13c-2.959-0.88-5.529-2.39-8.1-4.06c5.79-4.28,12.09-4.43,18.949-4.97
	c-5.729-2.33-12.77-2.95-18.549-0.43c-5.65,2.33-12.65,4.57-18.76,2.99c-1.761-1.12-2.58-4-4.24-5.53c1.47-3.22,3.439-6,5.359-8.96
	C237.91,62.97,246.29,61.56,253.359,62.7z"/>
<path fill="#876557" d="M253.359,62.7c4.451,0.42,8.591,1.24,12.83,2.68c-1.949,0.42-3.56,0.51-5.539,0.18
	c-4.541-0.71-9.051-0.44-13.61-0.69C249.09,63.99,251.189,63.25,253.359,62.7z"/>
<path fill="#471704" d="M231.84,66.84c-1.92,2.96-3.89,5.74-5.359,8.96c1.66,1.53,2.479,4.41,4.24,5.53
	c6.109,1.58,13.109-0.66,18.76-2.99c5.779-2.52,12.819-1.9,18.549,0.43c-6.859,0.54-13.159,0.69-18.949,4.97
	c2.57,1.67,5.141,3.18,8.1,4.06c2.4,0.74,4.7,0.9,6.92,2.13c-4.52,0.31-8.649-0.83-12.979-1.89c0.22,0.74,0.44,1.48,0.659,2.22
	c-4.67-0.85-7.809-2.32-11.479-5.3c0.86-1,1.71-2.01,2.56-3.02c-3.43,0.83-7.229,2.2-10.77,1.94c-2.75-0.48-5.41-1.75-8.01-2.74
	c-1.13,1.23-2.13,2.49-3.051,3.88c0.191,0.71,0.371,1.41,0.551,2.12c-1.26,5.15-3.051,9.98-6.63,13.99l-0.62-1.22
	c2.84-4.6,5.21-9.13,6.01-14.56c-1.189,0.41-2.369,0.83-3.561,1.25c1.57-2.23,3.191-4.42,4.881-6.55c-1.85,0.9-3.71,1.77-5.59,2.62
	l-0.36-1.7c0.7-0.93,1.42-1.85,2.181-2.74c1.6-1.32,3.319-2.44,5.06-3.54c0.59,0.16,1.18,0.33,1.76,0.5
	C226.5,71.73,228.311,68.77,231.84,66.84z"/>
<path fill="#481805" d="M261.99,67.1c-2.971,1.08-5.99,1-8.711,2.83c6.441,2.1,12.4,2.25,17.771,6.91
	c-2.69-0.75-5.319-1.74-8.021-2.45c-7.439-2.36-14.76-2.23-22.409-1.29c3.45-1.8,7.101-3.15,10.64-4.78
	C254.68,66.75,258.311,66.8,261.99,67.1z"/>
<path fill="#805B4D" d="M266.9,70.12c1.39-0.13,2.77-0.23,4.16-0.32c3.979,1.7,7.719,3.72,11.14,6.4
	c-0.521,0.54-1.03,1.07-1.54,1.61C276.15,74.99,271.641,72.54,266.9,70.12z"/>
<path fill="#896557" d="M263.029,74.39c-6.049,1.57-12.199,2.25-18.329,3.34c-3.261,0.58-6.511,1.07-9.83,1.13
	c3.45-2.16,7.2-2.78,11.01-4.39c-1.76-0.45-3.51-0.9-5.26-1.37C248.27,72.16,255.59,72.03,263.029,74.39z"/>
<path fill="#694334" d="M222.95,74.69c-1.74,1.1-3.46,2.22-5.06,3.54c-0.67-0.38-1.341-0.76-2.011-1.15
	C218.24,75.53,219.91,73.66,222.95,74.69z"/>
<path fill="#DFF3FF" d="M177,79.99c7.32,0.1,15.11-0.71,22.27,0.83c-9.43,0.18-18.85-0.02-28.28,0.4c0.88,0.36,1.77,0.73,2.65,1.09
	c-2.89,1.64-4.5,2.9-5.59,6.17c12.82,0.45,25.98,1.92,38.3,5.58c-0.399,3.08-0.729,6.43-1.93,9.34c-0.93,1.43-2.49,2.46-3.67,3.69
	c-5.84-0.47-11.49-2.01-17.33-2.57c-6.13-0.77-12.2-0.53-18.36-0.35c0.85,0.48,1.7,0.95,2.55,1.43c-0.83,0.37-1.66,0.73-2.5,1.09
	c11.14,1.71,22.13,4.92,32.85,8.34c-0.88,7.02,0.1,15.5,5.33,20.73c1.37,1.24,0.53,3.72,0.54,5.37c-0.63,0.23-1.26,0.46-1.891,0.69
	c-5.62-3.97-10.91-8.35-16.719-12.05c-5.77-3.98-12.35-7.14-17.56-11.83c1.12-0.67,1.87-1.54,3.27-1.45
	c6.11,0.37,12.08,2.62,18.19,3.3c-4.05-4.64-11.47-6.48-16.96-9.01c-8.33-4.16-19.1-4.07-28.26-5.24c3.79-1.86,7.78-2.3,11.9-2.8
	c-0.9-0.57-1.79-1.13-2.69-1.7c4.83-3.19,10.36-3.64,16.01-4.84c4.06-0.89,8.82-0.68,12.23-3.03c-2.58-1.66-5.21-3-8.33-3.21
	c-11.29-0.9-22.74-1.06-34.04-0.28c-5.77,0.32-11.32,1.9-17.07,2.23c2.62-1.69,5.52-2.53,8.45-3.47
	C145.19,83.35,161.27,79.77,177,79.99z"/>
<path fill="#653522" d="M221.66,80.05c-1.689,2.13-3.311,4.32-4.881,6.55c1.191-0.42,2.371-0.84,3.561-1.25
	c-0.8,5.43-3.17,9.96-6.01,14.56c-1.359,2.39-2.46,4.9-3.641,7.38c-1.77-2.22-0.899-6.95-1.41-9.82
	c-0.869-6.58,2.591-11.59,6.431-16.5l0.36,1.7C217.95,81.82,219.811,80.95,221.66,80.05z"/>
<path fill="#C6EEFF" d="M170.99,81.22c9.43-0.42,18.85-0.22,28.28-0.4c3.77,0.56,7.509,1.26,11.18,2.3
	c-1.61,3.63-3.421,6.96-4.101,10.94c-12.32-3.66-25.479-5.13-38.3-5.58c1.09-3.27,2.7-4.53,5.59-6.17
	C172.76,81.95,171.87,81.58,170.99,81.22z"/>
<path fill="#FFCC99" d="M224.17,83.12c2.54,0.72,5.16,1.78,7.79,1.98c2.2,0.2,4.46-0.07,6.64,0.25
	c7.25,6.33,16.601,11.34,26.5,10.58c-4.119-1.77-8.859-1.46-12.949-3.74c5.09,0.52,10.24,1.39,15.229,2.49
	c6.351,1.61,12.511,4.04,16.32,9.67c-0.7,4.7-2.091,8.89-2.011,13.69c0.061,3.02-0.069,5.73-1.459,8.48
	c-1.771-0.85-3.53-1.69-5.311-2.5c-1.49-3.36-2.57-7.06-6-8.95c-3.98-2.2-9.1-2.51-13.49-1.7c-0.47,0.8-0.92,1.61-1.359,2.42
	c4.41,0.68,9.539,0.73,13.65,2.48c2.399,1,3.659,2.96,5.279,4.86c-7.41-1.67-14.23-4.23-21.971-3.94
	c-3.279-1.32-6.829-1.89-10.02-3.26c-6.08-4.11-12.81-5.47-19.56-7.99c2.19-0.65,4.239-1.59,6.569-1.28
	c4.5,0.55,8.83,3.52,13.061,5.26c0.41-1.43,0.699-2.23-0.53-3.38c-3.28-2.91-7.94-5.35-12.42-5.22c-4.51,0.2-6.729,4.23-11.25,4.1
	c-1.33-0.16-2.659-0.34-3.979-0.53c0.47-2.04,1.109-3.89,2.05-5.76c3.579-4.01,5.37-8.84,6.63-13.99
	C222.359,85.75,223.221,84.41,224.17,83.12z"/>
<path fill="#856153" d="M281.99,93.85c-4.45-1.77-8.311-2.82-13.131-3.15c1.5-1.43,4.721-1.01,6.701-1.12
	C278.41,89.5,280.189,92.03,281.99,93.85z"/>
<path fill="#5A301E" d="M228.13,103.32c4.479-0.13,9.14,2.31,12.42,5.22c1.229,1.15,0.94,1.95,0.53,3.38
	c-4.23-1.74-8.561-4.71-13.061-5.26c-2.33-0.31-4.379,0.63-6.569,1.28c-1.53-0.14-3.05-0.32-4.57-0.52
	C221.4,107.55,223.62,103.52,228.13,103.32z"/>
<path fill="#BEEBFF" d="M165.06,104.17c6.16-0.18,12.23-0.42,18.36,0.35c5.84,0.56,11.49,2.1,17.33,2.57
	c-1.38,2.49-2.19,5.17-2.79,7.94c-10.72-3.42-21.71-6.63-32.85-8.34c0.84-0.36,1.67-0.72,2.5-1.09
	C166.76,105.12,165.91,104.65,165.06,104.17z"/>
<path fill="#EDBB8C" d="M206,106.43c2.189,1.48,0.34,2.09-0.6,3.47c-3.98,3.71-3.45,8.68-3.141,13.63c0.1,1.92,1.131,3.26,2.1,4.84
	c0.791,1.89,1.24,3.48-0.239,5.23c-4.72-6.73-5.27-15.44-2.53-23.06C202.41,108.43,203.63,106.82,206,106.43z"/>
<path fill="#DD8E6A" d="M205.4,109.9c0.459,2.7,1.26,5.35,1.64,8.06c-0.351,3.5-0.94,7.3-2.681,10.41c-0.969-1.58-2-2.92-2.1-4.84
	C201.95,118.58,201.42,113.61,205.4,109.9z"/>
<path fill="#FFCC99" d="M214.33,110.17c2.74-0.64,5.98,0.46,8.68,1.04c-1.72,1.58-4.199,2.87-5.4,4.86
	c0.371,2.06,1.181,4.29,3.381,4.95c3.529,1.15,7.109,2.02,10.56,3.43c2.341,1.05,4.341,0.3,6.71-0.05
	c-1.119,2.21-1.32,4.47-4.369,4.53c-5.101-0.06-10.311-2.09-15.141-3.63c-2.33-0.9-5.9-1.96-7.05-4.39
	C211.561,117.29,212.77,113.42,214.33,110.17z"/>
<path fill="#FFFFFF" d="M228.07,113.54c-1.09,0.67-2.35,1.37-3.2,2.36c-0.771,1.49-0.74,3.44-1,5.08c-0.94-0.31-1.86-0.68-2.75-1.1
	c-1.63-0.77-2.69-3.38-0.75-4.5C222.62,113.4,225.25,113.39,228.07,113.54z"/>
<path fill="#5A301E" d="M255.43,113.37c4.391-0.81,9.51-0.5,13.49,1.7c3.43,1.89,4.51,5.59,6,8.95c-0.641-0.3-1.279-0.59-1.92-0.89
	c-1.62-1.9-2.88-3.86-5.279-4.86c-4.111-1.75-9.24-1.8-13.65-2.48C254.51,114.98,254.96,114.17,255.43,113.37z"/>
<path fill="#7CACDC" d="M228.07,113.54c1.939,0.38,3.709,1.2,5.42,2.15c-0.18,3.01-0.641,5.01-2.391,7.47
	c-2.41-0.71-4.82-1.43-7.229-2.18c0.26-1.64,0.229-3.59,1-5.08C225.721,114.91,226.98,114.21,228.07,113.54z"/>
<path fill="#DFE5EA" d="M230.311,116.76c-1.311,0.89-2.181,0.84-3.561,0.18C226.99,114.45,229.66,114.58,230.311,116.76z"/>
<path fill="#FFFFFF" d="M233.49,115.69c2.58,2.28,3.34,3.73,3.68,7.2c-2.32,1.29-3.65,0.97-6.07,0.27
	C232.85,120.7,233.311,118.7,233.49,115.69z"/>
<path fill="#212C36" d="M226.75,116.94c1.38,0.66,2.25,0.71,3.561-0.18c0.31,1.14,1.369,2.69-0.021,3.52
	c-1.56,1.52-2.479,0.07-3.99-0.6C226.439,118.76,226.59,117.85,226.75,116.94z"/>
<path fill="#B4906C" d="M237.65,117.09c1.59-0.69,2.6,3.59,0.8,3.43C237.689,119.85,237.17,118.01,237.65,117.09z"/>
<path fill="#FFCC99" d="M241.57,121.42c1.979-1.68,5.359,0.05,7.41,0.88c-0.78,4.97-3,9.35-2.961,14.53
	c0.4-0.85,0.791-1.7,1.181-2.54c5.72,4.75,12.42,6.05,19.46,7.9c3.17,0.87,6.189,0.65,9.38,0.08c-4.17,8.69-7.771,17.53-13.04,25.65
	c-6.12,4.76-13.08,6.58-20.471,8.43c-6.789,1.74-14.309-0.04-20.159-3.71c-5.7-4.13-10.17-10.39-14.431-15.93
	c-2.319-5.09-2.399-10.28-1.81-15.75c0.81-6.04,1.431-12.16,2.62-18.13c3.68,3.1,7.77,4.77,12.359,6.07
	c4.461,1.25,9.761,3.29,14.42,2.57C239.859,130.9,240.01,124.6,241.57,121.42z"/>
<path fill="#CCA37B" d="M252.18,122.13c1.75-1.05,2.4,1.23,0.57,1.68C251.77,123.59,251.58,123.03,252.18,122.13z"/>
<path fill="#EFEFEF" d="M259.029,122.91c-2.119,2.28-2.93,4.36-3.489,7.43c-2.14-0.72-2.86-1.3-3.94-3.29
	C253.79,124.2,255.51,123.43,259.029,122.91z"/>
<path fill="#7CAAD7" d="M259.029,122.91c2.261,0.19,4.25,0.98,6.311,1.86c-0.119,2.86-0.58,5.21-1.689,7.85
	c-2.7-0.8-5.41-1.53-8.11-2.28C256.1,127.27,256.91,125.19,259.029,122.91z"/>
<path fill="#D5DBE1" d="M262.34,125.95c-1.02,0.83-2.21,1.1-3.58,0.79c0.051-0.79,0.301-1.51,0.76-2.17
	C260.609,123.43,262.141,124.73,262.34,125.95z"/>
<path fill="#FFFFFF" d="M265.34,124.77c3.1,2,4.131,3.38,4.85,7.05c-2.549,1.97-3.629,1.64-6.539,0.8
	C264.76,129.98,265.221,127.63,265.34,124.77z"/>
<path fill="#FFCC99" d="M269.33,124.98c2.689,0.98,6.891,1.74,8.57,4.19c-0.45,3.17-1.57,6.75-3.131,9.54
	c-1.039,1.75-2.979,1.37-4.72,1.32c-4.34-0.56-8.61-1.96-12.76-3.29c-2.431-0.87-5.569-1.91-7.181-4.03
	c-0.659-1.36-0.18-3.19-0.209-4.67c1.74,1.48,2.959,3.09,5.369,3.42c3.83,0.62,7.4,1.9,11.11,2.92c2.28,0.66,4.07-1.33,5.72-2.57
	C271.48,129.4,270.45,127.2,269.33,124.98z"/>
<path fill="#141C24" d="M262.34,125.95c0.61,1.88,1.24,3.77-1.43,4.16c-2.46,0.12-2.49-1.47-2.15-3.37
	C260.13,127.05,261.32,126.78,262.34,125.95z"/>
<path fill="#DF8F6B" d="M284.9,129.77c0.449,1.06,1.109,2.12,1.33,3.26c-0.17,5.91-3.181,10.84-7.061,15.1
	c-1.1,1.24-2.65,1.49-4.16,2.08c1.86-3.7,3.29-7.57,4.77-11.44c0.41-1.25,1.291-2.03,2.191-2.93c0.209,1.82,0.359,3.66,0.539,5.49
	C282.58,137.29,283.74,133.58,284.9,129.77z"/>
<path fill="#E8B88A" d="M284.9,129.77c1.42,0.39,2.879,0.72,3.199,2.39c0.73,3.23-0.67,6.95-2.08,9.84
	c-2.47,5.39-7.17,10.09-12.779,12.13c0.55-1.32,1.14-2.63,1.77-3.92c1.51-0.59,3.061-0.84,4.16-2.08
	c3.88-4.26,6.891-9.19,7.061-15.1C286.01,131.89,285.35,130.83,284.9,129.77z"/>
<path fill="#A55C45" d="M229.79,140.07c0.63,0.71,1.271,1.42,1.899,2.13c2.551,0.29,4.41,1.31,6.641,2.45
	c2.6,0.52,5.12,0.72,7.55,1.89c0.771-0.85,1.54-1.7,2.33-2.53c-0.38,1.11-0.181,3.54-1.489,3.93c-1.58,0.07-3.16-0.74-4.73-0.96
	c-1.32,0.09-2.631,0.59-3.91,0.92c-2.49-2.18-5.59-3.23-8.17-5.08C229.84,141.91,229.8,140.99,229.79,140.07z"/>
<path fill="#302521" d="M219.18,145.97c3.82,1.03,6.94,3.8,10.7,5.15c7.729,3.43,15.771,4.22,24.08,5.01
	c-0.72,1.74-2.229,2.22-3.67,3.24c-3.29,2.04-6.25,4.44-10.28,4.71c-6.14,0.71-12.47-2.02-16-7.09
	C221.91,153.61,220.5,149.72,219.18,145.97z"/>
<path fill="#F8F8F8" d="M222.84,149.95c2.939,1.02,5.71,2.47,8.62,3.59c5,1.94,10.21,2.95,15.511,3.54
	c0.819,0.07,1.609,0.35,2.369,0.84c-3.859,2.58-7.32,0.79-11.51,0.31c-4.689-1.12-9.09-2.96-13.59-4.62
	C223.71,152.41,223.24,151.2,222.84,149.95z"/>
<path fill="#5C0202" d="M224.24,153.61c4.5,1.66,8.9,3.5,13.59,4.62c2.59,0.74,5.05,1.12,7.391,2.56
	C237.721,164.85,227.42,161.62,224.24,153.61z"/>
<path d="M207.939,156.71c4.261,5.54,8.73,11.8,14.431,15.93c5.851,3.67,13.37,5.45,20.159,3.71c7.391-1.85,14.351-3.67,20.471-8.43
	l1.33,1.22c-4.28,4.84-11.1,6.55-17.1,8.21c1.67,2.11,3.26,4.35,5.16,6.26c4.85,3.99,12.789,5.35,16.389,10.61
	c4.211,6.2,5.681,13.02,8.381,19.62c3.83,8.439,6.73,17.301,10,25.98c1.48,3.81,0.859,7.55-1.48,10.84
	c-5.49,7.23-12.529,12.89-18.27,19.779c-3.04,3.73-6.75,6.891-9.61,10.73c0.4,2.99,2.22,5.7,2.55,8.76
	c0.51,4.471,0.711,9.08,0.141,13.551c-1.54,9.76-2.971,19.59-3.641,29.459c-0.379,3.431-1.64,6.541-1.32,10.07
	c0.261,3.59-2.489,7.311-2.119,10.801c0.92,2.459,2.35,4.76,3.9,6.869c2.229,2.98,5.789,4.631,8.58,7.25
	c0.31,1.09,0.619,2.18,0.92,3.271c-0.021,1.94-0.471,3.771-0.92,5.64c-5.91,0.631-11.951,0.45-17.891,0.53
	c-2.87-0.14-6.33,0.19-8.68-1.72c-3.18-2.36-6.811-3.801-9.801-6.461c0.01-1.27,0.051-2.529,0.11-3.789
	c0.851-3.67,1.71-7.32,2.931-10.881c0.75-1.949,0.14-3.67,0.01-5.689c-0.57-4.02,0.58-7.76,0.38-11.801
	c-0.261-5.42,1.17-10.619,1.079-16.029c-0.02-3.24,0.261-6.41,0.691-9.609c-7.721-2.92-15.391-5.99-23.051-9.061
	c-5.891-2.52-12.12-5.73-16.6-10.4c-2.36-2.33-2.62-5.22-4.05-8.01c-1.37-0.5-3.17-1.949-4.26-0.26
	c-6.66,8.91-14.27,17.14-21.48,25.64c-5.73,6.11-9.14,13.2-13.91,20.07c-3.25,4.55-5.37,9.81-9.03,13.989
	c-2.07,2.341-3.65,5.181-4.95,8.021c-0.72,3.94-0.72,7.58-2.65,11.28c-1.24,1.859-3.27,3.29-5.01,4.66
	c-1.6,0.9-3.36,1.539-4.89,2.539c-2.06,2.031-3.44,5.221-5.79,7.17c-1.85,1.531-4.15,2.681-6.31,3.711
	c-2.5,0.39-5.26,1.16-7.71,0.25c-5.15-2.07-9.58-6.73-7.76-12.7c2.3-9.521,9.25-13.88,16.04-19.99c4.83-3.55,3.43-9.86,7.53-14.44
	c2.4-2.68,3.04-6.039,5.05-8.969c6.08-9.011,10.98-18.98,16.74-28.25c6.81-11.57,13.93-22.99,20.4-34.75
	c-4.79-5.74-7.53-13.041-6.45-20.561c-1.69-0.74-3.56-0.689-4.13-2.77c-1.67-4.61-3.48-9.141-5.31-13.69
	c-2.91-8.841-7.46-16.75-10.3-25.62c-1.83-5.21,0.88-11.21,5.74-13.68c6.94-3.71,13.79-7.65,20.86-11.12
	c8.18-3.45,14.29-8.59,23-10.97c4.07-1.15,8.6,0.58,12.71,1.32c3.92,0.74,8.27,2.24,12.05,0.19c-1.49-2.25-3.13-4.39-4.58-6.66
	L207.939,156.71z"/>
<path fill="#D47759" d="M226.96,165.01c3.431,0.53,7.261,1.07,10.16,3.07C233.29,168.35,229.68,168,226.96,165.01z"/>
<path fill="#001A33" d="M187.14,166.13c5.17-0.6,10.76,1.1,15.81,2.18c-2,6.61-4.81,12.6-4.96,19.69c3.63,0.12,7.189-0.56,10.8-0.63
	c2.819,0,4.181,1.93,5.88,3.83c-0.779,4.98-2.51,9.6-4.13,14.35c-6.83,19.011-14.59,37.729-22.76,56.2
	c-0.74,1.17-1.46,3.88-2.9,4.15c-3.38-0.641-6.61-2.561-9.65-4.11c-3.24-1.83-6.95-3.78-9.4-6.63c-1.32-1.4-0.28-2.65,0.07-4.23
	c4.14-11.31,8.26-22.609,11.95-34.09c2.6-8.02,4.43-16.18,6.66-24.33c1.2-4.44,1.85-8.95,1.37-13.56c-2.21,3.97-2.26,8.6-4.37,12.53
	c-1.61,1.16-3.56,1.91-5.37,2.7c-4.69,1.94-9.14,4.22-14.04,5.65c-1.86-2.5-3.48-5.02-6.01-6.91c5.12,12.5,8.77,25.41,12.86,38.26
	c0.38,1.45,0.54,2.95-0.9,3.86c-3.33,2.17-7.78,3.69-11.76,3.5c-1.68-0.54-2.41-3.3-2.96-4.79c-1.19-4.29-3.15-8.25-4.65-12.42
	c-2.59-7.96-7.19-15.2-9.43-23.58c-0.85-3.18,0.29-6.58,2.88-8.61c2.27-1.78,5.01-3.09,7.55-4.45c5.53-2.82,10.77-6.06,16.46-8.54
	C172.92,173.2,179.91,167.73,187.14,166.13z"/>
<path fill="#001A33" d="M209.779,168.22c-0.369,2.89-1.049,5.9-1.02,8.81c0.131,2.95,1.11,5.96,1.86,8.81
	c-3.79,0.38-7.58,0.73-11.38,0.97c0.68-5.42,2.029-11.06,4.66-15.89C204.98,168.71,207.689,168.71,209.779,168.22z"/>
<path fill="#FAFAFA" d="M212.75,170.84c-0.15,2.76-0.811,5.26,0.49,7.87c2.24,4.72,6.93,7.65,11.73,9.27
	c4.119,1.38,9.149,1.96,13.229,0.2c2.649-1.09,4.11-3.59,5.89-5.68c1.76,1.86,0.131,3.05-0.779,4.82
	c-3.42,5.13-8.791,7.24-14.601,8.43c-3.01,4.859-5.09,10.42-7.229,15.71c-4.94,12.95-9.311,26.149-13.69,39.3
	c-2.38,7.73-5.31,15.4-7.2,23.23c5.48,2.48,11.52,3.9,17.45,4.73c1.771,0.34,4.36-0.041,5.72,1.25
	c-4.039,2.059-9.6,0.969-13.88,0.129c-11.56-2.709-23.03-6.97-33.62-12.34c-3.76-2.09-8.78-4.8-10.54-8.93
	c6.72,3.54,12.99,7.65,20.27,10.1c4.07-7.42,7.01-15.65,10.48-23.42c5.469-13.32,11.049-26.64,15.77-40.25
	c1.55-4.74,3.31-9.28,3.97-14.12c-3.81-4.27-6.36-10.28-6.181-16.02C210.52,173.34,210.34,170.81,212.75,170.84z"/>
<path fill="#FFCC99" d="M215.01,172.28c3.11,0.4,5.6,1.9,8.25,3.44c3.94,2.24,8.18,2.98,12.6,3.64c2.271,0.16,4,2.04,5.5,3.57
	c-2.01,2.85-4.77,4.55-8.33,4.61c-5.309,0.06-11.109-1.92-15.139-5.43C215.33,179.76,213.15,175.66,215.01,172.28z"/>
<path fill="#001A33" d="M248.07,182.68c1.17,1.4,3.18,3.25,2.81,5.26c-0.68,3.15-2.14,6.08-2.86,9.23c2.65-2.7,3.23-6.07,5-9.62
	c4.431,1.99,9.41,4.09,12.971,7.44c4.68,5.8,6.33,14.85,9.42,21.58c3.189,6.81,5.33,13.959,8.14,20.92
	c1.37,3.83,2.7,7.56,0.16,11.27c-4.55,6.62-11.7,12-16.78,18.17c-1.81,2.19-3.75,4.26-5.699,6.32c-2.5,2.65-4.34,5.67-7.28,7.91
	c-3.75-1.29-6.97-3.551-9.53-6.561c-0.74-0.959-1.67-2.199-1.55-3.479c1.8-3.13,4.58-5.63,6.61-8.64
	c3.209-4.74,7.279-8.73,10.67-13.34c2.93-4,6.539-7.271,9.82-10.961c-1.891,0.62-3.781,1.19-5.701,1.69
	c-3.42-5.47-5.959-11.57-8.77-17.39c-0.59-1.57-1.76-3.381-1.061-5.061c1.381-3.84,3.621-7.24,4.621-11.25
	c-3.381,2.88-5.461,6.59-7.381,10.52c-3.949,8.121-7.72,16.33-11.4,24.58c-5.159,11.58-9.049,23.631-13.659,35.431
	c-7.82,0.979-16.31-1.19-23.601-3.97c0.521-4.94,2.57-9.881,4.01-14.69c5.49-16.64,10.83-33.41,17.32-49.681
	c1.59-3.619,2.851-7.75,5.23-10.929c1.63-0.92,3.63-1.36,5.311-0.3c3.319,2.07,5.76,5.33,8.939,7.66c1.52-1.84,2.49-3.59,3.311-5.83
	c-1.211,1.229-2.391,2.479-3.561,3.75c-2.9-2.25-5.5-4.81-8.141-7.34c2.851-1.65,6.09-3.13,8.08-5.83
	C245.17,187.34,246.48,184.91,248.07,182.68z"/>
<path fill="#FFFFFF" d="M181.05,194.97c-2.77,11.16-5.63,22.54-10.01,33.18c-1.96-4.16-2.49-8.7-4.24-12.971
	c-1.4-4.15-3.32-8.43-3.76-12.82C169.23,200.32,175,197.36,181.05,194.97z"/>
<path fill="#FFFFFF" d="M252.24,221.98c3.42,6.66,6.38,13.529,10.06,20.09c-4.159,5.82-8.97,11.24-13.489,16.74
	c-2.5,3.51-5.201,6.779-7.961,10.08c-1.99,1.779,0.291,4.129,0.711,6.149c-0.371,2.94-3.24,5.03-5.461,6.63
	c-1.789-1.391-5.68-2.641-6.47-4.72C235.83,258.221,243.3,239.58,252.24,221.98z"/>
<path fill="#FFCC99" d="M167.74,237.98c-1.56,4.899-3.61,9.619-5.23,14.49c-0.61,1.399,0.52,3.109,0.96,4.459
	c-0.42,0.41-0.85,0.82-1.27,1.24c-2.31-4.54-5.94-12.17-3.15-17.05C161.79,239.75,164.84,238.971,167.74,237.98z"/>
<path fill="#171E2D" d="M165.34,263.25c1.91,0.641,3.65,1.971,5.33,3.061c4.81,3.229,10.01,5.369,15.17,7.789
	c1.51,0.621,2.48,1.73,3.52,2.93c3.05-0.93,5.32,0.48,8.19,1.351c7.181,2.53,14.341,4.13,21.931,4.83
	c-0.041,1.24-0.08,2.479-0.101,3.729c2.91-2.219,4.97-5.1,7.54-7.67c2.08,1.221,5.57,2.51,6.71,4.681
	c-1.521,5.409-4.42,10.04-6.72,15.069c0.3,2.721,3.811,3.201,5.67,1.641c2-1.79,3.59-4.03,5.49-5.93
	c4.14,5.39,4.41,14.33,5.39,20.799c0.681,2,3.84,1.291,5.47,1.32c3.48,0.101,5.75-4.479,7.99-6.689
	c-1.359,9.359-1.79,18.82-3.51,28.119c-0.65,4.73-0.391,9.781-3.24,13.891c-4.33,2.09-11.33,0.561-14.97-2.46
	c-0.54-2.67-0.03-5.69,0.14-8.399c0.34-4.16-0.23-8.23,0.51-12.371c1.44-8.75,0.34-18.89,3.641-27.209
	c-2.37,1.72-3.82,4.069-5.57,6.359c-5.15-1.68-10.061-3.949-15.141-5.88c-7.069-2.72-14.479-5.71-20.349-10.649
	c-2.67-2.451-4.46-4.94-3.29-8.67c-3.61-1.851-7.45-2.91-11.36-3.891c0.45,2.061,0.83,3.27-0.67,5.04
	c-7.89,10.351-17.22,19.62-25.06,30c-5.05,7.67-10.09,15.38-14.73,23.31c-2.26,3.43-5.08,6.36-6.99,10.041
	c-1.22,1.84-2.61,5.039-5.31,4.539c-4.21-0.449-9.83-3.029-11.68-7.05c0.78-6.68,5.09-10.159,7.58-16.021
	c2.08-4.399,5.16-8.199,7.44-12.52C144.25,298.359,155.31,281.141,165.34,263.25z"/>
<path fill="#FFCC99" d="M243.79,277.15c1.87,1.449,3.67,3.119,5.681,4.369c2.209,1.25,4.85,1.86,7.26,2.65
	c2.93,6.48,3.26,16.24,0.619,22.85c-0.209-3.68-0.18-7.27-0.67-10.949c-0.13-1.49-0.539-2.141-1.55-3.19
	c0.03,3.08,0.601,6.091,0.82,9.149c0.25,3.591-0.86,6.931-2.62,10.011c0.58-5.67,0.82-10.94-2.32-15.99
	c0.15,4.86,2.131,9.021,1.11,13.99c-0.46,1.94-0.351,5.021-2.99,5.12c0.12-4.49,0.091-8.93-0.819-13.36
	c-0.471-1.69-0.11-3.26-2.031-4c0.801,5.8,2.531,10.99,1.361,16.94c-0.82,0.13-1.65,0.26-2.48,0.39
	c-0.26-6.8-1.73-13.71-4.23-20.021c-0.88-1.859-1.789-2.209-3.789-2.239c-3.19,2.08-3.631,6.93-8.121,7.021
	c0.34-2.67,1.91-4.461,2.971-6.851c1.43-2.979,1.97-6.351,4.3-8.729C238.67,281.82,241.23,279.46,243.79,277.15z"/>
<path fill="#FFFFFF" d="M191.02,283.92c1.43,2.79,1.69,5.68,4.05,8.01c4.48,4.67,10.709,7.881,16.6,10.4
	c7.66,3.07,15.33,6.141,23.051,9.061c-0.431,3.199-0.711,6.369-0.691,9.609c0.091,5.41-1.34,10.609-1.079,16.029
	c0.2,4.041-0.95,7.781-0.38,11.801c0.13,2.02,0.74,3.74-0.01,5.689c-1.221,3.561-2.08,7.211-2.931,10.881
	c-18.819-0.99-37.82-0.271-56.67-0.131c-12.44,0.791-24.8,1.051-37.17,2.53c-2.09,0.28-4.03,0.03-6.06-0.479
	c1.74-1.37,3.77-2.801,5.01-4.66c1.93-3.7,1.93-7.34,2.65-11.28c1.3-2.84,2.88-5.68,4.95-8.021c3.66-4.18,5.78-9.439,9.03-13.989
	c4.77-6.87,8.18-13.96,13.91-20.07c7.21-8.5,14.82-16.729,21.48-25.64C187.85,281.971,189.65,283.42,191.02,283.92z"/>
<path fill="#413B36" d="M119.02,348.471c2.28,1.029,4.1,2.619,5.92,4.299c-0.51,0.76-1.01,1.521-1.52,2.28
	c2.62,0.11,7.27-1.649,9.01,0.88c-0.74,1.87-1.47,3.74-2.26,5.59c1.03-0.41,2.06-0.81,3.09-1.199c-0.72,1.18-1.34,2.72-2.57,3.42
	c-1.67,0.83-3.76,0.939-5.59,1.31c-6.21,0.22-5.42,8.15-11.73,9.54c-3.82-4.1-6.21-8.72-10.58-12.189
	c2.36-4.68,6.23-7.11,10.01-10.68c1.34-1.281,2.95-1.641,4.57-2.371C117.92,349.061,118.47,348.77,119.02,348.471z"/>
<path fill="#3A3430" d="M236.23,353.391c4.949,0.789,9.609,1.619,14.66,1c1.219,2.06,2.229,4.209,3.26,6.369
	c-2.42-1.25-6.75-3.17-8.851-0.51c-2.239,2.62-5.409,4.689-5.239,8.46c2.64,1.71,4.979,1.84,8.01,1.42
	c4.359-0.72,8.959-0.45,12.52-3.25c1.41,0.89,2.57,1.8,3.57,3.16c-1.051,0.7-2.131,1.351-3.29,1.87
	c-7.649-0.12-14.87,0.96-22.341-1.32c-2.199-0.5-4.359-1.08-6.51-1.76c-0.1-1.88,0.021-3.5,0.721-5.27
	C233.99,360.2,234.85,356.689,236.23,353.391z"/>
<path fill="#47413D" d="M254.15,360.76c1.979,2.23,4.01,4.36,6.439,6.12c-3.561,2.8-8.16,2.53-12.52,3.25
	c-3.03,0.42-5.37,0.29-8.01-1.42c-0.17-3.771,3-5.84,5.239-8.46C247.4,357.59,251.73,359.51,254.15,360.76z"/>
<path fill="#332C27" d="M102.79,362.4c4.37,3.47,6.76,8.09,10.58,12.189c6.31-1.39,5.52-9.32,11.73-9.54
	c-3.78,5.79-6.57,12.15-14.05,13.66c-1.75-0.45-3.53-0.94-5.19-1.67c-2.36-1.08-3.71-2.95-6.32-3.39
	C98.06,370.141,101.24,365.48,102.79,362.4z"/>
<path fill="#E2E2E7" d="M172.96,365.27c18.85-0.14,37.851-0.859,56.67,0.131c-0.06,1.26-0.101,2.52-0.11,3.789
	c-1.439,1.42-3,2.711-4.49,4.09c-0.459,2.611-0.709,5.311,2.031,6.711c3.899,1.689,8.699,1.72,12.91,2.119
	c7.459,0.621,14.629-1.029,22.059-0.959c6.641-0.291,13.271-1.271,19.861-2.101c3.34-0.659,7.27-0.84,9.359-3.93
	c-5.2-2.511-10.46-2.75-16.1-3.63c-2.78-0.42-5.541-0.471-8.34-0.29c-0.301-1.091-0.61-2.181-0.92-3.271
	c6.449-0.13,12.719,0.94,19.039,2.12c2.85,0.64,6.561,1.22,8.771,3.261c1.42,1.14,1.39,3.27,0.17,4.539
	c-2.14,2.43-6.42,2.971-9.44,3.631c-23.789,4.279-49.27,4.56-73.4,5.209c-6.43,0.061-12.849,0.021-19.27-0.209
	c-12.23-0.41-24.61-0.26-36.8-1.23c-14.08-0.8-28.36-1.79-42.22-4.51c2.16-1.03,4.46-2.18,6.31-3.711
	c2.35-1.949,3.73-5.139,5.79-7.17c1.53-1,3.29-1.639,4.89-2.539c2.03,0.51,3.97,0.76,6.06,0.479
	C148.16,366.32,160.52,366.061,172.96,365.27z"/>
<path fill="#D6D6DC" d="M229.52,369.189c2.99,2.66,6.621,4.101,9.801,6.461c2.35,1.91,5.81,1.58,8.68,1.72
	c5.939-0.08,11.98,0.101,17.891-0.53c0.449-1.869,0.899-3.699,0.92-5.64c2.799-0.181,5.56-0.13,8.34,0.29
	c5.64,0.88,10.899,1.119,16.1,3.63c-2.09,3.09-6.02,3.271-9.359,3.93c-6.591,0.83-13.221,1.81-19.861,2.101
	c-7.43-0.07-14.6,1.58-22.059,0.959c-4.211-0.399-9.011-0.43-12.91-2.119c-2.74-1.4-2.49-4.1-2.031-6.711
	C226.52,371.9,228.08,370.609,229.52,369.189z"/>
<path fill="#7E5E4A" d="M260.87,371.91c0.979,0.05,1.97,0.119,2.95,0.189c0.01,0.851,0.02,1.69,0.02,2.541
	c-5.29,0.06-10.58-0.011-15.869,0.189c-2.191-0.02-4.921,0.199-6.941-0.79c-1.079-0.87-1.729-2.31-2.5-3.45
	C246,372.87,253.221,371.79,260.87,371.91z"/>
<path fill="#6F5444" d="M105.86,377.04c1.66,0.729,3.44,1.22,5.19,1.67c-5.19,1.271-8.7-0.83-11.51-5.06
	C102.15,374.09,103.5,375.96,105.86,377.04z"/>
</svg>
