<?xml version="1.0" encoding="utf-8"?>
<!-- Generator: Adobe Illustrator 16.0.0, SVG Export Plug-In . SVG Version: 6.00 Build 0)  -->
<!DOCTYPE svg PUBLIC "-//W3C//DTD SVG 1.1//EN" "http://www.w3.org/Graphics/SVG/1.1/DTD/svg11.dtd">
<svg version="1.1" id="Layer_1" xmlns="http://www.w3.org/2000/svg" xmlns:xlink="http://www.w3.org/1999/xlink" x="0px" y="0px"
	 width="398px" height="398px" viewBox="0 0 398 398" enable-background="new 0 0 398 398" xml:space="preserve">
<path fill="#5582B0" d="M292.91,104.08c8.34,9.69,16.71,19.81,23.18,30.86c6.38,11.19,10.69,24.07,8.87,37.08
	c-1.04,8.35-4.72,16.24-11.22,21.72c-6.021,5.46-13.62,9.31-21.86,9.529c-1.76,0.03-3.51,0.021-5.271-0.029
	c-6.42-0.551-12.399-3.051-17.58-6.84c-0.729-0.53-1.449-1.07-2.17-1.62c-6.379-5.84-10.819-12.77-12.02-21.47
	c-0.24-4.33-0.1-8.6,0.471-12.91l0.109-0.9c0.18-1.15,0.391-2.31,0.609-3.46c1.461-7.4,3.891-14.29,7.66-20.84
	c0.84-1.32,1.74-2.61,2.621-3.92c6.66-9.51,13.91-18.69,21.399-27.56C289.311,101.82,291.439,102.41,292.91,104.08z"/>
<path d="M216.971,108.02c8.969,0.87,18.879,2.03,27.059,5.98c-2.479,1.59-6.26,1.11-9.129,1.79c11.3,3.42,22.01,8.27,31.41,15.49
	c-0.881,1.31-1.781,2.6-2.621,3.92c-0.68-0.44-1.369-0.88-2.06-1.32c-9.67-6.83-20.819-11.85-32.42-14.23
	c-5.26-1.29-10.38-2.39-15.79-2.91c1.25-1.53,2.95-1.91,4.721-2.56c1.31-0.21,2.619-0.43,3.93-0.65c-19.041-2.67-38.2-1.16-56.44,5
	c-9.8,3.43-19.15,9.02-26.18,16.74c-5.27,5.96-9.01,14.02-8.75,22.09c-0.81-0.47-1.61-0.95-2.39-1.45
	c-0.47-0.58-0.93-1.16-1.39-1.74c-1.98,0.82-3.71,1.85-5.38,3.19c-4.42,3.51-7.97,7.83-8.58,13.64c1.07-1.29,2.06-2.62,2.98-4.02
	c1.14-0.6,2.32-1.12,3.53-1.57c-1.03,3.15-2.99,5.79-4.18,8.86c-3.16,8.26-5.09,16.87-4.93,25.759c0.17,3.41,1.5,6.611,1.65,10.051
	c0.03,4.62,0.03,9.24,0.22,13.859c0.92,0.051,1.85,0.101,2.78,0.15c-0.28-2.17-0.57-4.34-0.8-6.52c1.11,0.49,1.82,1.229,2.13,2.22
	c1.18,3.149,1.5,6.771,1.99,10.08c1.65,0.06,3.3,0.12,4.95,0.17c0.02-0.94,0.03-1.89,0.03-2.84c-0.02-4.87-0.62-10.15,1.15-14.771
	c1.56-4.199,3.33-8.08,3.9-12.58c0.74-6.439,0.87-12.99,1.09-19.47c0.61-3.64,1.83-7.1,3.36-10.46c-0.54-0.99-1.07-1.98-1.61-2.97
	c6.5,2.34,12.91,3.82,19.8,2.18c6-1.53,12.27-4.04,16.96-8.19c1.34-1.17,2.74-2.23,4.26-3.16c-1.1,3.16-3.86,5.18-6.05,7.86
	c9.72,5.8,22.45,6.67,33.32,4.33c12.65-0.57,24.619-3.75,37.51-2.65c5.68,0.19,11.04,1.88,16.641,2.5
	c0.289,0.98,0.569,1.97,0.85,2.96l-2.42-0.43c-7.5-2.19-15.28-3.04-23.07-2.8c-12.67,0.35-25.37,3.29-38.02,3.91
	c8.31,1.17,16.54,1.69,24.879,0.42c2.57-0.2,5.521-1.41,8.011-0.63c-6.979,3.09-15.3,3.77-22.86,3.83
	c-10.4-0.03-20.24-2.55-29.9-6.21c-2.58-0.95-4.72-2.51-7.04-3.94c-8.51,4.84-19.47,6.76-28.95,4.06c-1.92,3.1-2.8,6.39-3.1,10.01
	c-0.47,6.33-0.59,12.71-1.28,19.029c-0.52,4.551-2.21,8.611-3.9,12.811c-2.01,4.811-0.91,10.7-1,15.891
	c2.8-4.78,8.97-4.66,13.82-5.141l2.05-0.1c12.06-0.141,24.32-0.23,36.27,1.59c4.31,0.641,8.33,1.24,11.69,4.29
	c6.33-2.99,12.71-3.11,19.061-0.091c3.799-3.299,8.31-3.899,13.119-4.43c11.34-1.59,22.92-1.439,34.34-1.42l1.98,0.11
	c4.63,0.28,9.051,0.681,13.09,3.2c0.09-5.41,0.7-10.41-1.41-15.57c-2.119-5.311-3.42-10.859-3.279-16.6l0.289,0.21
	c0.721,0.55,1.44,1.09,2.17,1.62c0.011,5.09,1.33,9.77,3.201,14.459c2.31,5.951,1.279,11.361,1.6,17.551v1.48
	c1.41-0.011,2.82-0.021,4.22-0.021c0.95-3.55,1.19-7.63,2.87-10.899c0.471-0.98,1.09-1.41,1.88-1.291
	c-0.409,2.17-0.75,4.35-1.01,6.551c0.91-0.15,1.83-0.311,2.739-0.471c0.511-3.89,1.211-7.48,1.32-11.359
	c-0.029-3.101-0.02-6.131,0.76-9.16c1.761,0.05,3.511,0.06,5.271,0.029c-1.33,3.201-1.2,6.34-1.47,9.73
	c-0.23,4.061-0.689,8.08-1.35,12.09c4.56,2.54,6.629,7.08,7.43,12.051c1.31,8.409-0.54,17.6-2.78,25.729
	c-2.399,8.09-7.399,13.92-12.34,20.54c-2.24,3.02-5.44,4.14-8.979,4.9c-1.23,10-2.841,19.869-5.721,29.539
	c-1.87,6.051-5.27,11.66-9.4,16.43c-4.64,4.541-9.76,8.641-15.029,12.421c3.01,1.67,5.89,3.64,8.99,5.149
	c6.89,1.391,13.99,1.83,20.939,2.95c4.811,0.261,9.46,0.931,13.891,2.91c-2.09,1.47-4.24,2.75-6.631,3.67
	c-5.949-1.61-11.949-2-18.01-2.92c-2.609-0.399-5.199-0.7-7.85-0.5c0.359,4.63,0.47,9.271,0.63,13.91
	c-1.05,0.319-2.11,0.62-3.171,0.909c0.381-4.77,1.011-11.119-1.289-15.469c-2.881-2.291-6.19-4.15-9.57-5.601
	c-0.23,4.21-0.13,8.17-1.21,12.29c-0.95,4.23-2.91,7.88-4.3,11.95c1.16,0.06,2.32,0.1,3.48,0.13c-2.861,0.54-5.57,1.529-8.471,1.84
	c4.801-6.35,6.891-13.859,7.311-21.73c-1.58-0.27-3.15-0.539-4.73-0.83c0.32,6.371-1.83,11.181-6.52,15.381
	c-8.221,7.279-20.121,9.109-30.73,8.5c-9.54-0.561-19.58-3.86-25.71-11.57c-2.86-3.57-3.81-7.73-3.54-12.25
	c-1.53,0.26-3.07,0.52-4.6,0.77c0.29,2.86,0.56,5.771,1.17,8.59c1.29,4.99,3.9,9.061,6.89,13.171c1.95,0.2,3.9,0.43,5.85,0.72
	c-3.49-0.18-7.04-0.52-10.45-1.27c-0.7-3.121-2.57-5.351-3.72-8.301c-2.27-5.67-2.67-11.399-3.06-17.43
	c-3.13,1.27-6.6,2.801-9.04,5.17c-2.29,4.45-1.66,10.301-2.1,15.1l-1.82,0.711l-1.04-0.391c0.26-5.17,0.75-10.3,1.31-15.449
	c-9.15,0.77-18.5,2.42-27.45,4.51c-2.23-0.91-4.31-2.01-6.33-3.311c3.95-1.97,8.12-2.699,12.46-3.27
	c8.03-1.42,16.15-2.44,24.16-3.92c2.77-1.18,5.3-2.93,8.01-4.24c-5.34-3.74-10.43-7.93-15.09-12.5c-4.28-5-7.77-10.891-9.55-17.26
	c-2.67-9.33-4.22-18.87-5.42-28.5c-3.68-0.62-7.04-1.75-9.37-4.85c-5.33-7.111-10.66-13.4-12.87-22.261
	c-1.96-7.649-3.59-16.34-2.29-24.22c0.72-4.35,2.52-8.381,6.05-11.17c0.12-5.641-0.24-11.23-0.48-16.86
	c-0.4-3.38-1.73-6.45-1.61-9.96c0.32-5.59,0.75-11.1,2.17-16.53c1.42-4.75-0.29-9.2,0.93-14.02c1.93-8.58,9.38-15.69,17.34-18.92
	c1.85-3.76,3.11-7.7,5.48-11.22c7.45-12.07,19.61-19.64,32.73-24.3C180.88,108.14,199.22,106.15,216.971,108.02z"/>
<path fill="#A9DDFE" d="M289.98,108.94c3.06,3.32,5.85,6.9,8.72,10.38c7.76,9.95,15.02,19.36,18.859,31.59
	c-3.8-2.35-7.239-5.17-11.239-7.21c-11.23-6.39-23.961-8.75-36.771-8.08C275.63,126.4,282.689,117.23,289.98,108.94z"/>
<path fill="#927164" d="M222.07,113.53c-1.311,0.22-2.62,0.44-3.93,0.65c-12.701-0.67-25.761,1.56-37.931,5.13
	c-5.76,1.58-10.84,4.53-16.34,6.69c3.19-2.97,7.22-5.16,11.17-6.95c1.39-0.63,2.68-1.25,3.67-2.46c-4.5,0.15-8.57,2.03-13.08,1.94
	C183.87,112.37,203.029,110.86,222.07,113.53z"/>
<path fill="#653522" d="M218.141,114.18c-1.771,0.65-3.471,1.03-4.721,2.56c5.41,0.52,10.53,1.62,15.79,2.91
	c-6.42,0.24-13.42,0.05-19.59,1.98c8.63,0.67,17.11,1.61,25.36,4.4c4.56,1.29,8.66,3.72,13.189,5.05
	c-4.05-3.96-9.38-5.55-14.34-7.93c6.48,0.69,12.84,3.51,18.63,6.36c3.34,1.58,5.59,3.77,9.17,4.37c0.69,0.44,1.38,0.88,2.06,1.32
	c-3.77,6.55-6.199,13.44-7.66,20.84c-4.029-1.75-8.609-3.83-13.039-4.11c-0.891,0.13-1.75,0.39-2.6,0.77
	c-2.15-0.67-4.261-1.3-6.541-1.23l-0.22-0.01h-0.101c2.74,1.34,6.341,1.54,8.65,3.54c-6.279,1.25-12.13,2.6-17.25,6.72
	c3.721-0.99,7.211-2.25,11.051-2.78c6.549-1.03,12.97-0.2,19.33,1.46c-0.57,4.31-0.711,8.58-0.471,12.91
	c-0.92-0.33-1.84-0.65-2.77-0.96l2.42,0.43c-0.28-0.99-0.561-1.98-0.85-2.96c-5.601-0.62-10.961-2.31-16.641-2.5
	c-12.891-1.1-24.859,2.08-37.51,2.65c-4.76-1.53-10.6-2.03-14.7-4.9c5.47,0.11,10.71,1.27,16.22,0.72
	c6.04-0.55,12.67-1.55,18.01-4.59c-11.97,1.45-23.54,1.79-35.029-2.51c6.78-8.42,17.32-14.32,27.14-18.5
	c2.31-0.65,6.75-0.18,8.28-2.12c-10.551-0.63-21.56,1.55-31,6.33c-5.23,2.61-9.5,6.3-14.12,9.8c-9.3,4.67-17.52,10.05-28.3,10.79
	c-1.8,0.18-3.12-0.36-4.63-1.23c0.1-2.27,0.08-4.48-0.42-6.72c-2.02,0.1-3.9,0.4-5.86,0.9c-0.03-2.68-0.41-5.1,0.61-7.67
	c2.73-3.3,4.24-7.34,6.85-10.74c2.33-3.52,5.45-6.37,7.73-9.9c-3.22,1.07-5.83,4.12-8,6.62c-0.94-0.34-1.88-0.66-2.82-0.98
	c7.03-7.72,16.38-13.31,26.18-16.74c4.51,0.09,8.58-1.79,13.08-1.94c-0.99,1.21-2.28,1.83-3.67,2.46
	c-3.95,1.79-7.98,3.98-11.17,6.95c5.5-2.16,10.58-5.11,16.34-6.69C192.38,115.74,205.439,113.51,218.141,114.18z"/>
<path fill="#471704" d="M198.26,118.92c-5.88,3.66-11.83,6.13-16.21,11.84c13.68-3.04,27.72-3.21,41.21,0.91
	c3.92,1.31,7.62,2.49,10.891,5.13c-5.07-1.07-9.25-3.32-14.541-3.62c-13.25-1.33-26.139-1.38-39.029,2.37
	c-7.35,2.01-14.01,5.39-20.77,8.8l-0.87-0.31c2.69-3.18,6.1-5.36,9.68-7.41c4.64-2.5,7.34-7.26,11.76-10.28
	C185.51,122.71,191.87,119.22,198.26,118.92z"/>
<path fill="#927164" d="M229.21,119.65c11.601,2.38,22.75,7.4,32.42,14.23c-3.58-0.6-5.83-2.79-9.17-4.37
	c-5.79-2.85-12.149-5.67-18.63-6.36c4.96,2.38,10.29,3.97,14.34,7.93c-4.529-1.33-8.63-3.76-13.189-5.05
	c-8.25-2.79-16.73-3.73-25.36-4.4C215.79,119.7,222.79,119.89,229.21,119.65z"/>
<path fill="#856051" d="M170.34,125.8c-2.11,2.27-4.71,3.62-7.19,5.41c-2.86,2.03-5.35,4.4-8.48,6.05c1.4-2.9,4.24-4.93,6.75-6.86
	C164.27,128.43,166.87,126.48,170.34,125.8z"/>
<path fill="#876456" d="M150.27,129.63c-2.28,3.53-5.4,6.38-7.73,9.9c-2.61,3.4-4.12,7.44-6.85,10.74c1.2-5.16,3.64-9.66,6.58-14.02
	C144.44,133.75,147.05,130.7,150.27,129.63z"/>
<path fill="#927164" d="M219.609,133.18c-4.479,1.15-8.909,0.34-13.609,0.8c-9.59,0.66-20.32,3.08-28.18,8.88
	c7.72-2.56,14.66-5.65,23.03-5.59c-15.52,3.06-26.66,11.85-40.979,17.58c-3.03,1.23-6.04,2.38-9.32,2.75
	c5.13-2.8,9.93-5.85,14.48-9.53c3.07-2.54,6.58-4.53,9.38-7.34c-4.22,0.59-7.94,2.31-11.93,3.68c-0.92,0.42-1.81,0.4-2.67-0.06
	c6.76-3.41,13.42-6.79,20.77-8.8C193.47,131.8,206.359,131.85,219.609,133.18z"/>
<path fill="#471704" d="M139.45,135.27c0.94,0.32,1.88,0.64,2.82,0.98c-2.94,4.36-5.38,8.86-6.58,14.02
	c-1.02,2.57-0.64,4.99-0.61,7.67c1.96-0.5,3.84-0.8,5.86-0.9c0.5,2.24,0.52,4.45,0.42,6.72c1.51,0.87,2.83,1.41,4.63,1.23
	c10.78-0.74,19-6.12,28.3-10.79l1.81,0.62c2.24-1.34,4.16-2.93,6.32-4.39c8.59-5.71,18.359-9.5,28.71-10.24
	c-9.819,4.18-20.36,10.08-27.14,18.5c11.49,4.3,23.06,3.96,35.029,2.51c-5.34,3.04-11.97,4.04-18.01,4.59
	c-5.51,0.55-10.75-0.61-16.22-0.72c4.1,2.87,9.94,3.37,14.7,4.9c-10.87,2.34-23.6,1.47-33.32-4.33c2.19-2.68,4.95-4.7,6.05-7.86
	c-1.52,0.93-2.92,1.99-4.26,3.16c-4.69,4.15-10.96,6.66-16.96,8.19c-6.89,1.64-13.3,0.16-19.8-2.18c0.54,0.99,1.07,1.98,1.61,2.97
	c-1.53,3.36-2.75,6.82-3.36,10.46c-0.68-0.88-1.37-1.77-2.05-2.66c0.65-0.91,1.2-1.86,1.74-2.84c-2.21,0.96-4.22,2.24-6.24,3.52
	c0.86-3.87,3.04-7.01,4.4-10.68c-2.46,1.59-3.82,3.81-5.78,5.99c0.51-2.06,0.89-4.13,1-6.26c1.58-2.55,4.46-4.23,6.49-6.46
	c-2.91-0.02-4.88,1.52-7.33,2.8c1.35-3.44,3.79-5.66,6.63-7.88c0.78,0.5,1.58,0.98,2.39,1.45
	C130.44,149.29,134.18,141.23,139.45,135.27z"/>
<path fill="#9BD6FE" d="M306.32,143.7c4,2.04,7.439,4.86,11.239,7.21c3.421,10.04,4,20.75-0.649,30.52
	c-1.22-3.13-1.98-6.23-2.15-9.59c1.01-3.62,1.17-7.1,0.8-10.83c-0.579,0.36-1.159,0.72-1.729,1.1c-2.48-2.14-4.68-4.61-7.23-6.66
	c-6.75-4.97-14.129-7.24-22.02-9.66c-1.6-2.57-3.221-4.47-6.49-4.56c-2.51,0.18-3.04,3.02-4.14,4.8
	c-2.851,0.11-5.681,0.48-8.521,0.78l-0.789-1.81c1.369-3.26,3.02-6.39,4.909-9.38C282.359,134.95,295.09,137.31,306.32,143.7z"/>
<path fill="#370703" d="M219.41,138.07c-1.53,1.94-5.971,1.47-8.28,2.12c-10.351,0.74-20.12,4.53-28.71,10.24
	c-2.16,1.46-4.08,3.05-6.32,4.39l-1.81-0.62c4.62-3.5,8.89-7.19,14.12-9.8C197.85,139.62,208.859,137.44,219.41,138.07z"/>
<path fill="#CCE7FE" d="M278.09,141.23c3.27,0.09,4.891,1.99,6.49,4.56c-0.54,3.39-3.85,5.96-7.17,4.79
	c-2.21-0.7-2.48-2.72-3.46-4.55C275.05,144.25,275.58,141.41,278.09,141.23z"/>
<path fill="#8ACEFE" d="M264.641,145l0.789,1.81c2.84-0.3,5.67-0.67,8.521-0.78c0.979,1.83,1.25,3.85,3.46,4.55
	c3.32,1.17,6.63-1.4,7.17-4.79c7.891,2.42,15.27,4.69,22.02,9.66c2.551,2.05,4.75,4.52,7.23,6.66c-3.8,6.02-10.25,10.12-17.21,11.43
	c-4.56,0.63-9.271,0.42-13.8-0.35c1.93-1.84,4.31-3.17,4.189-6.17c0.49-5.19-3.85-9.97-9.01-10.01
	c-5.029,0.88-10.6,6.43-8.061,11.86c-1.189-0.25-2.369-0.5-3.56-0.75c0.64,2.83,1.22,5.58,2.181,8.33
	c4.02,11.94,19.549,18.73,30.91,13.04c7.399-3.49,11.959-10.46,15.289-17.65c0.17,3.36,0.931,6.46,2.15,9.59
	c-4.391,9.46-15.439,16.79-25.91,16.85c-15.811,1.08-31.779-13.14-31.279-29.28C259.811,160.86,261.43,152.49,264.641,145z"/>
<path fill="#927164" d="M233.63,151.46l0.22,0.01c2.28-0.07,4.391,0.56,6.541,1.23c5.219,1.78,10.279,3.99,15.029,6.8l-0.109,0.9
	c-6.36-1.66-12.781-2.49-19.33-1.46c-3.84,0.53-7.33,1.79-11.051,2.78c5.12-4.12,10.971-5.47,17.25-6.72c-2.31-2-5.91-2.2-8.65-3.54
	H233.63z"/>
<path fill="#471704" d="M200.99,152.11c5.05,0.72,9.83,2.6,14.9,3.29c4.159,0.85,8.469,0.51,12.56,1.56
	c-1.591,1.58-4.72,1.33-6.841,1.52C214.46,158.42,206.82,156.35,200.99,152.11z"/>
<path fill="#4B1C0A" d="M242.99,151.93c4.43,0.28,9.01,2.36,13.039,4.11c-0.219,1.15-0.43,2.31-0.609,3.46
	c-4.75-2.81-9.811-5.02-15.029-6.8C241.24,152.32,242.1,152.06,242.99,151.93z"/>
<path fill="#653522" d="M126.92,154.17c0.46,0.58,0.92,1.16,1.39,1.74c-2.84,2.22-5.28,4.44-6.63,7.88
	c-2.4,5.01-4.66,9.64-4.01,15.41l0.99-0.43c0.94-3.98,1.52-7.83,3.86-11.32c-0.11,2.13-0.49,4.2-1,6.26
	c-0.89,3.17-1.39,6.18-1.51,9.48c0.74-0.66,1.48-1.31,2.21-1.97c-0.65,3.62-2.5,8.03-0.74,11.47c0.37,1.1,0.74,2.2,1.1,3.29
	c0.6-3.41,1.18-6.79,2.25-10.09c0.54-1.91,1.38-3.48,0.65-5.47c0.6-0.93,1.27-1.81,1.92-2.7c0.68,0.89,1.37,1.78,2.05,2.66
	c-0.22,6.48-0.35,13.03-1.09,19.47c-0.57,4.5-2.34,8.381-3.9,12.58c-1.77,4.62-1.17,9.9-1.15,14.771
	c-0.77,0.22-1.54,0.44-2.31,0.659c-3.23-5.939-4.37-13.08-6.36-19.51c-0.88,0.57-1.75,1.15-2.63,1.73
	c-0.15-3.439-1.48-6.641-1.65-10.051c-0.16-8.889,1.77-17.5,4.93-25.759c1.19-3.07,3.15-5.71,4.18-8.86
	c-1.21,0.45-2.39,0.97-3.53,1.57c1.53-3.05,3.85-5.42,5.81-8.15l-0.21-1.47C123.21,156.02,124.94,154.99,126.92,154.17z"/>
<path fill="#CCE7FE" d="M278,157.01c5.16,0.04,9.5,4.82,9.01,10.01c0.12,3-2.26,4.33-4.189,6.17c-1.26,0.67-2.551,1.28-3.84,1.91
	c-2.03-0.66-5.03-0.85-6.301-2.73c-0.97-1.12-1.869-2.3-2.74-3.5C267.4,163.44,272.971,157.89,278,157.01z"/>
<path fill="#735549" d="M121.54,157.36l0.21,1.47c-1.96,2.73-4.28,5.1-5.81,8.15c-0.92,1.4-1.91,2.73-2.98,4.02
	C113.57,165.19,117.12,160.87,121.54,157.36z"/>
<path fill="#360703" d="M129.01,160.99c-2.03,2.23-4.91,3.91-6.49,6.46c-2.34,3.49-2.92,7.34-3.86,11.32l-0.99,0.43
	c-0.65-5.77,1.61-10.4,4.01-15.41C124.13,162.51,126.1,160.97,129.01,160.99z"/>
<path fill="#64A2D5" d="M315.56,161.01c0.37,3.73,0.21,7.21-0.8,10.83c-3.33,7.19-7.89,14.16-15.289,17.65
	c-11.361,5.69-26.891-1.1-30.91-13.04c-0.961-2.75-1.541-5.5-2.181-8.33c1.19,0.25,2.37,0.5,3.56,0.75
	c0.871,1.2,1.771,2.38,2.74,3.5c1.271,1.88,4.271,2.07,6.301,2.73c1.289-0.63,2.58-1.24,3.84-1.91c4.529,0.77,9.24,0.98,13.8,0.35
	c6.96-1.31,13.41-5.41,17.21-11.43C314.4,161.73,314.98,161.37,315.56,161.01z"/>
<path fill="#FFCC99" d="M164.07,166.93c2.32,1.43,4.46,2.99,7.04,3.94c9.66,3.66,19.5,6.18,29.9,6.21
	c7.561-0.06,15.881-0.74,22.86-3.83c-2.49-0.78-5.44,0.43-8.011,0.63c-8.34,1.27-16.569,0.75-24.879-0.42
	c12.65-0.62,25.35-3.56,38.02-3.91c7.79-0.24,15.57,0.61,23.07,2.8c0.93,0.31,1.85,0.63,2.77,0.96c1.2,8.7,5.641,15.63,12.02,21.47
	l-0.289-0.21c-0.141,5.741,1.16,11.29,3.279,16.6c2.11,5.16,1.5,10.16,1.41,15.57c-4.039-2.52-8.46-2.92-13.09-3.2
	c-3.689-6.74-10.15-13.58-18.15-14.601c-8.869-1.25-18.35,0.811-26.229,5.011c-0.5,1.76-0.83,3.51-1.04,5.329
	c3.75,0.261,7.59-1.229,11.38-1.829c5.8-1.021,12.021-1.88,17.88-1.11c5.68,0.96,9.381,4.43,14.18,7.09
	c-11.42-0.02-23-0.17-34.34,1.42c-4.81,0.53-9.32,1.131-13.119,4.43c-6.351-3.02-12.73-2.899-19.061,0.091
	c-3.36-3.05-7.38-3.649-11.69-4.29c-11.95-1.82-24.21-1.73-36.27-1.59c5.07-2.95,9.09-6.68,15.27-7.301
	c7.65-0.609,15.73,0.9,23.17,2.641c1.7,0.41,3.26,0.55,5,0.4c-0.24-1.771-0.57-3.51-1.04-5.24c-7.32-4.131-16.8-6.061-25.13-5.221
	c-8.66,0.74-15.31,7.61-19.32,14.82c-4.85,0.48-11.02,0.36-13.82,5.141c0.09-5.19-1.01-11.08,1-15.891
	c1.69-4.199,3.38-8.26,3.9-12.811c0.69-6.319,0.81-12.699,1.28-19.029c0.3-3.62,1.18-6.91,3.1-10.01
	C144.6,173.69,155.56,171.77,164.07,166.93z"/>
<path fill="#7E584A" d="M127.3,167.72c-1.36,3.67-3.54,6.81-4.4,10.68c-0.23,0.94-0.46,1.87-0.68,2.82
	c-0.73,0.66-1.47,1.31-2.21,1.97c0.12-3.3,0.62-6.31,1.51-9.48C123.48,171.53,124.84,169.31,127.3,167.72z"/>
<path fill="#380905" d="M129.14,174.88c-0.54,0.98-1.09,1.93-1.74,2.84c-0.65,0.89-1.32,1.77-1.92,2.7c-2.03,3.87-3.11,8.02-4,12.27
	c-1.76-3.44,0.09-7.85,0.74-11.47c0.22-0.95,0.45-1.88,0.68-2.82C124.92,177.12,126.93,175.84,129.14,174.88z"/>
<path fill="#825D50" d="M125.48,180.42c0.73,1.99-0.11,3.56-0.65,5.47c-1.07,3.3-1.65,6.68-2.25,10.09
	c-0.36-1.09-0.73-2.19-1.1-3.29C122.37,188.44,123.45,184.29,125.48,180.42z"/>
<path fill="#653522" d="M269.029,196.4c5.181,3.79,11.16,6.29,17.58,6.84c-0.779,3.029-0.789,6.06-0.76,9.16
	c-0.43,0.02-0.859,0.039-1.289,0.06c-0.34-1.149-0.69-2.3-1.041-3.45c-4.289,5.051-4.68,10.73-6.939,16.631
	c-0.46,1.459-1.63,1.879-2.75,2.77c-0.32-6.189,0.71-11.6-1.6-17.551C270.359,206.17,269.04,201.49,269.029,196.4z"/>
<path fill="#471704" d="M114.64,208.35c1.99,6.43,3.13,13.57,6.36,19.51c0.77-0.219,1.54-0.439,2.31-0.659
	c0,0.95-0.01,1.899-0.03,2.84c-1.65-0.05-3.3-0.11-4.95-0.17c-0.49-3.31-0.81-6.931-1.99-10.08c-0.31-0.99-1.02-1.729-2.13-2.22
	c0.23,2.18,0.52,4.35,0.8,6.52c-0.93-0.05-1.86-0.1-2.78-0.15c-0.19-4.619-0.19-9.239-0.22-13.859
	C112.89,209.5,113.76,208.92,114.64,208.35z"/>
<path fill="#5A301E" d="M158.98,208.77c8.33-0.84,17.81,1.09,25.13,5.221c0.47,1.73,0.8,3.47,1.04,5.24c-1.74,0.149-3.3,0.01-5-0.4
	c-7.44-1.74-15.52-3.25-23.17-2.641c-6.18,0.621-10.2,4.351-15.27,7.301l-2.05,0.1C143.67,216.38,150.32,209.51,158.98,208.77z"/>
<path fill="#5A301E" d="M240.02,208.939c8,1.021,14.461,7.86,18.15,14.601l-1.98-0.11c-4.799-2.66-8.5-6.13-14.18-7.09
	c-5.859-0.77-12.08,0.09-17.88,1.11c-3.79,0.6-7.63,2.09-11.38,1.829c0.21-1.819,0.54-3.569,1.04-5.329
	C221.67,209.75,231.15,207.689,240.02,208.939z"/>
<path fill="#471704" d="M283.52,209.01c0.351,1.15,0.701,2.301,1.041,3.45c0.43-0.021,0.859-0.04,1.289-0.06
	c-0.109,3.879-0.81,7.47-1.32,11.359c-0.909,0.16-1.829,0.32-2.739,0.471c0.26-2.201,0.601-4.381,1.01-6.551
	c-0.79-0.119-1.409,0.311-1.88,1.291c-1.68,3.27-1.92,7.35-2.87,10.899c-1.399,0-2.81,0.01-4.22,0.021v-1.48
	c1.12-0.891,2.29-1.311,2.75-2.77C278.84,219.74,279.23,214.061,283.52,209.01z"/>
<path fill="#404040" d="M134.19,226.279c8.38-0.969,16.49-0.709,24.81-0.34c7.69-0.09,15.46,0.621,23,2.051
	c3.06,0.51,4.91,1.859,6.98,4.05c2.89-1.2,5.87-2.521,9.01-2.88c4.05-0.26,7.73,0.98,11.21,2.939c4.76-5.35,11.04-4.699,17.54-5.56
	c5.09-0.81,10.14-0.42,15.26-0.7c7.48-0.32,15.18-0.49,22.609,0.551c2.281,0.649,5.531,1.129,5.791,4.06
	c0.57,5.479,0.539,11.17,0.08,16.649c-0.65-5.08,0.119-9.689-0.931-14.58c-0.34-1.5-1.18-2.81-2.64-3.42
	c-3.9-1.67-8.721-1.82-12.91-1.879c-6.98,0.01-14.04-0.031-21,0.549c-5.85,0.48-12.42,0.32-18.02,2.25
	c-2.01,0.641-3.351,2.58-4.78,4.041c-3.38-0.701-6.761-2.041-10.19-2.291c-4.01-0.109-7.9,1.28-11.43,3.07
	c0.08,4.49,0.38,8.78-0.08,13.26c-0.69-4.779,0.4-9.879-1.19-14.27c-0.67-2.03-2.27-3.27-4.26-3.891
	c-6.23-2.029-12.62-1.649-19.07-2.239c-5.61-0.479-11.34-0.46-16.98-0.479c-4.9,0.039-9.8,0.039-14.54,1.43
	c-2.34,0.49-3.28,3.149-4.7,4.869c-0.06-1.49,0.05-2.93,0.33-4.34C129.41,227.24,132.04,226.75,134.19,226.279z"/>
<path fill="#FFCC99" d="M115.44,228.88c0.04,2.17,0.06,4.341,0.27,6.511c-1.9-0.82-3.79-3.32-5.85-1.41
	c0.81,0.649,1.63,1.289,2.44,1.939c-3.56,5.18-2.82,10.92-1.91,16.801c1.09,5.379,3.65,11.409,6.26,16.229
	c1.96,2.81,3.8,4.909,7.31,5.649c0.53,2.99,0.98,5.99,1.36,9.01c-5.44-1.219-7.23-6.439-10.55-10.399
	c-6.01-7.53-7.88-16.86-8.98-26.21c-0.42-4.971-0.34-11.33,2.63-15.59C110.16,229.05,112.64,228.58,115.44,228.88z"/>
<path fill="#FFCC99" d="M147,228.7c10.59,0.11,21.36,0.22,31.86,1.71c2.12,0.47,5.51,1,6.65,3.061c1.14,2.719,0.79,6.199,0.89,9.1
	c-5.51-2.74-10.49-5.7-16.56-7.131c-9.85-2.629-20.78,0.521-29.73,4.82c0.59,1.551,0.7,3.07,2.89,2.18
	c8.16-3.149,16.15-5.529,25.01-4.049c6.77,0.899,12.04,4.06,18.44,6.159c-0.35,2.89-0.11,6.12-1,8.9c-1.77,3.42-7.07,4.5-10.54,5.09
	c-9.38,1.08-19.01,0.819-28.43,0.36c-3.92-0.311-8.41-0.601-11.98-2.36c-2.03-1.03-3.65-2.62-3.91-4.99
	c-0.57-5.47-0.7-11.069-0.54-16.569c0.15-1.83,0.31-3.881,2.31-4.631C136.9,228.73,142.22,228.82,147,228.7z"/>
<path fill="#FFCC99" d="M254,228.689c4.029,0.19,8.74,0.17,12.45,1.91c1.909,0.9,1.87,3.601,2,5.4c-0.04,5.5-0.07,11.16-0.9,16.6
	c-1.25,4.07-6.17,4.84-9.659,5.95c-11.4,0.78-23.24,1.21-34.611-0.04c-3.329-0.6-8.199-1.6-10.119-4.71
	c-1.189-2.819-0.87-6.399-1.189-9.43c6.199-2.12,11.409-5.149,18.02-6c8.55-1.41,16.68,0.84,24.55,3.97
	c2.021,0.77,2.2,0.061,3.479-1.43c-1.899-1.76-4.149-2.4-6.51-3.32c-7.22-2.55-14.92-4.14-22.52-2.359
	c-6.26,1.27-11.381,4.289-17.01,7.06c0.039-2.88-0.25-6.521,1.08-9.149c1.699-2.07,5.399-2.57,7.92-2.971
	C231.91,228.88,243.01,228.721,254,228.689z"/>
<path fill="#FFCC99" d="M281.391,229.221c3.129-0.861,6.1-0.48,8.109,2.26c3.09,4.51,3.02,11.299,2.471,16.52
	c-0.9,7.061-2.391,14.75-5.98,20.99c-2.43,3.8-5.211,7.43-7.891,11.06c-1.289,1.87-3,2.65-5.05,3.45c0.341-2.95,0.81-5.87,1.28-8.8
	c3.27-1.25,5.029-2.94,6.96-5.81c4.41-8.531,7.75-17.101,6.729-26.92c-0.22-2.32-1.359-4.051-2.479-6.021
	c0.83-0.65,1.66-1.3,2.489-1.95c-0.969-0.75-1.84-0.93-2.6-0.561c-2.199,1-3.979,3.211-5.68,4.881c0.359-0.92,0.98-1.721,1.87-2.391
	C281.73,233.68,281.54,231.46,281.391,229.221z"/>
<path fill="#3A3A3A" d="M117.85,232c2.48-0.029,4.96-0.029,7.45,0c-0.18,0.859-0.36,1.71-0.54,2.57c-2.19,0.01-4.38,0.01-6.56,0
	C118.08,233.71,117.97,232.85,117.85,232z"/>
<path fill="#333333" d="M272.891,231.99c2.189-0.02,4.379-0.03,6.569-0.01c-0.08,0.93-0.34,1.77-0.771,2.52
	c-1.779,0.15-3.59,0.08-5.369,0.061C273.18,233.71,273.029,232.85,272.891,231.99z"/>
<path fill="#7D3528" d="M115.71,235.391c0.64,1.609,1.08,3.09,1.1,4.85c-1.4-1.53-2.89-3.02-4.51-4.32
	c-0.81-0.65-1.63-1.29-2.44-1.939C111.92,232.07,113.81,234.57,115.71,235.391z"/>
<path fill="#7D3528" d="M285.43,233.439c0.76-0.369,1.631-0.189,2.6,0.561c-0.829,0.65-1.659,1.3-2.489,1.95
	c-1.819,1.34-3.22,3.04-4.5,4.88c3.03,5.311,5.04,13.15,1.149,18.48c1.17-5.49,0.82-10.781-2.199-15.641
	c-0.66,0.391-1.33,0.79-1.99,1.18c0.82-2.129,1.221-4.32,1.75-6.529C281.45,236.65,283.23,234.439,285.43,233.439z"/>
<path fill="#FFCC99" d="M207.33,236.05c0.04,4.229-0.03,8.45-0.189,12.681c-0.69,5.879-0.94,13.689,2.649,18.74
	c-0.04-2.851-0.29-5.681-0.521-8.521l1.451,0.42c4.229,3.59,9.959,4.3,15.279,4.8c10.971,0.67,22.08,0.641,33.01-0.561
	c5.53-0.739,10.53-2.58,13.11-7.899c-0.681,10.21-2.95,20.14-4.14,30.29c-1.301,10.529-2.83,20.82-5.94,31.01
	c-1.569,4.9-4.399,9.461-7.61,13.45c-7.74,7.899-16.34,13.479-25.38,19.63c-3.85,2.58-8.29,4.53-12.5,6.48
	c-4.62,2.25-10.489,2.38-15.55,2.72c-5.99,0-12.4-0.28-18.1-2.261c-4.31-1.859-8.62-3.85-12.6-6.34
	c-9.25-6.16-18.14-12.01-26.07-19.899c-4.39-5.149-7.6-11.181-9.08-17.8c-3.8-13.9-4.49-27.91-7.05-42.01
	c-0.96-5.36-1.48-10.771-2.02-16.19c1.9,5.989,7.23,7.91,12.91,8.771c9.6,1.069,19.36,1.109,29.01,0.84
	c5.4-0.211,11.53-0.61,16.49-2.93c2.92-1.4,5.31-3.641,5.91-6.941c0.8-6.1,0.45-12.219,0.7-18.25
	C196.9,233.811,201.46,233.79,207.33,236.05z"/>
<path fill="#DF8F6B" d="M112.3,235.92c1.62,1.301,3.11,2.79,4.51,4.32l0.08,0.83c-2.71,4.32-3.83,8.859-3.05,13.949
	c0.03,1.26,0.47,2.131,1.32,2.61c-0.4-5,0.05-9.68,2.76-14.021c0.94,1.881,2.16,3.541,3.53,5.131c-0.26,8.52,1.24,16.73,2.11,25.15
	c-2.95-0.891-4.68-3.021-6.91-4.94c-2.61-4.82-5.17-10.851-6.26-16.229C109.48,246.84,108.74,241.1,112.3,235.92z"/>
<path fill="#DF8F6B" d="M285.54,235.95c1.12,1.97,2.26,3.7,2.479,6.021c1.021,9.819-2.319,18.389-6.729,26.92
	c-2.08,1.939-3.94,3.899-6.66,4.959c1.011-8.01,2.511-15.709,2.11-23.85c-0.2-1.939,0.55-3.43,1.26-5.15
	c0.66-0.39,1.33-0.789,1.99-1.18c3.02,4.859,3.369,10.15,2.199,15.641c3.891-5.33,1.881-13.17-1.149-18.48
	C282.32,238.99,283.721,237.29,285.54,235.95z"/>
<path fill="#471704" d="M119.06,237.02c1.42-0.029,2.83-0.06,4.25-0.08c0.34,3.19,0.33,6.17-0.07,9.36
	C119.8,244.71,119.69,240.25,119.06,237.02z"/>
<path fill="#471704" d="M273.43,237.2c1.211-0.14,2.44-0.229,3.66-0.29c-0.08,3.41-0.57,7.72-3.97,9.48
	C273.07,243.34,273.061,240.23,273.43,237.2z"/>
<path fill="#7D3528" d="M116.89,241.07c0.33,0.85,0.67,1.699,1.03,2.539c-2.71,4.341-3.16,9.021-2.76,14.021
	c-0.85-0.479-1.29-1.351-1.32-2.61C113.06,249.93,114.18,245.391,116.89,241.07z"/>
<path fill="#E0906C" d="M154.01,245.18c4.3,0.771,9.26,0.67,13.2,2.62c-5.37,0.49-10.68-0.51-16.21-0.67
	c-1.66-0.18-3.51,0.101-4.82-1.13C147.99,244.221,151.7,245.05,154.01,245.18z"/>
<path fill="#E0906C" d="M250.95,245.12c0.5,1.37,0.18,1.97-0.97,1.8c-6.41,0.16-12.86,1.34-19.26,0.88
	c2.92-1.479,5.93-1.62,9.1-2.09C243.609,245.2,247.109,244.57,250.95,245.12z"/>
<path fill="#75291F" d="M207.141,248.73c0.56,4.08,0.59,7.47,3.58,10.64l-1.451-0.42c0.23,2.84,0.48,5.67,0.521,8.521
	C206.2,262.42,206.45,254.609,207.141,248.73z"/>
<path fill="#353535" d="M128.55,253.49c2.62,1.97,4.54,4.18,7.82,5.07c5.57,1.899,10.9,1.26,16.63,1.729c4.01,0.29,7.99,0.271,12,0
	c4.86-0.38,9.27,0.08,14-1.41c3.3-0.819,5.79-2.729,8.63-4.489c-0.12,2.539-2.23,3.939-4.27,4.969c-4.05,1.861-8.96,2.32-13.36,2.57
	c-9.34,0.42-18.7,0.291-28.02-0.41c-4.68-0.47-9.32-1.229-12.6-4.93C129.09,255.561,128.81,254.529,128.55,253.49z"/>
<path fill="#883E2F" d="M213.891,276.77c3.01,1.871,4.729,5.69,4.09,9.181c-0.76,1.64-2.36,2.69-4.131,2.89
	c-2.119,0.04-3.369-1.29-5.029-2.38c-0.791-0.01-1.58-0.021-2.37-0.04c-1.47,3.38-5.53,6.46-9.32,5.41
	c-2.96-1.051-5.2-3.98-7.25-6.27c-2.44,1.989-4.64,4.399-8.03,2.67c-4.44-2.25-1.7-8.99,1.59-11c-0.67,2.199-1.71,4.369-2.1,6.649
	c0.18,1.69,1.04,2.32,2.67,2.64c2.13-0.84,3.92-2.52,5.91-3.67c1,0.641,2,1.28,3,1.93c1.66,2.101,3.73,6.091,6.99,5.111
	c2.24-1.091,3.58-3.311,5.04-5.221c0.989-0.6,2-1.189,3-1.779c1.64,1.149,3.25,2.459,5.021,3.369c1.659,0.59,3.209-0.449,3.119-2.27
	C215.96,281.529,214.529,279.15,213.891,276.77z"/>
<path fill="#D57A5C" d="M192.92,284.779c4.29,1.24,7.77,1.341,12.03-0.109c-1.46,1.91-2.8,4.13-5.04,5.221
	C196.65,290.87,194.58,286.88,192.92,284.779z"/>
<path d="M164.02,297.641c1.53,0.199,2.37,1.959,3.96,2.229c10.09,2.521,20.64,3.64,31.02,4.01c9.91-0.25,20.51-1.479,30.18-3.68
	c1.86-0.24,2.711-1.41,3.93-2.671c1.69,0.4,5.521,1.75,4.48,4.101c-0.609,0.55-1.47,0.78-2.59,0.7
	c-4.26,8.449-8.48,17.109-13.67,25.029c-6.09,8.451-16.57,10.281-26.35,9.301c-6.87-0.67-13.37-3.391-17.38-9.23
	c-5.21-8-9.77-16.66-14.13-25.15c-1.23-0.159-3.27,0.421-3.36-1.389C160.09,299.279,162.71,298.04,164.02,297.641z"/>
<path fill="#FAFAFA" d="M167.27,302.96c14.02,3.069,28.92,5.08,43.24,3.31c7.02-0.64,13.87-1.729,20.74-3.33
	c-1.02,1.871-2.12,3.701-3.15,5.561l-2.52-0.08l-0.25,1.12c-0.98-0.04-1.96-0.09-2.939-0.149l0.029,1.069
	c-1.24,0.03-2.47,0.08-3.71,0.14c-2.39,1.631-6.271,0.7-9.05,0.971c-0.79,0.67-1.631,0.979-2.54,0.949
	c-7.28,0.121-14.57-0.08-21.84,0.09l0.44-1.219c-2.08-0.19-7.2,1.129-8.45-0.951c-0.93,0.061-1.86,0.131-2.8,0.19l0.22-1.19
	c-1.26-0.039-2.51-0.09-3.77-0.16C170.04,306.96,168.35,305.2,167.27,302.96z"/>
<path fill="#5C0202" d="M225.33,309.54l0.25-1.12l2.52,0.08c-2.57,6.109-6.129,12.24-9.81,17.74c-11.34,1.52-23.5,2.35-34.79,0.21
	c-1.09-0.22-2.18-0.45-3.27-0.681c-3.32-5.319-6.82-10.72-9.31-16.49c1.26,0.07,2.51,0.121,3.77,0.16l-0.22,1.19
	c0.94-0.06,1.87-0.13,2.8-0.19c1.25,2.08,6.37,0.761,8.45,0.951l-0.44,1.219c7.27-0.17,14.56,0.031,21.84-0.09
	c0.909,0.03,1.75-0.279,2.54-0.949c2.779-0.271,6.66,0.66,9.05-0.971c1.24-0.06,2.47-0.109,3.71-0.14l-0.029-1.069
	C223.37,309.45,224.35,309.5,225.33,309.54z"/>
<path fill="#949494" d="M180.23,325.77c1.09,0.23,2.18,0.461,3.27,0.681c11.29,2.14,23.45,1.31,34.79-0.21
	c-0.59,0.71-1.2,1.39-1.819,2.05c-11.58,1.351-22.911,1.94-34.441-0.28C181.42,327.279,180.82,326.529,180.23,325.77z"/>
<path fill="#FAFAFA" d="M182.03,328.01c11.53,2.221,22.861,1.631,34.441,0.28c-5.791,4.989-13.131,5.92-20.5,5.34
	C190.8,333.221,185.87,331.609,182.03,328.01z"/>
<path fill="#CB664D" d="M191.99,340.391c6.37,0.389,12.88,0.189,19.25-0.16c-0.67,2.609-4.51,2.689-6.7,3.22
	c-5.26,0.6-12.45,0.76-16.86-2.64C189.1,340.26,190.51,340.3,191.99,340.391z"/>
<path fill="#001A33" d="M157.83,351.67c0.39,6.03,0.79,11.76,3.06,17.43c1.15,2.95,3.02,5.18,3.72,8.301
	c-6.66-1.311-13.14-3.211-19.74-4.75l1.82-0.711c0.44-4.799-0.19-10.649,2.1-15.1C151.23,354.471,154.7,352.939,157.83,351.67z"/>
<path fill="#001A33" d="M240.17,351.71c3.38,1.45,6.689,3.31,9.57,5.601c2.3,4.35,1.67,10.699,1.289,15.469
	c-4.369,1.061-8.459,2.591-12.889,3.301c-1.16-0.03-2.32-0.07-3.48-0.13c1.39-4.07,3.35-7.72,4.3-11.95
	C240.04,359.88,239.939,355.92,240.17,351.71z"/>
<path fill="#001A33" d="M145.14,356.811c-0.56,5.149-1.05,10.279-1.31,15.449c-8.91-3.289-17.78-6.35-26.14-10.939
	C126.64,359.23,135.99,357.58,145.14,356.811z"/>
<path fill="#FFCC99" d="M169.85,356.04c5.62,2.56,10.46,5.69,16.34,6.72c8.11,1.561,16.66,1.53,24.81,0.28
	c5.9-0.75,11.65-4.37,17.08-6.771c0.71,6.94-4.03,12-9.609,15.221c-8.111,4.289-18.351,4.97-27.301,3.779
	c-7.88-1.189-15.74-4.399-19.92-11.58C169.77,361.29,169.8,358.779,169.85,356.04z"/>
<path fill="#001A33" d="M253.57,357.96c2.65-0.2,5.24,0.101,7.85,0.5c6.061,0.92,12.061,1.31,18.01,2.92
	c-8.13,4.16-16.6,7.511-25.229,10.49C254.04,367.23,253.93,362.59,253.57,357.96z"/>
<path fill="#E8C8B6" d="M227.65,378.27c0.14,1.41-3.75,0.84-4.541,0.44C223.71,377.359,226.63,377.57,227.65,378.27z"/>
<path fill="#E9C7B4" d="M182.81,379.609c-1.84,0.531-4.02,0.781-5.86,0.131C177.42,378.23,181.92,378.55,182.81,379.609z"/>
<path fill="#E7C4B0" d="M215.23,379.25c0.85-0.391,4.859-1.01,4.699,0.471c-1.34,0.739-3.289,0.369-4.699-0.031V379.25z"/>
</svg>
