<?xml version="1.0" encoding="utf-8"?>
<!-- Generator: Adobe Illustrator 16.0.0, SVG Export Plug-In . SVG Version: 6.00 Build 0)  -->
<!DOCTYPE svg PUBLIC "-//W3C//DTD SVG 1.1//EN" "http://www.w3.org/Graphics/SVG/1.1/DTD/svg11.dtd">
<svg version="1.1" id="Layer_1" xmlns="http://www.w3.org/2000/svg" xmlns:xlink="http://www.w3.org/1999/xlink" x="0px" y="0px"
	 width="400px" height="400px" viewBox="0 0 400 400" enable-background="new 0 0 400 400" xml:space="preserve">
<g>
	<g>
		<path fill-rule="evenodd" clip-rule="evenodd" d="M100.932,206.004c-7.793-10.701-15.665-21.347-23.31-32.153
			c-1.458-2.061-4.855-3.557-3.114-7.146c0.073-0.15-0.439-0.812-0.767-0.896c-7.078-1.833-12.254-8.879-20.566-7.431
			c-1.584,0.275-3.314-0.119-4.954-0.361c-1.783-0.263-3.178-1.161-3.213-3.171c-0.04-2.229,1.415-3.352,3.412-3.568
			c2.618-0.285,5.266-0.295,8.694-0.461c-3.604-2.419-7.302-2.721-10.494-4.201c-2.019-0.937-4.193-1.94-3.271-4.716
			c0.89-2.682,2.856-3.274,5.58-2.383c3.127,1.023,6.37,1.695,10.04,1.81c-3.093-2.473-6.25-4.868-9.256-7.441
			c-2.061-1.765-4.183-3.826-1.739-6.706c2.211-2.604,4.463-1.103,6.563,0.394c3.498,2.493,6.978,5.01,10.466,7.517
			c0.791-0.342,0.233-0.753,0.058-1.144c-1.751-3.389-3.6-6.73-5.221-10.18c-1.131-2.407-2.41-5.106,0.95-6.887
			c3.443-1.825,4.833,0.825,6.106,3.193c2.525,4.695,5.08,9.37,8.692,13.333c0.929,1.02,1.691,2.909,3.419,2.352
			c1.507-0.486,0.982-2.283,1.154-3.541c0.419-3.072,1.578-5.776,3.877-7.893c1.292-1.188,2.8-1.86,4.54-0.908
			c1.858,1.019,1.885,2.74,1.194,4.342c-1.754,4.069-1.337,7.921,0.002,12.078c1.438,4.465,0.088,9.228,0.191,14.285
			c3.373-1.792,5.127-0.051,7.056,2.35c9.26,11.523,18.31,23.237,28.851,33.665c0.813,0.488,1.606,0.999,2.235,1.726
			c8.712,10.484,17.82,20.674,25.463,31.985c3.273,4.844,7.615,5.354,12.631,4.799c2.072-0.229,2.729-1.124,1.218-2.896
			c-0.324-0.381-0.646-0.773-1.03-1.085c-9.16-7.421-12.095-17.531-12.457-28.765c0.105-0.766,0.382-1.447,0.964-1.979
			c0.239-2.906,0.161-4.904-2.835-7.361c-9.987-8.188-12.23-30.086-4.935-36.343c2.365-2.028,2.054-4.973,1.775-7.461
			c-1.006-8.984,2.187-17.325,3.557-25.932c0.717-4.505,3.437-8.109,7.536-9.966c3.826-1.733,6.085-4.565,8.44-7.814
			c5.772-7.959,14.251-11.461,23.608-13.398c15.8-3.271,30.84-0.751,45.509,5.152c0.118,1.424-0.719,1.106-1.191,1.181
			c-0.643,0.1-1.302,0.088-3.074,0.187c10.403,4.935,19.166,10.778,24.236,20.046c4.398,8.04,6.446,16.867,4.998,26.564
			c-1.056,7.068-3.216,13.809-4.352,20.8c-0.129,0.792-0.317,1.808,0.042,2.41c6.625,11.128,1.238,20.292-4.786,29.299
			c-1.188,1.775-2.898,3.201-4.368,4.788c-0.875,0.837-1.194,2.221-2.538,2.598c-0.361,0.15-0.737,0.271-1.108,0.385
			c-0.771,0.276-1.261,0.833-1.545,1.599c-0.934,3.536-2.063,6.999-3.111,10.487c-2.228,7.416-6.781,13.112-13.071,17.653
			c5.055,2.976,7.058,2.704,10.832-0.456c6.371-5.334,11.352-12.034,17.526-17.549c0.81-0.87,1.871-1.339,2.919-1.831l0.005-0.002
			c0.376-0.29,0.718-0.625,1.138-0.857c15.5-16.549,34.403-29.227,50.813-44.733c2.185-2.064,4.128-1.142,6.682-0.328
			c0.153-6.48,0.868-12.452,4.044-17.954c1.313-2.276,0.499-5.229,0.177-7.865c-0.222-1.811-0.033-3.403,1.925-4.039
			c1.836-0.597,3.235,0.341,4.298,1.757c1.992,2.652,2.672,5.642,2.216,8.932c-0.159,1.145-0.296,2.54,0.852,3.182
			c1.247,0.698,2.123-0.599,2.978-1.232c4.587-3.402,8.126-7.817,11.545-12.323c1.755-2.313,3.741-4.133,6.641-2.072
			c2.839,2.018,1.368,4.474-0.039,6.545c-2.323,3.42-4.864,6.691-7.313,10.025c0.326,0.816,0.865,0.217,1.316,0.198
			c3.7-1.845,7.39-3.713,11.104-5.526c2.316-1.131,4.482-1.371,5.926,1.377c1.362,2.593-0.22,4.184-2.107,5.352
			c-3.767,2.331-7.669,4.442-12.683,7.313c5.111-0.385,8.807-0.681,12.505-0.933c2.046-0.14,3.641,0.534,4.062,2.755
			c0.456,2.409-0.727,3.879-3,4.353c-3.708,0.773-7.449,1.391-11.191,2.716c2.58,0.61,5.174,1.173,7.737,1.848
			c2.069,0.545,3.107,2.025,2.725,4.104c-0.356,1.928-1.884,2.595-3.751,2.533c-0.499-0.016-1.051,0.127-1.489-0.039
			c-8.747-3.295-16.391,1.759-24.507,3.205c-0.327,0.059-0.875-0.026-0.959,0.139c-6.813,13.389-20.11,20.736-29.508,31.709
			c-0.679,1.452-1.69,2.653-2.814,3.775c-7.653,5.94-12.251,14.486-18.453,21.661c-4.239,5.379-9.041,10.291-13.117,15.807
			c-1.309,1.539-3.023,2.735-3.887,4.647c-0.341,0.8-0.474,1.655-0.033,2.398c5.625,9.482,7.054,20.617,11.996,30.367
			c0.634,1.4,1.219,2.811,0.979,4.403c-4.933,6.04-8.162,13.116-12.153,19.734c-2.957,4.904-8.834,6.236-13.85,8.216
			c-3.399,1.341-6.829,3.629-10.876,2.202c-2.29-6.647-1.121-13.438-0.7-20.171c0.643-10.273,1.899-20.503,2.478-30.779
			c0.247-4.387,1.254-8.544,2.469-12.688c0.512-1.745,1.351-4.063,3.451-3.583c2.057,0.469,0.963,2.787,0.959,4.353
			c-0.002,0.5,0.037,0.986,0.684,1.632c2.569-0.686,4.224-2.771,5.883-4.765c10.955-13.16,22.026-26.213,32.622-39.684
			c6.324-8.039,14.57-14.539,22.281-21.356c4.983-4.405,8.991-9.746,14.2-13.905c2.543-2.03,2.531-4.804,0.314-6.988
			c-3.082-3.036-4.828-8.442-10.862-6.817c-1.544,0.761-2.557,2.05-3.441,3.471c-7.948,6.793-15.77,13.732-24.03,20.153
			c-14.512,11.28-26.793,24.857-39.262,38.241c-1.654,1.776-2.086,2.95,0.754,3.734c1.207,0.333,2.002,1.207,1.855,2.593
			c-0.176,1.656-1.434,2.104-2.798,2.356c-3.03,0.56-5.973-0.243-8.901-0.761c-3.302-0.583-4.826,0.019-4.652,3.924
			c0.23,5.162-1.115,10.24-2.332,15.243c-1.019,4.193-2.5,4.79-6.528,3.078c-2.897-1.23-5.592-2.95-8.845-3.258
			c-3.688-0.349-5.782,1.24-6.044,4.927c-1.023,14.425-1.967,28.844-0.375,43.306c0.656,5.955,0.299,11.967,0.151,17.952
			c-0.04,1.619-0.121,3.434-2.269,3.948c-0.57-0.018-1.04-0.243-1.416-0.671c-0.848-1.328-0.97-2.839-0.909-4.331
			c0.529-12.979-0.924-25.904-1.046-38.865c-0.067-7.156,1.264-14.227,1.215-21.393c-0.026-3.862,1.865-6.8,5.144-9.151
			c4.645-3.33,8.075-7.713,9.283-14.054c-5.084,15.414-35.992,14.843-41.198,1.662c2.47,6.352,4.065,8.719,9.64,12.658
			c3.123,2.207,4.518,4.849,4.862,8.681c1.791,19.938,0.931,39.848-0.21,59.765c-0.067,1.173-0.29,2.313-1.047,3.277
			c-0.785,0.573-1.6,0.584-2.442,0.135c-1.452-1.777-1.15-3.899-1.189-5.957c-0.02-1.18,0.141-2.339,0.399-3.485
			c0.983-5.123,0.272-10.309,0.543-15.457c-0.102-1.151-0.089-2.301-0.014-3.45c-0.094-9.653,0.189-19.311-0.115-28.962
			c-0.154-4.873-1.02-9.538-5.049-12.921c-5.942-4.187-9.933-9.609-10.746-17.045c-0.09-0.825-0.27-1.756-1.21-1.972
			c-1.169-0.269-2.075,0.57-2.304,1.485c-1.475,5.899-1.444,11.886,0.156,17.706c0.703,2.556,2.747,0.747,4.134,0.207
			c3.02-1.175,5.812-3.607,9.345-1.462c0.88,1.701-0.689,1.997-1.568,2.445c-2.963,1.511-5.906,3.074-8.946,4.423
			c-4.415,1.959-6.145,1.206-6.937-3.639c-0.882-5.395-1.952-10.824-1.532-16.345c0.206-2.702-0.682-3.662-3.427-3.042
			c-2.752,0.622-5.554,1.091-8.371,1.313c-1.714,0.135-3.556-0.167-4.017-2.145c-0.432-1.857,1.205-2.65,2.604-3.094
			c2.959-0.938,2.473-2.026,0.876-4.164c-9.261-12.397-19.068-24.368-29.094-36.124c-7.326-8.589-14.463-17.358-22.13-25.659
			c-1.147-1.241-2.015-2.635-2.795-4.105c-0.651-1.268-1.419-2.45-2.504-3.399c-1.974-1.971-3.971-1.079-5.93-0.019
			c-1.61,0.872-3.126,1.906-4.582,3.017c-4.976,3.795-4.738,5.025-1.345,10.091c12.103,18.07,26.853,34.223,37.802,53.152
			c6.151,10.636,13.631,20.484,20.829,30.469c1.444,2.002,3.095,3.902,5.335,4.995c1.07-0.148,0.835-0.883,0.886-1.506
			c0.139-1.701-0.674-4.272,1.826-4.408c2.042-0.111,2.544,2.336,3.052,4.078c1.778,6.102,2.284,12.427,2.931,18.697
			c1.106,10.732,2.468,21.455,2.512,32.271c0.008,1.968,0.298,4.021-0.973,5.794c-0.29,0.19-0.676,0.428-0.91,0.291
			c-6.851-4.011-13.96-7.983-18.07-14.991c-4.547-7.754-6.889-16.571-10.38-24.847c-1.13-2.679-0.234-4.885,1.462-6.904
			c1.398-1.664,2.687-3.372,3.562-5.389c1.921-4.429,2.367-8.65-1.491-12.365c-9.7-13.981-18.552-28.522-28.059-42.633
			C101.784,208.143,101.08,207.202,100.932,206.004z"/>
		<path fill-rule="evenodd" clip-rule="evenodd" fill="#8D8E8E" d="M297.926,211.928c0.835-1.194,1.783-2.262,3.174-2.833
			c2.618,1.659,6.875-0.815,8.229,1.795c1.261,2.427-1.846,5.334-2.474,8.257c-0.896,4.174-1.593,7.97,1.904,11.565
			c1.496,1.537,1.816,4.204,2.719,6.337c1.033,2.441,0.787,4.243-1.686,5.905c-2.273,1.529-4.519,3.356-5.83,6.435
			c2.811,1.047,5.6,0.455,8.266,0.418c6.681-0.092,12.693,2.211,18.625,4.822c1.288,0.566,3.068,1.371,3.001,3.012
			c-0.072,1.755-2.046,1.31-3.217,1.646c-6.271,1.802-11.972,4.816-17.577,8.055c-1.357,1.575-3.026,2.77-4.75,3.899
			c-6.504,4.525-12.816,9.276-18.191,14.851c7.541-0.811,14.322,1.532,20.848,5.022c1.677,0.933,3.345,1.878,4.109,3.796l0.05,0.042
			c0.182,0.373,0.474,0.624,0.86,0.77c0.774,1.952,5.357,1.854,2.967,5.511c-3.694-0.391-6.789,1.719-10.206,2.468
			c-5.468,0.938-10.288,3.33-14.712,6.603c-2.402,1.778-3.094,3.647-0.649,6.061c1.897,1.872,2.803,4.429,3.973,6.779
			c0.194,0.397,0.342,0.817,0.471,1.24c0.234,0.828,0.456,1.663,0.607,2.516c0.027,0.451-0.145,0.805-0.536,1.044
			c-2.341,1.549-4.057-0.585-5.963-1.155c-4.597-1.374-9.163-2.698-14.883-2.862c4.947,4.672,9.629,8.578,12.494,14.011
			c0.805,1.524,2.361,3.058,0.32,4.797c-0.568,1.114-1.617,1.621-2.675,2.111c-5.895,2.733-10.494,6.938-13.837,12.467
			c-1.943,3.214-4.436,4.748-8.369,5.174c-10.18,1.103-18.893,5.068-23.74,14.881c-1.877,3.798-4.641,4.356-8.213,2.549
			c-1.479-0.748-3.008-1.396-4.486-2.151c-3.703-1.939-6.958-4.546-10.028-7.307c-4.964-4.463-10.563-6.447-17.261-6.214
			c-6.887,0.24-7.072-0.226-5.898-6.897c0.377-2.141,0.448-4.301,0.163-6.442c-0.743-5.572-4.125-8.151-9.665-7.356
			c-5.722,0.82-10.711,3.356-15.304,6.757c-3.215,0.964-3.422-1.612-4.157-3.556c-1.719-4.544-2.142-4.631-6.207-1.855
			c-3.953,2.698-7.369,6.098-11.437,8.645c-3.801-0.434-2.753-3.121-2.251-5.263c0.804-3.428,2.607-6.479,4.286-9.541
			c1.529-2.788,0.525-4.013-2.342-4.313c-5.682-0.593-11.039,0.286-15.466,4.131c-3.386,2.94-6.633,6.051-9.231,9.78
			c-2.872,4.123-4.372,4.402-8.692,1.864c-1.865-1.097-3.613-2.382-5.471-3.499c-3.853-1.778-4.798-5.019-4.474-8.896
			c0-2.128,0-4.256,0-6.385c-0.87,0-1.206-0.064-1.507,0.012c-1.563,0.393-2.246,3.2-4.045,2.134
			c-1.501-0.89-0.713-3.072-0.646-4.651c0.408-9.673,5.593-16.805,12.64-22.852c-5.974-5.117-11.786-6.723-19.335-4.53
			c-3.493,1.014-4.488-0.071-4.858-3.131c-0.239-1.977-0.884-3.932-0.913-5.902c-0.1-7.008-2.498-11.641-10.494-11.529
			c-2.747,0.038-2.981-1.693-1.454-3.659c1.118-1.438,2.382-2.763,3.581-4.139c0.729-1.809,2.266-2.777,3.841-3.705
			c0.561-0.342,1.144-0.648,1.728-0.955c0.379-0.224,0.773-0.418,1.17-0.608c0.598-0.317,1.205-0.613,1.829-0.887
			c0.428-0.205,0.867-0.371,1.313-0.528c6.608-2.516,13.486-3.194,20.465-2.752c3.729,0.237,4.622-0.999,3.557-4.56
			c-1.903-6.361-4.541-12.384-7.6-18.247c-0.93-1.505-1.616-3.082-1.438-4.91c-4.97-9.726-12.235-17.646-19.827-25.322
			c-1.115-1.127-3.383-2.17-2.747-3.76c0.824-2.055,3.243-0.83,4.886-0.718c2.961,0.201,5.948,0.643,8.817,1.395
			c2.7,0.708,4.876,0.24,6.855-1.606c0.642,0.699,1.283,1.398,1.925,2.098c-0.69,2.587,2.051,3.115,2.876,4.794
			c0.481,0.979,1.89,1.861,1.004,3.024c-0.87,1.142-2.189,0.4-3.185-0.142c-3.517-1.917-7.143-3.574-10.935-4.862
			c-1.43-0.485-2.919-0.634-5.017-0.777c6.695,6.96,12,14.421,17.162,22.013c6.761,9.943,10.519,21.082,13.54,32.548
			c0.969,3.679-1.009,4.27-4.134,3.951c-10.239-1.042-20.292-0.654-29.611,4.487c-2.789,1.539-2.795,1.528-5.028,4.493
			c8.406,3.665,8.348,3.676,10.119,13.405c1.311,7.204,0.099,6.872,8.064,6.658c5.21-0.14,9.84,1.28,14.071,4.235
			c3.679,2.569,3.962,4.226,0.871,7.614c-3.132,3.435-6.91,6.406-8.378,11.02c-0.756,2.374-3.971,5.518,1.944,6.542
			c2.468,0.427,2.018,3.887,2.031,6.17c0.029,4.842,1.597,8.576,6.051,11.193c2.965,1.742,4.766,1.898,7.146-0.944
			c4.839-5.778,10.273-10.908,17.965-12.852c5.875-1.484,11.519-1.464,16.861,1.782c2.03,1.87,1.394,3.883,0.266,5.884
			c-0.98,1.738-2.04,3.432-3.318,5.934c3-2.603,5.614-4.503,8.511-5.98c2.814-1.435,5.454-1.177,6.844,1.7
			c1.847,3.821,4.157,3.487,7.226,1.801c2.342-1.286,4.983-1.867,7.59-2.438c10.64-2.326,18.934,5.055,17.401,15.932
			c-0.529,3.759,0.342,4.584,3.886,4.54c5.693-0.071,10.709,2.116,15.087,5.743c4.111,3.406,8.406,6.534,13.093,9.128
			c2.35,1.299,4.086,0.999,5.415-1.374c5.568-9.948,14.865-13.854,25.455-15.5c2.55-0.396,4.169-1.639,5.644-3.612
			c3.805-5.092,7.952-9.874,13.853-12.681c2.998-1.427,2.815-3.4,1.036-5.584c-3.061-3.756-6.507-7.119-10.452-9.967
			c-1.181-0.853-2.709-1.78-1.985-3.59c0.57-1.427,2.108-1.461,3.432-1.572c5.563-0.468,10.943,0.547,16.897,2.339
			c-0.887-2.431-2.332-3.825-3.771-5.233c-3.914-3.829-3.752-4.926,0.453-8.67c7.034-6.261,15.063-10.277,24.128-11.07
			c-8.261-6.752-17.916-7.982-28.173-6.46c-1.35,0.2-2.716,0.103-3.229-1.576c4.288-6.39,10.043-11.407,15.885-16.226
			c8.624-7.113,18.3-12.612,29.353-17.108c-5.912-2.711-11.358-4.151-17.221-3.287c-5.741,0.845-11.621,0.942-17.143,3.054
			c-0.782,0.299-1.635,0.269-2.465,0.055c-1.755-0.856-1.148-1.938-0.3-3.046c5.979-2.826,11.674-5.885,15.987-11.284
			c2.094-2.621,2.919-4.795,1.217-7.532c-3.689-5.936-5.544-11.999-2.463-18.824c0.696-1.542-0.178-2.493-1.889-2.66
			C300.914,213.131,299.144,213.438,297.926,211.928z"/>
		<path fill-rule="evenodd" clip-rule="evenodd" fill="#EEEEEE" d="M148.99,352.958c3.367-4.422,8.104-7.226,12.435-10.506
			c2.828-2.142,4.479-1.636,5.697,1.94c0.626,1.84-0.571,4.967,2.824,5.449c3.597,1.342,4.338,4.496,4.308,7.681
			c-0.053,5.542,2.808,8.402,7.705,10.221c13.963,5.184,28.376,7.943,43.225,8.576c1.317,0.056,2.652-0.051,3.852,0.664
			c2.953,0.585,5.348,3.567,8.297,2.988c3.223-0.633,3.293-4.6,4.979-6.947c5.604-7.809,13.625-11.002,22.64-11.85
			c3.636-0.342,5.554-1.669,7.38-4.644c4.101-6.683,9.572-11.898,17.54-13.799c-0.294,9.344-6.768,14.446-13.556,19.022
			c-9.906,6.679-20.224,12.729-30.946,18.022c-4.491,2.217-9.332,3.077-14.416,3.297c-18.361,0.794-35.916-2.712-52.984-9.2
			c-6.831-2.598-12.265-6.102-11.033-14.811c0.396-2.805-0.871-5.45-3.518-6.627c-2.779-1.235-5.576-0.4-7.883,1.589
			c-6.565,5.655-9.664,12.854-9.546,21.505c0.05,3.75,1.083,8.352-3.521,9.94c-3.978,1.374-6.546-2.114-9.182-4.637
			c-2.3-2.202-4.396-4.565-5.959-7.312c-2.87-5.038-6.775-8.926-11.801-11.823c-3.924-2.263-7.063-5.374-9.61-9.21
			c-3.216-4.842-4.24-9.586-0.801-14.688c0.674,3.271,1.841,6.23,5.027,7.907c2.063,4.563,5.384,7.926,9.713,10.393
			c5.971,3.402,10.031,8.636,13.637,14.322c0.94,1.482,1.865,3.693,3.97,3.256c2.146-0.446,2.028-2.841,2.24-4.59
			c0.537-4.414,2.468-8.258,4.551-12.071C145.329,355.049,146.841,353.646,148.99,352.958z"/>
		<path fill-rule="evenodd" clip-rule="evenodd" fill="#FEE486" d="M322.707,210.446c10.076-5.792,19.542-11.257,29.031-16.681
			c6.927-3.96,13.942-7.77,20.797-11.85c2.497-1.486,4.105-1.702,5.496,1.252c1.166,2.478,0.815,3.781-1.86,4.995
			c-16.048,7.275-32.006,14.746-48.021,22.096C326.772,210.892,325.353,212.135,322.707,210.446z"/>
		<path fill-rule="evenodd" clip-rule="evenodd" fill="#F2F2F2" d="M297.9,327.942c-0.058-0.26-0.052-0.519,0.017-0.776
			c-0.45-0.649-0.281-1.533-0.813-2.152c-0.146-0.285-0.211-0.588-0.192-0.908c0.194-2.761,2.409-2.041,3.971-2.171
			c2.042-0.17,2.822-1.349,2.084-2.952c-3.197-6.945,0.928-11.547,4.915-16.244c3.562-1.45,7.259-1.912,11.073-1.506
			c-7.73,2.314-11.198,12.354-6.815,19.501c0.934,1.523,1.666,3.227,2.182,4.94c1.123,3.727-1.924,7.039-5.688,6.01
			C304.986,330.688,301.473,329.209,297.9,327.942z"/>
		<path fill-rule="evenodd" clip-rule="evenodd" fill="#F1F1F1" d="M86.97,267.935c-0.201,0.146-0.426,0.21-0.673,0.193
			c-0.521,0.103-0.902,0.441-1.291,0.768c-0.25,0.138-0.518,0.2-0.802,0.188c-0.46,0.171-0.816,0.498-1.196,0.79
			c-1.642,1.098-3.284,2.195-4.926,3.294c-1.518-18.947,9.635-29.414,24.865-37.152c0.684,1.328,1.369,2.656,2.053,3.984
			c0.413,2.711-1.952,3.076-3.505,4.053c-4.495,2.825-8.499,6.104-11.858,10.32C86.292,258.571,85.13,262.875,86.97,267.935z"/>
		<path fill-rule="evenodd" clip-rule="evenodd" fill="#FEE586" d="M75.494,239.372c-3.298,2.077-6.499,0.744-9.633,0.527
			c-16.513-1.146-33-2.673-49.5-4.01c-2.469-0.2-3.694-1.25-3.386-3.786c0.336-2.767,2.105-1.701,3.717-1.474
			c17.858,2.515,35.727,4.961,53.585,7.478C72.041,238.355,73.756,238.942,75.494,239.372z"/>
		<path fill-rule="evenodd" clip-rule="evenodd" fill="#FEE486" d="M349.79,256.699c5.474-2.386,11.537-2.11,17.254-3.41
			c6.115-1.391,12.374-2.153,18.579-3.139c1.14-0.181,2.323-0.208,3.479-0.15c2.418,0.12,2.102,2.272,2.438,3.723
			c0.334,1.436-0.843,2.06-2.122,2.135c-13.164,0.774-26.331,1.521-39.496,2.275C349.878,257.655,349.834,257.177,349.79,256.699z"
			/>
		<path fill-rule="evenodd" clip-rule="evenodd" fill="#EFEFEF" d="M308.039,270.225c1.49-1.281,3.094-2.364,5.021-2.883
			c1.96,6.929,4.763,13.656,4.031,21.156c-0.231,2.383-0.491,4.537-2.016,6.412c-1.385-0.916-2.77-1.831-4.154-2.747
			c-0.803-1.091-1.285-2.308-1.282-3.666c0.009-5.118-0.103-10.205-2.183-15.032C306.982,272.363,307.225,271.194,308.039,270.225z"
			/>
		<path fill-rule="evenodd" clip-rule="evenodd" fill="#FEE587" d="M123.359,151.527c-1.91-0.156-2.032-1.942-2.63-3.157
			c-3.959-8.041-7.814-16.135-11.749-24.188c-0.958-1.962-1.695-3.644,1.144-4.746c2.557-0.994,3.53,0.049,4.294,2.387
			c2.991,9.145,6.131,18.239,9.228,27.349C123.926,149.994,124.066,150.764,123.359,151.527z"/>
		<path fill-rule="evenodd" clip-rule="evenodd" fill="#FEE587" d="M56.145,198.82c-8.269-4.895-16.533-9.795-24.809-14.678
			c-1.872-1.104-1.397-2.338-0.324-3.688c0.994-1.251,1.744-3.246,3.821-1.538c7.504,6.169,15.397,11.896,22.343,18.707
			C56.832,198.022,56.488,198.422,56.145,198.82z"/>
		<path fill-rule="evenodd" clip-rule="evenodd" fill="#FEE587" d="M53.541,281.158c0.32,2.707-1.546,2.902-2.732,3.5
			c-7.547,3.802-15.146,7.5-22.725,11.241c-1.855,0.915-3.789,1.965-4.854-0.892c-0.968-2.593,0.702-3.451,2.833-4.185
			C35.195,287.68,44.289,284.424,53.541,281.158z"/>
		<path fill-rule="evenodd" clip-rule="evenodd" fill="#FEE588" d="M276.563,138.604c-0.99-1.213-0.134-2.197,0.343-3.209
			c3.101-6.586,6.174-13.187,9.34-19.741c0.973-2.013,1.832-4.876,4.95-3.309c3.554,1.785,0.335,3.732-0.493,5.161
			c-3.65,6.296-7.557,12.446-11.468,18.588C278.6,137.091,278.302,138.695,276.563,138.604z"/>
		<path fill-rule="evenodd" clip-rule="evenodd" fill="#FEE588" d="M347.583,300.029c6.684,2.269,13.39,4.459,20.025,6.845
			c2.221,0.798,1.408,2.633,0.842,4.229c-0.729,2.055-1.978,1.779-3.5,0.901c-5.61-3.239-11.25-6.429-16.866-9.659
			C347.479,301.997,347.173,301.419,347.583,300.029z"/>
		<path fill-rule="evenodd" clip-rule="evenodd" fill="#939393" d="M154.899,193.921c-0.017,0.727-0.033,1.452-0.05,2.179
			c-4.339,1.08-7.058-2.041-9.89-4.222c-3.214-2.475-6.053-3.45-9.825-1.285c-2.41,1.383-5.218,1.99-8.1,1.37
			c-0.825-0.331-1.101-1.011-1.161-1.828c4.358-1.867,9.328-2.06,13.288-5.087c1.835-1.403,3.017,0.469,4.148,1.533
			C146.708,189.78,150.402,192.474,154.899,193.921z"/>
		<path fill-rule="evenodd" clip-rule="evenodd" fill="#949595" d="M258.962,208.958c-0.641,0.695-1.282,1.392-1.923,2.087
			c-3.163-4.766-8.243-7.878-11.114-12.895c1.044-0.692,2.089-1.386,3.134-2.078c-0.455,1.836,0.966,2.648,2.048,3.555
			C254.277,202.283,256.768,205.491,258.962,208.958z"/>
		<path fill-rule="evenodd" clip-rule="evenodd" fill="#8B8B8B" d="M65.062,133.945c0.659,0.325,1.151,0.904,0.736,1.541
			c-0.402,0.616-0.72,0.146-0.794-0.397C65.023,134.707,65.042,134.326,65.062,133.945z"/>
		<path fill-rule="evenodd" clip-rule="evenodd" fill="#BABABA" d="M346.236,148.189c-0.415,0.786-1.094,1.145-1.814,0.603
			c-0.386-0.289,0.018-0.71,0.498-0.801C345.358,148.058,345.798,148.123,346.236,148.189z"/>
		<path fill-rule="evenodd" clip-rule="evenodd" fill="#949595" d="M260.104,208.099c-0.107,0.646-0.429,1.009-1.138,0.857
			C259.347,208.67,259.726,208.384,260.104,208.099z"/>
		<path fill-rule="evenodd" clip-rule="evenodd" fill="#EFEFEF" d="M315.986,295.722c-0.287-0.257-0.574-0.514-0.861-0.77
			C315.412,295.208,315.699,295.465,315.986,295.722z"/>
		<path fill-rule="evenodd" clip-rule="evenodd" fill="#001A33" d="M312.033,167c1.05-2.124,2.638-2.432,4.502-1.171
			c1.363,0.922,2.696,1.936,3.873,3.082c8.928,8.703,8.296,9.693-1.085,17.864c-4.717,4.108-8.987,9.009-13.813,13.134
			c-17.037,14.564-29.546,33.083-44.014,49.891c-3.355,3.898-6.808,7.723-10.391,11.411c-1.105,1.137-3.08,2.598-4.354,1.829
			c-1.681-1.013-0.734-3.25-0.261-4.96c0.221-0.8,0.624-1.552,0.001-2.331c-4.932,5.739-7.632,29.675-7.48,66.306
			c-0.132,2.334-2.203,2.229-3.634,2.709c-8.281,2.775-17.021,2.336-25.543,3.451c-1.528,0.201-3.454,0.17-3.894-2.104
			c2.061-7.651,1.037-15.383,0.553-23.091c-0.7-11.119-0.921-22.23,0.1-33.344c0.213-2.311,0.348-4.633,0.386-6.952
			c0.11-6.832,2.107-8.649,8.76-7.682c1.284,0.187,2.561,0.678,3.749,1.227c8.545,3.939,8.764,3.991,10.222-5.155
			c0.721-4.521,2.205-9.093,0.935-13.796c-0.753-2.79,0.918-2.026,2.501-1.792c3.921,0.581,7.861,1.038,11.805,1.44
			c1.099,0.112,2.642,0.273,2.772-1.319c0.136-1.639-1.344-1.576-2.505-1.635c-1.313-0.067-3.043,0.247-3.493-1.244
			c-0.433-1.435,1.251-2.178,2.13-3.099c8.043-8.411,15.896-17.021,24.238-25.125c11.88-11.542,24.888-21.79,38.053-31.826
			c1.034-0.789,1.888-1.813,2.825-2.729C310.708,169.729,312.165,169.179,312.033,167z"/>
		<path fill-rule="evenodd" clip-rule="evenodd" fill="#001A33" d="M155.926,316.3c0.508-22.012-3.325-54.126-7.408-60.762
			c-1.135,2.641-0.076,4.941,0.547,7.727c-5.132-0.048-7.546-3.715-9.718-6.858c-9.506-13.76-19.024-27.5-27.822-41.762
			c-6.489-10.518-14.73-19.958-22.242-29.84c-3.847-5.06-6.642-10.882-11.271-15.378c-1.682-1.634-0.307-3.204,0.655-4.401
			c2.962-3.688,6.941-6.057,11.142-8.117c2.605-1.278,4.043-0.12,5.136,2.094c-0.51,1.813,0.423,2.658,2.041,3.043
			c8.817,10.294,17.828,20.43,26.396,30.927c8.797,10.777,18.251,21.044,25.986,32.67c0.456,0.686,1.079,1.264,1.647,1.869
			c3.921,4.184,3.93,4.199-1.412,6.447c-0.907,0.382-2.152,0.522-1.867,1.804c0.254,1.141,1.479,1.349,2.468,1.189
			c3.259-0.521,6.496-1.178,9.744-1.769c2.713-0.493,4.616-0.675,4.191,3.422c-0.651,6.282,0.566,12.53,1.727,18.737
			c0.494,2.645,1.553,2.955,3.729,1.838c4.114-2.114,8.277-4.134,12.419-6.192l-0.022,0.025c6.515,2.483,6.809,8.268,6.935,13.811
			c0.221,9.722,0.028,19.453,0.008,29.181c-0.792,0.714-2.632,0.138-2.635,1.494c-0.003,1.359,1.838,0.785,2.63,1.497
			c-0.367,5.337,1.151,10.788-0.972,16.019c-2.299,0.982-2.404,1.965-0.001,2.949c0.013,2.021,0.026,4.043,0.039,6.064
			c-1.284,1.391-3.012,1.324-4.648,1.26c-4.869-0.195-9.615,0.474-14.239,1.924c-2.896,0.908-5.397,0.407-7.058-2.096
			C160.07,322.131,156.432,320.294,155.926,316.3z"/>
		<path fill-rule="evenodd" clip-rule="evenodd" fill="#FEFEFE" d="M155.969,333.013c-14.892-4.058-25.675-0.314-34.552,12.612
			c-2.144,3.122-3.34,2.548-6.14,1.097c-5.997-3.108-8.745-7.616-8.331-14.303c0.109-1.752,0.511-4.11-1.318-5.033
			c-1.687-0.85-2.378,2.058-4.711,2.179c0.26-7.593,3.378-13.636,8.571-18.83c5.905-5.907,5.814-5.997-1.832-9.81
			c-4.544-2.266-9.386-2.644-14.133-1.839c-3.657,0.621-4.278-0.823-4.555-3.767c-0.279-2.972-1.189-5.898-1.318-8.867
			c-0.198-4.534-2.451-6.447-6.8-6.6c-1.46-0.052-2.901-0.667-5.168-1.226c12.09-12.34,26.604-12.872,41.827-11.132
			c-4.441-23.197-16.685-41.983-33.029-58.621c5.713-0.198,6.158,0.095,11.355,1.854c3.741,1.267,7.004,3.481,11.252,5.444
			c-1.825-2.84-3.972-4.139-5.657-5.886c-1.985-2.058-0.091-2.119,1.426-2.185c3.656,3.657,5.892,8.281,8.634,12.57
			c6.472,10.121,13.06,20.168,19.601,30.245c3.862,7.279,2.665,13.866-3.125,19.478c-2.371,2.298-2.06,4.014-0.839,6.799
			c2.219,5.063,5.346,9.926,5.209,15.798c-2.243,1.877-4.402,0.684-6.517-0.251c-2.739-1.211-5.307-2.813-8.203-3.663
			c-3.74-1.098-6.374,0.15-8.208,3.978c3.304,1.04,6.509,1.103,9.476,2.122c15.646,5.601,28.671,15.035,39.686,27.333
			c4.494,5.018,4.529,5.952,1.717,10.21C158.915,333.796,157.487,334.101,155.969,333.013z"/>
		<path fill-rule="evenodd" clip-rule="evenodd" fill="#FECB98" d="M244.879,180.054c-2.561,10.971-5.185,21.927-9.014,32.54
			c-1.914,5.305-5.162,9.649-10.087,12.564c-9.099,5.386-17.829,11.693-29.249,11.032c-5.934-0.344-11.454-1.711-16.318-5.27
			c-5.921-4.331-11.374-9.18-16.188-14.719c-4.399-5.063-5.334-11.376-5.733-17.676c-0.546-8.617-0.604-17.266-0.852-25.9
			c-0.027-0.958-0.242-2.064,1.123-2.397c0.288-0.249,0.592-0.26,0.915-0.069c0.424,0.299,0.815,0.64,1.218,0.968
			c0.287,0.2,0.556,0.42,0.824,0.642c0.425,0.327,0.858,0.638,1.346,0.87c0.755,0.267,1.542,0.32,2.331,0.412
			c0.703,0.068,1.392,0.176,2.088,0.301c6.104,0.813,12.127,2.254,18.315,2.237c7.354-0.02,8.896-1.384,10.163-8.68
			c1.372-7.899,5.418-9.452,12.227-4.696c0.328,0.442,0.521,0.94,0.594,1.484c-0.157,2.075-0.271,4.159-0.658,6.21
			c-0.561,2.995-1.359,5.954-1.476,7.795c-0.015,1.897,1.05,1.06,0.409,1.242c-0.181,0.052-0.264-0.086-0.28-0.411
			c-0.049-0.975-0.241-1.975,0.53-2.799c7.456,3.595,15.515,4.318,23.564,5.483C235.675,181.942,240.152,180.398,244.879,180.054z"
			/>
		<path fill-rule="evenodd" clip-rule="evenodd" fill="#FECB98" d="M161.972,150.815c-0.903-0.463-2.299,1.562-2.872-0.569
			c-1.185-7.651,4.639-13.639,4.992-20.94c0.055-1.133,0.437-2.274,0.612-3.428c1.045-6.872,2.76-6.558,9.404-7.645
			c10.586-1.731,19.297,2.227,28.403,5.84c4.011,2.075,8.426,1.878,12.424,2.326c-2.673-0.921-6.033,0.34-8.926-1.394
			c0.546-2.222,2.2-2.277,3.61-2.276c7.613,0.008,15.259-0.767,22.807,0.998c3.765,0.88,7.26,2.357,10.516,4.385
			c2.348,1.461,4.189,3.507,4.26,6.379c0.176,7.121,0.357,14.233,1.123,21.323c0.162,1.5-0.152,2.986-1.193,4.204
			c-0.147,0.28-0.203,0.576-0.165,0.891c-0.225,0.27-0.51,0.419-0.864,0.429c-0.501-0.093-0.959-0.303-1.421-0.506
			c-0.313-0.117-0.615-0.263-0.913-0.412c-0.46-0.21-0.933-0.384-1.429-0.505c-0.353-0.057-0.693-0.14-1.04-0.229
			c-0.364-0.088-0.716-0.196-1.07-0.307c-0.965-0.271-1.947-0.254-2.935-0.211c-0.675,0.051-1.345,0.077-2.021,0.087
			c-1.732,0.021-3.456,0-5.152-0.391c-1.253-0.414-2.547-0.488-3.854-0.487c-5.479,0.154-10.969,0.305-16.422,0.414
			c-4.617,0.092-9.51-0.323-14.134-1.624c-9.204-4.027-19.095-4.621-28.875-5.733C165.211,151.249,163.545,151.422,161.972,150.815z
			"/>
		<path fill-rule="evenodd" clip-rule="evenodd" fill="#FEFEFE" d="M297.926,211.928c0.658-0.063,1.314-0.158,1.974-0.186
			c7.158-0.297,7.136-0.301,5.146,6.285c-1.378,4.561-1.931,8.975,1.448,13.124c1.211,1.486,1.69,3.562,2.543,5.349
			c1.132,2.371,1.303,4.377-1.608,5.661c-0.865,0.381-1.783,1.123-2.21,1.942c-3.211,6.166-9.298,7.856-15.147,9.943
			c-5.195,0.173-7.914,3.517-9.519,7.379c2.294-2.51,4.866-5.64,9.446-5.248c13.259-4.396,26.473-6.83,40.289,0.765
			c-17.939,6.716-32.888,16.434-44.96,30.377c-0.94,1.087-2.301,1.81-3.466,2.702c-0.871,2.222-2.743,2.775-4.862,2.928
			c-0.785-0.063-1.453-0.377-1.995-0.952c-0.373-1.3-0.747-2.6-1.12-3.899c-1.373-5.805-2.896-11.566-4.915-17.187
			c-0.667-4.393-0.435-8.725,0.853-12.983c1.244-3.689,1.354-7.755,3.586-11.128c0.226-0.401,0.482-0.789,0.737-1.172
			c0.344-0.588,0.634-1.206,0.885-1.844c2.445-5.798,6.925-9.406,12.4-11.661c-2.52,0.521-4.645,2.493-7.309,3.228
			c-0.74-0.09-1.431-0.228-1.077-1.256C284.993,226.411,289.737,217.702,297.926,211.928z"/>
		<path fill-rule="evenodd" clip-rule="evenodd" fill="#653522" d="M217.824,88.222c1.262,0.224,2.52,0.479,3.788,0.663
			c1.452,0.212,1.698-0.18,0.504,1.55c-1.797,2.601,2.795,0.611,2.84,2.604c-0.7,0.888-1.693,0.924-2.6,0.926
			c4.446,0.912,8.877,2.307,12.7,4.891c1.834,1.239,2.158,0.135,2.952-0.796c15.142,7.618,23.451,24.315,21.268,41.314
			c-0.551,4.283-1.679,8.374-2.348,12.587c-2.117,2.745-4.169,5.536-5.891,8.554c-0.4,0.701-0.786,1.729-1.705,1.472
			c-1.173-0.328-0.665-1.711-1.083-2.56c0.098-5.63-1.554-11.127-1.247-16.771c0.063-1.156-0.082-2.331,0.229-3.463
			c1.437-5.226,0.34-7.969-4.49-10.818c-6.299-3.716-13.247-5.104-20.442-5.349c-4.967-0.169-9.942,0.003-14.915-0.058
			c-0.537-0.005-1.069-0.059-1.599-0.15c-1.858-0.841-5.195-1.11-4.445-3.594c0.688-2.28,3.768-1.271,5.823-0.729
			c3.515,0.927,7.078,0.257,9.307,0.253c-3.53,0.705-8.271,0.285-12.856-1.342c-1.71-0.607-3.745-1.147-3.987-3.294
			c-0.24-2.127,1.6-3.148,3.105-4.157c5.133-3.438,10.668-5.77,15.271-5.52c-8.564,0.1-17.823,3.502-26.604,8.716
			c-3.242,1.925-7.036,2.967-10.936,3.172c-6.514,0.342-8.281-0.63-10.819-6.425c-1.702-3.887,1.14-6.56,2.804-9.512
			c0.87-0.619,1.959-0.819,2.85-1.423c0.466-0.314,0.53-0.164,0.448-0.205c-0.282-0.144-0.54-0.277-0.894-0.206
			c-0.381-0.086-0.684-0.271-0.927-0.552c5.276-6.264,12.603-8.306,20.192-9.807c0.83,0.551,1.957,0.038,2.733,0.762
			c0.113,0.104,0.16,0.28,0.318,0.572c-0.871,1.636-2.944,1.331-4.462,2.404c2.959-1.042,5.564-2.272,8.36-3.013
			C206.613,87.666,212.255,88.832,217.824,88.222z"/>
		<path fill-rule="evenodd" clip-rule="evenodd" fill="#F9F9F9" d="M189.982,323.983c0.588-15.984,1.372-31.968,0.938-47.969
			c-0.158-5.82-0.753-11.629-0.914-17.448c-0.075-2.699-1.862-3.49-3.698-4.727c-5.96-4.014-10.467-9.151-11.338-16.659
			c-0.12-1.028-0.771-2.63,0.816-2.965c2.047-0.433,1.068,1.516,1.448,2.39c0.33,0.758,0.39,1.652,0.793,2.357
			c5.132,8.964,13.688,9.626,22.606,9.104c8.925-0.522,14.75-4.721,16.602-11.7c0.287-1.083,0.035-2.648,1.821-2.214
			c1.602,0.39,1.036,1.951,0.911,2.948c-0.859,6.83-4.322,12.404-9.979,15.929c-4.087,2.547-4.672,5.85-4.988,9.896
			c-1.641,20.993,0.262,41.972,0.153,62.957c0.013,0.34,0.078,0.818-0.112,0.937C202.139,328.618,192.371,326.756,189.982,323.983z"
			/>
		<path fill-rule="evenodd" clip-rule="evenodd" fill="#FECB98" d="M323.979,134.916c4.854,3.897,7.278,20.191,4.51,28.164
			c4.031-2.884,3.726-6.641,3.396-10.364c-0.109-1.234-0.989-2.419,0.746-3.372c5.986-3.289,10.067-8.579,14.246-13.773
			c0.941-1.171,1.854-3.662,3.723-2.324c2.108,1.51-0.012,3.296-0.958,4.62c-2.414,3.379-5.062,6.592-7.596,9.886
			c-0.819,1.065-1.837,2.355-0.939,3.594c0.925,1.275,2.443,0.641,3.643,0.057c3.277-1.598,6.461-3.402,9.802-4.85
			c2.06-0.893,4.824-4.089,6.277-1.568c1.567,2.72-2.577,3.449-4.462,4.644c-3.216,2.039-6.688,3.671-9.995,5.574
			c-1.08,0.621-2.763,1.138-2.315,2.818c0.487,1.827,2.214,1.047,3.389,0.977c4.149-0.247,8.286-0.713,12.435-0.97
			c1.019-0.063,2.652-0.669,2.897,0.963c0.285,1.907-1.459,1.832-2.732,2.043c-3.933,0.652-7.865,1.3-11.8,1.937
			c-1.564,0.254-3.947-0.29-4.11,1.812c-0.207,2.659,2.521,2.018,4.123,2.437c2.886,0.754,5.829,1.29,8.721,2.021
			c0.891,0.226,2.163,0.492,1.905,1.816c-0.267,1.377-1.572,0.925-2.463,0.899c-1.153-0.031-2.303-0.295-3.45-0.483
			c-5.144-0.845-10.005-0.927-14.937,1.751c-6.205,3.369-7.479,1.986-12.552-2.628c-8.157-7.419-6.217-15.138-2.309-23.263
			C325.043,143.441,323.935,139.498,323.979,134.916z"/>
		<path fill-rule="evenodd" clip-rule="evenodd" fill="#FECB98" d="M80.004,138.969c2.347-2.101,1.787-5.213,2.629-7.827
			c0.846-2.627,1.883-4.849,5.156-5.94c-4.363,7.938,1.181,15.445,0.311,23.233c-0.447,3.998-0.911,7.538-5.097,9.386
			c-1.026,0.453-2.023,1.29-2.682,2.204c-3.631,5.043-8.025,4.238-11.869,0.916c-4.846-4.189-10.408-4.689-16.281-4.875
			c-1.684-0.053-3.744,0.768-5.155-1.695c3.771-2,7.806-1.029,11.635-1.414c1.58-0.159,3.933,0.616,4.387-1.346
			c0.591-2.556-2.173-2.499-3.717-3.066c-3.729-1.369-7.584-2.4-11.306-3.788c-0.986-0.367-3.04-0.516-2.211-2.532
			c0.684-1.665,2.016-0.564,3.015-0.32c3.542,0.867,7.035,1.939,10.593,2.725c1.648,0.363,3.936,1.728,4.934-0.321
			c0.857-1.758-1.464-2.663-2.681-3.668c-2.951-2.438-6.059-4.694-8.923-7.228c-1.415-1.251-4.873-2.315-2.911-4.643
			c1.861-2.208,3.675,0.98,5.277,2.024c3.336,2.176,6.375,4.804,9.68,7.033c0.943,0.636,2.265,1.871,3.592,0.604
			c1.281-1.222,0.275-2.47-0.316-3.616c-2.054-3.979-4.191-7.918-6.194-11.923c-0.614-1.229-1.963-2.887-0.082-3.886
			c1.846-0.98,2.525,0.934,3.204,2.211c2.737,5.146,5.612,10.203,9.643,14.473c0.893,0.945,2.068,1.623,3.113,2.424
			c1.917,3.409-2.299,6.388-0.708,9.302C77.046,144.587,77.056,141.294,80.004,138.969z"/>
		<path fill-rule="evenodd" clip-rule="evenodd" fill="#FDFDFD" d="M127.034,191.963c3.784-1.479,8.02-1.761,11.412-4.277
			c1.639-1.216,2.667-0.027,3.875,0.844c3.967,2.862,7.641,6.227,12.528,7.57c0.396,2.623,0.875,5.237,1.173,7.872
			c0.934,8.253,5.355,14.483,11.325,19.852c1.348,1.212,2.636,2.491,3.979,3.765c-6.329,3.891-14.047,3.083-18.05-2.468
			C145.019,213.669,135.419,203.3,127.034,191.963z"/>
		<path fill-rule="evenodd" clip-rule="evenodd" fill="#8B8C8C" d="M189.982,323.983c4.987,1.188,9.874,3.184,15.17,1.899
			c0.273,0.037,0.536,0.112,0.787,0.228c8.337,1.252,16.501-0.336,24.648-1.678c2.849-0.469,5.865-0.715,8.423-2.378
			c7.613-1.246,14.475-4.492,21.172-8.106c2.468-1.332,3.437-4.027,4.513-6.391c2.621-5.753,5.661-11.175,10.31-15.561
			c0.639,0.012,1.277,0.023,1.916,0.035c1.484,3.998-2.661,4.919-4.011,7.368c-1.932,1.541-2.685,3.981-4.335,5.718
			c-0.299,0.577-0.003-0.251-0.262,0.363c0.133-0.109,0.201-0.27,0.314-0.408c0.799-0.998,1.521-2.037,2.261-3.063
			c1.188-1.647,2.295-1.577,2.865,0.572c-1.385,6.313-5.515,10.623-10.854,13.597c-14.163,7.889-29.311,12.616-45.632,13.146
			c-1.327,0.043-2.661,0.082-4.075,0.531c0.289,1.229,1.612,1.432,2.235,2.271c2.843,2.905,5.872,5.663,7.988,9.179
			c0.824,1.368,2.4,3.129-0.691,3.925c-4.396-2.708-7.622-6.826-12.014-9.627c-10.555-6.731-22.121-8.735-34.322-8.121
			c-4.26,0.215-7.835,2.548-11.576,4.363c-1.441,0.699-3.201,2.881-4.903,0.169c1.953-2.484,1.403-4.451-0.662-6.804
			c-9.866-11.245-21.051-20.673-34.943-26.603c-1.796-0.767-3.51-1.728-5.261-2.599c2.906-2.165,5.603-0.124,8.329,0.496
			c1.89,0.43,3.593,1.512,5.823,2.097c-0.051-2.018-1.527-3.691-1.034-5.62c-2.291-6.564-3.981-13.383-8.222-19.115
			c-1.165-1.574-1.711-2.208,1.266-2.409c3.156-0.214,7.188-7.894,7.011-12.2c-0.115-2.791-0.732-5.562-1.125-8.341
			c6.317,4.918,4.446,11.415-0.942,18.302c-2.66,3.398-3.008,5.659-1.133,9.464c3.144,6.377,5.54,13.129,8.144,19.765
			c1.307,3.331,3.233,5.867,6.321,7.936c4.392,2.942,8.319,6.578,12.444,9.917c0.073,0.149,0.124,0.315,0.222,0.445
			c5.045,6.714,10.394,11.749,19.987,7.68c3.398-1.441,7.876-0.339,11.862-0.397C188.659,324.013,189.32,323.998,189.982,323.983z"
			/>
		<path fill-rule="evenodd" clip-rule="evenodd" fill="#461705" d="M173.924,98.001c0.405-0.004,0.81-0.009,1.215-0.013
			c0.404,1.114-0.35,1.577-1.137,2.021c-0.878,1.385-1.901,2.7-2.61,4.167c-2.602,5.386,0.984,10.731,7.045,10.866
			c6.259,0.139,11.88-2.08,16.841-5.344c7.973-5.244,16.522-6.364,25.717-5.263c-6.473,0.746-12.329,3.093-17.646,6.731
			c-1.121,0.768-3.304,1.044-2.816,2.973c0.398,1.575,2.344,1.546,3.699,2.089c4.725,1.893,9.702,1.866,15.337,1.85
			c-6.121,3.229-11.899,1.505-17.839,0.864c1.054,2.282,3.345,1.575,4.319,3.012c-4.677,2.064-13.063,0.647-16.747-3.504
			c-1.627-1.834-2.68-1.666-4.455-0.953c-4.406,1.77-8.915,2.236-13.503,0.691c-2.349-0.791-3.584,0.244-4.694,2.308
			c-0.971,1.805-0.759,3.858-1.71,5.595c-1.395-0.084-2.832-1.197-4.183,0.162c-0.48,0.032-0.87-0.137-1.178-0.503
			c-0.33-0.622-0.42-1.282-0.338-1.969c0.594-1.625,1.107-3.299,2.342-4.554c-0.024,0.034-0.283-0.118-0.302-0.078
			c-0.732,1.193-1.175,2.577-2.627,3.103c-2.274-0.733-1.142-2.721-1.526-4.15c0.934-1.339,1.868-2.677,2.802-4.015
			c0.073-3.338,2.955-4.346,5.01-6.04c2.336,1.125,2.626-0.465,3.275-2.169C169.391,102.784,170.764,99.711,173.924,98.001z"/>
		<path fill-rule="evenodd" clip-rule="evenodd" fill="#FDFDFD" d="M245.925,198.15c4.124,3.937,9.455,6.833,11.114,12.895
			c-5.521,5.725-10.934,11.561-16.596,17.144c-5.506,5.429-8.182,5.539-15.609,0.973c12.45-6.321,14.887-18.479,18.292-30.074
			c0.461-0.727,1.347-0.52,1.968-0.894C245.366,198.091,245.644,198.076,245.925,198.15z"/>
		<path fill-rule="evenodd" clip-rule="evenodd" fill="#1A1715" d="M161.972,150.815c0.583-0.25,1.179-0.747,1.746-0.715
			c10.978,0.62,22.015,0.963,32.192,5.934c-0.114,0.67-0.515,1.116-1.093,1.427c-0.911,0.371-1.099,1.073-0.884,1.961
			c0.268,0.371-0.265,0.998,0.411,1.228c-0.131-0.87,0.193-1.533,0.92-2.02c3.123-0.039,6.204-1.38,9.336-0.421
			c1.877,0.575,3.858,1.151,4.602,3.353c-0.147,0.836-0.575,1.451-1.389,1.763c-6.402-4.62-9.677-3.284-10.688,4.356
			c-0.991,7.492-3.005,9.403-10.65,9.303c-6.93-0.091-13.816-0.833-20.52-2.765c-0.511-0.781-1.155-0.869-1.914-0.37
			c-0.866,0.168-1.497-0.211-2.01-0.864c-0.15-0.76-0.792-0.66-1.322-0.755l0.145,0.108c-0.554-0.911-1.214-1.712-2.23-2.142
			c0,0-0.062,0.032-0.062,0.032c1.213-4.626-0.321-9.439,1.107-14.121C160.25,154.199,161.007,152.494,161.972,150.815z"/>
		<path fill-rule="evenodd" clip-rule="evenodd" fill="#633421" d="M159.972,123.968c0.005,0.675,0.01,1.35,0.016,2.024
			l-0.072,0.132l0.099-0.11c1.209-0.951,2.419-1.903,3.811-2.998c0.604,0.58-0.008,1.919,0.289,3.014
			c1.416,4.178-0.229,8.052-1.675,11.717c-1.366,3.46-2.891,6.884-4.309,10.34c-0.393,1.303,0.455,3.558-1.586,3.618
			c-2.193,0.065-1.204-2.229-1.615-3.49c-0.369-1.134,0.191-3.618-2.398-1.43c-0.555,0.47-0.407-0.919-0.441-1.422
			c-0.64-9.511,0.053-18.785,5.037-27.261c1.499,0.868,0.208,3.059,1.835,3.865C159.811,122.375,159.406,123.416,159.972,123.968z"
			/>
		<path fill-rule="evenodd" clip-rule="evenodd" fill="#1A1715" d="M235.957,158.168c0.647-0.035,1.296-0.069,1.943-0.104
			c0.325,0.267,0.668,0.508,1.029,0.724c1.006,0.169,1.926,0.95,3.028,0.423c0.286-0.094,0.579-0.131,0.88-0.111
			c0.328,0.209,0.556,0.498,0.684,0.865c0.354,0.507,0.952,0.581,1.457,0.823c0.481,0.331,0.906,0.715,1.177,1.245
			c0.461,5.492-1.949,10.937-0.29,16.474c0.114,0.383-0.638,1.026-0.986,1.548c-5.123,4.07-10.959,2.798-16.681,2.17
			c-7.345-0.807-14.958-0.72-21.072-5.926c-1.117-2.11-0.638-4.294-0.298-6.472c0.277-2.063-0.089-4.231,0.998-6.165
			c1.4,1.167,2.295,3.035,4.429,3.192c0.817,0.867,1.26,1.856,1.014,3.072c-0.264,0.363-0.571,0.686-0.908,0.973
			c-1.628,3.188,1.2,3.941,2.942,4.515c7.509,2.469,15.336,3.005,23.1,1.988c4.814-0.63,5.984-10.359,1.984-14.512
			c-0.354-0.926-0.884-1.091-1.622-0.368c-1.616,0.401-3.109-0.266-4.65-0.517c-1.438-0.359-2.857-0.896-4.384-0.502
			c-0.611,0.147-1.229,0.232-1.856,0.208c-0.409-0.036-0.809-0.129-1.2-0.248c-0.588-0.157-1.184-0.288-1.793-0.362
			c-1.05-0.108-2.121-0.146-2.98-0.886c-0.215-0.389-0.253-0.799-0.14-1.226c0.92-1.144,2.306-0.836,3.5-1.123
			c0.575-0.202,1.154-0.398,1.706-0.663c1.098-0.12,2.177-0.146,3.116,0.581c0,0,0.002,0.418,0.003,0.422
			c0.082,0.92,0.732-0.003,1.016,0.312C232.728,158.361,234.386,158.862,235.957,158.168z"/>
		<path fill-rule="evenodd" clip-rule="evenodd" fill="#FCC997" d="M180.3,234.716c11.367,5.628,22.789,6.126,34.326,0.07
			c-0.908,8.315-8.182,12.089-20.695,11.218C185.562,245.422,180.095,240.996,180.3,234.716z"/>
		<path fill-rule="evenodd" clip-rule="evenodd" fill="#001932" d="M182.015,252.987c-4.504-0.661-7.879,2.11-11.579,3.853
			c-1.965,0.926-2.963,1.319-3.589-1.652c-1.217-5.784-0.775-11.552-0.775-17.329c0-2.936,2.143-4.891,4.668-4.97
			c2.571-0.08,2.129,2.688,2.266,4.552c0.489,6.641,4.982,10.964,8.986,15.572L182.015,252.987z"/>
		<path fill-rule="evenodd" clip-rule="evenodd" fill="#001932" d="M228.96,243.065c0.551,3.734-1,7.359-1.229,11.143
			c-0.196,3.26-2.108,3.599-4.688,2.276c-0.441-0.226-0.905-0.407-1.351-0.626c-2.343-1.154-5.829-1.76-6.724-3.615
			c-1.041-2.157,2.675-3.716,3.809-5.877c1.769-3.374,3.416-6.78,3.257-10.767c-0.042-1.058-0.545-2.521,0.84-3.071
			c1.176-0.468,2.16,0.526,3.125,1.105C229.701,235.853,229.058,239.498,228.96,243.065z"/>
		<path fill-rule="evenodd" clip-rule="evenodd" fill="#23160E" d="M206.948,122.067c12.136-0.22,24.307-0.75,35.569,5.157
			c2.727,1.43,5.219,3.187,6.484,5.967c0.77,1.693,4.023,3.36-0.395,5.933c-2.185,1.271-1.042,6.932-0.348,10.455
			c0.688,3.492,0.763,6.914,0.692,10.399c-0.292,0.512-0.597,0.495-0.911,0.021c-0.303-0.005-0.606,0.002-0.909,0.02
			c0.407-8.64-2.075-17.157-1.009-25.849c0.337-2.744-2.23-3.934-4.133-5.133c-4.889-3.084-10.419-4.519-16.084-4.851
			c-6.297-0.369-12.633-0.084-19.007,0.526c4.122,0.44,8.244,0.881,12.694,1.356c-5.443,1.636-11.334,1.25-17.674-1.025
			c-0.384-1.505-0.21-2.555,1.737-2.551C204.754,122.495,205.94,122.868,206.948,122.067z"/>
		<path fill-rule="evenodd" clip-rule="evenodd" fill="#110A07" d="M206.948,122.067c-1.163,1.859-4.699-0.291-5.028,2.977
			c-4.356-0.503-8.329-2.306-11.838-4.651c-2.587-1.73-4.75-2.345-7.604-1.258c-3.357,1.279-6.92,1.206-10.241,0.181
			c-3.57-1.102-4.864,0.415-5.482,3.5c-0.875,4.362-1.568,8.777-2.732,13.063c-1.327,4.881-4.56,9.133-4.922,14.367
			c-0.324-0.721-0.648-1.441-0.972-2.161c-0.134-6.163,5.158-10.606,5.286-16.713c0.038-1.785,0.454-3.562,0.698-5.343
			c1.322-1.159,0.513-2.89,1.116-4.212c1.388-3.043,1.877-6.478,7.242-4.388c6,2.337,11.993-0.29,19.164-4.271
			c-3.828,4.38-1.629,5.479,0.821,6.584c4.345,1.959,8.884,2.572,13.595,2.212C206.352,121.978,206.65,122.015,206.948,122.067z"/>
		<path fill-rule="evenodd" clip-rule="evenodd" fill="#D28664" d="M245.223,191.031c1.084-4.626,2.159-9.251,3.129-13.904
			c0.811-3.896,2.938-7.517,4.481-11.259c1.914-0.575,3.638-0.846,3.881,1.96c0.754,8.706-2.049,16.134-8.04,22.402
			C247.751,191.196,246.658,192.002,245.223,191.031z"/>
		<path fill-rule="evenodd" clip-rule="evenodd" fill="#D78A68" d="M153.936,162.024c2.167,5.933,0.269,12.035,0.756,18.038
			c-2.118,0.914-2.977-0.562-3.826-2.028c-4.219-7.283-4.79-14.935-2.326-22.903c0.703-2.272,2.373-2.44,4.316-2.111
			c-0.027,2.301-0.054,4.602-0.081,6.903c-0.631,1.387-1.242,2.782-1.839,4.183c-0.429,0.578-0.541,1.228-0.421,1.928
			c0.028-0.755,0.007-1.521,0.556-2.147C151.844,162.979,151.627,160.556,153.936,162.024z"/>
		<path fill-rule="evenodd" clip-rule="evenodd" fill="#F7C594" d="M245.223,191.031c5.897-2.994,11-13.458,10.341-20.89
			c-0.179-2.02,0.349-4.221-2.729-4.274c-0.114-1.357,0.236-2.358,1.87-2.088c2.098,0.346,3.142,1.81,3.361,3.765
			c0.874,7.771-1.349,14.786-5.98,20.901c-2.005,2.646-3.917,5.738-7.516,6.916C243.676,193.629,245.033,192.423,245.223,191.031z"
			/>
		<path fill-rule="evenodd" clip-rule="evenodd" fill="#F5C493" d="M152.857,153.02c-4.486,1.018-3.503,5.114-4.287,8.027
			c-1.645,6.114,1.798,16.204,6.123,19.016c0.128,1.469,0.255,2.937,0.419,4.823c-3.901-1.146-4.521-4.56-5.902-7.071
			c-3.858-7.021-4.339-14.601-2.174-22.201C147.732,153.165,149.067,149.681,152.857,153.02z"/>
		<path fill-rule="evenodd" clip-rule="evenodd" fill="#E0E0E0" d="M274.968,245.951c-2.341,3.317-2.206,7.523-3.969,11.048
			c-3.651-1.022-5.336-3.439-5.109-7.21c3.871-5.662,8.513-10.679,13.155-15.695c0.258,0.278,0.517,0.557,0.774,0.834
			c1.08,1.83-0.552,2.667-1.461,3.63C276.371,240.662,275.254,243.1,274.968,245.951z"/>
		<path fill-rule="evenodd" clip-rule="evenodd" fill="#CACBCB" d="M265.89,249.789c1.209,2.754,2.932,5.144,5.109,7.21
			c-0.623,4.669-1.278,9.334-1.088,14.065c-3.702-5.16-7.161-10.433-7.856-16.983C263.333,252.65,264.611,251.22,265.89,249.789z"/>
		<path fill-rule="evenodd" clip-rule="evenodd" fill="#8A8B8B" d="M262.055,254.081c2.619,5.661,5.238,11.322,7.857,16.983
			c2.718,5.353,4.605,10.898,3.973,17.033c-2.955-3.742-4.07-8.355-5.215-12.744c-1.492-5.716-4.074-10.844-6.655-16.032
			C261.131,257.547,259.702,255.812,262.055,254.081z"/>
		<path fill-rule="evenodd" clip-rule="evenodd" fill="#825F50" d="M238.009,98.06c-1.059,0.513,0.344,3.508-1.839,2.416
			c-5.571-2.785-11.289-5.082-17.548-6.064c0.077-0.457,0.153-0.915,0.23-1.372c2.034,0,4.069,0,6.104,0
			C229.614,93.914,233.952,95.621,238.009,98.06z"/>
		<path fill-rule="evenodd" clip-rule="evenodd" fill="#7E5748" d="M200.061,90.089c-3.143,0.596-5.747,3.391-9.39,2.112
			c1.819-0.887,3.638-1.774,5.507-2.686c-0.754-0.483-1.408-0.903-2.062-1.321c6.029-0.643,12.04-2.208,18.117-0.354
			C208.35,89.539,203.838,87.825,200.061,90.089z"/>
		<path fill-rule="evenodd" clip-rule="evenodd" fill="#411706" d="M248.041,159.999c0.305,0.002,0.608-0.005,0.912-0.021
			c1.063,2.967,1.416,0.084,1.683-0.304c1.89-2.747,2.04-6.886,6.294-7.714c-0.038,2.593-0.717,5.072-1.728,7.401
			c-0.851,1.96-1.765,1.648-2.194-0.357l-0.016-0.013c-0.856,0.397-0.97,1.191-1.063,1.996c-0.296,0.344-0.596,0.686-0.898,1.024
			c-0.014,0.327-0.034,0.653-0.06,0.979c-0.981,0.689-1.962,0.694-2.942-0.004C248.033,161.992,248.037,160.996,248.041,159.999z"/>
		<path fill-rule="evenodd" clip-rule="evenodd" fill="#3E1A08" d="M80.004,138.969c-2.06,4.091-2.983,8.298-0.937,12.849
			c-2.899-2.409-3.476-5.198-2.615-8.501c0.45-1.726,1.765-3.252,1.296-5.203C78.5,138.398,79.252,138.684,80.004,138.969z"/>
		<path fill-rule="evenodd" clip-rule="evenodd" fill="#906F62" d="M200.061,90.089c0.379-2.408,2.36-1.934,3.883-2.031
			c2.756-0.178,5.524-0.155,8.288-0.217c1.864,0.126,3.729,0.253,5.593,0.381C211.973,89.51,205.983,89.483,200.061,90.089z"/>
		<path fill-rule="evenodd" clip-rule="evenodd" fill="#684131" d="M164.939,108.048c-1.67,2.013-3.339,4.025-5.009,6.039
			c-1.414-0.312-2.244,0.97-4.12,1.718C158.006,111.406,160.645,108.77,164.939,108.048z"/>
		<path fill-rule="evenodd" clip-rule="evenodd" fill="#1F252F" d="M188.931,298.995c-1.477,0.776-2.984,1.605-4.341-0.143
			c-0.663-0.853-0.662-1.858,0.003-2.711c1.361-1.745,2.868-0.907,4.344-0.138C188.934,297.001,188.933,297.998,188.931,298.995z"/>
		<path fill-rule="evenodd" clip-rule="evenodd" fill="#22252B" d="M312.033,167c1.191,0.701,2.472,1.579,1.187,3.006
			c-1.229,1.364-2.838,1.51-4.25-0.016C309.137,168.119,310.135,167.098,312.033,167z"/>
		<path fill-rule="evenodd" clip-rule="evenodd" fill="#2A2D33" d="M187.958,317.963c-1.151,0.566-2.324,1.379-3.387-0.12
			c-0.623-0.877-0.624-1.805-0.005-2.685c1.056-1.502,2.236-0.685,3.393-0.145C187.958,315.997,187.958,316.98,187.958,317.963z"/>
		<path fill-rule="evenodd" clip-rule="evenodd" fill="#27292F" d="M96.985,162.045c-1.366,1.479-2.641,1.023-3.52-0.421
			c-0.912-1.499-0.178-2.402,1.48-2.622C96.303,159.562,96.985,160.575,96.985,162.045z"/>
		<path fill-rule="evenodd" clip-rule="evenodd" fill="#401504" d="M155.481,156.496c2.072,2.422,1.393,4.053,1.268,6.196
			C154.337,160.8,155.031,159.168,155.481,156.496z"/>
		<path fill-rule="evenodd" clip-rule="evenodd" fill="#401504" d="M248.073,167.809c1.169,2.199,1.226,3.484-0.547,4.555
			C246.714,170.894,246.825,169.658,248.073,167.809z"/>
		<path fill-rule="evenodd" clip-rule="evenodd" fill="#964F3B" d="M153.936,162.024c-1.643-0.282-1.773,1.552-2.863,2.044
			l-0.139-0.114c-0.146-1.69,0.299-3.111,1.841-4.031C153.163,160.623,153.549,161.323,153.936,162.024z"/>
		<path fill-rule="evenodd" clip-rule="evenodd" fill="#434343" d="M157.545,154.585c-1.279,0.607-2.103,0.748-2.857-0.095
			C155.555,153.822,156.398,153.854,157.545,154.585z"/>
		<path fill-rule="evenodd" clip-rule="evenodd" fill="#444444" d="M249.311,165.09c0.304,0.077,0.795,0.073,0.866,0.245
			c0.29,0.698-0.359,0.653-0.722,0.653c-0.277,0-0.555-0.245-0.832-0.382C248.85,165.434,249.077,165.262,249.311,165.09z"/>
		<path fill-rule="evenodd" clip-rule="evenodd" fill="#23160E" d="M248.028,162.988c0.981,0.001,1.962,0.003,2.942,0.004
			C249.988,164.314,249.008,164.313,248.028,162.988z"/>
		<path fill-rule="evenodd" clip-rule="evenodd" fill="#100E0C" d="M246.155,162.032c-0.373-0.358-0.746-0.718-1.118-1.076
			c0.143-0.134,0.285-0.269,0.428-0.403c0.189,0.048,0.38,0.099,0.569,0.148c0.311,0.069,0.621,0.139,0.933,0.208
			C246.696,161.283,246.426,161.658,246.155,162.032z"/>
		<path fill-rule="evenodd" clip-rule="evenodd" fill="#949595" d="M245.094,198.193c-0.429,0.798-1.22,0.799-1.968,0.894
			C243.331,197.796,244.204,197.977,245.094,198.193z"/>
		<path fill-rule="evenodd" clip-rule="evenodd" fill="#23160E" d="M251.03,162.013c0.3-0.342,0.6-0.684,0.899-1.024
			C251.63,161.329,251.33,161.671,251.03,162.013z"/>
		<path fill-rule="evenodd" clip-rule="evenodd" fill="#F7F7F7" d="M214.995,333.003c-1.78-1.124-3.561-2.247-6.047-3.816
			c8.233-1.656,15.844-1.313,23.254-2.911c10.958-2.364,21.328-6.156,30.992-11.654c4.795-2.728,8.187-7.197,9.98-12.619
			c0.869-1.521-2.265-1.447-1.211-3.041c1-2.776,4.85-3.514,4.957-6.929c1.647-0.67,3.294-1.341,4.941-2.011
			c1.229,1.754,2.671,0.506,4.045,0.295c10.925-1.678,20.762,0.582,29.677,8.387c-3.221,0.713-6.026,1.299-8.814,1.957
			c-7.531,1.779-13.546,6.1-19.068,11.304c-1.759,1.657-2.004,2.669,0.311,4.105c3.154,1.957,5.282,4.865,6.532,9.037
			c-6.797-1.797-13.16-3.674-19.848-3.224c-0.767,0.052-1.665-0.242-2.462,0.967c2.811,2.364,5.796,4.614,8.457,7.198
			c2.132,2.07,3.901,4.52,5.771,6.85c1.777,2.216,2.027,3.844-1.281,5.116c-6.624,2.548-11.334,7.506-14.978,13.412
			c-1.451,2.353-3.012,3.361-5.846,3.665c-11.167,1.198-20.524,5.697-25.735,16.288c-1.256,2.554-2.529,2.688-4.552,1.466
			c-3.269-1.977-6.83-3.636-9.672-6.112c-7.394-6.439-15.182-11.47-25.45-9.641c-0.156-0.74-0.247-0.91-0.214-1.052
			c1.7-7.223,1.802-14.717-5.108-18.794c-5.928-3.498-12.722-0.699-18.525,2.248c-3.597,1.827-5.935,3.197-7.208-2.158
			c-0.78-3.286-2.923-4.099-5.925-1.851c-3.386,2.537-6.944,4.845-11.156,7.755c1.18-4.219,2.807-7.224,4.965-9.928
			c1.177-1.476,1.773-2.79,0.189-4.3c1.425,0.108,2.729-0.263,3.941-0.998c1.298,1.204,2.167-0.11,2.979-0.665
			c10.019-6.836,21.052-6.179,32.039-3.88c11.359,2.376,20.739,8.418,28.083,17.487c3.361,0.586,4.73,3.3,6.191,5.869
			c1.548,2.721,2.847,5.573,4.266,8.461c1.732-9.074-2.435-15.358-9.334-20.34C221.188,336.82,217.897,335.206,214.995,333.003z"/>
		<path fill-rule="evenodd" clip-rule="evenodd" fill="#E3E3E3" d="M229.034,376.983c-12.597,1.864-24.557-1.66-36.619-4.323
			c-4.89-1.079-9.477-3.008-14.053-4.972c-3.586-1.539-5.667-4.193-5.312-8.157c0.337-3.749-0.857-6.848-3.105-9.688
			c5.5-5.86,12.547-8.037,20.25-7.607c4.449,0.248,6.106,4.214,6.708,8.055c0.508,3.242,0.585,6.644-0.973,9.788
			c-0.833,1.679-0.728,3.214,1.594,2.795C211.286,360.388,219.595,369.919,229.034,376.983z"/>
		<path fill-rule="evenodd" clip-rule="evenodd" fill="#E3E3E3" d="M148.99,352.958c-4.486,4.89-7.508,10.412-8.108,17.195
			c-0.178,2.01-0.31,4.805-2.686,5.484c-2.778,0.794-4.085-1.792-5.199-3.747c-4.139-7.263-9.895-12.766-17.073-17.021
			c-3.292-1.952-6.22-4.62-5.784-9.159c3.458,1.228,5.953,5.483,9.406,5.035c3.577-0.463,4.409-5.318,6.848-7.973
			c6.075-6.609,12.935-10.776,22.256-9.74c5.568,0.618,5.895,1.321,3.348,6.091c-1.788,3.348-3.241,6.888-4.639,10.423
			C146.792,350.98,146.008,353.001,148.99,352.958z"/>
		<path fill-rule="evenodd" clip-rule="evenodd" fill="#E4E4E4" d="M86.97,267.935c-3.277-3.389-3.033-6.778-0.67-10.729
			c3.592-6.005,8.427-10.557,14.376-14.056c1.546-0.91,3.503-1.248,4.324-3.15c4.318,6.766,7.145,14.138,9.026,21.914
			c0.566,2.34,0.162,3.2-2.544,2.976C103.125,264.196,94.945,265.339,86.97,267.935z"/>
		<path fill-rule="evenodd" clip-rule="evenodd" fill="#E3E3E3" d="M308.039,270.225c2.803,7.07,3.553,14.411,2.884,21.938
			c-7.062-3.355-14.325-5.807-23.426-4.617C293.883,280.129,300.577,274.735,308.039,270.225z"/>
		<path fill-rule="evenodd" clip-rule="evenodd" fill="#E6E6E6" d="M307.881,302.738c-0.157,0.799-0.041,1.858-0.515,2.356
			c-4.306,4.525-5.428,9.346-2.616,15.243c0.945,1.982-0.295,3.923-3.282,2.986c-1.57-0.492-3.271-0.818-4.557,0.78
			c-2.115-3.111-3.431-6.785-6.55-9.19c-2.015-1.554-0.301-2.535,0.677-3.474C295.786,306.882,301.313,303.792,307.881,302.738z"/>
		<path fill-rule="evenodd" clip-rule="evenodd" fill="#E4E4E4" d="M289.999,256.178c-4.867,1.732-8.497,5.052-11.86,10.708
			c1.569-10.011,6.121-14.37,11.933-12.839C289.922,254.753,288.49,255.416,289.999,256.178z"/>
		<path fill-rule="evenodd" clip-rule="evenodd" fill="#E6E6E6" d="M297.104,325.014c0.775,0.526,0.913,1.294,0.813,2.151
			C297.646,326.449,297.375,325.731,297.104,325.014z"/>
		<path fill-rule="evenodd" clip-rule="evenodd" fill="#E4E4E4" d="M85.006,268.896c0.429-0.256,0.858-0.512,1.289-0.768
			C85.867,268.384,85.437,268.64,85.006,268.896z"/>
		<path fill-rule="evenodd" clip-rule="evenodd" fill="#E4E4E4" d="M83.008,269.874c0.397-0.264,0.795-0.527,1.194-0.79
			C83.805,269.348,83.407,269.61,83.008,269.874z"/>
		<path fill-rule="evenodd" clip-rule="evenodd" fill="#2C2E35" d="M230.663,276.055c-0.282,1.308-1.143,1.918-2.435,1.771
			c-1.041-0.119-1.913-0.731-1.84-1.857c0.089-1.361,1.098-1.923,2.383-1.791C229.829,274.284,230.534,274.899,230.663,276.055z"/>
		<path fill-rule="evenodd" clip-rule="evenodd" fill="#272A30" d="M168.922,275.698c-0.111,1.98-1.124,2.329-2.43,2.185
			c-1.06-0.117-2.054-0.621-2.049-1.765c0.008-1.761,1.361-2.063,2.798-2.018C168.528,274.141,168.841,275.037,168.922,275.698z"/>
		<path fill-rule="evenodd" clip-rule="evenodd" fill="#34363E" d="M187.888,278.653c-0.077,0.768-0.549,1.119-1.259,1.003
			c-0.68-0.111-1.214-0.672-1.001-1.295c0.155-0.454,0.83-0.956,1.325-1.018C187.763,277.243,187.843,278.014,187.888,278.653z"/>
		<path fill-rule="evenodd" clip-rule="evenodd" fill="#34363D" d="M185.652,260.697c-0.675-0.189-1.215-0.693-1.015-1.313
			c0.146-0.454,0.819-0.964,1.313-1.03c0.813-0.108,0.946,0.663,0.935,1.307C186.872,260.43,186.379,260.727,185.652,260.697z"/>
		<path fill-rule="evenodd" clip-rule="evenodd" fill="#EAEAEA" d="M132.162,292.982c1.138,2.362,2.275,4.726,3.743,7.773
			c-6.153-1.412-10.989-5.098-16.861-4.746c-2.454-0.335-4.903-0.704-7.363-0.99c-1.595-0.186-3.653,0.401-4.242-1.68
			c-0.486-1.715,1.371-2.478,2.313-3.559c3.292-3.775,6.975-2.71,10.869-0.999C124.365,290.429,127.634,293.472,132.162,292.982z"/>
		<path fill-rule="evenodd" clip-rule="evenodd" fill="#0B0907" d="M198.509,222.884c-8.122-0.571-13.83-3.284-16.881-10.936
			c-1.782-4.47-2.473-9.625-6.328-13.169c-0.577-0.531-0.307-1.25,0.323-1.618c0.882-0.516,1.671-0.498,2.741,0.011
			c11.087,5.271,22.888,6.369,34.964,5.749c1.85-0.095,3.591-0.479,5.31-1.169c0.811-0.325,1.654,0.095,2.155,0.819
			c0.428,0.618,0.189,1.142-0.388,1.678c-3.805,3.529-6.062,8.229-9.161,12.299C207.801,221.073,203.339,222.894,198.509,222.884z"
			/>
		<path fill-rule="evenodd" clip-rule="evenodd" fill="#A35C45" d="M209.151,187.809c1.595,2.234,2.484,3.792,1.164,5.629
			c-1.221,1.697-2.78,1.417-4.45,0.749c-1.159-0.463-2.302-0.112-3.359,0.443c-2.612,1.373-5.014,1.428-7.242-0.84
			c-0.992-1.009-2.421-0.874-3.752-1.033c-4.419-0.527-4.922-2.019-2.016-6.479c0.056,2.322-1.641,6.269,3.245,3.688
			c1.174-0.62,2.214,0.153,3.185,0.86c2.051,1.492,4.28,1.74,6.597,0.71c0.937-0.416,2.008-1.011,2.818-0.32
			C209.763,194.986,209.408,191.355,209.151,187.809z"/>
		<path fill-rule="evenodd" clip-rule="evenodd" fill="#100E0C" d="M211.697,166.986c-3.964,2.004-3.395-1.27-3.871-3.325
			l-0.014-0.337c0.407-0.458,0.814-0.916,1.223-1.374c0.148,0.128,0.296,0.256,0.442,0.373c0.416,0.564,0.843,1.1,1.542,0.273
			c0.331-0.515,0.655-1.001,0.94-1.5c0.368-0.856-0.714-1.963,0.443-2.699c0.435-0.206,0.88-0.315,1.355-0.351
			c2.749,0.345,5.699-1.013,8.222,1.032c0.003,0.252,0.004,0.503,0.004,0.755c-0.229,0.415-0.556,0.73-0.972,0.954
			C216.777,161.151,215.149,165.441,211.697,166.986z"/>
		<path fill-rule="evenodd" clip-rule="evenodd" fill="#D57A5C" d="M189.732,223.946c3.906,0.489,7.812,0.979,12.423,1.557
			C197.265,227.729,194.738,227.512,189.732,223.946z"/>
		<path fill-rule="evenodd" clip-rule="evenodd" fill="#793427" d="M206.828,169.826c0.1,2.157,0.198,4.315,0.298,6.472
			c-0.057,1.231,0.33,2.559-0.957,4.094C205.976,176.494,205.313,173.11,206.828,169.826z"/>
		<path fill-rule="evenodd" clip-rule="evenodd" d="M158.623,170.196c1.328,0.103,2.049,0.839,2.23,2.14
			C159.71,172.039,158.967,171.325,158.623,170.196z"/>
		<path fill-rule="evenodd" clip-rule="evenodd" d="M160.708,172.229c0.466,0.207,1.726-0.976,1.322,0.755
			C161.589,172.733,161.149,172.481,160.708,172.229z"/>
		<path fill-rule="evenodd" clip-rule="evenodd" d="M164.041,173.849c0.848-0.964,1.46-0.708,1.914,0.37
			C165.316,174.096,164.678,173.972,164.041,173.849z"/>
		<path fill-rule="evenodd" clip-rule="evenodd" fill="#603622" d="M167.725,148.662c3.978-7.716,9.191-10.329,16.102-8.938
			c2.411,0.484,4.852,1.175,7.055,2.235c2.24,1.079,6.138,2.154,4.748,5.183c-1.145,2.493-4.042-0.335-5.923-1.084
			C182.39,143.142,175.336,142.443,167.725,148.662z"/>
		<path fill-rule="evenodd" clip-rule="evenodd" fill="#5E3421" d="M239.825,155.347c-1.33,0.647-1.796-0.247-2.279-0.764
			c-5.063-5.41-11.257-6.298-18.232-5.045c-2.079,0.373-5.787,2.204-6.257-0.676c-0.495-3.029,3.619-3.277,6.039-3.75
			C229.67,143.05,235.376,145.904,239.825,155.347z"/>
		<path fill-rule="evenodd" clip-rule="evenodd" fill="#100E0C" d="M226.967,157.203c-0.367,0.285-0.734,0.57-1.102,0.856
			c-4.568,1.292-9.349-0.501-13.905,0.961l0.054-0.043c-1.137,1.488-2.573,2.069-4.263,1.075c-2.991-1.76-6.102-2.03-9.396-1.116
			c-1.771,0.492-2.737-0.483-3.332-2.01c0.295-0.298,0.591-0.595,0.887-0.893c5.399,0.131,10.639,1.98,16.165,1.123
			C216.999,156.393,222.002,156.833,226.967,157.203z"/>
		<path fill-rule="evenodd" clip-rule="evenodd" fill="#040404" d="M235.957,158.168c-1.82,1.452-3.918,0.536-5.891,0.689
			c-0.029-0.228-0.06-0.455-0.09-0.682l0.106-0.392C232.041,157.912,233.999,158.04,235.957,158.168z"/>
		<path fill-rule="evenodd" clip-rule="evenodd" fill="#100E0C" d="M241.958,159.21c-1.439,1.011-2.793,1.367-3.854-0.505
			c0.983-0.229,1.962-0.316,2.918,0.122C241.333,158.955,241.646,159.082,241.958,159.21z"/>
		<path fill-rule="evenodd" clip-rule="evenodd" fill="#CBA37C" d="M241.021,158.827c-0.973-0.04-1.945-0.081-2.918-0.122
			c-0.047-0.221-0.114-0.435-0.203-0.642C239.07,157.789,240.165,157.82,241.021,158.827z"/>
		<path fill-rule="evenodd" clip-rule="evenodd" fill="#100E0C" d="M245.037,160.956c-0.872,0-1.634-0.194-1.985-1.118
			c0.309-0.194,0.636-0.232,0.981-0.112c0.32,0.093,0.641,0.185,0.961,0.277c0.226,0.204,0.307,0.455,0.242,0.752L245.037,160.956z"
			/>
		<path fill-rule="evenodd" clip-rule="evenodd" fill="#CBA37C" d="M245.236,160.755c-0.063-0.256-0.144-0.507-0.242-0.752
			c0.347,0.233,0.693,0.466,1.04,0.698l-0.396,0.076L245.236,160.755z"/>
		<path fill-rule="evenodd" clip-rule="evenodd" fill="#CBA37C" d="M244.033,159.726c-0.321,0.087-0.648,0.124-0.981,0.112
			c-0.054-0.252-0.124-0.498-0.214-0.739C243.236,159.308,243.635,159.517,244.033,159.726z"/>
		<path fill-rule="evenodd" clip-rule="evenodd" fill="#939494" d="M274.968,245.951c-1.28-4.95,2.777-7.55,4.852-11.023
			c3.397-2.771,7.258-4.31,11.818-4.297c-6.257,3.695-13.236,6.533-15.703,14.263c-0.242,0.434-0.639,0.728-0.977,1.075
			L274.968,245.951z"/>
		<path fill-rule="evenodd" clip-rule="evenodd" fill="#E0E0E0" d="M274.958,245.969c0.325-0.358,0.651-0.717,0.977-1.075
			C275.608,245.252,275.283,245.61,274.958,245.969z"/>
		<path fill-rule="evenodd" clip-rule="evenodd" fill="#4A1B08" d="M188.036,103.021c-0.115-0.12-0.23-0.239-0.346-0.358
			c6.952-4.776,13.287-10.783,23.281-11.755c-3.266,2.744-7.087,2.54-9.744,6.06c8.646-0.304,16.514,0.659,23.74,4.753
			c-3.029-0.552-6.058-1.104-9.087-1.655c-8.707,0.411-17.368,1.229-25.929,2.933l0.07-0.042
			C189.378,103.544,188.717,103.596,188.036,103.021z"/>
		<path fill-rule="evenodd" clip-rule="evenodd" fill="#8E6C5F" d="M189.951,102.998c6.261-3.688,13.186-3.155,20.025-3.131
			c1.969,0.008,3.938,0.128,5.905,0.197c-3.729,2.299-8.199-0.226-11.953,1.837c-0.593,0.325-1.817-0.512-1.729,0.789
			c0.02,0.287,1.319,0.486,2.61,0.921c-8.06,2.197-14.984,5.824-22.913,6.791c3.771-2.216,7.541-4.433,11.41-6.707
			C192.168,102.601,190.98,103.252,189.951,102.998z"/>
		<path fill-rule="evenodd" clip-rule="evenodd" fill="#896658" d="M241.017,118.995c-4.521,1.375-8.504-2.529-13.104-1.191
			c2.857-0.354,4.979-3.536,8.147-1.872C238.472,115.725,239.965,117.002,241.017,118.995z"/>
		<path fill-rule="evenodd" clip-rule="evenodd" fill="#4D1E0A" d="M211.983,112.287c4.319,1.304,8.639,2.607,13.315,4.02
			C219.858,117.42,217.224,116.704,211.983,112.287z"/>
		<path fill-rule="evenodd" clip-rule="evenodd" fill="#4C1D0A" d="M241.017,118.995c-1.652-1.021-3.305-2.042-4.957-3.063
			c1.99-2.12,3.199,0.1,4.572,0.901c2.98,1.738,5.207,4.271,6.728,7.56C245.245,122.594,243.131,120.794,241.017,118.995z"/>
		<path fill-rule="evenodd" clip-rule="evenodd" fill="#835F51" d="M174.002,100.01c0.378-0.674,0.757-1.348,1.136-2.021
			c0.924-0.643,1.848-1.286,2.771-1.929C177.128,97.969,176.665,100.169,174.002,100.01z"/>
		<path fill-rule="evenodd" clip-rule="evenodd" fill="#815B4C" d="M243.047,108.92c2.261,0.395,4.135,1.366,5.174,3.593
			c-1.966-0.834-4.021-1.52-5.304-3.437L243.047,108.92z"/>
		<path fill-rule="evenodd" clip-rule="evenodd" fill="#7F5949" d="M242.917,109.076c-1.585,0.049-2.965-0.389-4.403-1.685
			c2.163-0.506,3.38,0.422,4.532,1.529C243.047,108.92,242.917,109.076,242.917,109.076z"/>
		<path fill-rule="evenodd" clip-rule="evenodd" fill="#8E6C5F" d="M188.036,103.021c0.662-0.022,1.323-0.044,1.985-0.065
			C189.391,103.927,188.737,104.208,188.036,103.021z"/>
		<path fill-rule="evenodd" clip-rule="evenodd" fill="#E1E1E1" d="M214.995,333.003c6.387,1.82,11.588,5.494,15.877,10.452
			c4.479,5.179,5.604,12.895,2.862,18.989c-3.47-5.985-5.216-12.911-10.724-17.487c1.803-2.211-0.724-3.015-1.547-4.153
			C219.487,338.073,217.173,335.588,214.995,333.003z"/>
		<path fill-rule="evenodd" clip-rule="evenodd" fill="#DCDCDC" d="M271.964,298.961c0.164,1.109,2.975,1.165,1.21,3.041
			c-3.079-0.446-2.424,4.022-5.212,3.96l0.063,0.054C268.682,303.298,270.153,301.034,271.964,298.961z"/>
		<path fill-rule="evenodd" clip-rule="evenodd" fill="#DCDCDC" d="M267.962,305.962c-0.094,0.448-0.188,0.896-0.281,1.344
			c-0.98-0.724-0.055-0.937,0.345-1.29L267.962,305.962z"/>
		<path fill-rule="evenodd" clip-rule="evenodd" fill="#785143" d="M159.972,123.968c-0.852-0.407-0.943-1.198-1.011-2.001
			c0.391-2.437,2.025-3.853,4.055-4.944l-0.042-0.043C162.794,119.661,160.923,121.617,159.972,123.968z"/>
		<path fill-rule="evenodd" clip-rule="evenodd" fill="#785143" d="M163.017,117.022c0.054-0.123,0.087-0.262,0.169-0.36
			c0.047-0.057,0.173-0.047,0.263-0.066c-0.158,0.128-0.316,0.256-0.474,0.384L163.017,117.022z"/>
		<path fill-rule="evenodd" clip-rule="evenodd" fill="#FBC997" d="M190.883,168.026c1.129,0.671,2-1.725,2.905-0.435
			c0.638,0.909,0.246,2.262-0.404,3.303c-1.666,2.664-4.529,2.89-7.078,2.772c-7.118-0.326-14.235-1.001-21.155-2.846
			c-3.277-0.874-5.134-2.939-4.436-6.625c0.154-0.812,0.133-1.658,0.181-2.49c0.508-8.807,1.171-9.308,10.36-7.474
			c-1.706,2.066-4.232,3.795-4.002,6.496c0.21,2.482,2.031,4.483,3.875,6.226c2.713,0.978,5.154,2.614,7.994,3.285
			c4.108,1.439,7.537-0.624,11.069-2.143C190.42,168.069,190.652,168.048,190.883,168.026z"/>
		<path fill-rule="evenodd" clip-rule="evenodd" fill="#FBFCFC" d="M171.989,166.016c-1.165-2.193-3.488-4.135-1.338-6.997
			c2.36-3.144,5.35-4.661,9.321-3.867c0.383,1.6-1.183,2.213-1.715,3.354c-0.973,2.091-1.438,4.088,0.649,5.78
			c1.517,1.229,3.241,1.757,5.005,0.61c2.001-1.302,2.847-3.094,1.851-5.491c-0.425-1.022-1.228-2.01-0.604-3.241
			c6.292,1.504,8.814,6.729,5.726,11.862l0.086-0.111c-2.85,2.21-6.076,3.231-9.678,3.058
			C177.726,170.192,173.877,169.942,171.989,166.016z"/>
		<path fill-rule="evenodd" clip-rule="evenodd" fill="#75A9DD" d="M185.157,156.164c2.714,3.135,3.789,6.444,0.121,9.491
			c-2.766,2.297-5.663,1.577-7.979-0.938c-2.537-2.755-1.544-6.069,2.671-9.566C181.848,154.73,183.506,155.427,185.157,156.164z"/>
		<path fill-rule="evenodd" clip-rule="evenodd" fill="#3C3A38" d="M195.022,156.927c0.398,0.276,0.814,0.815,1.192,0.789
			c5.333-0.367,10.443,2.032,15.799,1.262c-0.128,0.94,2.253,0.504,1.101,2.007c-0.5,0.404-1.107,0.609-1.672,0.897
			c-0.792,0.36-1.585,0.696-2.401,0.061l-0.007,0.008c-2.915-2.583-6.239-3.73-10.021-2.395c-1.628,0.575-2.882-0.053-4.262-0.528
			c-0.649,0.321-1.301,0.026-1.952,0.007c-0.758-0.726-1.074-1.611-0.302-2.413C193.357,155.728,194.178,156.779,195.022,156.927z"
			/>
		<path fill-rule="evenodd" clip-rule="evenodd" fill="#3B3228" d="M171.989,166.016c2.602,2.225,5.501,3.809,8.968,4.174
			c-0.181,2.028-1.547,0.965-2.507,0.961c-3.167-0.131-5.484-1.747-7.323-4.196C171.414,166.641,171.702,166.328,171.989,166.016z"
			/>
		<path fill-rule="evenodd" clip-rule="evenodd" fill="#CCA47B" d="M192.8,159.034c0.645-1.634,1.301,0.032,1.952-0.007
			c0.116,1.282,0.233,2.564,0.35,3.846c-0.206,0.068-0.412,0.137-0.618,0.204C193.922,161.729,193.361,160.382,192.8,159.034z"/>
		<path fill-rule="evenodd" clip-rule="evenodd" fill="#464646" d="M181.192,153.441c-0.644,0.763-1.861,0.752-2.057,0.278
			c-0.403-0.98,0.693-0.524,1.14-0.612C180.539,153.055,180.864,153.312,181.192,153.441z"/>
		<path fill-rule="evenodd" clip-rule="evenodd" fill="#461705" d="M160.014,126.014c-0.148,0.734-0.296,1.468-0.444,2.202
			c-0.129-0.088-0.338-0.149-0.375-0.267c-0.27-0.857,0.062-1.494,0.793-1.957L160.014,126.014z"/>
		<path fill-rule="evenodd" clip-rule="evenodd" fill="#CBA37C" d="M239.956,161.765c3.688,0.854,4.869,2.797,4.326,6.817
			c-1.432,10.62-1.854,11.123-12.732,10.675c-5.647-0.233-11.23-0.861-16.662-2.334c-2.942-0.798-5.53-2.236-5.078-6.222
			c0.34-2.999,1.833-0.303,2.642-0.738c0.104,0.359,0.34,0.571,0.716,0.636c0.323,0.182,0.616,0.398,0.898,0.639
			c0.306,0.237,0.592,0.488,0.886,0.739c0.159,0.123,0.305,0.253,0.467,0.377c0.349,0.246,0.675,0.504,1.015,0.758
			c7.456,3.72,11.054,3.372,16.829-1.645c2.511-2.026,3.031-4.404,1.454-7.284c-0.505-0.922-1.371-1.904-0.518-3.104
			c1.618,0.213,3.236,0.427,4.854,0.64C239.361,161.581,239.663,161.597,239.956,161.765z"/>
		<path fill-rule="evenodd" clip-rule="evenodd" fill="#FCFCFC" d="M211.697,166.986c2.037-3.693,4.034-7.443,9.257-6.801
			c0.32,1.58-1.115,2.302-1.717,3.421c-1.095,2.034-0.916,3.854,0.694,5.449c1.412,1.397,3.088,1.925,4.985,0.922
			c1.998-1.058,2.772-2.73,2.486-4.953c-0.181-1.399-1.432-2.745-0.235-4.222c0.618,0.012,1.237,0.023,1.856,0.036
			c5.89,1.251,8.064,5.568,5.226,10.371c-6.302,5.843-12.223,6.329-18.967,1.559c-0.463-0.237-0.889-0.529-1.278-0.875l0.101,0.104
			c-0.425-0.312-0.792-0.68-1.106-1.103l0.105,0.107c-0.338-0.247-0.466-0.576-0.384-0.987
			C212.379,169.006,212.038,167.996,211.697,166.986z"/>
		<path fill-rule="evenodd" clip-rule="evenodd" fill="#77ABDE" d="M227.168,160.803c0.367,0.892,0.686,1.809,1.112,2.672
			c1.513,3.061,0.511,5.536-2.027,7.332c-2.692,1.905-5.442,1.337-7.55-1.029c-2.155-2.422-2.002-5.128,0.048-7.629
			c0.616-0.751,1.462-1.313,2.202-1.963c0.345-0.117,0.688-0.234,1.031-0.352c1.347,0.121,2.692,0.241,4.039,0.361
			c0.416,0.162,0.661,0.75,1.243,0.499L227.168,160.803z"/>
		<path fill-rule="evenodd" clip-rule="evenodd" fill="#0E0C0A" d="M233.952,170.902c2.556-5.411-1.347-7.659-4.928-10.063
			c1.804-1.63,3.478-0.465,5.174,0.239c4.187,6.606,4.178,7.324-0.148,11.528C233.612,172.062,233.58,171.493,233.952,170.902z"/>
		<path fill-rule="evenodd" clip-rule="evenodd" fill="#414141" d="M211.96,159.021c4.516-2.065,9.284-0.473,13.906-0.962
			c-1.01,1.433-2.591,0.677-3.886,1.02C218.641,159.06,215.301,159.04,211.96,159.021z"/>
		<path fill-rule="evenodd" clip-rule="evenodd" fill="#100E0C" d="M229.977,158.176c0.011,0.23,0.041,0.458,0.09,0.683
			c-0.447-0.098-0.896-0.194-1.343-0.291C229.142,158.437,229.559,158.307,229.977,158.176z"/>
		<path fill-rule="evenodd" clip-rule="evenodd" d="M244.731,178.172c-0.117,0.035-0.235,0.07-0.354,0.105
			c-0.039-0.141-0.108-0.283-0.102-0.422c0.003-0.041,0.219-0.071,0.337-0.106C244.653,177.89,244.692,178.03,244.731,178.172z"/>
		<path fill-rule="evenodd" clip-rule="evenodd" fill="#CBA37C" d="M227.267,160.694c-0.414-0.166-0.829-0.333-1.243-0.499
			C226.438,160.361,226.853,160.528,227.267,160.694z"/>
		<path fill-rule="evenodd" clip-rule="evenodd" fill="#100E0C" d="M239.956,161.765l-0.457,0.078l-0.446-0.125
			C239.375,161.313,239.676,161.337,239.956,161.765z"/>
		<path fill-rule="evenodd" clip-rule="evenodd" fill="#0E0B09" d="M212.721,170.016c0.128,0.329,0.256,0.658,0.384,0.987
			c-0.651-0.073-1.174-0.229-0.655-1.041C212.451,169.963,212.721,170.016,212.721,170.016z"/>
		<path fill-rule="evenodd" clip-rule="evenodd" fill="#964F3B" d="M151.073,164.068c0,1.304,0,2.606,0,4.623
			c-1.512-2.133-1.344-3.464-0.137-4.736C150.935,163.954,151.073,164.068,151.073,164.068z"/>
		<path fill-rule="evenodd" clip-rule="evenodd" d="M252.992,158.992c0.128-0.444,0.256-0.888,0.384-1.332
			c0.128,0.089,0.256,0.178,0.384,0.266c-0.251,0.36-0.502,0.72-0.753,1.079C253.008,159.005,252.992,158.992,252.992,158.992z"/>
		<path fill-rule="evenodd" clip-rule="evenodd" fill="#E3E3E3" d="M252.959,331.049c8.885,0.121,11.321,7.373,14.645,13.476
			c1.076,1.977,0.793,4.638-1.552,5.584c-2.264,0.914-2.165-1.877-3.004-3.056c-2.52-3.54-5.847-6.237-9.048-9.076
			C252.818,335.793,251.218,333.672,252.959,331.049z"/>
		<path fill-rule="evenodd" clip-rule="evenodd" fill="#D0D0D0" d="M252.959,331.049c0.348,2.31,0.694,4.619,1.041,6.928
			c-0.658-0.338-1.315-0.676-1.973-1.015c-0.331-0.332-0.713-0.608-1.048-0.937c-5.365-2.061-10.729-4.122-16.095-6.183
			c0.064-0.299,0.128-0.597,0.192-0.895C241.038,329.648,246.998,330.349,252.959,331.049z"/>
		<path fill-rule="evenodd" clip-rule="evenodd" fill="#E3E3E3" d="M250.979,336.025c0.349,0.313,0.698,0.625,1.048,0.938
			C251.678,336.65,251.328,336.338,250.979,336.025z"/>
		<path fill-rule="evenodd" clip-rule="evenodd" fill="#5D0505" d="M186.157,215.078c-2.87-3.163-4.198-7.032-5.08-11.105
			c0.465-0.176,0.963-0.459,1.438-0.31c9.825,3.097,19.945,3.111,30.087,2.939c0.843-0.015,1.616,0.34,2.316,0.816
			c-2.439,3.707-4.289,7.863-8.051,10.563C199.598,219.625,192.581,219.468,186.157,215.078z"/>
		<path fill-rule="evenodd" clip-rule="evenodd" fill="#EDECEC" d="M214.918,207.419c-11.589,1.879-22.898,1.008-33.841-3.447
			c0,0.001-0.054-0.061-0.054-0.061c-0.301-0.226-0.573-0.482-0.821-0.765c-0.286-0.882-0.572-1.765-0.966-2.979
			c6.275,1.86,12.299,3.558,18.503,4.366c6.185,0.807,12.418,0.479,19.188,0.097C216.016,205.895,215.467,206.656,214.918,207.419z"
			/>
		<path fill-rule="evenodd" clip-rule="evenodd" fill="#D3D1D1" d="M186.157,215.078c6.676,2.59,13.754,2.308,20.71,2.904
			C200.095,223.046,189.917,221.619,186.157,215.078z"/>
		<path fill-rule="evenodd" clip-rule="evenodd" fill="#5D0505" d="M180.201,203.146c0.274,0.256,0.549,0.512,0.822,0.767
			C180.749,203.656,180.475,203.401,180.201,203.146z"/>
		<path fill-rule="evenodd" clip-rule="evenodd" fill="#1A1715" d="M209.041,161.942c0.722-0.299,1.444-0.598,2.166-0.896
			c0.502,0.572,0.276,1.438,0.807,1.999c-0.591,0.911-0.785,2.686-2.069,2.346C208.284,164.953,209.26,163.146,209.041,161.942z"/>
		<path fill-rule="evenodd" clip-rule="evenodd" fill="#D6AB80" d="M212.014,163.046c-1.52-0.161-0.926-1.177-0.808-1.999
			c0.637-0.021,1.272-0.042,1.908-0.063C212.748,161.672,212.381,162.358,212.014,163.046z"/>
		<path fill-rule="evenodd" clip-rule="evenodd" fill="#653522" d="M199.288,103.406c-0.046,0.107-0.089,0.305-0.138,0.306
			c-0.139,0.005-0.28-0.071-0.42-0.116c0.046-0.107,0.089-0.306,0.138-0.307C199.006,103.285,199.147,103.361,199.288,103.406z"/>
		<path fill-rule="evenodd" clip-rule="evenodd" fill="#44382D" d="M178.45,171.15c0.836-0.32,1.671-0.641,2.507-0.961
			c3.582,0.315,6.736-1.246,10.012-2.274C187.632,172.229,183.31,172.729,178.45,171.15z"/>
		<path fill-rule="evenodd" clip-rule="evenodd" fill="#0F1317" d="M182.454,158.991c2.487,0.117,2.473,1.626,1.731,3.336
			c-0.579,1.335-1.825,2.08-3.169,1.476c-1.748-0.787-3.012-2.054-1.189-4.049C180.535,158.924,181.489,158.94,182.454,158.991z"/>
		<path fill-rule="evenodd" clip-rule="evenodd" fill="#F8FAFC" d="M182.454,158.991c-0.604,1.183-1.525,1.275-2.625,0.764
			c-0.226-0.886-0.811-1.904,0.435-2.446C181.89,156.601,182.031,158.023,182.454,158.991z"/>
		<path fill-rule="evenodd" clip-rule="evenodd" fill="#3A3027" d="M233.952,170.902c0.032,0.567,0.065,1.136,0.098,1.704
			c-6.7,5.521-13.731,5.651-19.049,0.352l-0.354-0.328l0.303-0.376C221.604,176.293,227.967,176.253,233.952,170.902z"/>
		<path fill-rule="evenodd" clip-rule="evenodd" fill="#0E0B09" d="M212.999,170.896c0.767-0.031,1.134,0.337,1.106,1.103
			C213.348,172.021,212.998,171.635,212.999,170.896z"/>
		<path fill-rule="evenodd" clip-rule="evenodd" fill="#0E0C09" d="M214.95,172.254c-0.078,0.242-0.061,0.478,0.051,0.705
			c-0.72,0.007-1.032-0.366-0.996-1.065C214.32,172.014,214.635,172.134,214.95,172.254z"/>
		<path fill-rule="evenodd" clip-rule="evenodd" fill="#0D141B" d="M224.182,163.254c1.923,1.133,2.485,2.64,1.077,4.514
			c-0.754,1.004-1.92,1.552-3.067,0.856c-1.421-0.861-2.96-1.92-1.188-3.865C221.958,164.037,222.958,163.408,224.182,163.254z"/>
		<path fill-rule="evenodd" clip-rule="evenodd" fill="#EDEFF1" d="M224.182,163.254c-0.413,1.866-1.693,1.9-3.179,1.505
			c0.019-0.948-0.413-2.122,0.752-2.623C222.826,161.675,223.638,162.299,224.182,163.254z"/>
	</g>
</g>
</svg>
