<?xml version="1.0" encoding="utf-8"?>
<!-- Generator: Adobe Illustrator 16.0.0, SVG Export Plug-In . SVG Version: 6.00 Build 0)  -->
<!DOCTYPE svg PUBLIC "-//W3C//DTD SVG 1.1//EN" "http://www.w3.org/Graphics/SVG/1.1/DTD/svg11.dtd">
<svg version="1.1" id="Layer_1" xmlns="http://www.w3.org/2000/svg" xmlns:xlink="http://www.w3.org/1999/xlink" x="0px" y="0px"
	 width="398px" height="398px" viewBox="0 0 398 398" enable-background="new 0 0 398 398" xml:space="preserve">
<path fill="#000101" d="M197.99,51.94c8.48,0.42,16.859,1.76,25.039,4c1.521,0.43,2.75,1.23,4.111,1.99
	c-2.131,0.33-4.211,0.49-6.361,0.5c18.701,3.61,36.841,13.32,46.421,30.34c3.62,7.42,10.34,15.77,10.61,24.22
	c-0.65,4.1-0.971,7.86-0.86,12.03c0.079,3.45-1.431,6.15-3.671,8.64c-0.059,6.31,0.48,12.55-0.069,18.86
	c2.979,1.12,4.22,1.76,5.63,4.73c1.58,0.08,3.16,0.15,4.74,0.24c0.02,1.98-0.03,3.95-0.18,5.93c-1.461,0.05-2.93,0.09-4.391,0.14
	c-0.199,5.34,0.09,11.06-1.199,16.27c-1,3.31-3.601,4.49-6.42,5.99c-0.221,10.4-3.351,19.93-5.601,29.98
	c-1.5,5.94-2.58,12.45-5.11,17.979c-4.24,9.99-11.869,18.83-19.63,26.291c-3.239,3.22-7,5.32-11.239,6.93
	c3.08,1.34,6.029,2.41,8.67,4.54c4.819,3.78,7.869,9.2,8.799,15.239c5.621-0.42,11.25-0.829,16.871-1.27
	c5.06-6.67,12.149-11.33,20.85-10.25c3.27,0.26,4.77,2.4,7.18,4.211c6.271,1.59,13.49,2.219,18.37,6.989
	c2.42,1.979,2.69,4.87,4.7,7.24c10.12,13.079,13.52,30.28,10.7,46.44c-2.22,10.33-5.561,19.92-13.63,27.17
	c-5.721,5-13.41,9.939-21.33,9.14c-7.59-0.66-13.03-5.54-17.58-11.229c-6.92,7.149-14.051,14.09-21.17,21.029
	c-3.801,3.71-9.01,5.49-14.25,5.609c-4.131,0.021-7.66-1.529-11.23-3.43c-0.34,3.19-0.71,6.37-0.89,9.57h-4.58
	c0.72-4.65,0.851-9.42,1.31-14.109c0.49-5.781,1.41-11.48,1.69-17.271c-4.75,1.08-8.229,3.7-11.49,7.19
	c-4.01,4.319-8.17,7.949-13.021,11.31c-0.549,4.28-0.75,8.569-0.859,12.88h-2.21c0.26-3.811,0.33-7.63,0.36-11.45
	c-6.73,3.64-13.66,5.15-21.09,2.49c-0.37,2.989-0.81,5.97-1.13,8.96h-2.25c0.34-3.35,0.59-6.7,0.8-10.061
	c-2.41-1.869-4.41-3.879-7.49-4.629c-0.22,4.939-0.64,9.799-1.36,14.689h-0.56c0.66-4.8,1.26-9.58,1.38-14.43
	c-8.75,0.229-17.55,0.279-26.29,0.789c-8.36,0.91-16.71,0.711-25.1,0.621c-5.26,0.01-8.74-3.141-12.85-5.92
	c-0.16,6.33-0.17,12.64-0.87,18.939h-4.28c-0.15-8.38,1.3-16.689,1-25.05c-1.86-12.25-3.02-24.65-4.47-36.96
	c-1.09-8.891-0.23-18.35-2.15-27.01c-1.65-8.131-1.39-16.65-1.09-25c0.48-9.211,6-17.451,14.32-21.391
	c8.35-3.97,18.88-4.55,27.99-5.68c2.58-2.42,5.42-6.881,9.19-7.17c5.47-1.08,11.06-0.561,16.52-1.27
	c0.4-1.101,0.76-2.211,1.08-3.351c-2.68-2.2-5.28-4.33-7.49-7.021c-1.65-1.869-2.66-3.89-4.99-4.97
	c-12.41-6.03-23.67-13.84-33.54-23.489c-6.69,0.069-13.26,1.359-18.97-2.98c-5.13-3.439-6.8-8.45-9-13.89
	c-4.83-12.04-5.03-26.07-0.8-38.31c1.62-5.3,5.11-10.09,9.55-13.39c3.21-2.35,6.71-2.67,10.54-3.16
	c1.12-13.27,4.43-26.15,10.11-38.21c2.91-5.02,5.88-9.9,9.67-14.23c2.89-3.26,4.71-7.18,7.53-10.5c4.83-5.85,11.28-10.5,17.93-14.07
	C163.68,53.05,181.46,50.48,197.99,51.94z"/>
<path fill="#653522" d="M184.28,56.13c-5.43,1.96-10.6,3.66-15.51,6.75c2.52-0.26,4.96-0.87,7.38-1.63
	c5.24-1.61,10.6-2.64,16.07-3.1c-5.73,2.87-11.25,5.26-15.59,10.19c2.47-1.03,4.85-2.25,7.24-3.46c4.65-2.36,9.48-3.66,14.43-5.31
	c8.5,1.94,17.39,1.61,25.87,4.05c-3.85-0.01-7.62,0.27-11.25,1.64c6.53,0.53,12.82,0.67,19.141,2.65c3.039,0.8,5.43,2.24,8.649,1.64
	c6.84,3.15,12.8,8.67,17.94,14.09l-2.061,0.26c-2.76-1.49-5.47-2.58-8.609-2.95c4.18,2.44,8.199,5.45,12.709,7.15
	c3.211,3.21,5.19,7.72,7.701,11.52c2.52,4.42,5.779,10.13,4.819,15.37c-0.489,4.07-0.55,8.16-0.979,12.22
	c-0.78-2.75-0.28-5.65-0.951-8.38c-2.659-6.38-9.27-11.19-15.629-13.46c-10.771-3.85-23.4-2.38-34.53-1.04
	c-6.11,0.15-13.05-0.3-18.58-3.14c8.7-0.08,16.58,0.61,24.489-3.83c-8.479,0.88-16.709,0.86-24.92-1.68
	c6.781-7.52,16.281-12.73,26-15.35c1.73-0.24,3.451-0.52,5.17-0.84c-7.609-1.9-15.26-0.59-22.379,2.42
	c-5.801,2.37-10.601,5.96-15.65,9.58c-8.18,5.03-18.32,11.19-28.28,10.6c-4.6-0.25-3.92-5.08-5-8.38c-1.93,1.89-3.87,3.77-5.85,5.61
	c-1.39-2.32-1.65-3.75-1.45-6.46c0.15-1.26,0.42-2.5,0.81-3.71c1.91-2.4,3.57-4.93,5.19-7.52c2.55-4.05,6.02-7.18,8.75-11.08
	c-3.66,1.67-6.27,4.44-8.92,7.37c-1.14,0.71-2.32,1.39-3.42,2.16c-4.17,2.73-6.08,6.92-7.45,11.54c-0.76,1.55-0.41,3.48-2.59,3.49
	c-2.02-1.45-3.74-3.5-5.43-5.32c4.32-7.4,9.71-14.34,16.04-20.14c3.55-3.31,7.64-5.62,11.46-8.59c-0.23-1.02-0.46-2.05-0.69-3.07
	C173.64,56.73,178.93,56.3,184.28,56.13z"/>
<path fill="#927164" d="M184.28,56.13c7.32-0.67,14.91-0.04,22.18,0.97c-2.76,0.72-5.479,1.5-8.16,2.47
	c-4.95,1.65-9.78,2.95-14.43,5.31c-2.39,1.21-4.77,2.43-7.24,3.46c4.34-4.93,9.86-7.32,15.59-10.19c-5.47,0.46-10.83,1.49-16.07,3.1
	c-2.42,0.76-4.86,1.37-7.38,1.63C173.68,59.79,178.85,58.09,184.28,56.13z"/>
<path fill="#471704" d="M206.2,62.8c-4.44,2.8-8.97,4.76-12.35,8.97c14.6-3.58,31.44-3.04,44.419,5.2
	c-4.01-0.63-7.85-2.07-11.859-2.55c-17.28-2.34-34.77-0.46-50.16,8.13c-0.82,0.09-1.65,0.15-2.47,0.2
	c3.95-3.97,9.18-5.92,13.15-9.83C192.23,67.92,198.63,63.13,206.2,62.8z"/>
<path fill="#846153" d="M224.17,63.62c5.79,1.21,11.221,3.37,16.54,5.93c-3.22,0.6-5.61-0.84-8.649-1.64
	c-6.32-1.98-12.61-2.12-19.141-2.65C216.55,63.89,220.32,63.61,224.17,63.62z"/>
<path fill="#67696B" d="M155.79,66.5c-3.47,3.65-7.66,6.48-11.14,10.14c-14.73,14.51-23.43,33.04-27.94,53.04
	c-0.37-3.12-0.22-6.12,0.16-9.23c-1.87-0.83-3.74-1.67-5.61-2.51c1.16-4.13,2.6-8.15,4.31-12.09c1.66,1.01,3.83,3.11,5.9,2.7
	c1.09-1.67,1.9-3.56,2.78-5.36c3.75-7.27,8.13-14.33,13.37-20.63c3.39-4.14,7.55-7.44,10.63-11.84
	C150.7,69.19,153.18,67.73,155.79,66.5z"/>
<path fill="#876254" d="M186.35,67.71c-4.79,3.69-9.75,7.51-14.86,10.74C174.69,73.36,180.51,69.11,186.35,67.71z"/>
<path fill="#404041" d="M148.25,70.72c-3.08,4.4-7.24,7.7-10.63,11.84c-5.24,6.3-9.62,13.36-13.37,20.63
	c-1.84-1.24-3.67-2.47-5.51-3.71c4.02-7.55,9.53-14.17,16-19.74C138.93,76.22,143.19,72.91,148.25,70.72z"/>
<path fill="#876456" d="M169.42,70.55c-2.73,3.9-6.2,7.03-8.75,11.08c-1.62,2.59-3.28,5.12-5.19,7.52
	c1.17-4.01,3.18-7.51,5.02-11.23C163.15,74.99,165.76,72.22,169.42,70.55z"/>
<path fill="#927164" d="M226.41,74.42c-5.971,0.2-11.57-0.38-17.43,0.49c-6.311,0.87-12.78,2.73-18.25,6.06
	c5.34-0.979,10.11-3.09,15.661-2.87c-2.07,0.74-4.16,1.4-6.24,2.09c-9.88,3.16-18.3,9.47-28.53,11.91
	c5.68-3.92,11.25-7.44,16.1-12.45c-3.96,0.59-7.52,2.55-11.47,2.9C191.64,73.96,209.13,72.08,226.41,74.42z"/>
<path fill="#360603" d="M160.5,77.92c-1.84,3.72-3.85,7.22-5.02,11.23c-0.39,1.21-0.66,2.45-0.81,3.71
	c-0.35,2.63-0.17,5.3-1.51,7.63c-1.4-7.48,0.02-13.99,3.92-20.41C158.18,79.31,159.36,78.63,160.5,77.92z"/>
<path fill="#370703" d="M233.279,79.49c-1.719,0.32-3.439,0.6-5.17,0.84c-9.5,0.02-18.42,3.38-26.26,8.57
	c-2.209,1.34-3.81,2.99-6.6,2.59c5.05-3.62,9.85-7.21,15.65-9.58C218.02,78.9,225.67,77.59,233.279,79.49z"/>
<path fill="#471704" d="M157.08,80.08c-3.9,6.42-5.32,12.93-3.92,20.41c1.34-2.33,1.16-5,1.51-7.63c-0.2,2.71,0.06,4.14,1.45,6.46
	c1.98-1.84,3.92-3.72,5.85-5.61c1.08,3.3,0.4,8.13,5,8.38c9.96,0.59,20.1-5.57,28.28-10.6c2.79,0.4,4.391-1.25,6.6-2.59
	c7.84-5.19,16.76-8.55,26.26-8.57c-9.719,2.62-19.219,7.83-26,15.35c8.211,2.54,16.44,2.56,24.92,1.68
	c-7.909,4.44-15.789,3.75-24.489,3.83c5.53,2.84,12.47,3.29,18.58,3.14c-12.69,1.77-24.17,3.99-36.36-1.61
	c2.74-2.61,5.7-4.33,7.52-7.77c-5.52,3.65-10.76,7.3-17.22,9.15c-6.56,2.13-13.02,1.04-19.21-1.62c0.69,1.16,1.39,2.31,2.08,3.48
	c-2.33,5.34-3.42,10.29-3.2,16.16c-0.51-2.49-1.22-4.96-1.93-7.4c0.41-1.37,0.8-2.74,1.21-4.11c0.35-0.92,0.69-1.84,1.03-2.76
	c-4.06,2.36-5.78,6.19-7.42,10.39c-0.22-2.78-0.13-5.56,0.13-8.33c0.49-1.02,0.99-2.03,1.5-3.04l0.69-1.29
	c-2.98,0.65-5.68,1.81-8.38,3.19c2.1-2.77,4.51-5.27,6.68-7.98c-4.61,1.29-6.73,4.77-9.51,8.32c0.7-3.64,1.44-7.28,2.26-10.89
	c-1.1-0.12-2.21-0.25-3.31-0.37c1.06-2.83,2.34-5.49,3.93-8.06c1.69,1.82,3.41,3.87,5.43,5.32c2.18-0.01,1.83-1.94,2.59-3.49
	C151,87,152.91,82.81,157.08,80.08z"/>
<path fill="#815D4E" d="M247.98,80.95c3.14,0.37,5.85,1.46,8.609,2.95c1.4,1.37,2.74,2.79,4.1,4.2
	C256.18,86.4,252.16,83.39,247.98,80.95z"/>
<path fill="#232424" d="M141.95,82.09c-1.99,3.92-4.53,7.51-6.55,11.42c-5.6,10.49-8.63,22.78-11.27,34.33
	c-1.79,0.29-3.58,0.58-5.37,0.87c2.54-12.37,7.07-23.53,13.88-34.16C135.47,90.12,138.25,85.85,141.95,82.09z"/>
<path fill="#4D1D09" d="M219.73,90.02c2.789,0.52,5.52,1.25,8.27,1.97c4.8,1.29,9.55,1.47,14.43,2.42
	c-1.789,0.76-3.57,1.23-5.529,1.2C230.82,95.64,224.561,93.78,219.73,90.02z"/>
<path fill="#927164" d="M242.01,91.12c7.35,1.19,14.41,5.07,20.061,9.84c-3.74-1.3-7.061-2.8-11.061-3.19
	c-4.88-0.54-9.33,0.39-14.14,0.97c4.04-2.56,8.33-3.5,13.01-4.14C247.27,93.4,244.62,92.3,242.01,91.12z"/>
<path fill="#653522" d="M137.68,97.85c1.1,0.12,2.21,0.25,3.31,0.37c-0.82,3.61-1.56,7.25-2.26,10.89c-0.63,2.76-0.86,5.55-0.8,8.38
	c1-1.91,1.75-3.87,2.36-5.93c0.98-0.46,1.96-0.92,2.93-1.38c0.57,2.94,0.92,5.88,1.09,8.87c0.83-3.23,1.9-6.19,3.44-9.14
	c-0.26,2.77-0.35,5.55-0.13,8.33c0.16,1.81,0.54,3.65,0.9,5.44c0.25,1.26,0.53,2.52,0.83,3.78c1.36-4.2,2.02-8.56,3.45-12.74
	c0.71,2.44,1.42,4.91,1.93,7.4c0.21,4.33-0.02,8.44-2.42,12.21c-2.22,3.36-4.37,6.54-5.53,10.46c-1.68,3.76-3.18,7.52-4.28,11.5
	l-1.26-0.21c-3.59-5.46-5.05-11.51-7.34-17.51c-1.18,1.67-1.8,3.53-2.39,5.47c-1.77-1.75-3.71-3.35-5.6-4.95
	c1.48-12.14,4.29-24.04,8.68-35.47c2.26-0.37,4.19-1.81,2.38-4.07C137.21,98.98,137.45,98.42,137.68,97.85z"/>
<path fill="#515253" d="M118.74,99.48c1.84,1.24,3.67,2.47,5.51,3.71c-0.88,1.8-1.69,3.69-2.78,5.36c-2.07,0.41-4.24-1.69-5.9-2.7
	C116.54,103.68,117.6,101.56,118.74,99.48z"/>
<path fill="#7D5A4C" d="M136.97,99.55c1.81,2.26-0.12,3.7-2.38,4.07C135.12,102.1,136.03,100.84,136.97,99.55z"/>
<path fill="#370704" d="M148.24,100.79c-2.17,2.71-4.58,5.21-6.68,7.98c2.7-1.38,5.4-2.54,8.38-3.19l-0.69,1.29
	c-1.98,1.17-3.98,2.28-6.03,3.31c-0.97,0.46-1.95,0.92-2.93,1.38c-0.61,2.06-1.36,4.02-2.36,5.93c-0.06-2.83,0.17-5.62,0.8-8.38
	C141.51,105.56,143.63,102.08,148.24,100.79z"/>
<path fill="#FFCC99" d="M182.72,103.94c10.46,5.45,22.51,8.01,34.29,7.49c4.99-0.3,10.971-0.7,15.32-3.39
	c-3.801,0.19-7.52,0.99-11.33,1.19c-5.561,0.41-10.9-0.13-16.43-0.72c14.05-1.24,28.609-4.79,42.42-3.09
	c7.189,0.9,15.199,4,19.6,10.01c1.75,3.4,1.79,7.83,2.189,11.57c0.371,8.28,0.521,16.7,0.291,24.98
	c-0.801-0.04-1.59-0.07-2.391-0.11c-2.99-5.49-7.31-11.3-13.84-12.54c-6.42-1.12-13.449,0.35-19.189,3.33
	c-2.33,0.97-2.07,3.47-2.721,5.54c7.141-0.38,13.711-3.34,21.09-2.73c5.391,0.21,8.69,3.54,12.931,6.32
	c-10.86,0.15-21.47-0.31-32.16,2.02c-2.06,0.47-3.649,1.61-5.37,2.75c-6.08-2.34-10.439-2.16-16.42,0.28
	c-2.109-1.42-4.23-2.62-6.79-3.04c-11.02-2.13-22.71-1.92-33.92-2.05c3.86-2.18,7.45-5.24,11.91-6.1c9.39-1.42,17.1,1.69,26,2.6
	c-0.65-2.3-0.13-4.66-2.771-5.67c-6.54-3.04-14.27-4.51-21.43-3.39c-6.98,1.14-12.05,6.85-15.45,12.67
	c-4.63,0.55-10.93,0.06-13.16,5.18c-2.15,0.07-4.31,0.09-6.46,0.11c-0.06-4.21-0.56-8.88,0.45-12.99c1.27-4.8,4.81-7.7,6.4-12.35
	c1.89-5.15,0.54-11.28,1.44-16.83c0.38-2.96,1.54-5.6,2.77-8.29c4.88,0.69,9.71,0.91,14.54-0.2
	C177.37,105.97,179.93,104.55,182.72,103.94z"/>
<path fill="#866254" d="M149.25,106.87c-0.51,1.01-1.01,2.02-1.5,3.04c-1.54,2.95-2.61,5.91-3.44,9.14
	c-0.17-2.99-0.52-5.93-1.09-8.87C145.27,109.15,147.27,108.04,149.25,106.87z"/>
<path fill="#350603" d="M155.04,107.85c-0.34,0.92-0.68,1.84-1.03,2.76c-3.35,3.76-4.4,8.29-5.49,13.07
	c-0.36-1.79-0.74-3.63-0.9-5.44C149.26,114.04,150.98,110.21,155.04,107.85z"/>
<path fill="#7F5A4E" d="M154.01,110.61c-0.41,1.37-0.8,2.74-1.21,4.11c-1.43,4.18-2.09,8.54-3.45,12.74
	c-0.3-1.26-0.58-2.52-0.83-3.78C149.61,118.9,150.66,114.37,154.01,110.61z"/>
<path fill="#555556" d="M111.26,117.94c1.87,0.84,3.74,1.68,5.61,2.51c-0.38,3.11-0.53,6.11-0.16,9.23c-0.65,4.49-1.35,9-2.36,13.42
	l-1.45-1.65c0.76-4.22,2.33-8.97,1.98-13.27c-1.63-1.22-3.63-1.99-5.49-2.78C109.95,122.9,110.55,120.41,111.26,117.94z"/>
<path fill="#414142" d="M109.39,125.4c1.86,0.79,3.86,1.56,5.49,2.78c0.35,4.3-1.22,9.05-1.98,13.27c-1.6-1.35-3.3-2.54-5.02-3.74
	C108.16,133.56,108.55,129.47,109.39,125.4z"/>
<path fill="#181818" d="M124.13,127.84c-0.77,4.69-1.29,9.41-2.23,14.07c-1.85,0.07-3.71,0.14-5.57,0.2
	c0.55-4.53,1.33-8.96,2.43-13.4C120.55,128.42,122.34,128.13,124.13,127.84z"/>
<path fill="#471704" d="M133.9,138.57c2.29,6,3.75,12.05,7.34,17.51c-1.07-0.13-2.14-0.25-3.22-0.37
	c-2.02-4.16-3.43-8.14-6.51-11.67C132.1,142.1,132.72,140.24,133.9,138.57z"/>
<path fill="#5A301E" d="M184,139.19c7.16-1.12,14.89,0.35,21.43,3.39c2.641,1.01,2.12,3.37,2.771,5.67c-8.9-0.91-16.61-4.02-26-2.6
	c-4.46,0.86-8.05,3.92-11.91,6.1l-1.74,0.11C171.95,146.04,177.02,140.33,184,139.19z"/>
<path fill="#5A301E" d="M252.84,139.33c6.53,1.24,10.85,7.05,13.84,12.54l-1.729-0.08c-4.24-2.78-7.54-6.11-12.931-6.32
	c-7.379-0.61-13.949,2.35-21.09,2.73c0.65-2.07,0.391-4.57,2.721-5.54C239.391,139.68,246.42,138.21,252.84,139.33z"/>
<path fill="#74A1A8" d="M107.15,141.85c2.04,0.62,3.68,2.76,5.19,4.19c-0.94,0.06-1.88,0.09-2.82,0.11
	c-0.36-0.47-0.73-0.93-1.09-1.4l-0.14-0.12c-2.04-1.78-3.29-1.99-5.78-1.18c-2.42,0.37-2.77,3.77-3.28,5.68
	c0.91,1.06,1.89,2.08,2.92,3.05c0.68-1.19,1.35-2.39,2.03-3.58c1.18,0.3,2.37,0.6,3.56,0.88l0.47-0.01
	c-1.24,1.49-2.41,3.05-3.68,4.52c-0.75,0.64-1.44,1.31-2.09,2.06c-1.51-1.61-3.17-3.21-4.37-5.08c-0.81-2.36-0.98-4.9-2-7.22
	C99.58,142.42,103.41,141.87,107.15,141.85z"/>
<path fill="#5CFEFE" d="M108.29,144.63c-0.1,1.07-0.71,1.82-1.85,2.26c0.43,0.86,0.86,1.72,1.3,2.59c-1.19-0.28-2.38-0.58-3.56-0.88
	c-0.68,1.19-1.35,2.39-2.03,3.58c-1.03-0.97-2.01-1.99-2.92-3.05c0.51-1.91,0.86-5.31,3.28-5.68
	C105,142.64,106.25,142.85,108.29,144.63z"/>
<path fill="#6C6F71" d="M96.07,143.75c1.02,2.32,1.19,4.86,2,7.22c1.2,1.87,2.86,3.47,4.37,5.08c-0.18,0.53-0.36,1.06-0.53,1.59
	c-1.15-0.45-2.3-0.89-3.42-1.38c-1.9-1.01-3.71-2.53-5.95-1.57c-2.48,1.05-4.07,4.24-5.62,6.31
	C86.05,154.49,90.98,147.42,96.07,143.75z"/>
<path fill="#37777D" d="M108.29,144.63l0.14,0.12c0.36,0.47,0.73,0.93,1.09,1.4c0.94-0.02,1.88-0.05,2.82-0.11
	c4.55,4.09,5.44,9.27,7.37,14.76c-1.47,3.03-2.65,4.48-5.49,6.27c-0.07-1.01-0.14-2.02-0.22-3.04c1.04-0.35,2.07-0.72,3.1-1.09
	c-0.34-1.68-0.68-3.36-1.02-5.03c-1.53-0.1-3.07-0.19-4.6-0.28c-0.06-0.87-0.11-1.74-0.16-2.61c1.27-0.29,2.55-0.57,3.82-0.86
	c-0.97-1.82-1.99-3.61-3.23-5.26l-0.84-0.09c-0.95,0.21-1.91,0.43-2.86,0.66l-0.47,0.01c-0.44-0.87-0.87-1.73-1.3-2.59
	C107.58,146.45,108.19,145.7,108.29,144.63z"/>
<path fill="#10A2B8" d="M123.85,145.14c4,5.39,6.63,11.39,7.71,18.02c1.96,11.35,0.87,24.41-5.2,34.42
	c-2.55,0.11-5.07,0.41-7.6,0.65l-1.17-1.26c3.87-7.8,4.98-16.35,4.97-24.97c-0.15-9.38-1.68-18.45-7.36-26.17
	C118.09,145.61,120.97,145.38,123.85,145.14z"/>
<path fill="#461603" d="M146.78,144.79c-0.15,4.09-0.01,8.16,0.18,12.24c-1.49-0.25-2.97-0.5-4.46-0.74
	C143.6,152.31,145.1,148.55,146.78,144.79z"/>
<path fill="#373737" d="M126.3,145.16c2.54,1.69,3.96,3.63,5.24,6.34c5.2,10.08,6.25,22.32,4.13,33.35
	c-1.21,5.34-2.96,11.27-7.3,14.95c1.24-5.43,4.01-10.2,4.75-15.79c1.64-12.32,1-24.73-5.4-35.69
	C127.23,147.28,126.75,146.22,126.3,145.16z"/>
<path fill="#22FFFF" d="M108.21,149.47c0.95-0.23,1.91-0.45,2.86-0.66l0.84,0.09c1.24,1.65,2.26,3.44,3.23,5.26
	c-1.27,0.29-2.55,0.57-3.82,0.86c0.05,0.87,0.1,1.74,0.16,2.61c1.53,0.09,3.07,0.18,4.6,0.28c0.34,1.67,0.68,3.35,1.02,5.03
	c-1.03,0.37-2.06,0.74-3.1,1.09l-2.19,0.29c-1.31-0.02-2.61-0.07-3.91-0.13c-0.25-1.16-0.5-2.31-0.74-3.46
	c0.83-0.7,1.67-1.39,2.51-2.08c-0.03-0.84-0.06-1.68-0.09-2.52c-1.19,0.52-2.38,1.04-3.57,1.56c-0.49-1.23-0.99-2.47-1.48-3.7
	C105.8,152.52,106.97,150.96,108.21,149.47z"/>
<path fill="#51E9FF" d="M92.54,154.69c2.24-0.96,4.05,0.56,5.95,1.57c0.56,0.79,1.13,1.59,1.71,2.37c-0.54,1.49-1.02,3-1.48,4.52
	c-0.33-0.34-0.67-0.67-1.01-1c-1.68-0.66-3.15-1.23-4.88-0.35c-2.49,1.45-3.39,4.37-4.23,6.94c-0.95-0.97-1.91-1.93-2.87-2.89
	c0.32-1.63,0.71-3.25,1.19-4.85C88.47,158.93,90.06,155.74,92.54,154.69z"/>
<path fill="#3F696D" d="M104.53,153.99c0.49,1.23,0.99,2.47,1.48,3.7c1.19-0.52,2.38-1.04,3.57-1.56c0.03,0.84,0.06,1.68,0.09,2.52
	c-0.84,0.69-1.68,1.38-2.51,2.08c0.24,1.15,0.49,2.3,0.74,3.46c1.3,0.06,2.6,0.11,3.91,0.13c0.2,1.33,0.4,2.67,0.6,4
	c-1.64-0.28-3.28-0.59-4.91-0.95c-0.95-0.22-1.9-0.45-2.84-0.69c-0.44-2.37-1.14-4.68-2.19-6.86l-1.77-0.78l-0.5-0.41
	c-0.58-0.78-1.15-1.58-1.71-2.37c1.12,0.49,2.27,0.93,3.42,1.38c0.17-0.53,0.35-1.06,0.53-1.59
	C103.09,155.3,103.78,154.63,104.53,153.99z"/>
<path fill="#4A4A4A" d="M164,154.16c8.2-0.77,16.75-0.12,25-0.15c2.22,0.14,4.38-0.19,6.15,1.41c-9.67-0.27-19.5-0.81-29.16-0.12
	c-3.48,0.2-5.79,2.14-8.73,3.75C157.58,154.87,160.7,154.77,164,154.16z"/>
<path fill="#3A3937" d="M245.13,154.03l-0.45,1.26c-3.979,0.59-8.539,0.63-12.22,2.29c-1.54,0.64-1.97,1.84-2.521,3.29
	c-0.56,0.3-1.119,0.6-1.68,0.9c-5.33-3.51-12.24-3.43-17.619-0.11c-1.091,5.6,0.26,11.95-1.4,17.57c-1.561,3.47-6.61,4.58-9.98,5.14
	c-8.61,1.2-17.52,0.58-26.2,0.57l-0.03-0.9c6.66-0.11,13.32-0.05,19.98-0.02c1.98,0.1,3.14-0.45,4.79-1.48
	c2.81-0.9,6.921-1.4,8.65-4.04c1.05-2.33,0.96-5.28,1.319-7.78l-1.199,1c0.459-0.45,0.91-0.91,1.359-1.38
	c-0.08,2.35-0.09,4.68,0.36,7c0.96-5.31,1.021-10.87,0.25-16.21c-0.06-3.14-4.8-3.83-6.761-5.71c3.66,0.16,6.201,1.51,9.091,3.53
	c5.819-2.74,10.989-2.84,16.87-0.22C232.87,154.25,238.74,154.79,245.13,154.03z"/>
<path fill="#4D4D4D" d="M245.13,154.03c6.29-0.11,12.58-0.12,18.87-0.17c4.59,0.12,8.68-0.3,12.58,2.57l-1.16,1.57
	c-1.99-1.57-3.76-2.74-6.4-2.76c-7.99-0.4-16.35-0.36-24.34,0.05L245.13,154.03z"/>
<path d="M244.68,155.29c7.99-0.41,16.35-0.45,24.34-0.05c2.641,0.02,4.41,1.19,6.4,2.76c-0.49,1.11-0.939,2.23-1.33,3.36
	c-0.109-1.52-0.32-2.57-1.24-3.79c-1.229,4.48-0.74,8.88-1.129,13.43c-0.281,3.06-0.301,6.12-0.261,9.19
	c-0.92,1.05-1.899,2.06-2.851,3.09c-1.949-0.55-3.949-0.93-5.969-1.16c1.59-0.08,3.18-0.18,4.76-0.29
	c0.039-8.51-0.18-16.95,1.149-25.39c-4.149-0.28-8.29-0.21-12.44-0.27c4.42,2.48,6.971,6.28,8.931,10.85
	c-1.61,2.25-3.45,5.76-6.17,6.75c-3.729,0.87-8.04-0.14-11.87-0.1c-3.74-0.12-7.3,1.06-11,1.1c-1.93,0.01-3.59-1.71-5.1-2.76
	c0.189,2,0.359,4,0.619,5.99c-1-1.34-1.51-2.24-1.449-3.98c-0.051-4.38,0.05-8.76-0.131-13.15c0.551-1.45,0.98-2.65,2.521-3.29
	C236.141,155.92,240.7,155.88,244.68,155.29z"/>
<path fill="#FFCC99" d="M178.37,156.08c-4.76,2.79-7.41,5.95-9.73,10.92c1.92,2.41,4.24,6.37,7.52,6.87
	c4.83,0.69,9.93-0.58,14.84-0.2c3.33,0.18,6.67,1.14,9.99,1.07c2.39-0.09,3.84-1.59,5.58-3.02l1.199-1
	c-0.359,2.5-0.27,5.45-1.319,7.78c-1.729,2.64-5.841,3.14-8.65,4.04c-9.29,0.65-18.76,0.83-28.02-0.26
	c-2.88-0.47-7.47-1.33-8.42-4.6c-0.9-3.42-0.84-7.16-0.96-10.68c0.03-2.83-0.14-6.07,0.88-8.75
	C165.97,155.5,173.1,156.5,178.37,156.08z"/>
<path fill="#FFCC99" d="M256.109,156.17c4.15,0.06,8.291-0.01,12.44,0.27c-1.329,8.44-1.11,16.88-1.149,25.39
	c-1.58,0.11-3.17,0.21-4.76,0.29c-7.771,0.38-15.92,0.78-23.66-0.13c-2.971-0.34-5.65-1.54-7.461-3.99
	c-0.26-1.99-0.43-3.99-0.619-5.99c1.51,1.05,3.17,2.77,5.1,2.76c3.7-0.04,7.26-1.22,11-1.1c3.83-0.04,8.141,0.97,11.87,0.1
	c2.72-0.99,4.56-4.5,6.17-6.75C263.08,162.45,260.529,158.65,256.109,156.17z"/>
<path fill="#202020" d="M276.58,156.43c0.72,3.72,0.439,7.78,0.47,11.57c-0.04,3.82,0.05,8.19-1.28,11.81
	c-0.83,2.28-3.129,3.39-5.31,4.03l-1.851-0.56c0.951-1.03,1.931-2.04,2.851-3.09c1.41-1.58,2.181-2.85,2.351-4.97
	c0.39-4.59,0.1-9.25,0.279-13.86c0.391-1.13,0.84-2.25,1.33-3.36L276.58,156.43z"/>
<path fill="#363636" d="M138.06,158.07c3.42-0.18,6.69,0.33,10,1.11l-0.23,1.48C144.6,160.08,140.61,160.23,138.06,158.07z"/>
<path fill="#FFFFFF" d="M183.96,157.97c5.56-0.83,12.44-0.62,17.05,3.03c2.78,2.09,3.95,4.95,5.301,8.03
	c-2.61,2.5-4.281,3.34-7.951,3.92c0.99-3.37,2.23-6.22,0.24-9.52c-2.8-4.89-9.84-5.74-13.54-1.39c-2.67,3.16-2.27,6.5-1.03,10.18
	c-2.92,0.05-6.78,0.9-9.25-1c-1.11-0.88-2.54-2.54-2.55-4C173.89,161.93,178.66,158.81,183.96,157.97z"/>
<path fill="#B9946F" d="M202.01,157.62c1.18,0.3,2.36,0.61,3.53,0.93c2.399,1.9,2.06,4.37,2.61,7.12
	c-1.33-1.96-2.53-3.89-4.051-5.72C203.41,159.17,202.721,158.39,202.01,157.62z"/>
<path fill="#927457" d="M234.57,158c-0.771,1.67-1.78,3.07-3.141,4.31C229.891,159.84,232.34,158.28,234.57,158z"/>
<path fill="#FFFFFF" d="M254.2,158.87c4.17,1.56,6.37,4.86,7.909,8.85c-0.85,1.22-1.629,2.62-2.729,3.64
	c-1.67,1.36-3.96,1.08-5.97,1.17c0.779-2.46,2.05-4.61,1.24-7.24c-1.051-3.69-4.9-6.07-8.67-5.35c-3.73,0.63-6.42,4.34-6.051,8.07
	c0.33,1.53,0.87,2.93,1.391,4.41c-4.801,0.56-6.9,0.23-10.19-3.35c1.39-3.8,2.91-7.22,6.56-9.35
	C242.49,156.99,249.1,157.04,254.2,158.87z"/>
<path fill="#F0F0F0" d="M272.85,157.57c0.92,1.22,1.131,2.27,1.24,3.79c-0.18,4.61,0.11,9.27-0.279,13.86
	c-0.17,2.12-0.94,3.39-2.351,4.97c-0.04-3.07-0.021-6.13,0.261-9.19C272.109,166.45,271.62,162.05,272.85,157.57z"/>
<path fill="#16B6D9" d="M100.2,158.63l0.5,0.41c3.08,6.67,3.45,13.79,2.78,21.01c-2.68-3.02-1.66-6-2.04-9.6
	c-0.25-2.64-1.47-4.71-2.73-6.96l0.01-0.34C99.18,161.63,99.66,160.12,100.2,158.63z"/>
<path fill="#3A3A3A" d="M148.39,159.06c2.43-0.08,4.85-0.08,7.28,0l-1.07,1.52C152.51,160.82,149.27,161.67,148.39,159.06z"/>
<path fill="#71A9E0" d="M198.6,163.43c1.99,3.3,0.75,6.15-0.24,9.52c-2.23-0.07-4.23-0.59-6.27-1.44c2.03-1.03,3.59-2.03,3.26-4.52
	c-0.17-2.04-1.66-2.79-2.97-4.16c-1.07-0.59-2.34-1.67-3.59-1.17c-1.71,0.76-1.35,2.51-1.61,4.07c-0.03,3.52,0.74,4.22,3.42,6.28
	c-2.19,0.04-4.38,0.09-6.57,0.21c-1.24-3.68-1.64-7.02,1.03-10.18C188.76,157.69,195.8,158.54,198.6,163.43z"/>
<path fill="#2A2A2A" d="M278.79,158.94c1.181,0.07,2.351,0.14,3.521,0.22c-0.851,1.46-1.531,2.19-3,3.01
	C279.141,161.09,278.96,160.01,278.79,158.94z"/>
<path fill="#71A9E0" d="M245.98,159.94c3.77-0.72,7.619,1.66,8.67,5.35c0.81,2.63-0.461,4.78-1.24,7.24
	c-4.061-0.34-8.03-0.62-12.09-0.11c-0.521-1.48-1.061-2.88-1.391-4.41C239.561,164.28,242.25,160.57,245.98,159.94z"/>
<path fill="#333333" d="M119.71,160.8c0.41,1.71,0.69,3.44,0.79,5.2c0.4,10.22,0.28,19.87-4.31,29.26
	c-1.46-1.54-2.91-3.07-4.29-4.69c2.57-7.65,2.98-15.51,2.32-23.5C117.06,165.28,118.24,163.83,119.71,160.8z"/>
<path fill="#FEFEFE" d="M192.38,162.83c-0.24,1.07-0.49,2.14-0.73,3.21c-1.49-0.09-2.98-0.19-4.47-0.31
	c0.26-1.56-0.1-3.31,1.61-4.07C190.04,161.16,191.31,162.24,192.38,162.83z"/>
<path fill="#FFCC99" d="M225.54,162.47c-2.47,5.87-1.75,12.19-1.04,18.36c0.62,4.43,2.01,8.23,5.5,11.19
	c3.35,2.89,3.01,7.29,1.391,11.02c-4,1.46-7.15,2.79-11.451,1.3c-1.299-0.58-2.619-1.1-3.969-1.54c-1.851-0.26-3.58,1.39-5.15,2.21
	c-1.49,1.051-3.08,0.77-4.84,0.971c-0.431-2.811,0.35-5.28,1.039-7.951c-2.529,2.291-4.27,5.23-2.58,8.59
	c1.74,2.21,4.011,1.87,6.44,1.19c2.86,0.119,4.979,1.479,7.53,2.56c5.09,2.17,9.99-0.601,13.73-3.96
	c1.92-1.71,2.209-4.41,2.889-6.74c0.211,1.301,0.421,2.6,0.631,3.891c-0.61,0.5-1.221,0.989-1.84,1.479
	c-0.061,1.06-0.12,2.12-0.17,3.181c1.66-1.5,3.359-2.33,3.619-4.73c0.61-3.03-2.199-5.78-3.149-8.68c-1.14-3.73-4.61-5.39-5.94-8.97
	c-2.91-7.3-1.89-15.39-1.9-23.08c0.4,5.61-0.309,11.59,0.811,17.09c1.391,4.54,6.66,6.3,10.92,6.81c9.69,0.89,19.561,0.54,29.27-0.1
	c-0.309,4.18-0.609,8.31-1.629,12.39c-2.15,8.84-4.2,17.71-6.36,26.54c-3.17,11.92-10.601,21.1-19.06,29.75
	c-3.561,3.57-7.17,6.67-12.221,7.859c-10.64,2.42-22.279,1.121-32.47-2.66c-11.29-4.119-22.12-10.25-32.17-16.799
	c-2.98-1.9-5.49-4.23-8.17-6.521c6.62,2.409,13.75,4.45,20.82,4.67c4.12,0,6.61-5.17,4.98-8.67c-1.69-3.33-4.01-6.82-7.95-7.58
	c-4.77-0.94-10.11,0.59-14.85,0.09c-3.13-0.78-6.11-2.36-8.96-3.851c-1.29-0.85-2.68-1.209-2.97-2.92
	c-0.93-3.689-1.5-7.479-2.22-11.219c1.68-1.25,3.68-2.041,1.6-4.25c-4.58-0.24-8.65,0.77-13.17-1.07c2.13-2.87,3.28-7.12,6.82-8.3
	c-0.43-7.2,1.79-13.9,1.49-21.09c3.5,0.61,5.56,0.32,8.79-1c-0.02-3-0.19-6-0.38-8.99c1.96,0,3.91,0,5.87,0
	c0.14,5.3,0.03,10.8,1,16.03c1.16,4.74,6.44,6.51,10.73,7.2c7.99,1.03,16.15,1.11,24.2,0.88c4.84-0.16,10.24-0.46,14.779-2.28
	c2.671-1.1,5.191-2.95,5.83-5.93c0.871-5.18,0.701-10.6,0.711-15.84C216.95,161.01,220.75,160.62,225.54,162.47z"/>
<path fill="#1E1E1E" d="M229.939,160.87c0.181,4.39,0.08,8.77,0.131,13.15c-0.061,1.74,0.449,2.64,1.449,3.98
	c1.811,2.45,4.49,3.65,7.461,3.99c7.74,0.91,15.89,0.51,23.66,0.13c2.02,0.23,4.02,0.61,5.969,1.16l1.851,0.56
	c-5.2,1.71-10.06,1.09-15.46,1.27c-5.811,0-11.73,0.3-17.51-0.38c-3.36-0.64-7.79-1.88-8.67-5.72
	c-1.291-5.53-0.891-11.61-0.561-17.24C228.82,161.47,229.38,161.17,229.939,160.87z"/>
<path fill="#333333" d="M97.71,162.15c0.34,0.33,0.68,0.66,1.01,1l-0.01,0.34c-0.16,3.82,1.95,7.25,1.54,11.2
	c-1.75-2.17-3.14-4.54-4.38-7.03c-3.17,0.48-4.47,2.48-6.41,4.72c0.59-3.02,0.8-6.47,3.17-8.72
	C94.21,162.91,96.03,162.61,97.71,162.15z"/>
<path fill="#471704" d="M139.68,161.57c2.7,0.36,5.39,0.8,8.05,1.39c0.23,3.13,0.37,6.13,1.85,8.97c-3.23,1.32-5.29,1.61-8.79,1
	C140.68,169.1,140.13,165.38,139.68,161.57z"/>
<path fill="#75291F" d="M225.54,162.47l0.26,0.09l0.479,0.2c0.011,7.69-1.01,15.78,1.9,23.08c1.33,3.58,4.801,5.24,5.94,8.97
	c0.95,2.9,3.76,5.65,3.149,8.68c-0.26,2.4-1.959,3.23-3.619,4.73c0.05-1.061,0.109-2.121,0.17-3.181
	c0.619-0.49,1.229-0.979,1.84-1.479c-0.21-1.291-0.42-2.59-0.631-3.891c-0.68,2.33-0.969,5.03-2.889,6.74
	c-3.74,3.359-8.641,6.13-13.73,3.96c5.3-1.521,10.13-1.92,12.98-7.33c1.619-3.73,1.959-8.13-1.391-11.02
	c-3.49-2.96-4.88-6.76-5.5-11.19C223.79,174.66,223.07,168.34,225.54,162.47z"/>
<path fill="#FEFEFE" d="M245.15,162.1c0.99-0.57,2.27,0.52,3.229,0.95c-0.25,0.99-0.5,1.98-0.739,2.97
	c-1.351-0.08-2.701-0.15-4.051-0.23C243.88,164.73,243.66,162.21,245.15,162.1z"/>
<path fill="#677173" d="M111.81,164.32l2.19-0.29c0.08,1.02,0.15,2.03,0.22,3.04c0.66,7.99,0.25,15.85-2.32,23.5l-1.16-1.4
	c1.82-6.89,2.85-13.74,1.67-20.85C112.21,166.99,112.01,165.65,111.81,164.32z"/>
<path d="M248.38,163.05c1.45,1.53,2.99,2.52,2.58,4.88c-0.41,2.75-3.931,3.95-5.97,2.1c-1.25-1.16-1.07-2.66-1.4-4.24
	c1.35,0.08,2.7,0.15,4.051,0.23C247.88,165.03,248.13,164.04,248.38,163.05z"/>
<path fill="#1BEBFF" d="M85.73,165.85c0.96,0.96,1.92,1.92,2.87,2.89c-0.81,6.44-0.85,12.76,4.18,17.54
	c-0.94,1.41-1.8,2.89-2.67,4.35C85.05,183.16,84.55,174.57,85.73,165.85z"/>
<path fill="#404041" d="M104.66,166.68c0.94,0.24,1.89,0.47,2.84,0.69c1.63,0.36,3.27,0.67,4.91,0.95
	c1.18,7.11,0.15,13.96-1.67,20.85c-1.99-2.55-4.81-5.06-5.98-8.09C105.13,176.22,105.57,171.54,104.66,166.68z"/>
<path fill="#494A4B" d="M95.04,168.85c0.81,1.58,1.62,3.17,2.42,4.76c-2.08,1.51-3.28,2.9-4.55,5.14
	C92.39,175.14,90.93,170.9,95.04,168.85z"/>
<path fill="#363636" d="M96.34,175.92c0.9,0.69,1.7,1.44,2.41,2.33c8.18,10.65,16,22.971,26.52,31.48
	c8.03,6.609,16.63,12.74,25.9,17.49l-0.26,1.879l-0.03,1.93c-15.96-7.27-31.24-17.899-42.15-31.759
	c-5.46-6.13-10.1-12.92-13.57-20.37C95.51,177.89,95.91,176.9,96.34,175.92z"/>
<path fill="#2F3030" d="M89.84,176.45c1.97,2.92,3.84,5.89,5.4,9.05c-3-0.94-4-2.94-5.12-5.66
	C90.01,178.71,89.92,177.58,89.84,176.45z"/>
<path fill="#129AC4" d="M92.78,186.28c1.12,0.08,2.24,0.19,3.34,0.34c1.07,1.7,2.03,3.43,3.01,5.18c-1.75,0.72-3.17,1.76-5.15,1.41
	c-1.49-0.21-2.8-1.59-3.87-2.58C90.98,189.17,91.84,187.69,92.78,186.28z"/>
<path fill="#323232" d="M88.46,191.63c1.83,1.01,3.71,2.3,5.74,2.87c1.9,0.05,3.88-0.89,5.68-1.45c2.92,4.02,6.12,7.72,8.42,12.15
	c-3.66,0.69-7.02,0.78-10.49-0.75c1.79-0.88,7.44-1.58,7.12-4.32c-4.07,1.511-7.51,1.591-11.78,1.44
	c-1.85-2.021-2.8-4.46-3.68-7.021C89.13,193.58,88.8,192.6,88.46,191.63z"/>
<path fill="#0D7C8D" d="M126.36,197.58c-1.06,1.7-2.21,3.34-3.37,4.97c-1.43-1.42-2.85-2.85-4.23-4.32
	C121.29,197.99,123.81,197.69,126.36,197.58z"/>
<path fill="#974F3B" d="M207.02,198.03c-0.689,2.67-1.47,5.14-1.039,7.951c1.76-0.201,3.35,0.08,4.84-0.971
	c1.57-0.82,3.3-2.47,5.15-2.21c1.35,0.44,2.67,0.96,3.969,1.54c-1.879,1.01-3.75,0.67-5.799,0.881
	c-1.181,0.709-2.201,1.719-3.261,2.59c-2.43,0.68-4.7,1.02-6.44-1.19C202.75,203.26,204.49,200.32,207.02,198.03z"/>
<path fill="#4E4E4F" d="M104.93,200.13c0.32,2.74-5.33,3.44-7.12,4.32c-1.61-0.87-3.15-1.841-4.66-2.88
	C97.42,201.721,100.86,201.641,104.93,200.13z"/>
<path fill="#D57B5D" d="M231.391,203.04c-2.851,5.41-7.681,5.81-12.98,7.33c-2.551-1.08-4.67-2.44-7.53-2.56
	c1.06-0.871,2.08-1.881,3.261-2.59c2.049-0.211,3.92,0.129,5.799-0.881C224.24,205.83,227.391,204.5,231.391,203.04z"/>
<path fill="#FEFEFE" d="M129.9,205.73c3.34,0.97,6.52,1.949,10.04,2.069c0.58,3.16,1.19,6.3,1.83,9.45
	c-4.81-3.35-9.58-6.721-14.05-10.51L129.9,205.73z"/>
<path d="M223,222.07c5.16,0.369,11.061-2.541,14.96,1.949c3.729,4.4,1.8,14.01-4.08,15.851c-7.93,3.36-17.78,2.86-26.08,1.239
	c-4.05-0.949-9.64-2.199-11.77-6.189c-2.22-4.46,0.06-9.41,4.201-11.73C206.63,218.88,215.59,222.55,223,222.07z"/>
<path fill="#FAFAFA" d="M208,223.75c5.689,0.25,11.24,1.34,17,0.971c4.2,0.029,7.57-1.681,11.3,1.049
	c0.15,0.86,0.29,1.73,0.431,2.59c-11.131,0.631-22.221,0.291-33.351,0.201l0.229-1.17c-1.56,0.09-3.109,0.199-4.659,0.33
	C201.471,225.279,204.37,223.609,208,223.75z"/>
<path fill="#10A9C0" d="M151.17,227.221c3.49,1.709,6.85,3.069,10.81,2.489c4.79,0.03,10.13-2.069,13.72,2.101
	c-8.54,2.319-16.81,0.649-24.79-2.711L151.17,227.221z"/>
<path fill="#5C0202" d="M198.95,227.721c1.55-0.131,3.1-0.24,4.659-0.33l-0.229,1.17c11.13,0.09,22.22,0.43,33.351-0.201
	c0.56,3.091,0.199,6.851-2.881,8.49c-5.91,3.16-13.859,3.09-20.359,2.45c-4.52-0.649-9.91-1.399-13.721-4.069
	C197.28,233.32,197.53,230.21,198.95,227.721z"/>
<path fill="#0D8193" d="M150.91,229.1c7.98,3.36,16.25,5.03,24.79,2.711c0.63,1.02,1.22,2.08,1.68,3.189
	c0.4,1.6-0.73,2.9-2.38,2.721c-8.27-0.591-16.55-3.371-24.12-6.691L150.91,229.1z"/>
<path fill="#CD6A50" d="M209.37,246c7.01,0.12,13.78-0.02,20.78-0.5c-2.92,2.59-6.42,2.93-10.15,3.17
	C216.221,248.62,212.439,248.471,209.37,246z"/>
<path fill="#FFCC99" d="M162.22,247.8c12.16,7.69,24.49,14.341,38.219,18.83c2.74,3.33,3.24,8.64,0.061,11.91
	c-2.41,2.271-6.29,3.05-9.49,3.25c-9.1,0.521-18.34-1.899-26.1-6.649c-5.14-3.25-9.71-7.42-12.35-12.99
	c1.79-0.18,3.58-0.351,5.37-0.51C159.35,257.029,160.52,252.311,162.22,247.8z"/>
<path fill="#00182F" d="M155.96,252.98c-0.52,1.58-1.04,3.16-1.56,4.74c-3.52-1.111-6.72-1.171-10.38-0.971
	c-1.88,0.26-1.69-1.58-2.3-2.82C146.47,252.71,151.11,252.92,155.96,252.98z"/>
<path fill="#001A33" d="M139.35,255.279c1.75,5.65,5.25,10.021,8.76,14.641c5.32,7.221,11.61,13.45,18,19.7
	c-5.44,1.3-9.99,4.3-15.11,6.3c-1.72-0.52-2.92-3.49-4-4.92c-4.59-7.91-10.79-16.09-13.2-24.971
	C132.46,260.77,136.18,258.55,139.35,255.279z"/>
<path fill="#001A33" d="M130.62,261.561c0.63,6.18,2.47,10.869,5.73,16.1c4.52,7.13,8.62,14.58,13.61,21.39
	c3.44-1.53,6.73-3.35,10.13-4.95c3.84-1.72,8.31-2.479,12.09-0.189c-1.39,3.699-2.91,7.05-2.25,11.13
	c0.25,3.31,4.45,4.569,4.08,7.92c-1.97-0.89-3.98-2.271-6.12-2.649c-3.15,0.56-5.47,2.6-8.89,2.25
	c-7.45-0.451-14.65,0.1-21.91-1.271c-0.17-4.29,0.23-8.729-0.42-12.97c-0.95-1.6-3.14-2.5-4.67-3.471
	c0.38,6.061,0.99,12.07,0.89,18.15c-0.07,10.23,0.31,20.49-0.11,30.71c-5.77,0.94-13.38,1.03-17.21,6.13
	c13.93-2.199,28.1-2.39,42.1-0.689c-0.46,5.99-1.28,11.93,0.26,17.84c1.05,4.46,3.34,8.07,5.74,11.89
	c-15.22,0.54-30.45,1.38-45.68,2c-5.65,0.24-10.92-1.899-14.42-6.42c-3.33-4.01-3.22-9.56-3.85-14.47
	c-1.38-14.211-3.99-28.73-3.63-43c-0.12-5.1-1.96-9.86-2.16-14.99c-0.31-5.92-0.33-12.09-0.05-18.01
	c0.12-7.961,6.17-16.34,14.11-18.01c5.68-0.67,11.45,0.47,17.19,0.01c-1.1-1.08-2.2-2.16-3.3-3.25
	C124.77,262.15,127.67,261.66,130.62,261.561z"/>
<path fill="#FAFAFA" d="M144.77,261.08c1.17-0.09,2.34-0.18,3.51-0.27c1.52,3.899,3.49,7.469,6.52,10.39
	c8.23,8.01,19.2,12.8,30.64,13.67c-4.64,1.601-8.06,4-11.49,7.46C162.32,284.15,152.68,272.811,144.77,261.08z"/>
<path fill="#F9F9F9" d="M205.109,267.18c0.73,0.16,1.451,0.33,2.17,0.53c1.48,6.46,0.441,12.399-0.409,18.819
	c-2.31,0.591-4.61,1.221-6.89,1.91c-1.96-2.069-3.57-3.279-6.4-3.939c5.09-0.54,10.01-2.91,11.891-7.96
	C206.689,273.221,205.65,270.46,205.109,267.18z"/>
<path fill="#001A33" d="M210.189,268.02c1.75,0.211,4.16-0.17,4.971,1.82c2.609,5,3.29,11.27,3.869,16.82
	c-3.18-0.721-6.199-0.98-9.459-0.92C210.23,279.83,209.96,273.939,210.189,268.02z"/>
<path fill="#001A33" d="M218.12,269.17c4.43,0.84,9.069,2.02,13.351,3.46c6.209,2.46,9.889,7.931,11.43,14.261
	c-7.101,0.83-14.25,1.31-21.391,1.689C220.779,281.939,219.77,275.641,218.12,269.17z"/>
<path fill="#545556" d="M286.359,279.34c-2.369,0.33-4.799,0.46-7.129,0.98c-3.871,1.81-5.721,5.18-10.5,4.939
	c2.26-2.23,4.779-4.619,7.74-5.85C279.811,278.18,283.13,277.26,286.359,279.34z"/>
<path fill="#56B0B1" d="M302.41,284.85c-7.18-0.34-13.91-1.779-21.141-0.76c1.84,2.32,3.83,4.53,5.791,6.75
	c-0.041,1.29-0.09,2.59-0.141,3.881c-1.77-0.351-2.779-2.421-3.91-3.721c-1.81-2.71-4.369-4.471-4.17-7.98
	C286.13,280.55,295.25,282.49,302.41,284.85z"/>
<path fill="#0D889B" d="M281.27,284.09c7.23-1.02,13.961,0.42,21.141,0.76c2.92,0.851,5.07,2.65,7.359,4.551
	c-4.779,0.06-9.229-0.65-13.789,0.02c-2.98,0.41-5.951,0.93-8.92,1.42C285.1,288.62,283.109,286.41,281.27,284.09z"/>
<path fill="#AFAFAF" d="M192.51,287.83c1.73,0.22,2.81,1.27,4.16,2.25c-3.59-0.37-6.71-1.2-10.23,0.16
	c-4.75,2.14-9.23,4.09-11.11,9.369c-1.48,3.021-0.41,5.511,0.38,8.48c-1.1-1.92-2.04-3.79-2.22-6.04
	c0.49-1.149,0.95-2.31,1.39-3.479c1.05-1.771,1.82-3.87,3.2-5.4C181.84,289.59,187.24,287.109,192.51,287.83z"/>
<path fill="#58B0B2" d="M211.18,288.561c2.36-0.121,4.84-1.181,6.65,0.83c-6.96,0.639-13.74,1.739-20.17,4.6
	c-2.04,0.89-4.01,1.9-5.94,3c-2.65,1.59-5.22,3.289-8.03,4.609l0.29-1.33C191.47,294,201.54,289.95,211.18,288.561z"/>
<path fill="#AFD5DD" d="M271.061,288.27c1.109,0.84,2.199,1.681,3.26,2.59c-13.771,0.9-27.541,1.57-41.271,3
	c-2.26-2.08-4.271-1.629-7.06-1.56l-2.881-0.11C239.01,290.34,255.109,289.689,271.061,288.27z"/>
<path fill="#8BA2A7" d="M271.061,288.27c2.369-0.209,4.729-0.369,7.1-0.479c-0.36,0.69-0.721,1.38-1.07,2.069
	c1.54,2.19,3.061,4.4,4.58,6.601c-5.5,5.44-12.25,8.511-19.43,11.08l0.06-2.819c0.96-0.441,1.91-0.9,2.86-1.341
	c1.68-0.69,3.359-1.351,5.061-2c-0.031-0.229-0.061-0.46-0.091-0.7c2.86-1.38,4.8-3.51,6.74-5.97c-0.83-1.3-1.649-2.61-2.55-3.851
	C273.26,289.95,272.17,289.109,271.061,288.27z"/>
<path fill="#656668" d="M278.16,287.79c2.34,2.979,4.6,6.03,6.949,9.01c-1.229,1.06-2.449,2.15-3.659,3.24
	c-0.22,0.19-0.431,0.37-0.65,0.55c-8.079,5.641-16.69,9.85-26.8,9.48c-10.43,0.02-18.88-4.11-28.02-8.51
	c-0.101-1.211-0.16-2.42-0.19-3.641l0.521-2.05c-1.07-1.229-2.141-2.45-3.201-3.681l2.881,0.11c2.119,3.53,3.38,7.39,7.05,9.62
	c6.569,4.109,14.22,5.23,21.75,6.13c2.601,0.33,4.979,0.601,7.45-0.51c7.18-2.569,13.93-5.64,19.43-11.08
	c-1.52-2.2-3.04-4.41-4.58-6.601C277.439,289.17,277.8,288.48,278.16,287.79z"/>
<path fill="#10A3B9" d="M217.83,289.391l0.74,0.689c-5.23,5.72-13.99,7.779-20.91,3.91C204.09,291.13,210.87,290.029,217.83,289.391
	z"/>
<path fill="#0B6279" d="M309.77,289.4c0.98,1.32,0.82,2.66,0.891,4.209c-8.301-1.51-15.62-1.049-23.74,1.111
	c0.051-1.291,0.1-2.591,0.141-3.881c2.969-0.49,5.939-1.01,8.92-1.42C300.54,288.75,304.99,289.46,309.77,289.4z"/>
<path fill="#0F95AA" d="M218.57,290.08c1.63,1.83,3.24,3.68,4.9,5.49c-8.011,0.229-15.721,2.35-23.041,5.5
	c-2.78-1.62-5.63-3.09-8.709-4.08c1.93-1.1,3.9-2.11,5.94-3C204.58,297.859,213.34,295.8,218.57,290.08z"/>
<path fill="#2C2C2C" d="M193.28,290.99c-3.63,2.32-8.02,4.21-11.1,7.199c-1.82,1.461-1.22,4.67-1.38,6.761
	c-1.19,0.86-2.4,1.659-3.67,2.399C174.61,297.67,184.32,290.13,193.28,290.99z"/>
<path fill="#8CFFFF" d="M274.32,290.859c0.9,1.24,1.72,2.551,2.55,3.851c-1.94,2.46-3.88,4.59-6.74,5.97
	c0.03,0.24,0.06,0.471,0.091,0.7c-1.701,0.649-3.381,1.31-5.061,2c-7,0.83-14.24,0.841-21.16-0.59c-2.17-0.431-4.311-0.31-6.5-0.22
	c0.67-0.24,1.35-0.471,2.02-0.711c-3.6-1.84-6.129-3.59-8.33-7.069l1.86-0.931C246.779,292.43,260.55,291.76,274.32,290.859z"/>
<path fill="#90AEB4" d="M225.99,292.3c2.789-0.069,4.8-0.521,7.06,1.56l-1.86,0.931c2.201,3.479,4.73,5.229,8.33,7.069
	c-0.67,0.24-1.35,0.471-2.02,0.711c2.189-0.09,4.33-0.211,6.5,0.22c6.92,1.431,14.16,1.42,21.16,0.59
	c-0.95,0.44-1.9,0.899-2.86,1.341l-1.069,0.34c-2.021,0.319-4.03,0.64-6.01,1.129c-0.141,0.621-0.291,1.24-0.431,1.86
	c-7.53-0.899-15.181-2.021-21.75-6.13C229.37,299.689,228.109,295.83,225.99,292.3z"/>
<path fill="#5BEFF0" d="M311.06,295.16c0.811,0.07,1.561,0.41,2.25,1.01l-1.409,0.51c-7.471-0.68-14.75-1.01-22.131,0.641
	c-1.449,0.22-2.899,0.42-4.359,0.59c1.119-0.77,2.061-1.61,3.4-1.971C296.2,293.891,303.529,294.16,311.06,295.16z"/>
<path fill="#0B6178" d="M223.471,295.57c0.189,1.4,0.299,2.8,0.409,4.209c-12.5,0.391-24.45,3.57-33.97,12.041
	c-2.06-2.971-6.64-6.28-6.24-10.16c2.8,0.96,4.45,3.029,6.38,5.109c3.45-1.91,6.84-3.959,10.38-5.699
	C207.75,297.92,215.46,295.8,223.471,295.57z"/>
<path fill="#0D8294" d="M191.72,296.99c3.08,0.99,5.93,2.46,8.709,4.08c-3.54,1.74-6.93,3.789-10.38,5.699
	c-1.93-2.08-3.58-4.149-6.38-5.109l0.02-0.061C186.5,300.279,189.07,298.58,191.72,296.99z"/>
<path fill="#081618" d="M311.9,296.68c2.89,4.67,4.13,11.311,0.949,16.11c-3.21,4.61-9.06,5.26-14.05,3.55
	c-4.38-1.83-7.739-6.26-9.86-10.369c-1.779-2.761,0.141-5.841,0.83-8.65C297.15,295.67,304.43,296,311.9,296.68z"/>
<path fill="#303030" d="M311.9,296.68l1.409-0.51c5.101,8.28,8.931,17.09,9.971,26.859c-8.011,3.99-16.3,3.781-24.99,2.971
	c-0.75,4.84-1.84,9.4-4.261,13.7c-4.539-1.08-7.68-3.46-10.77-6.83c1.721-6.841,2.971-13.771,4.051-20.74
	c0.76-4.22-0.15-8.19-1.431-12.21c-0.89,0.68-2.18,1.07-2.351,2.311c-0.52,3.529-0.199,7.209-0.43,10.77
	c-0.35,7.359-2.1,14.58-5.08,21.32c-4.869-0.24-9.68-0.881-14.51-1.44c3.44-3.22,6.811-6.59,5.391-11.771
	c-2-4.67-7.9-5.59-12.371-4.689c-5.549,1-12.219,5.54-12.879,11.561c-0.42,3.26,1.649,4.84,3.43,7.149
	c-5.45,0.53-10.84,2.5-16.17,3.771c0.63-10.93-0.16-21.74-1.24-32.601c-1.09-0.42-2.17-0.85-3.26-1.28
	c-0.41,1.76-0.85,3.521-1.2,5.291c-0.56-1.84-1.25-3.631-1.96-5.42c-1.52-0.5-3.04-1-4.57-1.461c2.03-0.26,4.061-0.51,6.09-0.75
	c-0.069-0.33-0.14-0.67-0.199-1c0.42-1.25,0.84-2.5,1.22-3.76c0.03,1.221,0.09,2.43,0.19,3.641l0.149,1.189
	c5.431,3.41,11.61,5.73,17.79,7.4c4.01,1.1,7.95,0.879,12.08,0.89c7.93,0.25,16.07-3.13,22.561-7.511
	c1.18-0.699,1.68-1.76,2.239-2.939c0.22-0.18,0.431-0.359,0.65-0.55c1.36-0.649,2.72-1.261,3.96-2.13
	c1.46-0.17,2.91-0.37,4.359-0.59c-0.689,2.81-2.609,5.89-0.83,8.65c2.121,4.109,5.48,8.539,9.86,10.369
	c4.99,1.71,10.84,1.061,14.05-3.55C316.03,307.99,314.79,301.35,311.9,296.68z"/>
<path fill="#0D7C8D" d="M308.03,298.77c1.029,0.291,3.3,0.291,3.479,1.66c1.12,4.16,1.59,8.35-1.39,11.87
	c-3.61-0.35-7.22-0.649-10.851-0.76c-3.879-3.31-5.75-7.44-8.299-11.72C296.561,298.21,302.29,297.82,308.03,298.77z"/>
<path fill="#1F1F1F" d="M285.88,299.92c1.28,4.02,2.19,7.99,1.431,12.21c-0.121-1.55-0.281-3.09-0.471-4.63
	c-1.689,5.689-1.73,11.641-3.07,17.45c-2.27,10.93-5.83,22.489-12.049,31.85c-4.33,0.86-8.961,0.091-13.381,0.62
	c-13.1,1.34-26.24,3.32-38.99,6.66c4.07-7.359,6.95-15.16,8.15-23.51c1.15-8.82,1.23-17.75,0.42-26.6
	c-0.09-1.25-0.51-2.291-1.08-3.391c-0.08,1.939-0.061,3.88-0.08,5.82l-0.699,1.189c-0.34-2.42-0.65-4.84-0.851-7.279
	c0.351-1.771,0.79-3.531,1.2-5.291c1.09,0.431,2.17,0.86,3.26,1.28c1.08,10.86,1.87,21.671,1.24,32.601
	c5.33-1.271,10.72-3.24,16.17-3.771c2.939,0.399,5.85,1.261,8.811,0.66c2.659-0.54,5.229-1.66,7.619-2.91
	c4.83,0.56,9.641,1.2,14.51,1.44c2.98-6.74,4.73-13.961,5.08-21.32c0.23-3.561-0.09-7.24,0.43-10.77
	C283.7,300.99,284.99,300.6,285.88,299.92z"/>
<path fill="#52CED1" d="M224.57,301.68c0.06,0.33,0.13,0.67,0.199,1c-2.029,0.24-4.06,0.49-6.09,0.75
	c-8.26,0.94-16.02,3.53-23.08,7.92c-1.99,1.061-4.03,3.69-6.32,3.721c-1.12-1.12-2.21-2.25-3.36-3.33
	c-2.53,2.06-4.61,4.48-6.47,7.15c0.53,0.76,1.06,1.529,1.58,2.31c0.38,3.69-3.26,7.37-4.97,10.47c-1.43-0.37-2.86-0.74-4.3-1.109
	c-2.21,3.81-4.01,7.779-4.74,12.16c-0.29,1.859-0.54,3.729-0.79,5.59c-0.56-0.541-1.11-1.11-1.65-1.701
	c1-6.189,2.65-12.81,6.55-17.859c1.48,0.3,2.97,0.609,4.44,0.93c1.33-2.31,2.66-4.63,3.96-6.959c-0.46-1.32-1.88-3.141-1.43-4.49
	c1.59-2.83,4.1-5.221,6.2-7.681c-0.9-1.39-1.91-2.17-1.51-4.021c2.54,2.121,4.81,4.49,7.11,6.851
	C199.811,305.52,211.811,300.96,224.57,301.68z"/>
<path fill="#111212" d="M280.8,300.59c-0.56,1.18-1.06,2.24-2.239,2.939c-6.49,4.381-14.631,7.761-22.561,7.511
	c-4.13-0.011-8.07,0.21-12.08-0.89c-6.18-1.67-12.359-3.99-17.79-7.4l-0.149-1.189c9.14,4.399,17.59,8.529,28.02,8.51
	C264.109,310.439,272.721,306.23,280.8,300.59z"/>
<path fill="#61B3B2" d="M290.971,299.82c2.549,4.279,4.42,8.41,8.299,11.72c1.76,1.239,3.57,2.399,5.36,3.61
	c-4.26-0.061-7.28-1.53-10.04-4.711C292.18,307.141,289.279,304.189,290.971,299.82z"/>
<path d="M218.68,303.43c1.53,0.461,3.051,0.961,4.57,1.461c0.71,1.789,1.4,3.58,1.96,5.42c0.2,2.439,0.511,4.859,0.851,7.279
	c-1.051,2.87-1.521,5.471-4.431,7.061c-8.94,4.42-19.7,0.97-25.83-6.471c-0.89-1.88-0.18-4.729-0.2-6.83
	C202.66,306.96,210.42,304.37,218.68,303.43z"/>
<path fill="#226066" d="M261.23,305.061l-0.371,2.06c-1.969-0.06-3.83,0-5.639-0.931C257.2,305.7,259.21,305.38,261.23,305.061z"/>
<path fill="#59BFC4" d="M261.23,305.061l1.069-0.34l-0.06,2.819c-2.471,1.11-4.85,0.84-7.45,0.51c0.14-0.62,0.29-1.239,0.431-1.86
	c1.809,0.931,3.67,0.871,5.639,0.931L261.23,305.061z"/>
<path fill="#51ACAF" d="M221.939,305.79c0.531,1.84,1.07,3.681,1.561,5.53c-1.359-1.041-2.779-2.75-4.49-3.17
	c-6.6-0.75-12.46,3.1-18.64,3.109C207.1,307.51,214.26,305.92,221.939,305.79z"/>
<path fill="#66787C" d="M182.79,306.529c-0.4,1.851,0.61,2.631,1.51,4.021c-2.1,2.46-4.61,4.851-6.2,7.681
	c-0.45,1.35,0.97,3.17,1.43,4.49c-1.3,2.329-2.63,4.649-3.96,6.959c-1.47-0.32-2.96-0.63-4.44-0.93c1.72-1.46,4.05-2.779,4.87-4.95
	c0.48-1.44,0.39-3.079,0.51-4.59c-1.35,0.069-2.69,0.14-4.03,0.21C175.66,314.91,179.48,310.93,182.79,306.529z"/>
<path fill="#0D7B8C" d="M219.01,308.15c1.711,0.42,3.131,2.129,4.49,3.17c0.42,3.5,0.55,7.43-1.83,10.3
	c-1.609,1.95-4.32,2.19-6.641,2.59c-3.779,0.53-7.659-0.5-10.959-2.319c-3.68-2.291-7.12-4.031-7.14-8.951
	c1.15-0.56,2.29-1.119,3.44-1.68C206.55,311.25,212.41,307.4,219.01,308.15z"/>
<path fill="#343434" d="M195.6,311.35c0.02,2.101-0.69,4.95,0.2,6.83c6.13,7.44,16.89,10.891,25.83,6.471
	c2.91-1.59,3.38-4.19,4.431-7.061l0.699-1.189c0.44,5.189,0.471,10.33,0.221,15.529c-10.211,5.041-20.851,4.15-31.811,3.16
	c-1.46,3.689-2.9,7.53-4.68,11.07c-0.65-0.939-1.3-1.881-1.95-2.82c-4.16,0.25-8.42,0.95-12.58,0.689
	c-1.85-0.109-2.19-0.399-3.37-1.77c1.39-3.109,3.07-6.14,4.72-9.13c3.49-5.64,6.16-11.649,10-17.08
	c0.66-0.329,1.31-0.659,1.97-0.979C191.57,315.04,193.61,312.41,195.6,311.35z"/>
<path fill="#0D5265" d="M310.12,312.3c-1.72,1.5-3.26,2.33-5.49,2.851c-1.79-1.211-3.601-2.371-5.36-3.61
	C302.9,311.65,306.51,311.95,310.12,312.3z"/>
<path fill="#65888E" d="M185.92,311.74c1.15,1.08,2.24,2.21,3.36,3.33c-0.66,0.32-1.31,0.65-1.97,0.979
	c-1.75,0.71-5.01,0.64-5.52,2.8c-0.3,0.76-0.56,1.541-0.76,2.351c-0.52-0.78-1.05-1.55-1.58-2.31
	C181.31,316.221,183.39,313.8,185.92,311.74z"/>
<path fill="#001A33" d="M137.08,312.65c8.45-0.041,17.09-0.18,25.45,1.189c-1.45,3.51-3.97,6.58-6.69,9.18
	c-2.75,1.5-6.07,2.15-9.09,2.92c-3.01,0.94-6.65-1.289-9.45-2.31C137.08,319.96,137.01,316.32,137.08,312.65z"/>
<path fill="#FFCC99" d="M168.49,313.66c3.29,1,1.06,4.01,0.37,6.04c-1.27-1.32-2.59-2.56-3.98-3.761
	C166.03,314.83,166.56,312.79,168.49,313.66z"/>
<path fill="#536A6E" d="M187.31,316.05c-3.84,5.431-6.51,11.44-10,17.08c-2.11,0.99-4.83,1.97-6.36,3.81
	c-1.22,2.36-1.66,5.211-2.3,7.791c-0.54-0.67-1.09-1.34-1.63-2.01c0.73-4.381,2.53-8.351,4.74-12.16
	c1.44,0.369,2.87,0.739,4.3,1.109c1.71-3.1,5.35-6.779,4.97-10.47c0.2-0.81,0.46-1.591,0.76-2.351
	C182.3,316.689,185.56,316.76,187.31,316.05z"/>
<path fill="#090909" d="M268.9,321.109c1.42,5.181-1.95,8.551-5.391,11.771c-2.39,1.25-4.96,2.37-7.619,2.91
	c-2.961,0.601-5.871-0.261-8.811-0.66c-1.78-2.31-3.85-3.89-3.43-7.149c0.66-6.021,7.33-10.561,12.879-11.561
	C261,315.52,266.9,316.439,268.9,321.109z"/>
<path fill="#363840" d="M143.45,318.63c1.03-0.149,2.06-0.14,3.09,0.04c1.18,0.74,0.8,2.59,1.05,3.83
	c-0.68,0.67-1.37,1.35-2.05,2.02c-1.03-0.33-2.07-0.66-3.1-0.99C142.68,322.08,142.06,319.51,143.45,318.63z"/>
<path fill="#232424" d="M255.311,318.4c2.709-0.631,5.709-0.78,8.41-0.061c2.989,0.92,4.889,4.23,3.859,7.24
	c-1.641,4.689-6.88,7.85-11.57,8.67c-3.96,0.79-8.56,0.34-10.81-3.471C243.859,324.779,250.1,319.73,255.311,318.4z"/>
<path fill="#FFCC99" d="M164.96,318.54c0.68,0.69,1.17,1.53,1.47,2.51c-0.72,2.78-2.19,5.22-2.61,8.11
	c-1.44-2.68-2.29-3.1-5.21-3.93C160.29,323.12,162.19,319.2,164.96,318.54z"/>
<path fill="#4A5558" d="M172.48,319.42c1.34-0.07,2.68-0.141,4.03-0.21c-0.12,1.511-0.03,3.149-0.51,4.59
	c-0.82,2.171-3.15,3.49-4.87,4.95c-3.9,5.05-5.55,11.67-6.55,17.859c-0.81-1.229-2.8-3.029-2.13-4.59
	C164.43,334.07,167.66,326.08,172.48,319.42z"/>
<path fill="#383838" d="M323.41,324.51c0.14,3.461,0.17,6.9-0.28,10.34c-4.38,3.78-7.95,7.621-13.51,9.73
	c-6.24,2.48-12.899,3.16-18.94-0.27c-3.57-2.261-7.63-5.271-8.05-9.83c3.62,2.709,7.05,5.31,11.431,6.709
	c3.209-4.199,4.5-8.91,5.289-14.06C308.27,328.41,315.02,327.641,323.41,324.51z"/>
<path fill="#001A33" d="M141.83,327.82c4.38,1.18,8.1-0.18,12.44-0.82c-1.61,5.68-3.81,11.08-5.08,16.84
	c-4.04,0.141-8.06,0.1-12.09-0.061c0.12-5.439-0.27-10.969,0.31-16.379C138.64,326.84,140.52,327.68,141.83,327.82z"/>
<path fill="#FFCC99" d="M160.99,327.95c0.39,4.43-1.32,8.46-1.34,12.899c-1.39-2.31-2.45-3.09-5.03-3.97
	c0.57-2.659,1.27-5.21,2.78-7.5C158.31,327.529,159.21,327.96,160.99,327.95z"/>
<path fill="#464D4F" d="M177.31,333.13c-1.65,2.99-3.33,6.021-4.72,9.13c-1.25,2.76-2.48,5.52-3.81,8.23
	c-0.87-0.7-1.72-1.42-2.55-2.18c0.25-1.86,0.5-3.73,0.79-5.59c0.54,0.67,1.09,1.34,1.63,2.01c0.64-2.58,1.08-5.431,2.3-7.791
	C172.48,335.1,175.2,334.12,177.31,333.13z"/>
<path fill="#393939" d="M227.05,333.41c-0.36,3.59-0.93,7.13-1.81,10.64c-2.65,1.431-5.391,3.06-8.29,3.88
	c-4.181,1.24-8.681,0.99-12.99,1.221c-2.59,0.09-4.9,2.859-6.65,4.55c-2.55,0.11-5.1,0.21-7.65,0.29
	c-0.09-1.141-0.18-2.29-0.27-3.43c2.67-4.58,4.52-9.4,6.66-14.221C206.66,337.52,217.04,337.62,227.05,333.41z"/>
<path fill="#2A2A2A" d="M282.63,334.48c0.42,4.56,4.479,7.569,8.05,9.83c6.041,3.43,12.7,2.75,18.94,0.27
	c5.56-2.109,9.13-5.95,13.51-9.73c-0.76,6.131-1.939,12.131-4.54,17.78c-9.479,1.03-18.96,2.05-28.48,2.69
	c-5.479,0.34-10.75,1.4-16.279,1.119C277.529,349.609,281.35,342.2,282.63,334.48z"/>
<path fill="#070808" d="M272.689,337.93c-0.949,5.221-2.34,10.17-4.83,14.881c-12.01,1.66-24.109,2.719-36.159,4.18
	c1.409-4.61,2.76-9.16,3.67-13.91c0.14-2.27,3.04-1.75,4.61-2.16C250.891,340.13,261.76,338.141,272.689,337.93z"/>
<path fill="#FFCC99" d="M156.6,340.21c0.67,1.261,1.16,2.64,1.69,3.96c-1.8-0.02-3.6-0.061-5.4-0.1c0.05-1.37,0.12-2.74,0.21-4.11
	C154.39,339.74,155.5,339.16,156.6,340.21z"/>
<path fill="#2B2B2B" d="M271.189,339.01l-0.469,1.84c-10.801,0.94-21.691,1.801-32.41,3.4c-0.99,3.6-1.92,7.27-3.211,10.77
	l-1.119,0.15c1.129-4.09,2.119-8.189,2.939-12.35C248.311,341.33,259.79,340.46,271.189,339.01z"/>
<path fill="#1D1D1D" d="M270.721,340.85c-0.82,3.93-1.99,7.25-3.891,10.78c-10.58,1.12-21.141,2.431-31.73,3.39
	c1.291-3.5,2.221-7.17,3.211-10.77C249.029,342.65,259.92,341.79,270.721,340.85z"/>
<path fill="#3B3B3B" d="M172.59,342.26c1.18,1.37,1.52,1.66,3.37,1.77c4.16,0.261,8.42-0.439,12.58-0.689
	c0.65,0.939,1.3,1.881,1.95,2.82c-2.03,3.98-4.4,7.68-7.42,10.99c-5.15-1.471-10.04-3.32-14.29-6.66
	C170.11,347.779,171.34,345.02,172.59,342.26z"/>
<path fill="#1D1D1D" d="M225.24,344.05c-1.551,7.19-3.961,14.06-7.9,20.31c-1.57,2.44-4.14,4.211-6.26,6.211
	c-0.99-3.49-0.26-7.11-1.07-10.57c-1.4-3.87-3.72-7.48-6.05-10.85c4.31-0.23,8.81,0.02,12.99-1.221
	C219.85,347.109,222.59,345.48,225.24,344.05z"/>
<path fill="#404041" d="M161.68,345.21c2.73,2.56,5.28,5.67,8.37,7.72c3.15,2.09,6.67,3.65,10.3,4.68
	c1.3,0.25,3.01,1.011,4.02-0.229c1.99-1.979,3.57-4.43,5.02-6.819c0.09,1.14,0.18,2.289,0.27,3.43c2.55-0.08,5.1-0.18,7.65-0.29
	c-1.21,1.319-2.36,2.69-3.56,4.021c-2.41,2.559-4.95,4.989-7.43,7.489c-3.5,0.7-6.73,1.431-10.33,0.88
	c-3.45-0.449-6.73-2.58-9.92-3.97c-1.34,3.649-0.58,7.72-1.69,11.5C158.92,364.57,160.28,355.15,161.68,345.21z"/>
<path fill="#252525" d="M203.96,349.15c2.33,3.369,4.649,6.979,6.05,10.85c0.811,3.46,0.08,7.08,1.07,10.57
	c-3.971,4.5-8.38,8.49-13.51,11.64c-1.59-3.271-0.26-7.58-0.54-11.21c-0.41-5.061,0.66-9.37-3.28-13.279
	c1.2-1.33,2.35-2.701,3.56-4.021C199.06,352.01,201.37,349.24,203.96,349.15z"/>
<path fill="#353535" d="M318.59,352.63c-3.6,8.479-10.54,15.31-18.939,19.021c-4.51,1.97-9.69,2.1-14.11-0.19
	c-5.899-2.88-8.41-7.86-13.64-12.33c0.649-0.89,1.31-1.78,1.93-2.69c5.529,0.281,10.8-0.779,16.279-1.119
	C299.63,354.68,309.11,353.66,318.59,352.63z"/>
<path fill="#2C2C2C" d="M193.75,357.721c3.94,3.909,2.87,8.219,3.28,13.279c0.28,3.63-1.05,7.939,0.54,11.21
	c-2.64,1.58-5.42,2.899-8.34,3.88c-0.84-0.47-1.68-0.949-2.52-1.42c0.04-6.58-1.35-12.85-0.39-19.46
	C188.8,362.71,191.34,360.279,193.75,357.721z"/>
<path fill="#001A33" d="M261.99,360.66c2.9-0.27,5.43,0.34,8.1,1.369c-5.619,6.371-11.92,12.141-17.92,18.15
	c-3.51,3.53-6.891,6.62-12.141,6.961c-5.109,0.6-9.09-0.971-12.92-4.23c0.69-5.86,1.281-11.73,2.24-17.561
	C240.08,363.04,251.029,361.3,261.99,360.66z"/>
<path fill="#353535" d="M166.07,362.12c3.19,1.39,6.47,3.521,9.92,3.97c3.6,0.551,6.83-0.18,10.33-0.88
	c-0.96,6.61,0.43,12.88,0.39,19.46c0.84,0.471,1.68,0.95,2.52,1.42c-4.55,0.93-9.05,1.12-13.33-0.98
	c-4.85-2.399-8.76-6.92-11.52-11.489C165.49,369.84,164.73,365.77,166.07,362.12z"/>
<path fill="#001A33" d="M224.29,366.62c-0.28,5.79-1.2,11.489-1.69,17.271c-0.459,4.689-0.59,9.459-1.31,14.109h-22.37
	c0.11-4.311,0.31-8.6,0.859-12.88c4.851-3.36,9.011-6.99,13.021-11.31C216.061,370.32,219.54,367.7,224.29,366.62z"/>
<path fill="#001A33" d="M101.13,379.061c4.11,2.779,7.59,5.93,12.85,5.92c8.39,0.09,16.74,0.289,25.1-0.621
	c8.74-0.51,17.54-0.56,26.29-0.789c-0.12,4.85-0.72,9.63-1.38,14.43h-63.73C100.96,391.7,100.97,385.391,101.13,379.061z"/>
<path fill="#001A33" d="M165.91,383.311c3.08,0.75,5.08,2.76,7.49,4.629c-0.21,3.36-0.46,6.711-0.8,10.061h-8.05
	C165.27,393.109,165.69,388.25,165.91,383.311z"/>
<path fill="#FAFAFA" d="M197.07,386.55c-0.03,3.82-0.1,7.64-0.36,11.45h-21.86c0.32-2.99,0.76-5.971,1.13-8.96
	C183.41,391.7,190.34,390.189,197.07,386.55z"/>
</svg>
