<?xml version="1.0" encoding="utf-8"?>
<!-- Generator: Adobe Illustrator 16.0.0, SVG Export Plug-In . SVG Version: 6.00 Build 0)  -->
<!DOCTYPE svg PUBLIC "-//W3C//DTD SVG 1.1//EN" "http://www.w3.org/Graphics/SVG/1.1/DTD/svg11.dtd">
<svg version="1.1" id="Layer_1" xmlns="http://www.w3.org/2000/svg" xmlns:xlink="http://www.w3.org/1999/xlink" x="0px" y="0px"
	 width="400px" height="400px" viewBox="0 0 400 400" enable-background="new 0 0 400 400" xml:space="preserve">
<g>
	<g>
		<path fill-rule="evenodd" clip-rule="evenodd" d="M107.858,358.127c-3.786-1.034-3.751-2.402-0.629-4.572
			c6.705-4.661,14.604-5.354,22.218-6.313c11.451-1.444,22.53-3.459,31.988-10.741c-4.564-3.198-9.32-6.663-14.209-9.93
			c-13.381-8.942-17.699-22.732-20.122-37.504c-0.675-4.117-1.244-7.103-6.384-8.878c-6.849-2.365-9.976-9.646-13.335-15.61
			c-5.931-10.531-7.893-22.17-6.373-34.244c0.244-1.938,0.617-4.266,1.824-5.61c6.906-7.694,3.96-16.58,2.973-25.004
			c-0.506-4.32-1.047-8.609-0.642-12.868c0.699-7.346,2.373-14.521,2.561-22.018c0.243-9.688,6.822-15.8,14.708-20.551
			c1.313-0.791,2.977-0.854,3.708-2.833c6.993-18.922,21.823-28.938,40.144-34.825c23.729-7.624,47.65-7.356,71.639-1.375
			c1.65,0.412,3.671,0.561,4.869,2.268c-0.867,1.281-2.27,1.13-3.508,1.317c-1.146,0.173-2.314,0.196-4.349,0.353
			c4.527,1.771,8.335,3.178,12.078,4.737c13.313,5.546,25.315,13.488,33.317,25.333c6.871,10.169,11.717,22.353,12.106,34.593
			c0.268,8.428,0.85,17.427-1.832,26.09c-1.636,5.284-1.223,11.205-1.713,16.842c-0.069,0.804-0.257,1.63,0.527,2.289
			c9.178,7.707,7.053,17.825,5.954,27.759c-1.301,11.76-7.226,21.251-14.533,30.092c-1.18,1.428-2.458,3.108-4.26,3.305
			c-5.233,0.568-5.829,4.25-6.399,8.332c-0.506,3.612-1.422,7.169-2.19,10.743c-2.409,11.204-8.07,20.298-17.51,26.938
			c-4.891,3.44-9.769,6.9-14.415,10.183c9.499,8.452,21.328,10.608,33.642,11.655c7.893,0.671,15.958,1.296,22.187,7.432
			c-0.811,1.51-2.123,2.323-3.84,2.558c-2.715,1.206-4.719-0.997-7.07-1.517c-7.492-1.655-15.129-2.28-22.697-3.391
			c-2.687-0.395-3.751,0.553-3.272,3.269c0.826,4.688-0.837,9.247-0.795,13.903c0.015,1.593-0.749,2.87-2.161,3.698l-0.048,0.023
			c-3.935,0.895-3.146-2.122-2.927-3.963c0.435-3.638,0.509-7.264,0.614-10.91c0.168-5.787-2.58-9.284-8.354-11.214
			c-1.701,12.731-4.737,24.666-16.189,32.239c-1.553,1.258-3.277,0.751-4.979,0.483c-0.302-2.083,1.521-2.765,2.608-3.917
			c5.441-5.76,10.069-11.98,11.407-20.065c0.264-1.598,0.891-3.22-0.331-5.355c-6.189,20.564-22.573,23.468-39.969,22.531
			c-14.119-0.76-26.419-6.07-30.535-22.634c-1.289,2.164-0.674,3.694-0.4,5.171c1.495,8.058,6.398,14.118,11.702,19.947
			c2.301,2.53,2.284,2.546,1.365,4.926c-0.696-0.155-1.391-0.311-2.087-0.466c-3.519-0.475-5.126-3.364-7.18-5.688
			c-6.005-6.794-9.531-14.635-10.076-23.754c-0.074-1.24,0.454-2.904-1.161-3.467c-1.386-0.482-2.445,0.726-3.541,1.413
			c-2.083,1.308-3.198,3.21-3.643,5.646c-0.897,4.913-1.49,9.813-0.555,14.791c0.335,1.784,0.734,3.624-0.784,5.147
			c-1.104,0.036-2.243,0.184-3.004-0.911c-2.324-3.104-1.192-6.704-1.381-10.096c-0.157-2.802-0.15-5.628,0.102-8.43
			c0.202-2.248-0.365-3.588-2.946-3.17c-8.801,1.424-17.761,2.078-26.214,5.197C111.654,358.209,109.88,359.004,107.858,358.127z"/>
		<path fill-rule="evenodd" clip-rule="evenodd" fill="#F8F8F8" d="M176.027,381.293c2.012-2.202-0.867-2.555-1.542-3.273
			c-5.963-6.355-11.43-12.955-13.1-21.847c-0.304-1.616-0.309-3.291-0.414-4.94c-0.103-1.615,1.091-1.816,2.274-2.031
			c1.112-0.201,1.843-0.125,1.948,1.348c0.921,12.966,10.08,18.012,20.887,20.844c10.556,2.767,21.157,2.172,31.27-2.267
			c7.887-3.461,13.774-8.74,14.396-18.055c0.095-1.422,0.324-2.143,1.967-1.945c1.838,0.222,2.531,0.978,2.436,2.916
			c-0.351,7.174-2.702,13.588-6.997,19.296c-2.612,3.471-5.7,6.505-8.973,9.352c-3.294,3.02-7.832-0.094-11.257,2.283
			c-7.282-0.795-14.564-0.795-21.847,0C183.636,380.814,179.51,383.169,176.027,381.293z"/>
		<path fill-rule="evenodd" clip-rule="evenodd" fill="#001A33" d="M107.858,358.127c10.653-4.835,22.179-5.689,33.511-7.534
			c3.304-0.538,3.35-0.163,3.06,3.04c-0.611,6.748-0.34,13.576-0.432,20.372C131.106,370.634,119.258,364.891,107.858,358.127z"/>
		<path fill-rule="evenodd" clip-rule="evenodd" fill="#001A33" d="M147,374.916c-0.822-6.729-1.59-13.424-0.059-20.199
			c0.795-3.521,5.864-8.971,9.264-9.208c2.764-0.192,1.771,2.02,1.719,3.152c-0.575,12.46,5.902,21.694,13.689,30.344
			c0.649,0.721,1.546,1.22,2.327,1.822C164.795,379.61,155.745,377.959,147,374.916z"/>
		<path fill-rule="evenodd" clip-rule="evenodd" fill="#001A33" d="M252.063,374.03c0.827-6.329,2.673-12.579,1.14-19.074
			c-0.577-2.444-0.244-4.309,3.201-3.715c7.792,1.343,15.591,2.748,23.445,3.586c3.213,0.343,5.286,2.688,8.21,3.24
			C276.837,365.142,264.854,370.499,252.063,374.03z"/>
		<path fill-rule="evenodd" clip-rule="evenodd" fill="#001A33" d="M225.159,380.206c1.42-3.329,4.698-5.063,6.738-7.893
			c5.654-7.839,7.278-16.9,8.23-26.201c12.006,4.018,11.509,6.999,10.419,22.656c-0.14,2.01-1.827,4.289,1.468,5.284
			C243.296,377.124,234.356,379.228,225.159,380.206z"/>
		<path fill-rule="evenodd" clip-rule="evenodd" fill="#EAD6C1" d="M187.076,382.973c7.283-1.613,14.565-1.61,21.848,0.001
			C201.641,382.973,194.358,382.973,187.076,382.973z"/>
		<path fill-rule="evenodd" clip-rule="evenodd" fill="#FECB98" d="M128.115,252.917c3.401,2.604,7.268,3.853,11.517,4.241
			c12.299,1.123,24.597,1.524,36.875-0.1c10.189-1.349,13.145-4.596,13.731-14.691c0.135-2.325,0.215-4.657,0.233-6.986
			c0.045-6.16,0.884-7.059,7.077-7.401c8.103-0.449,9.396,0.782,9.348,8.91c-0.008,1.332-0.033,2.664-0.051,3.996
			c-0.415,0.758-0.454,1.599-0.329,2.4c0.793,5.07,0.748,10.278,2.296,15.226c0.39,0.602,0.538-0.652,0.113-0.138
			c-0.808,0.977-0.735-4.063,0.091-6.354c5.025,4.509,11.321,5.481,17.627,5.759c10.306,0.452,20.63,0.667,30.929-0.588
			c4.906-0.597,9.405-1.839,13.365-6.327c0.101,7.715-2.029,14.319-2.897,21.075c-1.23,9.565-2.61,19.104-5.115,28.446
			c-2.271,8.469-6.658,15.428-13.63,20.89c-7.355,5.765-15.071,11.007-23.232,15.459c-18.52,10.104-37.194,9.922-55.592-0.496
			c-6.942-3.932-13.544-8.418-20.041-13.071c-8.949-6.41-14.352-14.864-16.746-25.637c-3.036-13.655-4.588-27.528-6.849-41.296
			C126.73,254.924,125.44,253.154,128.115,252.917z"/>
		<path fill-rule="evenodd" clip-rule="evenodd" fill="#FECB98" d="M125.437,221.442c-0.667-6.725-0.48-12.644,2.208-18.477
			c2.898-6.287,3.235-13.18,3.353-20.025c0.086-5.003,0.377-9.968,1.84-14.813c0.738-2.443,1.938-3.645,4.673-3.041
			c7.938,1.752,15.515,0.188,22.754-3.068c2.34-1.053,3.964-0.988,6.344,0.2c17.315,8.648,35.415,10.697,54.21,5.684
			c0.668-0.178,1.182-0.476,1.384-1.589c-8.725,1.749-17.41,2.174-27.377,1.295c3.915-1.975,7.131-1.618,10.109-2.046
			c14.341-2.055,28.709-4.318,43.126-0.585c2.724,0.705,5.426,1.566,8.04,2.603c5.783,2.292,9.319,5.612,9.238,12.878
			c-0.096,8.563,0.895,17.235,4.388,25.398c1.854,4.331,1.426,9.075,0.93,13.653c-13.97-4.299-28.132-2.598-42.174-1.831
			c-6.683,0.364-13.763,0.191-19.604,4.63c-0.836,0.635-1.571,0.019-2.308-0.249c-5.212-1.891-10.408-1.927-15.605,0.057
			c-0.735,0.28-1.449,0.938-2.303,0.313c-6.017-4.417-13.236-4.136-20.094-4.821c-10.612-1.061-21.296-0.943-31.946-0.35
			C132.684,217.478,128.737,218.191,125.437,221.442z"/>
		<path fill-rule="evenodd" clip-rule="evenodd" fill="#653522" d="M214.857,106.181c1.258-0.09,2.585-0.561,3.964,0.979
			c-1.806,0.83-3.468,1.594-5.713,2.626c4.454,2.079,9.234,0.675,12.99,3.129c-2.983,2.411-6.746,0.924-9.406,1.976
			c9.33,0.298,18.601,2.931,27.286,7.694c-1.498-0.999-3.203-1.624-4.734-2.562c-0.674-0.412-1.593-0.842-1.118-1.854
			c0.42-0.894,1.366-0.898,2.167-0.628c4.394,1.481,8.772,3.006,12.764,5.435l-0.059-0.037c0.522,0.675,1.466,0.514,2.064,1.037
			L255,123.935c0.918,0.838,2.037,1.374,3.066,2.047l-0.068-0.053c0.319,0.386,0.669,0.396,1.043,0.082
			c0.316,0.271,0.633,0.543,0.949,0.814c0.184,0.354,0.466,0.504,0.862,0.417c3.448,2.02,6.442,4.604,9.241,7.43
			c1.24,1.252,1.116,1.259,1.221,4.368c0.027,0.809,1.034,1.608,1.645,2.369c6.412,7.985,11.395,16.842,13.8,26.752
			c2.197,9.053,0.423,18.389-0.44,27.501c-0.383,4.041-1.161,8.135-1.397,12.254c-2.086-1.222-3.572-1.744-4.503,1.536
			c-0.709,2.499-1.785,4.945-2.496,7.488c-0.498,1.782-1.126,4.024-3.147,4.009c-2.519-0.021-0.454-2.859-1.657-3.96
			c1.314-9.28-4.17-17.326-4.772-26.287c-0.288-4.273-0.521-8.5-0.228-12.889c2.379,0.418,2.143,3.23,4.965,3.734
			c-1.928-6.874-6.254-11.251-11.898-14.254c-13.834-7.362-28.8-7.08-43.824-5.845c-4.786,0.394-9.549,1.074-14.322,1.624
			c-5.173,0.917-10.233,0.27-15.18-1.286c-1.677-0.528-4.128-1.173-3.607-3.371c0.471-1.987,2.793-1.042,4.364-0.989
			c7.958,0.269,15.936,0.896,23.732-1.275c-8.598,2.354-17.045,0.803-25.32-1.542c-3.945-1.117-4.271-3.523-1.147-6.742
			c7.711-7.944,17.202-12.886,25.202-15.279c-7.044,1.188-16.741,2.735-25.299,8.022c-6.079,3.756-11.464,8.555-17.931,11.739
			c-6.88,3.389-13.68,6.931-21.631,6.974c-3.212,0.017-6.065-0.379-6.578-4.424c-0.146-1.152-0.561-2.102-2.136-2.281
			c-5.301-0.604-5.349-0.776-3.834-6.689c0.387-0.886,0.858-1.732,1.282-2.6c0.176-0.433,0.378-0.856,0.577-1.279
			c2.586-6.132,6.713-11.223,10.871-16.02c-1.786,1.418-2.745,3.865-4.794,5.347c-1.313,0.129-2.645,0.443-3.885-0.327
			c4.619-7.706,12.084-11.882,19.739-15.757c5.58-2.824,11.359-5.179,17.594-6.19c1.095,0.926,2.671-0.168,4.008,1.135
			c-1.665,3.966-6.641,2.76-8.477,5.204c10.266-5.322,21.853-7.809,33.897-8.405C207.955,106.864,211.456,107.176,214.857,106.181z"
			/>
		<path fill-rule="evenodd" clip-rule="evenodd" fill="#461704" d="M137.722,131.05c1.104-0.112,2.192-1.812,3.313-0.03
			c-0.636,4.452-4.49,7.542-5.083,12.012l0.055-0.089c-0.504,0.498-0.506,1.222-0.809,1.811c-0.62,2.384-1.767,4.705-0.886,7.271
			c5.539-2.178,5.671-2.199,6.652,3.597c0.406,2.398,1.854,2.312,3.561,2.415c8.363,0.506,15.424-3.28,22.604-6.735
			c8.403-4.044,14.949-10.974,23.566-14.775c7.899-3.486,16.192-4.573,24.587-5.464c1.016-0.108,2.339-0.513,3.448,1.448
			c-9.76,0.605-17.477,5.514-25.201,10.44c-2.553,1.628-4.564,3.837-6.833,5.771c-3.42,2.916-1.902,4.524,1.384,5.081
			c7.953,1.349,15.892,3.486,24.079,1.393c1.219-0.313,2.587-0.044,5.365-0.044c-11.505,5.104-22.136,4.042-34.042,3.254
			c6.922,3.521,13.114,4.598,19.555,4.67c-11.133,2.395-22.166,2.457-32.969-1.614c-3.154-1.188-5.005-2.855-1.314-5.772
			c0.856-0.677,1.884-1.4,1.956-3.595c-11.844,9.375-24.343,14.404-38.989,8.759c1.04,5.067-2.707,9.259-2.807,14.166
			c-1.013,0.625-2.304-2.64-3.147,0.243c-2.508,3.298-1.322,8.352-5.238,10.963c-3.261-2.551-1.072-5.724-1.008-8.653
			c0.285-4.969,2.253-9.324,5.003-13.39c-1.095,1.627-1.095,1.627-3.414,3.05c-0.813-0.614-0.522-1.512-0.604-2.252
			c0.25-0.221,0.185-0.456,0.002-0.331c-0.549,0.373,0.074-0.303,0.037,0.363c-0.037,0.665-0.031-0.28-0.098,0.427
			c-0.167,2,0.174,4.028-0.75,5.878c-0.452,0.903-1.083,1.76-2.229,1.596c-1.21-0.174-1.447-1.301-1.535-2.246
			c-0.34-3.647,1.329-6.702,3.05-9.725l-0.045,0.074c0.521-5.603,4.156-9.272,7.962-12.838c0.801,0.723,1.601,1.445,2.664,2.404
			C130.844,143.239,132.292,136.281,137.722,131.05z"/>
		<path fill-rule="evenodd" clip-rule="evenodd" fill="#FECB98" d="M198.021,368.974c-6.584,0.323-12.929-0.695-18.818-3.832
			c-3.931-2.095-7.129-4.989-8.98-9.06c-2.265-4.981-1.401-6.337,4.004-6.995c0.825-0.101,2.293,0.007,2.383-0.3
			c1.664-5.674,5.405-1.984,8.002-1.575c10.81,1.7,21.39,1.563,32.183-0.808c3.069-0.674,7.593,2.022,10.359,4.427
			c1.7,1.478-0.083,5.052-1.605,7.276c-5.045,7.371-12.745,9.76-21.04,10.825C202.379,369.206,200.186,368.974,198.021,368.974z"/>
		<path fill-rule="evenodd" clip-rule="evenodd" fill="#633421" d="M118.985,160.939c-0.591,3.729-3.174,7.211-1.347,11.715
			c2.248-2.718,0.928-6.47,3.368-8.648l-0.012-0.01c0.001,0.998,0.003,1.997,0.005,2.996c1.574,3.286-1.687,6.499-0.147,9.785
			c0.574,3.055-2.486,6.143,0.083,9.18c2.689-3.503,2.437-8.027,4.126-11.878c0.445-1.088,1.146-2.604,2.209-2.215
			c0.823,0.301,1.117,2.048,1.646,3.152c-0.199,10.448-0.359,20.882-4.899,30.661c-1.89,4.07-0.784,8.528-1.143,12.802
			c-0.147,1.749,0.994,4.321-2.337,4.454c-2.975,0.118-2.889-2.418-3.241-4.157c-0.516-2.546-0.728-5.115-2.449-7.321
			c-1.907,1.428,0.038,3.793-2.47,5.422c-0.522-6.021-0.169-11.751-1.424-17.281c-2.864-12.619,0.523-24.264,5.623-35.625
			C117.108,162.782,117.594,161.48,118.985,160.939z"/>
		<path fill-rule="evenodd" clip-rule="evenodd" fill="#040403" d="M209.888,248.009c-0.683-0.114-1.635-2.931-1.992,0.2
			c-2.191-1.111-1.671-2.627-0.631-4.221c0.781-0.035,1.427-0.294,1.761-1.067c1.084-3.863,0.212-7.807,0.485-11.704
			c0.136-1.929-0.384-3.979,1.097-5.646c5.105-5.115,11.933-4.264,18.187-4.96c9.366-1.043,18.815-0.563,28.232-0.625
			c2.856-0.018,5.565,0.669,8.297,1.306c1.241,0.762,2.658,1.474,0.936,3.123c-4.965,0.776-9.756-1.987-14.807-0.807
			c0.341,1.469,1.637,2.104,2.454,3.102c5.748,7.011,3.704,13.908-5.03,16.814c-2.748,0.914-5.558,0.944-8.37,0.429
			c-4.464-0.816-8.877-0.605-13.371-0.013c-5.253,0.692-10.717,1.456-14.685-3.513c-0.166-0.34-0.073-0.694,0.002-1.049
			c-0.322,0.15-0.407,0.402-0.363,0.767c0.13,1.076,0.468,2.102,0.739,3.147c0.262,1.112,0.333,2.225,0.043,3.338
			C212.543,248.523,210.962,247.718,209.888,248.009z"/>
		<path fill-rule="evenodd" clip-rule="evenodd" fill="#DC8D69" d="M117.92,238.049c2.395,2.879,3.236,6.07,3.256,9.914
			c0.025,4.73,1.16,9.45,1.727,14.185c0.229,1.913,0.924,3.93-0.586,5.686c-2.561,1.752-4.2-0.142-5.325-1.803
			c-6.069-8.96-9.792-18.744-9.162-29.754c0.159-2.77,1.001-5.543,3.396-7.447c2.653,0.686,4.059,2.604,4.959,5.02
			c0.095,5.354-3.721,10.057-2.168,15.121c0.042-1.557-0.311-3.668,0.09-5.649C114.556,241.104,114.387,238.148,117.92,238.049z"/>
		<path fill-rule="evenodd" clip-rule="evenodd" fill="#DD8E6A" d="M274.645,267.826c-0.964-1.712-0.665-3.485-0.294-5.28
			c1.234-5.972,2.066-11.997,1.786-18.104c-0.111-2.43,0.474-4.532,1.787-6.503c1.064-1.374,2.159-1.469,2.993,0.138
			c0.968,1.867,1.888,3.782,2.052,5.939c0.224,2.252-0.239,4.457-0.482,6.675c-0.209,0.629,0.172-0.134-0.063,0.49
			c-0.114,0.303-0.271,0.582-0.449,0.848c0.229-0.163,0.235-0.479,0.451-0.655c0.317-3.531,1.444-7.082-0.279-10.563
			c-0.32-1.43-1.052-2.707-1.466-4.097c-1.14-3.822,0.082-5.689,4.675-7.174c3.521,2.082,3.945,5.658,3.852,9.105
			c-0.261,9.674-3.543,18.487-8.646,26.603C279.336,267.196,277.783,269.677,274.645,267.826z"/>
		<path fill-rule="evenodd" clip-rule="evenodd" fill="#FAC896" d="M274.645,267.826c1.309,0.39,2.44-0.173,3.097-1.122
			c6.756-9.767,11.341-20.201,9.433-32.481c-0.254-1.638-0.788-3.251-2.344-4.23c-0.219-0.553,0.084-1.719-1.231-0.905
			c-0.782,0.484-1.696,0.734-2.482-0.12c0.908-2.146-2.276-5.894,2.009-6.551c4.473-0.688,6.87,2.617,7.612,6.373
			c2.56,12.965,0.095,25.213-7.05,36.23c-2.87,4.426-5.148,9.826-11.513,12.033C273.134,273.661,271.625,270.247,274.645,267.826z"
			/>
		<path fill-rule="evenodd" clip-rule="evenodd" fill="#FBC997" d="M111.225,228.829c-5.159,11.941-0.295,22.609,4.477,33.163
			c1.2,2.652,2.628,5.933,6.614,5.841c3.513,2.092,1.948,5.647,2.864,8.902c-2.478-0.065-4.023-1.025-5.358-2.521
			c-9.908-11.099-14.871-24.069-14.749-38.959c0.026-3.186,0.645-6.278,2.108-9.111c1.31-2.537,3.59-4.468,6.376-3.728
			c2.855,0.758,1.056,3.629,1.292,5.576c-0.368,0.305-0.769,0.356-1.203,0.155c-0.255,0.058-0.442-0.03-0.562-0.263
			c-0.442-0.27-0.833-0.627-1.341-0.783c-0.544,0.185-1.087,0.37-1.631,0.555c0.167,0.575,0.423,1.066,1.091,1.177L111.225,228.829z
			"/>
		<path fill-rule="evenodd" clip-rule="evenodd" fill="#313131" d="M190.075,227.076c-1.524,1.193-2.26,2.642-2.146,4.691
			c0.176,3.148-0.145,6.328,0.087,9.47c0.735,9.944-3.443,12.154-12.534,13.688c-12.039,2.029-24.15,0.863-36.213-0.012
			c-6.768-0.49-10.359-3.56-11.323-8.94c1.424-0.443,2.079,0.672,2.856,1.458c3.67,3.712,7.961,5.066,13.046,3.505
			c2.337-0.059,4.986-1.142,6.376,1.912c-0.757,0.882-1.825,0.515-2.764,0.719c7.127-1.264,14.259-1.479,20.999-0.079
			c-0.268,0.037-0.905-0.056-1.519-0.367c0.742-3.506,3.493-2.013,5.553-2.25c1.431-0.049,2.684,1.522,4.229,0.453
			c0.467-0.723,1.133-0.966,1.954-0.836c0.721,0.501,1.326,0.739,1.245-0.574c0.884-1.139,2.211-1.464,3.452-1.954
			c2.869-1.476,2.033-4.213,2.29-6.591c0.522-4.848-1.285-9.915,1.366-14.567C188.112,226.172,189.137,226.152,190.075,227.076z"/>
		<path fill-rule="evenodd" clip-rule="evenodd" fill="#8C6A5D" d="M253.057,122.977c-4.618-1.696-9.237-3.393-13.855-5.089
			c-0.119,0.218-0.237,0.437-0.356,0.655c2.894,1.832,5.786,3.665,8.679,5.497c-11.441-4.899-23.269-7.877-35.695-9.54
			c2.271-0.395,4.53-0.903,6.817-1.152c2.471-0.271,4.967-0.298,7.453-0.432C235.826,114.283,244.971,117.211,253.057,122.977z"/>
		<path fill-rule="evenodd" clip-rule="evenodd" fill="#333332" d="M209.888,248.009c-0.274-2.349,2.072,0.109,2.328-1.269
			c5.344,2.243,10.715,4.318,16.673,4.22c1.091-0.019,2.348,0.478,2.249,2.079c-0.505,0.412-1.148,0.356-1.744,0.474
			c0.337,0.196,0.695,0.013,0.989-0.05c7-1.478,13.972-1.066,20.936,0.204c0.014,0.037,0.04-0.012,0.079-0.11
			c-0.852-0.287-1.881,0.151-2.611-0.648c1.002-2.778,3.292-2.031,5.332-1.973c2.971,1.133,5.795,0.541,8.553-0.768
			c4.023-1.623,4.023-1.623,5.385-0.12c-0.673,0.656-1.346,1.313-2.02,1.969c-0.34,0.306-0.688,0.603-1.042,0.892
			c-11.958,3.459-24.15,3.593-36.41,2.466c-3.779-0.348-7.666-0.128-11.29-1.488C214.229,252.736,210.815,251.903,209.888,248.009z"
			/>
		<path fill-rule="evenodd" clip-rule="evenodd" fill="#8D6D60" d="M214.857,106.181c-4.747,3.353-10.346,1.548-15.502,2.355
			c-11.203,1.757-22.017,4.489-32.759,8.622c1.763-1.144,3.468-2.394,5.306-3.402c2.022-1.109,4.167-1.997,6.318-3.009
			c-0.678-1.399-2.654-0.125-3.166-1.645C188.15,105.791,201.46,105.386,214.857,106.181z"/>
		<path fill-rule="evenodd" clip-rule="evenodd" fill="#3E3E3E" d="M190.075,227.076c-1.028-0.023-2.055-0.047-3.083-0.071
			c-0.289-0.038-0.577-0.076-0.867-0.108c-0.558-0.181-1.068-0.454-1.535-0.806c-6.695-3.46-14.086-3.298-21.254-3.584
			c-8.239-0.329-16.516-0.211-24.773-0.112c-7.658,0.408-9.007,1.88-9.285,9.377c-0.08,2.147,1.157,5.034-2.212,6.087
			c-0.004-3.655,0.17-7.323-0.059-10.965c-0.263-4.181,1.889-6.177,5.612-6.862c9.883-1.818,19.864-1.368,29.773-0.593
			c5.258,0.411,10.58,0.181,15.814,1.415c3.576,0.843,7.151,1.333,9.787,4.213c0.305,0.31,0.64,0.347,1.005,0.111
			c0.346-0.023,0.691-0.047,1.036-0.069c0.322,0.24,0.503,0.56,0.545,0.959c-0.072,0.387-0.24,0.724-0.519,1.004L190.075,227.076z"
			/>
		<path fill-rule="evenodd" clip-rule="evenodd" fill="#414141" d="M265.873,222.196c-12.967-2.438-26.005-1.26-39.007-0.565
			c-5.51,0.294-11.365,0.066-15.853,4.381c-0.947,0.207-1.33-0.144-1.093-1.106c3.992-4.828,9.905-4.199,15.104-4.759
			c9.859-1.062,19.801-1.458,29.75-1.204c4.506,0.114,8.861,0.835,13.155,2.109C268.022,222.831,266.955,222.526,265.873,222.196z"
			/>
		<path fill-rule="evenodd" clip-rule="evenodd" fill="#461705" d="M273.117,216.989c0.499,1.123,0.998,2.246,1.602,3.606
			c3.297-3.66,2.85-8.566,5.03-12.41c0.865-1.525,0.796-4.217,2.648-4.396c2.468-0.237,0.798,3.218,2.524,4.127
			c0.302,2.663-0.1,5.233-0.849,7.798c-0.347,1.186-0.532,2.489-2.106,1.927c-1.186-0.424-0.839-1.592-0.486-2.548
			c0.401-1.088,0.825-2.171-0.036-3.51c-2.439,1.982-1.96,5.042-2.979,7.46c-0.685,1.622-0.042,4.296-3.216,3.971
			c-3.239-0.332-1.971-2.811-2.233-4.549C272.943,217.99,273.077,217.482,273.117,216.989z"/>
		<path fill-rule="evenodd" clip-rule="evenodd" fill="#161311" d="M127.066,237.858c1.654-2.022,0.969-4.452,0.772-6.594
			c-0.608-6.611,1.706-10.033,10.252-10.138c0.752,0.396,1.354,0.867,0.912,1.851c-7.276,1.419-8.583,6.398-7.665,12.765
			c0.163,1.129,0.021,2.303,0.023,3.455c0.021,8.027,0.38,8.506,8.256,11.076c1.24,0.404,2.587,0.626,3.359,1.873
			c-5.725,1.79-10.048,0.014-15.029-6.174C126.057,243.441,127.329,240.566,127.066,237.858z"/>
		<path fill-rule="evenodd" clip-rule="evenodd" fill="#313131" d="M209.921,224.905c0.364,0.368,0.729,0.737,1.093,1.106
			c-1.428,3.826-0.924,7.819-1.071,11.764c-0.065,1.735,0.728,3.677-0.917,5.146c0.001-3.823-0.145-7.652,0.049-11.464
			c0.146-2.895-1.159-4.206-3.792-4.872c-5.142-1.3-10.179-0.646-15.22,0.484c-0.021-0.35-0.042-0.699-0.063-1.049
			c3.831-2.952,8.492-2.191,12.832-2.867C205.268,223.441,207.317,225.296,209.921,224.905z"/>
		<path fill-rule="evenodd" clip-rule="evenodd" fill="#282726" d="M265.873,222.196c0.801-0.176,1.671-0.228,2.059-1.145
			c1.642,0.645,2.114,1.955,2.106,3.589c-0.032,6.99-0.027,13.98-0.076,20.971c-0.012,1.715-0.582,3.254-1.906,4.437
			c-2.007-1.212-3.287,1.431-5.152,0.973c-0.414,0.369-0.786,0.313-1.123-0.108c0.556-2.645,3.248-3.094,4.808-4.708
			c1.891-2.499,0.856-5.392,1.076-8.101c0.304-3.738-0.491-7.533,0.576-11.24c0.184-0.637,0.177-1.016,0.048-0.362
			c-0.006,0.032-0.308,0.006-0.496,0.009c-1.235-0.397-2.211-0.962-1.781-2.508C267.108,223.313,266.141,222.781,265.873,222.196z"
			/>
		<path fill-rule="evenodd" clip-rule="evenodd" fill="#7C3326" d="M281.116,228.967c2.03,0.089,3.142-2.988,5.551-1.641
			c0.052,1.373-1.469,1.619-1.837,2.666c-6.092,2.758-2.554,7.074-1.771,10.944c0.241,1.19,1.428,2.694-0.993,3.006
			c-1.334-2.033,0.194-6.041-4.142-6.004C279.024,234.961,277.924,231.2,281.116,228.967z"/>
		<path fill-rule="evenodd" clip-rule="evenodd" fill="#643624" d="M126.901,148.176c0.595,2.357-1.724,2.824-2.657,4.2
			c-1.894,2.794-3.55,5.749-5.305,8.638c-0.117-2.938-1.753-1.289-2.947-0.976c-1.322-2.805,1.563-3.844,2.449-5.71
			c0.761-1.604,2.645-2.31,3.539-3.869C123.346,149.105,124.842,148.033,126.901,148.176z"/>
		<path fill-rule="evenodd" clip-rule="evenodd" fill="#894030" d="M117.92,238.049c-4.688,3.379-2.253,8.621-3.394,13.651
			c-3.392-6.812-0.413-12.287,1.658-17.852C116.763,235.249,117.341,236.649,117.92,238.049z"/>
		<path fill-rule="evenodd" clip-rule="evenodd" fill="#00162B" d="M235.558,344.575c-2.982-0.226-5.857-1.259-8.696-0.045
			c-0.817,0.35-1.683,0.224-2.083-0.653c-0.476-1.041,0.48-1.379,1.128-1.816C229.231,339.818,233.716,340.885,235.558,344.575z"/>
		<path fill-rule="evenodd" clip-rule="evenodd" fill="#431604" d="M122.978,239.936c-3.289-2.367-4.074-4.734-3.966-7.512
			c0.05-1.289,0.448-2.256,1.966-2.257c1.498,0,1.985,0.922,1.995,2.232C122.989,234.646,122.978,236.894,122.978,239.936z"/>
		<path fill-rule="evenodd" clip-rule="evenodd" fill="#763024" d="M207.265,243.988c-0.101,1.452-0.474,2.945,0.631,4.219
			c0.373,1.271,0.747,2.542,1.12,3.813c0,2.313,0,4.625,0,7.081c-3.024-4.068-3.784-10.724-2.171-18.216
			C206.984,241.92,207.125,242.954,207.265,243.988z"/>
		<path fill-rule="evenodd" clip-rule="evenodd" fill="#00172D" d="M160.857,344.495c1.931-3.225,4.405-3.713,7.097-3.454
			c1.781,0.171,4.484,0.666,4.216,2.503c-0.378,2.596-2.669,0.288-4.107,0.442C165.966,344.211,163.853,344.293,160.857,344.495z"/>
		<path fill-rule="evenodd" clip-rule="evenodd" fill="#401504" d="M273.444,238.311c-0.915-2.139-0.392-4.283-0.377-6.369
			c0.01-1.476,1.061-1.996,2.416-1.742c1.49,0.278,1.129,1.329,0.831,2.303C275.688,234.547,276.597,237.347,273.444,238.311z"/>
		<path fill-rule="evenodd" clip-rule="evenodd" fill="#78594D" d="M121.98,150.459c-1.138,3.729-5.146,5.664-5.988,9.578
			c-0.798,0.922-1.252,2.258-3.09,2.403C114.336,157.052,117.499,153.269,121.98,150.459z"/>
		<path fill-rule="evenodd" clip-rule="evenodd" fill="#3C3C3C" d="M117.618,227.059c2.129-1.637,4.372-1.045,7.749-1.04
			C122.13,228.811,119.868,227.822,117.618,227.059z"/>
		<path fill-rule="evenodd" clip-rule="evenodd" fill="#535353" d="M202.831,223.154c-4.179,1.396-8.765,0.971-12.832,2.867
			c-0.002-0.305,0.01-0.61,0.037-0.914C194.04,222.746,198.395,222.679,202.831,223.154z"/>
		<path fill-rule="evenodd" clip-rule="evenodd" fill="#3B3B3B" d="M278.863,227.242c-2.067,0.97-3.729,1.059-6.285-0.437
			C275.184,225.754,276.854,225.218,278.863,227.242z"/>
		<path fill-rule="evenodd" clip-rule="evenodd" fill="#C49C75" d="M128.115,252.917c-1.418,0.723-0.767,2.245-1.281,3.316
			c-1.036-1.591-0.868-3.356-0.791-5.333C127.364,251.042,127.708,252.016,128.115,252.917z"/>
		<path fill-rule="evenodd" clip-rule="evenodd" fill="#8C6A5D" d="M258.066,125.981c-1.436-0.063-2.536-0.627-3.066-2.047
			C256.408,124.038,257.497,124.62,258.066,125.981z"/>
		<path fill-rule="evenodd" clip-rule="evenodd" fill="#8C6A5D" d="M255.063,123.977c-0.88,0.035-1.686-0.077-2.064-1.037
			C253.917,122.825,254.718,122.946,255.063,123.977z"/>
		<path fill-rule="evenodd" clip-rule="evenodd" fill="#313131" d="M189,225.178c-0.394,0.494-0.723,0.404-1.005-0.111
			C188.33,225.104,188.665,225.141,189,225.178z"/>
		<path fill-rule="evenodd" clip-rule="evenodd" fill="#DC8D69" d="M111.745,227.103c0.672-0.127,1.12,0.132,1.34,0.782
			C112.639,227.624,112.192,227.363,111.745,227.103z"/>
		<path fill-rule="evenodd" clip-rule="evenodd" fill="#DC8D69" d="M111.206,228.834c-0.722-0.059-1.07-0.465-1.091-1.176
			C110.749,227.798,111.162,228.145,111.206,228.834z"/>
		<path fill-rule="evenodd" clip-rule="evenodd" fill="#8C6A5D" d="M260.853,127.242c-0.613,0.537-0.706-0.004-0.862-0.416
			C260.282,126.955,260.57,127.094,260.853,127.242z"/>
		<path fill-rule="evenodd" clip-rule="evenodd" fill="#8C6A5D" d="M259.041,126.011c-0.414,0.822-0.748,0.621-1.043-0.082
			C258.346,125.956,258.693,125.983,259.041,126.011z"/>
		<path fill-rule="evenodd" clip-rule="evenodd" fill="#DC8D69" d="M113.648,228.148c0.401-0.052,0.802-0.104,1.203-0.156
			c-0.145,0.367-0.29,0.734-0.435,1.101C114.16,228.778,113.904,228.463,113.648,228.148z"/>
		<path fill-rule="evenodd" clip-rule="evenodd" fill="#282726" d="M264.994,252.908c0.348-0.298,0.694-0.595,1.042-0.892
			C265.689,252.313,265.342,252.61,264.994,252.908z"/>
		<path fill-rule="evenodd" clip-rule="evenodd" fill="#030202" d="M198.794,315.868c-8.489-0.256-16.881-1.407-24.602-6.114
			c-5.295-3.229-6.742-9.815-12.13-12.799c-0.545-0.301-0.519-1.159-0.026-1.764c1.108-1.357,2.775-1.625,4.086-1.033
			c2.621,1.182,5.36,1.716,8.119,2.27c17.177,3.451,34.328,3.417,51.468-0.318c1.98-0.431,3.72-1.26,5.521-2.112
			c1.592-0.753,3.486-0.467,4.426,1.141c1.01,1.729-0.83,2.084-1.872,2.78c-0.53,0.354-1.059,0.846-1.355,1.399
			C225.211,312.771,212.72,315.511,198.794,315.868z"/>
		<path fill-rule="evenodd" clip-rule="evenodd" fill="#7C3225" d="M185.856,281.789c-6.392,0.511-7.976-1.623-5.703-7.685
			c0.909-0.198,1.412-0.005,1.016,1.054c-0.111,1.602-0.811,3.403,1.116,4.427c1.866,0.991,3.126-0.369,4.368-1.416
			c1.772-1.494,3.513-1.696,5.341-0.158c0.545,0.384-0.152-0.081,0.394,0.302c6.215,4.353,6.215,4.353,12.54-0.367
			c1.676-1.466,3.229-1.196,4.91,0.121c1.367,1.072,2.819,2.84,4.78,1.295c1.815-1.429,0.815-3.303,0.31-5.053
			c-0.256-0.886-1.247-1.686-0.337-2.943c2.253,2.438,3.83,5.065,2.488,8.359c-1.095,2.685-3.571,2.58-5.984,2.165
			c-3.492-2.58-5.747,0.261-8.278,1.889c-2.88,2.047-5.789,2.252-8.736,0.14C191.604,282.186,189.344,279.614,185.856,281.789z"/>
		<path fill-rule="evenodd" clip-rule="evenodd" fill="#CC694F" d="M187.991,320.641c7.685,0.247,14.978,0.673,22.43-0.311
			C206.69,325.168,193.181,325.444,187.991,320.641z"/>
		<path fill-rule="evenodd" clip-rule="evenodd" fill="#D17B5D" d="M204.928,277.945c-6.024,7.626-6.984,7.631-12.934,0.064
			C196.312,279.397,200.624,279.515,204.928,277.945z"/>
		<path fill-rule="evenodd" clip-rule="evenodd" fill="#C98D6A" d="M202.816,283.778c4.023-5.859,4.188-5.897,8.278-1.889
			C208.335,282.52,205.576,283.148,202.816,283.778z"/>
		<path fill-rule="evenodd" clip-rule="evenodd" fill="#CA8E6B" d="M185.856,281.789c3.846-3.667,3.846-3.667,8.225,2.13
			C191.374,283.075,188.382,283.33,185.856,281.789z"/>
		<path fill-rule="evenodd" clip-rule="evenodd" fill="#A56249" d="M181.169,275.158c-0.338-0.351-0.677-0.702-1.016-1.054
			c0.175-1.055,0.698-1.842,1.728-2.235l0.348,0.349C182.172,273.305,182.146,274.403,181.169,275.158z"/>
		<path fill-rule="evenodd" clip-rule="evenodd" fill="#A56249" d="M181.881,271.869c0.188-0.197,0.513-0.586,0.543-0.564
			c0.587,0.423,0.155,0.662-0.197,0.91C182.229,272.218,181.881,271.869,181.881,271.869z"/>
		<path fill-rule="evenodd" clip-rule="evenodd" fill="#5B311F" d="M257.733,212.621c-1.357,0.289-2.127-0.753-2.922-1.452
			c-8.544-7.515-18.292-8.698-28.909-5.708c-3.51,0.988-7.112,1.657-10.594,2.727c-3.686,1.132-3.538-0.624-2.818-3.229
			c0.446-1.614,1.575-2.428,2.914-3.176c7.972-4.451,16.515-5.837,25.495-4.698C247.586,197.933,256.665,205.694,257.733,212.621z"
			/>
		<path fill-rule="evenodd" clip-rule="evenodd" fill="#5B311F" d="M139.055,213.19c1.22-7.491,10.302-15.303,17.071-16.135
			c8.666-1.064,16.919,0.271,24.676,4.336c1.017,0.533,2.202,1.13,2.773,2.035c0.847,1.342,1.896,3.059,0.83,4.61
			c-0.966,1.406-2.503,0.164-3.686-0.086c-4.877-1.031-9.693-2.349-14.567-3.396c-7.544-1.622-14.543-0.408-20.818,4.305
			C143.422,210.297,141.396,211.584,139.055,213.19z"/>
		<path fill-rule="evenodd" clip-rule="evenodd" fill="#471805" d="M159.127,138.083c-1.257-2.224,1.018-2.367,1.967-3.083
			c6.192-4.665,12.647-8.89,18.181-14.508c4.926-5.003,11.691-7.178,18.747-8.126c-5.54,3.001-11.245,5.725-16.284,11.812
			c18.112-3.685,34.736-3.075,50.336,5.32c-6.042-1.269-11.927-3.454-18.243-3.399c-6.845,0.915-13.782,0.526-20.625,1.679
			c-10.152,1.709-19.916,4.633-29.403,8.57c-0.888,0.368-1.749,0.997-2.815,0.646c-0.32,0.26-0.641,0.52-0.962,0.779
			C159.823,138.16,159.52,138.251,159.127,138.083z"/>
		<path fill-rule="evenodd" clip-rule="evenodd" fill="#906F62" d="M160.986,136.994c16.463-9.221,34.203-12.247,52.845-10.896
			c-4.198,1.717-8.724,1.152-13.071,1.859c-7.016,1.142-13.895,2.543-19.916,6.669c5.14-0.827,9.949-3.146,15.255-3.292
			c-12.699,4.106-23.691,11.802-35.992,16.667c-2.301,0.91-4.526,2.119-7.123,1.977l0.04,0.046
			c6.838-5.049,13.677-10.099,20.832-15.382C168.962,134.108,165.542,138.459,160.986,136.994z"/>
		<path fill-rule="evenodd" clip-rule="evenodd" fill="#8E6C5F" d="M256.041,154.006c-9.375-2.063-18.762-3.381-28.263-0.093
			c3.92-3.363,8.452-4.582,13.238-5.109c0.661-1.813-3.019-0.825-1.894-2.936C245.608,146.821,251.895,148.19,256.041,154.006z"/>
		<path fill-rule="evenodd" clip-rule="evenodd" fill="#4A1A07" d="M256.041,154.006c-5.11-3.813-10.997-6.011-16.919-8.137
			c4.96-1.452,9.289,0.71,13.611,2.524c6.094,2.558,10.496,7.074,13.78,12.798c-3.438-2.087-5.75-5.738-9.729-7.035l-0.453,0.098
			l-0.354-0.3L256.041,154.006z"/>
		<path fill-rule="evenodd" clip-rule="evenodd" fill="#4A1A07" d="M227.879,150.54c-9.189,3.038-17.304,0.54-25.072-3.959
			C211.169,148.108,219.458,150.063,227.879,150.54z"/>
		<path fill-rule="evenodd" clip-rule="evenodd" fill="#886557" d="M135.951,143.031c0.039-4.704,2.757-8.274,5.083-12.012
			c2.3-2.945,4.699-5.785,8.188-7.577C143.975,129.447,139.821,136.145,135.951,143.031z"/>
		<path fill-rule="evenodd" clip-rule="evenodd" fill="#896557" d="M266.156,141.387c-5.87-3.24-11.938-5.769-18.175-7.937
			C255.32,133.244,261.13,136.568,266.156,141.387z"/>
		<path fill-rule="evenodd" clip-rule="evenodd" fill="#856051" d="M156.783,128.521c3.754-4.788,8.666-7.971,14.395-9.944
			C166.524,122.073,161.464,124.986,156.783,128.521z"/>
		<path fill-rule="evenodd" clip-rule="evenodd" fill="#906F62" d="M152.985,149.978c-0.353,0.254-0.705,0.509-1.057,0.763
			c-0.25-1.182,0.722-0.491,1.097-0.717L152.985,149.978z"/>
		<path fill-rule="evenodd" clip-rule="evenodd" fill="#886557" d="M135.198,144.753c-0.04-0.742,0.008-1.444,0.809-1.811
			C135.737,143.546,135.467,144.149,135.198,144.753z"/>
		<path fill-rule="evenodd" clip-rule="evenodd" fill="#8E6C5F" d="M255.979,153.954c0.266,0.083,0.535,0.15,0.808,0.201
			C256.344,154.775,256.179,154.296,255.979,153.954z"/>
		<path fill-rule="evenodd" clip-rule="evenodd" fill="#906F62" d="M159.127,138.083c0.316-0.053,0.615-0.155,0.897-0.309
			C159.845,138.224,159.786,139.021,159.127,138.083z"/>
		<path fill-rule="evenodd" clip-rule="evenodd" fill="#856153" d="M120.852,176.777c-2.022-3.293-0.424-6.531,0.147-9.785
			c2.143-0.811,2.235-3.691,4.913-4.553C124.235,167.41,121.164,171.646,120.852,176.777z"/>
		<path fill-rule="evenodd" clip-rule="evenodd" fill="#805B4D" d="M125.061,174.079c0.434,4.67-2.577,8.712-2.453,13.344
			c0.014,0.521-0.792,1.187-1.359,0.428c-0.34-0.455-0.224-1.251-0.313-1.894C122.127,181.934,122.778,177.724,125.061,174.079z"/>
		<path fill-rule="evenodd" clip-rule="evenodd" fill="#633421" d="M121.006,164.006c0.063-0.987,0.226-1.928,1.282-2.363
			c0.074-0.03,0.354,0.175,0.358,0.278c0.048,1.155-0.785,1.633-1.652,2.075L121.006,164.006z"/>
		<path fill-rule="evenodd" clip-rule="evenodd" fill="#FDCB98" d="M266.011,224.002c0.584,0.763,1.169,1.526,1.753,2.289
			c1.053,6.929,1.706,13.842-0.819,20.629c-1.69,1.335-3.382,2.669-5.072,4.004c-2.153,1.088-4.307,2.18-6.825,1.212
			c-2.139-0.11-4.281-0.264-6.313,0.653c-5.834,1.182-11.671,1.099-17.511,0.041c-3.711-0.523-7.425-1.023-11.131-1.577
			c-3.199-0.479-5.805-2.042-7.876-4.513c-0.137-1.241-0.272-2.482-0.408-3.724c-0.365-1.371-0.581-2.736,0.17-4.061
			c4.374,4.54,9.656,5.21,15.515,3.769c4.265-1.05,8.585-0.626,12.906-0.251c2.469,0.214,5.033,0.472,7.438,0.048
			c7.808-1.374,10.388-8.341,5.479-14.393c-1.634-2.014-3.359-3.953-5.014-5.893C254.078,221.942,260.118,222.078,266.011,224.002z"
			/>
		<path fill-rule="evenodd" clip-rule="evenodd" fill="#72A7DC" d="M226.076,224.861c3.95-1.583,7.955-2.208,12.083-0.696
			c4.787,3.034,6.042,5.738,4.604,11.121c-0.512,1.919-0.932,3.642-0.072,5.488c-5.499-0.009-10.999-0.018-16.498-0.026
			C220.479,235.372,220.439,229.881,226.076,224.861z"/>
		<path fill-rule="evenodd" clip-rule="evenodd" fill="#FBFCFC" d="M242.691,240.774c-1.01-0.428-2.021-0.856-3.041-1.29
			c3.926-6.534,3.619-9.583-1.491-15.319c4.909,0.144,9.058,2.049,12.166,5.798c1.411,1.701,3.415,3.587,2.366,6.153
			c-1.143,2.796-3.479,4.41-6.522,4.75C245.027,240.993,243.852,240.814,242.691,240.774z"/>
		<path fill-rule="evenodd" clip-rule="evenodd" fill="#FBFBFC" d="M226.076,224.861c-4.393,5.327-2.978,10.613,0.114,15.887
			c-4.641,0.668-10.315,0.787-11.521-4.088c-1.041-4.205,3.224-7.979,7.231-10.343C223.146,225.584,224.677,225.333,226.076,224.861
			z"/>
		<path fill-rule="evenodd" clip-rule="evenodd" fill="#E8B98B" d="M211.708,232.572c-0.325-4.742,0.831-7.897,5.933-8.154
			C215.698,227.088,213.809,229.685,211.708,232.572z"/>
		<path fill-rule="evenodd" clip-rule="evenodd" fill="#333332" d="M211.978,238.956c-0.057,1.354-0.113,2.707-0.17,4.061
			c-1.19-1.274-1.157-2.719-0.563-4.228c0.031-0.079,0.263-0.144,0.372-0.113C211.752,238.713,211.858,238.857,211.978,238.956z"/>
		<path fill-rule="evenodd" clip-rule="evenodd" fill="#9A523E" d="M282.065,243.942c1.243-0.701,0.8-1.958,0.992-3.006
			c1.779,3.887,1.349,7.56-1.075,11.037l0.044,0.045C282.039,249.327,282.053,246.635,282.065,243.942z"/>
		<path fill-rule="evenodd" clip-rule="evenodd" fill="#9A523E" d="M281.982,251.974c-0.074,0.138-0.148,0.275-0.223,0.413
			c0.089-0.123,0.178-0.245,0.267-0.368L281.982,251.974z"/>
		<path fill-rule="evenodd" clip-rule="evenodd" fill="#FDCB98" d="M142.977,252.146c-2.441-0.478-4.957-0.727-7.308-1.485
			c-3.64-1.175-5.819-3.553-5.717-7.75c0.093-3.821-0.31-7.651-0.334-11.479c-0.045-7.065,0.451-7.576,7.303-8.588
			c0.801-0.118,1.572-0.442,2.357-0.671c1.963-1.306,4.162-0.584,6.233-0.587c1.483-0.002,3.728-1.094,4.355,0.928
			c0.538,1.733-1.536,2.718-2.676,3.868c-0.584,0.59-1.258,1.098-1.783,1.738c-1.767,2.16-4.387,4.348-2.887,7.373
			c1.556,3.138,4.188,5.632,8.014,6.055c1.974,0.218,3.969,0.162,5.948-0.262c4.275-0.914,8.557-0.78,12.866-0.093
			c4.79,0.765,9.509,1.274,13.692-2.317c2.064-1.773,3.842-1.311,3.404,1.877c-0.418,3.051,0.848,6.873-3.378,8.429
			c-1.058,0.577-2.115,1.154-3.173,1.731c-0.206,0.46-0.494,0.52-0.866,0.181c-0.872-0.148-1.645,0.021-2.254,0.709
			c-0.796,1.101-1.767,0.697-2.735,0.316c-2.457-0.051-4.907-0.033-7.289,0.699c-5.501,1.082-11.002,1.071-16.503,0.008
			C147.883,251.961,145.44,251.945,142.977,252.146z"/>
		<path fill-rule="evenodd" clip-rule="evenodd" fill="#040303" d="M183.066,249.183c3.229-2.78,2.385-6.608,2.562-10.997
			c-5.799,7.773-13.18,4.547-20.231,4.027c-3.28-0.241-6.616,0.223-9.923,0.433c-2.486,0.157-4.961,0.41-7.412-0.305
			c-7.442-2.171-9.372-8.224-4.52-14.217c1.641-2.026,3.292-4.045,4.842-5.95c-2.639,0-5.874,0-9.107,0
			c-0.396-0.35-0.792-0.699-1.188-1.048c14.223-0.197,28.462-0.8,42.566,1.815c2.176,0.403,4.179,1.059,5.449,3.053
			c0.264,0.366,0.562,0.704,0.892,1.013l-0.003-0.002c0.005,5.739,0.16,11.483-0.059,17.213
			C186.846,246.507,186.994,249.605,183.066,249.183z"/>
		<path fill-rule="evenodd" clip-rule="evenodd" fill="#161311" d="M150.246,252.827c5.501-0.003,11.002-0.005,16.503-0.008
			c1.747,0.172,3.493,0.344,5.239,0.516c-0.011,0.154-0.021,0.308-0.032,0.461c-8.972,0-17.944,0-26.917,0
			c-0.01-0.16-0.021-0.319-0.031-0.479C146.755,253.153,148.5,252.99,150.246,252.827z"/>
		<path fill-rule="evenodd" clip-rule="evenodd" fill="#0B0A09" d="M174.038,252.12c0.912-0.105,1.823-0.211,2.735-0.316
			C176.079,253.785,175.068,253.038,174.038,252.12z"/>
		<path fill-rule="evenodd" clip-rule="evenodd" fill="#0B0A09" d="M179.027,251.095c0.27-0.152,0.558-0.213,0.866-0.181
			c0.17,0.225,0.341,0.449,0.511,0.674C179.721,252.049,179.321,251.72,179.027,251.095z"/>
		<path fill-rule="evenodd" clip-rule="evenodd" fill="#0E0C0A" d="M231.223,252.83c5.837-0.014,11.674-0.027,17.511-0.041
			c1.409,0.208,2.818,0.416,4.228,0.624c-0.014,0.139-0.027,0.278-0.042,0.417c-8.949,0-17.899,0-26.85,0
			c-0.012-0.146-0.023-0.291-0.035-0.437C227.764,253.205,229.493,253.018,231.223,252.83z"/>
		<path fill-rule="evenodd" clip-rule="evenodd" fill="#0E0C0A" d="M255.047,252.136c2.274-0.404,4.55-0.808,6.825-1.212
			c0.345,0.032,0.689,0.064,1.033,0.097C260.432,252.43,257.992,254.067,255.047,252.136z"/>
		<path fill-rule="evenodd" clip-rule="evenodd" fill="#313131" d="M186.996,227.007c-0.298-0.338-0.596-0.676-0.893-1.013
			C186.402,226.332,186.699,226.669,186.996,227.007z"/>
		<path fill-rule="evenodd" clip-rule="evenodd" fill="#040303" d="M266.944,246.92c0.967-6.849,1.31-13.722,0.819-20.629
			c0.134-0.094,0.269-0.188,0.402-0.281c1.3,7.057,1.647,14.098-0.402,21.086C267.758,247.115,267.229,246.982,266.944,246.92z"/>
		<path fill-rule="evenodd" clip-rule="evenodd" fill="#F7F7F7" d="M172.032,302.976c-0.967-1.09-1.935-2.179-3.674-4.139
			c6.142,0.875,11.232,1.675,16.342,2.315c13.669,1.713,27.243,1.012,40.721-1.782c0.904-0.188,2.101-0.979,2.667,0.042
			c0.543,0.979-0.746,1.68-1.264,2.485c-4.474,4.601-10.576,4.981-16.226,5.227c-9.761,0.424-19.587,1.001-29.361-0.646
			C177.857,305.908,174.826,304.867,172.032,302.976z"/>
		<path fill-rule="evenodd" clip-rule="evenodd" fill="#F3F3F3" d="M221.909,306.87c-15.28,8.106-30.584,8.119-45.911,0.131
			c0.209-2.184,1.735-1.538,2.952-1.298c8.684,1.716,17.473,1.152,26.234,1.352c4.522,0.103,8.857-0.902,13.266-1.505
			C219.879,305.354,221.437,304.639,221.909,306.87z"/>
		<path fill-rule="evenodd" clip-rule="evenodd" fill="#9D9D9D" d="M221.909,306.87c-2.192-2.04-4.362-0.056-6.448,0.206
			c-12.524,1.566-24.981,1.665-37.396-0.857c-0.841-0.171-1.642-0.174-2.066,0.782c-1.946-0.727-3.122-2.213-3.967-4.025
			c15.993,4.119,32.079,4.512,48.231,1.083c2.239-0.476,4.377-1.429,6.562-2.161C225.465,303.831,224.224,305.881,221.909,306.87z"
			/>
		<path fill-rule="evenodd" clip-rule="evenodd" fill="#030406" d="M234.02,227.903c3.554,0.828,3.816,3.425,2.951,6.183
			c-0.738,2.354-2.813,3.412-5.181,2.758c-3.354-0.928-4.103-3.543-3.557-6.699c1.129-0.717,2.46-0.207,3.628-0.621
			c0.503-0.228,0.938-0.551,1.305-0.968C233.4,228.273,233.688,228.059,234.02,227.903z"/>
		<path fill-rule="evenodd" clip-rule="evenodd" fill="#F7F7F8" d="M233.219,229.755c-1.508,2.116-3.249,1.254-4.987,0.391
			c-0.369-1.953-0.161-3.765,1.938-4.55c2.078-0.776,2.872,1.016,3.849,2.309c-0.13,0.437-0.26,0.875-0.39,1.313
			C233.492,229.396,233.355,229.576,233.219,229.755z"/>
		<path fill-rule="evenodd" clip-rule="evenodd" fill="#72A7DB" d="M170.762,240.76c-5.484,0.002-10.968,0.005-16.452,0.007
			c2.451-1.338,0.919-2.614,0.023-4.032c-2.644-4.189,0.008-8.018,0.94-11.958c5.224-1.812,10.438-2.099,15.637,0.1
			C176.392,230.236,176.356,233.988,170.762,240.76z"/>
		<path fill-rule="evenodd" clip-rule="evenodd" fill="#FCFCFC" d="M155.273,224.776c2.423,0.584,0.926,1.886,0.435,2.835
			c-1.708,3.306-2.197,6.812,0.259,9.677c2.681,3.127-0.698,2.549-1.662,3.479c-1.321,0.025-2.683,0.26-3.967,0.042
			c-5.933-1.009-7.829-5.757-4.171-10.423C148.493,227.419,151.478,225.411,155.273,224.776z"/>
		<path fill-rule="evenodd" clip-rule="evenodd" fill="#FCFCFC" d="M170.762,240.76c-0.04-0.484-0.31-1.179-0.087-1.422
			c4.373-4.771,3.407-9.59,0.237-14.462c4.18,0.689,7.183,3.124,9.473,6.527c3.442,5.116,1.921,8.628-4.2,9.486
			C174.417,241.138,172.571,240.818,170.762,240.76z"/>
		<path fill-rule="evenodd" clip-rule="evenodd" fill="#E6B88A" d="M185.783,230.03c0.02,0.974,0.04,1.946,0.059,2.92
			c-0.253,0.483-0.516,0.512-0.789,0.017l-0.011-0.031c-0.356-0.242-0.593-0.567-0.691-0.989c-1.216-2.734-3.123-4.987-4.906-7.517
			c2.264,0.463,4.845,0.286,5.706,3.362C185.488,228.503,185.426,229.325,185.783,230.03z"/>
		<path fill-rule="evenodd" clip-rule="evenodd" fill="#AF8C69" d="M185.053,232.967c0.263-0.007,0.526-0.013,0.789-0.017
			c-0.059,0.42-0.12,1.204-0.175,1.204C184.795,234.147,185.082,233.468,185.053,232.967z"/>
		<path fill-rule="evenodd" clip-rule="evenodd" fill="#AF8C69" d="M185.783,230.03c-0.705-0.606-0.833-1.376-0.632-2.238
			C185.835,228.404,186.039,229.152,185.783,230.03z"/>
		<path fill-rule="evenodd" clip-rule="evenodd" fill="#AF8C69" d="M184.351,231.946c0.23,0.33,0.461,0.659,0.691,0.989
			C184.812,232.605,184.581,232.276,184.351,231.946z"/>
		<polygon fill-rule="evenodd" clip-rule="evenodd" fill="#72A7DC" points="233.219,229.755 233.229,229.32 233.631,229.214 
			233.653,229.637 		"/>
		<path fill-rule="evenodd" clip-rule="evenodd" fill="#06090B" d="M165.09,227.921c3.34,0.665,4.125,2.909,3.288,5.81
			c-0.664,2.299-2.459,3.52-4.874,3.215c-2.619-0.331-3.93-2.112-4.25-4.656c-0.136-1.081,0.664-1.345,1.476-1.566
			C162.115,229.683,163.561,228.737,165.09,227.921z"/>
		<path fill-rule="evenodd" clip-rule="evenodd" fill="#F1F4F8" d="M165.09,227.921c-0.29,2.736-1.829,3.534-4.356,2.804
			c-1.016-1.5-2.518-3.053-0.303-4.656C162.82,224.337,164.017,226.085,165.09,227.921z"/>
	</g>
</g>
</svg>
