<?xml version="1.0" encoding="utf-8"?>
<!-- Generator: Adobe Illustrator 16.0.0, SVG Export Plug-In . SVG Version: 6.00 Build 0)  -->
<!DOCTYPE svg PUBLIC "-//W3C//DTD SVG 1.1//EN" "http://www.w3.org/Graphics/SVG/1.1/DTD/svg11.dtd">
<svg version="1.1" id="Layer_1" xmlns="http://www.w3.org/2000/svg" xmlns:xlink="http://www.w3.org/1999/xlink" x="0px" y="0px"
	 width="400px" height="400px" viewBox="0 0 400 400" enable-background="new 0 0 400 400" xml:space="preserve">
<g>
	<g>
		<path fill-rule="evenodd" clip-rule="evenodd" fill="#010202" d="M303.925,236.155c0.007,0.797,0.052,1.479-0.554,2.259
			c-2.018,2.6-3.853,5.065-0.634,8.444c1.848,1.938,1.719,5.135,0.679,7.648c-2.209,5.336-2.31,10.421-0.237,15.904
			c1.959,5.184-0.707,7.035-5.064,9.951c-7.3,4.884-14.189,5.374-22.208,2.85c-2.599-0.818-5.94,0.305-8.847,0.964
			c-9.471,2.146-18.852,1.616-28.091-0.962c-5.178-1.445-7.725,2.313-6.872,6.792c1.549,8.137,3.507,16.353,3.643,24.563
			c0.165,9.907-1.054,19.887-3.059,29.669c-0.918,4.482-1.187,9.136-1.418,13.56c-0.273,5.228,4.792,8.271,9.089,10.881
			c1.114,0.677,2.6,0.77,3.664,1.497c2.783,1.902,4.058,4.731,3.955,8.058c-0.109,3.55-3.334,2.836-5.29,3.247
			c-7.146,1.505-14.218,2.968-21.321-1.121c-2.919-1.68-7.039,0.229-10.486-1.889c-2.146-1.318-3.267-2.441-3.042-4.958
			c0.163-1.823,0.396-3.597,0.762-5.403c3.439-16.993,3.313-34.334,3.37-51.483c0.033-9.805-5.399-19.193-8.648-30.043
			c-1.465,12.709-2.279,24.229-4.253,35.548c-1.694,9.716-4.145,19.353-7.884,28.585c-1.533,3.782-2.968,8.278-2.861,11.765
			c0.157,5.119,5.199,8.654,10.274,10.321c3.257,1.07,4.952,3.101,6.028,6.022c1.187,3.221,0.547,5.404-3.252,6.108
			c-7.808,1.448-15.412,3.737-23.304-0.66c-2.628-1.465-6.685,0.333-9.986-1.514c-2.107-1.179-3.588-2.222-3.208-4.858
			c0.189-1.312-0.009-2.688,0.253-3.978c3.353-16.524,5.298-33.32,9.843-49.619c2.805-10.058-0.223-20.165-0.348-30.254
			c-0.097-7.821-1.051-15.713-4.749-22.556c-6.788-12.561-3.432-26.313-5.622-39.387c-1.777-10.61-2.919-21.279-6.507-31.524
			c-3.854-11.007-0.411-17.293,10.742-20.619c3.852-1.148,7.978-1.457,10.756-5.361c1.017-1.429,4.121-1.372,6.857-2.162
			c-5.607-2.136-9.185-5.979-12.062-10.539c-0.886-1.404-1.763-1.916-3.614-1.691c-11.362,1.378-21.435-8.754-20.53-20.303
			c0.263-3.354-2.698-5.104-4.38-7.467c-5.293-7.438-10.745-14.827-5.798-24.677c0.212-0.423,0.247-0.971,0.245-1.459
			c-0.076-17.69,11.734-25.782,25.742-32.403c10.084-4.767,20.715-4.441,30.91-2.511c11.029,2.088,20.536,7.98,23.974,19.81
			c1.167,4.018,1.192,8.332,3.285,12.197c0.784,1.447,1.413,2.532,3.081,2.743c-1.96,2.338-2.179,2.335-5.25-0.042
			c-0.332-0.367-0.624-0.769-0.898-1.18c-0.267-0.402-0.489-0.834-0.68-1.278c-0.729-2.925-2.895-5.358-2.973-8.515
			c0.636-2.258,0.15-4.342-1.008-6.321c-5.401-8.412-13.395-12.692-22.977-14.447c-4.146-0.064-8.29-0.174-12.336,0.957
			c-3.507,0.167-6.535,2.506-10.126,2.262c-0.812-0.67-1.204-1.74-2.857-0.905c-2.133,1.077-4.294,2.134-6.433,3.226
			c-4.814,2.407-9.243,5.299-12.419,9.778c-1.745,2.373-3.144,4.938-4.228,7.676c-0.783,1.898-1.495,3.811-1.447,5.912
			c-0.164,2.089,1.002,4.243-0.296,6.274c-2.304,8.004-0.075,14.811,5.468,20.741c0.991,1.098,1.658,2.435,2.625,3.552
			c1.123,1.298,3.486,1.751,3.896,0.861c3.096-6.711,5.504-0.432,8.163,0.241c-1.636,1.225,0.213,4.199-2.462,4.913
			c-0.997,0.239-1.977,0.023-2.969-0.047c-3.923-0.275-5.422,1.614-4.388,5.449c1.87,6.93,10.049,12.424,17.218,11.272
			c2.84-0.456,4.774-0.048,6.143,2.689c4.125,8.247,11.372,11.185,20.079,11.44c3.653,0.107,7.311,0.062,10.966,0.023
			c17.678-0.185,22.711-8.164,23.792-23.568c0.536-7.655-1.835-15.114-3.646-22.54c-0.509-2.75,0.251-4.284,3.39-3.51
			c1.112,6.323,2.179,12.656,3.347,18.97c2.126,11.504-1.98,24.188-10.365,30.84c4.271,0,8.155,0.254,11.997-0.044
			c15.854-1.23,31.479,1.829,47.235,2.311c3.863,0.117,3.845,3.026,3.446,5.3c-0.791,4.514,0.852,5.92,5.134,5.475
			c3.624-0.377,6.911-0.544,4.973,5.145c-0.798,2.341-0.72,5.369,3.554,6.27c3.216,0.679,2.489,9.783-1.043,11.344
			c-3.84,1.695-0.695,4.541-1.635,6.67c-0.812,1.839,0.223,2.36,2.129,2.718c3.039,0.57,1.816,3.433,2.113,5.377
			c0.339,2.221-1.717,5.25,2.236,6.218c0.022,0.006-0.31,1.459-0.476,2.236C303.213,231.971,303.24,234.063,303.925,236.155z"/>
		<path fill-rule="evenodd" clip-rule="evenodd" fill="#292522" d="M222.178,104.967c1.295,1.593,2.627,3.033,4.771,1.173
			c2.467,0.534,6.903-0.5,3.401,4.656c-0.454,0.669,1.15,2.587,1.519,4c0.55,2.111,1.915,4.391-0.572,6.259
			c-1.197,0.593-3.308,0.459-2.259,2.839c-3.592,3.635-8.629,4.382-12.991,6.474c-1.407,0.674-3.348,0.466-3.808,2.547
			c-0.327,0.354-0.722,0.574-1.197,0.652c-4.057-0.783-5.109-4.291-6.712-7.33c-0.698-1.323-0.814-3.82-3.106-2.893
			c-1.793,0.727-0.716,2.57-0.341,3.96c1.628,6.024,0.674,8.512-4.651,11.398c-4.073,2.208-8.22,4.281-12.696,5.604
			c-6.688,1.977-8.976,1.132-12.734-4.836c-0.623-0.989-1.261-1.941-2.241-2.615c-1.223-1.128-3.147-1.799-2.673-4.044
			c7.581-8.128,17.415-11.733,27.977-13.774c3.342-0.646,6.449-2.04,9.033-3.927C208.861,110.755,215.58,108.016,222.178,104.967z"
			/>
		<path fill-rule="evenodd" clip-rule="evenodd" fill="#E2E2E2" d="M303.925,236.155c-1.482-2.095-0.932-4.185,0.018-6.273
			C303.937,231.973,303.931,234.064,303.925,236.155z"/>
		<path fill-rule="evenodd" clip-rule="evenodd" fill="#001A32" d="M192.99,194.986c11.134-0.275,9.725,0.548,10.79,9.219
			c2.025,16.476,1.266,33.116,0.818,49.816c-4.753-12.134-11.106-23.55-14.679-36.159c-1.893-6.679-4.503-13.154-6.752-19.734
			c-0.396-1.157-0.747-2.518-2.271-1.758c-1.222,0.609-0.284,1.775,0.012,2.632c6.114,17.704,11.51,35.685,19.546,52.655
			c1.296,2.735,1.013,5.81,2.855,8.371c1.474,2.047,3.562,4.902,1.656,7.146c-2.366,2.789-5.779,4.563-9.934,3.931
			c-1.346-0.205-2.445,0.203-3.271-1.523c-11.168-23.346-22.515-46.607-31.968-70.729c-0.958-2.444-0.854-4.901-0.754-7.372
			c0.152-3.778,2.313-6.248,5.821-7.238c2.553-0.72,5.102-1.212,7.409-2.688c1.947-1.247,3.377-0.342,4.383,1.648
			c0.952,1.883,1.467,4.128,4.196,5.449c-0.817-2.827-3.157-4.667-2.856-7.411c0.134-1.223,0.311-2.413,1.601-2.821
			c1.166-0.37,1.704,0.625,2.331,1.424c3.086,3.932,6.419,7.656,10.634,10.397c2.391,1.555,1.963,3.025,0.457,4.773l-0.24,0.157
			L192.99,194.986z"/>
		<path fill-rule="evenodd" clip-rule="evenodd" fill="#FECB98" d="M211.846,133.137c0.018-1.258-1.944-1.313-1.643-2.971
			c6.922-0.036,12.415-4.495,18.835-6.272c2.582,10.967,5.854,21.705,2.261,33.307c-2.824,9.119-8.843,13.611-17.58,14.48
			c-7.916,0.787-15.951,1.04-23.902-0.565c-7.339-1.482-12.244-5.904-14.831-12.621c-0.78-2.026-1.22-1.681-2.594-1.267
			c-8.318,2.504-19.141-4.118-20.808-12.69c-1.052-5.408,2.283-7.377,9.072-5.354c0.664,0.137,1.336,0.24,1.962,0.519
			c1.417,0.724,2.752,2.086,4.496,1.05c1.359-0.807,0.337-2.059,0.282-3.124c0.046-1.003,0.237-1.89,1.528-1.872
			c2.869-0.113,2.833,2.563,3.463,4.114c1.765,4.347,4.963,5.13,8.843,3.97c5.057-1.513,9.993-3.448,14.575-6.116
			c5.354-3.117,6.033-4.956,3.512-10.839c-1.173-2.737-1.38-4.581,1.814-5.777c3.491-1.307,3.119,1.719,3.962,3.384
			c1.686,3.33,2.613,7.256,6.833,8.56c0.75,0.561,1.873,0.48,2.411,1.408c1,1.423,2.041,2.834,1.174,4.721
			c-1.576,3.091-4.895,2.655-7.474,3.708c-1.444,0.801-2.364,2.492-4.193,2.562c-0.373-0.487,0.466-0.404-0.154-0.208
			c-0.334,0.106-0.225,0.354,0.188,0.16c1.42,0.209,2.157-1.155,3.366-1.354c1.685-0.411,3.52-0.04,5.098-0.994
			c5.017-4.514,5.07-4.766,1.847-8.776C213.623,133.456,212.636,133.499,211.846,133.137z"/>
		<path fill-rule="evenodd" clip-rule="evenodd" fill="#171E2C" d="M200.852,284.584c-2.354,22.004-3.631,44.177-11.986,65.112
			c-1.655,4.147-1.882,8.847-3.707,13.129c-0.97,2.277-1.914,3.287-4.209,3.153c-3.206-0.187-6.215-1.258-8.958-2.75
			c-2.558-1.392-2.483-3.812-1.82-6.534c3.042-12.493,6.452-24.942,8.54-37.604c1.024-6.213-0.051-12.932-1.066-19.278
			c-1.195-7.472,0.597-15.387-3.342-22.475c-0.65-1.169-0.028-2.229,1.769-1.824c6.02,1.356,12.129,1.621,18.287,1.572
			C197.236,277.063,200.956,281.583,200.852,284.584z"/>
		<path fill-rule="evenodd" clip-rule="evenodd" fill="#171D2C" d="M205.979,286.454c3.667,0.999,6.723,1.633,9.632,2.675
			c3.716,1.331,7.233,1.073,10.503-0.928c2.251-1.379,3.611-0.947,3.779,1.54c0.681,10.048,4.032,19.836,3.082,30.023
			c-1.222,13.105-2.204,26.247-5.035,39.147c-0.07,0.322-0.045,0.79-0.248,0.94c-3.139,2.314-6.67,1.137-9.979,0.783
			c-2.373-0.253-5.026-1.035-4.721-4.572c0.903-10.454,0.108-20.999,1.844-31.421c1.059-6.361-0.48-12.435-2.604-18.447
			C210.028,299.958,208.217,293.583,205.979,286.454z"/>
		<path fill-rule="evenodd" clip-rule="evenodd" fill="#FECB98" d="M222.178,104.967c-0.261,0.572-0.387,1.512-0.802,1.665
			c-8.97,3.312-16.364,9.779-25.131,13.123c-5.355,2.043-11.393,2.689-16.799,5.13c-4.017,1.813-8.52,2.835-10.729,7.361
			c-0.425,0.87-1.678,0.929-2.71,0.745c-3.013-1.259-3.326-3.981-3.276-6.639c0.09-4.85-0.396-9.555-2.169-14.106
			c-1.301-3.341-0.445-5.83,3.096-7.101c1.439-0.606,2.843-1.282,4.044-2.313c2.301-2.361,5.098-3.332,8.385-3.161
			c2.273,0.117,4.561,0.041,6.727-0.819c3.138-0.714,6.036-2.057,8.892-3.488c0.73-0.369,1.451-0.762,2.099-1.266
			c0.285-0.26,0.583-0.51,0.867-0.768c0.615-0.497-0.231-1.065,0.074-1.589c0.226-0.431,0.512-0.794,0.856-1.13
			c3.459-2.456,7.274-3.827,11.53-3.887c6.394-0.092,9.261,2.153,10.774,8.431c0.563,3.103,3.181,5.458,3.183,8.765
			c-0.999,0.678-1.903,0.084-2.749-0.302c-5.516-2.516-9.84-0.693-13.46,3.885c4.698-4.553,10.211-5.179,16.173-3.648
			C221.428,104.226,221.803,104.596,222.178,104.967z"/>
		<path fill-rule="evenodd" clip-rule="evenodd" fill="#643522" d="M142.111,102.962c-0.07-2.227,0.565-4.249,1.763-6.108
			c0.452,0.283,0.661,0.718,0.515,1.207c-0.174,0.582-0.036,0.606-0.028,0.115c0.062-3.548,3.202-5.817,3.734-9.152
			c3.195-4.76,7.694-7.847,12.884-10.05c1.052,1.473,3.39-2.324,4.117,1.017c0.093,0.428,0.522-0.488,0.8-0.759
			c1.207-1.174,2.017-3.045,4.258-2.275c3.294-0.925,6.588-1.85,9.882-2.773c4.62-0.272,9.228-0.718,13.844-1.032
			c9.058,0.926,15.527,6.506,21.913,12.217c1.055,0.943,1.255,2.277,1.298,3.627c0.092,0.796-0.287,1.455-1.031,0.994
			c-8.365-5.183-15.722-2.306-22.839,2.735c-0.677,0.479-1.444,0.804-2.173,1.183c-2.139,0.911-4.123,2.221-6.403,2.779
			c-1.285,0.315-2.944,0.578-3.46-0.989c-0.483-1.466,1.229-1.688,2.148-2.254c0.849-0.522,1.949-0.464,2.774-1.087
			c0.195-0.229,0.121-0.006-0.36,0.113c-2.147,0.529-4.658,2.786-6.422,0.505c-1.646-2.128,0.679-4.306,1.788-6.271
			c1.239-2.195,2.979-3.974,4.156-4.769c-3.252,2.743-6.85,6.625-9.497,11.312c-2.176,3.853-5.303,6.878-8.678,9.576
			c-4.663,3.728-11.141,1.797-12.881-3.597c-0.019,0.667-0.195-0.259-0.17-0.07c0.904,6.81-3.704,6.207-7.948,5.847
			c-0.702-0.06-0.633-1.377-0.864-2.146c-0.116-0.386-0.423,0.567-0.78,0.82C143.296,104.49,142.643,104.006,142.111,102.962z"/>
		<path fill-rule="evenodd" clip-rule="evenodd" fill="#F8F8F8" d="M193.153,186.883c5.152,2.145,10.454,3.095,16.035,2.172
			c0.826-0.137,2.695-0.854,2.462,0.24c-0.898,4.216,3.317,6.549,3.3,10.446c-0.015,3.279,0.248,6.098-4.379,5.322
			c-0.45-0.075-1.074,0.037-1.411,0.313c-0.884,0.723-0.334,1.586,0.222,2.086c3.23,2.908-3.986,8.403,2.311,10.171
			c4.362,1.225,2.372,4.098,2.182,6.282c-0.146,1.669-0.989,2.595,1.342,3.659c2.145,0.98,2.733,3.572,0.587,5.536
			c-1.478,1.353,0.1,1.915,0.367,2.824c1.382,1.712,1.161,3.412-0.036,5.104c0.16,1.373-1.704,2.297-0.458,4.075
			c3.136,4.473,0.38,9.317,0.411,13.999c0.009,1.39-1.381,1.145-2.276,1.313c-2.102,0.394-4.218,0.714-6.476,1.088
			c-0.823-1.715-0.37-3.692-0.36-5.592c0.095-17.595-0.226-35.169-1.939-52.701c-0.464-4.748-1.012-8.93-6.722-10.539
			c-2.357-0.665-4.223-3.07-6.312-4.684C191.798,187.021,192.046,186.508,193.153,186.883z"/>
		<path fill-rule="evenodd" clip-rule="evenodd" fill="#001A32" d="M166.104,222.998c3.883,4.434,5.286,9.949,7.79,14.903
			c4.784,9.466,9.289,19.074,13.865,28.645c0.542,1.134,1.76,2.363,0.769,3.649c-0.914,1.187-2.126-0.207-3.229-0.146
			c-0.66,0.037-1.327-0.017-1.99-0.048c-3.813-0.184-7.476-0.916-11.069-2.321c-5.169-2.022-2.933-6.514-3.375-9.922
			C167.372,246.24,167.614,234.579,166.104,222.998z"/>
		<path fill-rule="evenodd" clip-rule="evenodd" fill="#0091A6" d="M269.92,174.177c3.791,0.292,7.579,0.671,11.376,0.843
			c2.211,0.1,3.878,0.322,3.802,3.213c-0.07,2.651-0.064,4.927-3.568,5.345c-8.713,1.038-17.405,2.255-26.106,3.392
			c-3.774,0.492-7.604,0.723-11.314,1.513c-3.59,0.764-5.911,0.732-4.996-3.972c0.212-1.09-0.18-2.296-0.293-3.449
			c-0.733-0.702-1.605-1.371-0.601-2.494c1.541-0.97,3.257-1.196,5.027-1.187c6.136,0.969,12.105-0.904,18.177-1.132
			c1.628-0.061,3.235-0.647,4.875-0.079c0.147,0.052,0.342,0.222,0.421,0.176c0.399-0.231,0.393-0.521,0.026-0.821
			C267.335,173.932,268.983,174.907,269.92,174.177z"/>
		<path fill-rule="evenodd" clip-rule="evenodd" fill="#B3003E" d="M255.646,283.673c-0.077-0.823-0.249-1.228-0.115-1.436
			c1.589-2.465-1.623-6.101,1.141-7.674c2.274-1.295,5.469-0.996,8.263-1.354c9.691-1.239,19.384-2.478,29.081-3.674
			c5.857-0.723,8.142,0.624,7.781,4.505c-0.22,2.368-1.064,3.751-3.911,4.092C283.907,279.807,269.962,281.767,255.646,283.673z"/>
		<path fill-rule="evenodd" clip-rule="evenodd" fill="#720D00" d="M256.307,261.712c0.271-1.502,0.838-2.597,0.552-3.38
			c-2.162-5.904,1.425-6.673,5.909-7.074c11.384-1.018,22.749-2.238,34.132-3.258c2.276-0.204,4.915-0.415,5.007,3.169
			c0.081,3.188-1.16,4.649-4.596,5.062C283.833,257.847,270.395,259.799,256.307,261.712z"/>
		<path fill-rule="evenodd" clip-rule="evenodd" fill="#0052BE" d="M249.99,212.546c9.228,0.172,18.283-2.012,27.469-2.957
			c4.625-0.477,9.226-1.223,13.856-1.613c1.967-0.166,4.644-0.88,4.629,2.703c-0.012,2.748,0.132,5.045-3.879,5.496
			c-13.034,1.464-26.028,3.31-39.015,5.174c-2.371,0.34-3.415,0.156-3.107-2.554C250.179,216.718,249.99,214.593,249.99,212.546z"/>
		<path fill-rule="evenodd" clip-rule="evenodd" fill="#00B0BC" d="M256.021,268.619c-1.706-3.688-0.556-4.899,2.707-5.352
			c10.676-1.479,21.466-2.061,32.066-4.15c1.911-0.376,3.97,0.048,5.958-0.004c2.371-0.063,3.335,1.119,3.175,3.362
			c-0.136,1.899,0.436,4.262-2.462,4.646c-13.487,1.788-26.96,3.719-40.481,5.2C252.615,272.8,257.305,269.111,256.021,268.619z"/>
		<path fill-rule="evenodd" clip-rule="evenodd" fill="#CAA200" d="M254.803,227.044c-2-4.18,0.849-3.964,3.433-4.295
			c12.177-1.561,24.331-3.301,36.52-4.76c2.061-0.246,5.262-1.655,5.495,2.701c0.195,3.633-0.919,5.188-4.917,5.609
			c-12.04,1.269-24.016,3.138-36.029,4.672C256.434,231.338,251.942,233.128,254.803,227.044z"/>
		<path fill-rule="evenodd" clip-rule="evenodd" fill="#653522" d="M147.931,131.081c-6.974-4.618-5.938-12.52-7.752-19.223
			c-0.24-0.887,0.678-2.137,1.792-2.714c3.563,0.214,4.136,2.72,4.283,5.599c0.465-0.72-0.19-1.399-0.021-2.093
			c0.509-2.09,0.78-4.872,3.536-4.591c2.338,0.238,2.445,2.797,2.439,4.854c-0.001,0.497,0.055,0.998,0.065,1.567
			c0.303-1.993,1.014-4.279,3.032-4.315c2.493-0.045,2.119,2.9,3.04,4.518c-0.098,0.659,0.803-0.081,0.15,0.054
			c-0.252-1.54-0.687-3.212,1.94-2.651c2.613,3.688,3.658,7.821,2.92,12.229c-0.509,3.039,1.017,5.878,0.444,8.853
			c-1.618,2.55-3.069,0.925-4.347-0.303c-1.519-1.459-2.588-2.374-4.938-0.802C152.601,133.343,150.109,131.743,147.931,131.081z"/>
		<path fill-rule="evenodd" clip-rule="evenodd" fill="#513153" d="M255.083,204.014c-0.036-1.454,0.676-1.983,2.121-2.044
			c10.763-0.447,21.183-3.134,31.738-4.938c2.611-0.446,5.179-0.384,7.824-0.193c2.603,0.187,3.514,1.162,3.399,3.645
			c-0.106,2.291-0.228,4.174-3.272,4.542c-13.113,1.586-26.204,3.35-39.307,5.021c-0.981,0.125-2.409,1.058-2.549-1.028
			C255.653,207.355,254.313,205.675,255.083,204.014z"/>
		<path fill-rule="evenodd" clip-rule="evenodd" fill="#441605" d="M159.949,112.059c-1.611,0.961-0.548,2.809-1.367,4.117
			c-1.882-1.348-1.883-3.71-2.994-5.453c-1.993,1.271-2.394,3.408-3.102,5.791c-0.428-1.12-0.604-1.925-1.014-2.585
			c-1.025-1.655,0.414-5.156-1.819-5.082c-2.5,0.084-2.168,3.495-2.672,5.632c-0.111,0.471-0.128,0.964-0.259,2.007
			c-1.705-2.743-1.686-6.126-4.753-7.342c1.778-2.021-0.821-4.142,0.14-6.182c3.393,1.513,1.98-3.452,4.43-3.238
			c1.26,1.528-1.295,3.055-0.119,4.533c7.145,1.475,6.531-4.302,7.684-9.829c0.836,3.08,1.208,4.721,1.733,6.312
			c0.516,1.563,0.596,4.447,3.182,1.371c0.178-0.212,0.618-0.469,0.782-0.389c9.386,4.584,10.942-4.665,14.506-8.939
			c4.359-5.229,7.837-11.032,14.842-13.331c-4.283,3.559-7.754,7.665-9.731,13.2c3.776,0.789,6.498-1.579,10.357-2.576
			c-2.325,3.174-5.446,3.806-8.861,5.526c4.208,0.808,6.4-1.71,9.094-2.557c0.336,0.279,0.521,0.637,0.556,1.07
			c-0.111,0.868-0.783,1.294-1.391,1.752c-0.213,0.229-0.488,0.381-0.797,0.448c0.532-0.098,0.853-0.522,1.292-0.776
			c1.064-0.635,2.041-1.626,3.421-0.723c0.291,0.425,0.242,0.787-0.194,1.078c-2.747,1.806-5.655,3.241-8.909,3.883
			c-4.093-0.506-8.038,1.134-12.188,0.739c-1.697-0.161-2.943,1.88-3.821,3.52c-0.788,0.946-1.776,1.558-2.989,1.794
			C159.746,105.022,160.918,109.406,159.949,112.059z"/>
		<path fill-rule="evenodd" clip-rule="evenodd" fill="#E4E4E4" d="M248.691,219.564c-0.581,2.396-2.032,2.289-4.131,1.89
			c-10.103-1.922-20.226-3.761-30.39-5.315c-2.847-0.436-3.635-1.409-3.158-4.103c0.279-1.577,0.051-3.244,0.051-5.07
			c11.716,1.733,23.032,3.356,34.33,5.102c4.805,0.742,3.083,4.583,3.29,7.47L248.691,219.564z"/>
		<path fill-rule="evenodd" clip-rule="evenodd" fill="#E4E4E4" d="M237.711,181.044c0.105,1.153,0.24,2.306,0.309,3.461
			c0.21,3.551-0.896,5.051-4.923,4.228c-9.396-1.922-18.83-3.902-28.349-4.871c-6.026-0.613-4.632-4.458-4.333-7.532
			c0.357-3.685,3.341-0.559,5.001-1.214c0.429-0.168,0.981-0.02,1.478-0.017c9.359-0.478,18.403,1.749,27.527,3.259
			C235.891,178.601,237.289,179.325,237.711,181.044z"/>
		<path fill-rule="evenodd" clip-rule="evenodd" fill="#E3E3E3" d="M217.331,277.201c-0.19-0.269-0.543-0.535-0.547-0.806
			c-0.094-7.357-0.073-7.457,7.145-6.395c8.888,1.31,17.731,2.93,26.628,4.167c4.301,0.599,4.107,3.373,3.951,6.486
			c-0.223,4.43-3.136,2.763-5.351,2.377c-10.16-1.768-20.306-3.616-30.457-5.437C218.249,277.446,217.729,277.533,217.331,277.201z"
			/>
		<path fill-rule="evenodd" clip-rule="evenodd" fill="#9D164F" d="M259.284,190.187c-0.396,1.091-1.283,2.269-1.108,3.26
			c1.165,6.613-1.987,6.635-7.251,5.756c-10.959-1.83-22.033-2.986-33.075-4.286c-3.208-0.378-4.213-2.015-4.002-5.018
			c0.298-4.236,3.375-2.015,4.77-1.706c12.118,2.686,24.236,3.632,36.487,1.079C256.402,190.014,258.148,188.706,259.284,190.187z"
			/>
		<path fill-rule="evenodd" clip-rule="evenodd" fill="#E4E4E4" d="M218.747,251.562c-1.368-4.234,0.38-4.429,3.802-3.84
			c9.635,1.656,19.317,3.078,29.019,4.285c4.65,0.579,3.712,3.761,3.752,6.61c0.054,3.828-2.336,2.98-4.731,2.54
			c-9.29-1.706-18.596-3.334-27.908-4.911C219.804,255.76,216.286,256.035,218.747,251.562z"/>
		<path fill-rule="evenodd" clip-rule="evenodd" fill="#FCCA97" d="M220.107,286.821c0.818,0.125,1.637,0.25,2.455,0.376
			c-8.08,2.533-21.547-3.929-24.395-11.488c-0.944-2.507,0.665-2.73,2.132-3.341c3.231-1.345,8.035-2.844,7.98-5.913
			c-0.092-5.211,3.156-3.837,5.551-4.367c2.778-0.616,3.131,0.834,2.205,3.076c-1.913,4.631-0.012,9.347-0.286,14.016
			c3.578,3.014,8.485,3.292,12.24,5.942c-2.474,1.781-5.258,0.519-7.884,0.803c-1.586-0.421-3.3-0.457-4.46-1.46
			c-0.82-0.342-0.415,0.836-0.373,0.17C216.91,285.308,218.814,285.389,220.107,286.821z"/>
		<path fill-rule="evenodd" clip-rule="evenodd" fill="#E4E4E4" d="M254.14,208.038c-0.396,1.945-1.273,2.653-3.489,2.243
			c-10.469-1.939-20.98-3.645-31.47-5.477c-4.232-0.739-1.603-3.988-1.964-6.026c-0.56-3.146,2.021-1.854,3.313-1.693
			c10.075,1.251,20.125,2.698,30.204,3.916c2.042,0.247,2.943,1.204,3.382,2.979C255.034,205.327,255.127,206.68,254.14,208.038z"/>
		<path fill-rule="evenodd" clip-rule="evenodd" fill="#E2E2E2" d="M218.034,262.589c-1.365-4.671,1.138-4.271,4.401-3.716
			c9.19,1.561,18.404,3.037,27.654,4.17c4.945,0.605,4.097,3.921,3.958,6.977c-0.191,4.241-3.141,2.317-5.102,1.984
			c-9.186-1.563-18.328-3.387-27.53-4.835C218.383,266.692,216.58,266.002,218.034,262.589z"/>
		<path fill-rule="evenodd" clip-rule="evenodd" fill="#E3E3E3" d="M292.132,186.075c1.301,0.521,4.312-1.44,3.473,2.146
			c-0.519,2.217,2.34,5.678-2.673,6.428c-10.017,1.498-19.979,3.369-29.935,5.248c-2.443,0.462-3.428-0.442-3.67-2.617
			c-0.261-2.328-0.25-4.627,1.665-6.408c0.621-0.47,1.285-0.852,2.053-1.031c1.297-0.191,2.547-0.586,3.817-0.908
			C275.256,187.706,283.604,186.093,292.132,186.075z"/>
		<path fill-rule="evenodd" clip-rule="evenodd" fill="#E3E3E3" d="M218.082,235.047c10.482,1.791,20.942,3.728,31.458,5.291
			c3.47,0.516,4.424,2.269,4.334,5.302c-0.093,3.143-0.797,4.82-4.768,3.9c-9.382-2.174-18.896-3.77-28.337-5.696
			c-1.565-0.319-3.999,0.101-3.665-2.835C217.082,238.965,216.571,236.84,218.082,235.047z"/>
		<path fill-rule="evenodd" clip-rule="evenodd" fill="#E2E2E2" d="M301.719,232.153c1.193,3.907-0.26,4.778-3.437,5.085
			c-9.426,0.909-18.812,2.235-28.219,3.341c-1.629,0.191-4.048,1.378-4.091-1.72c-0.034-2.553-1.518-6.396,2.606-6.91
			c10.551-1.314,21.157-2.199,31.757-3.08C303.96,228.568,301.271,231.542,301.719,232.153z"/>
		<path fill-rule="evenodd" clip-rule="evenodd" fill="#00B1BD" d="M255.182,245.153c-1.292-3.942,0.142-4.738,3.782-3.589
			c8.78,2.771,17.428-0.391,26.135-0.874c3.306-0.183,6.579-0.914,9.886-1.172c1.652-0.129,4.258-1.93,4.515,1.656
			c0.197,2.749-1.104,4.087-4.055,4.345c-7.441,0.649-14.854,1.618-22.28,2.441c-4.457,0.494-8.98,0.641-13.358,1.521
			C255.727,250.304,253.616,249.877,255.182,245.153z"/>
		<path fill-rule="evenodd" clip-rule="evenodd" fill="#E4E4E4" d="M253.095,227.245c0.198,3.309-0.467,4.871-4.508,4.03
			c-10.074-2.095-20.236-3.84-30.427-5.269c-4.058-0.569-2.329-2.913-2.498-4.947c-0.277-3.349,1.842-2.323,3.503-2.038
			c8.511,1.459,17.01,2.982,25.523,4.426c1.622,0.274,3.361,0.655,4.919,0.345C252.837,223.146,253.387,224.711,253.095,227.245z"/>
		<path fill-rule="evenodd" clip-rule="evenodd" fill="#423C38" d="M239.09,370.933c0.606,0.072,1.214,0.146,1.821,0.218
			c1.269,1.544,0.373,2.828-0.605,3.968c-3.77,4.391-14.478,4.127-18.142-0.411c-0.541-0.671-0.735-1.442-0.275-2.795
			c-2.604,2.431-5.066,2.761-7.373,0.451c-2.037-2.038-1.383-4.219,0.04-6.313c0.739-1.089,1.268-2.347,2.44-3.095
			c3.602-0.146,7.281,0.724,10.789-0.429c2.211-0.726,3.169,0.771,4.021,1.98c1.66,2.357,3.844,4.003,6.18,5.538
			C238.319,370.384,238.691,370.675,239.09,370.933z"/>
		<path fill-rule="evenodd" clip-rule="evenodd" fill="#413C38" d="M175.002,366.975c3.712-0.063,7.324,2.072,11.17,0.229
			c1.285-0.616,2.288,0.939,3.261,1.82c2.051,1.857,3.583,4.393,6.538,5.092c0.372,0.264,0.717,0.558,1.039,0.879
			c0.312,0.036,0.624,0.07,0.936,0.103c1.143,1.313,0.489,2.521-0.344,3.584c-3.647,4.657-14.958,4.548-18.561-0.129
			c-0.541-0.702-0.276-1.611-0.666-2.283c-2.359,2.302-4.788,2.243-6.961-0.066c-2.19-2.327-1.015-4.604,0.618-6.704
			C172.843,368.455,173.582,367.309,175.002,366.975z"/>
		<path fill-rule="evenodd" clip-rule="evenodd" fill="#00B700" d="M264.6,240.714c-13.771-2.602-27.094-5.144-40.431-7.61
			c-1.813-0.336-3.469-0.805-3.134-2.975c0.45-2.916,2.761-1.148,3.935-0.974c7.54,1.125,15.106,2.247,22.521,3.98
			c4.584,1.071,8.909,0.245,13.307-0.296c2.829-0.349,5.134-0.982,3.593,3.313C263.982,237.289,264.479,238.751,264.6,240.714z"/>
		<path fill-rule="evenodd" clip-rule="evenodd" fill="#00B6CC" d="M243.032,178.019c-1.521,0.841-3.141,1.15-4.863,0.912
			c-9.184-0.428-18.077-2.687-27.159-4.162c3.572-2.291,7.6-0.433,11.226-1.595c15.916-0.686,31.822-0.896,47.685,1.003
			c-1.004,0.537-2.009,1.074-3.013,1.61C259.008,177.158,251.115,178.611,243.032,178.019z"/>
		<path fill-rule="evenodd" clip-rule="evenodd" fill="#2E2824" d="M175.002,366.975c-0.652,1.146-1.138,2.439-1.993,3.406
			c-1.537,1.74-2.958,3.337-0.62,5.437c1.997,1.793,3.871,1.447,5.665-0.358c0.453-0.456,0.996-0.822,2.139-1.751
			c-2.318,6.127,2.317,5.994,5.254,6.883c5.293,1.603,10.821-1.014,12.5-5.495c3.014,0.214,4.053,2.104,4.103,4.834
			c-6.167,3.262-12.67,4.237-19.489,2.721c-1.111-0.247-2.142-0.865-3.335-0.822c-1.227-0.261-2.325-0.668-3.734-0.249
			c-1.53,0.454-0.573-0.883-0.573-1.487c-1.771-2.273-6.29,0.09-6.922-4.104c0.056-2.31,0.111-4.559,0.759-6.87
			C169.901,365.031,171.813,364.471,175.002,366.975z"/>
		<path fill-rule="evenodd" clip-rule="evenodd" fill="#F8C695" d="M209.366,186.436c-5.652,2.926-17.162,0.2-20.316-4.973
			c-1.404-2.304,0.756-4.857,1.551-6.835c0.917-2.28,4.168-0.427,6.366-0.326c2.299,0.106,2.589,2.288,2.069,3.768
			c-2.604,7.399,2.693,7.233,7.25,7.87C207.247,186.074,208.202,186.247,209.366,186.436z"/>
		<path fill-rule="evenodd" clip-rule="evenodd" fill="#2E2824" d="M216.996,362.956c0.056,1.364-0.079,2.66-1.154,3.681
			c-1.607,1.524-2.609,3.138-0.558,5.07c1.952,1.838,3.833,1.643,5.692-0.173c0.563-0.549,1.056-1.296,2.265-1.103
			c-2.691,4.756,1.607,5.146,4.124,6.099c5.451,2.063,11.796-0.654,13.547-5.381c3.333,0.622,4.261,3.2,4.895,6.019
			c-7.813,1.405-15.578,4.645-23.538,0.635c-1.271-0.246-2.454-0.668-3.362-1.652c-2.194-2.31-6.546-0.576-8.001-4.271
			c0.148-2.406,0.066-4.807,1.014-7.146C213.006,362.051,214.416,361.025,216.996,362.956z"/>
		<path fill-rule="evenodd" clip-rule="evenodd" fill="#1A100A" d="M159.949,112.059c0.343-3.158-1.856-8.373,5.04-6.229
			c-4.318,1.081-4.607,3.875-2.932,7.284c1.871,3.807,2.559,7.74,1.926,11.928c-0.442,2.924,0.853,5.426,2.024,7.949
			c0.312,1.62,2.046,1.737,2.919,2.764c-1.012,0.512-0.882,1.35-0.632,2.221c-2.232,0.386-4.101,1.865-6.377,2.118
			c-0.42-0.304-0.84-0.607-1.26-0.911c1.772-0.813-0.774-4.071,2.336-4.127c-0.574-0.363-0.572-0.725,0.005-1.083
			C162.156,126.644,164.492,118.872,159.949,112.059z"/>
		<path fill-rule="evenodd" clip-rule="evenodd" fill="#112A2E" d="M222.235,173.174c-3.317,1.344-6.926,0.146-10.583,1.255
			c8.959,1.929,17.92,2.17,26.517,4.502c0.217,0.71,0.434,1.42,0.65,2.13c-0.369-0.005-0.738-0.011-1.108-0.017
			c-6.188-3.141-13.137-2.507-19.673-3.931c-3.687-0.804-7.429-1.352-11.145-2.015C211.581,171.059,217.092,173.583,222.235,173.174
			z"/>
		<path fill-rule="evenodd" clip-rule="evenodd" fill="#ECECEC" d="M195.722,275.309c-7.981,0.182-15.94,0.251-22.995-4.331
			C180.444,272.15,188.409,272.057,195.722,275.309z"/>
		<path fill-rule="evenodd" clip-rule="evenodd" fill="#705443" d="M179.225,381.828c2.042-1.888,3.981,0.205,5.951,0.301
			c5.802,0.282,11.279-1.272,16.873-2.199c1.01,0.829,1.089,1.923-0.188,2.18C194.313,383.633,186.688,387.734,179.225,381.828z"/>
		<path fill-rule="evenodd" clip-rule="evenodd" fill="#461906" d="M162.998,133.973c-0.001,0.361-0.003,0.722-0.005,1.082
			c-2.59,0.479-4.029-1.692-5.888-3.063c-0.7,1.863,1.408,2.003,1.039,3.273c-8.121,1.627-5.851,2.813-10.212-4.185
			c1.603-0.502,3.184-0.703,4.622,0.445c2.386,1.906,1.89-5.175,5.016-1.546C159.013,131.656,160.297,133.871,162.998,133.973z"/>
		<path fill-rule="evenodd" clip-rule="evenodd" fill="#785A47" d="M222.269,377.803c7.915,2.343,15.67-1.275,23.539-0.635
			C240.242,381.699,228.522,382.016,222.269,377.803z"/>
		<path fill-rule="evenodd" clip-rule="evenodd" fill="#22150E" d="M190.106,94.536c-0.032-0.497-0.064-0.994-0.097-1.491
			c5.875-2.816,11.354-6.448,18.412-6.252c3.224,0.09,5.656,2.03,8.668,2.201c1.924,1.836,2.344,3.87,0.816,6.162
			c-5.833-8.66-11.745-9.444-22.88-3.033C193.915,94.005,192.126,94.507,190.106,94.536z"/>
		<path fill-rule="evenodd" clip-rule="evenodd" fill="#98305C" d="M259.284,190.187c-1.384-0.348-2.977,0.255-4.18-0.915
			c10.14-2.117,20.418-3.221,30.716-4.172c0.164,2.086-1.732,1.945-2.731,2.041c-7.413,0.711-14.655,2.676-22.119,2.951
			C260.408,190.123,259.846,190.154,259.284,190.187z"/>
		<path fill-rule="evenodd" clip-rule="evenodd" fill="#28161D" d="M260.97,190.092c5.984-1.881,12.267-1.999,18.391-3.057
			c2.267-0.392,4.539-0.501,6.461-1.936c2.104,0.325,4.207,0.65,6.311,0.976c-8.691,2.042-17.559,2.967-26.385,4.154
			c-0.762,0.404-1.679,0.08-2.433,0.519c-0.774,0.041-1.549,0.082-2.322,0.123C260.995,190.61,260.988,190.351,260.97,190.092z"/>
		<path fill-rule="evenodd" clip-rule="evenodd" fill="#846254" d="M170.154,76.956c-2.455,2.137-4.91,4.274-7.638,6.649
			c-0.506-1.97,1.685-2.652,1.834-4.2c-2.975,1.262-2.975,1.262-3.372-0.431c2.432-1.781,5.181-2.927,8.023-3.818
			C171.213,74.463,170.563,75.843,170.154,76.956z"/>
		<path fill-rule="evenodd" clip-rule="evenodd" fill="#553E31" d="M210.905,371.88c2.383,1.956,6.434,0.785,8.002,4.269
			c-2.344-0.438-4.272,2.706-7.029,0.432C209.964,375,209.32,373.856,210.905,371.88z"/>
		<path fill-rule="evenodd" clip-rule="evenodd" fill="#DDAE7F" d="M218.979,279.764c4.463,0.813,8.925,1.628,13.482,2.459
			c-0.955,2.646-2.942,1.437-4.382,1.814c-3.384,0.275-6.426-0.749-9.254-2.5C217.824,280.917,217.272,280.21,218.979,279.764z"/>
		<path fill-rule="evenodd" clip-rule="evenodd" fill="#553F31" d="M167.996,375.987c2.291,1.901,5.313,1.967,7.89,3.147
			c0.088,0.041,0.172,0.304,0.164,0.309c-0.371,0.227-0.751,0.436-1.132,0.647c-2.281,1.819-4.574,1.852-6.816-0.03
			C166.573,378.778,166.487,377.386,167.996,375.987z"/>
		<path fill-rule="evenodd" clip-rule="evenodd" fill="#4F280E" d="M218.979,279.764c1.74,4.176,6.222,2.518,9.1,4.273
			c-0.029,0.361-0.06,0.723-0.089,1.085c-4.64-0.829-9.598-1-12.24-5.942C216.917,278.873,218.062,278.691,218.979,279.764z"/>
		<path fill-rule="evenodd" clip-rule="evenodd" fill="#B7B7B7" d="M193.153,186.883c-0.384,0.372-0.768,0.743-1.152,1.115
			c-3.292-2.2-5.959-4.989-7.768-8.673C187.101,181.997,189.854,184.779,193.153,186.883z"/>
		<path fill-rule="evenodd" clip-rule="evenodd" fill="#785445" d="M193.88,73.15c-4.419,1.729-9.419,0.247-13.8,2.497
			c-0.547,0.28-0.186-0.933-0.044-1.466C184.557,72.573,189.215,72.814,193.88,73.15z"/>
		<path fill-rule="evenodd" clip-rule="evenodd" fill="#7F5C4E" d="M148.095,89.023c0.466,3.673-2.7,5.899-3.597,9.03
			c-0.208-0.4-0.415-0.8-0.624-1.2C144.57,93.859,146.219,91.381,148.095,89.023z"/>
		<path fill-rule="evenodd" clip-rule="evenodd" fill="#4F260B" d="M220.107,286.821c-2.796-0.71-5.565-1.483-7.887-3.47
			c2.855,0.094,5.457,1.031,7.885,2.573C220.143,286.224,220.143,286.522,220.107,286.821z"/>
		<path fill-rule="evenodd" clip-rule="evenodd" fill="#383738" d="M218.082,235.047c-1.054,1.868,0.587,4.178-0.978,5.962
			l-0.484,0.047l-0.486-0.017c0.012-1.701,0.023-3.402,0.036-5.104C216.808,235.639,217.445,235.343,218.082,235.047z"/>
		<path fill-rule="evenodd" clip-rule="evenodd" fill="#251D26" d="M254.14,208.038c-0.008-1.353-0.016-2.705-0.024-4.058
			c0.322,0.017,0.645,0.028,0.967,0.033c1.395,1.681,1.322,3.349-0.044,5.004C254.738,208.691,254.439,208.365,254.14,208.038z"/>
		<path fill-rule="evenodd" clip-rule="evenodd" fill="#FECB98" d="M288.9,282.244c-0.344,0.947-0.989,0.928-1.605,0.876
			c-0.649-0.054-1.4-0.326-0.954-1.077c0.236-0.396,1.134-0.51,1.739-0.528C288.364,281.506,288.666,282.022,288.9,282.244z"/>
		<path fill-rule="evenodd" clip-rule="evenodd" fill="#9F6E3E" d="M292.522,281.963c-0.345,0.172-0.836,0.546-1.371,0.624
			c-0.22,0.031-0.773-0.589-0.756-0.888c0.048-0.783,0.759-0.859,1.383-0.827C292.224,280.896,292.699,281.012,292.522,281.963z"/>
		<path fill-rule="evenodd" clip-rule="evenodd" fill="#D0A67C" d="M284.588,282.353c-1.005,0.526-1.338,0.843-1.668,0.839
			c-0.431-0.005-1.013-0.138-1.256-0.438c-0.523-0.646,0.331-0.641,0.546-0.657C282.755,282.057,283.313,282.196,284.588,282.353z"
			/>
		<path fill-rule="evenodd" clip-rule="evenodd" fill="#FCCA97" d="M217.331,277.201c0.552-0.192,1.059-0.228,1.373,0.395
			C218.146,277.802,217.633,277.87,217.331,277.201z"/>
		<path fill-rule="evenodd" clip-rule="evenodd" fill="#2E2824" d="M239.09,370.933c-0.368-0.296-0.736-0.592-1.104-0.888
			C238.354,370.342,238.722,370.637,239.09,370.933z"/>
		<polygon fill-rule="evenodd" clip-rule="evenodd" fill="#0052BE" points="248.691,219.564 248.53,219.52 248.684,219.536 		"/>
		<path fill-rule="evenodd" clip-rule="evenodd" fill="#2E2824" d="M197.01,374.994c-0.346-0.293-0.693-0.587-1.039-0.88
			C196.317,374.408,196.664,374.701,197.01,374.994z"/>
		<path fill-rule="evenodd" clip-rule="evenodd" fill="#FBC996" d="M197.125,129.053c2.118,2.799,0.46,4.609-1.762,6.044
			c-4.722,3.05-9.878,5.36-15.355,6.376c-5.455,1.012-5.587-4.341-6.767-7.438c-1.676-4.4,2.773-4.457,5.21-6.043
			c0.776,2.619-3.049,5.806,1.5,7.307c1.171-0.478,2.438-0.373,3.646-0.619c1.627-0.365,3.033-1.238,4.507-1.957
			c0.374-0.198,0.764-0.354,1.163-0.492c1.017-0.313,2.032-0.628,3.015-1.041C193.922,130.528,195.519,129.779,197.125,129.053z"/>
		<path fill-rule="evenodd" clip-rule="evenodd" fill="#F8C695" d="M223.097,113.877c-1.313-1.048-2.628-2.095-4.211-3.356
			c1.593-0.622,2.869-1.12,4.146-1.619c3.687,3.189,4.985,7.326,4.784,12.058c-4.048,1.837-8.117,3.627-12.131,5.533
			c-1.456,0.691-2.91,0.56-4.385,0.431c-1.189-0.104-1.93-1.249-1.808-2.043c0.173-1.124,1.692-0.43,2.485-0.938
			c1.347-2.448,3.996-3.022,6.155-4.301c0.392-0.215,0.803-0.396,1.214-0.566C221.693,118.134,223.139,116.544,223.097,113.877z"/>
		<path fill-rule="evenodd" clip-rule="evenodd" fill="#73A6D8" d="M181.193,128.781c0.36-0.834,0.904-1.473,1.823-1.713
			c0.875,0.157,1.441,0.772,2.023,1.34c0.223,0.237,0.608,0.563,0.815,0.429c0.611-0.394,0.063-0.812-0.135-1.215
			c-0.368-0.493-0.638-1.015-0.667-1.631c1.025-1.273,2.464-0.937,3.806-0.976c2.7,1.306,3.084,3.589,2.634,6.227
			c-0.273,1.388-1.805,1.008-2.515,1.787l0.063-0.039c-0.874,0.679-1.985,0.536-2.964,0.859
			C182.718,133.827,181.468,131.773,181.193,128.781z"/>
		<path fill-rule="evenodd" clip-rule="evenodd" fill="#7AA8D5" d="M211.033,115.031c1.08-1.094,2.367-1.754,3.917-1.861
			c3.225,1.354,3.771,3.721,2.56,6.756c-0.936,1.082-2.138,1.685-3.527,1.949c-3.021,0.297-4.791-0.944-5.017-4.082
			c-0.028-1.456,0.802-2.271,2.065-2.761c0.489,0.528,1.064,0.969,1.524,1.475c0.15,0.092,0.233,0.155,0.233,0.155
			c0.069-0.06,0.04-0.187-0.087-0.382c-0.108-0.167-0.217-0.251-0.343-0.26C211.848,115.761,211.416,115.429,211.033,115.031z"/>
		<path fill-rule="evenodd" clip-rule="evenodd" fill="#F8F8F8" d="M216.977,119.899c0.284-2.531-0.036-4.882-2.025-6.729
			c2.646-0.514,5.113-0.329,7.076,1.819c1.774,3.408-1.004,3.992-3.1,5l0.092-0.061C218.329,120.573,217.647,120.6,216.977,119.899z
			"/>
		<path fill-rule="evenodd" clip-rule="evenodd" fill="#EEF0F1" d="M190.821,131.255c-0.269-2.201-0.444-4.432-1.962-6.24
			c3.14-0.273,6.306-0.594,6.751,3.854c-0.321,1.969-1.641,2.625-3.456,2.632C191.685,131.555,191.242,131.466,190.821,131.255z"/>
		<path fill-rule="evenodd" clip-rule="evenodd" fill="#100D0B" d="M227.816,120.959c-1.595-4.019-3.189-8.038-4.784-12.058
			c1.084-1.471,2.049-0.113,3.061,0.13c0.461,0.612,0.358,1.483,0.936,2.043l-0.091-0.12c0.897,2.566,2.472,4.946,2.163,7.845
			C229.001,119.714,228.861,120.606,227.816,120.959z"/>
		<path fill-rule="evenodd" clip-rule="evenodd" fill="#F8F9FA" d="M181.193,128.781c1.417,1.677,1.951,4.329,4.84,4.378
			c0.138,1.67-1.545,1.481-2.294,2.247c-1.491,0.234-2.851,0.091-3.777-1.307C179.363,132.093,179.915,130.353,181.193,128.781z"/>
		<path fill-rule="evenodd" clip-rule="evenodd" fill="#F4F4F6" d="M208.966,117.793c1.289,1.626,2.298,3.657,4.899,3.379
			c0.459,1.792-1.114,1.287-1.896,1.678c-3.327,0.503-4.543-0.872-3.663-4.114c0.251-0.188,0.418-0.431,0.502-0.732L208.966,117.793
			z"/>
		<path fill-rule="evenodd" clip-rule="evenodd" fill="#5F4F3E" d="M218.928,119.989c1.306-1.497,3.945-2.168,3.1-5
			c0.356-0.37,0.713-0.741,1.069-1.112C224.062,118.205,223.429,119.132,218.928,119.989z"/>
		<path fill-rule="evenodd" clip-rule="evenodd" fill="#5C4E40" d="M211.969,122.85c0.632-0.561,1.265-1.121,1.896-1.68
			c1.038-0.422,2.075-0.847,3.112-1.271c0.68,0.01,1.361,0.02,2.042,0.029c-2.347,1.338-4.693,2.676-7.041,4.014
			C211.976,123.578,211.972,123.214,211.969,122.85z"/>
		<path fill-rule="evenodd" clip-rule="evenodd" fill="#C3C3C3" d="M229.101,118.799c-0.48-2.681-2.373-4.973-2.163-7.845
			C228.497,113.338,230.973,115.469,229.101,118.799z"/>
		<path fill-rule="evenodd" clip-rule="evenodd" fill="#C1CCD7" d="M185.053,125.991c0.357,0.352,0.714,0.704,1.071,1.056
			c0.624,1.938-0.063,2.626-2.012,2.113c-0.365-0.697-0.73-1.396-1.095-2.092C183.695,126.709,184.374,126.351,185.053,125.991z"/>
		<path fill-rule="evenodd" clip-rule="evenodd" fill="#362C22" d="M192.036,131.14c1.511-0.254,2.481-1.359,3.574-2.271
			c0.505,0.061,1.01,0.122,1.515,0.183c-1.275,1.739-2.725,3.185-5.121,3.028c-0.284-0.219-0.374-0.432-0.27-0.637
			C191.836,131.24,191.937,131.14,192.036,131.14z"/>
		<path fill-rule="evenodd" clip-rule="evenodd" fill="#3D342C" d="M179.962,134.1c1.18,1.043,2.624,0.818,4.018,0.841
			c0.298,0.206,0.391,0.402,0.279,0.589c-0.108,0.181-0.215,0.271-0.322,0.271c-1.383,0.266-2.808,0.865-3.985-0.503
			C179.955,134.899,179.959,134.499,179.962,134.1z"/>
		<path fill-rule="evenodd" clip-rule="evenodd" fill="#CECECE" d="M227.028,111.074c-1.354-0.204-0.919-1.227-0.936-2.043
			C227.284,109.31,227.04,110.245,227.028,111.074z"/>
		<path fill-rule="evenodd" clip-rule="evenodd" fill="#BD9772" d="M194.042,123.838c-0.131-0.176-0.262-0.351-0.392-0.525
			c0.282-0.056,0.563-0.146,0.845-0.146c0.107,0,0.213,0.212,0.32,0.327C194.558,123.608,194.3,123.724,194.042,123.838z"/>
		<path fill-rule="evenodd" clip-rule="evenodd" fill="#7AA8D5" d="M208.808,118.003c-0.168,0.247-0.336,0.494-0.503,0.736
			C208.474,118.491,208.641,118.247,208.808,118.003z"/>
		<path fill-rule="evenodd" clip-rule="evenodd" fill="#010202" d="M192.99,194.986c-0.435,0.882-0.885,1.754-2.077,1.68
			c-0.106-0.007-0.31-0.285-0.28-0.365c0.417-1.104,1.385-1.228,2.38-1.288C193.014,195.014,192.99,194.986,192.99,194.986z"/>
		<path fill-rule="evenodd" clip-rule="evenodd" fill="#26221E" d="M196.561,154.896c10.401-2.33,20.104-5.102,28.367-12.577
			C222.738,158.146,211.064,163.196,196.561,154.896z"/>
		<path fill-rule="evenodd" clip-rule="evenodd" fill="#DD8E6B" d="M165.134,154.875c-5.563-2.061-10.307-4.782-11.242-11.52
			c-0.446-3.215,0.227-4.107,3.234-2.662c1.436,1.629,1.59,3.544,1.242,5.57c0.617-3.788,1.278-3.966,4.345-2.023
			c2.648,1.678,2.327,5.518,5.357,6.763l-0.049-0.063C169.669,154.166,167.169,154.351,165.134,154.875z"/>
		<path fill-rule="evenodd" clip-rule="evenodd" fill="#471D0B" d="M161.917,140.094c1.604-2.278,3.392-3.998,6.377-2.119
			c1.224,1.394,1.731,2.685-0.205,3.983C165.214,143.887,163.581,142.008,161.917,140.094z"/>
		<path fill-rule="evenodd" clip-rule="evenodd" fill="#99523D" d="M168.071,151.003c-2.001-0.036-2.657-1.346-3.332-3.019
			c-0.878-2.176-2.57-3.742-5.373-4.447c-0.228,1.586-0.442,3.08-0.657,4.573c0.379-2.717-2.418-4.745-1.583-7.417
			C162.861,141.914,165.557,146.363,168.071,151.003z"/>
		<path fill-rule="evenodd" clip-rule="evenodd" fill="#D08262" d="M213.091,144.132c-1.893,1.737-4.118,0.521-6.187,0.694
			c-0.93-0.978,0.122-1.876,0.111-2.817c2.297-1.817,6.015-0.11,7.818-3.151C216.794,141.455,213.096,142.183,213.091,144.132z"/>
		<path fill-rule="evenodd" clip-rule="evenodd" fill="#9B533E" d="M213.091,144.132c-1.395-2.411,2.694-3.01,1.743-5.274
			c0.636-1.813-0.928-3.231-0.884-4.938l-0.055,0.048C219.656,137.164,219.596,137.931,213.091,144.132z"/>
		<path fill-rule="evenodd" clip-rule="evenodd" fill="#DA8463" d="M220.984,157.987c-1.699,2.699-4.304,3.451-8.669,3.89
			c3.566-2.175,5.936-3.446,8.7-3.858L220.984,157.987z"/>
		<path fill-rule="evenodd" clip-rule="evenodd" fill="#9B543E" d="M207.016,142.009c1.352,0.995-0.44,1.864-0.111,2.817
			c-1.316,0.831-2.588,2.229-4.121,0.326l0.371-0.309C205.387,145.187,205.809,143.063,207.016,142.009z"/>
		<path fill-rule="evenodd" clip-rule="evenodd" fill="#AB684E" d="M165.134,154.875c1.333-1.04,3.483-1.48,2.888-3.936
			C169.628,154.487,169.424,154.767,165.134,154.875z"/>
		<path fill-rule="evenodd" clip-rule="evenodd" fill="#9D5842" d="M202.783,145.152c-0.784-0.477-0.852-1.213-0.657-1.994
			c0.05-0.199,0.328-0.341,0.501-0.509c0.176,0.731,0.351,1.464,0.526,2.194C203.154,144.844,202.783,145.152,202.783,145.152z"/>
		<path fill-rule="evenodd" clip-rule="evenodd" fill="#292522" d="M213.95,133.92c-0.672-0.292-1.345-0.583-2.02-0.872
			c-0.003,0.002-0.079,0.084-0.082,0.086c0.762,0.08,1.713-0.301,2.048,0.835C213.896,133.968,213.95,133.92,213.95,133.92z"/>
		<path fill-rule="evenodd" clip-rule="evenodd" fill="#DA8463" d="M221.016,158.019c0.133-0.154,0.266-0.308,0.398-0.462
			c-0.021,0.092-0.01,0.221-0.067,0.268c-0.099,0.081-0.239,0.112-0.362,0.163L221.016,158.019z"/>
		<path fill-rule="evenodd" clip-rule="evenodd" fill="#633925" d="M173.994,125.643c0.125-8.686,9.06-15.072,15.871-12.499
			c0.816,0.309,1.608,0.812,1.568,1.67c-0.068,1.426-1.397,1.109-2.273,1.2C182.887,116.67,177.161,118.26,173.994,125.643z"/>
		<path fill-rule="evenodd" clip-rule="evenodd" fill="#683D28" d="M221.053,103.855c-0.501,0.355-1.161,1.126-1.479,1.004
			c-5.881-2.252-10.184,0.602-14.308,4.225c-0.642,0.563-1.269,1.816-2.402,0.793c-0.967-0.874-0.301-1.806,0.171-2.676
			c2.793-5.157,9.744-7.308,14.97-4.652c1.002,0.509,2.055,0.919,3.085,1.373C221.089,103.921,221.053,103.855,221.053,103.855z"/>
		<path fill-rule="evenodd" clip-rule="evenodd" fill="#0D0906" d="M167.979,104.036c-1.079-1.27,0.298-1.73,0.86-2.343
			c1.851-2.017,12.829-3.354,15.148-1.916c-2.635,1.035-5.416,1.474-8.199,1.406C172.738,101.109,170.149,101.899,167.979,104.036z"
			/>
		<path fill-rule="evenodd" clip-rule="evenodd" fill="#DCB084" d="M190.106,94.536c1.64-0.804,3.28-1.608,4.92-2.413
			c-0.003,0.277-0.014,0.554-0.032,0.83c0.229,0.241,0.306,0.483,0.232,0.727c-0.074,0.244-0.149,0.366-0.225,0.366l0.042-0.042
			c-0.616,0.447-1.29,0.753-2.057,0.823c-1.29,0.438-2.58,0.877-3.869,1.315l-0.223-0.252
			C189.299,95.439,189.703,94.987,190.106,94.536z"/>
		<path fill-rule="evenodd" clip-rule="evenodd" fill="#7B624A" d="M192.987,94.827c0.387-1.022,1.182-1.024,2.057-0.823
			c-0.227,1.186-1.159,1.569-2.147,1.891C192.927,95.539,192.957,95.183,192.987,94.827z"/>
		<path fill-rule="evenodd" clip-rule="evenodd" fill="#7B624A" d="M195.001,94.046c-0.002-0.364-0.005-0.729-0.007-1.093
			C195.828,93.312,195.928,93.676,195.001,94.046z"/>
		<path fill-rule="evenodd" clip-rule="evenodd" fill="#4A1A07" d="M166.958,88.975c-0.31,0.114-0.874,0.359-0.893,0.323
			c-0.893-1.725,3.202-9.228,4.436-8.413c2.837,1.871,4.297-0.591,6.198-1.315c3.36-1.28,6.515-3.183,10.819-2.234
			c-3.823,1.54-7.713,1.879-10.509,4.603c-2.541,2.338-5.136,4.606-8.089,6.428c-0.396,0.246-0.82,0.433-1.268,0.564
			C167.421,88.947,167.189,88.961,166.958,88.975z"/>
		<path fill-rule="evenodd" clip-rule="evenodd" fill="#856052" d="M167.906,87.958c2.87-2.256,5.456-4.94,9.104-6.021
			c-1.24,6.022-6.835,8.413-10.32,13.172c-0.859-2.562,1.961-4.197,0.269-6.134c0-0.001,0.021-0.006,0.021-0.006
			C167.339,88.68,167.646,88.34,167.906,87.958z"/>
		<path fill-rule="evenodd" clip-rule="evenodd" fill="#7F5A4C" d="M199.022,85.773c1.313-6.83,5.592-2.44,8.838-2.347
			C204.987,84.253,201.729,83.635,199.022,85.773z"/>
		<path fill-rule="evenodd" clip-rule="evenodd" fill="#015761" d="M243.032,178.019c7.959-0.743,15.917-1.486,23.875-2.23
			c0.985,0.447,2.337-0.401,3.136,0.862c-7.021,0.778-13.986,1.669-20.978,2.249C247.095,179.063,244.782,180,243.032,178.019z"/>
		<path fill-rule="evenodd" clip-rule="evenodd" fill="#9C7E5E" d="M186.993,96.943c-0.295,0.283-0.589,0.567-0.884,0.851
			c-0.138-0.167-0.276-0.334-0.415-0.5c0.454-0.096,0.908-0.191,1.362-0.287L186.993,96.943z"/>
		<path fill-rule="evenodd" clip-rule="evenodd" fill="#D9AE82" d="M187.057,97.007c0.238-0.992,1.034-1.062,1.839-1.115
			c0-0.001,0.219,0.247,0.221,0.249c-0.395,1.097-1.319,0.79-2.123,0.803L187.057,97.007z"/>
		<path fill-rule="evenodd" clip-rule="evenodd" fill="#98305C" d="M263.314,190.748c0.672-0.842,1.544-0.743,2.438-0.52
			C265.027,190.828,264.207,190.962,263.314,190.748z"/>
		<path fill-rule="evenodd" clip-rule="evenodd" fill="#6A5C4F" d="M183.937,135.801c-0.039-0.29-0.024-0.576,0.043-0.86
			c0.685-0.595,1.369-1.189,2.054-1.782c1.002-0.055,2.004-0.111,3.006-0.168C187.719,134.618,185.703,134.981,183.937,135.801z"/>
		<path fill-rule="evenodd" clip-rule="evenodd" fill="#6A5C4F" d="M192.036,131.14c-0.03,0.313-0.041,0.626-0.032,0.94
			c-0.766,1.092-1.873,1.095-3.027,0.949c-0.164-1.405,1.523-0.884,1.847-1.776C191.226,131.216,191.631,131.178,192.036,131.14z"/>
		<path fill-rule="evenodd" clip-rule="evenodd" fill="#0C1015" d="M184.111,129.16c1.247-0.154,2.003-0.776,2.012-2.112
			c2.49,0.071,2.718,1.739,1.569,3.141C186.274,131.916,184.943,130.826,184.111,129.16z"/>
		<path fill-rule="evenodd" clip-rule="evenodd" fill="#0E1317" d="M213.143,115.174c1.763,0.797,2.988,2.053,1.051,3.575
			c-1.232,0.968-2.543,0.317-2.283-1.666C212.021,116.253,212.344,115.56,213.143,115.174z"/>
		<path fill-rule="evenodd" clip-rule="evenodd" fill="#F1F3F5" d="M213.143,115.174c-0.115,0.826-0.007,1.797-1.231,1.909
			c-0.767-0.48-0.978-1.199-0.88-2.051l0.002-0.001C211.736,115.079,212.439,115.127,213.143,115.174z"/>
		<path fill-rule="evenodd" clip-rule="evenodd" fill="#E6E6E6" d="M202.817,156.12c-0.163-0.034-0.341-0.036-0.487-0.105
			c-0.7-0.334-0.444-0.752,0.062-0.871c6.964-1.631,13.446-4.444,19.723-8.274c-1.273,7.289-6.063,10.4-15.112,10.128
			c1.53-3.03,5.261-1.494,7.2-3.465c0.663-0.367-0.394-0.994,0.063-0.509c0.146,0.155,0.082,0.32-0.21,0.449
			C210.475,155.059,206.9,156.67,202.817,156.12z"/>
		<path fill-rule="evenodd" clip-rule="evenodd" fill="#BBBBBB" d="M202.817,156.12c4.073-0.968,8.146-1.936,12.804-3.042
			c-2.724,2.659-6.23,2.042-8.619,3.919C205.512,157.158,204.076,157.062,202.817,156.12z"/>
		<path fill-rule="evenodd" clip-rule="evenodd" fill="#643522" d="M167.906,87.958c-0.309,0.338-0.617,0.675-0.926,1.012
			C167.288,88.633,167.597,88.296,167.906,87.958z"/>
	</g>
</g>
</svg>
