<?xml version="1.0" encoding="utf-8"?>
<!-- Generator: Adobe Illustrator 16.0.0, SVG Export Plug-In . SVG Version: 6.00 Build 0)  -->
<!DOCTYPE svg PUBLIC "-//W3C//DTD SVG 1.1//EN" "http://www.w3.org/Graphics/SVG/1.1/DTD/svg11.dtd">
<svg version="1.1" id="Layer_1" xmlns="http://www.w3.org/2000/svg" xmlns:xlink="http://www.w3.org/1999/xlink" x="0px" y="0px"
	 width="400px" height="400px" viewBox="0 0 400 400" enable-background="new 0 0 400 400" xml:space="preserve">
<g>
	<g>
		<path fill-rule="evenodd" clip-rule="evenodd" fill="#1D1713" d="M225.314,386.698c-1.938,0.435-3.876,0.869-7.039,1.578
			c2.394-2.602,3.808-4.137,5.221-5.673c1.743-2.149,3.485-4.299,5.229-6.449c3.984-5.907,6.844-12.116,5.226-19.522
			c-1.106,0.048-2.212,0.096-3.316,0.144c-0.392,2.322-0.783,4.644-1.175,6.966c-1.659,2.334-3.318,4.669-4.978,7.004
			c-2.643,1.735-5.284,3.471-7.927,5.206c-7.45,1.25-14.905,3.563-22.352,3.539c-17.856-0.059-28.292-8.464-31.105-23.56
			c-5.274-0.187-4.058,3.993-3.257,6.174c2.013,5.478,4.533,10.852,7.537,15.855c2.336,3.892,5.705,7.162,8.615,10.708
			c-1.488-0.401-2.977-0.804-4.465-1.205c-9.457-9.879-16.67-20.776-15.117-35.099c-9.535,1.914-11.743,7.829-10.951,15.935
			c0.434,4.437,0.096,8.947,0.105,13.425c-1.014-0.292-2.028-0.584-3.043-0.875c0-7.896,0-15.793,0-23.807
			c-3.914,0.577-8.039,0.861-11.994,1.836c-7.752,1.911-16.298,1.215-22.984,6.754c-1.527-0.789-3.055-1.577-4.91-2.534
			c5.587-5.965,12.608-7.137,19.586-8.284c7.012-1.152,14.237-1.448,21.034-3.33c5.771-1.597,11.063-4.917,17.062-7.705
			c-5.553-3.982-10.541-7.677-15.646-11.198c-12.764-8.806-16.748-22.211-19.031-36.425c-0.699-4.354-2.164-6.73-6.49-9.269
			c-5.231-3.069-9.338-8.891-12.588-14.324c-6.563-10.975-8.926-23.134-7.019-35.924c0.265-1.773,0.519-3.979,1.649-5.125
			c7.297-7.401,4.113-16.293,3.123-24.446c-1.002-8.241-0.583-16.078,1.086-24.103c0.781-3.761,0.039-7.814,0.542-11.663
			c1.243-9.513,7.122-15.755,15.089-20.413c1.305-0.762,3-1.672,3.475-2.912c7.439-19.423,22.887-29.347,41.678-35.154
			c19.353-5.981,39.073-6.734,58.961-3.135c5.558,1.006,11.049,2.377,16.571,3.582c-0.06,0.586-0.119,1.172-0.178,1.758
			c-2.205,0.347-4.409,0.694-6.817,1.072c5.204,2.236,10.331,4.281,15.323,6.614c11.008,5.144,20.968,12.103,27.948,21.945
			c7.507,10.583,11.832,23.113,13.227,35.91c0.943,8.655-1.324,17.661-2.155,26.509c-0.513,5.462-1.1,10.918-1.47,16.389
			c-0.063,0.95,0.522,2.277,1.259,2.896c5.922,4.978,6.491,11.812,6.239,18.68c-0.528,14.436-5.371,27.295-15.146,38.109
			c-1.209,1.337-2.523,3.258-4.034,3.526c-6.184,1.097-6.568,5.712-7.389,10.483c-0.842,4.891-1.933,9.777-3.423,14.506
			c-2.345,7.435-6.428,13.889-12.67,18.707c-5.782,4.465-11.743,8.697-17.698,13.085c7.999,5.379,16.32,10.007,26.692,10.486
			c7.174,0.332,14.336,2.016,21.373,3.654c2.853,0.664,5.358,2.814,9.043,4.854c-2.862,1.415-4.57,2.26-6.278,3.104
			c-1.792-1.142-3.462-2.96-5.397-3.312c-9.311-1.688-18.692-2.981-27.551-4.339c-0.385,8-0.737,15.356-1.091,22.714
			c-0.979,0.317-1.96,0.635-2.939,0.953c0.287-3.439,0.737-6.874,0.834-10.318c0.333-11.858-0.413-15.438-9.393-17.671
			c-2.685,7.799-5.035,15.631-8.121,23.162C230.423,380.357,227.555,383.398,225.314,386.698z M126.474,229.686
			c-0.121,0.188-0.242,0.377-0.363,0.566c0.189-0.122,0.379-0.243,0.563-0.368c0.142-0.2,0.284-0.399,0.427-0.6
			C126.892,229.418,126.683,229.552,126.474,229.686z M129.546,256.771c0.324,0.34,0.649,0.68,0.975,1.02
			c3.484,4.406,8.385,3.468,13.146,3.082c-4.368-1.042-8.735-2.083-13.103-3.124c-0.34-0.326-0.678-0.652-1.017-0.979
			c-0.357-0.251-0.715-0.502-1.072-0.753c-0.08,0.129-0.161,0.259-0.241,0.388C128.671,256.527,129.108,256.649,129.546,256.771z
			 M183.83,255.281c0.571-0.504,1.143-1.009,1.714-1.513c0.406-2.893,0.813-5.786,1.219-8.679c-0.405-0.019-0.811-0.037-1.215-0.056
			c0,2.912,0,5.825,0,8.738c-0.6,0.433-1.197,0.865-1.797,1.299c0.178-3.054,0.356-6.106,0.621-10.648
			c-4.494,5.262-9.129,6.417-14.854,5.489c-5.163-0.837-10.551-0.297-15.839-0.358c-1.993-0.023-4.038,0.252-5.97-0.1
			c-7.866-1.43-10.564-8.804-5.475-14.808c1.639-1.934,3.463-3.71,5.648-6.03c-5.074,0.422-9.54,0.793-14.006,1.167
			c-3.688,0.309-5.827,2.012-5.66,6.016c0.151,3.656,0.072,7.322,0.227,10.978c0.361,8.588,2.692,11.294,11.158,11.908
			c14.498,1.052,29.066,2.498,43.191-2.704c-0.986,0.915-1.973,1.831-2.96,2.746c0.523,0.3,1.047,0.601,1.57,0.901
			c0.523-1.198,1.047-2.396,1.569-3.595C183.259,255.782,183.545,255.532,183.83,255.281z M251.54,261.746
			c4.283-0.976,8.626-1.753,12.83-2.997c2.725-0.806,1.918-2.465,0.225-3.869c0.589-6.883,1.43-13.761,1.554-20.652
			c0.024-1.388-2.495-3.761-4.14-4.063c-5.066-0.933-10.278-1.082-15.55-1.546c2.042,2.319,3.975,3.977,5.201,6.051
			c1.409,2.383,3.802,6.306,2.934,7.5c-2.244,3.088-5.807,5.535-9.322,7.256c-1.954,0.957-4.869-0.102-7.354-0.161
			c-3.307-0.079-6.675-0.478-9.912-0.012c-6.208,0.895-12.414,2.743-17.562-4.241c0,3.451,0,5.602,0,7.751
			c-3.93,2.595-0.823,5.006,0.955,5.695c4.182,1.622,8.742,2.27,13.148,3.311C233.546,261.761,242.543,261.753,251.54,261.746z
			 M115.527,171.774l0.013-0.023c-6.25,10.904-8.545,22.587-5.729,34.848c1.008,4.389,3.838,8.338,5.627,12.576
			c1.285,3.045,2.223,6.237,3.314,9.364c0.461-0.099,0.924-0.198,1.385-0.297c0.154-1.222,0.287-2.446,0.468-3.664
			c0.63-4.241,0.534-8.771,2.058-12.664c4.35-11.116,4.881-22.509,3.93-34.149c1.557-3.228,3.113-6.456,4.764-9.878
			c14.064,5.192,26.957,0.423,38.512-10.217c0.213,0.391,0.426,0.782,0.639,1.173c-1.855,2.147-3.713,4.294-5.933,6.861
			c2.247,1.103,4.075,2.633,6.052,2.858c7.986,0.91,16.019,1.417,24.033,2.072c9.543-1.007,19.101-1.898,28.626-3.05
			c13.419-1.621,26.327,0.274,37.798,7.315c4.333,2.66,7.017,8.037,10.337,12.266c0.313,0.398-0.201,1.444-0.376,2.45
			c-1.482-0.638-2.619-1.127-5.426-2.334c2.76,14.167,5.271,27.056,7.953,40.823c2.499-6.368,4.722-12.035,7.383-18.816
			c1.049,2.725,1.578,4.1,2.176,5.65c0.416-3.828,0.847-7.271,1.156-10.725c0.729-8.128,2.728-16.415,1.81-24.36
			c-1.765-15.279-10.249-28.307-20.009-39.321c-6.361-7.179-16.908-10.65-25.579-15.783c-5.625-1.688-11.25-3.376-16.875-5.064
			c-3.822-0.886-7.646-1.771-11.469-2.657c0.387-1.162,0.767-2.301,1.146-3.439c-0.421-0.233-0.854-0.69-1.26-0.666
			c-11.694,0.701-23.39,1.394-35.071,2.274c-1.21,0.091-2.334,1.341-3.498,2.053c-10.437,1.092-19.645,5.393-28.006,11.408
			c-2.426,1.745-3.824,4.919-5.699,7.431c-0.021,0.221-0.062,0.438-0.119,0.652c-1.631,0.875-4.168,1.364-4.734,2.693
			c-2.143,5.023-3.649,10.318-5.384,15.514c-0.278,0.834-0.503,1.686-0.856,2.883c-1.531-1.096-2.672-1.913-3.876-2.774
			c-1.901,1.794-3.312,4.009-5.296,4.82c-4.611,1.885-4.199,4.53-2.05,7.888c-0.304,0.598-0.607,1.197-0.911,1.795
			C116.208,170.3,115.868,171.037,115.527,171.774z M186.624,233.946c7.147-1.966,14.298-3.723,21.509,0.317
			c-6.858-5.898-15.392-5.868-22.604-0.464c0,1.962,0,3.924,0,5.886c0.364-0.007,0.729-0.015,1.095-0.022
			C186.624,237.758,186.624,235.853,186.624,233.946z M170.726,232.602c-0.426-0.294-0.854-0.589-1.279-0.884
			c-4.27-0.265-8.537-0.528-12.807-0.793c-0.416,0.252-0.832,0.504-1.248,0.756l0.082-0.099c-6.457,0.607-13.396,6.25-12.941,10.523
			c0.429,4.039,5.404,6.156,12.736,5.409c0.152-0.016,0.293-0.144,0.439-0.22c4.25,0.039,8.499,0.077,12.748,0.115
			c3.619-0.604,7.286-1.026,10.816-1.963c0.742-0.196,1.666-2.521,1.34-3.463c-1.646-4.765-4.313-8.721-9.908-9.466L170.726,232.602
			z M238.631,231.714c-0.645-0.264-1.288-0.527-1.933-0.791c-4.025,0.259-8.051,0.518-12.076,0.775
			c-5.895,1.523-12.556,8.124-11.811,11.705c0.634,3.045,6.052,4.751,12.729,4.006c3.973-0.025,7.945-0.052,11.919-0.078
			c2.452,0.109,4.949,0.566,7.35,0.261c6.123-0.779,8.522-6.19,4.224-10.395c-2.7-2.641-6.909-3.737-10.44-5.526L238.631,231.714z
			 M115.616,244.462c-0.281-0.938-0.563-1.874-0.844-2.812c-1.043-1.945-2.086-3.89-3.129-5.835c0.801-2.006,1.602-4.011,2.6-6.512
			c-6.783-0.437-8.979,2.907-9.707,7.29c-2.908,17.495,3.133,32.206,14.619,45.052c0.928,1.037,2.61,1.398,3.941,2.074
			c0.395-0.333,0.787-0.665,1.182-0.998c-1.223-2.968-2.445-5.937-3.666-8.904c0.165-2.004,0.599-4.029,0.441-6.008
			c-0.352-4.448-1.443-8.88-1.392-13.308C119.71,250.382,118.628,247.143,115.616,244.462z M279.667,235.742
			c-1.04,3.016-2.08,6.031-3.12,9.047c-0.578,2.331-1.393,4.632-1.687,6.998c-0.729,5.856-1.269,11.738-1.771,17.62
			c-0.148,1.739,0.08,3.511,0.136,5.267c-0.937,2.801-1.872,5.602-2.808,8.401c0.673,0.378,1.346,0.755,2.018,1.132
			c3.301-4.153,6.972-8.067,9.828-12.507c6.982-10.852,9.221-22.868,7.138-35.563c-0.764-4.654-4.464-7.72-7.661-6.979
			C277.497,230.142,280.542,233.596,279.667,235.742z M125.167,259.597c-0.293,0.651-0.582,0.973-0.539,1.239
			c2.04,12.422,4.002,24.858,6.203,37.252c2.269,12.775,6.76,24.352,18.32,31.839c6.829,4.424,13.369,9.354,20.459,13.306
			c17.854,9.951,36.206,10.474,54.149,0.492c8.816-4.904,16.997-11.006,25.224-16.902c5.989-4.292,9.987-10.339,11.593-17.516
			c2.278-10.187,4.072-20.483,5.956-30.755c1.21-6.6,2.209-13.237,3.438-20.678c-9.803,8.412-20.779,6.771-31.231,6.889
			c-10.63,0.12-21.596,1.325-31.399-5.78c0,2.595,0,4.644,0,6.692c-1.13-1.958-1.978-4.005-2.021-6.068
			c-0.132-6.31-0.202-12.643,0.2-18.935c0.234-3.675-1.253-5.299-4.54-5.612c-2.3-0.219-4.659-0.267-6.95-0.011
			c-3.38,0.377-5.26,1.928-4.917,5.92c0.325,3.778-0.421,7.635-0.426,11.457c-0.007,4.804-2.289,8.137-6.672,9.418
			c-4.729,1.384-9.694,2.79-14.548,2.756C153.192,264.499,138.539,267.091,125.167,259.597z M218.813,173.887
			c0.118,0.198,0.235,0.396,0.354,0.593c-0.704,0.292-1.384,0.686-2.115,0.861c-18.002,4.315-35.188,1.803-51.829-5.98
			c-1.768-0.828-4.393-1.071-6.177-0.402c-7.563,2.836-15.091,4.79-23.276,3.067c-1.156-0.244-3.137,1.165-3.989,2.347
			c-0.897,1.245-1.101,3.116-1.26,4.747c-1.237,12.673-1.167,25.498-6.369,37.594c-1.277,2.971-0.19,6.958-0.19,10.051
			c3.891-1.048,7.213-2.727,10.521-2.696c13.786,0.124,27.583,0.497,41.345,1.322c7.078,0.425,13.498,3.635,21.334,2.408
			c5.842-0.914,12.042-0.704,18.257-1.802c17.822-3.148,35.862-3.842,54.522-0.08c-0.618-4.563-1.101-9.151-1.886-13.688
			c-1.379-7.976-4.091-15.916-4.119-23.878c-0.03-8.526-4.127-12.276-11.107-14.643c-2.19-0.742-4.423-1.371-6.66-1.959
			c-14.078-3.702-28.085-1.328-42.093,0.548c-2.936,0.394-5.857,0.901-8.785,1.357c0.063,0.451,0.123,0.903,0.186,1.354
			C203.253,174.634,211.032,174.261,218.813,173.887z M216.828,353.844c-13.338,2.707-26.69,2.38-40.076-1.491
			c-0.483,6.163-6.862,1.747-8.849,5.242c0.602,6.828,3.748,11.693,10.775,14.693c12.553,5.358,25.415,5.505,37.564-0.784
			c3.865-2.002,6.721-6.523,9.209-10.421c1.701-2.666,0.482-4.965-3.42-5.123C220.271,355.888,218.562,354.587,216.828,353.844z
			 M265.767,227.813c-9.379-2.856-18.958-2.248-28.538-1.641c-0.025,0.547-0.051,1.094-0.076,1.641
			C246.68,227.813,256.208,227.813,265.767,227.813z M157.841,227.409c-0.012-0.286-0.024-0.572-0.036-0.858
			c-8.764,0-17.527,0-26.291,0c0.003,0.286,0.007,0.572,0.011,0.858C140.296,227.409,149.068,227.409,157.841,227.409z
			 M120.261,246.114c0.415-0.084,0.83-0.169,1.246-0.254c0-1.947,0.205-3.927-0.097-5.827c-0.129-0.809-1.317-1.448-2.024-2.166
			c-0.559,0.987-1.744,2.127-1.549,2.931C118.288,242.656,119.41,244.353,120.261,246.114z M171.194,350.415
			c-4.9-3.682-7.268-3.608-10.777,0C163.802,350.415,167.169,350.415,171.194,350.415z M232.96,350.399
			c-3.383-3.659-6.518-3.169-9.763,0C226.682,350.399,229.82,350.399,232.96,350.399z M267.8,250.499
			c0.165,0.018,0.331,0.034,0.497,0.051c0-3.252,0-6.503,0-9.755c-0.166,0.001-0.332,0.001-0.497,0.002
			C267.8,244.031,267.8,247.266,267.8,250.499z M267.722,234.613c0.289,0.019,0.578,0.038,0.868,0.057
			c-0.127-1.462-0.253-2.924-0.379-4.387c-0.308,0.053-0.616,0.105-0.924,0.158C267.432,231.832,267.577,233.223,267.722,234.613z
			 M127.286,253.946c-0.041-0.146-0.082-0.29-0.123-0.436c-0.121,0.037-0.345,0.068-0.347,0.11
			c-0.007,0.143,0.064,0.289,0.106,0.435C127.044,254.019,127.165,253.982,127.286,253.946z M129.063,228.107l-0.167,0.22
			l0.268,0.038L129.063,228.107z"/>
		<path fill-rule="evenodd" clip-rule="evenodd" fill="#F3F2F1" d="M175.993,388.668c-2.91-3.546-6.279-6.816-8.615-10.708
			c-3.004-5.004-5.524-10.378-7.537-15.855c-0.801-2.181-2.018-6.36,3.257-6.174c2.813,15.096,13.249,23.501,31.105,23.56
			c7.446,0.024,14.901-2.289,22.352-3.539c-0.198,1.115-0.142,2.365-0.645,3.32c-1.43,2.717-3.087,5.313-4.178,8.494
			C200.229,391.431,188.091,389.178,175.993,388.668z M176.546,381.77c-0.679-0.607-1.358-1.215-2.038-1.822
			c-0.154,0.281-0.309,0.563-0.464,0.844c0.834,0.327,1.668,0.653,2.502,0.98c1.24,0.733,2.48,1.467,3.721,2.2
			c0.053-1.162-0.387-1.589-0.904-1.73C178.448,381.992,177.487,381.917,176.546,381.77z M183.524,383.947
			c-0.012,0.343-0.023,0.687-0.035,1.029c6.297,0,12.593,0,17.018,0C196.118,384.711,189.821,384.329,183.524,383.947z"/>
		<path fill-rule="evenodd" clip-rule="evenodd" fill="#0C1E34" d="M107.544,365.632c6.687-5.539,15.232-4.843,22.984-6.754
			c3.955-0.975,8.08-1.259,11.994-1.836c0,8.014,0,15.91,0,23.807C130.863,375.776,119.204,370.704,107.544,365.632z"/>
		<path fill-rule="evenodd" clip-rule="evenodd" fill="#0C1E34" d="M251.521,380.62c0.354-7.357,0.706-14.714,1.091-22.714
			c8.858,1.357,18.24,2.65,27.551,4.339c1.936,0.352,3.605,2.17,5.397,3.312C274.215,370.578,262.868,375.599,251.521,380.62z"/>
		<path fill-rule="evenodd" clip-rule="evenodd" fill="#0C1E34" d="M145.565,381.724c-0.01-4.478,0.328-8.988-0.105-13.425
			c-0.792-8.105,1.416-14.021,10.951-15.935c-1.553,14.322,5.66,25.22,15.117,35.099C162.874,385.55,154.22,383.637,145.565,381.724
			z"/>
		<path fill-rule="evenodd" clip-rule="evenodd" fill="#0C1E34" d="M225.314,386.698c2.24-3.3,5.108-6.341,6.588-9.952
			c3.086-7.531,5.437-15.363,8.121-23.162c8.979,2.233,9.726,5.813,9.393,17.671c-0.097,3.444-0.547,6.879-0.834,10.318
			C240.826,383.281,233.07,384.99,225.314,386.698z"/>
		<path fill-rule="evenodd" clip-rule="evenodd" fill="#F3F2F1" d="M228.725,376.154c-1.743,2.15-3.485,4.3-5.229,6.449
			c0.138-1.77-0.173-3.748,0.527-5.257C224.856,375.553,226.355,373.305,228.725,376.154z"/>
		<path fill-rule="evenodd" clip-rule="evenodd" fill="#F3F2F1" d="M224.481,370.745c1.659-2.335,3.318-4.67,4.978-7.004
			C231.752,369.314,230.789,370.669,224.481,370.745z"/>
		<path fill-rule="evenodd" clip-rule="evenodd" fill="#F3F2F1" d="M230.634,356.775c1.104-0.048,2.21-0.096,3.316-0.144
			C232.845,356.68,231.739,356.728,230.634,356.775z"/>
		<path fill-rule="evenodd" clip-rule="evenodd" fill="#FACA98" d="M125.167,259.597c13.372,7.494,28.025,4.902,42.299,5.003
			c4.854,0.034,9.819-1.372,14.548-2.756c4.383-1.281,6.665-4.614,6.672-9.418c0.005-3.822,0.751-7.679,0.426-11.457
			c-0.343-3.992,1.537-5.543,4.917-5.92c2.291-0.256,4.65-0.208,6.95,0.011c3.287,0.313,4.774,1.938,4.54,5.612
			c-0.402,6.292-0.332,12.625-0.2,18.935c0.043,2.063,0.891,4.11,2.021,6.068c0-2.049,0-4.098,0-6.692
			c9.804,7.105,20.77,5.9,31.399,5.78c10.452-0.118,21.429,1.523,31.231-6.889c-1.229,7.44-2.228,14.078-3.438,20.678
			c-1.884,10.271-3.678,20.568-5.956,30.755c-1.605,7.177-5.604,13.224-11.593,17.516c-8.227,5.896-16.407,11.998-25.224,16.902
			c-17.943,9.981-36.296,9.459-54.149-0.492c-7.09-3.952-13.63-8.882-20.459-13.306c-11.561-7.487-16.052-19.063-18.32-31.839
			c-2.201-12.394-4.163-24.83-6.203-37.252C124.585,260.569,124.874,260.248,125.167,259.597z M191.665,285.615
			c-0.367-0.283-0.734-0.566-1.102-0.851c-1.521-0.159-3.326-0.93-4.513-0.375c-5.941,2.776-5.884,2.898-7.513-3.192
			c-0.422,1.926-0.91,4.183-0.048,5.643c0.687,1.164,2.976,1.721,4.628,1.919c8.574,1.025,17.15,4.959,25.767-0.186
			c2.014-1.203,6.297-1.077,6.56-2.236c0.581-2.567-0.727-5.563-1.264-8.384c-0.532,0.123-1.064,0.246-1.597,0.369
			c0.354,1.228,0.932,2.442,1.002,3.687c0.076,1.378-0.312,2.781-0.497,4.174c-1.34-0.283-3.064-0.138-3.949-0.93
			c-2.866-2.564-5.112-1.421-7.417,0.646c-3.347-0.092-6.692-0.184-10.04-0.275L191.665,285.615z M159.673,301.664
			c7.114,8.879,12.623,17.261,23.387,19.397c9.816,1.948,19.375,1.922,29.167-0.126c10.827-2.265,15.877-11.049,22.432-18.541
			c-3.071-4.339-6.041-0.536-9.039,0.121c-20,4.379-39.91,4.351-59.755-1.09C164.046,300.927,161.921,301.549,159.673,301.664z
			 M209.382,327.607c-7.868,0-15.229,0-23.345,0C192.589,331.951,203.329,331.84,209.382,327.607z"/>
		<path fill-rule="evenodd" clip-rule="evenodd" fill="#FACA98" d="M218.813,173.887c-7.78,0.374-15.56,0.747-23.339,1.121
			c-0.063-0.451-0.123-0.903-0.186-1.354c2.928-0.456,5.85-0.963,8.785-1.357c14.008-1.875,28.015-4.25,42.093-0.548
			c2.237,0.588,4.47,1.217,6.66,1.959c6.98,2.367,11.077,6.117,11.107,14.643c0.028,7.962,2.74,15.903,4.119,23.878
			c0.785,4.537,1.268,9.126,1.886,13.688c-18.66-3.762-36.7-3.068-54.522,0.08c-6.215,1.098-12.415,0.888-18.257,1.802
			c-7.836,1.227-14.256-1.983-21.334-2.408c-13.762-0.825-27.559-1.198-41.345-1.322c-3.308-0.03-6.63,1.648-10.521,2.696
			c0-3.093-1.087-7.08,0.19-10.051c5.202-12.096,5.132-24.921,6.369-37.594c0.159-1.631,0.362-3.502,1.26-4.747
			c0.853-1.182,2.833-2.591,3.989-2.347c8.186,1.723,15.713-0.231,23.276-3.067c1.784-0.669,4.409-0.425,6.177,0.402
			c16.642,7.783,33.827,10.295,51.829,5.98c0.731-0.175,1.411-0.569,2.115-0.861C219.048,174.283,218.931,174.085,218.813,173.887z
			 M256.481,220.971c-1.254-8.152-9.346-15.929-16.974-17.068c-8.959-1.339-17.517,0.207-25.518,4.613
			c-2.87,1.581-3.896,3.729-2.766,7.25C226.801,211.392,242.421,205.487,256.481,220.971z M182.979,215.831
			c-0.001-7.08-7.088-11.308-19.03-12.18c-13.481-0.983-24.647,5.715-26.435,17.289
			C151.577,205.534,167.177,211.379,182.979,215.831z"/>
		<path fill-rule="evenodd" clip-rule="evenodd" fill="#663624" d="M139.782,136.098c1.869-2.519,3.268-5.692,5.693-7.438
			c8.361-6.015,17.569-10.315,28.006-11.41c1.079-0.13,2.159-0.257,4.4-0.522c-3.772,2.002-6.496,3.448-9.221,4.895
			c0.178,0.376,0.355,0.752,0.533,1.129c3.998-1.315,7.909-3.086,12.01-3.856c10.658-2.002,21.398-3.565,32.106-5.304
			c-0.38,1.139-0.76,2.278-1.146,3.439c3.823,0.886,7.646,1.771,11.468,2.657c-4.808,0.504-9.615,1.008-14.996,1.572
			c11.367,2.44,21.831,4.687,33.299,7.149c-2.372-1.417-3.916-2.34-6.122-3.658c2.065,0,3.38,0,4.695,0
			c8.671,5.132,19.218,8.604,25.579,15.783c9.76,11.014,18.244,24.042,20.009,39.321c0.918,7.945-1.081,16.232-1.81,24.36
			c-0.31,3.454-0.74,6.896-1.156,10.725c-0.598-1.551-1.127-2.926-2.176-5.65c-2.661,6.781-4.884,12.448-7.383,18.816
			c-2.682-13.767-5.193-26.656-7.953-40.823c2.807,1.208,3.943,1.697,5.426,2.334c0.175-1.005,0.688-2.052,0.376-2.45
			c-3.32-4.229-6.004-9.606-10.337-12.266c-11.471-7.041-24.379-8.936-37.798-7.315c-9.525,1.151-19.083,2.042-28.626,3.051
			c-3.049-1.476-6.098-2.953-9.711-4.704c10.314-0.644,20.386,1.296,30.253-3.631c-6.074,0-11.353,0.364-16.558-0.102
			c-5.286-0.472-10.499-1.762-17.002-2.917c3.15-3.124,4.893-5.438,7.159-6.981c5.448-3.709,11.144-7.057,16.739-10.551
			c3.821-0.926,7.643-1.853,11.464-2.779c-0.069-0.436-0.139-0.872-0.208-1.308c-3.641,0.367-7.301,0.599-10.918,1.125
			c-11.474,1.671-22.121,5.212-30.363,13.95l0.002-0.01c-1.002,0.667-2.004,1.334-3.005,2.001c-4.788,2.251-9.54,4.586-14.374,6.733
			c-5.779,2.566-11.717,4.334-18.679,2.681c1.048-5.519-0.229-8.859-7.266-5.607c1.286-4.499,2.313-8.09,3.339-11.682
			c3.043-4.329,6.085-8.658,9.126-12.988c0.313-0.353,0.626-0.704,0.938-1.057c0.313-0.35,0.628-0.698,0.942-1.047
			c0.128-0.06,0.276-0.097,0.376-0.188c0.057-0.054,0.035-0.194,0.048-0.295c-0.136,0.166-0.272,0.332-0.409,0.498
			c-0.362,0.301-0.725,0.601-1.088,0.901c-0.374,0.292-0.748,0.585-1.123,0.878C142.823,134.405,141.303,135.251,139.782,136.098z
			 M264.569,147.742c0.134,0.162,0.268,0.323,0.402,0.484c-0.022-0.094-0.015-0.226-0.073-0.272
			c-0.105-0.082-0.251-0.111-0.38-0.163c-0.651-0.347-1.304-0.693-1.957-1.039c-0.323-0.341-0.646-0.682-0.97-1.023
			c-4.266-3.991-9.353-5.78-15.31-5.239c5.071,1.779,10.143,3.557,15.217,5.333c0.344,0.321,0.687,0.642,1.03,0.962
			C263.209,147.104,263.89,147.422,264.569,147.742z M238.61,153.799c0.335,0.514,0.669,1.027,0.776,1.192
			c-4.354,1.523-8.792,3.075-13.229,4.627c4.397,0.384,8.438-0.596,12.506-0.726c4.265-0.136,8.555,0.543,12.834,0.866
			c3.441,1.616,6.884,3.233,10.728,5.038c-2.766-6.492-17.934-14.514-23.499-12.784C238.522,152.077,238.642,153.18,238.61,153.799z
			 M213.283,132.907c5.421,0.955,10.842,1.909,16.263,2.863c0.353,0.25,0.704,0.501,1.057,0.752
			c0.084-0.126,0.168-0.252,0.252-0.378c-0.437-0.125-0.872-0.249-1.309-0.374c-1.873-1.011-3.648-2.312-5.636-2.986
			c-13.942-4.73-28.146-5.371-42.554-2.071c-0.221-0.43-0.442-0.859-0.663-1.289c5.255-3.477,10.51-6.954,16.19-10.712
			c-17.676,2.26-26.023,17.98-40.252,24.594c0.331,0.587,0.662,1.175,0.994,1.763c1.651-0.77,3.303-1.54,4.955-2.31
			c2.43-0.232,4.861-0.464,8.831-0.843c-7.067,5.341-13.056,9.867-19.044,14.392c0.229,0.392,0.46,0.784,0.689,1.176
			c12.806-6.117,25.611-12.233,39.605-18.918c-3.899,0.524-6.504,0.874-9.107,1.224c3.273-2.021,6.688-3.318,10.223-3.962
			C200.242,134.65,206.777,133.859,213.283,132.907z M200.823,153.102c7.483,5.726,19.991,7.53,25.269,4.326
			C218.168,156.071,209.816,154.642,200.823,153.102z M243.531,139.464c0.113-0.047,0.228-0.095,0.341-0.143
			c-0.097-0.072-0.189-0.193-0.294-0.205c-0.106-0.012-0.226,0.082-0.34,0.13C243.336,139.319,243.434,139.392,243.531,139.464z
			 M165.257,124.313l-0.23-0.147l-0.033,0.224L165.257,124.313z M166.842,123.238l0.272,0.167l0.035-0.256L166.842,123.238z"/>
		<path fill-rule="evenodd" clip-rule="evenodd" fill="#461D11" d="M205.54,141.752c-5.596,3.494-11.291,6.841-16.739,10.551
			c-2.267,1.543-4.009,3.857-7.159,6.981c6.503,1.155,11.716,2.445,17.002,2.917c5.205,0.465,10.483,0.102,16.558,0.102
			c-9.867,4.927-19.938,2.987-30.253,3.631c3.613,1.751,6.662,3.229,9.711,4.704c-8.015-0.657-16.047-1.164-24.033-2.074
			c-1.977-0.225-3.805-1.755-6.052-2.858c2.22-2.567,4.077-4.714,5.933-6.861c-0.213-0.391-0.426-0.782-0.639-1.173
			c-11.555,10.64-24.447,15.409-38.512,10.217c-1.65,3.422-3.207,6.65-4.764,9.878c-2.423,4.757-4.845,9.515-7.793,15.305
			c-0.881-8.348,3.954-15.192,0.748-22.314c1.188-2.472,2.377-4.944,3.565-7.416c-0.546-0.483-1.091-0.965-1.637-1.448
			c-1.339,1.958-2.679,3.917-4.017,5.875c-2.148-3.358-2.561-6.003,2.051-7.888c1.984-0.811,3.395-3.025,5.296-4.82
			c1.204,0.861,2.345,1.678,3.876,2.774c0.354-1.198,0.578-2.049,0.856-2.883c1.734-5.196,3.241-10.491,5.384-15.514
			c0.566-1.329,3.104-1.818,4.734-2.692c-1.376,3.371-2.75,6.742-4.125,10.113c-1.026,3.592-2.053,7.183-3.339,11.682
			c7.036-3.252,8.313,0.088,7.266,5.607c6.962,1.653,12.899-0.115,18.679-2.681c4.834-2.147,9.586-4.481,14.375-6.733
			c1.002-0.667,2.002-1.334,3.004-2.001l-0.002,0.01c1.09-0.263,2.293-0.315,3.25-0.827c4.486-2.398,8.711-5.425,13.408-7.252
			C196.371,143.03,201.065,142.672,205.54,141.752z M125.8,162.411c0.119-0.28,0.393-0.621,0.314-0.823
			c-0.078-0.199-0.515-0.258-0.793-0.378c-0.121,0.279-0.396,0.621-0.316,0.821C125.085,162.231,125.519,162.291,125.8,162.411z"/>
		<path fill-rule="evenodd" clip-rule="evenodd" fill="#F7C897" d="M216.828,353.844c1.733,0.743,3.443,2.044,5.204,2.116
			c3.902,0.158,5.121,2.457,3.42,5.123c-2.488,3.897-5.344,8.419-9.209,10.421c-12.149,6.289-25.012,6.143-37.564,0.784
			c-7.027-3-10.174-7.865-10.775-14.693c1.986-3.495,8.365,0.921,8.849-5.242C190.138,356.224,203.49,356.551,216.828,353.844z"/>
		<path fill-rule="evenodd" clip-rule="evenodd" fill="#F3C595" d="M210.444,252.762c0-2.149,0-4.3,0-7.751
			c5.147,6.984,11.354,5.136,17.562,4.241c3.237-0.466,6.605-0.067,9.912,0.012c2.484,0.06,5.399,1.118,7.354,0.161
			c3.516-1.721,7.078-4.168,9.322-7.256c0.868-1.194-1.524-5.117-2.934-7.5c-1.227-2.074-3.159-3.731-5.201-6.051
			c5.271,0.464,10.483,0.613,15.55,1.546c1.645,0.303,4.164,2.676,4.14,4.063c-0.124,6.892-0.965,13.77-1.553,20.652
			c-1.403,0.929-2.806,1.857-4.208,2.786c-2.604,0.378-5.207,1.084-7.81,1.079c-11.205-0.021-22.411-0.434-33.612-0.31
			C214.502,258.485,211.899,256.735,210.444,252.762z"/>
		<path fill-rule="evenodd" clip-rule="evenodd" fill="#F3C595" d="M182.794,255.98c-14.125,5.202-28.693,3.756-43.191,2.704
			c-8.466-0.614-10.797-3.32-11.158-11.908c-0.154-3.655-0.075-7.321-0.227-10.978c-0.167-4.004,1.973-5.707,5.66-6.016
			c4.466-0.374,8.932-0.745,14.006-1.167c-2.186,2.32-4.01,4.097-5.648,6.03c-5.09,6.004-2.392,13.378,5.475,14.808
			c1.932,0.352,3.977,0.076,5.97,0.1c5.288,0.062,10.676-0.479,15.839,0.358c5.725,0.928,10.359-0.228,14.854-5.489
			c-0.265,4.542-0.443,7.595-0.617,10.647c0.004-0.001,0.075,0.211,0.075,0.211c-0.285,0.251-0.571,0.501-0.851,0.754
			C182.984,256.038,182.794,255.98,182.794,255.98z"/>
		<path fill-rule="evenodd" clip-rule="evenodd" fill="#643522" d="M119.548,170.757c3.206,7.123-1.629,13.967-0.748,22.314
			c2.948-5.791,5.37-10.548,7.793-15.305c0.951,11.64,0.42,23.033-3.93,34.149c-1.523,3.894-1.428,8.423-2.058,12.664
			c-0.181,1.218-0.313,2.442-0.468,3.664c-0.461,0.099-0.924,0.198-1.385,0.297c-1.092-3.127-2.029-6.319-3.314-9.364
			c-1.789-4.238-4.619-8.188-5.627-12.576c-2.816-12.261-0.521-23.944,5.729-34.848c0,2.405,0,4.81,0,7.215
			c0.342-0.036,0.684-0.072,1.024-0.108C117.56,176.158,118.554,173.458,119.548,170.757z"/>
		<path fill-rule="evenodd" clip-rule="evenodd" fill="#D78A67" d="M273.225,274.674c-0.056-1.756-0.284-3.527-0.136-5.267
			c0.503-5.882,1.043-11.764,1.771-17.62c0.294-2.366,1.108-4.667,1.687-6.998c1.692,1.914,3.386,3.828,5.276,5.966
			c-0.297-2.005-0.063-4.24-0.975-5.814c-2.258-3.906-0.674-6.2,2.542-8.188c0.995,2.209,3.105,4.597,2.785,6.596
			c-1.134,7.084-2.743,14.146-4.878,20.997C279.983,268.563,278.701,273.431,273.225,274.674z"/>
		<path fill-rule="evenodd" clip-rule="evenodd" fill="#F1C292" d="M120.612,273.817c1.221,2.968,2.443,5.937,3.666,8.904
			c-0.395,0.333-0.787,0.665-1.182,0.998c-1.331-0.676-3.014-1.037-3.941-2.074c-11.486-12.846-17.527-27.557-14.619-45.052
			c0.729-4.383,2.924-7.727,9.707-7.29c-0.998,2.501-1.799,4.506-2.6,6.512c-3.938,2.983-4.779,7.375-3.796,11.588
			c1.645,7.048,3.823,14.031,6.524,20.74C115.318,270.491,118.468,271.951,120.612,273.817z"/>
		<path fill-rule="evenodd" clip-rule="evenodd" fill="#F1C292" d="M273.225,274.674c5.477-1.243,6.759-6.11,8.073-10.329
			c2.135-6.851,3.744-13.913,4.878-20.997c0.32-1.999-1.79-4.387-2.785-6.596c0.682-0.823,1.363-1.646,2.046-2.47
			c-0.155-0.261-0.311-0.522-0.465-0.783c-1.769,0.747-3.537,1.495-5.305,2.243c0.875-2.146-2.17-5.601,2.072-6.583
			c3.197-0.741,6.897,2.324,7.661,6.979c2.083,12.694-0.155,24.711-7.138,35.563c-2.856,4.439-6.527,8.354-9.828,12.507
			c-0.672-0.377-1.345-0.754-2.018-1.132C271.353,280.275,272.288,277.475,273.225,274.674z"/>
		<path fill-rule="evenodd" clip-rule="evenodd" fill="#DC8D6A" d="M120.612,273.817c-2.145-1.866-5.294-3.326-6.24-5.674
			c-2.701-6.709-4.88-13.692-6.524-20.74c-0.983-4.213-0.143-8.604,3.796-11.588c1.043,1.945,2.086,3.89,3.129,5.836
			c-3.17,5.128-4.463,10.442-2.168,16.059c1.008-4.432,2.01-8.84,3.012-13.248c3.012,2.681,4.094,5.92,4.046,10.04
			c-0.052,4.428,1.04,8.859,1.392,13.308C121.211,269.788,120.777,271.813,120.612,273.817z"/>
		<path fill-rule="evenodd" clip-rule="evenodd" fill="#75A4D0" d="M168.456,247.41c-4.249-0.038-8.498-0.076-12.75-0.112
			c-2.857-5.196-3.652-10.426-0.232-15.716l-0.082,0.099c0.416-0.253,0.832-0.504,1.248-0.756c4.27,0.265,8.537,0.528,12.807,0.793
			c0.428,0.295,0.854,0.59,1.279,0.884l-0.021-0.083C173.081,237.955,172.327,242.918,168.456,247.41z M163.608,234.71
			c-1.35-0.773-2.699-1.547-4.05-2.32c-0.276,1.621-0.554,3.241-0.831,4.862c-2.523,3.138-0.094,5.366,2.129,5.973
			c1.661,0.452,4.86-0.954,5.801-2.494C168.297,238.049,167.255,235.402,163.608,234.71z"/>
		<path fill-rule="evenodd" clip-rule="evenodd" fill="#75A4D0" d="M224.622,231.698c4.025-0.258,8.051-0.517,12.076-0.775
			c0.644,0.264,1.288,0.527,1.933,0.791l-0.039-0.043c3.081,5.47,2.742,10.693-1.133,15.66c-3.974,0.026-7.946,0.053-11.92,0.078
			C220.877,242.427,220.704,237.182,224.622,231.698z M232.562,234.742c-1.347-0.794-2.693-1.588-4.041-2.382
			c-0.54,1.502-1.081,3.004-1.621,4.506c-0.858,3.413,0.061,6.265,3.717,6.669c1.559,0.173,4.146-1.433,4.872-2.914
			C236.727,238.096,236.117,235.419,232.562,234.742z"/>
		<path fill-rule="evenodd" clip-rule="evenodd" fill="#F4F4F4" d="M237.459,247.331c3.875-4.967,4.214-10.19,1.133-15.66
			c3.531,1.789,7.74,2.886,10.44,5.526c4.299,4.204,1.899,9.615-4.224,10.395C242.408,247.897,239.911,247.44,237.459,247.331z"/>
		<path fill-rule="evenodd" clip-rule="evenodd" fill="#F4F4F4" d="M155.474,231.582c-3.42,5.29-2.625,10.52,0.232,15.716
			c-0.145,0.073-0.285,0.201-0.438,0.217c-7.332,0.747-12.308-1.37-12.736-5.409C142.078,237.832,149.017,232.189,155.474,231.582z"
			/>
		<path fill-rule="evenodd" clip-rule="evenodd" fill="#8D6B5E" d="M213.311,113.591c-10.708,1.739-21.448,3.302-32.106,5.304
			c-4.101,0.771-8.012,2.541-12.01,3.856c-0.178-0.376-0.355-0.752-0.533-1.129c2.725-1.446,5.448-2.892,9.221-4.895
			c-2.241,0.265-3.321,0.392-4.4,0.522c1.164-0.71,2.288-1.959,3.498-2.051c11.682-0.88,23.377-1.574,35.071-2.274
			C212.456,112.901,212.89,113.358,213.311,113.591z"/>
		<path fill-rule="evenodd" clip-rule="evenodd" fill="#8D6B5E" d="M240.508,124.751c-1.315,0-2.63,0-4.695,0
			c2.206,1.318,3.75,2.24,6.122,3.658c-11.468-2.462-21.932-4.708-33.299-7.149c5.381-0.564,10.188-1.068,14.996-1.572
			C229.258,121.375,234.883,123.063,240.508,124.751z"/>
		<path fill-rule="evenodd" clip-rule="evenodd" fill="#F4F4F4" d="M168.456,247.41c3.871-4.492,4.625-9.455,2.248-14.892
			c5.596,0.745,8.262,4.701,9.908,9.466c0.326,0.941-0.598,3.267-1.34,3.463C175.742,246.384,172.075,246.806,168.456,247.41z"/>
		<path fill-rule="evenodd" clip-rule="evenodd" fill="#F4F4F4" d="M224.622,231.698c-3.918,5.483-3.745,10.729,0.917,15.711
			c-6.676,0.745-12.094-0.961-12.728-4.006C212.066,239.822,218.728,233.222,224.622,231.698z"/>
		<path fill-rule="evenodd" clip-rule="evenodd" fill="#2F2A26" d="M210.444,252.762c1.455,3.974,4.058,5.724,8.521,5.674
			c11.201-0.124,22.407,0.289,33.612,0.31c2.603,0.005,5.206-0.701,7.81-1.079c-0.9,0.691-1.706,1.707-2.722,2.007
			c-1.98,0.585-4.08,0.77-6.13,1.12c-5.46,0.001-10.923-0.114-16.377,0.045c-3.543,0.103-7.074,0.606-10.611,0.93
			c-4.406-1.041-8.967-1.688-13.148-3.311C209.621,257.768,206.515,255.356,210.444,252.762z"/>
		<path fill-rule="evenodd" clip-rule="evenodd" fill="#414141" d="M265.767,227.813c-9.559,0-19.087,0-28.614,0
			c0.025-0.547,0.051-1.094,0.076-1.641C246.809,225.564,256.388,224.956,265.767,227.813z"/>
		<path fill-rule="evenodd" clip-rule="evenodd" fill="#414141" d="M157.841,227.409c-8.772,0-17.545,0-26.316,0
			c-0.004-0.286-0.008-0.572-0.011-0.858c8.764,0,17.527,0,26.291,0C157.816,226.837,157.829,227.123,157.841,227.409z"/>
		<path fill-rule="evenodd" clip-rule="evenodd" fill="#884130" d="M279.667,235.742c1.768-0.748,3.536-1.496,5.305-2.243
			c0.154,0.261,0.31,0.522,0.465,0.783c-0.683,0.823-1.364,1.646-2.046,2.47c-3.216,1.988-4.8,4.282-2.542,8.188
			c0.911,1.574,0.678,3.81,0.975,5.814c-1.891-2.138-3.584-4.052-5.276-5.966C277.587,241.773,278.627,238.758,279.667,235.742z"/>
		<path fill-rule="evenodd" clip-rule="evenodd" fill="#414141" d="M185.529,233.8c7.212-5.404,15.745-5.435,22.604,0.464
			c-7.211-4.04-14.361-2.283-21.51-0.319C186.258,233.896,185.894,233.848,185.529,233.8z"/>
		<path fill-rule="evenodd" clip-rule="evenodd" fill="#381510" d="M119.548,170.757c-0.994,2.701-1.988,5.401-2.983,8.102
			c-0.341,0.036-0.683,0.072-1.024,0.108c0-2.405,0-4.81,0-7.215l-0.013,0.023c0.341-0.737,0.681-1.475,1.022-2.211
			c0.304-0.599,0.607-1.197,0.91-1.795c1.338-1.958,2.678-3.916,4.017-5.875c0.546,0.483,1.091,0.965,1.637,1.448
			C121.925,165.813,120.735,168.285,119.548,170.757z"/>
		<path fill-rule="evenodd" clip-rule="evenodd" fill="#884130" d="M115.616,244.462c-1.002,4.408-2.004,8.816-3.012,13.248
			c-2.295-5.616-1.002-10.931,2.168-16.059C115.054,242.588,115.335,243.524,115.616,244.462z"/>
		<path fill-rule="evenodd" clip-rule="evenodd" fill="#3D3936" d="M251.536,260.793c2.05-0.351,4.149-0.535,6.13-1.12
			c1.016-0.3,1.821-1.315,2.722-2.007c1.402-0.929,2.805-1.857,4.208-2.786c1.692,1.404,2.499,3.063-0.226,3.869
			c-4.204,1.244-8.547,2.021-12.83,2.997C251.552,261.429,251.551,261.11,251.536,260.793z"/>
		<path fill-rule="evenodd" clip-rule="evenodd" fill="#8D6B5E" d="M135.532,146.857c1.375-3.371,2.749-6.742,4.125-10.113
			c0.058-0.215,0.098-0.432,0.123-0.649c1.522-0.843,3.043-1.689,4.565-2.533c0.003,0.003,0.313,0.309,0.313,0.309
			C141.617,138.199,138.575,142.528,135.532,146.857z"/>
		<path fill-rule="evenodd" clip-rule="evenodd" fill="#461D11" d="M120.261,246.114c-0.851-1.762-1.973-3.458-2.424-5.316
			c-0.195-0.804,0.99-1.943,1.549-2.931c0.707,0.718,1.896,1.357,2.024,2.166c0.302,1.9,0.097,3.88,0.097,5.827
			C121.091,245.945,120.676,246.03,120.261,246.114z"/>
		<path fill-rule="evenodd" clip-rule="evenodd" fill="#414141" d="M251.536,260.793c0.015,0.317,0.016,0.636,0.004,0.953
			c-8.997,0.007-17.994,0.015-26.992,0.021c3.537-0.323,7.068-0.827,10.611-0.93C240.613,260.679,246.076,260.794,251.536,260.793z"
			/>
		<path fill-rule="evenodd" clip-rule="evenodd" fill="#0C1E34" d="M171.194,350.415c-4.025,0-7.393,0-10.777,0
			C163.927,346.807,166.294,346.733,171.194,350.415z"/>
		<path fill-rule="evenodd" clip-rule="evenodd" fill="#0C1E34" d="M232.96,350.399c-3.14,0-6.278,0-9.763,0
			C226.442,347.23,229.577,346.74,232.96,350.399z"/>
		<path fill-rule="evenodd" clip-rule="evenodd" fill="#3D3936" d="M130.563,257.748c4.367,1.042,8.734,2.083,13.103,3.125
			c-4.761,0.386-9.661,1.324-13.146-3.082C130.521,257.79,130.563,257.748,130.563,257.748z"/>
		<path fill-rule="evenodd" clip-rule="evenodd" fill="#2F2A26" d="M267.8,250.499c0-3.233,0-6.468,0-9.702
			c0.165-0.001,0.331-0.001,0.497-0.002c0,3.252,0,6.503,0,9.755C268.131,250.533,267.965,250.517,267.8,250.499z"/>
		<path fill-rule="evenodd" clip-rule="evenodd" fill="#2F2A26" d="M185.548,253.772c0-2.913,0-5.826,0-8.738
			c0.404,0.019,0.81,0.037,1.215,0.056c-0.406,2.893-0.813,5.786-1.219,8.679L185.548,253.772z"/>
		<path fill-rule="evenodd" clip-rule="evenodd" fill="#2F2A26" d="M182.794,255.98c0,0,0.19,0.058,0.186,0.055
			c-0.528,1.196-1.052,2.395-1.575,3.593c-0.523-0.301-1.047-0.602-1.57-0.901C180.821,257.812,181.808,256.896,182.794,255.98z"/>
		<path fill-rule="evenodd" clip-rule="evenodd" fill="#2F2A26" d="M267.722,234.613c-0.145-1.391-0.29-2.781-0.435-4.172
			c0.308-0.053,0.616-0.105,0.924-0.158c0.126,1.463,0.252,2.925,0.379,4.387C268.3,234.651,268.011,234.632,267.722,234.613z"/>
		<path fill-rule="evenodd" clip-rule="evenodd" fill="#2F2A26" d="M185.529,233.8c0.364,0.048,0.729,0.096,1.094,0.145
			c0.001,1.908,0.001,3.813,0.001,5.719c-0.365,0.008-0.73,0.016-1.095,0.022C185.529,237.724,185.529,235.762,185.529,233.8z"/>
		<path fill-rule="evenodd" clip-rule="evenodd" fill="#2F2A26" d="M183.83,255.281c0,0-0.071-0.212-0.075-0.211
			c0.596-0.433,1.193-0.865,1.793-1.298l-0.004-0.004C184.973,254.272,184.401,254.777,183.83,255.281z"/>
		<path fill-rule="evenodd" clip-rule="evenodd" fill="#643522" d="M116.55,169.563c-0.342,0.737-0.682,1.474-1.022,2.211
			C115.868,171.037,116.208,170.3,116.55,169.563z"/>
		<path fill-rule="evenodd" clip-rule="evenodd" fill="#3D3936" d="M127.286,253.946c-0.121,0.036-0.242,0.072-0.363,0.109
			c-0.042-0.146-0.113-0.292-0.106-0.435c0.002-0.042,0.226-0.073,0.347-0.11C127.204,253.656,127.245,253.801,127.286,253.946z"/>
		<path fill-rule="evenodd" clip-rule="evenodd" fill="#3D3936" d="M129.545,256.771c-0.437-0.122-0.874-0.244-1.312-0.367
			c0.08-0.129,0.161-0.259,0.241-0.388c0.357,0.251,0.715,0.502,1.072,0.753L129.545,256.771z"/>
		<path fill-rule="evenodd" clip-rule="evenodd" fill="#F4F4F4" d="M238.631,231.714c-0.645-0.264-1.289-0.527-1.933-0.791
			C237.343,231.187,237.986,231.45,238.631,231.714z"/>
		<path fill-rule="evenodd" clip-rule="evenodd" fill="#F4F4F4" d="M156.64,230.925c-0.416,0.252-0.832,0.503-1.248,0.756
			C155.808,231.429,156.224,231.177,156.64,230.925z"/>
		<path fill-rule="evenodd" clip-rule="evenodd" fill="#414141" d="M126.678,229.888c-0.188,0.121-0.378,0.242-0.567,0.364
			c0.121-0.189,0.242-0.378,0.363-0.566L126.678,229.888z"/>
		<path fill-rule="evenodd" clip-rule="evenodd" fill="#414141" d="M126.474,229.686c0.209-0.134,0.418-0.268,0.627-0.401
			c-0.143,0.2-0.285,0.399-0.425,0.602C126.678,229.888,126.474,229.686,126.474,229.686z"/>
		<polygon fill-rule="evenodd" clip-rule="evenodd" fill="#414141" points="129.063,228.107 129.164,228.365 128.896,228.327 		"/>
		<path fill-rule="evenodd" clip-rule="evenodd" fill="#3D3936" d="M129.547,256.77c0.339,0.327,0.677,0.653,1.017,0.979
			c0-0.001-0.043,0.041-0.043,0.042c-0.325-0.34-0.65-0.68-0.976-1.02L129.547,256.77z"/>
		<path fill-rule="evenodd" clip-rule="evenodd" fill="#F4F4F4" d="M170.726,232.602c-0.426-0.294-0.852-0.589-1.279-0.884
			C169.872,232.013,170.3,232.308,170.726,232.602z"/>
		<path fill-rule="evenodd" clip-rule="evenodd" fill="#E9E8E8" d="M183.524,383.947c6.297,0.382,12.594,0.764,16.982,1.029
			c-4.425,0-10.721,0-17.018,0C183.501,384.634,183.513,384.29,183.524,383.947z"/>
		<path fill-rule="evenodd" clip-rule="evenodd" fill="#E9E8E8" d="M176.546,381.77c0.941,0.147,1.902,0.223,2.816,0.472
			c0.518,0.142,0.957,0.568,0.904,1.73c-1.24-0.733-2.48-1.467-3.721-2.2V381.77z"/>
		<path fill-rule="evenodd" clip-rule="evenodd" fill="#E9E8E8" d="M176.546,381.771c-0.834-0.327-1.668-0.653-2.502-0.98
			c0.155-0.281,0.31-0.563,0.464-0.844c0.68,0.607,1.359,1.215,2.038,1.822V381.771z"/>
		<path fill-rule="evenodd" clip-rule="evenodd" fill="#25211C" d="M159.673,301.664c2.248-0.115,4.373-0.737,6.191-0.238
			c19.845,5.44,39.755,5.469,59.755,1.09c2.998-0.657,5.968-4.46,9.039-0.121c-6.555,7.492-11.604,16.276-22.432,18.541
			c-9.792,2.048-19.351,2.074-29.167,0.126C172.296,318.925,166.787,310.543,159.673,301.664z M220.437,313.6
			c1.119-1.209,2.238-2.419,3.358-3.628c1.06-1.135,2.119-2.269,3.179-3.403c-19.97,3.601-39.487,3.148-59.012-0.988
			c-0.309,0.534-0.617,1.068-0.926,1.603c1.58,1.143,3.158,2.286,4.738,3.43c0.929,1.047,1.858,2.095,2.788,3.143
			C189.881,321.763,205.172,321.652,220.437,313.6z"/>
		<path fill-rule="evenodd" clip-rule="evenodd" fill="#884130" d="M201.723,285.898c2.305-2.066,4.551-3.21,7.417-0.646
			c0.885,0.792,2.609,0.646,3.949,0.93c0.186-1.393,0.573-2.796,0.497-4.174c-0.07-1.244-0.648-2.459-1.002-3.687
			c0.532-0.123,1.064-0.246,1.597-0.369c0.537,2.821,1.845,5.816,1.264,8.384c-0.263,1.159-4.546,1.033-6.56,2.236
			c-8.616,5.145-17.192,1.211-25.767,0.186c-1.652-0.198-3.941-0.755-4.628-1.919c-0.862-1.46-0.374-3.717,0.048-5.643
			c1.629,6.091,1.571,5.969,7.513,3.192c1.187-0.555,2.991,0.216,4.512,0.375c0.368,0.283,0.735,0.567,1.103,0.851l0.018,0.008
			C195.691,291.498,198.327,291.57,201.723,285.898z"/>
		<path fill-rule="evenodd" clip-rule="evenodd" fill="#CF6E53" d="M209.382,327.607c-6.053,4.232-16.793,4.344-23.345,0
			C194.152,327.607,201.514,327.607,209.382,327.607z"/>
		<path fill-rule="evenodd" clip-rule="evenodd" fill="#D17C5D" d="M201.723,285.898c-3.396,5.672-6.031,5.6-10.04-0.275
			C195.03,285.715,198.376,285.807,201.723,285.898z"/>
		<path fill-rule="evenodd" clip-rule="evenodd" fill="#D17C5D" d="M191.665,285.615c-0.367-0.283-0.734-0.567-1.103-0.851
			C190.931,285.049,191.298,285.332,191.665,285.615z"/>
		<path fill-rule="evenodd" clip-rule="evenodd" fill="#603623" d="M256.481,220.971c-14.061-15.483-29.681-9.579-45.257-5.205
			c-1.13-3.521-0.104-5.669,2.766-7.25c8.001-4.406,16.559-5.952,25.518-4.613C247.136,205.042,255.228,212.818,256.481,220.971z"/>
		<path fill-rule="evenodd" clip-rule="evenodd" fill="#603623" d="M182.979,215.831c-15.803-4.452-31.402-10.297-45.465,5.109
			c1.787-11.574,12.953-18.272,26.435-17.289C175.892,204.523,182.979,208.751,182.979,215.831z"/>
		<path fill-rule="evenodd" clip-rule="evenodd" fill="#481F11" d="M162.581,142.759c-1.652,0.77-3.304,1.54-4.955,2.31
			c-0.332-0.587-0.663-1.175-0.994-1.763c14.229-6.614,22.576-22.334,40.252-24.594c-5.681,3.759-10.936,7.236-16.19,10.712
			c0.221,0.43,0.442,0.859,0.663,1.289c14.408-3.3,28.611-2.66,42.554,2.071c1.987,0.674,3.763,1.975,5.636,2.986v0
			c-5.421-0.955-10.842-1.909-16.261-2.864c-5.469-0.044-10.96-0.416-16.405-0.063C184.757,133.627,173.089,136.257,162.581,142.759
			z"/>
		<path fill-rule="evenodd" clip-rule="evenodd" fill="#8F6E60" d="M162.581,142.759c10.508-6.502,22.176-9.132,34.299-9.916
			c5.445-0.353,10.937,0.019,16.405,0.063c-6.508,0.953-13.043,1.744-19.507,2.921c-3.534,0.644-6.949,1.941-10.223,3.962
			c2.604-0.35,5.208-0.7,9.107-1.224c-13.994,6.685-26.8,12.802-39.605,18.918c-0.229-0.392-0.46-0.784-0.689-1.176
			c5.988-4.525,11.977-9.051,19.044-14.392C167.442,142.295,165.011,142.527,162.581,142.759z"/>
		<path fill-rule="evenodd" clip-rule="evenodd" fill="#381510" d="M205.54,141.752c-4.475,0.92-9.169,1.277-13.367,2.91
			c-4.697,1.827-8.922,4.854-13.408,7.252c-0.957,0.511-2.16,0.563-3.25,0.827c8.242-8.737,18.89-12.279,30.363-13.95
			c3.617-0.527,7.277-0.759,10.918-1.125c0.069,0.436,0.139,0.872,0.208,1.308C213.183,139.9,209.361,140.826,205.54,141.752z"/>
		<path fill-rule="evenodd" clip-rule="evenodd" fill="#481F11" d="M238.61,153.799c0.031-0.619-0.088-1.722,0.116-1.786
			c5.565-1.73,20.733,6.292,23.499,12.784c-3.844-1.805-7.286-3.422-10.728-5.038C247.202,157.772,242.906,155.786,238.61,153.799z"
			/>
		<path fill-rule="evenodd" clip-rule="evenodd" fill="#8F6E60" d="M238.61,153.799c4.296,1.987,8.592,3.973,12.888,5.96
			c-4.279-0.323-8.569-1.002-12.834-0.866c-4.068,0.13-8.108,1.109-12.506,0.726c4.437-1.552,8.874-3.104,13.229-4.627
			C239.279,154.826,238.945,154.313,238.61,153.799z"/>
		<path fill-rule="evenodd" clip-rule="evenodd" fill="#481F11" d="M200.823,153.102c8.993,1.54,17.345,2.969,25.269,4.326
			C220.814,160.632,208.307,158.828,200.823,153.102z"/>
		<path fill-rule="evenodd" clip-rule="evenodd" fill="#8D6B5E" d="M261.496,145.826c-5.071-1.779-10.143-3.557-15.214-5.336
			c5.957-0.541,11.044,1.248,15.309,5.24C261.59,145.731,261.496,145.826,261.496,145.826z"/>
		<path fill-rule="evenodd" clip-rule="evenodd" fill="#381510" d="M175.517,152.731c-1.002,0.667-2.002,1.334-3.004,2.001
			C173.513,154.065,174.515,153.398,175.517,152.731z"/>
		<path fill-rule="evenodd" clip-rule="evenodd" fill="#8D6B5E" d="M262.563,146.751c0.652,0.347,1.305,0.693,1.956,1.04l0.051-0.05
			c-0.68-0.319-1.36-0.638-2.04-0.957L262.563,146.751z"/>
		<path fill-rule="evenodd" clip-rule="evenodd" fill="#481F11" d="M229.546,135.77c0.437,0.125,0.872,0.25,1.309,0.374
			c-0.084,0.126-0.168,0.252-0.252,0.378C230.25,136.272,229.898,136.021,229.546,135.77L229.546,135.77z"/>
		<path fill-rule="evenodd" clip-rule="evenodd" fill="#8D6B5E" d="M243.531,139.464c-0.098-0.072-0.195-0.145-0.293-0.217
			c0.114-0.048,0.233-0.142,0.34-0.13c0.104,0.012,0.197,0.132,0.294,0.205C243.759,139.369,243.645,139.417,243.531,139.464z"/>
		<path fill-rule="evenodd" clip-rule="evenodd" fill="#8D6B5E" d="M264.519,147.791c0.129,0.051,0.274,0.081,0.38,0.163
			c0.059,0.046,0.051,0.179,0.073,0.272c-0.135-0.161-0.269-0.323-0.402-0.484C264.569,147.741,264.519,147.791,264.519,147.791z"/>
		<path fill-rule="evenodd" clip-rule="evenodd" fill="#8D6B5E" d="M262.529,146.785c-0.344-0.32-0.687-0.641-1.031-0.96
			c-0.002,0.001,0.092-0.093,0.093-0.094c0.324,0.34,0.647,0.681,0.972,1.021C262.563,146.751,262.529,146.785,262.529,146.785z"/>
		<path fill-rule="evenodd" clip-rule="evenodd" fill="#8D6B5E" d="M145.597,132.813c-0.313,0.352-0.626,0.704-0.938,1.056
			c0.001,0.001-0.31-0.305-0.313-0.308c0.372-0.296,0.746-0.588,1.12-0.881L145.597,132.813z"/>
		<path fill-rule="evenodd" clip-rule="evenodd" fill="#8D6B5E" d="M145.466,132.681c0.363-0.3,0.726-0.601,1.088-0.901
			l-0.015-0.014c-0.314,0.349-0.629,0.698-0.942,1.047C145.597,132.813,145.466,132.681,145.466,132.681z"/>
		<polygon fill-rule="evenodd" clip-rule="evenodd" fill="#8D6B5E" points="165.257,124.313 164.993,124.39 165.026,124.167 		"/>
		<polygon fill-rule="evenodd" clip-rule="evenodd" fill="#8D6B5E" points="166.842,123.238 167.149,123.15 167.114,123.406 		"/>
		<path fill-rule="evenodd" clip-rule="evenodd" fill="#8D6B5E" d="M146.554,131.779c0.137-0.166,0.273-0.332,0.409-0.498
			c-0.013,0.102,0.009,0.242-0.048,0.295c-0.1,0.091-0.248,0.128-0.376,0.188L146.554,131.779z"/>
		<path fill-rule="evenodd" clip-rule="evenodd" fill="#381510" d="M125.798,162.412c-0.279-0.121-0.713-0.181-0.793-0.381
			c-0.08-0.2,0.195-0.542,0.316-0.821c0.278,0.121,0.715,0.18,0.793,0.378C126.192,161.791,125.919,162.131,125.798,162.412z"/>
		<path fill-rule="evenodd" clip-rule="evenodd" fill="#081019" d="M163.608,234.71c3.646,0.692,4.688,3.339,3.049,6.021
			c-0.94,1.54-4.14,2.946-5.801,2.494c-2.223-0.606-4.652-2.835-2.129-5.973C161.351,238.318,163.212,237.922,163.608,234.71z"/>
		<path fill-rule="evenodd" clip-rule="evenodd" fill="#F3F2F1" d="M163.608,234.71c-0.396,3.212-2.258,3.608-4.881,2.542
			c0.277-1.621,0.555-3.241,0.831-4.862C160.909,233.163,162.259,233.937,163.608,234.71z"/>
		<path fill-rule="evenodd" clip-rule="evenodd" fill="#081019" d="M232.562,234.742c3.556,0.677,4.165,3.354,2.927,5.879
			c-0.727,1.481-3.313,3.087-4.872,2.914c-3.656-0.404-4.575-3.256-3.72-6.668C229.666,238.513,231.732,238.275,232.562,234.742z"/>
		<path fill-rule="evenodd" clip-rule="evenodd" fill="#E9E8E8" d="M232.562,234.742c-0.829,3.533-2.896,3.771-5.665,2.125
			c0.543-1.503,1.084-3.005,1.624-4.507C229.868,233.154,231.215,233.948,232.562,234.742z"/>
		<path fill-rule="evenodd" clip-rule="evenodd" fill="#F3F2F1" d="M171.774,310.611c-1.58-1.143-3.158-2.286-4.738-3.429
			c0.309-0.534,0.617-1.068,0.926-1.603c19.524,4.137,39.042,4.589,59.012,0.988c-1.06,1.135-2.119,2.269-3.179,3.403
			c-0.961,0.159-1.916,0.38-2.884,0.468c-9.33,0.844-18.654,2.19-27.995,2.319C185.88,312.856,178.821,311.385,171.774,310.611z"/>
		<path fill-rule="evenodd" clip-rule="evenodd" fill="#E9E8E8" d="M220.437,313.6c-15.265,8.053-30.556,8.163-45.875,0.155
			c0.854-0.265,1.711-0.774,2.558-0.758c11.954,0.226,23.906,0.543,35.859,0.785C215.462,313.833,217.95,313.666,220.437,313.6z"/>
		<path fill-rule="evenodd" clip-rule="evenodd" fill="#A1A0A0" d="M220.437,313.6c-2.486,0.066-4.975,0.233-7.458,0.183
			c-11.953-0.242-23.905-0.56-35.859-0.785c-0.847-0.017-1.704,0.493-2.558,0.758c-0.929-1.048-1.858-2.096-2.787-3.144
			c7.047,0.773,14.105,2.245,21.142,2.147c9.341-0.129,18.665-1.476,27.995-2.319c0.968-0.088,1.923-0.309,2.884-0.468
			C222.675,311.181,221.556,312.391,220.437,313.6z"/>
	</g>
</g>
</svg>
