<?xml version="1.0" encoding="utf-8"?>
<!-- Generator: Adobe Illustrator 16.0.0, SVG Export Plug-In . SVG Version: 6.00 Build 0)  -->
<!DOCTYPE svg PUBLIC "-//W3C//DTD SVG 1.1//EN" "http://www.w3.org/Graphics/SVG/1.1/DTD/svg11.dtd">
<svg version="1.1" id="Layer_1" xmlns="http://www.w3.org/2000/svg" xmlns:xlink="http://www.w3.org/1999/xlink" x="0px" y="0px"
	 width="398px" height="398px" viewBox="0 0 398 398" enable-background="new 0 0 398 398" xml:space="preserve">
<path d="M208.939,79c1.811-0.12,2.681,0.01,4.24,0.87c2.07,0.08,3.45,0.9,5.08,2.06c-1.75,0.09-3.5,0.03-5.24,0.26
	c9.75,2.82,18.26,8.21,24.58,16.18c0.57,1.99,2.48,2.21,0.961,4.32c2.479,4.43,5.789,11.11,3.779,16.17
	c0.43,2.25,0.79,4.69,0.11,6.93c-1.181,4.01-0.91,7.8-1.64,12.01c5.189,3.46,4.14,10.95,3.069,16.2
	c-0.86,5.73-4.069,9.94-7.659,14.26c-1.201,1.11-2.611,1.42-4.15,1.81c-0.961,5.39-1.791,11.57-4.7,16.31
	c-3.011,5.18-9.08,8.27-13.66,11.7c2.75,0.9,4.87,2.59,7.39,4.01c1.961,0.49,3.86,0.95,5.881,0.98c3.129,0.09,5.92,1.25,9.09,0.959
	c3.4,0.971,6.83,3.041,8.81,6.051c5.08,7.15,6.97,15.3,11.25,22.79c3.81,7.75,7.04,15.79,10.601,23.649
	c0.64,2.471,1.279,4.871,0.91,7.451c0.199,5.389-0.141,10.819-0.591,16.199c-0.29,4.32,0.46,8.561,0.33,12.88
	c-0.729,4.181,0.3,8.56,0.14,12.8c-0.439,0.83-1.24,1.41-2.399,1.74c3.81,6.2,6.851,14.01,5.54,21.391
	c0.609,5.39-1.221,11.72-6.301,14.39c-2.279,2.17-4.58,3.729-7.379,5.08c-2.94-0.86-3.91,1.46-7,0.25
	c-5.42,1.93-10.83,3.87-16.03,6.35c-3.181,1.53-6.24,0.57-8.9,3.05c-2.479,1.93-5.06,1.61-8,2.03c-4.1,1.601-8.54,3.591-13.05,3.41
	c-3.37,0.181-6.87-0.54-10.12-1.38c-4.39,0.64-9.6,1.47-13.93,0.061c-2.02-0.341-3.57-1.541-5.67-1.271
	c-2.87-1.58-6.05-0.841-8.96-2.21c-1.22-0.7-2.24-1.7-3.46-2.391c-2.52-0.649-4.97-0.82-7.31-2.05c-5.12-2.64-10.5-4.6-15.85-6.7
	c-2.29,1.311-2.94,1.24-5.3,0.16c-2.44,0.67-3.07,0.23-4.81-1.31c-3.22-0.64-3.49-3.54-6.29-4.761c-2.02-1.26-2.57-4.359-3.57-6.43
	c-3.75-9.34-1.92-19.97,3.8-28.07c-0.84-0.51-1.69-1.02-2.53-1.529c-0.24-4.57,0.85-9.09,0.61-13.631
	c1.29-11.85,0.21-22.51,1.83-34.59c4.41-10.109,8.74-20.319,13.99-30.02c2.7-6.33,5.5-13.68,9.94-19.04
	c2.46-2.409,6.16-4.61,9.69-4.39c4.09-0.94,8.49-1.59,12.68-2.04c2.69-1.32,4.94-3.09,7.86-3.89c-5.41-3.76-11.6-6.98-14.64-13.15
	c-2.2-4.54-3.02-9.88-3.87-14.83c-3.87-0.38-5.4-2.82-7.4-5.74c-3.68-4.44-4.86-9.73-5.42-15.33c-0.33-4.09,0.07-7.97,3.2-10.92
	c0.05-3.29-0.28-6.62-0.56-9.88c-1.56-4.45,0.3-9.88,0.97-14.25c-1.36-6.52,2.99-11.99,8.73-14.48c1.61-3.04,2.71-6.15,5.12-8.74
	c5.77-6.72,14.78-10.14,23.27-11.69C193.43,77.65,201.51,77.56,208.939,79z"/>
<path fill="#715043" d="M198.01,80.45c2.41,0.16,5.301-0.07,7.5,1.07l-3.369,0.69c-5.561-0.68-10.601,0.7-15.951,2.06
	c-2.2,0.72-4.28,1.05-5.74,2.99c-1.67,2.08-3.15,3.13-5.68,4.02c1.49-2.41,2.67-4.83,5.32-6.15c1.45-1.08,3.11-1.04,3.29-3.07
	C188.14,80.86,193.07,80.56,198.01,80.45z"/>
<path fill="#653522" d="M183.38,82.06c-0.18,2.03-1.84,1.99-3.29,3.07c-2.65,1.32-3.83,3.74-5.32,6.15
	c2.53-0.89,4.01-1.94,5.68-4.02c1.46-1.94,3.54-2.27,5.74-2.99c5.35-1.36,10.39-2.74,15.951-2.06c1.289,0.58,2.609,1,3.969,1.34
	c-1.689,0.48-4.289,0.79-5.379,2.32c4.039,0.49,7.869,0.52,11.76,1.89c2.55,0.82,5.01,2.27,7.57,2.97c0.739-0.7,1.39-1.5,2.06-2.27
	c3.72,1.89,7.08,4.52,9.909,7.57c2.32,6.33,8.361,11.91,8.301,19.96c-0.7,3.63,0.311,7.08-0.76,10.62
	c-0.53,1.81-0.471,3.61-0.521,5.47c-0.6-0.64-1.22-1.26-1.85-1.86c-0.54,1.43-1.011,2.87-1.271,4.38
	c-0.699,1.88,0.16,5.29-2.67,5.36c-0.39-3.41-0.1-6.65-1.39-9.94c-1.54-4.01-1.81-8.05-1.64-12.3c1,0.68,1.97,1.4,2.979,2.07
	c-1.649-6.54-7.38-9.03-13.39-10.44c-9.021-2.13-16.62,0.22-25.561,0.61c-1.38-0.54-3.29-0.83-4.3-1.97
	c4.63-0.44,8.73,0.16,13.149-1.71c-5-0.57-9.869-0.04-14.729-1.79l-0.45-0.59c2.34-3.65,7.05-6.25,10.93-8
	c1.8-0.93,5.25-0.68,6.121-2.65c-5.03,0.29-10.05,0.88-14.641,3.05c-4.31,1.96-7.32,5.4-11.56,7.55c-3.48,1.81-7.73,3.62-11.71,3.4
	c-1.05-0.67-1.28-2.23-1.99-3.23c-0.63-0.47-1.67-0.71-2.12-1.32c-0.31-2.6-0.07-4.89,1.46-7.07c2.69-0.48,4.56-4.45,6.29-6.42
	l-1.73-0.67C173.24,85.4,178.2,83.16,183.38,82.06z"/>
<path fill="#471704" d="M194.14,83.88c-2.52,1.92-5.21,3.35-7.29,5.82c7.16-1,14.06-1.34,21.08,0.8c-0.539,0.26-1.08,0.5-1.64,0.72
	c-6.28-0.32-12.15-0.96-18.4,0.55c-3.64,0.72-6.84,2.33-10.3,3.58l-0.21-0.93C183.43,90.46,186.44,85.09,194.14,83.88z"/>
<path fill="#6E4230" d="M206.109,83.55c5.721,0.56,10.951,2.21,16.011,4.91c-0.67,0.77-1.32,1.57-2.06,2.27
	c-2.561-0.7-5.021-2.15-7.57-2.97c-3.891-1.37-7.721-1.4-11.76-1.89C201.82,84.34,204.42,84.03,206.109,83.55z"/>
<path fill="#471704" d="M168.98,88.54c-1.95,2.21-3.26,4.46-4.56,7.09c-1.53,2.18-1.77,4.47-1.46,7.07
	c0.45,0.61,1.49,0.85,2.12,1.32c0.71,1,0.94,2.56,1.99,3.23c3.98,0.22,8.23-1.59,11.71-3.4c4.24-2.15,7.25-5.59,11.56-7.55
	c4.59-2.17,9.61-2.76,14.641-3.05c-0.871,1.97-4.32,1.72-6.121,2.65c-3.88,1.75-8.59,4.35-10.93,8l0.45,0.59
	c4.86,1.75,9.73,1.22,14.729,1.79c-4.419,1.87-8.52,1.27-13.149,1.71c1.01,1.14,2.92,1.43,4.3,1.97c-5.24,1.06-10.72,0.46-15.5-1.99
	c0.74-1.38,1.59-2.68,2.33-4.05c-3.76,2.76-7.43,5.15-12.16,5.83c-2.51,0.24-5.03-0.81-7.51-0.55c-1.1,3.27-2.71,6.22-0.49,9.44
	l-0.07,0.95l-1.49,0.19c-0.12-2.02-0.2-4.04-0.44-6.05c-2.11,1.64-2.72,5.06-3.94,7.39c0.11-1.64,0.41-3.25,0.71-4.87
	c0.68-2.29,1.67-4.46,2.49-6.7c-2.25,1.35-3.11,2.02-3.65,4.71c-0.8-0.46-1.61-0.92-2.42-1.39c0.55-1.75,1.42-3.43,2.13-5.13
	c1.56-1.72,2.93-3.58,4.31-5.45c0.48,0.07,0.96,0.13,1.45,0.18C161.57,96.73,163.58,91.68,168.98,88.54z"/>
<path fill="#7C5545" d="M168.98,88.54l1.73,0.67c-1.73,1.97-3.6,5.94-6.29,6.42C165.72,93,167.03,90.75,168.98,88.54z"/>
<path fill="#8A6759" d="M206.29,91.22c-1.979,0.99-4.05,0.42-6.29,0.51c-3.74-0.03-7.27,0.81-10.88,1.62
	c0.96,0.45,1.94,0.85,2.91,1.29c-7.11,1.83-13.16,7.22-20.26,8.51c2.79-2.51,6.09-4.46,9.09-6.71c-1.1-0.34-2.19-0.71-3.27-1.09
	c3.46-1.25,6.66-2.86,10.3-3.58C194.14,90.26,200.01,90.9,206.29,91.22z"/>
<path fill="#7C5444" d="M230.18,99.09c-4.09-1.53-7.97-3.49-12.17-4.78C222.25,93.29,227.46,95.86,230.18,99.09z"/>
<path fill="#805A4A" d="M212.33,99.94c3.93,1.33,8.311,2.64,11.71,5.03c-2.37-0.06-4.67-0.67-7.04-0.78
	c-2.52,0.05-4.96,0.83-7.5,0.89c1.6-1.42,3.42-2.02,5.3-2.98C213.98,101.38,213.15,100.66,212.33,99.94z"/>
<path fill="#4D1D0B" d="M196.75,101.12c4,0.51,8.09,1.27,12.04,2.09l0.37,0.78C204.71,104.32,200.33,104.08,196.75,101.12z"/>
<path fill="#5F3D30" d="M157.45,102.15l1.11,0.14c-1.38,1.87-2.75,3.73-4.31,5.45c-1.14,0.84-2.23,1.74-3.4,2.55
	C151.94,106.51,154.07,104.09,157.45,102.15z"/>
<path fill="#FFCC99" d="M177.24,108.54c5.6,3.5,13.2,4.83,19.75,5.07c3.439-0.4,7.93-0.27,10.8-2.42
	c-5.7,0.93-11.32,1.53-17.06,0.27c8.87,0.04,17.17-2.75,26.26-1.42c3.84,0.55,9.32,1.88,11.63,5.24c0.63,5.56,0.29,10.6,2.45,15.75
	c1,2.6,0.64,5.08,0.709,7.78c-2.199-1.71-4.77-1.13-7.069-2.05c-1.78-3.63-5.47-6.93-9.681-7.18c-3.809-0.29-7.909,0.44-11.379,2.09
	c-1.721,0.67-1.42,1.79-1.621,3.35c5.131-0.51,9.941-2.45,15.511-1.43c2.239,0.71,4.31,2.15,6.39,3.22
	c-6.72,0.51-13.949,0.18-20.76,1.52c-1.22,0.32-2.189,1.02-3.279,1.63c-0.951-0.37-1.911-0.66-2.881-0.88
	c-1.44-0.27-2.79-0.25-4.04,0.06c-0.87,0.29-1.74,0.58-2.6,0.89c-1.17-0.66-2.22-1.39-3.55-1.68c-6.93-1.42-13.96-1.02-20.79-1.52
	c2.09-1.08,4.16-2.58,6.43-3.25c5.56-1.01,10.27,0.98,15.45,1.41c-0.2-1.52,0.07-2.63-1.6-3.3c-3.45-1.65-7.53-2.39-11.34-2.11
	c-4.33,0.26-7.9,3.5-9.79,7.21c-2.67,0.9-5.12,0.33-7.29,2.56c0.02-2.99-0.55-5.82,0.81-8.56c1.68-3.59,1.84-7.31,2.16-11.2
	l0.07-0.95c-0.11-2.9,0.07-5.25,1.3-7.91C167.43,111.38,172.57,111.12,177.24,108.54z"/>
<path fill="#764D3D" d="M158.19,109.55c-0.82,2.24-1.81,4.41-2.49,6.7c-0.38-0.66-0.77-1.33-1.16-1.99
	C155.08,111.57,155.94,110.9,158.19,109.55z"/>
<path fill="#653522" d="M152.12,112.87c0.81,0.47,1.62,0.93,2.42,1.39c0.39,0.66,0.78,1.33,1.16,1.99c-0.3,1.62-0.6,3.23-0.71,4.87
	c1.22-2.33,1.83-5.75,3.94-7.39c0.24,2.01,0.32,4.03,0.44,6.05c0.11,3.88-0.41,7.13-1.88,10.7c-1.3,3.05-0.97,5.97-1.16,9.2
	l-1.65,0.25c-0.7-2.01-1.04-4.42-2.27-6.17c-0.31,1.22-0.65,2.43-1.01,3.63c-0.28-2.87,0.5-5.51-0.62-8.25
	C148.9,123.8,150.57,118.07,152.12,112.87z"/>
<path fill="#5A301E" d="M174.97,129.58c3.81-0.28,7.89,0.46,11.34,2.11c1.67,0.67,1.4,1.78,1.6,3.3c-5.18-0.43-9.89-2.42-15.45-1.41
	c-2.27,0.67-4.34,2.17-6.43,3.25l-0.85-0.04C167.07,133.08,170.64,129.84,174.97,129.58z"/>
<path fill="#5A301E" d="M215.029,129.58c4.211,0.25,7.9,3.55,9.681,7.18l-0.78,0.05c-2.08-1.07-4.15-2.51-6.39-3.22
	c-5.569-1.02-10.38,0.92-15.511,1.43c0.201-1.56-0.1-2.68,1.621-3.35C207.12,130.02,211.221,129.29,215.029,129.58z"/>
<path fill="#3D1505" d="M237.2,130.22c0.63,0.6,1.25,1.22,1.85,1.86c-0.11,2.14,0.08,4.04-1.36,5.8c-0.6-1.08-1.189-2.17-1.76-3.28
	C236.189,133.09,236.66,131.65,237.2,130.22z"/>
<path fill="#030302" d="M192.97,139.14c1.25-0.31,2.6-0.33,4.04-0.06C195.5,140.85,194.54,140.82,192.97,139.14z"/>
<path fill="#F0BF8F" d="M152.33,139.8l0.18,2.11l-2.52,0.1c0.24,4.88-0.86,9.13,1.28,13.79c0.98,1.92,1.56,5.48,3.51,6.52
	c0.73,0.13,1.47,0.23,2.21,0.3c0.38,1.71,0.63,3.43,0.74,5.16l-2.38-1.12c-2.58-3.42-5.3-6.49-6.43-10.62
	c-1.04-4.07-1.99-8.87-0.92-13.01C148.63,140.97,149.98,139.47,152.33,139.8z"/>
<path fill="#FFCC99" d="M163.84,139.81c5.09-0.04,10.18,0.05,15.27,0.02c2.92,0.84,6.58,0.23,9.01,2.1
	c0.19,1.14,0.38,2.28,0.56,3.41c-7.97,0.96-15.73,2.01-23.77,0.8l0.51,1.57c7.39,1.88,15.9,0.51,23.18-1.35
	c-0.09,1.97-0.21,3.94-0.38,5.9c-1.18,1.99-3.98,2.16-6.04,2.91c-6.56-0.34-13.67,0.9-19.95-1.16c-3.87-2.34-1.9-8.33-2.41-12.22
	C160.81,140.34,162.29,140.29,163.84,139.81z"/>
<path fill="#FFCC99" d="M210.891,139.83c5.42,0.04,10.84-0.08,16.25,0.01c1.029,0.4,2.02,0.86,2.979,1.37
	c0.22,3.33-0.021,6.7,0.06,10.04c-0.32,0.65-0.65,1.29-0.99,1.92c-1.85,1.26-3.92,1.52-6.049,1.99c-5.061,0.05-10.111,0-15.16,0.01
	c-2.26-0.75-4.73-0.91-6.141-2.98c-0.029-1.91-0.119-3.81-0.25-5.72c7.221,1.71,15.631,3.15,22.92,1.22l0.53-1.52
	c-7.89,1.05-15.55,0.32-23.36-0.86c0.08-1.07,0.15-2.14,0.23-3.22C204.23,140.02,207.971,140.72,210.891,139.83z"/>
<path fill="#F0BF8F" d="M236.891,139.99c2.439-0.55,3.75,0.09,4.779,2.32c1.42,3.91,0.48,8.97-0.46,12.93
	c-1,4.54-3.84,7.75-6.601,11.37l-2.219,1.14c0.199-1.67,0.42-3.34,0.68-5.01c0.689-0.17,1.39-0.34,2.09-0.52l0.72-0.25
	c3.24-5.78,5.19-11.82,3.649-18.5l-0.149-1.06l-1.13-0.12l-1.05,0.8C236.98,142.08,236.87,141.05,236.891,139.99z"/>
<path fill="#232323" d="M233.1,141.18c1.11-1.11,3.641-0.16,2.59,1.51C234.52,143.73,232.029,142.96,233.1,141.18z"/>
<path fill="#DE8E6A" d="M149.99,142.01l2.52-0.1c-0.18,3,0.77,5.63,2.82,7.82c0.66,3.93,0.38,8.03,1.63,11.98l-2.18,0.61
	c-1.95-1.04-2.53-4.6-3.51-6.52C149.13,151.14,150.23,146.89,149.99,142.01z"/>
<path fill="#FFCC99" d="M199.22,143.82c0.04,5-0.67,10.84,1.08,15.59c-0.01-1.65-0.069-3.31-0.19-4.96
	c2.361,2.88,5.561,2.86,8.92,3.38c6.011,0.18,12.261,0.44,18.191-0.69c2.079-0.38,3.619-1.53,4.859-3.25
	c-0.37,4.15-1.33,8.18-1.891,12.31c-0.779,5.66-1.6,11.72-3.799,17.03c-2,4.45-5.57,7.01-9.41,9.73c-4.83,3.19-9.4,6.26-14.99,8.011
	c-4.84,0.829-10.03,0.909-14.81-0.32c-6.99-2.601-13.4-7.041-19.19-11.69c-5.16-4.58-6.03-11.04-7.27-17.47
	c-0.73-6-1.96-11.9-2.73-17.89c1.18,1.89,2.58,3.06,4.8,3.52c5.92,1.12,12.18,0.81,18.18,0.73c3.14-0.47,6.61-0.53,8.85-3.11
	c2.05-3.15,0.35-8.08,1.53-11.3C193.44,142.63,197.56,142.09,199.22,143.82z"/>
<path fill="#DE8E6A" d="M237.2,143.09l1.05-0.8l1.13,0.12l0.149,1.06c-0.479,0.64-1.149,1.07-2.039,1.29L237.2,143.09z"/>
<path fill="#3A1304" d="M233.23,144.19c2.42-1.47,1.56,4.15-0.07,3.52C232.51,146.59,232.529,145.41,233.23,144.19z"/>
<path fill="#DF8F6B" d="M239.529,143.47c1.541,6.68-0.409,12.72-3.649,18.5l-0.72,0.25l-1.92-0.5c1.39-4.65,0.82-9.49,1.85-14.12
	l1.58,0.01c-0.22,2.84-0.57,5.64-0.561,8.49c2.451-1.58,3.66-4.48,2.17-7.15c-0.529-0.87-1.119-1.71-1.75-2.52l-0.17-1.08
	l1.131-0.59C238.38,144.54,239.05,144.11,239.529,143.47z"/>
<path fill="#DE8E6A" d="M236.529,146.43c0.631,0.81,1.221,1.65,1.75,2.52c1.49,2.67,0.281,5.57-2.17,7.15
	c-0.01-2.85,0.341-5.65,0.561-8.49L236.529,146.43z"/>
<path fill="#A25D46" d="M186.63,165.16c0.44,1.4-1.68,3.28,0.54,3.88c1.17-0.51,2.24-1.35,3.42-1.84c1.49,0.91,2.73,1.96,4.35,2.5
	c1.54-0.55,2.99-1.66,4.41-2.5c1.23,0.52,2.3,1.67,3.63,1.83c0.629-1.17,0.52-2.75-0.34-4.74c1.879,0.9,3.34,4.1,1.279,5.69
	c-1.609,0.74-2.76-0.12-4.32-0.43c-1.87,1.18-3.16,2.89-5.57,2.46c-1.34-0.51-2.48-1.62-3.63-2.46c-2.2,0.43-3.72,1.68-5.4-0.64
	C184.82,167.53,185.06,165.52,186.63,165.16z"/>
<path d="M178.97,177.4c1.53,1.74,3.42,1.72,5.54,2.22c6.4,1.24,12.88,1.36,19.301,0.22c2.619-0.56,5.049-0.55,7.06-2.54
	c0.89,0.72,1.5,1.22,1.479,2.45c-6.189,1.26-10.25,2.26-16.37,2.47c-6.39,0.26-12.52-1.3-18.71-2.37
	C177.31,178.23,177.67,178.13,178.97,177.4z"/>
<path fill="#DE8D6A" d="M188.92,185.3c4.02,0.24,7.97,0.1,11.98-0.05c-0.11,0.96-0.461,1.53-1.03,1.72
	c-3.53,0.09-7.15,0.15-10.67-0.06L188.92,185.3z"/>
<path fill="#001427" d="M182.2,201.57c-2.15,0.189-4.31,0.24-6.47,0.209C177.69,199.26,180.06,199.28,182.2,201.57z"/>
<path fill="#001426" d="M214.27,201.811c-2.16,0.049-4.31-0.08-6.459-0.281C210,199.48,212.46,199.04,214.27,201.811z"/>
<path fill="#001A33" d="M173.72,202.68c0.63,3.24,0.83,6.291,2.26,9.32c1.33,2.859,3.34,4.95,5.01,7.55
	c-3.72,1.05-7.29,4.011-10.94,4.56c-1.59-5.199-1.9-11.76-1.21-17.139C169.08,204.32,171.53,203.4,173.72,202.68z"/>
<path fill="#FFCC99" d="M184.38,202.05c3.12,1.63,7.17,1.8,10.63,1.91c3.39-0.14,7.6-0.13,10.551-1.91l0.14,2.19
	c1.31-0.01,2.63,0.06,3.95,0.199c0.74,3.141-2.061,6.17-4.49,7.73c-5.42,2.82-12.65,3.02-18.34,0.96c-3.3-1.069-7.34-4.94-6.61-8.69
	C182.39,203.779,184.93,205.471,184.38,202.05z"/>
<path fill="#001A33" d="M216.3,202.71c1.86,0.729,4.91,1.91,5.04,4.25c0.631,5.61-0.15,11.56-1.58,17.011
	c-3.68-0.73-7.1-2.83-10.609-4.181c1.779-2.58,3.789-4.649,5.029-7.61C215.54,209.08,215.74,205.99,216.3,202.71z"/>
<path fill="#001A33" d="M167.24,204.96c-0.25,6.84-0.15,14.399,1.96,20.99c4.14-0.37,7.73-4.03,11.87-4.71
	c2.15-0.36,4.19,1.06,5.77,2.35c-1.27,0.46-2.52,0.811-3.62,1.641c0.28,0.879,0.73,1.609,1.35,2.18c0.94-0.03,1.89-0.08,2.83-0.16
	c0.65,4.16,0.76,8.359,0.48,12.55c-1.2,0.171-2.4,0.38-3.59,0.63c-0.06,0.791-0.08,1.58-0.05,2.381c1.2,0.26,2.42,0.439,3.68,0.52
	c0.34,4.449,0.2,8.83-0.01,13.29c-1.22-0.33-2.39-0.58-3.66-0.46c-0.05,0.88-0.06,1.76-0.03,2.63c1.22,0.2,2.44,0.351,3.67,0.45
	c0.26,4.529-0.01,9.05-0.42,13.56c-2.18-1.17-4.44-1.39-3.34,1.89c1.05,0.23,2.11,0.431,3.18,0.61c-0.04,4.521-0.14,9.05-0.35,13.57
	c-1.32-0.66-2.21-1.271-3.75-0.74c-0.06,0.89-0.05,1.8,0.01,2.72c1.38,0.18,2.45-0.17,3.7-0.68c-0.33,5.85-0.73,11.74-1.3,17.57
	c-3.73,0.52-7.87-0.27-11.63-0.66c-4.23-0.561-8.83-1.41-12.59-3.51c-1.02-1.381-0.52-3.9-0.69-5.57c0.16-13.35-0.52-26.67-0.9-40
	c-0.67-8.05-1.51-16.1-2.47-24.12c-0.63-3.93-0.98-8.72-3.17-12.13c-0.72,7.24,1.04,14.141,1.17,21.29
	c-1.22,3.75-3.78,7.149-5.75,10.56c-1.81,3.121-3.97,5.9-6.2,8.721c-0.5,5.9-0.83,11.779-1.64,17.67
	c-0.75,4.76-0.43,9.43-1.57,14.09c-0.96,3.83-0.65,7.9-1.4,11.75c-0.43,1.199-2.7,1.09-3.75,1.25c-4.19,0.189-8.19-0.061-11.88-2.25
	c-0.6-2.26-0.59-4.54-0.13-6.83c0.75-3.65,0.32-7.29,0.75-10.99c0.71-6.68-0.04-13.33,0.56-20.02c0.43-4.391,0.14-8.36,2.25-12.391
	c3.91-8.17,7.07-16.539,11.59-24.399c3.13-6.65,5.13-13.25,9.69-19.33c1.77-2.261,4.33-3.5,7.12-3.979
	C159.04,206.109,163.13,205.33,167.24,204.96z"/>
<path fill="#FAFAFA" d="M177.02,204.029l1.07,0.541c-0.39,5.289,4.24,8.939,8.77,10.5c6.06,1.92,13.25,1.67,18.98-1.221
	c3.439-1.879,6.46-5.35,6.01-9.529c1.881-0.35,2.631,0.199,2.24,1.65c-0.55,7.319-5.51,13.189-11.859,16.539
	c-0.48,3.84-1.17,7.6-1.141,11.49c-0.21,16.93-0.17,34.08,0.91,50.96c0,3.03,0.07,6.03,0.189,9.06
	c-0.279,5.34,1.041,10.48,0.931,15.83c8.31,0.34,17.2-0.8,25.01-3.55c-0.25,2.341-2.93,3.33-4.86,3.95
	c-2.75,1.25-5.52,1.6-8.47,2.12c-10.84,1.43-21.91,1.489-32.8,0.7c-6.25-0.57-12.15-1.24-17.73-4.311
	c-0.65-0.55-1.17-1.18-1.56-1.89c7.66,2.25,16.19,3.34,24.3,3.159c0.96-5.309,0.99-10.479,1.07-15.85
	c0.71-7.039,0.94-14.1,0.91-21.18c0.7-16.45,1.55-34.13-0.55-50.439c-6.01-2.971-10.58-8.33-12.37-14.82l-0.09-0.73
	C175.68,205.46,176.03,204.471,177.02,204.029z"/>
<path fill="#001A33" d="M223.13,205.471c4.31,0.279,8.61,0.959,12.87,1.639c2.84,0.451,5.391,2.57,6.92,4.931
	c2.971,4.54,5.21,9.81,7.2,14.851c1.54,3.979,3.851,7.5,5.58,11.399c2.28,5.08,4.45,10.2,6.75,15.271
	c0.899,2.06,1.96,4.27,2.319,6.5c0.851,7.77-0.369,15.25-0.49,22.93c0.33,5.109,0.23,10.1,0.061,15.21
	c-2.189,1.56-2.57,1.68-2.16,4.39c0.881,0.25,1.78,0.49,2.68,0.7c0.41,3.38-4.529,3.63-6.84,3.899
	c-2.729-0.08-7.569,0.701-9.52-1.56c-0.7-3.319-0.18-6.601-0.4-9.89c-0.75-3.91-1.25-7.74-1.119-11.74
	c0.129-6.37-0.931-12.65-0.9-19.01c-0.109-1.59,0.25-2.92-1.01-4.141c-3.131-3.729-5.42-7.85-7.93-12
	c-1.23-2.24-2.561-4.14-2.351-6.83c0.229-6.68,1.53-13.379,1.3-20.14c-1.96,2.42-2.46,6.101-3,9.091
	c-1.09,7.939-1.619,16.039-2.15,24.029c-1.729,15.75-0.489,31.971-1.109,47.811c-7.23,4.049-16.59,4.779-24.74,5.029
	c-1.64-6.779-0.949-14.49-1.58-21.49c-0.65-7.109-0.55-14.22-0.67-21.35c-0.18-10.04-0.54-19.971-0.1-30
	c0.18-3.43-0.051-7.109,0.789-10.45c0.33-1.569,1.99-2.55,3.431-2.909c5.22-0.181,8.819,3.279,13.55,4.139
	C222.7,219.12,222.87,212.391,223.13,205.471z"/>
<path fill="#272930" d="M186.84,223.59c0.22,1.21,0.4,2.439,0.56,3.66c-0.94,0.08-1.89,0.13-2.83,0.16
	c-0.62-0.57-1.07-1.301-1.35-2.18C184.32,224.4,185.57,224.05,186.84,223.59z"/>
<path fill="#2B2C33" d="M168.98,237.73c2.26,0.22,2.23,1.08,1.78,3.039c-1.84,1.291-2.94,0.23-3.53-1.549
	C167.75,238.67,168.34,238.17,168.98,237.73z"/>
<path fill="#262930" d="M221.9,237.891c1.949,0.08,0.99,3.069-0.16,3.799c-0.811-0.239-1.6-0.58-2.381-1.01
	C218.93,238.391,219.42,237.48,221.9,237.891z"/>
<path fill="#252930" d="M184.29,240.43c1.19-0.25,2.39-0.459,3.59-0.63c0,1.181,0.01,2.351,0.04,3.53
	c-1.26-0.08-2.48-0.26-3.68-0.52C184.21,242.01,184.23,241.221,184.29,240.43z"/>
<path fill="#FFFFFF" d="M156.1,248.15c0.17,3.68,1.16,7.16,0.94,10.879c0.64,14.681,1.17,29.33,0.96,44.021
	c-0.19,1.05,0.37,1.921,1.65,2.58c-6.6,1.99-13,5.61-19.55,7.95c-1.05-1.37-1.93-2.85-2.9-4.28c1.48-0.739,4.82-1.069,4.56-3.29
	c-0.02-7.49,2.39-14.58,2.23-22.05c0.86-6.56,1.64-13.21,2.04-19.819C149.46,258.85,152.92,253.6,156.1,248.15z"/>
<path fill="#FFFFFF" d="M234.061,249.02c2.83,4.83,5.81,9.551,8.84,14.26c0.939,2,0.229,4.541,0.6,6.721
	c0.74,6.98,0.62,14,1.04,20.98c0.97,5.549,0.569,11.229,1.51,16.76c1.511,0.289,2.681,1.16,4.19,1.5c-0.78,1.4-1.551,2.82-2.44,4.17
	c-5.989-2.221-11.659-5.5-17.63-7.76c0.99-0.57,1.91-1.26,2.75-2.07c-0.47-14.221-0.26-28.34,0.13-42.551
	C233.63,257.029,233.9,253.05,234.061,249.02z"/>
<path fill="#272A31" d="M184.25,256.16c1.27-0.12,2.44,0.13,3.66,0.46l-0.02,2.62c-1.23-0.1-2.45-0.25-3.67-0.45
	C184.19,257.92,184.2,257.04,184.25,256.16z"/>
<path fill="#2A2B32" d="M187.47,272.8l-0.16,2.5c-1.07-0.18-2.13-0.38-3.18-0.61C183.03,271.41,185.29,271.63,187.47,272.8z"/>
<path fill="#292B31" d="M183.21,288.13c1.54-0.53,2.43,0.08,3.75,0.74l-0.04,1.3c-1.25,0.51-2.32,0.859-3.7,0.68
	C183.16,289.93,183.15,289.02,183.21,288.13z"/>
<path fill="#23252C" d="M264.34,298.2c0.42,1.71,0.65,3.319,0.52,5.09c-0.899-0.21-1.799-0.45-2.68-0.7
	C261.77,299.88,262.15,299.76,264.34,298.2z"/>
<path fill="#2A2B32" d="M182.27,304.25c1.53-1.85,3.48,0.641,2.62,2.529C182.81,307.779,180.55,306.01,182.27,304.25z"/>
<path fill="#FFCC99" d="M124.35,307.939c3.23,1.41,7.14,1.16,10.62,1.201c1.91,3.049,3.89,6.01,5.88,9.01
	c2.75,3.459,0.33,7.92,0.24,11.879c-0.4,2.23,1.09,3.971,1.11,6.031c-2.21,1.18-4.12-2.311-4.32-4.07c-0.83-1.95,2.75-5.1,0.08-5.94
	c-3.02,3.44-2.4,9.771-1.92,14c0.13,2.21,1.71,4.591,0.72,6.69c-0.99,0.1-1.83-0.211-2.51-0.93c-0.75-2.33-1.41-4.681-2.16-7
	c-0.95-3.36,0.07-7.431-0.15-10.521c-0.42,0.351-0.83,0.729-1.21,1.13c-0.57,3.88-0.91,7.63,0.57,11.359
	c0.26,1.551,1.77,4.061,1.22,5.381c-2.61,0.779-3.52-3.65-4.4-5.35c-2.1-4.471-0.88-8.531-0.61-13.181l-1.29-0.271
	c-0.21,2.561-0.39,5.111-0.68,7.66c-0.11,3.201,1.41,6.67,2.74,9.521c-2.7-1.79-3.89-5.851-5.08-8.75
	c-0.58-3.681-0.19-7.64-0.58-11.39l-1.33-0.041c-0.15,4.511,0.66,9.271,0.47,13.66c-1.06-3.02-2.42-5.76-2.75-8.99
	C117.64,322.21,120.09,313.38,124.35,307.939z"/>
<path fill="#171E2D" d="M160.76,308.04c0.89,2.81,1.05,5.489,2.82,7.96c0.3-1.5,0.52-3.02,0.8-4.529
	c15.42,4.649,32.82,4.559,48.71,2.909c4.18-0.319,8.12-1.76,12.24-2.271c0.35,0.971,0.699,1.931,1.061,2.9
	c1.899-0.55,1.729-5.21,3.649-6.31c5.19,1.979,10.899,4.521,15.739,7.239c-1.119,2.621-1.93,5.041-2.559,7.82
	c-7.221,3.141-13.761,6.9-21.41,8.95c-1.75,0.479-3.891-0.44-5.561-0.96c-4.57-1.67-9.48-3.641-13.311-6.689
	c-1.58-1.131-1.739-2.801-2.56-4.471c-3.29-0.23-6.98-0.13-10.26,0.311c-1.43,0.77-1.56,3.18-3.06,4.16
	c-5.15,3.92-11.81,6.31-18.08,7.719c-5.57-1.409-11.02-3.909-16.04-6.709c-2.55-1.551-5.33-2.03-8.13-2.881
	c-1-2.33-1.82-4.77-2.63-7.17c2.74-1.67,5.9-2.709,8.82-4.02C154.22,310.68,157.4,308.939,160.76,308.04z"/>
<path fill="#FFCC99" d="M252.34,309.391c3.95,0.699,7.62-0.75,11.391-0.42c3.779,6.129,6.5,13.77,4.899,21.02
	c-0.319,3.77-2.47,6.869-2.92,10.57c-0.09-1.701-0.479-3.08-2.181-1.82c-0.359,2.279-1.899,4.529-3.439,6.23
	c0.96-3.391,2.82-6.811,2.24-10.451c-0.4-2.24-0.359-4.539-0.801-6.77l-1.219-0.1c0.09,4.699,1.83,8.689-0.291,13.35
	c-0.68,1.641-1.92,6.83-4.49,5.29c0.511-2.86,1.511-5.61,2.15-8.44c0.2-2.979-0.209-5.869-0.82-8.77l-1.049-0.16
	c0.1,3.41,1.029,7.561,0,10.87c-0.761,2.351-1.121,4.69-2.101,6.979c-0.931,0.451-1.76,0.49-2.47,0.141l-0.15-1.01
	c1.23-5.82,2.27-13.11-0.54-18.621l-1.78-0.449c-0.1,1.93,1.08,3.26,1.381,5.09c-0.43,2.41-1.45,5.4-4.471,5.16
	c0.23-2.7,1.641-4.48,0.971-7.09c-0.541-2.62-0.86-5.29-1.371-7.92C246.7,317.48,250.21,313.71,252.34,309.391z"/>
<path fill="#FFFFFF" d="M192.37,322.95c1.74-0.101,3.54-0.12,5.29-0.05c3.97,7.029,13.55,9.779,20.54,12.649
	c-1.431,0.511-2.87,0.97-4.33,1.341c-2.86-1.541-5.78-2.781-8.87-3.781c-3.6-0.539-7.55,1.871-11.13,2.32
	c-2.84-0.709-5.93-2.359-8.87-2.229c-3.23,0.84-6.22,2.1-9.2,3.579c-1.47-0.26-2.94-0.67-4.39-1.219
	C178.86,332.27,187.76,330.49,192.37,322.95z"/>
<path fill="#110000" d="M265.05,324.221l1.29,0.389c-0.01,4.65,0.21,9.391-0.55,13.98c-0.39-0.84-0.7-1.689-0.931-2.57
	C265.09,332.09,264.95,328.16,265.05,324.221z"/>
<path fill="#161C2A" d="M143.39,326.24c3.52-0.84,6.05,0.74,8.96,2.41c3.73,2.26,7.78,3.609,11.81,5.18
	c3.28,1.279,5.8,3.66,9.14,4.811c2.68,1.06,6.08,2.109,7.99,4.359c0.34,5.141-1.36,11.51-5.49,14.891
	c-3.67,0.319-8.59-0.82-11.75-2.94c-3.17-1.86-7-1.979-10.28-3.72c-4.54-2.34-9.44-3.791-14.04-5.971
	c-1.68-1.779-1.83-5.76-2.3-8.17c2.09,0.131,5.07,1.98,6.46-0.311C143.62,333.18,142.63,329.9,143.39,326.24z"/>
<path fill="#161D2B" d="M243.98,327.02c1.72,3.851,0,6.94,0.199,10.78c1.891,1.62,4.26,0.171,6.4-0.021
	c-0.38,2.861-0.6,6.131-1.93,8.721c-7.26,2.43-14,6.189-21.51,7.75c-2.861,0.811-4.711,3.46-7.871,2.82
	c-0.119-3.381,0.49-7.471-0.699-10.67c-1.09-2.471-3.891-4.351-5.641-6.391c2.58-1.119,5.23-1.89,7.631-3.41
	c4.989-3.279,10.869-3.949,16.049-6.979C238.721,328.609,241.57,326.46,243.98,327.02z"/>
<path fill="#35271F" d="M203.109,335.17c1.541-0.54,3.101,1.061,4.261,1.87c-3.13,0.25-6.31,0.399-9.46,0.479
	C199.19,335.721,201.12,335.74,203.109,335.17z"/>
<path fill="#453328" d="M188.02,335.95c1.45,0.579,3.54,0.51,3.71,2.46c-2.96-0.65-5.86-0.98-8.87-1.25
	C183.6,335.16,186.36,335.391,188.02,335.95z"/>
<path fill="#D19E6B" d="M122.01,337.7h0.98l0.01,1.12l-1-0.01L122.01,337.7z"/>
<path fill="#413B37" d="M181.77,338.71c3.68-0.34,7.04-0.91,10.48,0.819c2.49,1.391,4.82,1.041,7.55,0.83
	c2.24,0.201,4.56,0.311,6.75,0.841c0.7,1.94,1.36,3.899,0.62,5.93c-1.42,4.66-2.42,9.42-4.05,14.021
	c-2.17-0.03-4.36-0.271-6.48-0.73c-0.59-0.83-1.11-1.73-1.54-2.699c-0.57-0.33-1.15-0.641-1.75-0.921
	c0.81,0.79,1.62,1.591,2.43,2.38l-0.64,0.791c-3.5-0.66-6.92-1.66-10.45-2.191c0.75-0.52,1.51-1.049,2.26-1.579
	c-1.67,0.1-3.31,0.25-4.98,0.2c-1.96-2.24,0.41-6.94,1.74-9c1.44,0.529,2.85,1.109,4.35,1.47c-1.47-1.32-4.04-1.62-4.12-3.87
	C183.82,342.18,183.44,340.96,181.77,338.71z"/>
<path fill="#634D3F" d="M199.8,340.359c2.94-0.119,5.79-0.949,8.44,0.371c3.3,1.35,7.33,3.93,8.539,7.459
	c0.611,3.431,0.57,8.16-2.649,10.371c1.03-3.67,1.851-7.461,0.46-11.16c-1.96-2.92-4.79-4.92-8.04-6.2
	C204.359,340.67,202.04,340.561,199.8,340.359z"/>
<path fill="#332C27" d="M206.55,341.2c3.25,1.28,6.08,3.28,8.04,6.2c1.391,3.699,0.57,7.49-0.46,11.16
	c-3.3,1.479-7.42,2.16-11.01,2.59c1.63-4.601,2.63-9.36,4.05-14.021C207.91,345.1,207.25,343.141,206.55,341.2z"/>
</svg>
