<?xml version="1.0" encoding="utf-8"?>
<!-- Generator: Adobe Illustrator 16.0.0, SVG Export Plug-In . SVG Version: 6.00 Build 0)  -->
<!DOCTYPE svg PUBLIC "-//W3C//DTD SVG 1.1//EN" "http://www.w3.org/Graphics/SVG/1.1/DTD/svg11.dtd">
<svg version="1.1" id="Layer_1" xmlns="http://www.w3.org/2000/svg" xmlns:xlink="http://www.w3.org/1999/xlink" x="0px" y="0px"
	 width="398px" height="398px" viewBox="0 0 398 398" enable-background="new 0 0 398 398" xml:space="preserve">
<path d="M107.95,120.16c1.21,0.73,4.5,1.3,4.37,2.98c-1.73,0.19-3.49-0.1-5.23-0.07l0.06,0.71c8.27,3.12,15.87,8.76,21.89,15.2
	c3.72,4.36,7.18,8.66,9.2,14.09c-0.34,0.64-0.67,1.29-1,1.93c2.19,5.9,4.31,12.65,3.67,18.99c-0.67,1.29-1.35,2.49-1.46,3.99
	c0.21,4.04-0.48,8.4-2.37,12.03c-0.88,4.8-1.99,9.15-2.78,13.07c3.01,2.08,3.81,5.46,3.96,8.92c0.13,5.62-1.86,11.2-3.8,16.42
	c-2.27,5.62-6.32,9.4-10.42,13.65c-1.77,1.72-4.12,2.8-6.63,2.479l-0.44,0.44c-3.04,9.59-5.26,18.869-13.48,25.48
	c-6.55,4.439-13.83,8.069-21.17,10.959c-0.31,0.76-0.11,1.33,0.6,1.7c2.32,1.62,4.19,3.92,6.58,5.39
	c6.05,2.311,12.19,4.57,18.23,6.75c5.33,2.801,8.53,7.221,12.03,11.94c4.2,5.271,6.91,11.61,11.09,16.851
	c2.21,2.859,4.41,5.76,6.35,8.799l0.59,0.011c3.85-9.99,9.47-18.63,13.63-28.47c1.11-2.141,1.39-2.09,3.78-2.131l-0.32-1.14
	c-2.98-4.38-5.44-8.729-5.87-14.14c-0.25-4.2-4.03-7.43-6.86-10.131c-1.95-2.709,0.8-6.08,3.86-5.709c4.1,0.66,7.83,3.359,9.72,7.07
	c0.68,0.989,1.94,2.959,3.29,2.77c2.13-4.08,2.68-9.48,3.19-13.98c0.62-4.18-0.23-8.9,0.87-12.97c1.6-3.569,7.53-3.271,8.23,0.92
	c1.08,6.12,0.37,12.649,0.02,18.83l0.86-0.47c3.2-5.28,5.03-11.521,8.43-16.68c2.58-3.471,8.35-0.761,7.6,3.369
	c-1.21,5.9-5.93,11.881-6.87,17.641c3.26-3.74,7.41-6.83,11.01-10.271c3.05-2.44,7.65,1.08,6.49,4.58
	c-2.88,4.71-8.08,8.67-11.62,12.81c2.47-0.77,4.88-2.14,7.32-3.09c2.04-0.779,4.15-2.5,6.431-1.59c2.479,1.221,3.25,4.02,1.33,6.189
	c-4.181,3.781-10.641,5.58-14.601,9.541c-2.78,5.959-5.41,11.279-11.58,14.39c0.13,1.66,3.14,2.729,2.97,4.819
	c-2.39,5.621-5.4,11.091-7.16,16.941c-1.98,5.539-4.99,10.51-7.14,15.959c-3.06,7.09-6.04,14.32-9.66,21.12
	c-1.88,4.14-4.04,7.79-8.09,10.14c-6.2,3.681-14.7,2.74-19.7-2.539c-6.77-7.791-14.16-15.45-20.5-23.59
	c-3.32-4.42-6.68-8.75-10.09-13.101l-0.75-0.14c-1.12,1.09-0.87,2.4-1.5,3.72c-3.78,11.101-7.31,22.51-11.79,33.351
	C79.73,384.359,75.6,391.02,71.69,398h-4.08c3.3-6.391,7.35-12.42,10.29-19.04c4.98-11.34,8.76-23.51,12.74-35.22
	c0.41-0.961,0.49-1.86,0.24-2.7c-2.1,0.11-3.54,2.92-3.39,4.899c-0.84,2.541-1.21,5.131-2.08,7.681c-0.26-3.2,1.41-6.53,2-9.63
	c-0.61-2.141-2.48-1.45-3.88-0.58c-2.23-1.391-4.97-0.62-7.55-0.811c-3.42,0.021-6.32-3.76-9.38-4.18
	c-0.74-1.689-1.82-2.48-3.57-1.4c-0.44,3.03-1.66,5.51-1.49,8.631c-0.39-2.09-0.37-4.75,0.73-6.68c0.57-3.49-0.6-6.91,0.9-9.99
	c0.75-1.84-1.67-2.86-3.1-2.771c-0.2,0.46-0.4,0.92-0.6,1.39c-0.33-2.24-5.47-4.56-5.94-1.01c-2.58,10.43-5.09,21.16-8.71,31.36
	c-3.99,11.95-9.99,22.649-16.48,33.38c-1.34,2.21-2.85,4.279-3.89,6.67h-2.67c8.16-12.75,16.51-26.57,21.25-40.99
	c3.9-11,6.24-21.8,9.1-33.02c1.4-5.051,2.82-10.061,5.06-14.84c2.48-1.42,5.41-1.42,7.78-3.271c6.93-3.899,11.31-8.989,13.7-16.62
	c-0.39-0.65-2.94-1.939-3.58-1.529c-0.49,3.67-2.58,6.609-5.71,8.539c-5.47,3.44-12.16,3.76-18.38,2.641
	c-6.8-1.16-13.93-4.08-18.27-9.67c-2.56-3.33-3.93-7.82-2.15-11.84c-1.13-0.24-2.22-0.28-3.29-0.121
	c-1.39,7.711,1.37,14.611,5.39,21.031c1.24,2.6,3.85,4.16,5.98,6.039c0.48,2.98-0.77,6.561-0.85,9.65
	c-3.01,14.96-5.94,29.46-12.35,43.45c-5.58,12.78-14.47,23.12-23.09,33.94c-0.79,0.779-1.22,2.379-2.37,2.59v-3.891
	c2.42-0.98,4.13-4.26,5.81-6.23c8.52-10.289,15.98-20.979,20.49-33.68c3.58-8.869,5.47-17.9,7.68-27.17
	c0.31-1.07,0.28-2.029-0.08-2.88c-1.43-0.649-3.35-2.12-4.85-0.97c-0.98,3.98-1.84,7.24-1.69,11.439c-1.3,1.381-1.68,2.19-1.95,4.08
	c-0.31-3.59,1.83-7.13,2-10.699c-0.13-1.541,1.01-2.521,0.99-4c-0.43-1.19-1.23-1.951-2.4-2.271c-1.86,0.72-1.98,5.04-2.54,6.8
	c-0.86,1-1.57,1.79-1.96,3.08c-0.68-2.609-1.99-2.27-4.01-1.189c-3.71,0.379-7.68,0.16-11.44,0.16c-2.1-0.66-4.08-1.99-6.05-3V321
	c1.47,1.279,3.35,2.1,5.13,2.84c2.54-1.029,3.98,2.381,6.85,1.439c3.56-2.01,7.37,0.441,10.91-2.389c0.34-1.57,0.73-3.16,0.91-4.761
	c-1.88-1.18-3.55-1.46-5.74-1.5c-1.72-0.729-3.13-0.94-5-1c-1.73-0.75-3.12-0.95-5-0.989C5.44,313.38,2.81,313.79,0,313.58v-1.62
	c2.31,1.319,4.34,1.37,6.94,1.41c1.7,0.79,3.13,0.95,5,1c1.73,0.771,3.11,0.97,5,1c1.73,0.75,3.11,0.96,5,1
	c2.04,0.92,4.92,1.46,7.03,0.61c0.4-3.051,1.73-5.5,1.49-8.61c0.35,0.31,0.69,0.64,1.03,0.97c-0.57,2.36-2.61,6.41-1.47,8.6
	c1.41,0.311,2.7,0.69,4.01,1.281l0.71-0.4c1.04-4.271,1.74-9.15,1.92-13.5c-1.61-1.41-3.24-2.791-4.85-4.2
	c-6.63-1.81-13.53,2.649-19.4,2.479c-0.61-2.43-0.33-5.119-0.24-7.6c0.82-7.2,1.51-14.1,4.53-20.779
	C11,273.49,5.77,274.189,0,273.71V270c7.21-0.221,13.88,1.59,21.04,1.05c3.73-0.97,6.97-2.1,10.88-2.13l-0.14-0.65
	c-4.36-3.72-8.7-7.81-11.05-13.119c-3.26-6.871-2.96-15.65-3.77-23c-2.88-0.53-5.1-2.021-6.51-4.601
	c-1.99-3.79-4.57-7.489-5.63-11.55c-1.23-3.76-1.27-8.05-1.56-12c0.05-6.16,0.82-12.65,6.31-16.4c0.42-5.16,1.33-10.47,0.59-15.6
	c0.24-5.43,1.77-10.93,3.88-15.94c0.08-1.92-0.18-4.18,0.57-5.96c1.38-6.59,7.97-11.67,14.24-13.21
	c4.1-9.09,11.98-15.36,21.21-18.75C68.48,111.57,89.95,113.34,107.95,120.16z"/>
<path fill="#643522" d="M63.68,118.23c1.08,0.88,2.91,0.69,4.23,0.97l-0.01,0.7c-4.05,0.77-7.88,2.12-11.33,4.42
	c0.12,0.55,0.25,1.1,0.4,1.64c-2.09,1.06-4.12,1.79-5.65,3.69l1.14-0.26c2.53-2.12,5.8-3.39,8.76-4.82
	c-0.51-0.42-0.93-0.95-1.26-1.56c2.7-0.73,5.32-1.72,8.03-2.35c1.76-0.2,3.41-0.01,5.02-0.86c6.31-0.42,12.71-0.47,19.01,0.28
	l1.12-0.68c0.77,0.14,3.82,0.51,3.65,1.34c-0.92,0.6-5.05-0.57-4.52,1.1c1.79,1.37,4.58,1.25,6.63,2.41
	c11.91,3.34,23.78,10.64,30.79,21c-0.18,0.58-0.35,1.17-0.52,1.76c3.52,5.47,6.06,11.68,7.62,18c0.53,3.08,1.38,6.97-0.09,9.88
	c-1.35,3.23-0.07,6.81-1.38,10.17c-1.37,3.45-2.35,6.42-2.62,10.18c-0.47-1-0.79-2.05-0.99-3.16c-1.02-0.22-1.85,1.53-2.39,2.21
	c-1.4,2.57-2.3,5.649-3.92,8.09c-0.56,0.88-1.16,0.761-1.82-0.36c0.64-3.899,0.99-7.75-0.06-11.62c-1.53-6.04-0.81-12.02-0.03-18.09
	c1.16,0.86,1.64,3.99,3.28,3.66c-0.29-3.92-3.47-7.88-6.46-10.26c-7.55-5.49-16.16-7.24-25.28-8.06c-5.95-0.67-12.04,0.14-18.01-0.6
	c-2.73-0.75-5.43-1.85-7.89-3.27l-0.09-0.63c1.97-0.14,3.97,0.8,5.96,0.96c4.91,0.47,10.02,0.56,14.89-0.38v-0.53
	c-7.5-0.44-14.69-1.17-21.51-4.64c-0.13-0.74,0.07-1.25,0.61-1.53c7.31-5.46,15.5-9.31,24.76-9.22v-0.61
	c-5.28-1.28-11.27-0.43-16.68-0.31c-2.18,1.02-4.56,1.34-6.71,2.49c-4,1.57-7.27,4.34-11.29,5.87c-5.77,2.42-12.78,4.69-19.08,3.82
	c-2.83-0.52-1.55-2.7-1.46-4.67c-1.04-2.11-2.57-0.82-4.28-0.65c0.27-5.87,3.07-9.97,6.48-14.46l-1.81-0.47
	C45.23,122.81,55.15,119.17,63.68,118.23z"/>
<path fill="#D18A6A" d="M63.68,118.23c2.59-0.14,4.86,0.6,7.29-0.55c4.05-0.17,8.04-0.25,12.02,0.55c3.58-0.24,6.65,1.1,10.15,1.17
	l-1.12,0.68c-6.3-0.75-12.7-0.7-19.01-0.28c-1.61,0.85-3.26,0.66-5.02,0.86c-2.71,0.63-5.33,1.62-8.03,2.35
	c0.33,0.61,0.75,1.14,1.26,1.56c-2.96,1.43-6.23,2.7-8.76,4.82l-1.14,0.26c1.53-1.9,3.56-2.63,5.65-3.69
	c-0.15-0.54-0.28-1.09-0.4-1.64c3.45-2.3,7.28-3.65,11.33-4.42l0.01-0.7C66.59,118.92,64.76,119.11,63.68,118.23z"/>
<path fill="#2D8BB5" d="M252.02,119.3l0.931,0.62c1.239,3.81,1.05,8.15,2.09,12.02c3.05-0.34,6.33-1.17,8.2,1.97
	c1.24,3.08,1.67,6.75,1.38,10.04c-0.22,1.34-0.7,2.44-2.271,1.71c-1.439-2.77-0.119-6.36-1.77-9.28c-0.7-2.08-3.74-2.26-4.75-0.39
	c-1.109,2.72,0.97,6.29,0.1,9.06c-1.459,1.39-2.729-0.65-2.76-2.04c-1.08-5.61-1.5-11.35-2.26-17
	C250.95,124.19,249.51,119.81,252.02,119.3z"/>
<path fill="#471704" d="M81.66,122.38c-4.16,1.08-9.38,3.14-12.4,6.34c1.52,0.32,3.19,0.07,4.74,0.04
	c8.98-0.36,18.31,1.59,26.2,5.95c0.72,0.53,2.4,1.08,2.54,2.06c-3.35-0.76-6.1-3.11-9.73-3.33c-10.05-1.74-20.02-2.75-30-0.16
	c-2.68,0.28-5.29,1.34-7.85,2.12l-0.9-1.13c2.88-2.22,6.37-2.35,8.94-5.05C67.91,125.15,75.35,121.35,81.66,122.38z"/>
<path fill="#471704" d="M38.92,128.82l1.81,0.47c-3.41,4.49-6.21,8.59-6.48,14.46c1.71-0.17,3.24-1.46,4.28,0.65
	c-0.09,1.97-1.37,4.15,1.46,4.67c6.3,0.87,13.31-1.4,19.08-3.82c4.02-1.53,7.29-4.3,11.29-5.87c2.15-1.15,4.53-1.47,6.71-2.49
	c5.41-0.12,11.4-0.97,16.68,0.31v0.61c-9.26-0.09-17.45,3.76-24.76,9.22c-0.54,0.28-0.74,0.79-0.61,1.53
	c6.82,3.47,14.01,4.2,21.51,4.64v0.53c-4.87,0.94-9.98,0.85-14.89,0.38c-1.99-0.16-3.99-1.1-5.96-0.96l0.09,0.63
	c2.46,1.42,5.16,2.52,7.89,3.27c5.97,0.74,12.06-0.07,18.01,0.6c-7.33,0.05-14.71,0.24-22.02-0.34c-6.18,0.01-12.73-1.86-17.71-5.57
	c0.04-1.74,4.13-2.7,3.65-4.73c-3.82,2.29-7.46,4.34-11.95,5.06c-5.2,1.55-11.16,0.15-15.68-2.65c0.08,0.78,0.17,1.55,0.29,2.33
	c-1.52,2.36-2.89,4.44-3.22,7.33c-0.06-0.98-0.26-1.9-0.61-2.76c-3.43,1.32-4.1,7.61-6.52,9.43c0.62-5.85,4.33-10.81,6.61-15.57
	c-1.41,0.07-2.17,0.76-3.62,0.15c-1.53,1.83-1.97,4.01-2.87,6.1l-1.11,0.3c0.06-2.01,0.95-3.81,0.7-5.87c0.54-1.3,2-2.65-0.1-3.41
	l1.13-1.03c0.49,0.32,0.97,0.65,1.44,1.01c-0.08-2.02,2.35-3.17,3.49-4.7c1.15-0.13,1.79-0.79,1.9-1.97
	c0.72,0.52,1.44,1.03,2.17,1.54l0.54-0.52C32.24,137.07,35.14,131.76,38.92,128.82z"/>
<path fill="#2D8BB5" d="M271.029,131.13c3.691-1.27,8.621,0.5,8.531,4.94c-1.94,2.18-5.931,2.87-8.721,3.14l-0.58,0.74
	c1.11,1.92,4.24,2.4,6.061,1.41c1.34-0.58,2.33-2.43,3.869-1.5c0.461,0.84,0.24,1.74-0.649,2.71c-2.34,2.44-6.601,3-9.5,1.36
	C265.42,141.32,266.09,132.94,271.029,131.13z"/>
<path fill="#D18A6A" d="M93.01,133.44c-2.62,0.38-5.29-0.14-7.95-0.1c-3.29-0.89-7.26-1.15-10.51,0.07c-2.58,0.17-4.93,0.9-7.33,1.8
	l-0.06,0.81c2.92,1.43,6.11-1.62,9.59-0.57c-8.69,1.35-15.29,4.96-23.72,7.39c-2.25,0.56-5.05,1.98-7.31,1.68
	c4.44-1.91,5.55-1.92,9.82-4.85c1.27-1.03,5-1.73,4.55-3.78c-2.01-1.67-5.55,1.77-7.38,0.51c0.78-0.1,1.6-0.43,2.45-1
	c2.56-0.78,5.17-1.84,7.85-2.12C72.99,130.69,82.96,131.7,93.01,133.44z"/>
<path fill="#2D8BB5" d="M284.93,131.97c1.17,2.84-0.64,7.96,2.03,10.08c1.08,1.45,3.55,0.49,3.97-1.07c0.9-2.8-0.209-5.98,0.34-8.72
	c1.541-0.77,2.44,0.31,2.74,1.74c0.801,6.19,0.44,13.14-2.23,18.88c-1.689,3.26-5.129,5.02-8.739,3.87
	c-1.511-0.25-3.53-2.68-1.12-3.3c2.77,0.06,5.01,1.04,6.93-1.57c0.851-1.38,2.461-4.7,1.471-6.04c-2.17-0.13-3.99,0.18-5.561-1.61
	c-2.27-2.49-2.32-7.05-2.43-10.25C282.061,132.47,283.49,130.39,284.93,131.97z"/>
<path fill="#FFFFFF" d="M273.93,133.49c1.2,0.17,2.87,0.49,1.641,2.02c-1.73,0.43-3.471,0.87-5.23,1.16
	C269.811,134.91,272.29,133.08,273.93,133.49z"/>
<path fill="#D18A6A" d="M28.48,140.64l0.1-0.05l0.25,0.17c-0.11,1.18-0.75,1.84-1.9,1.97c-1.14,1.53-3.57,2.68-3.49,4.7
	c-0.47-0.36-0.95-0.69-1.44-1.01l-1.13,1.03c-0.86,0.74-1.62,1.64-2.57,2.27C20.02,145.28,24.28,142.51,28.48,140.64z"/>
<path fill="#72A9DF" d="M299.27,142.28c1.65-0.95,3.871,1.73,2.01,3C299.2,147.56,296.33,143.82,299.27,142.28z"/>
<path fill="#471704" d="M80.28,145.26c6.08,1.97,11.8,4.78,18.37,5.2c-1.16,0.63-2.22,1.32-3.59,1.09
	C90.11,151.11,83.54,149.14,80.28,145.26z"/>
<path fill="#471704" d="M109.12,149.13c3.73,0.15,7.55,3.07,10.22,5.53c1.19,1.38,3.62,3.3,3.5,5.26c-1.39-0.11-2.46-2.36-3.53-3.23
	C116.93,153.71,111.12,151.74,109.12,149.13z"/>
<path fill="#643522" d="M24.25,150.33c1.45,0.61,2.21-0.08,3.62-0.15c-2.28,4.76-5.99,9.72-6.61,15.57
	c2.42-1.82,3.09-8.11,6.52-9.43c0.35,0.86,0.55,1.78,0.61,2.76c-1.23,7.05-1.66,13.62-5.51,19.88c-2.47,4.08-2.03,8.23-3.27,12.63
	c-0.72,0.02-1.44,0-2.16-0.03c-0.25-4.78-2.23-9.08-1.96-13.95l-1.26-0.65c-1.04-5.22-0.31-10.27,1.35-15.26
	c1.47-3.63,2.76-7.89,5.39-10.84c0.25,2.06-0.64,3.86-0.7,5.87l1.11-0.3C22.28,154.34,22.72,152.16,24.25,150.33z"/>
<path fill="#FFCC99" d="M33.96,152.79c2.55,1.46,5.2,1.27,8.04,1.56c3.85-0.02,7.57-0.39,11.11-2.01c1.3,0.09,2.1,1.69,3.2,2.36
	c10.79,6.21,23.39,9.69,35.84,7.51c0.62-0.11,1.16-0.4,1.62-0.85c-3.55-0.25-7.18,0.25-10.77-0.19c-3.33-0.03-6.42-1.13-9.7-1.45
	l0.07-0.5c12.74,0.39,24.2-1.33,36.56,2.94c4.06,1.34,9.42,4.12,11.69,7.76c-0.14,7.2-1.4,15.19,0.64,22.07
	c0.87,3.46,0.08,6.62-0.36,10.06c-7.56-3.93-15.54-3.58-23.91-4.69c-5.23-0.18-10.77-0.96-15.94-0.02c-1.37,0.09-2.43,1.38-3.7,1.36
	c-3.65-2.49-8.25-2.95-12.41-1.53c-1.6-0.75-2.57-2.22-4.39-2.71c-8.75-3-18.4-4.06-27.56-5.29c-4.09-0.21-8.46-1.15-11.84,1.72
	c-0.14-4.02,0.4-8.5,2.65-11.98c4.38-7.08,3.82-15.36,6.32-22.86C31.8,154.76,32.17,152.83,33.96,152.79z"/>
<path fill="#643522" d="M44.99,176.73c6.03-0.32,12.83,2,17.59,5.7c1.57,0.89,1.57,2.9,1.29,4.46l-0.89,0.17
	c-5.38-1.98-11.22-4.89-16.97-5.45c-5.07-0.26-8.87,1.96-13.06,4.42L32,185.96l-0.02-0.93C35.15,180.8,39.45,176.97,44.99,176.73z"
	/>
<path fill="#643522" d="M109.75,188.25c1.58,2.18,3.89,5.03,4.17,7.73l-0.91,0.17c-2.42-2.03-4.31-4.37-7.17-5.9
	c-6-3.75-15.32-1.44-21.96-0.61l-1.08-0.38c-0.64-4,3.26-4.54,6.13-5.45C95.85,182.28,104.8,182.32,109.75,188.25z"/>
<path fill="#FFCC99" d="M14.49,190.58c0.27,1.1,0.1,2.26-0.5,3.47c-2.19,0.04-2.33,1.9-3.52,3.38c-2.89,7.49-0.37,14.19,1.74,21.44
	c0.92,1.87,1.91,3.819,4.34,3.659c0.98,1.371,0.27,4.25,0.64,5.941c-1.17,1.09-2.91-1.08-3.63-2.011
	c-2.63-4.79-5.55-8.899-6.37-14.45c-0.71-5.89-1.5-13.1,1.27-18.57C9.58,191.19,11.95,189.54,14.49,190.58z"/>
<path fill="#471704" d="M131.71,192.08c0.2,1.11,0.52,2.16,0.99,3.16c-0.27,1.95-0.74,3.97-1.55,5.77
	c-0.21,0.74-0.82,0.961-1.83,0.65c0.04-1.45,1.06-3.09,0.48-4.45c-2.05,1.49-2.71,5.04-3.25,7.37c-0.95,0.49-2.04,0.529-3.27,0.13
	c0.03-0.899,0.13-1.79,0.3-2.69c0.66,1.121,1.26,1.24,1.82,0.36c1.62-2.44,2.52-5.52,3.92-8.09
	C129.86,193.61,130.69,191.86,131.71,192.08z"/>
<path fill="#FFCC99" d="M39.76,193.44c-3.59,2.16-7.24,3.1-8.89,7.57c1.88,5.19,6.87,9.34,12.15,10.83
	c4.77,1.48,9.7,0.61,14.08-1.63c1.97-0.649,2.68-2.521,4.9-2.46c-0.51,2.26-0.47,6.1-3.05,7.09c-3.79,1.76-8.88,1.11-12.95,0.79
	c-5.7-0.649-11.35-1.44-16.93-2.81c-2.45-0.82-5.31-2.03-5.91-4.84c0.03-3.01,0.32-5.99,0.68-8.98c0.26-1.95,0.17-4.08,1.5-5.67
	C29.64,191.87,35.32,193.31,39.76,193.44z"/>
<path fill="#D18A6A" d="M13.99,194.05l-0.47,1.98c1.62,1.67,1.12,3.24,0.85,5.281c1.8,0.51,1.97,2.149,2.75,3.649
	c-0.3,3.351-0.63,6.67-0.49,10.04c-0.01,2.6,0.55,4.96-0.08,7.529c-2.43,0.16-3.42-1.789-4.34-3.659
	c-2.11-7.25-4.63-13.95-1.74-21.44C11.66,195.95,11.8,194.09,13.99,194.05z"/>
<path fill="#FFFFFF" d="M43.25,195.91c-1.58,2.68-3.14,4.68-1.96,7.98c1.62,4.51,7.6,5.719,10.96,2.359
	c2.52-2.63,2.3-5.95,0.61-8.97c3.73,1.78,6.45,4.46,7.16,8.67c-3.43,4.329-10.86,5.88-16.12,4.729c-4.85-1.039-8.13-4.47-10.4-8.699
	C34.25,198.23,39.71,195.98,43.25,195.91z"/>
<path fill="#72A9DF" d="M43.25,195.91c3.35-0.08,6.56-0.19,9.61,1.37c1.69,3.02,1.91,6.34-0.61,8.97
	c-3.36,3.359-9.34,2.15-10.96-2.359C40.11,200.59,41.67,198.59,43.25,195.91z"/>
<path fill="#471704" d="M18.02,196.63c2.36,0.4,0.78,4.57,0.73,6.17C16.64,203.061,15.76,196.64,18.02,196.63z"/>
<path fill="#FFFFFF" d="M45.22,197.21c2.13-1.23,2.85-0.03,3.42,1.93c-0.73,1.66-2.02,1.94-3.88,0.84
	C44.68,198.94,44.83,198.02,45.22,197.21z"/>
<path fill="#FFCC99" d="M60.85,198.2c2.7,1.36,1.48,4.13,1.73,6.56c-1.62-2.23-2-5.07-4.42-6.99
	C57.4,195.96,60.38,198.11,60.85,198.2z"/>
<path d="M48.64,199.14l0.48-0.45c2.7,1.5,1.85,5.65-1.16,6.08c-2.56,0.34-4.61-2.569-3.2-4.789
	C46.62,201.08,47.91,200.8,48.64,199.14z"/>
<path fill="#FFCC99" d="M84.91,201.02c-0.9,1.73-3.44,2.431-4.16,4.771l-0.69,0.101C80.58,203.16,81.32,199.93,84.91,201.02z"/>
<path fill="#FFCC99" d="M66.11,202.141c3.64-1.301,7.37-0.771,10.73,1.029c0.46,4.77-1.97,10.311-1.34,15.13
	c1.38,0.41,2.34,1.87,3.48,2.729c2.66,1.861,5.9,2.65,9.02,3.33c7.33,1.25,14.55,2.181,22,2.341c3.67-0.03,7.99-0.66,9.67-4.4
	c-0.2,2.88-1.27,5.851-2.09,8.62c-3.31,10.16-5.08,20.891-10.26,30.37c-4.02,6.67-10.22,9.569-16.89,12.989
	c-7.72,3.75-16.63,8.181-25.44,7.111c-4.76-0.381-9.77-1.15-14.18-3.091c-2.76-1.55-5.51-3.149-8.06-5.03
	c-6-4.84-11.69-9.299-16.68-15.27c-1.82-2.8-3.4-5.689-4.05-9c-1.69-8.35-1.6-16.55-1.77-25c-0.05-4.061-0.79-8.359-0.24-12.37
	c1.88,1.24,2.99,3.2,5.43,3.91c7.41,2.58,15.8,3.101,23.57,3.979c3.64,0.271,7.95,0.4,11.36-1.1c2.39-1.1,3.64-2.9,3.95-5.5
	C65.21,209.391,65.25,205.59,66.11,202.141z"/>
<path fill="#FFFFFF" d="M90.94,202c-2.2,2.12-3.61,4.46-2.51,7.6c1.54,4.791,8.14,6.101,11.34,2.17c2.48-2.92,1.58-5.74,0.17-8.869
	c4.07,1.32,7.62,3.75,8.51,8.17c-2.97,3.439-6.77,6-11.45,6.119c-6.02,0.041-12.16-3.06-15.43-8.17
	C82.88,204.88,86.8,202.63,90.94,202z"/>
<path fill="#72A9DF" d="M90.94,202c2.89,0.029,6.4-0.52,9,0.9c1.41,3.129,2.31,5.949-0.17,8.869c-3.2,3.931-9.8,2.621-11.34-2.17
	C87.33,206.46,88.74,204.12,90.94,202z"/>
<path fill="#FFCC99" d="M105.12,202.08c3.97-0.221,8.82,0.73,12.56,2.26c2.32,1.11,1.25,4.18,1.19,6.21
	c-0.7,3.3-0.8,7.04-2.23,10.11c-1.7,2-5.21,2.26-7.64,2.39c-6.78-0.149-13.33-1.229-20-2.26c-2.8-0.649-6.21-1.42-8.36-3.41
	c-1.94-1.51-1.27-4.979-0.96-7.069c0.91,0.17,1.65,0.77,2.21,1.789c3.38,3.351,7.33,5.871,12.16,6.36
	c6.21,0.69,13.58-2.149,16.98-7.47c-0.26-3.41-2.88-6.631-5.78-8.26L105.12,202.08z"/>
<path fill="#FFFFFF" d="M92.26,203.23c1.93-1.51,2.83,0.129,4.27,1.199c-1.86,1.84-1.92,2.85-4.66,1.43
	C91.93,204.96,92.05,204.09,92.26,203.23z"/>
<path d="M96.53,204.43c2.13,1.86,1.88,5.2-0.95,6.15c-2.77,0.71-4.99-2.16-3.71-4.721C94.61,207.279,94.67,206.27,96.53,204.43z"/>
<path fill="#FFCC99" d="M128.33,205.26c2.72-1.029,5.31,0.53,6.13,3.221c1.72,5.84-0.84,12.92-2.89,18.43
	c-2.08,5.39-5.94,8.779-9.8,12.859c-0.86,0.771-2.74,2.28-3.8,1.381c0.59-1.74,0.68-4.17,1.88-5.551c3.64,0.271,5.84-3.81,7.18-6.59
	c3.88-6.06,6.02-12.89,4.1-20.05c-1.03-0.601-2.06-0.729-2.62-1.91L128.33,205.26z"/>
<path fill="#D18A6A" d="M128.51,207.05c0.56,1.181,1.59,1.31,2.62,1.91c1.92,7.16-0.22,13.99-4.1,20.05
	c-1.34,2.78-3.54,6.86-7.18,6.59c1.1-5.74,3.35-11.18,3.79-17.119c0.19-2.44,1.94-3.391,2.99-5.33
	C126.2,210.63,128.44,209.7,128.51,207.05z"/>
<path fill="#471704" d="M122.33,210.279c0.84-0.5,1.66-0.529,2.46-0.079c-0.04,1.76-1.07,4.39-2.52,5.44
	C121.67,214,121.91,211.939,122.33,210.279z"/>
<path fill="#643522" d="M56.85,230.221c-0.46,1.93-2.98,3.729-0.74,5.59c1.91,0.89,3.8-2.19,5.51-1.44
	c1.77,1.17,3.35,4.71,5.38,5.19c2.01-0.84,3.65-3.141,6-3.69c2.13-0.07,2.87,3.17,5.04,2.58c2.3-1.101,0.34-4.28,0.28-6.16
	c2.4,1.42,3.24,7.09-0.33,7.69c-3.31-0.41-6.29-1.61-9.27,0.649c-3.4,1.53-5.77-1.58-7.16-4.239c-2.38-0.601-3.11,1.879-5.6,0.909
	C52.55,236.17,54.21,230.74,56.85,230.221z"/>
<path d="M45.56,247.471c12.29,5.389,25.73,6.93,39.01,5.1c0.55-0.461,1.11-0.92,1.66-1.37c1.6-0.33,3.19,1.97,2.39,3.409
	c-1.19,0.98-3.16-0.35-4.63,0.15c-13.16,1.881-26.61-0.029-38.89-5.039c-1.43-0.531-3.54,0.34-3.86-1.681
	C42.19,245.95,44.35,244.87,45.56,247.471z"/>
<path fill="#FFCC99" d="M166.23,254.26c1.43-0.74,2.61,0.29,2.77,1.74c0.71,6.609-0.23,13.33,0.1,19.99c0.3,1.64,1.73,2.75,3.15,1.3
	c4.88-5.36,6.49-13.649,10.71-19.521c1.25-0.74,3.4,0.58,2.74,2.15c-2.28,6.561-5.71,12.73-8.32,19.18
	c-0.8,1.4-0.23,3.28,1.56,3.371c5.22-3.811,9.73-8.671,14.69-12.841c1.14-1.399,2.86-0.05,2.95,1.39
	c-4.16,5.53-9.72,10.061-14.35,15.211c-0.68,1.52,0.09,2.75,1.77,2.799c5.07-2.059,10-4.52,15.06-6.629
	c1.77-0.26,2.629,1.439,0.98,2.619c-4.36,2.99-9.49,5.061-13.64,8.381c-2.1,2.66-2.96,6.24-5.05,8.959
	c-1.87,2.771-4.64,4.771-7.46,6.471c-4.1-2.189-8-4.68-12.89-5.82c-1.12,0.03-2.03-0.41-2.73-1.289
	c-3.07-4.74-6.23-8.881-6.71-14.73c-0.33-4.17-2.72-7.131-5.56-9.961c-0.83-0.899-2.36-1.379-1.86-2.859
	c2.36-1.51,6.11,1.2,7.75,2.92c1.11,1.77,2.84,2.58,3.37,4.641c3.69,3.08,7.9,4.24,9.99,9.189c1.13,1.93,0.48,3.87,1.04,5.85
	l1.28-0.18c1.05-3.97-1.14-8.43-4.07-11.07c-0.81-0.89-2.23-1.399-2.66-2.539c3.82-7.371,4.14-16.851,4.16-24.98
	C165.15,256.59,164.77,255.061,166.23,254.26z"/>
<path fill="#D18A6A" d="M56.19,258.21c5.23,1.12,10.34,1.69,15.68,1.96c0.06,0.83-0.25,1.38-0.93,1.65
	c-4.17,0.6-8.75,0.529-12.69-1.17C57.11,260.07,55.45,259.939,56.19,258.21z"/>
<path fill="#001A33" d="M31.99,272.13c1.96,0.05,4.2-0.399,5.7,1.16c0.22,1.45-1.49,2.06-2.64,1.601
	c-1.97-1.021-3.87-0.811-5.99-1.121C28.82,272.21,30.97,272.221,31.99,272.13z"/>
<path fill="#001A33" d="M0,273.71c5.77,0.479,11-0.22,16.7,1.511C13.68,281.9,12.99,288.8,12.17,296c-0.09,2.48-0.37,5.17,0.24,7.6
	c5.87,0.17,12.77-4.289,19.4-2.479c1.61,1.409,3.24,2.79,4.85,4.2c-0.18,4.35-0.88,9.229-1.92,13.5l-0.71,0.4
	c-1.31-0.591-2.6-0.971-4.01-1.281c-1.14-2.189,0.9-6.239,1.47-8.6c-0.34-0.33-0.68-0.66-1.03-0.97c0.24,3.11-1.09,5.56-1.49,8.61
	c-2.11,0.85-4.99,0.31-7.03-0.61c-1.89-0.04-3.27-0.25-5-1c-1.89-0.03-3.27-0.229-5-1c-1.87-0.05-3.3-0.21-5-1
	c-2.6-0.04-4.63-0.091-6.94-1.41V273.71z"/>
<path fill="#001A33" d="M25.72,274.16c-2.03,8.529,0.04,16.449,4.35,23.859l-0.1,0.78c-5.6-0.29-10.35,2.12-15.75,2.931
	c-0.36-0.82-0.5-1.721-0.41-2.73c0.18-7.061,1.3-14.561,3.91-21.15C18.43,274.73,23.09,273.71,25.72,274.16z"/>
<path fill="#FFCC99" d="M41.6,276.35c7.36,5.86,16.25,8.371,25.58,8.211c1.17,1.899,2.77,2.049,4.74,2.6
	c0.36,0.73,0.27,1.58-0.28,2.529c-2,5.051-8.61,7.311-13.64,7.32c-7.46,0.02-16.09-2.119-21.62-7.39
	c-2.76-3.08-4.63-6.66-3.46-10.931c1.64-1.09,4.91,1.5,6.64-0.09C40.21,277.529,39.85,275.67,41.6,276.35z"/>
<path fill="#FFFFFF" d="M27.29,277.279c1.07-0.159,2.16-0.119,3.29,0.121c-1.78,4.02-0.41,8.51,2.15,11.84
	c4.34,5.59,11.47,8.51,18.27,9.67c6.22,1.119,12.91,0.8,18.38-2.641c3.13-1.93,5.22-4.869,5.71-8.539
	c0.64-0.41,3.19,0.879,3.58,1.529c-2.39,7.631-6.77,12.721-13.7,16.62c-2.37,1.851-5.3,1.851-7.78,3.271
	c-2.24,4.779-3.66,9.789-5.06,14.84c-2.86,11.22-5.2,22.02-9.1,33.02c-4.74,14.42-13.09,28.24-21.25,40.99H0v-4.02
	c1.15-0.211,1.58-1.811,2.37-2.59c8.62-10.82,17.51-21.16,23.09-33.94c6.41-13.99,9.34-28.49,12.35-43.45
	c0.08-3.09,1.33-6.67,0.85-9.65c-2.13-1.879-4.74-3.439-5.98-6.039C28.66,291.891,25.9,284.99,27.29,277.279z"/>
<path fill="#001A33" d="M81.34,287.221c1.59-0.191,3.21,2.149,4.4,3.049c2.22,1.641,1.38,4.381,1.2,6.74
	c-1.38,6.61-3.99,13.7-7.29,19.6c-4.68-2.409-8-7.02-13.35-8.819c0.15-0.86,1.85-1.399,2.49-2
	C75.25,301.689,79.85,294.7,81.34,287.221z"/>
<path fill="#001A33" d="M89.36,293.15l0.68-0.33c6.15,1.789,12.25,4.35,18.1,6.949c7.62,5.971,12.95,16.07,18.01,24.17
	c2.87,3.91,6.34,7.771,8.75,12.101c0.38,1.8-1.7,3.79-2.4,5.41c-2.78,5.149-6.07,12.62-4.37,18.47c1.09,0.43,1.18-2.25,1.61-2.97
	c2.2-7.81,6.9-15.261,10.99-22.21c2.54-5.11,4.69-10.53,7.53-15.51c0.51-0.541,1.03-1.07,1.55-1.61c1.02-4.49,2.96-8.45,5.55-12.229
	c6.23-0.461,13.36,3.279,18.22,7.029c1.61,1.189,1.77,2.25,0.9,4.04c-1.65,3.181-2.59,7.34-5.15,9.87
	c-0.34,5.76-4.03,11.4-6.33,16.67c-3.94,9.01-7.59,18.1-12.3,26.75c-2.02,4.73-6.59,7.88-11.7,8.24c-4.15-0.27-8.06-2.04-10.49-5.5
	c-5.44-6.2-11.15-12.2-16.33-18.61c-4.17-4.89-7.74-10.28-11.9-15.17c-0.98-1.16-1.92-2.3-2.55-3.69c0.7-4.92,3.09-10.26,4.45-15
	l-0.2-0.859l-0.74,0.07c-3.55,3.949-5.53,9.83-7.5,14.689c-1.38,1.48-3.76-1.1-5.69-0.82c-4.9-1.75-9.74-3.18-14.81-4.26
	c-4.2-1.9-9.11-1.8-13.12-3.97c0.35-1.521,0.63-2.99,0.43-4.56c-0.19,1.67-0.75,3.08-1.61,4.5c-1.37-0.11-2.59-0.521-3.9-0.891
	l-0.34-0.91c0.71-3.93,2.34-8.58,4.09-12.17c3.28-2.4,6.03-1.369,9.55-0.18c3.82,2.369,7.04,5.699,10.88,8.04
	c0.86,0.25,1.43,0.01,1.7-0.729C84.69,310.26,88.66,301.8,89.36,293.15z"/>
<path fill="#001A33" d="M0,313.58c2.81,0.21,5.44-0.2,8.06,1.061c1.88,0.039,3.27,0.239,5,0.989c1.87,0.06,3.28,0.271,5,1
	c2.19,0.04,3.86,0.32,5.74,1.5c-0.18,1.601-0.57,3.19-0.91,4.761c-3.54,2.83-7.35,0.379-10.91,2.389
	c-2.87,0.941-4.31-2.469-6.85-1.439C3.35,323.1,1.47,322.279,0,321V313.58z"/>
<path fill="#001A33" d="M26,317.71c1.17,0.319,1.97,1.08,2.4,2.271c0.02,1.479-1.12,2.459-0.99,4c-0.17,3.569-2.31,7.109-2,10.699
	c0.27-1.89,0.65-2.699,1.95-4.08c-0.15-4.199,0.71-7.459,1.69-11.439c1.5-1.15,3.42,0.32,4.85,0.97c0.36,0.851,0.39,1.81,0.08,2.88
	c-2.21,9.27-4.1,18.301-7.68,27.17c-4.51,12.7-11.97,23.391-20.49,33.68c-1.68,1.971-3.39,5.25-5.81,6.23v-66.529
	c1.97,1.01,3.95,2.34,6.05,3c3.76,0,7.73,0.219,11.44-0.16c2.02-1.08,3.33-1.42,4.01,1.189c0.39-1.29,1.1-2.08,1.96-3.08
	C24.02,322.75,24.14,318.43,26,317.71z"/>
<path fill="#001A33" d="M59.47,327.6c0.2-0.47,0.4-0.93,0.6-1.39c1.43-0.09,3.85,0.931,3.1,2.771c-1.5,3.08-0.33,6.5-0.9,9.99
	c-1.1,1.93-1.12,4.59-0.73,6.68c-0.17-3.121,1.05-5.601,1.49-8.631c1.75-1.08,2.83-0.289,3.57,1.4c3.06,0.42,5.96,4.2,9.38,4.18
	c2.58,0.19,5.32-0.58,7.55,0.811c1.4-0.87,3.27-1.561,3.88,0.58c-0.59,3.1-2.26,6.43-2,9.63c0.87-2.55,1.24-5.14,2.08-7.681
	c-0.15-1.979,1.29-4.789,3.39-4.899c0.25,0.84,0.17,1.739-0.24,2.7c-3.98,11.71-7.76,23.88-12.74,35.22
	c-2.94,6.62-6.99,12.649-10.29,19.04H24.45c1.04-2.391,2.55-4.46,3.89-6.67c6.49-10.73,12.49-21.43,16.48-33.38
	c3.62-10.2,6.13-20.931,8.71-31.36C54,323.04,59.14,325.359,59.47,327.6z"/>
<path fill="#001A33" d="M64.03,328.01c1.42-0.52,3.32-0.439,4.73,0.141c3.5,1.379,7.36,2.09,11.01,3.01
	c3.03,1.02,6.05,2.1,9.13,2.939c2.73,1.73,1.12,3.69-0.03,5.78c-3.31,2.42-6.9,1.29-10.87,1.521c-2.01,0.129-2.87-1.211-3.48-2.881
	c-0.51,0.23-1.01,0.5-1.51,0.82c-3.19-1.35-5.86-3.811-8.89-5.49C63.09,332.439,63.73,329.65,64.03,328.01z"/>
</svg>
