<?xml version="1.0" encoding="utf-8"?>
<!-- Generator: Adobe Illustrator 16.0.0, SVG Export Plug-In . SVG Version: 6.00 Build 0)  -->
<!DOCTYPE svg PUBLIC "-//W3C//DTD SVG 1.1//EN" "http://www.w3.org/Graphics/SVG/1.1/DTD/svg11.dtd">
<svg version="1.1" id="Layer_1" xmlns="http://www.w3.org/2000/svg" xmlns:xlink="http://www.w3.org/1999/xlink" x="0px" y="0px"
	 width="400px" height="400px" viewBox="0 0 400 400" enable-background="new 0 0 400 400" xml:space="preserve">
<g>
	<g>
		<path fill-rule="evenodd" clip-rule="evenodd" fill="#FEFEE8" d="M232,2c7.495,3.905,16.049,3.515,23.938,5.922
			c13.632,4.158,26.84,9.077,37.001,19.58c15.195,15.708,12.076,38.385-4.286,51.633c-16.951,13.725-37.286,19.056-58.18,22.886
			c-16.251,2.979-32.693,3.827-49.097,2.847c-24.671-1.476-48.829-5.608-69.984-19.713c-19.254-12.837-22.488-37.028-6.883-53.955
			c7.867-8.532,18.264-13.671,29.018-17.934c10.837-4.295,22.013-7.303,33.482-9.304c1.772-0.31,3.606-0.6,4.99-1.962
			C192,2,212,2,232,2z"/>
		<path fill-rule="evenodd" clip-rule="evenodd" d="M235.013,390.802c-1.03,0.489-1.988,1.268-3.73,0.653
			c3.135-5.221,5.622-10.691,6.211-16.748c0.167-1.724,2.111-4.329-1.845-4.885c-3.93-0.552-2.311,2.342-2.557,3.838
			c-0.931,5.658-4.189,9.69-8.658,12.887c-12.352,8.833-35.228,9.179-47.922,0.711c-5.48-3.656-9.637-8.257-9.652-15.353
			c-0.004-1.813-0.657-2.204-2.377-2.067c-2.042,0.162-2.374,1.074-2.221,2.914c0.594,7.156,3.729,13.266,7.568,19.115l0.037-0.049
			c-1.39,0.101-2.838,0.541-4.006-0.675c-5.837-4.723-6.433-11.705-7.931-18.311c-0.313-1.382,0.39-3.481-1.354-3.948
			c-1.873-0.503-3.497,0.95-4.696,2.303c-2.774,3.126-2.337,7.104-2.631,10.896c-0.193,2.485-0.227,5.44-4.242,3.913l-0.004-0.003
			c-2.175-2.808-1.487-6.024-1.045-9.074c0.498-3.438-0.628-4.536-4.022-3.98c-4.567,0.747-9.161,1.333-13.714,2.177
			c-2.43,0.451-4.875,1-7.298-0.059c-2.318-0.016-3.863-1.659-6.738-3.113c17.171-6.355,36.341-2.761,50.745-15.038
			c-2.941-1.998-6.345-4.554-9.975-6.734c-14.541-8.737-21.602-22.071-23.943-38.387c-0.165-1.15-0.655-2.291-0.626-3.428
			c0.106-4.21-1.695-6.16-5.924-7.451c-5.966-1.82-8.386-7.885-11.531-12.645c-7.834-11.854-10.374-25.013-8.045-39.052
			c0.241-1.454,0.492-3.258,1.438-4.188c7.001-6.877,4.365-15.574,3.235-23.089c-1.25-8.305-0.69-16.154,0.604-24.155
			c0.37-2.286,1.098-4.486,0.885-6.86c-1.106-12.329,5.002-20.492,15.252-26.227c1.436-0.804,2.943-1.428,3.595-3.188
			c7.047-19.018,22.09-28.748,40.421-34.513c23.745-7.469,47.636-7.477,71.604-1.035c1.539,0.414,3.114,0.699,4.548,2.254
			c-1.978,1.428-4.463,0.191-6.512,1.956c4.16,1.688,8.033,3.166,11.83,4.82c12.727,5.543,24.611,13.053,31.854,24.731
			c6.494,10.473,12.58,22.438,12.297,35.031c-0.188,8.332,1.267,17.021-1.727,25.501c-1.828,5.181-1.335,11.176-1.924,16.801
			c-0.106,1.021-0.257,1.954,0.707,2.692c7.583,5.81,7.337,14.069,6.703,22.284c-1.018,13.193-6.044,24.76-14.785,34.72
			c-1.442,1.644-2.825,3.863-4.908,4.041c-5.569,0.477-5.577,4.407-6.207,8.385c-0.622,3.929-1.775,7.772-2.631,11.667
			c-2.313,10.521-7.732,19.007-16.494,25.314c-5.118,3.686-10.252,7.349-15.359,11.008c14.034,8.754,15.205,8.798,23.329,9.999
			c8.479,1.254,17.23,1.036,25.706,4.227c-1.547,2.313-3.66,3.294-6.126,3.727c-5.988,1.494-11.769-0.622-17.635-1.093
			c-5.689-0.456-5.965-0.424-6.135,5.17c-0.07,2.304,0.118,4.652-1.455,6.62c-0.363,0.071-0.727,0.143-1.09,0.213
			c-2.63,1.125-2.709-0.994-3.015-2.516c-0.425-2.115-0.169-4.295-0.267-6.445c-0.102-2.229-0.579-4.317-2.488-5.709
			c-1.45-1.057-2.949-2.867-4.704-2.382c-1.901,0.527-1.033,2.861-1.276,4.394c-0.758,4.776-2.024,9.38-4.027,13.787
			C237.433,388.685,236.766,390.192,235.013,390.802z"/>
		<path fill-rule="evenodd" clip-rule="evenodd" fill="#011A33" d="M145.006,385.997c2.466,0.188,3.046-1.14,3.035-3.358
			c-0.014-2.626,0.118-5.244,0.425-7.892c0.611-5.265,4.747-6.299,8.369-8.098c1.591-0.79,2.134,0.166,2.137,1.565
			c0.017,8.333,2.786,15.83,6.889,22.929C158.729,390.157,151.785,388.411,145.006,385.997z"/>
		<path fill-rule="evenodd" clip-rule="evenodd" fill="#011A33" d="M235.013,390.802c3.389-6.835,6.172-13.853,5.967-21.659
			c-0.088-3.364,1.331-2.959,3.597-1.864c5.427,2.62,8.53,6.321,7.572,12.834c-0.276,1.878-1.559,4.79,1.759,5.911
			C247.744,388.151,241.496,389.943,235.013,390.802z"/>
		<path fill-rule="evenodd" clip-rule="evenodd" fill="#011A33" d="M118.922,375.058c7.295-1.286,14.593-2.553,21.884-3.864
			c4.692-0.844,5.771,0.185,4.65,4.893c-0.787,3.301-0.241,6.61-0.454,9.908C135.939,383.23,127.017,380.133,118.922,375.058z"/>
		<path fill-rule="evenodd" clip-rule="evenodd" fill="#011A33" d="M254.996,385.811c0.001-2.963,0.274-5.957-0.062-8.881
			c-0.513-4.469,1.58-5.485,5.442-4.871c6.609,1.05,13.229,2.04,19.844,3.055C272.335,379.913,263.683,382.902,254.996,385.811z"/>
		<path fill-rule="evenodd" clip-rule="evenodd" fill="#EBCDBB" d="M220.642,394.095c-1.567-0.104-3.135-0.208-5.81-0.386
			C217.669,392.843,219.366,392.563,220.642,394.095z"/>
		<path fill-rule="evenodd" clip-rule="evenodd" fill="#E6C6B4" d="M169.83,391.867c1.745,0.1,3.49,0.2,5.234,0.3
			c-1.833,0.85-3.656,1.513-5.197-0.349C169.867,391.818,169.83,391.867,169.83,391.867z"/>
		<path fill-rule="evenodd" clip-rule="evenodd" fill="#EACBB9" d="M183.247,393.459c-1.529,0.802-2.927,0.729-4.858,0.103
			C180.259,392.744,181.655,392.785,183.247,393.459z"/>
		<path fill-rule="evenodd" clip-rule="evenodd" fill="#E9CCBB" d="M228.215,392.503c-1.078,0.802-2.141,0.671-3.553,0.043
			C226.007,391.758,227.06,391.665,228.215,392.503z"/>
		<path fill-rule="evenodd" clip-rule="evenodd" fill="#FEFEDF" d="M201.744,6.011c23.271-0.38,44.713,2.135,65.325,9.895
			c9.784,3.683,18.776,8.803,25.269,17.155c12.143,15.624,6.134,33.187-6.859,43.551c-15.729,12.546-34.634,17.78-54.004,21.318
			c-16.364,2.989-32.951,3.75-49.547,3.011c-20.158-0.897-39.79-4.614-58.226-13.147c-8.351-3.865-15.928-9.121-20.783-17.159
			c-8.595-14.229-3.707-31.76,10.226-41.685C130.158,16.83,149.373,10.63,169.918,7.92C180.958,6.464,192.008,5.72,201.744,6.011z"
			/>
		<path fill-rule="evenodd" clip-rule="evenodd" fill="#FECB98" d="M272.131,276.133c-2.452,14.578-3.881,29.328-7.428,43.723
			c-2.27,9.212-6.984,16.7-14.632,22.488c-7.31,5.532-14.843,10.725-22.889,15.057c-18.231,9.816-36.604,9.595-54.71-0.396
			c-7.271-4.012-14.13-8.721-20.871-13.605c-8.461-6.133-13.788-14.129-16.175-24.316c-3.608-15.397-5.01-31.129-8.25-48.001
			c6.1,5.975,12.565,6.769,19.271,7.02c11.31,0.424,22.641,1.215,33.839-1.019c8.666-1.728,11.184-4.879,11.569-13.561
			c0.118-2.66,0.442-5.375,0.069-7.978c-0.685-4.767,1.566-6.378,5.878-6.995c8.25-1.18,10.515,0.626,10.446,8.667
			c-0.058,6.767-0.969,13.601,1.049,20.521c1.399-1.67,0.075-3.433,1.021-5.228c6.101,5.055,13.481,5.443,20.932,5.842
			c10.168,0.543,20.285,0.279,30.375-1.08c3.555-0.479,6.702-1.84,9.343-4.302C273.458,273.252,272.272,274.884,272.131,276.133z"/>
		<path fill-rule="evenodd" clip-rule="evenodd" fill="#FECB98" d="M239.839,237.819c-8.142,0.022-16.467-0.136-24.132,2.523
			c-4.559,1.581-8.883,0.476-12.917,1.189c-13.594,2.404-25.932-4.986-39.171-3.705c-0.821,0.08-1.657,0.013-2.485,0.014
			c-5.577-0.923-11.244,0.141-17.071-0.624c0.066-2.559,1.986-3.374,3.553-4.397c6.503-4.247,13.667-4.895,21.13-3.748
			c3.95,0.606,7.877,1.346,11.806,2.071c0.96,0.178,2.25,0.482,2.716-0.564c0.622-1.396-0.75-2.021-1.692-2.606
			c-2.291-1.424-4.852-2.218-7.466-2.746c-11.419-2.31-21.951-1.547-29.622,8.81c-1.416,1.91-3.139,3.413-5.587,3.843
			c-4.205-0.055-8.146,0.826-11.849,3.792c-0.433-6.42-0.836-12.261,1.947-17.903c3.721-7.544,2.93-15.887,3.803-23.927
			c0.196-1.813,0.084-3.659,0.255-5.478c0.713-7.578,1.895-8.662,9.245-8.3c7.073,0.348,13.894-0.59,20.224-3.91
			c1.792-0.94,3.042-0.792,4.92,0.168c16.685,8.526,34.171,11.172,52.526,6.512c0.36-0.564,1.248-0.506,1.465-1.24
			c-0.8,0.609-1.797-0.312-2.593,0.334c-7.575,0.353-15.154,1.506-22.719-0.118c0-0.204,0-0.408,0-0.612
			c10.909-0.917,21.668-3.278,32.644-3.524c11.883-0.268,23.546,0.531,33.989,7.243c2.308,1.483,3.337,3.172,3.575,5.958
			c0.906,10.547,1.266,21.162,5.347,31.246c1.457,3.601,0.904,7.809,0.166,11.992c-3.591-1.181-7.01-2.493-10.72-2.262
			c-2.627-0.429-4.563-1.907-6.02-4.053c-8.938-13.171-26.358-10.394-35.785-6.305c-1.264,0.548-3.269,1.231-2.581,3.039
			c0.556,1.463,2.368,0.672,3.614,0.454c6.558-1.149,13.055-2.718,19.801-2.308c6.447,0.393,11.543,3.371,17.08,8.084
			C250.671,238.236,245.171,236.82,239.839,237.819z"/>
		<path fill-rule="evenodd" clip-rule="evenodd" fill="#653522" d="M275.031,241.958c1.17-9.377-2.672-17.901-4.422-26.796
			c-1.105-5.619-2.006-11.369-1.381-17.319c2.91,0.374,2.58,3.979,5.457,4.626c-1.729-7.102-6.245-11.654-12.241-14.712
			c-12.196-6.217-25.231-7.699-38.72-6.196c-7.898,0.88-15.811,1.633-23.716,2.442c-3.718,0.186-7.309-0.444-10.766-1.787
			c-1.376-0.534-3.336-1.118-3.077-2.77c0.271-1.725,2.363-1.818,3.778-1.521c8.539,1.791,16.877-0.195,22.617-0.905
			c-5.964,0.695-14.548,0.858-23.001-1.505c-5.526-1.545-6.163-3.368-2.039-7.329c8-7.685,17.088-13.556,25.58-15.134
			c-10.835,0.861-23.087,5.091-33.995,13.597c-8.179,6.378-17.525,10.919-27.808,13.125c-6.574,1.411-7.753,0.815-10.795-5.119
			c-0.392-0.764-0.721-1.538-1.651-1.693c-5.712-0.956-4.155-4.89-3.497-8.465c0.445-0.866,1.09-1.599,1.632-2.399
			c0.229-0.405,0.48-0.799,0.722-1.197c2.468-5.343,5.818-10.039,10.338-14.12c-1.981,1.112-2.606,3.572-4.826,4.117
			c-1.128-0.086-2.762,1.655-3.225-0.874c8.332-9.641,18.99-15.451,31.087-18.896c3.655,0.438,7.068-2.053,12.064-1.223
			c-4.742,4.358-10.362,4.632-13.359,7.128c14.886-7.217,31.398-11.575,49.25-8.996c-0.681,1.387-3.025,0.431-3.358,2.349
			c4.855,1.142,9.674,2.274,14.491,3.407c-2.098,2.351-4.924,1.557-7.456,1.519c-3.094-0.045-6.18-0.637-8.601,0.054
			c11.029-1.071,21.6,2.655,31.774,7.938c0.812,0.399,1.454,1.167,1.871,1.181c-0.133,0.009-0.658-0.416-1.202-0.808
			c-2.059-1.438-4.43-2.232-6.664-3.306c-0.854-0.41-2.145-0.827-1.776-2.016c0.448-1.448,1.732-1.101,2.897-0.749
			c6.544,1.973,12.351,5.564,18.506,8.388c5.336,2.514,11.33,5.928,13.058,10.845c2.216,6.304,6.866,10.645,9.506,16.425
			c2.968,6.499,7.307,12.912,6.837,19.949c-0.489,7.319,1.128,14.717-0.803,21.917c-0.955,3.562-1.231,7.155-1.245,10.802
			c-2.202-0.539-3.352,0.101-4.242,2.449c-1.338,3.527-2.763,7.001-3.764,10.655C278.385,240.804,277.946,243.149,275.031,241.958z"
			/>
		<path fill-rule="evenodd" clip-rule="evenodd" fill="#461704" d="M139.998,150.022c1.021,1.135,2.02-0.39,3.034-0.024
			c1.409,2.141-0.756,3.263-1.513,4.639c-1.323,2.409-2.479,4.877-3.567,7.389l0.049-0.08c-0.55,0.558-0.46,1.388-0.859,2.01
			c-2.22,5.327-1.824,6.42,2.843,7.094c1.847,0.268,2.16,1.421,1.999,2.813c-0.642,5.535,3.06,5.602,6.691,5.06
			c9.195-1.372,17.409-5.379,25.197-10.244c7.986-4.988,15.002-11.562,24.516-13.985c6.784-1.728,13.508-3.344,20.745-2.229
			c-13.284,2.98-24.383,9.582-33.999,20.008c11.012,4.695,22.059,3.718,33.105,3.408c-10.046,4.242-20.468,5.205-31.305,3.237
			c3.771,3.492,8.962,2.711,13.074,4.887c-11.299,2.176-22.208,1.64-32.782-4.49c2.115-2.315,3.936-4.31,5.757-6.304
			c-12.293,8.577-24.791,14.379-39.455,8.103c-1.153,5.994-2.286,11.882-3.418,17.771c-1.763-0.585-0.254-3.6-2.712-3.64
			c-0.282,0.525-0.488,1.064-0.703,1.61c-0.147,0.417-0.321,0.81-0.502,1.208c-1.588,2.49-0.609,6.171-3.699,7.955
			c-3.219-3.051-1.427-6.501-0.8-9.856c0.12-0.462,0.284-0.914,0.459-1.356c0.446-1.063,0.662-2.186,0.791-3.328
			c0.256-2.356,1.428-4.334,2.147-5.462c-0.068,0.126-0.621,1.077-1.855,1.284c-0.691-0.062-1.25-0.303-1.414-1.058
			c0.114-0.299,0.385-0.527,0.458-0.861c-0.204,0.396-0.425,0.782-0.54,1.24c0.2,2.377-0.109,4.605-1.928,6.298
			c-0.452,0.421-1.284,0.419-1.781-0.147c-1.933-2.199-0.097-4.316,0.217-6.457c0.281-1.918,2.088-3.346,1.823-5.461
			c-0.355-0.373-0.71-0.746-1.064-1.119c2.916-3.5,5.522-7.222,7.937-11.08c2.336-2.15,2.833,3.545,4.549,1.275
			c1.031-1.362,0.323-3.91,0.91-5.763C134.057,159.146,136.08,154.066,139.998,150.022z"/>
		<path fill-rule="evenodd" clip-rule="evenodd" fill="#FECB98" d="M200.452,390.008c-9.86-0.631-18.527-1.784-25.292-8.526
			c-1.801-1.795-3.273-3.836-3.923-6.245c-0.772-2.863-1.124-5.651,3.491-5.479c1.895,0.071,4.434,0.293,4.484-3.146
			c0.019-1.319,1.541-0.468,2.398-0.217c12.275,3.594,24.458,3.206,36.926,0.428c2.995-0.667,7.489,2.133,10.175,4.57
			c1.589,1.441-0.173,4.986-1.709,7.279c-3.979,5.937-9.974,8.619-16.608,10.048C206.837,389.485,203.155,389.674,200.452,390.008z"
			/>
		<path fill-rule="evenodd" clip-rule="evenodd" fill="#643522" d="M122.992,194.993c-0.075,3.646-2.528,7.266-0.115,10.937
			c2.35-2.534,1.24-6.268,3.108-8.969l-0.028,0.041c0.542-0.565,0.744-1.165,0.184-1.841c0.438-1.243,1.033-2.715,2.496-2.35
			c0.637,0.159,1.029,1.852,1.264,2.908c0.241,1.082,0.153,2.238,0.209,3.362c0.25,9.533-0.687,18.811-4.756,27.657
			c-2.055,4.468-1.198,9.469-1.342,14.258c-2.508,2.708-3.407,0.383-4.068-1.479c-1.321-3.724-2.421-7.522-3.861-11.213
			c-0.677-1.734-1.307-3.39-2.992-4.387c-3.866-15.297-0.5-29.417,6.979-42.867c0.675,3.934-2.53,7.401-1.474,11.978
			c2.32-2.16,1.365-5.36,3.409-7.022l-0.011-0.009c0.355,0.359,0.712,0.72,1.068,1.079
			C124.397,189.728,121.456,192.341,122.992,194.993z"/>
		<path fill-rule="evenodd" clip-rule="evenodd" fill="#5B311F" d="M138.902,237.878c1.607-0.631,2.545-1.884,3.549-3.262
			c9.319-12.791,27.193-16.053,40.788-7.622c1.944,1.205,3.112,2.94,2.564,4.906c-0.708,2.538-3.112,1.221-4.62,0.898
			c-6.493-1.388-12.973-2.642-19.648-2.813c-6.484-0.168-11.701,2.557-17.201,6.762c6.058,0.845,11.531-0.311,16.801,1.094
			C153.723,237.853,146.313,237.865,138.902,237.878z"/>
		<path fill-rule="evenodd" clip-rule="evenodd" fill="#5A311F" d="M239.839,237.819c4.931-1.352,10.065-0.302,15.444-0.968
			c-9.047-8.6-19.372-7.342-29.782-5.497c-2.446,0.434-4.841,1.184-7.295,1.54c-1.339,0.194-3.298,1.22-3.983-0.6
			c-0.754-1.999,0.108-3.974,2.104-5.069c3.668-2.013,7.659-3.182,11.737-3.941c12.14-2.26,22.458,0.398,29.422,11.437
			c0.939,1.491,2.076,2.494,3.642,3.129C254.031,238.016,246.935,238.409,239.839,237.819z"/>
		<path fill-rule="evenodd" clip-rule="evenodd" fill="#DC8D6A" d="M118.91,258.115c2.901,3.005,3.984,6.521,3.857,10.748
			c-0.153,5.113,0.718,10.209,1.958,15.176c0.585,2.346-0.26,3.313-2.335,3.762c-2.28,1.265-3.605-0.506-4.444-1.898
			c-6.037-10.025-10.028-20.61-7.788-32.62c0.298-1.602,0.646-3.28,1.926-4.509c3.247,1.336,5.589,3.396,5.762,7.194
			c-1.162,4.293-3.14,8.455-2.281,12.408C116.289,265.27,114.073,260.674,118.91,258.115z"/>
		<path fill-rule="evenodd" clip-rule="evenodd" fill="#DC8D6A" d="M277.606,287.788c-0.625-0.798-2.611-0.184-2.188-2.048
			c1.898-8.36,2.183-16.905,2.951-25.396c0.041-0.454,0.434-0.876,0.662-1.313c2.279-2.582,3.417-0.693,4.256,1.234
			c1.206,2.774,1.309,5.768,1.197,8.754c-0.047,1.133-0.702,2.13-0.747,3.268c0.092-1.131,0.829-2.108,0.779-3.278
			c0.061-3.655-0.224-7.186-1.968-10.56c-2.365-4.573-0.672-7.424,4.771-8.513c2.11,1.925,2.764,4.455,2.988,7.167
			c0.862,10.43-2.932,19.563-8.046,28.271C281.347,286.936,280.178,288.973,277.606,287.788z"/>
		<path fill-rule="evenodd" clip-rule="evenodd" fill="#FCC997" d="M277.606,287.788c6.258-3.107,6.971-9.793,9.146-15.214
			c2.923-7.28,3.732-15.083,0.172-22.658c-4.988,0.122-4.988,0.122-3.934-6.8c6.117-0.359,9.101,1.765,9.785,8.409
			c1.25,12.139-0.6,23.84-7.67,34.107c-2.9,4.211-5.098,9.295-10.851,11.861c-0.583-3.282-0.011-5.889,0.89-8.473
			c0.484-0.643,1.439-0.441,1.929-1.076C277.213,287.763,277.391,287.71,277.606,287.788z"/>
		<path fill-rule="evenodd" clip-rule="evenodd" fill="#F9C695" d="M112.085,248.773c-0.082,4.683-1.529,9.206-1.154,13.989
			c0.637,8.118,4.256,15.103,7.708,22.167c0.675,1.382,1.833,2.792,3.751,2.871c0.213-0.09,0.389-0.044,0.53,0.14
			c0.566,0.66,1.501,0.514,2.154,0.985l0.003,0.004c0.428,0.612,0.345,1.399,0.698,2.037c-0.093,2.017,1.935,4.954-0.024,5.811
			c-2.543,1.111-4.161-1.884-5.775-3.75c-9.218-10.657-13.467-23.084-13.273-37.102c0.044-3.176,0.377-6.294,1.927-9.163
			c1.376-2.547,3.406-4.477,6.352-3.738c3.104,0.777,0.956,3.635,1.578,5.258C115.094,250.449,113.37,245.877,112.085,248.773z"/>
		<path fill-rule="evenodd" clip-rule="evenodd" fill="#161413" d="M190.013,249.029c-0.541,5.646,1.175,11.427-1.021,16.973
			c-1.707,5.972-6.542,8.81-11.19,6.568c0.052-0.905,0.721-1.287,1.398-1.663c0.651-0.352,1.329-0.655,1.992-0.982
			c3.496-1.434,4.641-4.197,4.542-7.771c-0.053-1.93-0.167-3.884,0.349-5.786c0.537-1.174,1.137-2.157,2.427-0.696
			c-0.236-1.45-2.242-1.382-2.486-2.853c-0.532-4.856-3.618-6.618-8.105-7.214c-12.449-1.652-24.947-1.331-37.429-1.018
			c-6.718,0.168-8.005,1.865-8.06,8.588c-0.043,5.333-0.359,10.714,2.54,15.563c0.742,2.327-0.102,3.113-2.381,2.354
			c-1.107-0.369-1.643-1.566-2.702-2.042c-1.18-7.983-3.275-15.934-0.893-24.049c2.463-4.352,6.895-4.266,10.915-4.404
			c7.797-0.27,15.611-0.104,23.415-0.066c6.211,0.896,12.552,0.486,18.721,1.971C185.836,243.415,188.788,245.104,190.013,249.029z"
			/>
		<path fill-rule="evenodd" clip-rule="evenodd" fill="#32302F" d="M271.005,263.997c-0.126,6.733-2.692,10.124-9.029,10.929
			c-13.536,1.721-27.129,1.948-40.658,0.025c-8.326-1.183-10.333-3.868-10.308-12.259c0.01-3.158-0.187-6.332,0.071-9.47
			c0.232-2.841-0.867-4.744-3.112-6.208c1.258-0.896,2.626-0.549,3.975-0.358c0.418,0.327,0.73,0.743,0.935,1.232
			c0.81,5.213,0.583,10.442,0.104,15.676c-0.01,0.107,0.136,0.303,0.241,0.33c0.144,0.037,0.318-0.05,0.494-0.077
			c2.122,5.146,7.323,6.114,11.466,8.492c3.274,1.105,6.471,0.235,9.683-0.419c4.355-0.506,8.706-0.514,13.05-0.038
			c2.788,0.997,5.79,0.671,8.645,1.312c0.102,0.023,0.333-0.123,0.348-0.216c0.022-0.141-0.092-0.304-0.146-0.47
			c0.465-1.181,1.445-1.293,2.507-1.247c0.855-0.313,1.543,1.438,2.475,0.186c0.401-0.834,1.134-1.053,1.961-1.098
			c0.763-0.016,1.438-0.203,1.81-0.972c0.447-0.958,1.212-1.574,2.117-2.047C269.271,266.727,268.569,263.747,271.005,263.997z"/>
		<path fill-rule="evenodd" clip-rule="evenodd" fill="#191715" d="M212.052,248.059c-0.006-0.347-0.013-0.693-0.019-1.04
			c2.479-5.431,7.745-4.776,12.284-5.444c4.041-0.595,8.18-0.387,12.237-1.033c11.155,0.201,22.366-0.915,33.424,1.469
			c1.637,1.208,2.165,2.951,2.019,4.832c-0.443,5.713,1.158,11.545-0.992,17.155c-2.085,0.515,0.602,4.639-3.02,3.992
			c-1.132-5.084-0.208-10.227-0.414-15.339c-0.249-6.176-1.539-7.982-7.496-8.072c-12.432-0.188-24.88-0.645-37.278,0.975
			c-3.267,0.427-5.918,2.029-8.658,3.575C213.072,249.494,212.515,248.868,212.052,248.059z"/>
		<path fill-rule="evenodd" clip-rule="evenodd" fill="#8B6A5D" d="M219.04,128.036c-18.596-0.201-36.426,3.167-53.246,11.479
			c4.372-4.2,9.864-6.327,15.925-8.959c-4.095-0.646-7.273,2.142-10.633,0.571c15.742-4.51,31.722-6.216,48.027-4.055
			c0.293,0.039,0.57,0.191,0.854,0.291C219.658,127.588,219.349,127.812,219.04,128.036z"/>
		<path fill-rule="evenodd" clip-rule="evenodd" fill="#333130" d="M178.018,272.142c4.679,1.197,7.981-0.649,10.974-6.14
			c0.503,4.044-1.885,6.306-5.193,7.507c-3.088,1.121-6.391,2.258-9.612,2.296c-11.763,0.141-23.588,1.269-35.271-0.896
			c-3.647-0.675-7.716-1.308-9.028-5.858c2.192-1.729,2.751,3.501,5.081,1.194c3.384-0.738,6.433,0.031,9.196,2.014
			c-0.502-0.481,0.678,0.631,0.037,0.491c-0.258-0.056-0.337,0.528-0.281,0.512c3.241-0.981,6.73-0.138,9.94-1.372
			c4.118-0.488,8.228-0.521,12.335-0.001c2.231,0.746,4.563,0.869,6.88,0.868c0.515-0.001,1.421,1.487,1.72-0.234
			C175.713,271.037,176.802,271.038,178.018,272.142z"/>
		<path fill-rule="evenodd" clip-rule="evenodd" fill="#3A3A3A" d="M236.077,241.08c-4.801,2.163-9.993,0.335-14.991,1.53
			c-3.503,0.838-6.484,2.002-9.053,4.408c-1.354-0.001-2.709-0.002-4.063-0.004c-6.266-1.819-12.295-1.544-17.957,2.015
			c-4.052-6.155-10.441-6.583-16.896-7.017c-3.076-0.207-6.284,0.744-9.22-0.906c0.74-1.108,2.138-0.169,2.98-0.959
			c7.586,0.966,15.731-0.499,22.236,5.167c1.132,0.986,2.191-0.033,3.253-0.341c2.54-0.734,5.38-2.886,7.601-1.82
			c9.718,4.664,18.021-3.209,27.238-2.6c2.188,0.145,4.556-0.679,6.893-0.431C234.621,240.725,235.664,240.252,236.077,241.08z"/>
		<path fill-rule="evenodd" clip-rule="evenodd" fill="#8D6C5F" d="M247.015,143.978c-8.841-3.087-17.584-6.532-27.021-7.464
			c-2.61-0.258-5.222-0.508-8.44-0.821c6.371-2.796,12.622-1.182,18.618-1.9c10.674,1.924,20.415,6.089,29.35,12.2
			c-5.453-0.95-9.636-4.926-14.933-6.273c-1.869-0.476-3.679-1.183-6.429-2.083c2.959,3.315,7.092,3.164,8.813,6.39L247.015,143.978
			z"/>
		<path fill-rule="evenodd" clip-rule="evenodd" fill="#451705" d="M275.031,241.958c3.388-0.778,3.056-3.988,3.77-6.271
			c0.881-2.816,1.924-5.543,2.927-8.306c1.197-3.296,2.596-3.914,5.148-1.451c-0.307,3.261-0.609,6.523-0.918,9.785
			c-0.097,1.016-0.243,2.103-1.592,2.021c-1.387-0.084-1.249-1.239-1.306-2.222c-0.072-1.271,1.436-2.356,0.272-3.97
			c-2.646,2.688-3.172,6.005-3.392,9.451c-0.091,1.434-0.647,2.599-2.22,2.863C276.246,244.108,275.04,243.845,275.031,241.958z"/>
		<path fill-rule="evenodd" clip-rule="evenodd" fill="#461705" d="M113.092,223.918c2.993-1.639,3.295,0.753,3.84,2.624
			c1.158,3.968,2.122,7.998,3.421,11.918c0.498,1.501,0.872,3.985,3.659,2.537c0.222,2.037-0.51,3.097-2.741,2.994
			c-2.125-0.098-2.065-1.499-2.323-3.04c-0.495-2.957-0.545-6.125-2.573-8.566c-1.246,0.437-1.011,1.057-0.848,1.686
			c0.356,1.378,1.199,3.337-0.895,3.562c-2.296,0.247-1.552-2.052-1.584-3.341C112.961,230.836,113.064,227.376,113.092,223.918z"/>
		<path fill-rule="evenodd" clip-rule="evenodd" fill="#793528" d="M282.991,243.116c0,1.955,0,3.91,0,5.782
			c2.026,0.565,3.018-2.782,4.893-0.981c0.717,0.688-0.661,1.294-0.959,1.999c-3.88,2.244-5.501,5.008-2.978,9.464
			c1.833,3.237,1.192,6.989,0.991,10.57c-0.311,0.369-0.643,0.389-0.995,0.059c0.337-3.03-0.295-5.972-1.179-8.802
			c-0.478-1.53-1.069-3.922-3.732-2.176C280.352,253.727,281.671,248.421,282.991,243.116z"/>
		<path fill-rule="evenodd" clip-rule="evenodd" fill="#535353" d="M166.877,240.147c-0.748,1.082-1.96,0.719-2.979,0.958
			c-7.988-0.014-15.979-0.162-23.961,0.016c-3.978,0.088-7.887,0.926-10.943,3.881c1.281-5.34,5.981-4.76,9.6-4.887
			C148.009,239.784,157.448,240.094,166.877,240.147z"/>
		<path fill-rule="evenodd" clip-rule="evenodd" fill="#535353" d="M236.077,241.08c-0.659-0.319-1.319-0.639-1.979-0.958
			c10.878,0.032,21.789-1.197,32.614,0.805c1.117,0.206,2.179,0.715,3.267,1.083c-0.362,0.291-0.823,0.903-1.072,0.826
			C258.105,239.501,247.024,241.521,236.077,241.08z"/>
		<path fill-rule="evenodd" clip-rule="evenodd" fill="#643522" d="M126.943,168.852c0.22,0.234,0.661,0.636,0.628,0.679
			c-2.709,3.587-3.575,8.703-8.566,10.401c-0.334,0.027-0.669,0.055-1.004,0.082c-1.373-4.035,3.029-5.2,4.009-8.065
			C123.411,170.528,124.955,169.336,126.943,168.852z"/>
		<path fill-rule="evenodd" clip-rule="evenodd" fill="#3E1403" d="M124.992,255.612c-0.553,1.22,0.962,4.111-1.415,3.696
			c-2.734-0.478-2.307-3.906-3.033-6.163c-0.504-1.569,0.235-2.075,1.659-2.126C125.79,250.893,124.741,253.588,124.992,255.612z"/>
		<path fill-rule="evenodd" clip-rule="evenodd" fill="#00172C" d="M231.003,360.812c1.235,0.315,2.232,0.429,3.099,0.826
			c1.112,0.509,2.9,0.842,2.32,2.562c-0.441,1.307-1.979,0.791-3.055,0.666c-0.96-0.112-1.889-0.488-2.832-0.739
			c-1.352-0.359-3.655,2.278-3.902-0.404C226.444,361.668,229.475,361.618,231.003,360.812z"/>
		<path fill-rule="evenodd" clip-rule="evenodd" fill="#00172E" d="M173.614,363.522c-0.06,0.875-0.707,1.634-1.174,1.257
			c-2.858-2.298-6.916,2.127-8.748-1.061c-0.89-1.547,2.806-2.043,4.51-2.507C170.395,360.614,172.289,361.742,173.614,363.522z"/>
		<path fill-rule="evenodd" clip-rule="evenodd" fill="#431604" d="M274.03,259.982c0-2.704-0.006-4.511,0.001-6.318
			c0.006-1.478,0.39-2.697,2.208-2.556c1.926,0.151,1.853,1.671,1.7,2.963C277.684,256.242,276.766,258.102,274.03,259.982z"/>
		<path fill-rule="evenodd" clip-rule="evenodd" fill="#785A4D" d="M122.011,171.948c0.211,3.458-4.009,4.713-4.009,8.065
			l0.014-0.015c-0.397,0.288-0.667,0.699-1.01,1.04c-0.751,0.846-1.503,1.691-2.949,3.32
			C115.372,178.497,118.101,174.839,122.011,171.948z"/>
		<path fill-rule="evenodd" clip-rule="evenodd" fill="#792E23" d="M118.91,258.115c-2.891,3.501-2.812,7.843-3.345,12.028
			c-0.989-5.028-1.352-9.931,2.282-14.175C118.808,256.383,118.954,257.202,118.91,258.115z"/>
		<path fill-rule="evenodd" clip-rule="evenodd" fill="#353535" d="M122.584,248.936c-1.208-0.221-3.152,0.5-3.264-1.32
			c-0.149-2.424,2.078-1.512,3.35-1.59c1.18-0.071,3.107-0.545,3.063,1.425C125.691,249.318,123.818,248.769,122.584,248.936z"/>
		<path fill-rule="evenodd" clip-rule="evenodd" fill="#313131" d="M277.259,245.92c1.121,0.156,2.686-0.177,2.514,1.597
			c-0.155,1.59-1.641,1.38-2.771,1.377c-1.121-0.004-2.69,0.23-2.717-1.391C274.252,245.433,276.108,246.143,277.259,245.92z"/>
		<path fill-rule="evenodd" clip-rule="evenodd" fill="#A58463" d="M272.131,276.133c-0.564-0.989,0.266-2.49-1.162-3.162
			c0.354-0.882,0.731-1.745,1.832-2.084C273.22,272.754,273.129,274.496,272.131,276.133z"/>
		<path fill-rule="evenodd" clip-rule="evenodd" fill="#0D0A08" d="M218.845,187.926c1.553-0.903,3.173-1.242,5.086-0.621
			c-1.187,1.166-2.518,1.486-3.958,1.527C219.597,188.53,219.221,188.228,218.845,187.926z"/>
		<path fill-rule="evenodd" clip-rule="evenodd" fill="#8C7054" d="M196.126,187.195c0.033,0.204,0.033,0.408,0,0.612
			c-0.813,0.258-1.589,0.242-2.297-0.303C194.536,186.96,195.313,186.941,196.126,187.195z"/>
		<path fill-rule="evenodd" clip-rule="evenodd" fill="#DC8D6A" d="M125.074,288.926c-0.907,0.086-1.712-0.051-2.153-0.985
			C123.933,287.623,124.802,287.622,125.074,288.926z"/>
		<path fill-rule="evenodd" clip-rule="evenodd" fill="#DC8D6A" d="M277.074,287.945c-0.376,0.838-1.092,1.066-1.929,1.076
			C275.237,287.676,276.074,287.665,277.074,287.945z"/>
		<path fill-rule="evenodd" clip-rule="evenodd" fill="#DC8D6A" d="M125.775,290.967c-0.739-0.506-0.846-1.228-0.699-2.037
			C125.936,289.394,125.96,290.145,125.775,290.967z"/>
		<path fill-rule="evenodd" clip-rule="evenodd" fill="#643522" d="M117.005,181.039c0.336-0.347,0.673-0.693,1.009-1.04
			C117.678,180.346,117.342,180.692,117.005,181.039z"/>
		<path fill-rule="evenodd" clip-rule="evenodd" fill="#FEFEC8" d="M193.405,97.867c-22.688,1.115-44.329-2.245-65.013-10.931
			c-10.253-4.307-19.6-9.807-24.694-20.495c-4.538-9.521-2.641-21.313,4.466-29.185c8.661-9.593,19.841-14.886,31.579-19.296
			c16.949-6.369,34.567-8.461,52.606-9.237c9.808-0.422,19.558-0.116,29.225,0.485c20.801,1.292,41.276,4.863,59.11,16.735
			c9.163,6.101,15.74,14.108,15.36,26.15c-0.33,10.464-6.012,17.766-13.755,23.69c-14.635,11.198-32.003,15.645-49.636,19.172
			C219.604,97.566,206.402,98.699,193.405,97.867z"/>
		<path fill-rule="evenodd" clip-rule="evenodd" fill="#050403" d="M199.25,325.998c-11.184,0.943-21.576-2.747-32.297-3.837
			c-1.699-0.173-2.434-1.303-1.591-2.796c0.81-1.435,1.997-2.851,4.009-1.942c18.541,8.372,37.513,6.285,56.566,2.386
			c1.522-0.312,2.624-1.205,3.708-2.315c0.975-0.999,2.164-0.427,3.098,0.416c0.898,0.811,1.552,1.741,1.232,3.056
			c-0.243,1.003-1.082,1.206-1.895,1.292C221.041,323.432,210.301,327.108,199.25,325.998z"/>
		<path fill-rule="evenodd" clip-rule="evenodd" fill="#7E3427" d="M214.895,302.846c-0.255-0.017-0.511-0.03-0.767-0.04
			c-3.273-1.274-6.548-2.558-9.292,1.017c-4.233,3.567-7.848,2.425-11.209-1.38c-1.137-1.288-2.259-3.363-4.433-1.595
			c-2.698,2.194-5.599,3.036-7.724-0.136c-1.979-2.953-0.384-5.81,1.778-8.464c0.921,1.4-0.137,2.172-0.292,3.084
			c-0.272,1.592-1.326,3.308,0.566,4.479c1.689,1.045,3.208,0.199,4.466-1.033c2.101-2.059,4.093-1.74,6.07,0.152
			c6.075,4.042,6.075,4.042,11.77-0.083c1.615-1.346,3.215-2.289,5.205-0.521c1.475,1.31,3.264,2.94,5.184,1.305
			c1.82-1.551,0.578-3.635-0.132-5.464c-0.277-0.713-0.486-1.452-0.891-2.674c4.446,4.089,4.813,6.76,1.831,10.555
			C216.419,302.588,215.55,302.431,214.895,302.846z"/>
		<path fill-rule="evenodd" clip-rule="evenodd" fill="#CC694F" d="M210.472,334.65c-7.26,2.149-14.511,2.14-21.766-1.31
			c7.235,0,14.47,0,21.706,0C210.431,333.777,210.451,334.214,210.472,334.65z"/>
		<path fill-rule="evenodd" clip-rule="evenodd" fill="#D1795B" d="M205.829,298.847c-4.901,6.961-6.746,6.974-11.77,0.083
			C197.99,300.03,201.915,300.215,205.829,298.847z"/>
		<path fill-rule="evenodd" clip-rule="evenodd" fill="#C58866" d="M204.836,303.822c3.012-4.945,3.012-4.945,9.292-1.016
			C211.031,303.145,207.934,303.483,204.836,303.822z"/>
		<path fill-rule="evenodd" clip-rule="evenodd" fill="#C58866" d="M214.895,302.846c0.711-0.267,1.422-0.532,2.132-0.799
			C216.499,302.801,215.813,303.136,214.895,302.846z"/>
		<path fill-rule="evenodd" clip-rule="evenodd" fill="#471805" d="M163.134,157.081c-1.014,0.529-2.028,1.058-3.09,1.611
			c4.286-7.192,30.762-24.882,38.958-25.475c-5.894,3.487-11.728,5.691-15.652,11.44c17.093-3.344,33.407-3.102,48.876,4.688
			c-4.257-0.053-8.123-2.289-12.431-2.228c-1.601,0.697-3.314,0.486-4.927,0.327c-17.237-1.708-33.247,3.008-48.975,9.23
			C164.975,157.04,164.174,157.737,163.134,157.081z"/>
		<path fill-rule="evenodd" clip-rule="evenodd" fill="#906F61" d="M163.134,157.081c13.871-7.283,28.606-11.129,44.306-10.901
			c4.124,0.06,8.24,0.611,12.357,0.938c-3.442,1.795-7.135,0.698-10.693,0.806c-9.725,0.292-18.905,2.391-28.739,7.663
			c6.299-0.479,10.572-3.964,16.956-3.274c-14.541,4.462-26.04,12.648-39.041,17.602c-1.73,0.659-3.42,1.243-5.293,1.065
			l0.035,0.033c7.615-4.336,14.175-10.139,22.193-15.716c-3.217-0.29-5.086,1.179-7.146,1.472
			C166.457,156.997,164.891,159.149,163.134,157.081z"/>
		<path fill-rule="evenodd" clip-rule="evenodd" fill="#8C695C" d="M257.834,174.116c-4.563,0.569-8.83-1.512-13.435-1.297
			c-5.936,0.278-11.849,0.164-17.464,2.684c4.232-4.099,9.799-5.12,15.431-6.47c-1.86-2.438-4.938-1.312-6.918-3.489
			c2.679-0.64,4.55,0.968,6.638,1.368C248.089,167.666,253.839,168.974,257.834,174.116z"/>
		<path fill-rule="evenodd" clip-rule="evenodd" fill="#491907" d="M257.834,174.116c-5.057-2.825-10.236-5.377-15.749-7.203
			c4.878-2.067,8.843,0.609,12.89,2.574c6.805,3.305,9.15,5.564,13.063,12.53C264.109,179.064,261.705,175.574,257.834,174.116z"/>
		<path fill-rule="evenodd" clip-rule="evenodd" fill="#491A07" d="M228.118,171.097c-9.056,1.756-17.588,0.816-25.193-4.896
			C211.084,169.063,219.671,169.719,228.118,171.097z"/>
		<path fill-rule="evenodd" clip-rule="evenodd" fill="#886456" d="M246.989,153.322c7.888-0.1,14.685,2.582,20.343,8.164
			C260.74,158.284,254,155.459,246.989,153.322z"/>
		<path fill-rule="evenodd" clip-rule="evenodd" fill="#8A685A" d="M137.952,162.025c-0.047-4.744,3.767-7.857,5.08-12.027
			c2.713-1.419,4.034-4.643,8.296-6.222C145.724,150.053,141.68,155.929,137.952,162.025z"/>
		<path fill-rule="evenodd" clip-rule="evenodd" fill="#866354" d="M158.88,148.628c1.973-3.818,5.545-5.613,9.237-7.263
			C165.934,144.873,161.925,146.117,158.88,148.628z"/>
		<path fill-rule="evenodd" clip-rule="evenodd" fill="#8D6C5F" d="M246.974,144.025c0.447,0.109,0.895,0.218,1.342,0.326
			c-0.738,0.938-0.962,0.081-1.301-0.374L246.974,144.025z"/>
		<path fill-rule="evenodd" clip-rule="evenodd" fill="#8A685A" d="M137.142,163.955c0.002-0.791-0.08-1.618,0.859-2.01
			C137.715,162.615,137.429,163.285,137.142,163.955z"/>
		<path fill-rule="evenodd" clip-rule="evenodd" fill="#906F61" d="M152.986,170.979c-0.067,0.13-0.135,0.261-0.203,0.391
			c0.079-0.119,0.158-0.238,0.237-0.357L152.986,170.979z"/>
		<path fill-rule="evenodd" clip-rule="evenodd" fill="#866355" d="M122.992,194.993c-0.623-0.326-1.938,2.628-1.759-0.084
			c0.172-2.6,0.408-5.418,1.83-7.833c1.885-1.042,2.138-3.68,4.869-4.58c-1.564,3.299-3.349,6.156-4.017,9.433
			c-0.791,0.877-0.046,2.216-0.923,3.066L122.992,194.993z"/>
		<path fill-rule="evenodd" clip-rule="evenodd" fill="#835F52" d="M125.985,196.961c-0.706,3.728-1.412,7.455-2.141,11.306
			c-1.199-0.681-0.749-1.615-0.967-2.336C123.667,202.855,123.525,199.457,125.985,196.961z"/>
		<path fill-rule="evenodd" clip-rule="evenodd" fill="#643522" d="M122.006,186.006c0.047-1.256-0.12-2.603,1.442-3.467
			c0.399,1.702-0.482,2.599-1.453,3.458L122.006,186.006z"/>
		<path fill-rule="evenodd" clip-rule="evenodd" fill="#643522" d="M122.991,194.995c-0.006-1.116-0.158-2.277,0.924-3.065
			C123.967,193.06,124.19,194.242,122.991,194.995z"/>
		<path fill-rule="evenodd" clip-rule="evenodd" fill="#835F52" d="M126.141,195.161c1.108,0.73,0.798,1.319-0.184,1.841
			C126.019,196.389,126.08,195.774,126.141,195.161z"/>
		<path fill-rule="evenodd" clip-rule="evenodd" fill="#A86048" d="M283.943,270.009c0.334,0.021,0.666,0.001,0.996-0.059
			c0.025,0.979-0.166,1.874-1.113,2.369c-0.139,0.072-0.611-0.146-0.664-0.314C282.895,271.161,283.251,270.506,283.943,270.009z"/>
		<path fill-rule="evenodd" clip-rule="evenodd" fill="#FECB98" d="M167.08,273.188c-4.717-0.005-9.435-0.009-14.153-0.014
			c-2.923,0.261-5.861,0.927-8.728-0.325c-3.077-0.868-6.154-1.736-9.231-2.604c-2.349-1.406-3.375-3.574-3.481-6.217
			c-0.174-4.31-0.091-8.642-0.494-12.929c-0.479-5.097,1.917-7.501,6.682-7.775c14.27-0.823,28.548-0.909,42.699,1.359
			c6.47,1.037,7.118,2.413,6.439,9.238c-5.64,2.91-11.92,2.778-17.947,3.296c-7.775,0.667-15.635,0.426-23.463,0.131
			c6.757,1.882,13.67,1.438,20.522,0.79c5.619-0.533,11.256-1.133,16.779-2.47c1.394-0.337,2.947-0.825,4.313,0.286
			c0.001,2.146-0.153,4.307,0.036,6.437c0.415,4.69-1.69,7.551-6.054,8.944c-0.418,0.137-0.816,0.319-1.193,0.547
			c-0.596,0.086-1.192,0.172-1.788,0.259c-1.153-0.165-2.21,0.076-3.168,0.741C172.299,273.981,169.687,273.514,167.08,273.188z"/>
		<path fill-rule="evenodd" clip-rule="evenodd" fill="#0A0806" d="M187.017,255.955c-11.81,3.036-23.781,4.704-35.996,4.005
			c-2.64-0.15-5.281-0.646-7.863-1.24c-1.032-0.237-2.294-0.981-1.955-2.456c0.302-1.313,1.514-1.116,2.458-0.964
			c13.146,2.106,26.169,0.843,39.173-1.302c1.295-0.214,2.651-0.06,3.979-0.076c2.134,0.698,2.134,0.698,1.718,4.786
			c-0.327-1.392-0.483-2.118-0.684-2.833c-0.028-0.098-0.286-0.195-0.425-0.181C187.28,255.71,187.151,255.862,187.017,255.955z"/>
		<path fill-rule="evenodd" clip-rule="evenodd" fill="#333130" d="M179.806,271.883c0.398-0.183,0.795-0.365,1.193-0.547
			C180.602,271.519,180.204,271.7,179.806,271.883z"/>
		<path fill-rule="evenodd" clip-rule="evenodd" fill="#FECB98" d="M213.096,249.16c1.528-3.909,5.127-4.489,8.527-4.888
			c13.032-1.526,26.129-1.767,39.222-1.15c7.388,0.347,8.628,1.774,8.398,9.097c-0.164,5.267,0.412,10.615-1.258,15.77
			c-0.659,0.669-1.318,1.337-1.978,2.006c-0.454,0.754-0.874,1.571-1.999,1.053c-0.865-0.096-1.595,0.163-2.167,0.831
			c-0.511,0.75-1.139,0.646-1.806,0.246c-1.179-0.143-2.312-0.056-3.316,0.665c-2.5,1.247-5.086,0.72-7.663,0.376
			c-5.044,0.007-10.088,0.014-15.132,0.021c-2.919,0.231-5.857,0.932-8.716-0.348c-1.586-0.43-3.16-0.908-4.759-1.28
			c-4.153-0.967-6.633-3.486-7.32-7.722c-1.764-8.582-1.286-8.961,6.963-7.552c9.496,1.623,19.059,2.8,28.737,2.207
			c1.968-0.121,3.969-0.18,5.962-1.283c-12.801,0.654-25.336,0.585-37.805-1.694C212.902,254.767,211.445,253.089,213.096,249.16z"
			/>
		<path fill-rule="evenodd" clip-rule="evenodd" d="M213.096,249.16c-0.423,2.932-0.149,4.484,3.766,4.998
			c13.081,1.714,26.096,3.289,39.268,1.182c0.969-0.155,2.184-0.361,2.506,0.905c0.368,1.451-0.899,2.238-1.94,2.454
			c-2.926,0.605-5.9,1.154-8.877,1.298c-11.675,0.564-23.124-1.239-34.688-3.813c0,2.693,0,5.172,0,7.65
			c-0.147,0.643-0.296,1.284-0.443,1.927c-0.212,0.008-0.424,0.016-0.636,0.024c0-5.91,0-11.819,0-17.729
			C212.399,248.426,212.747,248.793,213.096,249.16z"/>
		<path fill-rule="evenodd" clip-rule="evenodd" fill="#060504" d="M225.209,272.838c2.905,0.116,5.811,0.232,8.716,0.348
			c-3.087,1.577-6.38,0.5-9.57,0.727c-0.061,0.005-0.205-0.295-0.193-0.305C224.501,273.339,224.856,273.09,225.209,272.838z"/>
		<path fill-rule="evenodd" clip-rule="evenodd" fill="#110F0C" d="M249.057,273.165c2.554-0.126,5.108-0.251,7.662-0.376
			c0.401,0.314,1.369,0.958,1.048,0.959C254.862,273.754,251.839,274.869,249.057,273.165z"/>
		<path fill-rule="evenodd" clip-rule="evenodd" fill="#110F0C" d="M264.009,271.047c0.666-0.351,1.332-0.702,1.999-1.053
			c0.749,0.54,0.447,1.035-0.117,1.431C265.164,271.936,264.478,271.963,264.009,271.047z"/>
		<path fill-rule="evenodd" clip-rule="evenodd" fill="#110F0C" d="M260.036,272.124c0.602-0.082,1.203-0.164,1.806-0.246
			c0.264,0.296,0.827,0.666,0.111,0.942C261.213,273.106,260.474,272.91,260.036,272.124z"/>
		<path fill-rule="evenodd" clip-rule="evenodd" fill="#050404" d="M144.199,272.849c2.909,0.108,5.818,0.217,8.728,0.325
			c-3.513,1.727-7.174,0.427-11.368,0.802c-0.004,0.002,0.375-1.121,0.798-0.815C142.712,273.416,143.566,272.979,144.199,272.849z"
			/>
		<path fill-rule="evenodd" clip-rule="evenodd" fill="#040303" d="M167.08,273.188c2.59-0.102,5.18-0.203,7.771-0.305
			c0.149,0.063,0.299,0.127,0.449,0.189c0.415,0.172,0.81,0.813,0.349,0.794C172.789,273.748,169.816,274.779,167.08,273.188z"/>
		<path fill-rule="evenodd" clip-rule="evenodd" fill="#FEFEB2" d="M194.683,95.995c-26.024-1.071-50.098-3.259-72.038-15.185
			c-8.224-4.471-15.106-10.325-17.63-19.849c-2.71-10.225,1.906-20.534,11.833-27.931c11.562-8.614,24.832-13.185,38.496-16.944
			c11.024-3.032,22.366-3.232,33.647-4.345c11.527-1.137,22.903-0.407,34.254,0.416c19.279,1.397,38.293,4.701,54.881,15.616
			c20.452,13.458,19.925,35.2-0.993,48.133c-15.817,9.78-33.354,14.328-51.547,17.218C214.741,94.848,203.797,94.648,194.683,95.995
			z"/>
		<path fill-rule="evenodd" clip-rule="evenodd" fill="#FBD001" d="M163.011,23.294c-0.394-0.408-2.021,0.146-1.04-1.334
			c1.566-2.484,4.37-2.501,6.675-2.766c28.935-3.324,57.801-4.01,86.185,4.015c10.78,3.049,21.181,7.149,29.233,15.46
			c6.193,6.393,7.026,13.266,2.596,20.962c-3.616,6.279-9.126,10.47-15.426,13.802c-18.119,9.582-37.644,14.085-57.876,15.781
			c-27.293,2.29-54.227,0.932-80.158-9.051c-6.245-2.404-12.161-5.382-17.359-9.691c-10.638-8.818-10.663-21.412,0.045-30.335
			c8.984-7.486,19.303-12.307,30.603-15.125c3.167,0.56,3.508,1.979,0.704,3.466c-3.822,2.025-8.121,2.953-12.091,4.663
			c-5.816,2.102-10.699,5.762-15.629,9.352c5.033-2.485,10.382-4.174,15.502-6.416c4.034-2.338,8.809-1.836,13.037-3.429
			c0.443-0.178,0.903-0.293,1.373-0.368c3.808,1.61,7.65,1.043,11.502,0.155c0.925,0.435,1.55,1.182,2.114,1.999
			c0.572,1.282,2.039,2.405,0.754,4.034c-8.074,2.305-16.229,4.345-24.058,7.466c-4.935,1.967-9.8,3.983-13.427,8.102
			c-2.779,3.154-3.883,6.48-1.16,10.246c6.883,7.949,16.613,10.344,26.034,13.287c2.192,0.685,4.518,0.976,6.82,1.272
			c5.736,0.97,11.498,1.736,17.255,2.498c4.47,0.591,9.016,0.516,13.307-1.024c9.43-3.384,18.854-4.656,28.753-1.867
			c9.333,2.629,18.426-0.108,27.461-2.285c9.445-1.869,17.765-6.031,25.006-12.369c0.291-0.402,0.591-0.791,0.872-1.202
			c0.235-0.467,0.481-0.916,0.707-1.384c1.936-6.36,0.709-9.556-5.477-13.123c-6.532-3.767-13.612-6.056-20.983-7.698
			c-19.017-4.235-38.295-4.321-57.593-3.836c-6.596,0.166-13.131,1.765-19.798,1.314c-2.223-1.084-3.692-2.709-3.79-5.311
			c1.416-2.535,3.968-2.697,6.384-2.813c3.11-0.149,6.178-0.533,9.242-1.017c0.543-0.052,1.09-0.065,1.635-0.066
			c1.904,0.075,3.778-0.103,5.607-0.688c2.25-0.421,4.52-0.451,6.797-0.398c9.596,0.923,19.182-1.729,28.77-0.099
			c10.124,1.817,20.363-0.147,31.407,1.296c-3.332-3.934-7.383-3.298-10.799-4.295c-2.12-0.087-4.113-0.929-6.236-0.99
			c-3.075-0.037-6.017-1.18-9.111-1.065c-10.079-1.269-20.153-2.535-30.352-2.042c-1.997,0.097-3.998,0.016-5.926,0.667
			c-7.83,0.347-15.577,1.387-23.283,2.79C166.184,24.13,164.508,24.41,163.011,23.294z"/>
		<path fill-rule="evenodd" clip-rule="evenodd" fill="#C08804" d="M146.756,25.985c-10.712,3.272-20.88,7.591-29.585,14.89
			c-9.739,8.165-11.809,19.77-0.038,28.917c12.19,9.474,26.678,13.104,41.332,16.155c14.707,3.062,29.68,3.809,44.607,2.893
			c23.631-1.449,46.818-5.199,67.996-16.815c3.802-2.085,7.418-4.401,10.345-7.665c9.869-11.004,8.801-20.916-3.351-29.253
			c-11.314-7.762-24.187-11.634-37.497-13.975c-14.903-2.621-29.999-3.817-45.108-2.963c-11.203,0.634-22.541,0.653-33.486,3.791
			c-0.112-2.524,1.763-2.726,3.573-3.292c5.148-1.612,10.501-1.965,15.779-2.252c25.166-1.367,50.269-1.512,74.814,5.628
			c8.37,2.436,16.267,5.904,23.454,10.829c14.683,10.059,15.094,25.535,0.999,36.355c-12.176,9.347-26.427,14.01-41.125,17.111
			c-33.194,7.005-66.353,7.64-99.183-2.327c-8.933-2.712-17.643-6.02-24.976-12.082c-11.131-9.203-12.111-21.555-1.812-31.504
			c9.035-8.728,20.236-13.795,32.519-16.411c0.209,0.096,0.419,0.191,0.629,0.286C147.065,24.837,147.581,25.365,146.756,25.985z"/>
		<path fill-rule="evenodd" clip-rule="evenodd" fill="#FEFDEE" d="M163.011,23.294c9.177-1.878,18.382-3.535,27.804-3.42
			c5.965-0.785,11.957-0.198,17.935-0.326c1.366-0.029,3.32-0.646,3.659,1.506c0.287,1.827-0.795,3.163-2.51,3.878
			c-1.079,0.449-2.27,0.533-3.355,0.974c-0.881,0.27-1.785,0.41-2.703,0.439c-8.48,0.056-16.961,0.153-25.358,1.55
			c-4.743,0.814-9.54,1.335-14.237,2.403c-4.683,3.097-10.166,1.736-15.231,2.725h0.001c-2.754,1.094-2.505-0.533-1.767-2.129
			c1.018-2.198,2.47-4.151,4.156-5.913c0.452-0.235,0.915-0.268,1.389-0.068C156.2,24.373,159.605,23.833,163.011,23.294z"/>
		<path fill-rule="evenodd" clip-rule="evenodd" fill="#C59110" d="M152.794,24.912l-0.346-0.053l-0.345,0.061
			c-2.278,1.22-4.196,0.074-6.136-0.933l0.045,0.029c1.583-1.585,3.653-2.087,5.732-2.14
			C154.789,21.799,153.866,23.4,152.794,24.912z"/>
		<path fill-rule="evenodd" clip-rule="evenodd" fill="#C18904" d="M167.189,37.065c15.177-1.919,30.441-2.76,45.69-1.933
			c18.359,0.996,36.842,2.298,53.357,11.639c8.924,5.048,9.563,10.309,5.744,16.195c-0.338,0.335-0.642,0.704-0.999,1.021
			l0.006-0.016c-2.981-0.557-5.587,0.21-8.365,1.5c-8.689,4.034-17.926,6.448-27.31,8.3c-0.702,0.197-1.418,0.32-2.14,0.409
			c-1.204,0.115-2.383,0.357-3.544,0.706c-1.452,0.344-2.934,0.377-4.413,0.443c-1.271-0.022-2.484,0.289-3.697,0.625
			c-1.832,0.393-3.691,0.393-5.551,0.451c-1.718-0.199-3.317,0.456-4.979,0.688c-6.137-0.556-12.234,0.349-18.35,0.487
			c-8.139,0.185-16.211-0.476-24.271-1.344c-10.515-2.012-21.139-3.633-31.183-7.624c-0.613-0.244-1.239-0.459-1.861-0.681
			c-3.676-1.304-6.858-4.477-11.274-2.987c-3.391-3.921-2.186-7.685,0.639-11.154c1.767-2.17,3.816-4.152,6.427-5.404
			c10.483-5.029,21.315-8.959,32.907-10.517C164.883,36.828,166.045,36.982,167.189,37.065z"/>
		<path fill-rule="evenodd" clip-rule="evenodd" fill="#EEBA00" d="M232.979,73.066c0.671-0.023,1.342-0.047,2.013-0.07
			c4.001,0.407,8.21,0.241,11.001,3.986c-10.972,3.845-22.139,5.476-33.486,2.022c-6.775-2.062-13.207-0.831-19.398,1.557
			c-8.764,3.38-17.537,2.528-26.406,1.171c-3.25-0.498-6.475-1.164-9.711-1.754c1.491-4.354,4.247-5.729,10.037-5.004
			c14.946,1.368,29.931,0.974,44.906,0.995c1.193-0.981,2.836,0.076,4.033-0.889c2.006-0.029,4.013-0.059,6.019-0.087
			c0.819-0.883,2.164-0.072,2.991-0.93c1.664-0.043,3.329-0.085,4.994-0.127C230.999,73.737,232.063,73.656,232.979,73.066z"/>
		<path fill-rule="evenodd" clip-rule="evenodd" fill="#DFAA00" d="M167.026,74.975c-4.118,0.119-7.487,1.74-10.037,5.005
			c-10.209-1.095-19.255-5.481-28.187-10.107c-2.036-1.054-3.681-2.788-4.751-4.926c3.344,0.307,3.187-1.277,0.314-4.729
			c13.061,8.903,26.232,11.488,39.503,13.746C164.989,74.154,166.219,73.858,167.026,74.975z"/>
		<path fill-rule="evenodd" clip-rule="evenodd" fill="#ECB800" d="M245.992,76.982c-3.677-1.303-7.561-2.032-11.001-3.986
			c7.043-2.045,14.117-3.994,21.116-6.183c2.807-0.877,5.728-1.885,8.094-3.548c2.781-1.954,4.761-1.854,6.787,0.706
			C264.081,71.046,255.585,75.067,245.992,76.982z"/>
		<path fill-rule="evenodd" clip-rule="evenodd" fill="#FDED7D" d="M204.021,25.021c0.656-0.015,1.313-0.029,1.968-0.043
			c4.963-0.938,9.94-1.577,15.02-1.429c2.584,0.075,5.348,0.19,6.989-2.537c2.993,0.363,5.986,0.728,8.98,1.091
			c2.188,1.231,2.425,2.964,1.3,5.047c-2.359,1.676-4.914,1.155-7.461,0.632c-2.775-0.57-5.46-0.559-7.907,1.132
			c-9.973-1.278-19.95,0.664-29.923-0.054c0.86-2.794,3.302-1.929,5.212-2.21C200.217,26.353,202.484,27.021,204.021,25.021z"/>
		<path fill-rule="evenodd" clip-rule="evenodd" fill="#FBE02A" d="M222.909,28.914c1.296-3.494,4.27-3.211,6.902-2.61
			c2.741,0.626,5.437,0.662,8.179,0.655c2.594-0.127,5.363-0.03,4.993-3.926c3.211,0.778,6.437,1.5,9.627,2.355
			c2.088,0.561,3.128,2.362,2.658,4.183c-0.595,2.306-2.482,0.669-3.763,0.459c-4.251-0.694-8.375-0.822-12.765-0.295
			C233.571,30.357,228.195,29.264,222.909,28.914z"/>
		<path fill-rule="evenodd" clip-rule="evenodd" fill="#FEF6B8" d="M227.997,21.013c1.947,4.388-1.784,3.812-3.797,3.891
			c-6.062,0.238-12.14,0.079-18.212,0.075c1.491-1.817,6.206-0.195,5.354-3.664c-0.653-2.661-4.337-0.997-6.633-1.148
			c-4.618-0.304-9.262-0.217-13.895-0.292c7.642-1.514,15.352-0.55,23.019-0.449C218.562,19.487,223.276,20.453,227.997,21.013z"/>
		<path fill-rule="evenodd" clip-rule="evenodd" fill="#FDED7B" d="M145.967,23.987c2.044,0.312,4.088,0.622,6.134,0.934
			c-1.281,2.086-2.464,4.244-3.883,6.233c-0.94,1.318-0.344,1.62,0.797,1.868c-4.156,3.146-9.479,2.153-14.014,3.959
			c-1.677-1.347-2.467-2.854-0.868-4.795c4.303-1.621,8.624-3.195,12.899-4.888c1.669-0.66,1.178-1.153-0.275-1.313
			C146.493,25.319,146.23,24.653,145.967,23.987z"/>
		<path fill-rule="evenodd" clip-rule="evenodd" fill="#FEF6B8" d="M204.021,25.021c0.191,2.52-1.306,2.854-3.396,2.947
			c-2.552,0.113-5.254-0.72-7.639,0.892c-2.291,0.093-4.581,0.186-6.872,0.279c-1.65,0.79-3.509-0.08-5.167,0.647l-0.425,0.062
			l-0.43-0.008c-1.034-0.712-1.722-1.678-2.109-2.865C186.521,24.456,195.293,25.024,204.021,25.021z"/>
		<path fill-rule="evenodd" clip-rule="evenodd" fill="#FDE247" d="M134.134,32.187c0.29,1.599,0.579,3.196,0.868,4.795
			c-6.071,2.675-12.143,5.35-18.214,8.024c-0.199-0.401-0.398-0.803-0.598-1.204C121.437,38.853,127.49,35.088,134.134,32.187z"/>
		<path fill-rule="evenodd" clip-rule="evenodd" fill="#FDEA6F" d="M177.982,26.976c1.835,0.122,2.067,1.425,2.109,2.865
			c-5.132,2.22-11.244-0.47-16.086,3.206c0.792,2.076,0.194,2.752-1.917,1.901c-0.439-0.594-0.879-1.188-1.318-1.781
			c1.158-1.129,0.515-3.239,2.22-4.07C167.935,28.017,172.895,27.047,177.982,26.976z"/>
		<path fill-rule="evenodd" clip-rule="evenodd" fill="#FDED7B" d="M162.99,29.097c-0.881,1.279,0.096,3.57-2.219,4.069
			c-3.949,2.362-7.854,1.231-11.756-0.144c1.345-1.463,3.262-1.994,4.952-1.685C157.42,31.971,160.262,30.962,162.99,29.097z"/>
		<path fill-rule="evenodd" clip-rule="evenodd" fill="#FBE655" d="M242.983,23.033c0.436,1.366,2.944,2.499,1.11,4.053
			c-1.775,1.505-4.099,1.52-6.104-0.127c0.094-1.709,0.029-3.385-1.013-4.856C238.979,22.413,240.981,22.723,242.983,23.033z"/>
		<path fill-rule="evenodd" clip-rule="evenodd" fill="#ECCA3A" d="M162.088,34.948c1.292,0.023,1.87-0.672,1.917-1.902
			c1.061,1.341,2.121,2.68,3.183,4.02c-0.834,1.128-2.007,0.936-3.163,0.806C163.379,36.896,162.734,35.922,162.088,34.948z"/>
		<path fill-rule="evenodd" clip-rule="evenodd" fill="#FDEA6F" d="M180.947,29.787c1.577-1.375,3.4-0.782,5.167-0.648
			C184.525,30.422,182.716,29.946,180.947,29.787z"/>
		<path fill-rule="evenodd" clip-rule="evenodd" fill="#ECB800" d="M270.982,63.987c0.333-0.341,0.666-0.681,0.999-1.021
			C271.648,63.307,271.315,63.646,270.982,63.987z"/>
		<path fill-rule="evenodd" clip-rule="evenodd" fill="#FEFEAB" d="M173.023,39.082c20.953-1.779,41.89-2.086,62.766,0.934
			c3.442,0.498,6.826,1.398,10.237,2.112c2.618,1.02,5.22,2.091,7.814,3.162c4.038,1.667,7.262,4.388,7.746,8.995
			c0.477,4.533-2.476,7.352-5.911,9.688c-0.546,0.371-1.184,0.607-1.659,1.09c-10.85,4.329-22.262,6.489-33.761,7.679
			c-22.189,2.294-44.368,2.142-66.295-2.722c-3.698-0.82-7.306-2.043-10.955-3.08c-11.89-7.269-9.486-15.046,1.907-21.261
			c7.304-3.505,15.312-4.234,23.094-5.854C169.598,39.034,171.46,40.068,173.023,39.082z"/>
		<path fill-rule="evenodd" clip-rule="evenodd" fill="#FEFD9A" d="M254.017,65.063c0.948-1.142,1.826-2.351,2.856-3.414
			c5.432-5.605,4.664-10.835-2.195-14.795c-2.847-1.645-6.299-2.181-8.652-4.727c8.185,1.591,15.903,4.285,22.554,9.512
			c3.07,2.412,3.329,4.582-0.241,6.918C263.879,61.476,259.29,63.992,254.017,65.063z"/>
		<path fill-rule="evenodd" clip-rule="evenodd" fill="#FEFD99" d="M144.912,45.68c-1.747,1.716-3.517,3.407-5.235,5.15
			c-4.802,4.874-4.706,7.817,0.159,12.563c1.123,1.096,3.102,1.497,3.17,3.548c-5.278-1.028-9.943-3.409-14.454-6.263
			c-3.911-2.474-3.301-4.774-0.13-7.198C133.357,49.707,138.863,47.111,144.912,45.68z"/>
		<path fill-rule="evenodd" clip-rule="evenodd" fill="#ECCA3A" d="M173.023,39.082c-1.523,1.26-3.281,0.934-5.018,0.744
			C169.526,38.549,171.305,39.017,173.023,39.082z"/>
		<path fill-rule="evenodd" clip-rule="evenodd" fill="#ECB800" d="M232.979,73.066c-0.852,0.812-1.605,1.962-3.009,0.871
			C230.732,72.815,231.88,73.025,232.979,73.066z"/>
		<path fill-rule="evenodd" clip-rule="evenodd" fill="#ECB800" d="M215.966,75.081c-1.105,1.376-2.645,0.79-4.032,0.889
			C213.053,74.655,214.562,75.106,215.966,75.081z"/>
		<path fill-rule="evenodd" clip-rule="evenodd" fill="#ECB800" d="M224.976,74.064c-0.744,1.122-1.906,0.901-2.991,0.93
			C222.735,73.893,223.874,74.038,224.976,74.064z"/>
		<path fill-rule="evenodd" clip-rule="evenodd" fill="#FEFECF" d="M254.996,54.473c0.204,4.006-2.221,5.805-5.063,6.99
			c-8.638,3.602-17.884,4.754-26.974,6.594c-9.032,1.829-18.304,1.633-27.246,1.504c-15.274-0.221-30.873-0.161-45.666-5.428
			c-1.561-0.556-3.133-1.149-4.576-1.949c-4.934-2.732-5.243-7.225-0.634-10.628c5.672-4.189,12.569-5.256,19.194-6.404
			c15.553-2.695,31.299-3.916,47.078-3.058c11.217,0.61,22.449,1.654,33.419,4.309c2.542,0.614,5.021,1.823,7.279,3.174
			C253.63,50.667,255.343,52.228,254.996,54.473z"/>
		<path fill-rule="evenodd" clip-rule="evenodd" fill="#FEFEF1" d="M199.992,47.049c12.824-0.255,24.372,0.529,35.782,2.917
			c0.487,0.102,1.038,0.061,1.464,0.274c2.391,1.205,6.4,0.786,6.534,4.381c0.142,3.798-3.748,4.195-6.431,5.087
			c-8.382,2.786-17.081,3.868-25.876,4.298c-6.954,0.339-13.884,1.667-20.859,0.953c-10.511-1.075-21.19-0.784-31.462-3.898
			c-2.618-0.794-5.661-1.401-5.882-4.48c-0.213-2.983,2.909-3.813,5.146-4.708c6.052-2.421,12.559-3.079,18.929-3.709
			C185.24,47.382,193.183,46.222,199.992,47.049z"/>
	</g>
</g>
</svg>
