<?xml version="1.0" encoding="UTF-8" standalone="no"?>
<svg
   xmlns:dc="http://purl.org/dc/elements/1.1/"
   xmlns:cc="http://creativecommons.org/ns#"
   xmlns:rdf="http://www.w3.org/1999/02/22-rdf-syntax-ns#"
   xmlns:svg="http://www.w3.org/2000/svg"
   xmlns="http://www.w3.org/2000/svg"
   version="1.1"
   id="Layer_1"
   x="0px"
   y="0px"
   width="378.66916"
   height="301.57758"
   viewBox="0 0 378.66916 301.57758"
   enable-background="new 0 0 400 400"
   xml:space="preserve"><metadata
   id="metadata319"><rdf:RDF><cc:Work
       rdf:about=""><dc:format>image/svg+xml</dc:format><dc:type
         rdf:resource="http://purl.org/dc/dcmitype/StillImage" /><dc:title></dc:title></cc:Work></rdf:RDF></metadata><defs
   id="defs317" />
<g
   id="g312"
   transform="translate(-12.928292,-84.200629)">
	<g
   id="g310">
		<path
   fill-rule="evenodd"
   clip-rule="evenodd"
   d="m 100.932,206.004 c -7.793,-10.701 -15.665,-21.347 -23.31,-32.153 -1.458,-2.061 -4.855,-3.557 -3.114,-7.146 0.073,-0.15 -0.439,-0.812 -0.767,-0.896 -7.078,-1.833 -12.254,-8.879 -20.566,-7.431 -1.584,0.275 -3.314,-0.119 -4.954,-0.361 -1.783,-0.263 -3.178,-1.161 -3.213,-3.171 -0.04,-2.229 1.415,-3.352 3.412,-3.568 2.618,-0.285 5.266,-0.295 8.694,-0.461 -3.604,-2.419 -7.302,-2.721 -10.494,-4.201 -2.019,-0.937 -4.193,-1.94 -3.271,-4.716 0.89,-2.682 2.856,-3.274 5.58,-2.383 3.127,1.023 6.37,1.695 10.04,1.81 -3.093,-2.473 -6.25,-4.868 -9.256,-7.441 -2.061,-1.765 -4.183,-3.826 -1.739,-6.706 2.211,-2.604 4.463,-1.103 6.563,0.394 3.498,2.493 6.978,5.01 10.466,7.517 0.791,-0.342 0.233,-0.753 0.058,-1.144 -1.751,-3.389 -3.6,-6.73 -5.221,-10.18 -1.131,-2.407 -2.41,-5.106 0.95,-6.887 3.443,-1.825 4.833,0.825 6.106,3.193 2.525,4.695 5.08,9.37 8.692,13.333 0.929,1.02 1.691,2.909 3.419,2.352 1.507,-0.486 0.982,-2.283 1.154,-3.541 0.419,-3.072 1.578,-5.776 3.877,-7.893 1.292,-1.188 2.8,-1.86 4.54,-0.908 1.858,1.019 1.885,2.74 1.194,4.342 -1.754,4.069 -1.337,7.921 0.002,12.078 1.438,4.465 0.088,9.228 0.191,14.285 3.373,-1.792 5.127,-0.051 7.056,2.35 9.26,11.523 18.31,23.237 28.851,33.665 0.813,0.488 1.606,0.999 2.235,1.726 8.712,10.484 17.82,20.674 25.463,31.985 3.273,4.844 7.615,5.354 12.631,4.799 2.072,-0.229 2.729,-1.124 1.218,-2.896 -0.324,-0.381 -0.646,-0.773 -1.03,-1.085 -9.16,-7.421 -12.095,-17.531 -12.457,-28.765 0.105,-0.766 0.382,-1.447 0.964,-1.979 0.239,-2.906 0.161,-4.904 -2.835,-7.361 -9.987,-8.188 -12.23,-30.086 -4.935,-36.343 2.365,-2.028 2.054,-4.973 1.775,-7.461 -1.006,-8.984 2.187,-17.325 3.557,-25.932 0.717,-4.505 3.437,-8.109 7.536,-9.966 3.826,-1.733 6.085,-4.565 8.44,-7.814 5.772,-7.959 14.251,-11.461 23.608,-13.398 15.8,-3.271 30.84,-0.751 45.509,5.152 0.118,1.424 -0.719,1.106 -1.191,1.181 -0.643,0.1 -1.302,0.088 -3.074,0.187 10.403,4.935 19.166,10.778 24.236,20.046 4.398,8.04 6.446,16.867 4.998,26.564 -1.056,7.068 -3.216,13.809 -4.352,20.8 -0.129,0.792 -0.317,1.808 0.042,2.41 6.625,11.128 1.238,20.292 -4.786,29.299 -1.188,1.775 -2.898,3.201 -4.368,4.788 -0.875,0.837 -1.194,2.221 -2.538,2.598 -0.361,0.15 -0.737,0.271 -1.108,0.385 -0.771,0.276 -1.261,0.833 -1.545,1.599 -0.934,3.536 -2.063,6.999 -3.111,10.487 -2.228,7.416 -6.781,13.112 -13.071,17.653 5.055,2.976 7.058,2.704 10.832,-0.456 6.371,-5.334 11.352,-12.034 17.526,-17.549 0.81,-0.87 1.871,-1.339 2.919,-1.831 l 0.005,-0.002 c 0.376,-0.29 0.718,-0.625 1.138,-0.857 15.5,-16.549 34.403,-29.227 50.813,-44.733 2.185,-2.064 4.128,-1.142 6.682,-0.328 0.153,-6.48 0.868,-12.452 4.044,-17.954 1.313,-2.276 0.499,-5.229 0.177,-7.865 -0.222,-1.811 -0.033,-3.403 1.925,-4.039 1.836,-0.597 3.235,0.341 4.298,1.757 1.992,2.652 2.672,5.642 2.216,8.932 -0.159,1.145 -0.296,2.54 0.852,3.182 1.247,0.698 2.123,-0.599 2.978,-1.232 4.587,-3.402 8.126,-7.817 11.545,-12.323 1.755,-2.313 3.741,-4.133 6.641,-2.072 2.839,2.018 1.368,4.474 -0.039,6.545 -2.323,3.42 -4.864,6.691 -7.313,10.025 0.326,0.816 0.865,0.217 1.316,0.198 3.7,-1.845 7.39,-3.713 11.104,-5.526 2.316,-1.131 4.482,-1.371 5.926,1.377 1.362,2.593 -0.22,4.184 -2.107,5.352 -3.767,2.331 -7.669,4.442 -12.683,7.313 5.111,-0.385 8.807,-0.681 12.505,-0.933 2.046,-0.14 3.641,0.534 4.062,2.755 0.456,2.409 -0.727,3.879 -3,4.353 -3.708,0.773 -7.449,1.391 -11.191,2.716 2.58,0.61 5.174,1.173 7.737,1.848 2.069,0.545 3.107,2.025 2.725,4.104 -0.356,1.928 -1.884,2.595 -3.751,2.533 -0.499,-0.016 -1.051,0.127 -1.489,-0.039 -8.747,-3.295 -16.391,1.759 -24.507,3.205 -0.327,0.059 -0.875,-0.026 -0.959,0.139 -6.813,13.389 -20.11,20.736 -29.508,31.709 -0.679,1.452 -1.69,2.653 -2.814,3.775 -7.653,5.94 -12.251,14.486 -18.453,21.661 -4.239,5.379 -9.041,10.291 -13.117,15.807 -1.309,1.539 -3.023,2.735 -3.887,4.647 -0.341,0.8 -0.474,1.655 -0.033,2.398 5.625,9.482 7.054,20.617 11.996,30.367 0.634,1.4 1.219,2.811 0.979,4.403 -4.933,6.04 -8.162,13.116 -12.153,19.734 -2.957,4.904 -8.834,6.236 -13.85,8.216 -3.399,1.341 -6.829,3.629 -10.876,2.202 -2.29,-6.647 -1.121,-13.438 -0.7,-20.171 0.643,-10.273 1.899,-20.503 2.478,-30.779 0.247,-4.387 1.254,-8.544 2.469,-12.688 0.512,-1.745 1.351,-4.063 3.451,-3.583 2.057,0.469 0.963,2.787 0.959,4.353 -0.002,0.5 0.037,0.986 0.684,1.632 2.569,-0.686 4.224,-2.771 5.883,-4.765 10.955,-13.16 22.026,-26.213 32.622,-39.684 6.324,-8.039 14.57,-14.539 22.281,-21.356 4.983,-4.405 8.991,-9.746 14.2,-13.905 2.543,-2.03 2.531,-4.804 0.314,-6.988 -3.082,-3.036 -4.828,-8.442 -10.862,-6.817 -1.544,0.761 -2.557,2.05 -3.441,3.471 -7.948,6.793 -15.77,13.732 -24.03,20.153 -14.512,11.28 -26.793,24.857 -39.262,38.241 -1.654,1.776 -2.086,2.95 0.754,3.734 1.207,0.333 2.002,1.207 1.855,2.593 -0.176,1.656 -1.434,2.104 -2.798,2.356 -3.03,0.56 -5.973,-0.243 -8.901,-0.761 -3.302,-0.583 -4.826,0.019 -4.652,3.924 0.23,5.162 -1.115,10.24 -2.332,15.243 -1.019,4.193 -2.5,4.79 -6.528,3.078 -2.897,-1.23 -5.592,-2.95 -8.845,-3.258 -3.688,-0.349 -5.782,1.24 -6.044,4.927 -1.023,14.425 -1.967,28.844 -0.375,43.306 0.656,5.955 0.299,11.967 0.151,17.952 -0.04,1.619 -0.121,3.434 -2.269,3.948 -0.57,-0.018 -1.04,-0.243 -1.416,-0.671 -0.848,-1.328 -0.97,-2.839 -0.909,-4.331 0.529,-12.979 -0.924,-25.904 -1.046,-38.865 -0.067,-7.156 1.264,-14.227 1.215,-21.393 -0.026,-3.862 1.865,-6.8 5.144,-9.151 4.645,-3.33 8.075,-7.713 9.283,-14.054 -5.084,15.414 -35.992,14.843 -41.198,1.662 2.47,6.352 4.065,8.719 9.64,12.658 3.123,2.207 4.518,4.849 4.862,8.681 1.791,19.938 0.931,39.848 -0.21,59.765 -0.067,1.173 -0.29,2.313 -1.047,3.277 -0.785,0.573 -1.6,0.584 -2.442,0.135 -1.452,-1.777 -1.15,-3.899 -1.189,-5.957 -0.02,-1.18 0.141,-2.339 0.399,-3.485 0.983,-5.123 0.272,-10.309 0.543,-15.457 -0.102,-1.151 -0.089,-2.301 -0.014,-3.45 -0.094,-9.653 0.189,-19.311 -0.115,-28.962 -0.154,-4.873 -1.02,-9.538 -5.049,-12.921 -5.942,-4.187 -9.933,-9.609 -10.746,-17.045 -0.09,-0.825 -0.27,-1.756 -1.21,-1.972 -1.169,-0.269 -2.075,0.57 -2.304,1.485 -1.475,5.899 -1.444,11.886 0.156,17.706 0.703,2.556 2.747,0.747 4.134,0.207 3.02,-1.175 5.812,-3.607 9.345,-1.462 0.88,1.701 -0.689,1.997 -1.568,2.445 -2.963,1.511 -5.906,3.074 -8.946,4.423 -4.415,1.959 -6.145,1.206 -6.937,-3.639 -0.882,-5.395 -1.952,-10.824 -1.532,-16.345 0.206,-2.702 -0.682,-3.662 -3.427,-3.042 -2.752,0.622 -5.554,1.091 -8.371,1.313 -1.714,0.135 -3.556,-0.167 -4.017,-2.145 -0.432,-1.857 1.205,-2.65 2.604,-3.094 2.959,-0.938 2.473,-2.026 0.876,-4.164 -9.261,-12.397 -19.068,-24.368 -29.094,-36.124 -7.326,-8.589 -14.463,-17.358 -22.13,-25.659 -1.147,-1.241 -2.015,-2.635 -2.795,-4.105 -0.651,-1.268 -1.419,-2.45 -2.504,-3.399 -1.974,-1.971 -3.971,-1.079 -5.93,-0.019 -1.61,0.872 -3.126,1.906 -4.582,3.017 -4.976,3.795 -4.738,5.025 -1.345,10.091 12.103,18.07 26.853,34.223 37.802,53.152 6.151,10.636 13.631,20.484 20.829,30.469 1.444,2.002 3.095,3.902 5.335,4.995 1.07,-0.148 0.835,-0.883 0.886,-1.506 0.139,-1.701 -0.674,-4.272 1.826,-4.408 2.042,-0.111 2.544,2.336 3.052,4.078 1.778,6.102 2.284,12.427 2.931,18.697 1.106,10.732 2.468,21.455 2.512,32.271 0.008,1.968 0.298,4.021 -0.973,5.794 -0.29,0.19 -0.676,0.428 -0.91,0.291 -6.851,-4.011 -13.96,-7.983 -18.07,-14.991 -4.547,-7.754 -6.889,-16.571 -10.38,-24.847 -1.13,-2.679 -0.234,-4.885 1.462,-6.904 1.398,-1.664 2.687,-3.372 3.562,-5.389 1.921,-4.429 2.367,-8.65 -1.491,-12.365 -9.7,-13.981 -18.552,-28.522 -28.059,-42.633 -0.614,-0.98 -1.318,-1.921 -1.466,-3.119 z"
   id="path2" />
		<path
   fill-rule="evenodd"
   clip-rule="evenodd"
   fill="#8d8e8e"
   d="m 297.926,211.928 c 0.835,-1.194 1.783,-2.262 3.174,-2.833 2.618,1.659 6.875,-0.815 8.229,1.795 1.261,2.427 -1.846,5.334 -2.474,8.257 -0.896,4.174 -1.593,7.97 1.904,11.565 1.496,1.537 1.816,4.204 2.719,6.337 1.033,2.441 0.787,4.243 -1.686,5.905 -2.273,1.529 -4.519,3.356 -5.83,6.435 2.811,1.047 5.6,0.455 8.266,0.418 6.681,-0.092 12.693,2.211 18.625,4.822 1.288,0.566 3.068,1.371 3.001,3.012 -0.072,1.755 -2.046,1.31 -3.217,1.646 -6.271,1.802 -11.972,4.816 -17.577,8.055 -1.357,1.575 -3.026,2.77 -4.75,3.899 -6.504,4.525 -12.816,9.276 -18.191,14.851 7.541,-0.811 14.322,1.532 20.848,5.022 1.677,0.933 3.345,1.878 4.109,3.796 l 0.05,0.042 c 0.182,0.373 0.474,0.624 0.86,0.77 0.774,1.952 5.357,1.854 2.967,5.511 -3.694,-0.391 -6.789,1.719 -10.206,2.468 -5.468,0.938 -10.288,3.33 -14.712,6.603 -2.402,1.778 -3.094,3.647 -0.649,6.061 1.897,1.872 2.803,4.429 3.973,6.779 0.194,0.397 0.342,0.817 0.471,1.24 0.234,0.828 0.456,1.663 0.607,2.516 0.027,0.451 -0.145,0.805 -0.536,1.044 -2.341,1.549 -4.057,-0.585 -5.963,-1.155 -4.597,-1.374 -9.163,-2.698 -14.883,-2.862 4.947,4.672 9.629,8.578 12.494,14.011 0.805,1.524 2.361,3.058 0.32,4.797 -0.568,1.114 -1.617,1.621 -2.675,2.111 -5.895,2.733 -10.494,6.938 -13.837,12.467 -1.943,3.214 -4.436,4.748 -8.369,5.174 -10.18,1.103 -18.893,5.068 -23.74,14.881 -1.877,3.798 -4.641,4.356 -8.213,2.549 -1.479,-0.748 -3.008,-1.396 -4.486,-2.151 -3.703,-1.939 -6.958,-4.546 -10.028,-7.307 -4.964,-4.463 -10.563,-6.447 -17.261,-6.214 -6.887,0.24 -7.072,-0.226 -5.898,-6.897 0.377,-2.141 0.448,-4.301 0.163,-6.442 -0.743,-5.572 -4.125,-8.151 -9.665,-7.356 -5.722,0.82 -10.711,3.356 -15.304,6.757 -3.215,0.964 -3.422,-1.612 -4.157,-3.556 -1.719,-4.544 -2.142,-4.631 -6.207,-1.855 -3.953,2.698 -7.369,6.098 -11.437,8.645 -3.801,-0.434 -2.753,-3.121 -2.251,-5.263 0.804,-3.428 2.607,-6.479 4.286,-9.541 1.529,-2.788 0.525,-4.013 -2.342,-4.313 -5.682,-0.593 -11.039,0.286 -15.466,4.131 -3.386,2.94 -6.633,6.051 -9.231,9.78 -2.872,4.123 -4.372,4.402 -8.692,1.864 -1.865,-1.097 -3.613,-2.382 -5.471,-3.499 -3.853,-1.778 -4.798,-5.019 -4.474,-8.896 0,-2.128 0,-4.256 0,-6.385 -0.87,0 -1.206,-0.064 -1.507,0.012 -1.563,0.393 -2.246,3.2 -4.045,2.134 -1.501,-0.89 -0.713,-3.072 -0.646,-4.651 0.408,-9.673 5.593,-16.805 12.64,-22.852 -5.974,-5.117 -11.786,-6.723 -19.335,-4.53 -3.493,1.014 -4.488,-0.071 -4.858,-3.131 -0.239,-1.977 -0.884,-3.932 -0.913,-5.902 -0.1,-7.008 -2.498,-11.641 -10.494,-11.529 -2.747,0.038 -2.981,-1.693 -1.454,-3.659 1.118,-1.438 2.382,-2.763 3.581,-4.139 0.729,-1.809 2.266,-2.777 3.841,-3.705 0.561,-0.342 1.144,-0.648 1.728,-0.955 0.379,-0.224 0.773,-0.418 1.17,-0.608 0.598,-0.317 1.205,-0.613 1.829,-0.887 0.428,-0.205 0.867,-0.371 1.313,-0.528 6.608,-2.516 13.486,-3.194 20.465,-2.752 3.729,0.237 4.622,-0.999 3.557,-4.56 -1.903,-6.361 -4.541,-12.384 -7.6,-18.247 -0.93,-1.505 -1.616,-3.082 -1.438,-4.91 -4.97,-9.726 -12.235,-17.646 -19.827,-25.322 -1.115,-1.127 -3.383,-2.17 -2.747,-3.76 0.824,-2.055 3.243,-0.83 4.886,-0.718 2.961,0.201 5.948,0.643 8.817,1.395 2.7,0.708 4.876,0.24 6.855,-1.606 0.642,0.699 1.283,1.398 1.925,2.098 -0.69,2.587 2.051,3.115 2.876,4.794 0.481,0.979 1.89,1.861 1.004,3.024 -0.87,1.142 -2.189,0.4 -3.185,-0.142 -3.517,-1.917 -7.143,-3.574 -10.935,-4.862 -1.43,-0.485 -2.919,-0.634 -5.017,-0.777 6.695,6.96 12,14.421 17.162,22.013 6.761,9.943 10.519,21.082 13.54,32.548 0.969,3.679 -1.009,4.27 -4.134,3.951 -10.239,-1.042 -20.292,-0.654 -29.611,4.487 -2.789,1.539 -2.795,1.528 -5.028,4.493 8.406,3.665 8.348,3.676 10.119,13.405 1.311,7.204 0.099,6.872 8.064,6.658 5.21,-0.14 9.84,1.28 14.071,4.235 3.679,2.569 3.962,4.226 0.871,7.614 -3.132,3.435 -6.91,6.406 -8.378,11.02 -0.756,2.374 -3.971,5.518 1.944,6.542 2.468,0.427 2.018,3.887 2.031,6.17 0.029,4.842 1.597,8.576 6.051,11.193 2.965,1.742 4.766,1.898 7.146,-0.944 4.839,-5.778 10.273,-10.908 17.965,-12.852 5.875,-1.484 11.519,-1.464 16.861,1.782 2.03,1.87 1.394,3.883 0.266,5.884 -0.98,1.738 -2.04,3.432 -3.318,5.934 3,-2.603 5.614,-4.503 8.511,-5.98 2.814,-1.435 5.454,-1.177 6.844,1.7 1.847,3.821 4.157,3.487 7.226,1.801 2.342,-1.286 4.983,-1.867 7.59,-2.438 10.64,-2.326 18.934,5.055 17.401,15.932 -0.529,3.759 0.342,4.584 3.886,4.54 5.693,-0.071 10.709,2.116 15.087,5.743 4.111,3.406 8.406,6.534 13.093,9.128 2.35,1.299 4.086,0.999 5.415,-1.374 5.568,-9.948 14.865,-13.854 25.455,-15.5 2.55,-0.396 4.169,-1.639 5.644,-3.612 3.805,-5.092 7.952,-9.874 13.853,-12.681 2.998,-1.427 2.815,-3.4 1.036,-5.584 -3.061,-3.756 -6.507,-7.119 -10.452,-9.967 -1.181,-0.853 -2.709,-1.78 -1.985,-3.59 0.57,-1.427 2.108,-1.461 3.432,-1.572 5.563,-0.468 10.943,0.547 16.897,2.339 -0.887,-2.431 -2.332,-3.825 -3.771,-5.233 -3.914,-3.829 -3.752,-4.926 0.453,-8.67 7.034,-6.261 15.063,-10.277 24.128,-11.07 -8.261,-6.752 -17.916,-7.982 -28.173,-6.46 -1.35,0.2 -2.716,0.103 -3.229,-1.576 4.288,-6.39 10.043,-11.407 15.885,-16.226 8.624,-7.113 18.3,-12.612 29.353,-17.108 -5.912,-2.711 -11.358,-4.151 -17.221,-3.287 -5.741,0.845 -11.621,0.942 -17.143,3.054 -0.782,0.299 -1.635,0.269 -2.465,0.055 -1.755,-0.856 -1.148,-1.938 -0.3,-3.046 5.979,-2.826 11.674,-5.885 15.987,-11.284 2.094,-2.621 2.919,-4.795 1.217,-7.532 -3.689,-5.936 -5.544,-11.999 -2.463,-18.824 0.696,-1.542 -0.178,-2.493 -1.889,-2.66 -1.61,-0.164 -3.38,0.143 -4.598,-1.367 z"
   id="path4" />
		<path
   fill-rule="evenodd"
   clip-rule="evenodd"
   fill="#eeeeee"
   d="m 148.99,352.958 c 3.367,-4.422 8.104,-7.226 12.435,-10.506 2.828,-2.142 4.479,-1.636 5.697,1.94 0.626,1.84 -0.571,4.967 2.824,5.449 3.597,1.342 4.338,4.496 4.308,7.681 -0.053,5.542 2.808,8.402 7.705,10.221 13.963,5.184 28.376,7.943 43.225,8.576 1.317,0.056 2.652,-0.051 3.852,0.664 2.953,0.585 5.348,3.567 8.297,2.988 3.223,-0.633 3.293,-4.6 4.979,-6.947 5.604,-7.809 13.625,-11.002 22.64,-11.85 3.636,-0.342 5.554,-1.669 7.38,-4.644 4.101,-6.683 9.572,-11.898 17.54,-13.799 -0.294,9.344 -6.768,14.446 -13.556,19.022 -9.906,6.679 -20.224,12.729 -30.946,18.022 -4.491,2.217 -9.332,3.077 -14.416,3.297 -18.361,0.794 -35.916,-2.712 -52.984,-9.2 -6.831,-2.598 -12.265,-6.102 -11.033,-14.811 0.396,-2.805 -0.871,-5.45 -3.518,-6.627 -2.779,-1.235 -5.576,-0.4 -7.883,1.589 -6.565,5.655 -9.664,12.854 -9.546,21.505 0.05,3.75 1.083,8.352 -3.521,9.94 -3.978,1.374 -6.546,-2.114 -9.182,-4.637 -2.3,-2.202 -4.396,-4.565 -5.959,-7.312 -2.87,-5.038 -6.775,-8.926 -11.801,-11.823 -3.924,-2.263 -7.063,-5.374 -9.61,-9.21 -3.216,-4.842 -4.24,-9.586 -0.801,-14.688 0.674,3.271 1.841,6.23 5.027,7.907 2.063,4.563 5.384,7.926 9.713,10.393 5.971,3.402 10.031,8.636 13.637,14.322 0.94,1.482 1.865,3.693 3.97,3.256 2.146,-0.446 2.028,-2.841 2.24,-4.59 0.537,-4.414 2.468,-8.258 4.551,-12.071 1.075,-1.966 2.587,-3.369 4.736,-4.057 z"
   id="path6" />
		<path
   fill-rule="evenodd"
   clip-rule="evenodd"
   fill="#fee486"
   d="m 322.707,210.446 c 10.076,-5.792 19.542,-11.257 29.031,-16.681 6.927,-3.96 13.942,-7.77 20.797,-11.85 2.497,-1.486 4.105,-1.702 5.496,1.252 1.166,2.478 0.815,3.781 -1.86,4.995 -16.048,7.275 -32.006,14.746 -48.021,22.096 -1.378,0.634 -2.797,1.877 -5.443,0.188 z"
   id="path8" />
		<path
   fill-rule="evenodd"
   clip-rule="evenodd"
   fill="#f2f2f2"
   d="m 297.9,327.942 c -0.058,-0.26 -0.052,-0.519 0.017,-0.776 -0.45,-0.649 -0.281,-1.533 -0.813,-2.152 -0.146,-0.285 -0.211,-0.588 -0.192,-0.908 0.194,-2.761 2.409,-2.041 3.971,-2.171 2.042,-0.17 2.822,-1.349 2.084,-2.952 -3.197,-6.945 0.928,-11.547 4.915,-16.244 3.562,-1.45 7.259,-1.912 11.073,-1.506 -7.73,2.314 -11.198,12.354 -6.815,19.501 0.934,1.523 1.666,3.227 2.182,4.94 1.123,3.727 -1.924,7.039 -5.688,6.01 -3.648,-0.996 -7.161,-2.475 -10.734,-3.742 z"
   id="path10" />
		<path
   fill-rule="evenodd"
   clip-rule="evenodd"
   fill="#f1f1f1"
   d="m 86.97,267.935 c -0.201,0.146 -0.426,0.21 -0.673,0.193 -0.521,0.103 -0.902,0.441 -1.291,0.768 -0.25,0.138 -0.518,0.2 -0.802,0.188 -0.46,0.171 -0.816,0.498 -1.196,0.79 -1.642,1.098 -3.284,2.195 -4.926,3.294 -1.518,-18.947 9.635,-29.414 24.865,-37.152 0.684,1.328 1.369,2.656 2.053,3.984 0.413,2.711 -1.952,3.076 -3.505,4.053 -4.495,2.825 -8.499,6.104 -11.858,10.32 -3.345,4.198 -4.507,8.502 -2.667,13.562 z"
   id="path12" />
		<path
   fill-rule="evenodd"
   clip-rule="evenodd"
   fill="#fee586"
   d="m 75.494,239.372 c -3.298,2.077 -6.499,0.744 -9.633,0.527 -16.513,-1.146 -33,-2.673 -49.5,-4.01 -2.469,-0.2 -3.694,-1.25 -3.386,-3.786 0.336,-2.767 2.105,-1.701 3.717,-1.474 17.858,2.515 35.727,4.961 53.585,7.478 1.764,0.248 3.479,0.835 5.217,1.265 z"
   id="path14" />
		<path
   fill-rule="evenodd"
   clip-rule="evenodd"
   fill="#fee486"
   d="m 349.79,256.699 c 5.474,-2.386 11.537,-2.11 17.254,-3.41 6.115,-1.391 12.374,-2.153 18.579,-3.139 1.14,-0.181 2.323,-0.208 3.479,-0.15 2.418,0.12 2.102,2.272 2.438,3.723 0.334,1.436 -0.843,2.06 -2.122,2.135 -13.164,0.774 -26.331,1.521 -39.496,2.275 -0.044,-0.478 -0.088,-0.956 -0.132,-1.434 z"
   id="path16" />
		<path
   fill-rule="evenodd"
   clip-rule="evenodd"
   fill="#efefef"
   d="m 308.039,270.225 c 1.49,-1.281 3.094,-2.364 5.021,-2.883 1.96,6.929 4.763,13.656 4.031,21.156 -0.231,2.383 -0.491,4.537 -2.016,6.412 -1.385,-0.916 -2.77,-1.831 -4.154,-2.747 -0.803,-1.091 -1.285,-2.308 -1.282,-3.666 0.009,-5.118 -0.103,-10.205 -2.183,-15.032 -0.474,-1.102 -0.231,-2.271 0.583,-3.24 z"
   id="path18" />
		<path
   fill-rule="evenodd"
   clip-rule="evenodd"
   fill="#fee587"
   d="m 123.359,151.527 c -1.91,-0.156 -2.032,-1.942 -2.63,-3.157 -3.959,-8.041 -7.814,-16.135 -11.749,-24.188 -0.958,-1.962 -1.695,-3.644 1.144,-4.746 2.557,-0.994 3.53,0.049 4.294,2.387 2.991,9.145 6.131,18.239 9.228,27.349 0.28,0.822 0.42,1.592 -0.287,2.355 z"
   id="path20" />
		<path
   fill-rule="evenodd"
   clip-rule="evenodd"
   fill="#fee587"
   d="m 56.145,198.82 c -8.269,-4.895 -16.533,-9.795 -24.809,-14.678 -1.872,-1.104 -1.397,-2.338 -0.324,-3.688 0.994,-1.251 1.744,-3.246 3.821,-1.538 7.504,6.169 15.397,11.896 22.343,18.707 -0.344,0.399 -0.688,0.799 -1.031,1.197 z"
   id="path22" />
		<path
   fill-rule="evenodd"
   clip-rule="evenodd"
   fill="#fee587"
   d="m 53.541,281.158 c 0.32,2.707 -1.546,2.902 -2.732,3.5 -7.547,3.802 -15.146,7.5 -22.725,11.241 -1.855,0.915 -3.789,1.965 -4.854,-0.892 -0.968,-2.593 0.702,-3.451 2.833,-4.185 9.132,-3.142 18.226,-6.398 27.478,-9.664 z"
   id="path24" />
		<path
   fill-rule="evenodd"
   clip-rule="evenodd"
   fill="#fee588"
   d="m 276.563,138.604 c -0.99,-1.213 -0.134,-2.197 0.343,-3.209 3.101,-6.586 6.174,-13.187 9.34,-19.741 0.973,-2.013 1.832,-4.876 4.95,-3.309 3.554,1.785 0.335,3.732 -0.493,5.161 -3.65,6.296 -7.557,12.446 -11.468,18.588 -0.635,0.997 -0.933,2.601 -2.672,2.51 z"
   id="path26" />
		<path
   fill-rule="evenodd"
   clip-rule="evenodd"
   fill="#fee588"
   d="m 347.583,300.029 c 6.684,2.269 13.39,4.459 20.025,6.845 2.221,0.798 1.408,2.633 0.842,4.229 -0.729,2.055 -1.978,1.779 -3.5,0.901 -5.61,-3.239 -11.25,-6.429 -16.866,-9.659 -0.605,-0.348 -0.911,-0.926 -0.501,-2.316 z"
   id="path28" />
		<path
   fill-rule="evenodd"
   clip-rule="evenodd"
   fill="#939393"
   d="m 154.899,193.921 c -0.017,0.727 -0.033,1.452 -0.05,2.179 -4.339,1.08 -7.058,-2.041 -9.89,-4.222 -3.214,-2.475 -6.053,-3.45 -9.825,-1.285 -2.41,1.383 -5.218,1.99 -8.1,1.37 -0.825,-0.331 -1.101,-1.011 -1.161,-1.828 4.358,-1.867 9.328,-2.06 13.288,-5.087 1.835,-1.403 3.017,0.469 4.148,1.533 3.399,3.199 7.093,5.893 11.59,7.34 z"
   id="path30" />
		<path
   fill-rule="evenodd"
   clip-rule="evenodd"
   fill="#949595"
   d="m 258.962,208.958 c -0.641,0.695 -1.282,1.392 -1.923,2.087 -3.163,-4.766 -8.243,-7.878 -11.114,-12.895 1.044,-0.692 2.089,-1.386 3.134,-2.078 -0.455,1.836 0.966,2.648 2.048,3.555 3.17,2.656 5.661,5.864 7.855,9.331 z"
   id="path32" />
		<path
   fill-rule="evenodd"
   clip-rule="evenodd"
   fill="#8b8b8b"
   d="m 65.062,133.945 c 0.659,0.325 1.151,0.904 0.736,1.541 -0.402,0.616 -0.72,0.146 -0.794,-0.397 0.019,-0.382 0.038,-0.763 0.058,-1.144 z"
   id="path34" />
		<path
   fill-rule="evenodd"
   clip-rule="evenodd"
   fill="#bababa"
   d="m 346.236,148.189 c -0.415,0.786 -1.094,1.145 -1.814,0.603 -0.386,-0.289 0.018,-0.71 0.498,-0.801 0.438,0.067 0.878,0.132 1.316,0.198 z"
   id="path36" />
		<path
   fill-rule="evenodd"
   clip-rule="evenodd"
   fill="#949595"
   d="m 260.104,208.099 c -0.107,0.646 -0.429,1.009 -1.138,0.857 0.381,-0.286 0.76,-0.572 1.138,-0.857 z"
   id="path38" />
		<path
   fill-rule="evenodd"
   clip-rule="evenodd"
   fill="#efefef"
   d="m 315.986,295.722 c -0.287,-0.257 -0.574,-0.514 -0.861,-0.77 0.287,0.256 0.574,0.513 0.861,0.77 z"
   id="path40" />
		<path
   fill-rule="evenodd"
   clip-rule="evenodd"
   fill="#001a33"
   d="m 312.033,167 c 1.05,-2.124 2.638,-2.432 4.502,-1.171 1.363,0.922 2.696,1.936 3.873,3.082 8.928,8.703 8.296,9.693 -1.085,17.864 -4.717,4.108 -8.987,9.009 -13.813,13.134 -17.037,14.564 -29.546,33.083 -44.014,49.891 -3.355,3.898 -6.808,7.723 -10.391,11.411 -1.105,1.137 -3.08,2.598 -4.354,1.829 -1.681,-1.013 -0.734,-3.25 -0.261,-4.96 0.221,-0.8 0.624,-1.552 0.001,-2.331 -4.932,5.739 -7.632,29.675 -7.48,66.306 -0.132,2.334 -2.203,2.229 -3.634,2.709 -8.281,2.775 -17.021,2.336 -25.543,3.451 -1.528,0.201 -3.454,0.17 -3.894,-2.104 2.061,-7.651 1.037,-15.383 0.553,-23.091 -0.7,-11.119 -0.921,-22.23 0.1,-33.344 0.213,-2.311 0.348,-4.633 0.386,-6.952 0.11,-6.832 2.107,-8.649 8.76,-7.682 1.284,0.187 2.561,0.678 3.749,1.227 8.545,3.939 8.764,3.991 10.222,-5.155 0.721,-4.521 2.205,-9.093 0.935,-13.796 -0.753,-2.79 0.918,-2.026 2.501,-1.792 3.921,0.581 7.861,1.038 11.805,1.44 1.099,0.112 2.642,0.273 2.772,-1.319 0.136,-1.639 -1.344,-1.576 -2.505,-1.635 -1.313,-0.067 -3.043,0.247 -3.493,-1.244 -0.433,-1.435 1.251,-2.178 2.13,-3.099 8.043,-8.411 15.896,-17.021 24.238,-25.125 11.88,-11.542 24.888,-21.79 38.053,-31.826 1.034,-0.789 1.888,-1.813 2.825,-2.729 1.737,-0.26 3.194,-0.81 3.062,-2.989 z"
   id="path42" />
		<path
   fill-rule="evenodd"
   clip-rule="evenodd"
   fill="#001a33"
   d="m 155.926,316.3 c 0.508,-22.012 -3.325,-54.126 -7.408,-60.762 -1.135,2.641 -0.076,4.941 0.547,7.727 -5.132,-0.048 -7.546,-3.715 -9.718,-6.858 -9.506,-13.76 -19.024,-27.5 -27.822,-41.762 -6.489,-10.518 -14.73,-19.958 -22.242,-29.84 -3.847,-5.06 -6.642,-10.882 -11.271,-15.378 -1.682,-1.634 -0.307,-3.204 0.655,-4.401 2.962,-3.688 6.941,-6.057 11.142,-8.117 2.605,-1.278 4.043,-0.12 5.136,2.094 -0.51,1.813 0.423,2.658 2.041,3.043 8.817,10.294 17.828,20.43 26.396,30.927 8.797,10.777 18.251,21.044 25.986,32.67 0.456,0.686 1.079,1.264 1.647,1.869 3.921,4.184 3.93,4.199 -1.412,6.447 -0.907,0.382 -2.152,0.522 -1.867,1.804 0.254,1.141 1.479,1.349 2.468,1.189 3.259,-0.521 6.496,-1.178 9.744,-1.769 2.713,-0.493 4.616,-0.675 4.191,3.422 -0.651,6.282 0.566,12.53 1.727,18.737 0.494,2.645 1.553,2.955 3.729,1.838 4.114,-2.114 8.277,-4.134 12.419,-6.192 l -0.022,0.025 c 6.515,2.483 6.809,8.268 6.935,13.811 0.221,9.722 0.028,19.453 0.008,29.181 -0.792,0.714 -2.632,0.138 -2.635,1.494 -0.003,1.359 1.838,0.785 2.63,1.497 -0.367,5.337 1.151,10.788 -0.972,16.019 -2.299,0.982 -2.404,1.965 -0.001,2.949 0.013,2.021 0.026,4.043 0.039,6.064 -1.284,1.391 -3.012,1.324 -4.648,1.26 -4.869,-0.195 -9.615,0.474 -14.239,1.924 -2.896,0.908 -5.397,0.407 -7.058,-2.096 -1.981,-2.985 -5.619,-4.822 -6.125,-8.816 z"
   id="path44" />
		<path
   fill-rule="evenodd"
   clip-rule="evenodd"
   fill="#fefefe"
   d="m 155.969,333.013 c -14.892,-4.058 -25.675,-0.314 -34.552,12.612 -2.144,3.122 -3.34,2.548 -6.14,1.097 -5.997,-3.108 -8.745,-7.616 -8.331,-14.303 0.109,-1.752 0.511,-4.11 -1.318,-5.033 -1.687,-0.85 -2.378,2.058 -4.711,2.179 0.26,-7.593 3.378,-13.636 8.571,-18.83 5.905,-5.907 5.814,-5.997 -1.832,-9.81 -4.544,-2.266 -9.386,-2.644 -14.133,-1.839 -3.657,0.621 -4.278,-0.823 -4.555,-3.767 -0.279,-2.972 -1.189,-5.898 -1.318,-8.867 -0.198,-4.534 -2.451,-6.447 -6.8,-6.6 -1.46,-0.052 -2.901,-0.667 -5.168,-1.226 12.09,-12.34 26.604,-12.872 41.827,-11.132 -4.441,-23.197 -16.685,-41.983 -33.029,-58.621 5.713,-0.198 6.158,0.095 11.355,1.854 3.741,1.267 7.004,3.481 11.252,5.444 -1.825,-2.84 -3.972,-4.139 -5.657,-5.886 -1.985,-2.058 -0.091,-2.119 1.426,-2.185 3.656,3.657 5.892,8.281 8.634,12.57 6.472,10.121 13.06,20.168 19.601,30.245 3.862,7.279 2.665,13.866 -3.125,19.478 -2.371,2.298 -2.06,4.014 -0.839,6.799 2.219,5.063 5.346,9.926 5.209,15.798 -2.243,1.877 -4.402,0.684 -6.517,-0.251 -2.739,-1.211 -5.307,-2.813 -8.203,-3.663 -3.74,-1.098 -6.374,0.15 -8.208,3.978 3.304,1.04 6.509,1.103 9.476,2.122 15.646,5.601 28.671,15.035 39.686,27.333 4.494,5.018 4.529,5.952 1.717,10.21 -1.372,1.077 -2.8,1.382 -4.318,0.294 z"
   id="path46" />
		<path
   fill-rule="evenodd"
   clip-rule="evenodd"
   fill="#fecb98"
   d="m 244.879,180.054 c -2.561,10.971 -5.185,21.927 -9.014,32.54 -1.914,5.305 -5.162,9.649 -10.087,12.564 -9.099,5.386 -17.829,11.693 -29.249,11.032 -5.934,-0.344 -11.454,-1.711 -16.318,-5.27 -5.921,-4.331 -11.374,-9.18 -16.188,-14.719 -4.399,-5.063 -5.334,-11.376 -5.733,-17.676 -0.546,-8.617 -0.604,-17.266 -0.852,-25.9 -0.027,-0.958 -0.242,-2.064 1.123,-2.397 0.288,-0.249 0.592,-0.26 0.915,-0.069 0.424,0.299 0.815,0.64 1.218,0.968 0.287,0.2 0.556,0.42 0.824,0.642 0.425,0.327 0.858,0.638 1.346,0.87 0.755,0.267 1.542,0.32 2.331,0.412 0.703,0.068 1.392,0.176 2.088,0.301 6.104,0.813 12.127,2.254 18.315,2.237 7.354,-0.02 8.896,-1.384 10.163,-8.68 1.372,-7.899 5.418,-9.452 12.227,-4.696 0.328,0.442 0.521,0.94 0.594,1.484 -0.157,2.075 -0.271,4.159 -0.658,6.21 -0.561,2.995 -1.359,5.954 -1.476,7.795 -0.015,1.897 1.05,1.06 0.409,1.242 -0.181,0.052 -0.264,-0.086 -0.28,-0.411 -0.049,-0.975 -0.241,-1.975 0.53,-2.799 7.456,3.595 15.515,4.318 23.564,5.483 5.004,0.725 9.481,-0.819 14.208,-1.163 z"
   id="path48" />
		<path
   fill-rule="evenodd"
   clip-rule="evenodd"
   fill="#fecb98"
   d="m 161.972,150.815 c -0.903,-0.463 -2.299,1.562 -2.872,-0.569 -1.185,-7.651 4.639,-13.639 4.992,-20.94 0.055,-1.133 0.437,-2.274 0.612,-3.428 1.045,-6.872 2.76,-6.558 9.404,-7.645 10.586,-1.731 19.297,2.227 28.403,5.84 4.011,2.075 8.426,1.878 12.424,2.326 -2.673,-0.921 -6.033,0.34 -8.926,-1.394 0.546,-2.222 2.2,-2.277 3.61,-2.276 7.613,0.008 15.259,-0.767 22.807,0.998 3.765,0.88 7.26,2.357 10.516,4.385 2.348,1.461 4.189,3.507 4.26,6.379 0.176,7.121 0.357,14.233 1.123,21.323 0.162,1.5 -0.152,2.986 -1.193,4.204 -0.147,0.28 -0.203,0.576 -0.165,0.891 -0.225,0.27 -0.51,0.419 -0.864,0.429 -0.501,-0.093 -0.959,-0.303 -1.421,-0.506 -0.313,-0.117 -0.615,-0.263 -0.913,-0.412 -0.46,-0.21 -0.933,-0.384 -1.429,-0.505 -0.353,-0.057 -0.693,-0.14 -1.04,-0.229 -0.364,-0.088 -0.716,-0.196 -1.07,-0.307 -0.965,-0.271 -1.947,-0.254 -2.935,-0.211 -0.675,0.051 -1.345,0.077 -2.021,0.087 -1.732,0.021 -3.456,0 -5.152,-0.391 -1.253,-0.414 -2.547,-0.488 -3.854,-0.487 -5.479,0.154 -10.969,0.305 -16.422,0.414 -4.617,0.092 -9.51,-0.323 -14.134,-1.624 -9.204,-4.027 -19.095,-4.621 -28.875,-5.733 -1.626,-0.185 -3.292,-0.012 -4.865,-0.619 z"
   id="path50" />
		<path
   fill-rule="evenodd"
   clip-rule="evenodd"
   fill="#fefefe"
   d="m 297.926,211.928 c 0.658,-0.063 1.314,-0.158 1.974,-0.186 7.158,-0.297 7.136,-0.301 5.146,6.285 -1.378,4.561 -1.931,8.975 1.448,13.124 1.211,1.486 1.69,3.562 2.543,5.349 1.132,2.371 1.303,4.377 -1.608,5.661 -0.865,0.381 -1.783,1.123 -2.21,1.942 -3.211,6.166 -9.298,7.856 -15.147,9.943 -5.195,0.173 -7.914,3.517 -9.519,7.379 2.294,-2.51 4.866,-5.64 9.446,-5.248 13.259,-4.396 26.473,-6.83 40.289,0.765 -17.939,6.716 -32.888,16.434 -44.96,30.377 -0.94,1.087 -2.301,1.81 -3.466,2.702 -0.871,2.222 -2.743,2.775 -4.862,2.928 -0.785,-0.063 -1.453,-0.377 -1.995,-0.952 -0.373,-1.3 -0.747,-2.6 -1.12,-3.899 -1.373,-5.805 -2.896,-11.566 -4.915,-17.187 -0.667,-4.393 -0.435,-8.725 0.853,-12.983 1.244,-3.689 1.354,-7.755 3.586,-11.128 0.226,-0.401 0.482,-0.789 0.737,-1.172 0.344,-0.588 0.634,-1.206 0.885,-1.844 2.445,-5.798 6.925,-9.406 12.4,-11.661 -2.52,0.521 -4.645,2.493 -7.309,3.228 -0.74,-0.09 -1.431,-0.228 -1.077,-1.256 5.948,-7.684 10.692,-16.393 18.881,-22.167 z"
   id="path52" />
		<path
   fill-rule="evenodd"
   clip-rule="evenodd"
   fill="#653522"
   d="m 217.824,88.222 c 1.262,0.224 2.52,0.479 3.788,0.663 1.452,0.212 1.698,-0.18 0.504,1.55 -1.797,2.601 2.795,0.611 2.84,2.604 -0.7,0.888 -1.693,0.924 -2.6,0.926 4.446,0.912 8.877,2.307 12.7,4.891 1.834,1.239 2.158,0.135 2.952,-0.796 15.142,7.618 23.451,24.315 21.268,41.314 -0.551,4.283 -1.679,8.374 -2.348,12.587 -2.117,2.745 -4.169,5.536 -5.891,8.554 -0.4,0.701 -0.786,1.729 -1.705,1.472 -1.173,-0.328 -0.665,-1.711 -1.083,-2.56 0.098,-5.63 -1.554,-11.127 -1.247,-16.771 0.063,-1.156 -0.082,-2.331 0.229,-3.463 1.437,-5.226 0.34,-7.969 -4.49,-10.818 -6.299,-3.716 -13.247,-5.104 -20.442,-5.349 -4.967,-0.169 -9.942,0.003 -14.915,-0.058 -0.537,-0.005 -1.069,-0.059 -1.599,-0.15 -1.858,-0.841 -5.195,-1.11 -4.445,-3.594 0.688,-2.28 3.768,-1.271 5.823,-0.729 3.515,0.927 7.078,0.257 9.307,0.253 -3.53,0.705 -8.271,0.285 -12.856,-1.342 -1.71,-0.607 -3.745,-1.147 -3.987,-3.294 -0.24,-2.127 1.6,-3.148 3.105,-4.157 5.133,-3.438 10.668,-5.77 15.271,-5.52 -8.564,0.1 -17.823,3.502 -26.604,8.716 -3.242,1.925 -7.036,2.967 -10.936,3.172 -6.514,0.342 -8.281,-0.63 -10.819,-6.425 -1.702,-3.887 1.14,-6.56 2.804,-9.512 0.87,-0.619 1.959,-0.819 2.85,-1.423 0.466,-0.314 0.53,-0.164 0.448,-0.205 -0.282,-0.144 -0.54,-0.277 -0.894,-0.206 -0.381,-0.086 -0.684,-0.271 -0.927,-0.552 5.276,-6.264 12.603,-8.306 20.192,-9.807 0.83,0.551 1.957,0.038 2.733,0.762 0.113,0.104 0.16,0.28 0.318,0.572 -0.871,1.636 -2.944,1.331 -4.462,2.404 2.959,-1.042 5.564,-2.272 8.36,-3.013 5.547,-1.252 11.189,-0.086 16.758,-0.696 z"
   id="path54" />
		<path
   fill-rule="evenodd"
   clip-rule="evenodd"
   fill="#f9f9f9"
   d="m 189.982,323.983 c 0.588,-15.984 1.372,-31.968 0.938,-47.969 -0.158,-5.82 -0.753,-11.629 -0.914,-17.448 -0.075,-2.699 -1.862,-3.49 -3.698,-4.727 -5.96,-4.014 -10.467,-9.151 -11.338,-16.659 -0.12,-1.028 -0.771,-2.63 0.816,-2.965 2.047,-0.433 1.068,1.516 1.448,2.39 0.33,0.758 0.39,1.652 0.793,2.357 5.132,8.964 13.688,9.626 22.606,9.104 8.925,-0.522 14.75,-4.721 16.602,-11.7 0.287,-1.083 0.035,-2.648 1.821,-2.214 1.602,0.39 1.036,1.951 0.911,2.948 -0.859,6.83 -4.322,12.404 -9.979,15.929 -4.087,2.547 -4.672,5.85 -4.988,9.896 -1.641,20.993 0.262,41.972 0.153,62.957 0.013,0.34 0.078,0.818 -0.112,0.937 -2.902,1.799 -12.67,-0.063 -15.059,-2.836 z"
   id="path56" />
		<path
   fill-rule="evenodd"
   clip-rule="evenodd"
   fill="#fecb98"
   d="m 323.979,134.916 c 4.854,3.897 7.278,20.191 4.51,28.164 4.031,-2.884 3.726,-6.641 3.396,-10.364 -0.109,-1.234 -0.989,-2.419 0.746,-3.372 5.986,-3.289 10.067,-8.579 14.246,-13.773 0.941,-1.171 1.854,-3.662 3.723,-2.324 2.108,1.51 -0.012,3.296 -0.958,4.62 -2.414,3.379 -5.062,6.592 -7.596,9.886 -0.819,1.065 -1.837,2.355 -0.939,3.594 0.925,1.275 2.443,0.641 3.643,0.057 3.277,-1.598 6.461,-3.402 9.802,-4.85 2.06,-0.893 4.824,-4.089 6.277,-1.568 1.567,2.72 -2.577,3.449 -4.462,4.644 -3.216,2.039 -6.688,3.671 -9.995,5.574 -1.08,0.621 -2.763,1.138 -2.315,2.818 0.487,1.827 2.214,1.047 3.389,0.977 4.149,-0.247 8.286,-0.713 12.435,-0.97 1.019,-0.063 2.652,-0.669 2.897,0.963 0.285,1.907 -1.459,1.832 -2.732,2.043 -3.933,0.652 -7.865,1.3 -11.8,1.937 -1.564,0.254 -3.947,-0.29 -4.11,1.812 -0.207,2.659 2.521,2.018 4.123,2.437 2.886,0.754 5.829,1.29 8.721,2.021 0.891,0.226 2.163,0.492 1.905,1.816 -0.267,1.377 -1.572,0.925 -2.463,0.899 -1.153,-0.031 -2.303,-0.295 -3.45,-0.483 -5.144,-0.845 -10.005,-0.927 -14.937,1.751 -6.205,3.369 -7.479,1.986 -12.552,-2.628 -8.157,-7.419 -6.217,-15.138 -2.309,-23.263 1.869,-3.893 0.761,-7.836 0.805,-12.418 z"
   id="path58" />
		<path
   fill-rule="evenodd"
   clip-rule="evenodd"
   fill="#fecb98"
   d="m 80.004,138.969 c 2.347,-2.101 1.787,-5.213 2.629,-7.827 0.846,-2.627 1.883,-4.849 5.156,-5.94 -4.363,7.938 1.181,15.445 0.311,23.233 -0.447,3.998 -0.911,7.538 -5.097,9.386 -1.026,0.453 -2.023,1.29 -2.682,2.204 -3.631,5.043 -8.025,4.238 -11.869,0.916 -4.846,-4.189 -10.408,-4.689 -16.281,-4.875 -1.684,-0.053 -3.744,0.768 -5.155,-1.695 3.771,-2 7.806,-1.029 11.635,-1.414 1.58,-0.159 3.933,0.616 4.387,-1.346 0.591,-2.556 -2.173,-2.499 -3.717,-3.066 -3.729,-1.369 -7.584,-2.4 -11.306,-3.788 -0.986,-0.367 -3.04,-0.516 -2.211,-2.532 0.684,-1.665 2.016,-0.564 3.015,-0.32 3.542,0.867 7.035,1.939 10.593,2.725 1.648,0.363 3.936,1.728 4.934,-0.321 0.857,-1.758 -1.464,-2.663 -2.681,-3.668 -2.951,-2.438 -6.059,-4.694 -8.923,-7.228 -1.415,-1.251 -4.873,-2.315 -2.911,-4.643 1.861,-2.208 3.675,0.98 5.277,2.024 3.336,2.176 6.375,4.804 9.68,7.033 0.943,0.636 2.265,1.871 3.592,0.604 1.281,-1.222 0.275,-2.47 -0.316,-3.616 -2.054,-3.979 -4.191,-7.918 -6.194,-11.923 -0.614,-1.229 -1.963,-2.887 -0.082,-3.886 1.846,-0.98 2.525,0.934 3.204,2.211 2.737,5.146 5.612,10.203 9.643,14.473 0.893,0.945 2.068,1.623 3.113,2.424 1.917,3.409 -2.299,6.388 -0.708,9.302 0.006,-2.829 0.016,-6.122 2.964,-8.447 z"
   id="path60" />
		<path
   fill-rule="evenodd"
   clip-rule="evenodd"
   fill="#fdfdfd"
   d="m 127.034,191.963 c 3.784,-1.479 8.02,-1.761 11.412,-4.277 1.639,-1.216 2.667,-0.027 3.875,0.844 3.967,2.862 7.641,6.227 12.528,7.57 0.396,2.623 0.875,5.237 1.173,7.872 0.934,8.253 5.355,14.483 11.325,19.852 1.348,1.212 2.636,2.491 3.979,3.765 -6.329,3.891 -14.047,3.083 -18.05,-2.468 -8.257,-11.452 -17.857,-21.821 -26.242,-33.158 z"
   id="path62" />
		<path
   fill-rule="evenodd"
   clip-rule="evenodd"
   fill="#8b8c8c"
   d="m 189.982,323.983 c 4.987,1.188 9.874,3.184 15.17,1.899 0.273,0.037 0.536,0.112 0.787,0.228 8.337,1.252 16.501,-0.336 24.648,-1.678 2.849,-0.469 5.865,-0.715 8.423,-2.378 7.613,-1.246 14.475,-4.492 21.172,-8.106 2.468,-1.332 3.437,-4.027 4.513,-6.391 2.621,-5.753 5.661,-11.175 10.31,-15.561 0.639,0.012 1.277,0.023 1.916,0.035 1.484,3.998 -2.661,4.919 -4.011,7.368 -1.932,1.541 -2.685,3.981 -4.335,5.718 -0.299,0.577 -0.003,-0.251 -0.262,0.363 0.133,-0.109 0.201,-0.27 0.314,-0.408 0.799,-0.998 1.521,-2.037 2.261,-3.063 1.188,-1.647 2.295,-1.577 2.865,0.572 -1.385,6.313 -5.515,10.623 -10.854,13.597 -14.163,7.889 -29.311,12.616 -45.632,13.146 -1.327,0.043 -2.661,0.082 -4.075,0.531 0.289,1.229 1.612,1.432 2.235,2.271 2.843,2.905 5.872,5.663 7.988,9.179 0.824,1.368 2.4,3.129 -0.691,3.925 -4.396,-2.708 -7.622,-6.826 -12.014,-9.627 -10.555,-6.731 -22.121,-8.735 -34.322,-8.121 -4.26,0.215 -7.835,2.548 -11.576,4.363 -1.441,0.699 -3.201,2.881 -4.903,0.169 1.953,-2.484 1.403,-4.451 -0.662,-6.804 -9.866,-11.245 -21.051,-20.673 -34.943,-26.603 -1.796,-0.767 -3.51,-1.728 -5.261,-2.599 2.906,-2.165 5.603,-0.124 8.329,0.496 1.89,0.43 3.593,1.512 5.823,2.097 -0.051,-2.018 -1.527,-3.691 -1.034,-5.62 -2.291,-6.564 -3.981,-13.383 -8.222,-19.115 -1.165,-1.574 -1.711,-2.208 1.266,-2.409 3.156,-0.214 7.188,-7.894 7.011,-12.2 -0.115,-2.791 -0.732,-5.562 -1.125,-8.341 6.317,4.918 4.446,11.415 -0.942,18.302 -2.66,3.398 -3.008,5.659 -1.133,9.464 3.144,6.377 5.54,13.129 8.144,19.765 1.307,3.331 3.233,5.867 6.321,7.936 4.392,2.942 8.319,6.578 12.444,9.917 0.073,0.149 0.124,0.315 0.222,0.445 5.045,6.714 10.394,11.749 19.987,7.68 3.398,-1.441 7.876,-0.339 11.862,-0.397 0.663,-0.015 1.324,-0.03 1.986,-0.045 z"
   id="path64" />
		<path
   fill-rule="evenodd"
   clip-rule="evenodd"
   fill="#461705"
   d="m 173.924,98.001 c 0.405,-0.004 0.81,-0.009 1.215,-0.013 0.404,1.114 -0.35,1.577 -1.137,2.021 -0.878,1.385 -1.901,2.7 -2.61,4.167 -2.602,5.386 0.984,10.731 7.045,10.866 6.259,0.139 11.88,-2.08 16.841,-5.344 7.973,-5.244 16.522,-6.364 25.717,-5.263 -6.473,0.746 -12.329,3.093 -17.646,6.731 -1.121,0.768 -3.304,1.044 -2.816,2.973 0.398,1.575 2.344,1.546 3.699,2.089 4.725,1.893 9.702,1.866 15.337,1.85 -6.121,3.229 -11.899,1.505 -17.839,0.864 1.054,2.282 3.345,1.575 4.319,3.012 -4.677,2.064 -13.063,0.647 -16.747,-3.504 -1.627,-1.834 -2.68,-1.666 -4.455,-0.953 -4.406,1.77 -8.915,2.236 -13.503,0.691 -2.349,-0.791 -3.584,0.244 -4.694,2.308 -0.971,1.805 -0.759,3.858 -1.71,5.595 -1.395,-0.084 -2.832,-1.197 -4.183,0.162 -0.48,0.032 -0.87,-0.137 -1.178,-0.503 -0.33,-0.622 -0.42,-1.282 -0.338,-1.969 0.594,-1.625 1.107,-3.299 2.342,-4.554 -0.024,0.034 -0.283,-0.118 -0.302,-0.078 -0.732,1.193 -1.175,2.577 -2.627,3.103 -2.274,-0.733 -1.142,-2.721 -1.526,-4.15 0.934,-1.339 1.868,-2.677 2.802,-4.015 0.073,-3.338 2.955,-4.346 5.01,-6.04 2.336,1.125 2.626,-0.465 3.275,-2.169 1.176,-3.094 2.549,-6.167 5.709,-7.877 z"
   id="path66" />
		<path
   fill-rule="evenodd"
   clip-rule="evenodd"
   fill="#fdfdfd"
   d="m 245.925,198.15 c 4.124,3.937 9.455,6.833 11.114,12.895 -5.521,5.725 -10.934,11.561 -16.596,17.144 -5.506,5.429 -8.182,5.539 -15.609,0.973 12.45,-6.321 14.887,-18.479 18.292,-30.074 0.461,-0.727 1.347,-0.52 1.968,-0.894 0.272,-0.103 0.55,-0.118 0.831,-0.044 z"
   id="path68" />
		<path
   fill-rule="evenodd"
   clip-rule="evenodd"
   fill="#1a1715"
   d="m 161.972,150.815 c 0.583,-0.25 1.179,-0.747 1.746,-0.715 10.978,0.62 22.015,0.963 32.192,5.934 -0.114,0.67 -0.515,1.116 -1.093,1.427 -0.911,0.371 -1.099,1.073 -0.884,1.961 0.268,0.371 -0.265,0.998 0.411,1.228 -0.131,-0.87 0.193,-1.533 0.92,-2.02 3.123,-0.039 6.204,-1.38 9.336,-0.421 1.877,0.575 3.858,1.151 4.602,3.353 -0.147,0.836 -0.575,1.451 -1.389,1.763 -6.402,-4.62 -9.677,-3.284 -10.688,4.356 -0.991,7.492 -3.005,9.403 -10.65,9.303 -6.93,-0.091 -13.816,-0.833 -20.52,-2.765 -0.511,-0.781 -1.155,-0.869 -1.914,-0.37 -0.866,0.168 -1.497,-0.211 -2.01,-0.864 -0.15,-0.76 -0.792,-0.66 -1.322,-0.755 l 0.145,0.108 c -0.554,-0.911 -1.214,-1.712 -2.23,-2.142 0,0 -0.062,0.032 -0.062,0.032 1.213,-4.626 -0.321,-9.439 1.107,-14.121 0.581,-1.908 1.338,-3.613 2.303,-5.292 z"
   id="path70" />
		<path
   fill-rule="evenodd"
   clip-rule="evenodd"
   fill="#633421"
   d="m 159.972,123.968 c 0.005,0.675 0.01,1.35 0.016,2.024 l -0.072,0.132 0.099,-0.11 c 1.209,-0.951 2.419,-1.903 3.811,-2.998 0.604,0.58 -0.008,1.919 0.289,3.014 1.416,4.178 -0.229,8.052 -1.675,11.717 -1.366,3.46 -2.891,6.884 -4.309,10.34 -0.393,1.303 0.455,3.558 -1.586,3.618 -2.193,0.065 -1.204,-2.229 -1.615,-3.49 -0.369,-1.134 0.191,-3.618 -2.398,-1.43 -0.555,0.47 -0.407,-0.919 -0.441,-1.422 -0.64,-9.511 0.053,-18.785 5.037,-27.261 1.499,0.868 0.208,3.059 1.835,3.865 0.848,0.408 0.443,1.449 1.009,2.001 z"
   id="path72" />
		<path
   fill-rule="evenodd"
   clip-rule="evenodd"
   fill="#1a1715"
   d="m 235.957,158.168 c 0.647,-0.035 1.296,-0.069 1.943,-0.104 0.325,0.267 0.668,0.508 1.029,0.724 1.006,0.169 1.926,0.95 3.028,0.423 0.286,-0.094 0.579,-0.131 0.88,-0.111 0.328,0.209 0.556,0.498 0.684,0.865 0.354,0.507 0.952,0.581 1.457,0.823 0.481,0.331 0.906,0.715 1.177,1.245 0.461,5.492 -1.949,10.937 -0.29,16.474 0.114,0.383 -0.638,1.026 -0.986,1.548 -5.123,4.07 -10.959,2.798 -16.681,2.17 -7.345,-0.807 -14.958,-0.72 -21.072,-5.926 -1.117,-2.11 -0.638,-4.294 -0.298,-6.472 0.277,-2.063 -0.089,-4.231 0.998,-6.165 1.4,1.167 2.295,3.035 4.429,3.192 0.817,0.867 1.26,1.856 1.014,3.072 -0.264,0.363 -0.571,0.686 -0.908,0.973 -1.628,3.188 1.2,3.941 2.942,4.515 7.509,2.469 15.336,3.005 23.1,1.988 4.814,-0.63 5.984,-10.359 1.984,-14.512 -0.354,-0.926 -0.884,-1.091 -1.622,-0.368 -1.616,0.401 -3.109,-0.266 -4.65,-0.517 -1.438,-0.359 -2.857,-0.896 -4.384,-0.502 -0.611,0.147 -1.229,0.232 -1.856,0.208 -0.409,-0.036 -0.809,-0.129 -1.2,-0.248 -0.588,-0.157 -1.184,-0.288 -1.793,-0.362 -1.05,-0.108 -2.121,-0.146 -2.98,-0.886 -0.215,-0.389 -0.253,-0.799 -0.14,-1.226 0.92,-1.144 2.306,-0.836 3.5,-1.123 0.575,-0.202 1.154,-0.398 1.706,-0.663 1.098,-0.12 2.177,-0.146 3.116,0.581 0,0 0.002,0.418 0.003,0.422 0.082,0.92 0.732,-0.003 1.016,0.312 1.625,-0.157 3.283,0.344 4.854,-0.35 z"
   id="path74" />
		<path
   fill-rule="evenodd"
   clip-rule="evenodd"
   fill="#fcc997"
   d="m 180.3,234.716 c 11.367,5.628 22.789,6.126 34.326,0.07 -0.908,8.315 -8.182,12.089 -20.695,11.218 -8.369,-0.582 -13.836,-5.008 -13.631,-11.288 z"
   id="path76" />
		<path
   fill-rule="evenodd"
   clip-rule="evenodd"
   fill="#001932"
   d="m 182.015,252.987 c -4.504,-0.661 -7.879,2.11 -11.579,3.853 -1.965,0.926 -2.963,1.319 -3.589,-1.652 -1.217,-5.784 -0.775,-11.552 -0.775,-17.329 0,-2.936 2.143,-4.891 4.668,-4.97 2.571,-0.08 2.129,2.688 2.266,4.552 0.489,6.641 4.982,10.964 8.986,15.572 z"
   id="path78" />
		<path
   fill-rule="evenodd"
   clip-rule="evenodd"
   fill="#001932"
   d="m 228.96,243.065 c 0.551,3.734 -1,7.359 -1.229,11.143 -0.196,3.26 -2.108,3.599 -4.688,2.276 -0.441,-0.226 -0.905,-0.407 -1.351,-0.626 -2.343,-1.154 -5.829,-1.76 -6.724,-3.615 -1.041,-2.157 2.675,-3.716 3.809,-5.877 1.769,-3.374 3.416,-6.78 3.257,-10.767 -0.042,-1.058 -0.545,-2.521 0.84,-3.071 1.176,-0.468 2.16,0.526 3.125,1.105 3.702,2.22 3.059,5.865 2.961,9.432 z"
   id="path80" />
		<path
   fill-rule="evenodd"
   clip-rule="evenodd"
   fill="#23160e"
   d="m 206.948,122.067 c 12.136,-0.22 24.307,-0.75 35.569,5.157 2.727,1.43 5.219,3.187 6.484,5.967 0.77,1.693 4.023,3.36 -0.395,5.933 -2.185,1.271 -1.042,6.932 -0.348,10.455 0.688,3.492 0.763,6.914 0.692,10.399 -0.292,0.512 -0.597,0.495 -0.911,0.021 -0.303,-0.005 -0.606,0.002 -0.909,0.02 0.407,-8.64 -2.075,-17.157 -1.009,-25.849 0.337,-2.744 -2.23,-3.934 -4.133,-5.133 -4.889,-3.084 -10.419,-4.519 -16.084,-4.851 -6.297,-0.369 -12.633,-0.084 -19.007,0.526 4.122,0.44 8.244,0.881 12.694,1.356 -5.443,1.636 -11.334,1.25 -17.674,-1.025 -0.384,-1.505 -0.21,-2.555 1.737,-2.551 1.1,0.003 2.286,0.376 3.294,-0.425 z"
   id="path82" />
		<path
   fill-rule="evenodd"
   clip-rule="evenodd"
   fill="#110a07"
   d="m 206.948,122.067 c -1.163,1.859 -4.699,-0.291 -5.028,2.977 -4.356,-0.503 -8.329,-2.306 -11.838,-4.651 -2.587,-1.73 -4.75,-2.345 -7.604,-1.258 -3.357,1.279 -6.92,1.206 -10.241,0.181 -3.57,-1.102 -4.864,0.415 -5.482,3.5 -0.875,4.362 -1.568,8.777 -2.732,13.063 -1.327,4.881 -4.56,9.133 -4.922,14.367 -0.324,-0.721 -0.648,-1.441 -0.972,-2.161 -0.134,-6.163 5.158,-10.606 5.286,-16.713 0.038,-1.785 0.454,-3.562 0.698,-5.343 1.322,-1.159 0.513,-2.89 1.116,-4.212 1.388,-3.043 1.877,-6.478 7.242,-4.388 6,2.337 11.993,-0.29 19.164,-4.271 -3.828,4.38 -1.629,5.479 0.821,6.584 4.345,1.959 8.884,2.572 13.595,2.212 0.301,0.024 0.599,0.061 0.897,0.113 z"
   id="path84" />
		<path
   fill-rule="evenodd"
   clip-rule="evenodd"
   fill="#d28664"
   d="m 245.223,191.031 c 1.084,-4.626 2.159,-9.251 3.129,-13.904 0.811,-3.896 2.938,-7.517 4.481,-11.259 1.914,-0.575 3.638,-0.846 3.881,1.96 0.754,8.706 -2.049,16.134 -8.04,22.402 -0.923,0.966 -2.016,1.772 -3.451,0.801 z"
   id="path86" />
		<path
   fill-rule="evenodd"
   clip-rule="evenodd"
   fill="#d78a68"
   d="m 153.936,162.024 c 2.167,5.933 0.269,12.035 0.756,18.038 -2.118,0.914 -2.977,-0.562 -3.826,-2.028 -4.219,-7.283 -4.79,-14.935 -2.326,-22.903 0.703,-2.272 2.373,-2.44 4.316,-2.111 -0.027,2.301 -0.054,4.602 -0.081,6.903 -0.631,1.387 -1.242,2.782 -1.839,4.183 -0.429,0.578 -0.541,1.228 -0.421,1.928 0.028,-0.755 0.007,-1.521 0.556,-2.147 0.773,-0.908 0.556,-3.331 2.865,-1.863 z"
   id="path88" />
		<path
   fill-rule="evenodd"
   clip-rule="evenodd"
   fill="#f7c594"
   d="m 245.223,191.031 c 5.897,-2.994 11,-13.458 10.341,-20.89 -0.179,-2.02 0.349,-4.221 -2.729,-4.274 -0.114,-1.357 0.236,-2.358 1.87,-2.088 2.098,0.346 3.142,1.81 3.361,3.765 0.874,7.771 -1.349,14.786 -5.98,20.901 -2.005,2.646 -3.917,5.738 -7.516,6.916 -0.894,-1.732 0.463,-2.938 0.653,-4.33 z"
   id="path90" />
		<path
   fill-rule="evenodd"
   clip-rule="evenodd"
   fill="#f5c493"
   d="m 152.857,153.02 c -4.486,1.018 -3.503,5.114 -4.287,8.027 -1.645,6.114 1.798,16.204 6.123,19.016 0.128,1.469 0.255,2.937 0.419,4.823 -3.901,-1.146 -4.521,-4.56 -5.902,-7.071 -3.858,-7.021 -4.339,-14.601 -2.174,-22.201 0.696,-2.449 2.031,-5.933 5.821,-2.594 z"
   id="path92" />
		<path
   fill-rule="evenodd"
   clip-rule="evenodd"
   fill="#e0e0e0"
   d="m 274.968,245.951 c -2.341,3.317 -2.206,7.523 -3.969,11.048 -3.651,-1.022 -5.336,-3.439 -5.109,-7.21 3.871,-5.662 8.513,-10.679 13.155,-15.695 0.258,0.278 0.517,0.557 0.774,0.834 1.08,1.83 -0.552,2.667 -1.461,3.63 -1.987,2.104 -3.104,4.542 -3.39,7.393 z"
   id="path94" />
		<path
   fill-rule="evenodd"
   clip-rule="evenodd"
   fill="#cacbcb"
   d="m 265.89,249.789 c 1.209,2.754 2.932,5.144 5.109,7.21 -0.623,4.669 -1.278,9.334 -1.088,14.065 -3.702,-5.16 -7.161,-10.433 -7.856,-16.983 1.278,-1.431 2.556,-2.861 3.835,-4.292 z"
   id="path96" />
		<path
   fill-rule="evenodd"
   clip-rule="evenodd"
   fill="#8a8b8b"
   d="m 262.055,254.081 c 2.619,5.661 5.238,11.322 7.857,16.983 2.718,5.353 4.605,10.898 3.973,17.033 -2.955,-3.742 -4.07,-8.355 -5.215,-12.744 -1.492,-5.716 -4.074,-10.844 -6.655,-16.032 -0.884,-1.774 -2.313,-3.509 0.04,-5.24 z"
   id="path98" />
		<path
   fill-rule="evenodd"
   clip-rule="evenodd"
   fill="#825f50"
   d="m 238.009,98.06 c -1.059,0.513 0.344,3.508 -1.839,2.416 -5.571,-2.785 -11.289,-5.082 -17.548,-6.064 0.077,-0.457 0.153,-0.915 0.23,-1.372 2.034,0 4.069,0 6.104,0 4.658,0.874 8.996,2.581 13.053,5.02 z"
   id="path100" />
		<path
   fill-rule="evenodd"
   clip-rule="evenodd"
   fill="#7e5748"
   d="m 200.061,90.089 c -3.143,0.596 -5.747,3.391 -9.39,2.112 1.819,-0.887 3.638,-1.774 5.507,-2.686 -0.754,-0.483 -1.408,-0.903 -2.062,-1.321 6.029,-0.643 12.04,-2.208 18.117,-0.354 -3.883,1.699 -8.395,-0.015 -12.172,2.249 z"
   id="path102" />
		<path
   fill-rule="evenodd"
   clip-rule="evenodd"
   fill="#411706"
   d="m 248.041,159.999 c 0.305,0.002 0.608,-0.005 0.912,-0.021 1.063,2.967 1.416,0.084 1.683,-0.304 1.89,-2.747 2.04,-6.886 6.294,-7.714 -0.038,2.593 -0.717,5.072 -1.728,7.401 -0.851,1.96 -1.765,1.648 -2.194,-0.357 l -0.016,-0.013 c -0.856,0.397 -0.97,1.191 -1.063,1.996 -0.296,0.344 -0.596,0.686 -0.898,1.024 -0.014,0.327 -0.034,0.653 -0.06,0.979 -0.981,0.689 -1.962,0.694 -2.942,-0.004 0.004,-0.994 0.008,-1.99 0.012,-2.987 z"
   id="path104" />
		<path
   fill-rule="evenodd"
   clip-rule="evenodd"
   fill="#3e1a08"
   d="m 80.004,138.969 c -2.06,4.091 -2.983,8.298 -0.937,12.849 -2.899,-2.409 -3.476,-5.198 -2.615,-8.501 0.45,-1.726 1.765,-3.252 1.296,-5.203 0.752,0.284 1.504,0.57 2.256,0.855 z"
   id="path106" />
		<path
   fill-rule="evenodd"
   clip-rule="evenodd"
   fill="#906f62"
   d="m 200.061,90.089 c 0.379,-2.408 2.36,-1.934 3.883,-2.031 2.756,-0.178 5.524,-0.155 8.288,-0.217 1.864,0.126 3.729,0.253 5.593,0.381 -5.852,1.288 -11.842,1.261 -17.764,1.867 z"
   id="path108" />
		<path
   fill-rule="evenodd"
   clip-rule="evenodd"
   fill="#684131"
   d="m 164.939,108.048 c -1.67,2.013 -3.339,4.025 -5.009,6.039 -1.414,-0.312 -2.244,0.97 -4.12,1.718 2.196,-4.399 4.835,-7.035 9.129,-7.757 z"
   id="path110" />
		<path
   fill-rule="evenodd"
   clip-rule="evenodd"
   fill="#1f252f"
   d="m 188.931,298.995 c -1.477,0.776 -2.984,1.605 -4.341,-0.143 -0.663,-0.853 -0.662,-1.858 0.003,-2.711 1.361,-1.745 2.868,-0.907 4.344,-0.138 -0.003,0.998 -0.004,1.995 -0.006,2.992 z"
   id="path112" />
		<path
   fill-rule="evenodd"
   clip-rule="evenodd"
   fill="#22252b"
   d="m 312.033,167 c 1.191,0.701 2.472,1.579 1.187,3.006 -1.229,1.364 -2.838,1.51 -4.25,-0.016 0.167,-1.871 1.165,-2.892 3.063,-2.99 z"
   id="path114" />
		<path
   fill-rule="evenodd"
   clip-rule="evenodd"
   fill="#2a2d33"
   d="m 187.958,317.963 c -1.151,0.566 -2.324,1.379 -3.387,-0.12 -0.623,-0.877 -0.624,-1.805 -0.005,-2.685 1.056,-1.502 2.236,-0.685 3.393,-0.145 -0.001,0.984 -0.001,1.967 -0.001,2.95 z"
   id="path116" />
		<path
   fill-rule="evenodd"
   clip-rule="evenodd"
   fill="#27292f"
   d="m 96.985,162.045 c -1.366,1.479 -2.641,1.023 -3.52,-0.421 -0.912,-1.499 -0.178,-2.402 1.48,-2.622 1.358,0.56 2.04,1.573 2.04,3.043 z"
   id="path118" />
		<path
   fill-rule="evenodd"
   clip-rule="evenodd"
   fill="#401504"
   d="m 155.481,156.496 c 2.072,2.422 1.393,4.053 1.268,6.196 -2.412,-1.892 -1.718,-3.524 -1.268,-6.196 z"
   id="path120" />
		<path
   fill-rule="evenodd"
   clip-rule="evenodd"
   fill="#401504"
   d="m 248.073,167.809 c 1.169,2.199 1.226,3.484 -0.547,4.555 -0.812,-1.47 -0.701,-2.706 0.547,-4.555 z"
   id="path122" />
		<path
   fill-rule="evenodd"
   clip-rule="evenodd"
   fill="#964f3b"
   d="m 153.936,162.024 c -1.643,-0.282 -1.773,1.552 -2.863,2.044 l -0.139,-0.114 c -0.146,-1.69 0.299,-3.111 1.841,-4.031 0.388,0.7 0.774,1.4 1.161,2.101 z"
   id="path124" />
		<path
   fill-rule="evenodd"
   clip-rule="evenodd"
   fill="#434343"
   d="m 157.545,154.585 c -1.279,0.607 -2.103,0.748 -2.857,-0.095 0.867,-0.668 1.71,-0.636 2.857,0.095 z"
   id="path126" />
		<path
   fill-rule="evenodd"
   clip-rule="evenodd"
   fill="#444444"
   d="m 249.311,165.09 c 0.304,0.077 0.795,0.073 0.866,0.245 0.29,0.698 -0.359,0.653 -0.722,0.653 -0.277,0 -0.555,-0.245 -0.832,-0.382 0.227,-0.172 0.454,-0.344 0.688,-0.516 z"
   id="path128" />
		<path
   fill-rule="evenodd"
   clip-rule="evenodd"
   fill="#23160e"
   d="m 248.028,162.988 c 0.981,0.001 1.962,0.003 2.942,0.004 -0.982,1.322 -1.962,1.321 -2.942,-0.004 z"
   id="path130" />
		<path
   fill-rule="evenodd"
   clip-rule="evenodd"
   fill="#100e0c"
   d="m 246.155,162.032 c -0.373,-0.358 -0.746,-0.718 -1.118,-1.076 0.143,-0.134 0.285,-0.269 0.428,-0.403 0.189,0.048 0.38,0.099 0.569,0.148 0.311,0.069 0.621,0.139 0.933,0.208 -0.271,0.374 -0.541,0.749 -0.812,1.123 z"
   id="path132" />
		<path
   fill-rule="evenodd"
   clip-rule="evenodd"
   fill="#949595"
   d="m 245.094,198.193 c -0.429,0.798 -1.22,0.799 -1.968,0.894 0.205,-1.291 1.078,-1.11 1.968,-0.894 z"
   id="path134" />
		<path
   fill-rule="evenodd"
   clip-rule="evenodd"
   fill="#23160e"
   d="m 251.03,162.013 c 0.3,-0.342 0.6,-0.684 0.899,-1.024 -0.299,0.34 -0.599,0.682 -0.899,1.024 z"
   id="path136" />
		<path
   fill-rule="evenodd"
   clip-rule="evenodd"
   fill="#f7f7f7"
   d="m 214.995,333.003 c -1.78,-1.124 -3.561,-2.247 -6.047,-3.816 8.233,-1.656 15.844,-1.313 23.254,-2.911 10.958,-2.364 21.328,-6.156 30.992,-11.654 4.795,-2.728 8.187,-7.197 9.98,-12.619 0.869,-1.521 -2.265,-1.447 -1.211,-3.041 1,-2.776 4.85,-3.514 4.957,-6.929 1.647,-0.67 3.294,-1.341 4.941,-2.011 1.229,1.754 2.671,0.506 4.045,0.295 10.925,-1.678 20.762,0.582 29.677,8.387 -3.221,0.713 -6.026,1.299 -8.814,1.957 -7.531,1.779 -13.546,6.1 -19.068,11.304 -1.759,1.657 -2.004,2.669 0.311,4.105 3.154,1.957 5.282,4.865 6.532,9.037 -6.797,-1.797 -13.16,-3.674 -19.848,-3.224 -0.767,0.052 -1.665,-0.242 -2.462,0.967 2.811,2.364 5.796,4.614 8.457,7.198 2.132,2.07 3.901,4.52 5.771,6.85 1.777,2.216 2.027,3.844 -1.281,5.116 -6.624,2.548 -11.334,7.506 -14.978,13.412 -1.451,2.353 -3.012,3.361 -5.846,3.665 -11.167,1.198 -20.524,5.697 -25.735,16.288 -1.256,2.554 -2.529,2.688 -4.552,1.466 -3.269,-1.977 -6.83,-3.636 -9.672,-6.112 -7.394,-6.439 -15.182,-11.47 -25.45,-9.641 -0.156,-0.74 -0.247,-0.91 -0.214,-1.052 1.7,-7.223 1.802,-14.717 -5.108,-18.794 -5.928,-3.498 -12.722,-0.699 -18.525,2.248 -3.597,1.827 -5.935,3.197 -7.208,-2.158 -0.78,-3.286 -2.923,-4.099 -5.925,-1.851 -3.386,2.537 -6.944,4.845 -11.156,7.755 1.18,-4.219 2.807,-7.224 4.965,-9.928 1.177,-1.476 1.773,-2.79 0.189,-4.3 1.425,0.108 2.729,-0.263 3.941,-0.998 1.298,1.204 2.167,-0.11 2.979,-0.665 10.019,-6.836 21.052,-6.179 32.039,-3.88 11.359,2.376 20.739,8.418 28.083,17.487 3.361,0.586 4.73,3.3 6.191,5.869 1.548,2.721 2.847,5.573 4.266,8.461 1.732,-9.074 -2.435,-15.358 -9.334,-20.34 -2.943,-2.126 -6.234,-3.74 -9.136,-5.943 z"
   id="path138" />
		<path
   fill-rule="evenodd"
   clip-rule="evenodd"
   fill="#e3e3e3"
   d="m 229.034,376.983 c -12.597,1.864 -24.557,-1.66 -36.619,-4.323 -4.89,-1.079 -9.477,-3.008 -14.053,-4.972 -3.586,-1.539 -5.667,-4.193 -5.312,-8.157 0.337,-3.749 -0.857,-6.848 -3.105,-9.688 5.5,-5.86 12.547,-8.037 20.25,-7.607 4.449,0.248 6.106,4.214 6.708,8.055 0.508,3.242 0.585,6.644 -0.973,9.788 -0.833,1.679 -0.728,3.214 1.594,2.795 13.762,-2.486 22.071,7.045 31.51,14.109 z"
   id="path140" />
		<path
   fill-rule="evenodd"
   clip-rule="evenodd"
   fill="#e3e3e3"
   d="m 148.99,352.958 c -4.486,4.89 -7.508,10.412 -8.108,17.195 -0.178,2.01 -0.31,4.805 -2.686,5.484 -2.778,0.794 -4.085,-1.792 -5.199,-3.747 -4.139,-7.263 -9.895,-12.766 -17.073,-17.021 -3.292,-1.952 -6.22,-4.62 -5.784,-9.159 3.458,1.228 5.953,5.483 9.406,5.035 3.577,-0.463 4.409,-5.318 6.848,-7.973 6.075,-6.609 12.935,-10.776 22.256,-9.74 5.568,0.618 5.895,1.321 3.348,6.091 -1.788,3.348 -3.241,6.888 -4.639,10.423 -0.567,1.434 -1.351,3.455 1.631,3.412 z"
   id="path142" />
		<path
   fill-rule="evenodd"
   clip-rule="evenodd"
   fill="#e4e4e4"
   d="m 86.97,267.935 c -3.277,-3.389 -3.033,-6.778 -0.67,-10.729 3.592,-6.005 8.427,-10.557 14.376,-14.056 1.546,-0.91 3.503,-1.248 4.324,-3.15 4.318,6.766 7.145,14.138 9.026,21.914 0.566,2.34 0.162,3.2 -2.544,2.976 -8.357,-0.694 -16.537,0.449 -24.512,3.045 z"
   id="path144" />
		<path
   fill-rule="evenodd"
   clip-rule="evenodd"
   fill="#e3e3e3"
   d="m 308.039,270.225 c 2.803,7.07 3.553,14.411 2.884,21.938 -7.062,-3.355 -14.325,-5.807 -23.426,-4.617 6.386,-7.417 13.08,-12.811 20.542,-17.321 z"
   id="path146" />
		<path
   fill-rule="evenodd"
   clip-rule="evenodd"
   fill="#e6e6e6"
   d="m 307.881,302.738 c -0.157,0.799 -0.041,1.858 -0.515,2.356 -4.306,4.525 -5.428,9.346 -2.616,15.243 0.945,1.982 -0.295,3.923 -3.282,2.986 -1.57,-0.492 -3.271,-0.818 -4.557,0.78 -2.115,-3.111 -3.431,-6.785 -6.55,-9.19 -2.015,-1.554 -0.301,-2.535 0.677,-3.474 4.748,-4.557 10.275,-7.647 16.843,-8.701 z"
   id="path148" />
		<path
   fill-rule="evenodd"
   clip-rule="evenodd"
   fill="#e4e4e4"
   d="m 289.999,256.178 c -4.867,1.732 -8.497,5.052 -11.86,10.708 1.569,-10.011 6.121,-14.37 11.933,-12.839 -0.15,0.706 -1.582,1.369 -0.073,2.131 z"
   id="path150" />
		<path
   fill-rule="evenodd"
   clip-rule="evenodd"
   fill="#e6e6e6"
   d="m 297.104,325.014 c 0.775,0.526 0.913,1.294 0.813,2.151 -0.271,-0.716 -0.542,-1.434 -0.813,-2.151 z"
   id="path152" />
		<path
   fill-rule="evenodd"
   clip-rule="evenodd"
   fill="#e4e4e4"
   d="m 85.006,268.896 c 0.429,-0.256 0.858,-0.512 1.289,-0.768 -0.428,0.256 -0.858,0.512 -1.289,0.768 z"
   id="path154" />
		<path
   fill-rule="evenodd"
   clip-rule="evenodd"
   fill="#e4e4e4"
   d="m 83.008,269.874 c 0.397,-0.264 0.795,-0.527 1.194,-0.79 -0.397,0.264 -0.795,0.526 -1.194,0.79 z"
   id="path156" />
		<path
   fill-rule="evenodd"
   clip-rule="evenodd"
   fill="#2c2e35"
   d="m 230.663,276.055 c -0.282,1.308 -1.143,1.918 -2.435,1.771 -1.041,-0.119 -1.913,-0.731 -1.84,-1.857 0.089,-1.361 1.098,-1.923 2.383,-1.791 1.058,0.106 1.763,0.721 1.892,1.877 z"
   id="path158" />
		<path
   fill-rule="evenodd"
   clip-rule="evenodd"
   fill="#272a30"
   d="m 168.922,275.698 c -0.111,1.98 -1.124,2.329 -2.43,2.185 -1.06,-0.117 -2.054,-0.621 -2.049,-1.765 0.008,-1.761 1.361,-2.063 2.798,-2.018 1.287,0.041 1.6,0.937 1.681,1.598 z"
   id="path160" />
		<path
   fill-rule="evenodd"
   clip-rule="evenodd"
   fill="#34363e"
   d="m 187.888,278.653 c -0.077,0.768 -0.549,1.119 -1.259,1.003 -0.68,-0.111 -1.214,-0.672 -1.001,-1.295 0.155,-0.454 0.83,-0.956 1.325,-1.018 0.81,-0.1 0.89,0.671 0.935,1.31 z"
   id="path162" />
		<path
   fill-rule="evenodd"
   clip-rule="evenodd"
   fill="#34363d"
   d="m 185.652,260.697 c -0.675,-0.189 -1.215,-0.693 -1.015,-1.313 0.146,-0.454 0.819,-0.964 1.313,-1.03 0.813,-0.108 0.946,0.663 0.935,1.307 -0.013,0.769 -0.506,1.066 -1.233,1.036 z"
   id="path164" />
		<path
   fill-rule="evenodd"
   clip-rule="evenodd"
   fill="#eaeaea"
   d="m 132.162,292.982 c 1.138,2.362 2.275,4.726 3.743,7.773 -6.153,-1.412 -10.989,-5.098 -16.861,-4.746 -2.454,-0.335 -4.903,-0.704 -7.363,-0.99 -1.595,-0.186 -3.653,0.401 -4.242,-1.68 -0.486,-1.715 1.371,-2.478 2.313,-3.559 3.292,-3.775 6.975,-2.71 10.869,-0.999 3.744,1.648 7.013,4.691 11.541,4.201 z"
   id="path166" />
		<path
   fill-rule="evenodd"
   clip-rule="evenodd"
   fill="#0b0907"
   d="m 198.509,222.884 c -8.122,-0.571 -13.83,-3.284 -16.881,-10.936 -1.782,-4.47 -2.473,-9.625 -6.328,-13.169 -0.577,-0.531 -0.307,-1.25 0.323,-1.618 0.882,-0.516 1.671,-0.498 2.741,0.011 11.087,5.271 22.888,6.369 34.964,5.749 1.85,-0.095 3.591,-0.479 5.31,-1.169 0.811,-0.325 1.654,0.095 2.155,0.819 0.428,0.618 0.189,1.142 -0.388,1.678 -3.805,3.529 -6.062,8.229 -9.161,12.299 -3.443,4.525 -7.905,6.346 -12.735,6.336 z"
   id="path168" />
		<path
   fill-rule="evenodd"
   clip-rule="evenodd"
   fill="#a35c45"
   d="m 209.151,187.809 c 1.595,2.234 2.484,3.792 1.164,5.629 -1.221,1.697 -2.78,1.417 -4.45,0.749 -1.159,-0.463 -2.302,-0.112 -3.359,0.443 -2.612,1.373 -5.014,1.428 -7.242,-0.84 -0.992,-1.009 -2.421,-0.874 -3.752,-1.033 -4.419,-0.527 -4.922,-2.019 -2.016,-6.479 0.056,2.322 -1.641,6.269 3.245,3.688 1.174,-0.62 2.214,0.153 3.185,0.86 2.051,1.492 4.28,1.74 6.597,0.71 0.937,-0.416 2.008,-1.011 2.818,-0.32 4.422,3.77 4.067,0.139 3.81,-3.407 z"
   id="path170" />
		<path
   fill-rule="evenodd"
   clip-rule="evenodd"
   fill="#100e0c"
   d="m 211.697,166.986 c -3.964,2.004 -3.395,-1.27 -3.871,-3.325 l -0.014,-0.337 c 0.407,-0.458 0.814,-0.916 1.223,-1.374 0.148,0.128 0.296,0.256 0.442,0.373 0.416,0.564 0.843,1.1 1.542,0.273 0.331,-0.515 0.655,-1.001 0.94,-1.5 0.368,-0.856 -0.714,-1.963 0.443,-2.699 0.435,-0.206 0.88,-0.315 1.355,-0.351 2.749,0.345 5.699,-1.013 8.222,1.032 0.003,0.252 0.004,0.503 0.004,0.755 -0.229,0.415 -0.556,0.73 -0.972,0.954 -4.234,0.364 -5.862,4.654 -9.314,6.199 z"
   id="path172" />
		<path
   fill-rule="evenodd"
   clip-rule="evenodd"
   fill="#d57a5c"
   d="m 189.732,223.946 c 3.906,0.489 7.812,0.979 12.423,1.557 -4.89,2.226 -7.417,2.009 -12.423,-1.557 z"
   id="path174" />
		<path
   fill-rule="evenodd"
   clip-rule="evenodd"
   fill="#793427"
   d="m 206.828,169.826 c 0.1,2.157 0.198,4.315 0.298,6.472 -0.057,1.231 0.33,2.559 -0.957,4.094 -0.193,-3.898 -0.856,-7.282 0.659,-10.566 z"
   id="path176" />
		<path
   fill-rule="evenodd"
   clip-rule="evenodd"
   d="m 158.623,170.196 c 1.328,0.103 2.049,0.839 2.23,2.14 -1.143,-0.297 -1.886,-1.011 -2.23,-2.14 z"
   id="path178" />
		<path
   fill-rule="evenodd"
   clip-rule="evenodd"
   d="m 160.708,172.229 c 0.466,0.207 1.726,-0.976 1.322,0.755 -0.441,-0.251 -0.881,-0.503 -1.322,-0.755 z"
   id="path180" />
		<path
   fill-rule="evenodd"
   clip-rule="evenodd"
   d="m 164.041,173.849 c 0.848,-0.964 1.46,-0.708 1.914,0.37 -0.639,-0.123 -1.277,-0.247 -1.914,-0.37 z"
   id="path182" />
		<path
   fill-rule="evenodd"
   clip-rule="evenodd"
   fill="#603622"
   d="m 167.725,148.662 c 3.978,-7.716 9.191,-10.329 16.102,-8.938 2.411,0.484 4.852,1.175 7.055,2.235 2.24,1.079 6.138,2.154 4.748,5.183 -1.145,2.493 -4.042,-0.335 -5.923,-1.084 -7.317,-2.916 -14.371,-3.615 -21.982,2.604 z"
   id="path184" />
		<path
   fill-rule="evenodd"
   clip-rule="evenodd"
   fill="#5e3421"
   d="m 239.825,155.347 c -1.33,0.647 -1.796,-0.247 -2.279,-0.764 -5.063,-5.41 -11.257,-6.298 -18.232,-5.045 -2.079,0.373 -5.787,2.204 -6.257,-0.676 -0.495,-3.029 3.619,-3.277 6.039,-3.75 10.574,-2.062 16.28,0.792 20.729,10.235 z"
   id="path186" />
		<path
   fill-rule="evenodd"
   clip-rule="evenodd"
   fill="#100e0c"
   d="m 226.967,157.203 c -0.367,0.285 -0.734,0.57 -1.102,0.856 -4.568,1.292 -9.349,-0.501 -13.905,0.961 l 0.054,-0.043 c -1.137,1.488 -2.573,2.069 -4.263,1.075 -2.991,-1.76 -6.102,-2.03 -9.396,-1.116 -1.771,0.492 -2.737,-0.483 -3.332,-2.01 0.295,-0.298 0.591,-0.595 0.887,-0.893 5.399,0.131 10.639,1.98 16.165,1.123 4.924,-0.763 9.927,-0.323 14.892,0.047 z"
   id="path188" />
		<path
   fill-rule="evenodd"
   clip-rule="evenodd"
   fill="#040404"
   d="m 235.957,158.168 c -1.82,1.452 -3.918,0.536 -5.891,0.689 -0.029,-0.228 -0.06,-0.455 -0.09,-0.682 l 0.106,-0.392 c 1.959,0.129 3.917,0.257 5.875,0.385 z"
   id="path190" />
		<path
   fill-rule="evenodd"
   clip-rule="evenodd"
   fill="#100e0c"
   d="m 241.958,159.21 c -1.439,1.011 -2.793,1.367 -3.854,-0.505 0.983,-0.229 1.962,-0.316 2.918,0.122 0.311,0.128 0.624,0.255 0.936,0.383 z"
   id="path192" />
		<path
   fill-rule="evenodd"
   clip-rule="evenodd"
   fill="#cba37c"
   d="m 241.021,158.827 c -0.973,-0.04 -1.945,-0.081 -2.918,-0.122 -0.047,-0.221 -0.114,-0.435 -0.203,-0.642 1.17,-0.274 2.265,-0.243 3.121,0.764 z"
   id="path194" />
		<path
   fill-rule="evenodd"
   clip-rule="evenodd"
   fill="#100e0c"
   d="m 245.037,160.956 c -0.872,0 -1.634,-0.194 -1.985,-1.118 0.309,-0.194 0.636,-0.232 0.981,-0.112 0.32,0.093 0.641,0.185 0.961,0.277 0.226,0.204 0.307,0.455 0.242,0.752 z"
   id="path196" />
		<path
   fill-rule="evenodd"
   clip-rule="evenodd"
   fill="#cba37c"
   d="m 245.236,160.755 c -0.063,-0.256 -0.144,-0.507 -0.242,-0.752 0.347,0.233 0.693,0.466 1.04,0.698 l -0.396,0.076 z"
   id="path198" />
		<path
   fill-rule="evenodd"
   clip-rule="evenodd"
   fill="#cba37c"
   d="m 244.033,159.726 c -0.321,0.087 -0.648,0.124 -0.981,0.112 -0.054,-0.252 -0.124,-0.498 -0.214,-0.739 0.398,0.209 0.797,0.418 1.195,0.627 z"
   id="path200" />
		<path
   fill-rule="evenodd"
   clip-rule="evenodd"
   fill="#939494"
   d="m 274.968,245.951 c -1.28,-4.95 2.777,-7.55 4.852,-11.023 3.397,-2.771 7.258,-4.31 11.818,-4.297 -6.257,3.695 -13.236,6.533 -15.703,14.263 -0.242,0.434 -0.639,0.728 -0.977,1.075 z"
   id="path202" />
		<path
   fill-rule="evenodd"
   clip-rule="evenodd"
   fill="#e0e0e0"
   d="m 274.958,245.969 c 0.325,-0.358 0.651,-0.717 0.977,-1.075 -0.327,0.358 -0.652,0.716 -0.977,1.075 z"
   id="path204" />
		<path
   fill-rule="evenodd"
   clip-rule="evenodd"
   fill="#4a1b08"
   d="m 188.036,103.021 c -0.115,-0.12 -0.23,-0.239 -0.346,-0.358 6.952,-4.776 13.287,-10.783 23.281,-11.755 -3.266,2.744 -7.087,2.54 -9.744,6.06 8.646,-0.304 16.514,0.659 23.74,4.753 -3.029,-0.552 -6.058,-1.104 -9.087,-1.655 -8.707,0.411 -17.368,1.229 -25.929,2.933 l 0.07,-0.042 c -0.643,0.587 -1.304,0.639 -1.985,0.064 z"
   id="path206" />
		<path
   fill-rule="evenodd"
   clip-rule="evenodd"
   fill="#8e6c5f"
   d="m 189.951,102.998 c 6.261,-3.688 13.186,-3.155 20.025,-3.131 1.969,0.008 3.938,0.128 5.905,0.197 -3.729,2.299 -8.199,-0.226 -11.953,1.837 -0.593,0.325 -1.817,-0.512 -1.729,0.789 0.02,0.287 1.319,0.486 2.61,0.921 -8.06,2.197 -14.984,5.824 -22.913,6.791 3.771,-2.216 7.541,-4.433 11.41,-6.707 -1.138,-1.094 -2.326,-0.443 -3.355,-0.697 z"
   id="path208" />
		<path
   fill-rule="evenodd"
   clip-rule="evenodd"
   fill="#896658"
   d="m 241.017,118.995 c -4.521,1.375 -8.504,-2.529 -13.104,-1.191 2.857,-0.354 4.979,-3.536 8.147,-1.872 2.412,-0.207 3.905,1.07 4.957,3.063 z"
   id="path210" />
		<path
   fill-rule="evenodd"
   clip-rule="evenodd"
   fill="#4d1e0a"
   d="m 211.983,112.287 c 4.319,1.304 8.639,2.607 13.315,4.02 -5.44,1.113 -8.074,0.397 -13.315,-4.02 z"
   id="path212" />
		<path
   fill-rule="evenodd"
   clip-rule="evenodd"
   fill="#4c1d0a"
   d="m 241.017,118.995 c -1.652,-1.021 -3.305,-2.042 -4.957,-3.063 1.99,-2.12 3.199,0.1 4.572,0.901 2.98,1.738 5.207,4.271 6.728,7.56 -2.115,-1.799 -4.229,-3.599 -6.343,-5.398 z"
   id="path214" />
		<path
   fill-rule="evenodd"
   clip-rule="evenodd"
   fill="#835f51"
   d="m 174.002,100.01 c 0.378,-0.674 0.757,-1.348 1.136,-2.021 0.924,-0.643 1.848,-1.286 2.771,-1.929 -0.781,1.909 -1.244,4.109 -3.907,3.95 z"
   id="path216" />
		<path
   fill-rule="evenodd"
   clip-rule="evenodd"
   fill="#815b4c"
   d="m 243.047,108.92 c 2.261,0.395 4.135,1.366 5.174,3.593 -1.966,-0.834 -4.021,-1.52 -5.304,-3.437 z"
   id="path218" />
		<path
   fill-rule="evenodd"
   clip-rule="evenodd"
   fill="#7f5949"
   d="m 242.917,109.076 c -1.585,0.049 -2.965,-0.389 -4.403,-1.685 2.163,-0.506 3.38,0.422 4.532,1.529 0.001,0 -0.129,0.156 -0.129,0.156 z"
   id="path220" />
		<path
   fill-rule="evenodd"
   clip-rule="evenodd"
   fill="#8e6c5f"
   d="m 188.036,103.021 c 0.662,-0.022 1.323,-0.044 1.985,-0.065 -0.63,0.971 -1.284,1.252 -1.985,0.065 z"
   id="path222" />
		<path
   fill-rule="evenodd"
   clip-rule="evenodd"
   fill="#e1e1e1"
   d="m 214.995,333.003 c 6.387,1.82 11.588,5.494 15.877,10.452 4.479,5.179 5.604,12.895 2.862,18.989 -3.47,-5.985 -5.216,-12.911 -10.724,-17.487 1.803,-2.211 -0.724,-3.015 -1.547,-4.153 -1.976,-2.731 -4.29,-5.216 -6.468,-7.801 z"
   id="path224" />
		<path
   fill-rule="evenodd"
   clip-rule="evenodd"
   fill="#dcdcdc"
   d="m 271.964,298.961 c 0.164,1.109 2.975,1.165 1.21,3.041 -3.079,-0.446 -2.424,4.022 -5.212,3.96 l 0.063,0.054 c 0.657,-2.718 2.128,-4.982 3.939,-7.055 z"
   id="path226" />
		<path
   fill-rule="evenodd"
   clip-rule="evenodd"
   fill="#dcdcdc"
   d="m 267.962,305.962 c -0.094,0.448 -0.188,0.896 -0.281,1.344 -0.98,-0.724 -0.055,-0.937 0.345,-1.29 z"
   id="path228" />
		<path
   fill-rule="evenodd"
   clip-rule="evenodd"
   fill="#785143"
   d="m 159.972,123.968 c -0.852,-0.407 -0.943,-1.198 -1.011,-2.001 0.391,-2.437 2.025,-3.853 4.055,-4.944 l -0.042,-0.043 c -0.18,2.681 -2.051,4.637 -3.002,6.988 z"
   id="path230" />
		<path
   fill-rule="evenodd"
   clip-rule="evenodd"
   fill="#785143"
   d="m 163.017,117.022 c 0.054,-0.123 0.087,-0.262 0.169,-0.36 0.047,-0.057 0.173,-0.047 0.263,-0.066 -0.158,0.128 -0.316,0.256 -0.474,0.384 z"
   id="path232" />
		<path
   fill-rule="evenodd"
   clip-rule="evenodd"
   fill="#fbc997"
   d="m 190.883,168.026 c 1.129,0.671 2,-1.725 2.905,-0.435 0.638,0.909 0.246,2.262 -0.404,3.303 -1.666,2.664 -4.529,2.89 -7.078,2.772 -7.118,-0.326 -14.235,-1.001 -21.155,-2.846 -3.277,-0.874 -5.134,-2.939 -4.436,-6.625 0.154,-0.812 0.133,-1.658 0.181,-2.49 0.508,-8.807 1.171,-9.308 10.36,-7.474 -1.706,2.066 -4.232,3.795 -4.002,6.496 0.21,2.482 2.031,4.483 3.875,6.226 2.713,0.978 5.154,2.614 7.994,3.285 4.108,1.439 7.537,-0.624 11.069,-2.143 0.228,-0.026 0.46,-0.047 0.691,-0.069 z"
   id="path234" />
		<path
   fill-rule="evenodd"
   clip-rule="evenodd"
   fill="#fbfcfc"
   d="m 171.989,166.016 c -1.165,-2.193 -3.488,-4.135 -1.338,-6.997 2.36,-3.144 5.35,-4.661 9.321,-3.867 0.383,1.6 -1.183,2.213 -1.715,3.354 -0.973,2.091 -1.438,4.088 0.649,5.78 1.517,1.229 3.241,1.757 5.005,0.61 2.001,-1.302 2.847,-3.094 1.851,-5.491 -0.425,-1.022 -1.228,-2.01 -0.604,-3.241 6.292,1.504 8.814,6.729 5.726,11.862 l 0.086,-0.111 c -2.85,2.21 -6.076,3.231 -9.678,3.058 -3.566,-0.781 -7.415,-1.031 -9.303,-4.957 z"
   id="path236" />
		<path
   fill-rule="evenodd"
   clip-rule="evenodd"
   fill="#75a9dd"
   d="m 185.157,156.164 c 2.714,3.135 3.789,6.444 0.121,9.491 -2.766,2.297 -5.663,1.577 -7.979,-0.938 -2.537,-2.755 -1.544,-6.069 2.671,-9.566 1.878,-0.421 3.536,0.276 5.187,1.013 z"
   id="path238" />
		<path
   fill-rule="evenodd"
   clip-rule="evenodd"
   fill="#3c3a38"
   d="m 195.022,156.927 c 0.398,0.276 0.814,0.815 1.192,0.789 5.333,-0.367 10.443,2.032 15.799,1.262 -0.128,0.94 2.253,0.504 1.101,2.007 -0.5,0.404 -1.107,0.609 -1.672,0.897 -0.792,0.36 -1.585,0.696 -2.401,0.061 l -0.007,0.008 c -2.915,-2.583 -6.239,-3.73 -10.021,-2.395 -1.628,0.575 -2.882,-0.053 -4.262,-0.528 -0.649,0.321 -1.301,0.026 -1.952,0.007 -0.758,-0.726 -1.074,-1.611 -0.302,-2.413 0.86,-0.894 1.681,0.157 2.525,0.305 z"
   id="path240" />
		<path
   fill-rule="evenodd"
   clip-rule="evenodd"
   fill="#3b3228"
   d="m 171.989,166.016 c 2.602,2.225 5.501,3.809 8.968,4.174 -0.181,2.028 -1.547,0.965 -2.507,0.961 -3.167,-0.131 -5.484,-1.747 -7.323,-4.196 0.287,-0.314 0.575,-0.627 0.862,-0.939 z"
   id="path242" />
		<path
   fill-rule="evenodd"
   clip-rule="evenodd"
   fill="#cca47b"
   d="m 192.8,159.034 c 0.645,-1.634 1.301,0.032 1.952,-0.007 0.116,1.282 0.233,2.564 0.35,3.846 -0.206,0.068 -0.412,0.137 -0.618,0.204 -0.562,-1.348 -1.123,-2.695 -1.684,-4.043 z"
   id="path244" />
		<path
   fill-rule="evenodd"
   clip-rule="evenodd"
   fill="#464646"
   d="m 181.192,153.441 c -0.644,0.763 -1.861,0.752 -2.057,0.278 -0.403,-0.98 0.693,-0.524 1.14,-0.612 0.264,-0.052 0.589,0.205 0.917,0.334 z"
   id="path246" />
		<path
   fill-rule="evenodd"
   clip-rule="evenodd"
   fill="#461705"
   d="m 160.014,126.014 c -0.148,0.734 -0.296,1.468 -0.444,2.202 -0.129,-0.088 -0.338,-0.149 -0.375,-0.267 -0.27,-0.857 0.062,-1.494 0.793,-1.957 z"
   id="path248" />
		<path
   fill-rule="evenodd"
   clip-rule="evenodd"
   fill="#cba37c"
   d="m 239.956,161.765 c 3.688,0.854 4.869,2.797 4.326,6.817 -1.432,10.62 -1.854,11.123 -12.732,10.675 -5.647,-0.233 -11.23,-0.861 -16.662,-2.334 -2.942,-0.798 -5.53,-2.236 -5.078,-6.222 0.34,-2.999 1.833,-0.303 2.642,-0.738 0.104,0.359 0.34,0.571 0.716,0.636 0.323,0.182 0.616,0.398 0.898,0.639 0.306,0.237 0.592,0.488 0.886,0.739 0.159,0.123 0.305,0.253 0.467,0.377 0.349,0.246 0.675,0.504 1.015,0.758 7.456,3.72 11.054,3.372 16.829,-1.645 2.511,-2.026 3.031,-4.404 1.454,-7.284 -0.505,-0.922 -1.371,-1.904 -0.518,-3.104 1.618,0.213 3.236,0.427 4.854,0.64 0.308,-0.138 0.61,-0.122 0.903,0.046 z"
   id="path250" />
		<path
   fill-rule="evenodd"
   clip-rule="evenodd"
   fill="#fcfcfc"
   d="m 211.697,166.986 c 2.037,-3.693 4.034,-7.443 9.257,-6.801 0.32,1.58 -1.115,2.302 -1.717,3.421 -1.095,2.034 -0.916,3.854 0.694,5.449 1.412,1.397 3.088,1.925 4.985,0.922 1.998,-1.058 2.772,-2.73 2.486,-4.953 -0.181,-1.399 -1.432,-2.745 -0.235,-4.222 0.618,0.012 1.237,0.023 1.856,0.036 5.89,1.251 8.064,5.568 5.226,10.371 -6.302,5.843 -12.223,6.329 -18.967,1.559 -0.463,-0.237 -0.889,-0.529 -1.278,-0.875 l 0.101,0.104 c -0.425,-0.312 -0.792,-0.68 -1.106,-1.103 l 0.105,0.107 c -0.338,-0.247 -0.466,-0.576 -0.384,-0.987 -0.341,-1.008 -0.682,-2.018 -1.023,-3.028 z"
   id="path252" />
		<path
   fill-rule="evenodd"
   clip-rule="evenodd"
   fill="#77abde"
   d="m 227.168,160.803 c 0.367,0.892 0.686,1.809 1.112,2.672 1.513,3.061 0.511,5.536 -2.027,7.332 -2.692,1.905 -5.442,1.337 -7.55,-1.029 -2.155,-2.422 -2.002,-5.128 0.048,-7.629 0.616,-0.751 1.462,-1.313 2.202,-1.963 0.345,-0.117 0.688,-0.234 1.031,-0.352 1.347,0.121 2.692,0.241 4.039,0.361 0.416,0.162 0.661,0.75 1.243,0.499 z"
   id="path254" />
		<path
   fill-rule="evenodd"
   clip-rule="evenodd"
   fill="#0e0c0a"
   d="m 233.952,170.902 c 2.556,-5.411 -1.347,-7.659 -4.928,-10.063 1.804,-1.63 3.478,-0.465 5.174,0.239 4.187,6.606 4.178,7.324 -0.148,11.528 -0.438,-0.544 -0.47,-1.113 -0.098,-1.704 z"
   id="path256" />
		<path
   fill-rule="evenodd"
   clip-rule="evenodd"
   fill="#414141"
   d="m 211.96,159.021 c 4.516,-2.065 9.284,-0.473 13.906,-0.962 -1.01,1.433 -2.591,0.677 -3.886,1.02 -3.339,-0.019 -6.679,-0.039 -10.02,-0.058 z"
   id="path258" />
		<path
   fill-rule="evenodd"
   clip-rule="evenodd"
   fill="#100e0c"
   d="m 229.977,158.176 c 0.011,0.23 0.041,0.458 0.09,0.683 -0.447,-0.098 -0.896,-0.194 -1.343,-0.291 0.418,-0.131 0.835,-0.261 1.253,-0.392 z"
   id="path260" />
		<path
   fill-rule="evenodd"
   clip-rule="evenodd"
   d="m 244.731,178.172 c -0.117,0.035 -0.235,0.07 -0.354,0.105 -0.039,-0.141 -0.108,-0.283 -0.102,-0.422 0.003,-0.041 0.219,-0.071 0.337,-0.106 0.041,0.141 0.08,0.281 0.119,0.423 z"
   id="path262" />
		<path
   fill-rule="evenodd"
   clip-rule="evenodd"
   fill="#cba37c"
   d="m 227.267,160.694 c -0.414,-0.166 -0.829,-0.333 -1.243,-0.499 0.414,0.166 0.829,0.333 1.243,0.499 z"
   id="path264" />
		<path
   fill-rule="evenodd"
   clip-rule="evenodd"
   fill="#100e0c"
   d="m 239.956,161.765 -0.457,0.078 -0.446,-0.125 c 0.322,-0.405 0.623,-0.381 0.903,0.047 z"
   id="path266" />
		<path
   fill-rule="evenodd"
   clip-rule="evenodd"
   fill="#0e0b09"
   d="m 212.721,170.016 c 0.128,0.329 0.256,0.658 0.384,0.987 -0.651,-0.073 -1.174,-0.229 -0.655,-1.041 0.001,0.001 0.271,0.054 0.271,0.054 z"
   id="path268" />
		<path
   fill-rule="evenodd"
   clip-rule="evenodd"
   fill="#964f3b"
   d="m 151.073,164.068 c 0,1.304 0,2.606 0,4.623 -1.512,-2.133 -1.344,-3.464 -0.137,-4.736 -0.001,-0.001 0.137,0.113 0.137,0.113 z"
   id="path270" />
		<path
   fill-rule="evenodd"
   clip-rule="evenodd"
   d="m 252.992,158.992 c 0.128,-0.444 0.256,-0.888 0.384,-1.332 0.128,0.089 0.256,0.178 0.384,0.266 -0.251,0.36 -0.502,0.72 -0.753,1.079 0.001,0 -0.015,-0.013 -0.015,-0.013 z"
   id="path272" />
		<path
   fill-rule="evenodd"
   clip-rule="evenodd"
   fill="#e3e3e3"
   d="m 252.959,331.049 c 8.885,0.121 11.321,7.373 14.645,13.476 1.076,1.977 0.793,4.638 -1.552,5.584 -2.264,0.914 -2.165,-1.877 -3.004,-3.056 -2.52,-3.54 -5.847,-6.237 -9.048,-9.076 -1.182,-2.184 -2.782,-4.305 -1.041,-6.928 z"
   id="path274" />
		<path
   fill-rule="evenodd"
   clip-rule="evenodd"
   fill="#d0d0d0"
   d="m 252.959,331.049 c 0.348,2.31 0.694,4.619 1.041,6.928 -0.658,-0.338 -1.315,-0.676 -1.973,-1.015 -0.331,-0.332 -0.713,-0.608 -1.048,-0.937 -5.365,-2.061 -10.729,-4.122 -16.095,-6.183 0.064,-0.299 0.128,-0.597 0.192,-0.895 5.962,0.701 11.922,1.402 17.883,2.102 z"
   id="path276" />
		<path
   fill-rule="evenodd"
   clip-rule="evenodd"
   fill="#e3e3e3"
   d="m 250.979,336.025 c 0.349,0.313 0.698,0.625 1.048,0.938 -0.349,-0.313 -0.699,-0.625 -1.048,-0.938 z"
   id="path278" />
		<path
   fill-rule="evenodd"
   clip-rule="evenodd"
   fill="#5d0505"
   d="m 186.157,215.078 c -2.87,-3.163 -4.198,-7.032 -5.08,-11.105 0.465,-0.176 0.963,-0.459 1.438,-0.31 9.825,3.097 19.945,3.111 30.087,2.939 0.843,-0.015 1.616,0.34 2.316,0.816 -2.439,3.707 -4.289,7.863 -8.051,10.563 -7.269,1.644 -14.286,1.487 -20.71,-2.903 z"
   id="path280" />
		<path
   fill-rule="evenodd"
   clip-rule="evenodd"
   fill="#edecec"
   d="m 214.918,207.419 c -11.589,1.879 -22.898,1.008 -33.841,-3.447 0,0.001 -0.054,-0.061 -0.054,-0.061 -0.301,-0.226 -0.573,-0.482 -0.821,-0.765 -0.286,-0.882 -0.572,-1.765 -0.966,-2.979 6.275,1.86 12.299,3.558 18.503,4.366 6.185,0.807 12.418,0.479 19.188,0.097 -0.911,1.265 -1.46,2.026 -2.009,2.789 z"
   id="path282" />
		<path
   fill-rule="evenodd"
   clip-rule="evenodd"
   fill="#d3d1d1"
   d="m 186.157,215.078 c 6.676,2.59 13.754,2.308 20.71,2.904 -6.772,5.064 -16.95,3.637 -20.71,-2.904 z"
   id="path284" />
		<path
   fill-rule="evenodd"
   clip-rule="evenodd"
   fill="#5d0505"
   d="m 180.201,203.146 c 0.274,0.256 0.549,0.512 0.822,0.767 -0.274,-0.257 -0.548,-0.512 -0.822,-0.767 z"
   id="path286" />
		<path
   fill-rule="evenodd"
   clip-rule="evenodd"
   fill="#1a1715"
   d="m 209.041,161.942 c 0.722,-0.299 1.444,-0.598 2.166,-0.896 0.502,0.572 0.276,1.438 0.807,1.999 -0.591,0.911 -0.785,2.686 -2.069,2.346 -1.661,-0.438 -0.685,-2.245 -0.904,-3.449 z"
   id="path288" />
		<path
   fill-rule="evenodd"
   clip-rule="evenodd"
   fill="#d6ab80"
   d="m 212.014,163.046 c -1.52,-0.161 -0.926,-1.177 -0.808,-1.999 0.637,-0.021 1.272,-0.042 1.908,-0.063 -0.366,0.688 -0.733,1.374 -1.1,2.062 z"
   id="path290" />
		<path
   fill-rule="evenodd"
   clip-rule="evenodd"
   fill="#653522"
   d="m 199.288,103.406 c -0.046,0.107 -0.089,0.305 -0.138,0.306 -0.139,0.005 -0.28,-0.071 -0.42,-0.116 0.046,-0.107 0.089,-0.306 0.138,-0.307 0.138,-0.004 0.279,0.072 0.42,0.117 z"
   id="path292" />
		<path
   fill-rule="evenodd"
   clip-rule="evenodd"
   fill="#44382d"
   d="m 178.45,171.15 c 0.836,-0.32 1.671,-0.641 2.507,-0.961 3.582,0.315 6.736,-1.246 10.012,-2.274 -3.337,4.314 -7.659,4.814 -12.519,3.235 z"
   id="path294" />
		<path
   fill-rule="evenodd"
   clip-rule="evenodd"
   fill="#0f1317"
   d="m 182.454,158.991 c 2.487,0.117 2.473,1.626 1.731,3.336 -0.579,1.335 -1.825,2.08 -3.169,1.476 -1.748,-0.787 -3.012,-2.054 -1.189,-4.049 0.708,-0.83 1.662,-0.814 2.627,-0.763 z"
   id="path296" />
		<path
   fill-rule="evenodd"
   clip-rule="evenodd"
   fill="#f8fafc"
   d="m 182.454,158.991 c -0.604,1.183 -1.525,1.275 -2.625,0.764 -0.226,-0.886 -0.811,-1.904 0.435,-2.446 1.626,-0.708 1.767,0.714 2.19,1.682 z"
   id="path298" />
		<path
   fill-rule="evenodd"
   clip-rule="evenodd"
   fill="#3a3027"
   d="m 233.952,170.902 c 0.032,0.567 0.065,1.136 0.098,1.704 -6.7,5.521 -13.731,5.651 -19.049,0.352 l -0.354,-0.328 0.303,-0.376 c 6.654,4.039 13.017,3.999 19.002,-1.352 z"
   id="path300" />
		<path
   fill-rule="evenodd"
   clip-rule="evenodd"
   fill="#0e0b09"
   d="m 212.999,170.896 c 0.767,-0.031 1.134,0.337 1.106,1.103 -0.757,0.022 -1.107,-0.364 -1.106,-1.103 z"
   id="path302" />
		<path
   fill-rule="evenodd"
   clip-rule="evenodd"
   fill="#0e0c09"
   d="m 214.95,172.254 c -0.078,0.242 -0.061,0.478 0.051,0.705 -0.72,0.007 -1.032,-0.366 -0.996,-1.065 0.315,0.12 0.63,0.24 0.945,0.36 z"
   id="path304" />
		<path
   fill-rule="evenodd"
   clip-rule="evenodd"
   fill="#0d141b"
   d="m 224.182,163.254 c 1.923,1.133 2.485,2.64 1.077,4.514 -0.754,1.004 -1.92,1.552 -3.067,0.856 -1.421,-0.861 -2.96,-1.92 -1.188,-3.865 0.954,-0.722 1.954,-1.351 3.178,-1.505 z"
   id="path306" />
		<path
   fill-rule="evenodd"
   clip-rule="evenodd"
   fill="#edeff1"
   d="m 224.182,163.254 c -0.413,1.866 -1.693,1.9 -3.179,1.505 0.019,-0.948 -0.413,-2.122 0.752,-2.623 1.071,-0.461 1.883,0.163 2.427,1.118 z"
   id="path308" />
	</g>
</g>
</svg>
