<?xml version="1.0" encoding="UTF-8" standalone="no"?>
<svg
   xmlns:dc="http://purl.org/dc/elements/1.1/"
   xmlns:cc="http://creativecommons.org/ns#"
   xmlns:rdf="http://www.w3.org/1999/02/22-rdf-syntax-ns#"
   xmlns:svg="http://www.w3.org/2000/svg"
   xmlns="http://www.w3.org/2000/svg"
   width="61"
   height="61"
   viewBox="0 0 61 61"
   version="1.1"
   id="svg3">
  <metadata
     id="metadata9">
    <rdf:RDF>
      <cc:Work
         rdf:about="">
        <dc:format>image/svg+xml</dc:format>
        <dc:type
           rdf:resource="http://purl.org/dc/dcmitype/StillImage" />
        <dc:title></dc:title>
      </cc:Work>
    </rdf:RDF>
  </metadata>
  <defs
     id="defs7" />
  <path
     id="_001-email"
     data-name="001-email"
     d="M30.5,0A30.5,30.5,0,1,1,0,30.5,30.5,30.5,0,0,1,30.5,0ZM11.735,41.244c0,.013,0,.026,0,.039L24.555,31.3,11.735,19.938ZM36.445,31.3l12.818,9.986c0-.013,0-.026,0-.039V19.938ZM26.6,33.1,14.255,42.719h32.49L34.4,33.1l-3.015,2.671a1.34,1.34,0,0,1-1.778,0L26.6,33.1Zm3.9-.123,16.593-14.7H13.907Z"
     fill-rule="evenodd"
     style="fill:#191717;fill-opacity:1" />
</svg>
