<?xml version="1.0" encoding="utf-8"?>
<!-- Generator: Adobe Illustrator 16.0.0, SVG Export Plug-In . SVG Version: 6.00 Build 0)  -->
<!DOCTYPE svg PUBLIC "-//W3C//DTD SVG 1.1//EN" "http://www.w3.org/Graphics/SVG/1.1/DTD/svg11.dtd">
<svg version="1.1" id="Layer_1" xmlns="http://www.w3.org/2000/svg" xmlns:xlink="http://www.w3.org/1999/xlink" x="0px" y="0px"
	 width="120px" height="120px" viewBox="0 0 120 120" enable-background="new 0 0 120 120" xml:space="preserve">
<path fill-rule="evenodd" clip-rule="evenodd" fill="#191717" d="M59.999,4.612c-31.359,0-56.788,25.425-56.788,56.794
	c0,25.089,16.271,46.375,38.84,53.887c2.839,0.518,3.877-1.233,3.877-2.737c0-1.35-0.051-4.925-0.078-9.663
	c-15.797,3.431-19.13-7.612-19.13-7.612c-2.583-6.559-6.305-8.307-6.305-8.307c-5.156-3.522,0.39-3.453,0.39-3.453
	c5.699,0.401,8.699,5.855,8.699,5.855c5.066,8.676,13.292,6.169,16.527,4.719c0.516-3.67,1.984-6.175,3.605-7.592
	c-12.61-1.436-25.868-6.307-25.868-28.068c0-6.201,2.213-11.271,5.846-15.24c-0.583-1.437-2.533-7.21,0.558-15.029
	c0,0,4.768-1.527,15.616,5.822c4.53-1.26,9.388-1.89,14.218-1.912c4.825,0.022,9.68,0.652,14.217,1.912
	c10.845-7.349,15.604-5.822,15.604-5.822c3.1,7.819,1.147,13.592,0.565,15.029c3.636,3.969,5.835,9.039,5.835,15.24
	c0,21.817-13.278,26.617-25.928,28.021c2.038,1.755,3.852,5.221,3.852,10.52c0,7.592-0.066,13.714-0.066,15.58
	c0,1.517,1.021,3.28,3.905,2.73c22.549-7.525,38.802-28.798,38.802-53.88C116.79,30.037,91.364,4.612,59.999,4.612z"/>
</svg>
