<?xml version="1.0" encoding="UTF-8" standalone="no"?>
<svg
   xmlns:dc="http://purl.org/dc/elements/1.1/"
   xmlns:cc="http://creativecommons.org/ns#"
   xmlns:rdf="http://www.w3.org/1999/02/22-rdf-syntax-ns#"
   xmlns:svg="http://www.w3.org/2000/svg"
   xmlns="http://www.w3.org/2000/svg"
   width="61"
   height="61"
   viewBox="0 0 61 61"
   version="1.1"
   id="svg3">
  <metadata
     id="metadata9">
    <rdf:RDF>
      <cc:Work
         rdf:about="">
        <dc:format>image/svg+xml</dc:format>
        <dc:type
           rdf:resource="http://purl.org/dc/dcmitype/StillImage" />
        <dc:title></dc:title>
      </cc:Work>
    </rdf:RDF>
  </metadata>
  <defs
     id="defs7" />
  <path
     id="_010-linkedin"
     data-name="010-linkedin"
     d="M30.5,0A30.5,30.5,0,1,0,61,30.5,30.5,30.5,0,0,0,30.5,0ZM21.637,46.107H14.209V23.76h7.428Zm-3.714-25.4h-.048a3.872,3.872,0,1,1,.1-7.722,3.873,3.873,0,1,1-.049,7.722Zm30.5,25.4H40.994V34.152c0-3-1.076-5.054-3.763-5.054a4.066,4.066,0,0,0-3.811,2.717,5.087,5.087,0,0,0-.244,1.813v12.48H25.748s.1-20.251,0-22.348h7.428v3.164a7.374,7.374,0,0,1,6.694-3.689c4.887,0,8.552,3.194,8.552,10.058Zm0,0"
     style="fill:#191717;fill-opacity:1" />
</svg>
